<svg width="1002" height="733" viewBox="0 0 1002 733" fill="none" xmlns="http://www.w3.org/2000/svg">
<path fill-rule="evenodd" clip-rule="evenodd" d="M8.98972 494.574C25.8753 522.902 45.5417 550.331 57.352 581.303C56.8761 577.653 56.3714 574.006 55.8066 570.364C52.8099 551.059 49.0854 531.895 45.1717 512.755C43.1786 503.01 41.0707 493.3 38.9086 483.591C37.7458 478.376 36.5973 473.158 35.4105 467.948C35.1231 466.685 34.8761 464.481 34.5162 462.247C45.994 499.912 57.0624 537.604 65.1586 576.174C66.2207 581.236 67.1252 586.289 67.8661 591.333C68.1195 590.182 68.3688 589.031 68.6416 587.884C71.9175 574.127 76.8314 560.48 82.6823 547.618C85.4793 541.467 88.6921 535.45 92.4749 529.844C94.8338 526.35 100.397 522.196 102.549 518.617C90.7801 540.202 86.5307 567.209 79.7355 590.675C78.077 596.402 76.4081 602.119 74.7729 607.847C85.0203 587.296 100.919 570.411 123.025 563.094C96.2671 580.773 80.2175 611.735 69.4024 643.401C69.3667 643.777 69.3243 644.152 69.2877 644.528C72.4702 638.488 76.4791 633.025 81.9123 629.199C93.5409 621.008 106.441 623.394 117.721 630.42C108.868 624.793 92.868 629.917 85.419 635.637C80.0863 639.731 75.5289 645.224 71.5713 650.583C70.623 651.868 69.3293 653.367 67.9625 654.966C66.0462 667.405 62.9235 679.759 58.5023 692.014C59.2319 688.496 58.7044 682.87 58.9067 680.248C58.9287 679.964 58.9466 679.68 58.9684 679.397C58.2964 682.081 57.6471 684.733 57.0219 687.343C58.2647 682.363 58.9401 677.164 59.4673 671.911C59.6031 669.653 59.7355 667.396 59.8755 665.138C59.8311 660.854 59.6547 656.553 59.3562 652.245C58.2979 648.058 57.1131 644.109 56.1359 640.824C52.6098 628.973 47.4407 617.62 41.0784 607.028C35.2735 597.363 28.325 588.608 20.3034 580.69C15.9791 576.423 11.4534 572.359 6.9915 568.238C5.37805 566.748 2.49416 563.086 0 561.177C18.1647 571.191 36.8612 582.025 50.1123 598.16C48.5588 592.195 46.8714 586.313 45.0865 580.55C36.031 551.309 24.5971 521.003 8.98972 494.574Z" fill="#B4F754"/>
<path fill-rule="evenodd" clip-rule="evenodd" d="M27.1367 654.926C27.1367 687.399 29.7083 713.724 64.2251 713.724C98.7418 713.724 101.313 687.399 101.313 654.926" fill="#3E978B"/>
<path fill-rule="evenodd" clip-rule="evenodd" d="M695.228 320.887C694.346 321.601 693.48 322.332 692.635 323.091C691.991 323.671 690.852 324.364 690.621 325.241C690.381 326.152 691.139 327.006 691.738 327.557C694.907 330.472 698.474 332.442 702.864 332.77C709.624 333.275 715.507 331.549 721.372 328.152C725.492 325.766 728.221 322.237 728.817 317.471C733.724 319.51 738.469 322.321 742.502 325.77C744.491 327.473 746.205 329.358 747.79 331.449C748.805 332.788 749.787 334.148 750.699 335.561C751.095 336.175 751.498 337.264 752.152 337.617C752.919 338.033 753.847 337.382 753.809 336.528C753.778 335.818 753.01 334.993 752.652 334.413C752.056 333.448 751.451 332.49 750.814 331.552C749.784 330.033 748.719 328.536 747.557 327.115C744.947 323.922 741.625 321.284 738.182 319.035C731.576 314.72 724.327 312.001 716.29 311.771C711.347 311.629 707.19 313.318 702.964 315.84C700.332 317.409 697.616 318.953 695.228 320.887Z" fill="#335D2D"/>
<path fill-rule="evenodd" clip-rule="evenodd" d="M759.336 300.015C754.186 294.712 749.018 289.474 743.264 284.803C739.873 282.051 736.299 279.549 732.799 276.94C733.203 277.293 733.599 277.657 733.986 278.03C732.893 277.288 731.463 276.869 730.305 276.183C729.013 275.417 727.778 274.541 726.566 273.658C724.202 271.935 721.873 270.18 719.442 268.547C716.734 266.727 713.928 265.046 711.173 263.295C708.836 261.809 706.47 260.183 703.969 258.968C702.607 258.306 701.241 257.522 699.872 256.831C699.414 256.6 694.767 253.666 694.779 253.657C695.035 253.463 697.374 254.562 697.736 254.71C698.792 255.141 699.802 255.657 700.818 256.172C700.261 255.072 699.819 253.917 699.579 252.701C699.505 252.325 698.91 249.593 699.215 249.364C699.366 249.249 700.849 254.138 700.925 254.608C700.987 254.99 700.978 255.54 701.103 255.901C701.304 256.485 701.294 256.309 701.739 256.638C702.554 257.241 703.635 257.618 704.517 258.122C704.992 258.387 706.465 259.44 707.351 259.74C710.034 261.043 712.754 263.048 715.303 264.712C714.634 263.455 714.125 262.14 713.754 260.762C713.666 260.435 712.713 257.5 712.944 257.326C713.204 257.13 715.02 261.612 715.127 262.036C715.327 262.825 715.368 263.702 715.618 264.469C715.893 265.31 716.75 265.609 717.522 266.099C720.363 267.904 723.106 269.822 725.804 271.828C728.747 266.593 725.353 260.272 722.493 255.879C720.431 252.714 717.656 250 714.725 247.63C710.814 244.468 706.338 241.942 701.869 239.631C696.661 236.939 691.032 235.271 685.18 234.5C682.12 234.097 678.988 234.108 675.897 234.237C674.387 234.3 672.937 234.5 671.49 234.993C670.838 235.215 670.207 235.495 669.593 235.809C669.126 236.047 667.997 236.299 667.728 236.654C665.519 239.529 664.389 242.395 664.562 246.008C664.725 249.428 665.805 252.851 667.271 255.902C668.904 259.299 671.004 262.382 673.75 264.97C675.845 266.945 678.188 268.663 680.515 270.359C688.791 276.391 699.284 281.637 710.004 280.289C713.474 279.853 716.774 278.64 719.859 276.991C720.585 276.602 721.308 276.209 721.994 275.75C722.456 275.441 723.693 274.047 724.158 273.997C724.796 273.927 726.169 275.224 726.768 275.619C731.314 278.621 735.742 281.784 740.077 285.076C744.688 288.579 749.074 292.319 753.33 296.236C755.141 297.902 756.94 299.571 758.698 301.293C759.107 301.694 760.108 303.169 760.85 303.236C761.319 303.278 761.635 302.877 761.568 302.443C761.452 301.688 759.864 300.558 759.336 300.015Z" fill="#335D2D"/>
<path fill-rule="evenodd" clip-rule="evenodd" d="M717.297 294.093C716.672 293.416 715.97 292.805 715.146 292.37C714.938 292.26 713.386 291.522 713.285 291.684C713.049 292.061 717.11 293.877 717.297 294.093ZM724.656 289.572C724.651 289.601 725.189 290.514 725.335 290.795C725.647 291.392 725.935 292 726.206 292.61C725.805 291.533 725.393 290.534 724.656 289.572ZM687.022 297.005C686.504 297.172 685.881 296.514 686.553 296.352C687.097 296.222 687.07 296.192 687.315 295.753C687.513 295.398 687.635 294.964 687.809 294.59C688.178 293.798 688.597 293.043 689.111 292.335C690.213 290.818 691.555 289.511 693.061 288.409C695.688 286.487 698.634 284.73 701.759 283.847C706.727 282.443 712.382 282.357 717.359 283.33C720.441 283.932 723.257 284.98 725.304 287.462C726.326 288.702 727.129 290.155 727.48 291.754C727.572 292.173 727.555 292.638 727.669 293.047C727.846 293.677 727.768 293.509 728.504 293.631C729.308 293.765 730.111 293.902 730.914 294.04C733.017 294.404 735.132 294.79 737.18 295.381C737.855 295.575 738.514 295.812 739.158 296.088C739.645 296.296 741.585 296.95 741.821 297.583C742.214 298.636 740.899 298.159 740.49 297.93C740.132 297.729 739.765 297.541 739.392 297.369C738.454 296.934 737.476 296.598 736.476 296.331C735.395 296.042 734.292 295.826 733.194 295.61C732.169 295.409 731.141 295.225 730.111 295.05C729.539 294.953 728.967 294.858 728.394 294.764C728.199 294.732 727.854 294.562 727.88 294.817C726.676 294.585 725.375 294.618 724.149 294.554C722.647 294.476 721.14 294.411 719.634 294.458C718.547 294.492 717.459 294.564 716.378 294.71C715.747 294.795 715.125 294.92 714.505 295.078C714.165 295.165 712.822 295.349 712.637 295.646C712.716 295.518 714.198 295.642 714.387 295.635C715.141 295.606 715.889 295.532 716.641 295.448C718.036 295.292 719.431 295.21 720.83 295.222C720.824 295.468 719.869 295.905 719.636 296.068C719.113 296.433 718.612 296.831 718.144 297.268C717.321 298.037 716.335 298.99 715.766 299.901C715.933 299.633 716.761 299.283 717.055 299.078C717.526 298.749 717.987 298.398 718.423 298.023C718.826 297.677 719.202 297.303 719.572 296.921C719.941 296.539 720.443 295.744 720.928 295.49C720.958 295.474 721.169 295.642 721.29 295.585C721.411 295.527 721.562 295.241 721.593 295.229C722.045 295.055 722.903 295.272 723.379 295.294C724.611 295.351 725.842 295.425 727.074 295.493C727.456 295.514 727.78 295.427 727.924 295.708C728.077 296.008 727.796 296.797 727.716 297.124C727.419 298.339 726.892 299.428 726.061 300.368C724.507 302.13 722.589 303.305 720.423 304.091C712.127 307.101 703.301 308.306 695.008 305.175C691.574 303.879 686.403 301.563 687.022 297.005Z" fill="#335D2D"/>
<path fill-rule="evenodd" clip-rule="evenodd" d="M701.682 512.905C699.047 512.905 696.42 512.955 693.788 513.085C691.782 513.185 688.717 512.789 687.019 513.979C685.256 515.215 685.377 517.746 685.653 519.533C687.109 528.982 690.664 537.361 698.1 544.056C709.549 554.365 722.675 559.602 738.207 561.935C749.117 563.573 759.189 561.298 767.221 553.914C773.089 564.28 777.541 575.752 779.774 587.33C780.876 593.043 781.213 598.688 781.019 604.505C780.894 608.231 780.678 611.949 780.259 615.657C780.077 617.269 779.213 619.708 779.876 621.231C780.654 623.019 783.277 623.192 784.455 621.667C785.435 620.398 785.255 617.906 785.456 616.404C785.79 613.909 786.099 611.412 786.32 608.905C786.679 604.848 786.945 600.78 786.925 596.707C786.881 587.557 784.743 578.372 781.82 569.686C776.211 553.023 767.11 538.213 752.957 526.594C744.254 519.449 734.294 516.556 722.994 515.002C715.959 514.035 708.809 512.905 701.682 512.905Z" fill="#7EA04D"/>
<path fill-rule="evenodd" clip-rule="evenodd" d="M742.32 579.162C713.881 579.162 694.727 600.978 685.671 623.651C682.257 632.198 681.457 641.583 680.141 650.557C679.719 653.437 679.875 657.826 678.647 660.391C678.202 661.322 677.18 661.656 677.668 662.924C677.964 663.691 678.544 664.161 679.416 664.314C681.205 664.627 683.734 662.773 685.268 662.041C697.989 655.969 706.347 646.579 713.165 635.092C717.392 627.972 721.68 620.58 724.191 612.763C725.725 607.988 726.618 602.959 727.142 598.005C727.348 596.054 727.548 594.057 727.536 592.094C727.524 590.147 726.572 589.117 725.888 587.422C735.377 584.003 746.088 583.072 755.7 586.615C764.591 589.892 771.976 596.224 776.111 604.179C777.186 606.247 778.014 608.429 778.618 610.654C779.013 612.111 779.032 614.002 779.764 615.32C781.539 618.514 785.275 616.378 784.916 613.405C783.916 605.111 778.931 596.784 772.559 591.017C764.523 583.744 753.63 579.162 742.32 579.162Z" fill="#7EA04D"/>
<path fill-rule="evenodd" clip-rule="evenodd" d="M1015.84 112.767C1012.75 112.093 1009.35 112.144 1006.2 112.2C989.349 112.429 972.797 120.409 962.024 133.161C952.853 144.016 950.332 157.513 948.52 171.156C948.34 172.51 948.263 173.856 948.162 175.214C948.14 175.505 948.108 175.765 948.073 176.009C947.36 176.646 946.987 177.389 947.408 178.205C945.839 181.64 944.511 185.162 943.372 188.794C940.019 199.487 936.608 210.382 938.709 221.626C939.2 215.438 940.232 209.111 941.467 203.026C941.538 202.676 941.615 202.33 941.695 201.984C941.703 201.948 941.711 201.911 941.719 201.875C942.156 200.012 942.724 198.204 943.415 196.424C943.423 196.405 943.43 196.386 943.437 196.367C943.528 196.132 943.625 195.9 943.721 195.667C943.919 195.184 944.122 194.703 944.338 194.224C944.411 194.061 944.481 193.896 944.548 193.731C945.554 191.265 945.979 188.486 946.88 185.935C947.096 185.355 947.321 184.777 947.557 184.202C947.571 184.168 947.586 184.135 947.6 184.101C948.238 182.554 948.943 181.026 949.689 179.513C950.094 179.209 950.311 178.453 950.66 177.767C950.733 177.631 951.298 176.729 951.466 176.209C951.905 175.359 952.343 174.51 952.785 173.662C952.772 173.667 952.758 173.672 952.745 173.676C953.188 172.862 953.632 172.051 954.072 171.244C954.169 171.066 954.267 170.889 954.364 170.711C954.522 170.428 954.681 170.145 954.838 169.862C956.315 167.22 957.88 164.631 959.506 162.073C960.086 161.161 961.473 159.852 961.738 158.828C961.748 158.789 961.75 158.754 961.756 158.717C965.284 153.763 969.346 149.192 974.216 145.571C973.627 146.208 972.376 148.367 972.045 148.795C971.033 150.104 969.933 151.323 968.83 152.556C966.854 154.766 964.925 157.046 963.211 159.457C960.076 163.865 957.372 168.505 954.815 173.239C954.791 173.267 954.764 173.293 954.741 173.321C953.456 174.905 952.648 177.299 951.723 179.111C955.383 177.415 959.43 176.311 963.187 174.806C966.933 173.305 970.578 171.634 974.096 169.671C978.772 167.063 983.623 164.118 988.041 160.785C993.105 157.644 997.36 153.321 1001.12 148.785C1005.56 143.417 1009.63 138.003 1012.15 131.486C1013.39 128.283 1014.36 124.944 1014.94 121.565C1014.96 121.418 1014.99 121.258 1015.03 121.092C1015.62 119.926 1016.15 118.733 1016.59 117.512C1017.29 115.576 1018.96 113.447 1015.84 112.767Z" fill="#335D2D"/>
<path fill-rule="evenodd" clip-rule="evenodd" d="M1022.18 172.213C1018.61 169.793 1013.86 169.159 1009.59 169.159C992.918 169.159 977.242 175.347 963.7 184.566C956.28 189.618 949.642 196.051 943.782 202.749C940.399 206.615 937.383 210.798 935.247 215.45C933.806 218.59 932.817 221.861 932.147 225.236C931.33 229.348 930.681 233.544 930.387 237.725C930.272 239.371 929.315 248.107 932.053 248.255C932.037 248.47 932.033 248.676 932.05 248.86C926.106 258.153 922.434 269.045 919.029 279.371C916.066 288.357 913.426 297.418 911.712 306.714C909.456 318.953 907.974 331.376 907.269 343.791C907.118 346.459 907.014 349.128 906.924 351.8C906.848 354.079 906.772 356.357 906.697 358.636C906.613 361.19 906.164 364.13 906.57 366.668C906.923 368.879 908.837 368.545 908.921 366.345C909.024 363.688 909.007 361.025 909.123 358.366C909.278 354.838 909.437 351.309 909.61 347.781C910.812 323.274 915.322 299.127 923.645 275.978C927.013 266.609 930.873 257.741 935.833 249.075C940.195 241.456 945.441 234.08 950.803 227.21C956.015 220.533 961.434 214.012 967.82 208.355C973.002 203.765 978.703 199.767 984.563 196.046C992.005 191.32 999.433 186.709 1007.5 183.082C1011.69 181.196 1015.96 179.508 1020.18 177.699C1020.94 177.374 1021.75 177.058 1022.48 176.681C1024.92 175.424 1024.12 173.53 1022.18 172.213Z" fill="#7EA04D"/>
<path fill-rule="evenodd" clip-rule="evenodd" d="M955.087 257.809C961.851 257.809 967.87 258.688 974.102 261.376C979.482 263.696 984.385 266.767 989.145 270.111C995.84 274.814 1001.11 280.287 1004.81 287.539C1007.01 291.871 1008.63 298.002 1007.15 302.727C1005.4 308.292 1000.61 312.934 994.303 311.953C990.402 311.348 986.825 308.765 983.86 306.334C980.313 303.427 977.473 299.93 975.128 296.047C971.304 289.712 969.056 282.551 965.807 275.932C964.265 272.79 962.776 269.626 960.929 266.64C960.015 265.162 959.042 263.697 957.655 262.598C956.913 262.011 953.785 260.994 954.981 259.674C937.44 259.904 921.901 273.375 918.534 290.05C918.221 291.604 917.976 293.171 917.717 294.735C917.553 295.722 917.619 299.363 916.736 299.994C914.79 301.386 915.608 297.158 915.692 296.55C915.907 294.977 916.138 293.405 916.379 291.836C917.694 283.302 921.494 275.369 927.829 269.283C935.075 262.323 944.851 257.809 955.087 257.809Z" fill="#7EA04D"/>
<path d="M978.26 251.477H748.299C741.193 251.477 735.434 256.959 735.434 263.722V701.48C735.434 708.242 741.193 713.725 748.299 713.725H978.26C985.365 713.725 991.125 708.242 991.125 701.48V263.722C991.125 256.959 985.365 251.477 978.26 251.477Z" fill="#515151"/>
<path d="M859.208 684.643C872.53 684.643 883.33 674.363 883.33 661.683C883.33 649.003 872.53 638.724 859.208 638.724C845.886 638.724 835.086 649.003 835.086 661.683C835.086 674.363 845.886 684.643 859.208 684.643Z" fill="white"/>
<path d="M838.302 282.09C840.078 282.09 841.518 280.719 841.518 279.028C841.518 277.338 840.078 275.967 838.302 275.967C836.526 275.967 835.086 277.338 835.086 279.028C835.086 280.719 836.526 282.09 838.302 282.09Z" fill="white"/>
<path d="M880.113 275.967H852.775C850.999 275.967 849.559 277.338 849.559 279.028C849.559 280.719 850.999 282.09 852.775 282.09H880.113C881.889 282.09 883.329 280.719 883.329 279.028C883.329 277.338 881.889 275.967 880.113 275.967Z" fill="white"/>
<path d="M958.907 294.334H761.108C757.556 294.334 754.676 297.075 754.676 300.457V370.865C754.676 374.247 757.556 376.988 761.108 376.988H958.907C962.46 376.988 965.34 374.247 965.34 370.865V300.457C965.34 297.075 962.46 294.334 958.907 294.334Z" fill="white"/>
<path d="M881.717 319.13H773.973C771.308 319.13 769.148 321.186 769.148 323.722V326.936C769.148 329.472 771.308 331.528 773.973 331.528H881.717C884.381 331.528 886.541 329.472 886.541 326.936V323.722C886.541 321.186 884.381 319.13 881.717 319.13Z" fill="#DDE3E9"/>
<path d="M843.122 339.793H773.973C771.308 339.793 769.148 341.849 769.148 344.385V347.599C769.148 350.135 771.308 352.191 773.973 352.191H843.122C845.786 352.191 847.946 350.135 847.946 347.599V344.385C847.946 341.849 845.786 339.793 843.122 339.793Z" fill="#DDE3E9"/>
<path d="M942.827 346.375C949.044 346.375 954.084 341.578 954.084 335.661C954.084 329.743 949.044 324.946 942.827 324.946C936.61 324.946 931.57 329.743 931.57 335.661C931.57 341.578 936.61 346.375 942.827 346.375Z" fill="#DDE3E9"/>
<path d="M942.824 340.253C945.489 340.253 947.649 338.197 947.649 335.661C947.649 333.125 945.489 331.069 942.824 331.069C940.16 331.069 938 333.125 938 335.661C938 338.197 940.16 340.253 942.824 340.253Z" fill="#F2F2F2"/>
<path d="M958.907 389.233H761.108C757.556 389.233 754.676 391.974 754.676 395.355V447.396C754.676 450.778 757.556 453.519 761.108 453.519H958.907C962.46 453.519 965.34 450.778 965.34 447.396V395.355C965.34 391.974 962.46 389.233 958.907 389.233Z" fill="white"/>
<path d="M929.963 408.518H822.219C819.554 408.518 817.395 410.574 817.395 413.11V413.569C817.395 416.105 819.554 418.161 822.219 418.161H929.963C932.627 418.161 934.787 416.105 934.787 413.569V413.11C934.787 410.574 932.627 408.518 929.963 408.518Z" fill="#DDE3E9"/>
<path d="M891.368 424.59H822.219C819.554 424.59 817.395 426.646 817.395 429.182V429.641C817.395 432.177 819.554 434.233 822.219 434.233H891.368C894.032 434.233 896.192 432.177 896.192 429.641V429.182C896.192 426.646 894.032 424.59 891.368 424.59Z" fill="#DDE3E9"/>
<path d="M788.446 439.743C799.104 439.743 807.743 431.52 807.743 421.376C807.743 411.232 799.104 403.008 788.446 403.008C777.788 403.008 769.148 411.232 769.148 421.376C769.148 431.52 777.788 439.743 788.446 439.743Z" fill="#A7DBFF"/>
<path d="M958.907 465.764H761.108C757.556 465.764 754.676 468.505 754.676 471.886V523.927C754.676 527.309 757.556 530.05 761.108 530.05H958.907C962.46 530.05 965.34 527.309 965.34 523.927V471.886C965.34 468.505 962.46 465.764 958.907 465.764Z" fill="white"/>
<path d="M881.717 485.05H773.973C771.308 485.05 769.148 487.106 769.148 489.642V490.101C769.148 492.637 771.308 494.693 773.973 494.693H881.717C884.381 494.693 886.541 492.637 886.541 490.101V489.642C886.541 487.106 884.381 485.05 881.717 485.05Z" fill="#DDE3E9"/>
<path d="M843.122 501.122H773.973C771.308 501.122 769.148 503.177 769.148 505.713V506.173C769.148 508.709 771.308 510.764 773.973 510.764H843.122C845.786 510.764 847.946 508.709 847.946 506.173V505.713C847.946 503.177 845.786 501.122 843.122 501.122Z" fill="#AFB9C5"/>
<path d="M942.827 508.621C949.044 508.621 954.084 503.824 954.084 497.907C954.084 491.99 949.044 487.193 942.827 487.193C936.61 487.193 931.57 491.99 931.57 497.907C931.57 503.824 936.61 508.621 942.827 508.621Z" fill="#DDE3E9"/>
<path d="M942.824 502.499C945.489 502.499 947.649 500.443 947.649 497.907C947.649 495.371 945.489 493.315 942.824 493.315C940.16 493.315 938 495.371 938 497.907C938 500.443 940.16 502.499 942.824 502.499Z" fill="#F2F2F2"/>
<path d="M958.907 542.295H761.108C757.556 542.295 754.676 545.036 754.676 548.417V600.458C754.676 603.84 757.556 606.581 761.108 606.581H958.907C962.46 606.581 965.34 603.84 965.34 600.458V548.417C965.34 545.036 962.46 542.295 958.907 542.295Z" fill="white"/>
<path d="M929.963 561.581H822.219C819.554 561.581 817.395 563.637 817.395 566.173V566.632C817.395 569.168 819.554 571.224 822.219 571.224H929.963C932.627 571.224 934.787 569.168 934.787 566.632V566.173C934.787 563.637 932.627 561.581 929.963 561.581Z" fill="#DDE3E9"/>
<path d="M891.368 577.652H822.219C819.554 577.652 817.395 579.708 817.395 582.244V582.703C817.395 585.239 819.554 587.295 822.219 587.295H891.368C894.032 587.295 896.192 585.239 896.192 582.703V582.244C896.192 579.708 894.032 577.652 891.368 577.652Z" fill="#DDE3E9"/>
<path d="M788.446 592.805C799.104 592.805 807.743 584.582 807.743 574.438C807.743 564.294 799.104 556.07 788.446 556.07C777.788 556.07 769.148 564.294 769.148 574.438C769.148 584.582 777.788 592.805 788.446 592.805Z" fill="#A7DBFF"/>
<rect x="252.098" y="512.972" width="404.451" height="6.01414" rx="3.00707" fill="#181E54"/>
<path fill-rule="evenodd" clip-rule="evenodd" d="M372.172 694.724C350.04 667.494 335.065 647.307 327.247 634.162C313.861 611.656 302.905 591.63 299.448 583.98C291.203 565.737 318.428 557.195 324.59 565.704C333.916 578.583 353.833 619.107 384.342 687.279L372.172 694.724Z" fill="#FFC996"/>
<path fill-rule="evenodd" clip-rule="evenodd" d="M326.822 686.807L285.633 582.342C276.824 563.299 319.366 550.782 325.84 559.644C340.539 579.764 375.474 659.135 379.853 665.13L326.822 686.807Z" fill="#2F3676"/>
<path fill-rule="evenodd" clip-rule="evenodd" d="M282.936 689.122C281.698 674.913 279.23 625.724 281.169 602.957C281.726 596.415 282.318 590.089 282.917 584.155C284.697 566.518 317.355 567.075 314.885 583.832C308.735 625.562 297.799 684.045 297.021 689.098C295.931 696.181 283.714 698.052 282.936 689.122Z" fill="#FFC996"/>
<path fill-rule="evenodd" clip-rule="evenodd" d="M277.47 692.418C276.24 696.629 275.631 699.78 275.645 701.87C275.661 704.412 276.023 708.122 276.731 713C279.084 713 300.228 713 340.164 713C341.768 706.168 340.792 702.48 337.237 701.936C333.682 701.391 330.729 700.899 328.377 700.46L298.786 683.983C298.217 683.666 297.554 683.985 297.306 684.697C297.301 684.709 297.297 684.721 297.293 684.733L295.436 690.496C292.161 692.419 289.495 693.381 287.44 693.381C285.77 693.381 283.458 692.535 280.504 690.844L280.504 690.844C279.37 690.195 278.039 690.817 277.531 692.232C277.509 692.294 277.489 692.356 277.47 692.418Z" fill="#E4E4E4"/>
<path fill-rule="evenodd" clip-rule="evenodd" d="M362.653 689.692C361.397 694.46 360.77 698.028 360.77 700.395C360.77 703.275 361.107 707.476 361.781 713C364.129 713 385.234 713 425.094 713C426.74 705.263 425.79 701.087 422.245 700.47C418.7 699.853 415.756 699.296 413.411 698.799L383.984 680.139C383.417 679.78 382.754 680.142 382.501 680.947C382.497 680.961 382.493 680.975 382.489 680.989L380.597 687.515C377.316 689.693 374.649 690.782 372.597 690.782C370.93 690.782 368.628 689.824 365.691 687.909L365.691 687.909C364.564 687.174 363.232 687.878 362.715 689.481C362.693 689.55 362.672 689.621 362.653 689.692Z" fill="#E4E4E4"/>
<path fill-rule="evenodd" clip-rule="evenodd" d="M269.474 584.786C234.797 583.793 211.559 583.05 199.76 582.557C166.13 581.152 154.151 564.636 154.573 525.02L215.086 516.858C223.409 518.108 258.813 528.006 321.299 546.551C332.613 550.423 332.748 566.32 331.505 571.732C331.454 571.952 327.005 588.859 319.566 670.651L280.739 668.302L270.072 588.518C270.85 586.2 270.651 584.956 269.474 584.786Z" fill="#5C63AB"/>
<path fill-rule="evenodd" clip-rule="evenodd" d="M207.484 367.942C202.741 362.218 199.532 355.202 200.068 347.341C201.613 324.692 232.272 329.675 238.235 341.106C244.199 352.538 243.49 381.534 235.783 383.577C232.709 384.392 226.161 382.396 219.497 378.265L223.68 408.699H198.98L207.484 367.942Z" fill="#FFC996"/>
<path fill-rule="evenodd" clip-rule="evenodd" d="M205.152 369.887C201.77 354.73 192.138 344.398 193.609 337.624C194.589 333.108 197.204 330.299 201.451 329.198C203.648 320.244 210.733 316.436 222.705 317.773C240.665 319.779 251.626 327.293 246.893 343.829C242.541 343.829 237.288 342.243 230.024 344.96C227.72 345.822 226.071 348.495 225.079 352.979H221.796C218.611 347.658 215.469 345.702 212.373 347.113C209.276 348.523 208.572 351.949 210.261 357.391L208.644 369.887H205.152Z" fill="#191847"/>
<rect width="129.672" height="22.6846" rx="11.3423" transform="matrix(-1 0 0 1 284.789 582.135)" fill="#FF7B31"/>
<rect width="10.2914" height="93.979" transform="matrix(-1 0 0 1 222.012 604.82)" fill="#090E3C"/>
<path d="M243.623 713.382C243.623 711.041 242.944 708.723 241.625 706.561C240.306 704.398 238.373 702.433 235.936 700.778C233.5 699.123 230.607 697.81 227.423 696.915C224.239 696.019 220.826 695.558 217.38 695.558C213.933 695.558 210.521 696.019 207.337 696.915C204.153 697.81 201.26 699.123 198.823 700.778C196.386 702.433 194.453 704.398 193.134 706.561C191.816 708.723 191.137 711.041 191.137 713.382L217.38 713.382H243.623Z" fill="#090E3B"/>
<rect width="41.1656" height="2.16044" transform="matrix(-1 0 0 1 238.477 678.275)" fill="#090E3B"/>
<rect x="536.266" y="433.483" width="4.51061" height="53.3755" rx="2.2553" transform="rotate(-61.3224 536.266 433.483)" fill="#293281"/>
<rect x="546.426" y="436.292" width="3.00707" height="0.751768" transform="rotate(31.0644 546.426 436.292)" fill="white"/>
<path fill-rule="evenodd" clip-rule="evenodd" d="M219.792 387.644L228.783 389.204C256.13 419.756 259.786 463.515 294.35 496.666L282.679 502.496C215.39 475.168 210.087 421.536 219.792 387.644Z" fill="#E87613"/>
<path fill-rule="evenodd" clip-rule="evenodd" d="M167.145 527.256C205.955 527.256 234.502 527.256 252.788 527.256C256.702 527.256 255.964 521.03 255.398 517.889C248.869 481.633 223.382 442.551 223.382 390.943L198.679 386.675C178.246 422.879 171.18 467.453 167.145 527.256Z" fill="#DDE3E9"/>
<path fill-rule="evenodd" clip-rule="evenodd" d="M180.506 414.95C177.277 413.91 174.719 411.484 172.834 407.672C192.677 388.071 195.299 385.949 203.984 382.976C212.669 380.002 194.938 386.262 206.596 382.372C207.349 382.372 208.038 382.425 208.664 382.531L215.625 382.976C235.597 458.816 241.105 509.415 232.15 534.774H171.476C159.333 534.774 170.129 534.774 162.707 534.774H148.537C146.981 478.404 155.028 454.268 180.506 414.95Z" fill="#FF9B21"/>
<rect x="295.801" y="508.382" width="66.0353" height="4.52297" fill="#C0C0C0"/>
<g filter="url(#filter0_d)">
<path d="M383.775 445.334C384.81 445.721 385.334 446.874 384.947 447.908L361.737 509.904L357.515 508.323L380.725 446.328C381.112 445.293 382.265 444.769 383.299 445.156L383.775 445.334Z" fill="#C0C0C0"/>
</g>
<path d="M605.981 419.337H604.284L603.682 418.756C605.788 416.306 607.056 413.126 607.056 409.665C607.056 401.95 600.802 395.696 593.087 395.696C585.371 395.696 579.117 401.95 579.117 409.665C579.117 417.381 585.371 423.635 593.087 423.635C596.547 423.635 599.727 422.367 602.177 420.261L602.758 420.862V422.56L613.503 433.284L616.706 430.082L605.981 419.337ZM593.087 419.337C587.735 419.337 583.415 415.017 583.415 409.665C583.415 404.314 587.735 399.994 593.087 399.994C598.438 399.994 602.758 404.314 602.758 409.665C602.758 415.017 598.438 419.337 593.087 419.337Z" fill="#6EB7FB"/>
<path fill-rule="evenodd" clip-rule="evenodd" d="M705.536 387.695C710.446 381.626 713.769 374.189 713.214 365.855C711.614 341.844 679.87 347.126 673.696 359.245C667.521 371.364 668.255 402.104 676.235 404.27C679.417 405.134 686.197 403.018 693.097 398.639L688.766 430.903H714.34L705.536 387.695Z" fill="#FFC996"/>
<path fill-rule="evenodd" clip-rule="evenodd" d="M724.361 357.862C725.187 357.001 725.637 355.77 726.027 354.602C726.432 353.389 726.825 352.163 727.094 350.9C727.631 348.376 727.636 345.474 725.926 343.514C724.555 341.943 722.498 341.238 720.599 341.085C719.334 340.983 718.034 341.169 716.822 341.589C715.618 342.005 714.581 342.835 713.415 343.351C713.37 340.631 712.928 337.785 711.618 335.463C710.357 333.229 708.346 331.975 706.057 331.643C703.707 331.303 701.387 331.882 699.283 333.08C698.756 333.38 698.235 333.694 697.735 334.05C697.317 334.348 696.883 334.706 696.392 334.828C695.845 334.963 695.574 334.63 695.219 334.21C694.802 333.718 694.332 333.284 693.836 332.899C691.639 331.199 688.756 330.5 686.211 331.519C685.038 331.988 683.898 332.786 683.102 333.885C682.393 334.864 681.887 336.418 680.908 337.101C680.493 337.39 680.2 337.007 679.822 336.723C679.254 336.297 678.712 335.826 678.137 335.412C677.329 334.829 676.455 334.393 675.519 334.165C674.148 333.831 672.254 333.91 671.862 335.8C671.715 336.51 671.827 337.269 671.875 337.985C671.94 338.967 672.008 339.949 672.089 340.93C672.151 341.675 672.229 342.394 672.362 343.126C672.433 343.516 672.656 344.242 672.497 344.633C672.299 345.121 671.383 344.843 670.992 344.86C670.219 344.894 669.443 345.037 668.729 345.384C668.175 345.654 667.593 346.05 667.359 346.718C667.215 347.129 667.253 347.551 667.321 347.973C667.402 348.48 667.309 348.749 667.249 349.26C667.701 347.302 666.211 348.722 667.249 349.26C667.098 349.912 662.354 350.874 662.616 351.424C663.075 352.388 663.677 353.27 664.292 354.111C665.576 355.865 667.108 357.378 668.757 358.672C666.825 359.576 666.321 362.243 667.993 363.832C668.732 364.534 669.725 364.69 670.656 364.645C670.997 364.629 671.488 364.491 671.757 364.553C671.901 364.587 672.056 364.716 672.256 364.73C673.57 364.825 675.054 364.491 676.339 364.184C678.629 363.637 680.796 362.495 682.567 360.755C683.021 360.309 683.396 360.052 684.007 360.058C684.543 360.064 685.068 360.219 685.603 360.233C687.019 360.271 688.296 359.542 689.61 359.057C689.691 360.927 690.197 362.987 690.923 364.67C691.516 366.042 692.753 366.241 693.969 366.361C697.856 366.746 701.758 366.317 705.651 366.322C701.882 367.219 697.989 367.589 694.254 368.644C692.566 369.121 693.855 370.319 694.577 371.15C695.765 372.517 696.649 374.212 697.262 375.997C699.105 373.467 702.363 371.8 705.25 372.577C708.439 373.436 710.685 377.978 708.646 381.243C707.462 383.138 705.323 383.87 703.544 384.684C704.932 386.204 705.268 388.448 706.103 390.338C706.515 391.27 707.094 392.324 708.015 392.649C708.356 392.77 708.756 392.78 709.025 393.073C709.358 393.435 709.437 393.84 709.863 394.151C711.56 395.394 714.212 395.298 715.717 393.676C717.078 392.21 716.724 389.888 715.587 388.401C717.397 387.607 720.692 386.586 719.973 383.618C723.894 383.344 733.412 376.65 728.15 371.758C731.038 370.04 733.69 365.84 731.836 362.138C730.407 359.288 727.086 358.014 724.361 357.862Z" fill="#0B0A1B"/>
<path fill-rule="evenodd" clip-rule="evenodd" d="M584.392 547.317C575.615 541.768 560.889 548.897 560.9 556.834C560.93 580.581 581.511 692.498 582.586 699.573C583.66 706.648 595.172 708.517 595.842 699.596C596.909 685.403 598.89 636.266 596.908 613.522C596.089 604.134 595.208 595.194 594.34 587.217C605.14 607.753 621.842 637.156 644.447 675.425L656.719 669.521C647.082 636.09 639.18 612.488 633.013 598.716C622.454 575.136 612.552 554.942 608.385 547.829C601.83 536.64 590.421 540.544 584.392 547.317Z" fill="#FFC996"/>
<path fill-rule="evenodd" clip-rule="evenodd" d="M657.018 649.902L612.478 545.953C601.995 529.127 574.19 550.416 577.859 560.237C586.19 582.534 627.597 654.349 630.079 660.992L657.018 649.902Z" fill="#31112C"/>
<path fill-rule="evenodd" clip-rule="evenodd" d="M658.181 662.895C660.805 665.17 662.512 667.027 663.302 668.468C664.262 670.22 665.387 672.946 666.676 676.644C664.746 677.818 647.396 688.365 614.628 708.286C610.694 704.4 610.081 701.383 612.789 699.236C615.497 697.089 617.732 695.279 619.494 693.804L637.459 667.742C637.804 667.24 638.471 667.129 638.947 667.493C638.955 667.499 638.963 667.505 638.971 667.512L642.704 670.538C646.128 670.224 648.684 669.554 650.37 668.528C651.741 667.695 653.314 665.962 655.089 663.329L655.089 663.329C655.771 662.318 657.101 662.081 658.061 662.798C658.102 662.829 658.142 662.861 658.181 662.895Z" fill="#E4E4E4"/>
<path fill-rule="evenodd" clip-rule="evenodd" d="M598.536 693.902C599.728 697.253 600.324 699.76 600.324 701.423C600.324 703.447 600.004 706.399 599.364 710.281C597.135 710.281 577.102 710.281 539.264 710.281C537.702 704.844 538.604 701.909 541.969 701.476C545.334 701.042 548.129 700.651 550.355 700.301L578.288 687.189C578.826 686.936 579.456 687.191 579.695 687.757C579.7 687.766 579.704 687.776 579.707 687.786L581.503 692.372C584.618 693.903 587.149 694.668 589.097 694.668C590.679 694.668 592.864 693.995 595.652 692.649L595.652 692.649C596.722 692.133 597.987 692.627 598.478 693.754C598.499 693.802 598.518 693.852 598.536 693.902Z" fill="#E4E4E4"/>
<path fill-rule="evenodd" clip-rule="evenodd" d="M557.951 564.907C557.951 594.715 571.395 664.246 571.404 670.809L600.329 670.833C596.095 608.791 594.594 577.436 595.825 576.768C597.672 575.765 671.535 584.533 693.687 584.533C725.631 584.533 738.846 563.322 739.918 524.029H676.638C663.754 525.481 596.548 539.754 571.589 544.661C560.903 546.762 557.951 556.696 557.951 564.907Z" fill="#31112C"/>
<path fill-rule="evenodd" clip-rule="evenodd" d="M666.777 454.128L629.792 432.799C623.641 425.108 617.581 419.135 611.612 414.88C609.788 414.079 606.598 413.593 609.581 419.168C612.564 424.743 615.464 430.749 613.944 432.466C612.425 434.184 608.635 431.785 606.822 434.638C605.613 436.541 612.087 439.546 626.245 443.654L653.119 469.564L666.777 454.128ZM608.851 472.125L592.605 462.727C590.326 453.594 587.601 448.999 584.43 448.941C581.995 447.748 586.236 459.289 581.619 458.288C577.002 457.287 565.734 448.463 563.792 450.255C560.92 452.905 563.481 461.045 566.499 465.094C572.139 472.661 576.809 475.249 588.351 478.638C594.386 480.409 600.911 483.961 607.926 489.292L608.851 472.125Z" fill="#FFC996"/>
<path fill-rule="evenodd" clip-rule="evenodd" d="M684.79 449.377C671.835 449.233 654.56 446.352 636.128 434.032L628.889 451.03C641.603 464.316 659.481 475.233 675.113 474.77C687.431 474.406 693.727 458.716 684.79 449.377Z" fill="#7D0633"/>
<path fill-rule="evenodd" clip-rule="evenodd" d="M667.348 476.637C653.595 480.248 630.532 475.989 598.159 463.859C590.129 481.352 586.417 493.822 587.023 501.271C614.794 516.546 638.597 523.356 658.207 523.806C657.583 536.058 659 547.716 663.757 558.368C673.538 580.268 730.812 559.987 750.069 563.978C762.129 522.74 738.812 505.98 738.793 479.593C738.772 450.697 716.737 406.218 713.495 406.218L683.929 406.218C682.297 428.287 674.087 452.609 667.348 476.637Z" fill="#7D0633"/>
<rect x="617.375" y="577.885" width="134.261" height="23.562" rx="11.781" fill="#FF7B31"/>
<rect x="682.375" y="601.447" width="10.6556" height="97.6141" fill="#090E3C"/>
<path d="M660 714.208C660 711.777 660.703 709.37 662.068 707.123C663.434 704.877 665.435 702.837 667.958 701.117C670.482 699.398 673.477 698.035 676.774 697.104C680.07 696.174 683.604 695.695 687.172 695.695C690.74 695.695 694.273 696.174 697.57 697.104C700.867 698.035 703.862 699.398 706.385 701.117C708.908 702.837 710.91 704.877 712.275 707.123C713.641 709.37 714.344 711.777 714.344 714.208L687.172 714.208H660Z" fill="#090E3B"/>
<rect x="665.324" y="677.743" width="42.6226" height="2.244" fill="#090E3B"/>
<g opacity="0.35">
<path d="M465.245 69.6537H224.056C220.716 69.6537 218.008 71.9292 218.008 74.7361V284.387C218.008 287.194 220.716 289.47 224.056 289.47H465.245C468.586 289.47 471.294 287.194 471.294 284.387V74.7361C471.294 71.9292 468.586 69.6537 465.245 69.6537Z" fill="#B8E1C6"/>
<path fill-rule="evenodd" clip-rule="evenodd" d="M224.056 69.6537H465.245C468.586 69.6537 471.294 71.9292 471.294 74.7361V86.807H218.008V74.7361C218.008 71.9292 220.716 69.6537 224.056 69.6537Z" fill="#056674"/>
<path d="M227.526 81.7916C229.025 81.7916 230.24 80.4967 230.24 78.8993C230.24 77.3019 229.025 76.007 227.526 76.007C226.028 76.007 224.812 77.3019 224.812 78.8993C224.812 80.4967 226.028 81.7916 227.526 81.7916Z" fill="#FF7676"/>
<path d="M236.007 81.791C237.506 81.791 238.721 80.4961 238.721 78.8987C238.721 77.3013 237.506 76.0063 236.007 76.0063C234.508 76.0063 233.293 77.3013 233.293 78.8987C233.293 80.4961 234.508 81.791 236.007 81.791Z" fill="#FFE818"/>
<path d="M244.487 81.791C245.986 81.791 247.201 80.4961 247.201 78.8987C247.201 77.3013 245.986 76.0063 244.487 76.0063C242.988 76.0063 241.773 77.3013 241.773 78.8987C241.773 80.4961 242.988 81.791 244.487 81.791Z" fill="#B4F754"/>
<path d="M227.526 81.7921C229.025 81.7921 230.24 80.4971 230.24 78.8998C230.24 77.3024 229.025 76.0074 227.526 76.0074C226.028 76.0074 224.812 77.3024 224.812 78.8998C224.812 80.4971 226.028 81.7921 227.526 81.7921Z" fill="#FF7676"/>
<path d="M236.007 81.7918C237.506 81.7918 238.721 80.4969 238.721 78.8995C238.721 77.3021 237.506 76.0072 236.007 76.0072C234.508 76.0072 233.293 77.3021 233.293 78.8995C233.293 80.4969 234.508 81.7918 236.007 81.7918Z" fill="#FFE818"/>
<path d="M244.487 81.7918C245.986 81.7918 247.201 80.4969 247.201 78.8995C247.201 77.3021 245.986 76.0072 244.487 76.0072C242.988 76.0072 241.773 77.3021 241.773 78.8995C241.773 80.4969 242.988 81.7918 244.487 81.7918Z" fill="#B4F754"/>
</g>
<path d="M286.757 96.7915H237.909C233.912 96.7915 230.672 100.032 230.672 104.028V162.827C230.672 166.824 233.912 170.064 237.909 170.064H286.757C290.753 170.064 293.993 166.824 293.993 162.827V104.028C293.993 100.032 290.753 96.7915 286.757 96.7915Z" fill="white"/>
<path d="M262.329 139.307C270.322 139.307 276.802 132.827 276.802 124.834C276.802 116.84 270.322 110.36 262.329 110.36C254.335 110.36 247.855 116.84 247.855 124.834C247.855 132.827 254.335 139.307 262.329 139.307Z" fill="#66BFBF"/>
<path d="M282.231 142.926H242.429C240.93 142.926 239.715 144.141 239.715 145.64C239.715 147.138 240.93 148.353 242.429 148.353H282.231C283.73 148.353 284.945 147.138 284.945 145.64C284.945 144.141 283.73 142.926 282.231 142.926Z" fill="#DDE3E9"/>
<path d="M274.996 151.972H249.667C248.168 151.972 246.953 153.187 246.953 154.686C246.953 156.184 248.168 157.399 249.667 157.399H274.996C276.494 157.399 277.709 156.184 277.709 154.686C277.709 153.187 276.494 151.972 274.996 151.972Z" fill="#DDE3E9"/>
<path d="M457.851 99.5052H317.39C315.96 99.5052 314.801 100.664 314.801 102.094V127.339C314.801 128.769 315.96 129.928 317.39 129.928H457.851C459.281 129.928 460.44 128.769 460.44 127.339V102.094C460.44 100.664 459.281 99.5052 457.851 99.5052Z" fill="white"/>
<path d="M426.784 108.632H322.571C321.498 108.632 320.629 109.501 320.629 110.574V111.253C320.629 112.326 321.498 113.195 322.571 113.195H426.784C427.856 113.195 428.726 112.326 428.726 111.253V110.574C428.726 109.501 427.856 108.632 426.784 108.632Z" fill="#D6E0F0"/>
<path d="M391.245 116.238H322.571C321.498 116.238 320.629 117.107 320.629 118.18V118.859C320.629 119.932 321.498 120.801 322.571 120.801H391.245C392.318 120.801 393.187 119.932 393.187 118.859V118.18C393.187 117.107 392.318 116.238 391.245 116.238Z" fill="#D6E0F0"/>
<path d="M444.875 119.247C447.377 119.247 449.406 117.219 449.406 114.716C449.406 112.214 447.377 110.185 444.875 110.185C442.372 110.185 440.344 112.214 440.344 114.716C440.344 117.219 442.372 119.247 444.875 119.247Z" fill="#FF4B5C"/>
<path d="M444.875 116.658C445.948 116.658 446.817 115.789 446.817 114.717C446.817 113.644 445.948 112.775 444.875 112.775C443.803 112.775 442.934 113.644 442.934 114.717C442.934 115.789 443.803 116.658 444.875 116.658Z" fill="#F2F2F2"/>
<path d="M457.851 136.594H317.39C315.96 136.594 314.801 137.753 314.801 139.183V164.427C314.801 165.857 315.96 167.016 317.39 167.016H457.851C459.281 167.016 460.44 165.857 460.44 164.427V139.183C460.44 137.753 459.281 136.594 457.851 136.594Z" fill="white"/>
<path d="M426.784 145.72H322.571C321.498 145.72 320.629 146.59 320.629 147.662V148.342C320.629 149.414 321.498 150.284 322.571 150.284H426.784C427.856 150.284 428.726 149.414 428.726 148.342V147.662C428.726 146.59 427.856 145.72 426.784 145.72Z" fill="#D6E0F0"/>
<path d="M391.245 153.326H322.571C321.498 153.326 320.629 154.195 320.629 155.268V155.947C320.629 157.02 321.498 157.889 322.571 157.889H391.245C392.318 157.889 393.187 157.02 393.187 155.947V155.268C393.187 154.195 392.318 153.326 391.245 153.326Z" fill="#D6E0F0"/>
<path d="M444.875 156.336C447.377 156.336 449.406 154.307 449.406 151.805C449.406 149.302 447.377 147.274 444.875 147.274C442.372 147.274 440.344 149.302 440.344 151.805C440.344 154.307 442.372 156.336 444.875 156.336Z" fill="#FF4B5C"/>
<path d="M444.875 153.747C445.948 153.747 446.817 152.877 446.817 151.805C446.817 150.732 445.948 149.863 444.875 149.863C443.803 149.863 442.934 150.732 442.934 151.805C442.934 152.877 443.803 153.747 444.875 153.747Z" fill="#F2F2F2"/>
<path d="M457.851 173.682H317.39C315.96 173.682 314.801 174.841 314.801 176.271V201.515C314.801 202.945 315.96 204.104 317.39 204.104H457.851C459.281 204.104 460.44 202.945 460.44 201.515V176.271C460.44 174.841 459.281 173.682 457.851 173.682Z" fill="white"/>
<path d="M426.784 182.809H322.571C321.498 182.809 320.629 183.678 320.629 184.75V185.43C320.629 186.503 321.498 187.372 322.571 187.372H426.784C427.856 187.372 428.726 186.503 428.726 185.43V184.75C428.726 183.678 427.856 182.809 426.784 182.809Z" fill="#D6E0F0"/>
<path d="M391.245 190.414H322.571C321.498 190.414 320.629 191.284 320.629 192.356V193.036C320.629 194.108 321.498 194.978 322.571 194.978H391.245C392.318 194.978 393.187 194.108 393.187 193.036V192.356C393.187 191.284 392.318 190.414 391.245 190.414Z" fill="#D6E0F0"/>
<path d="M444.875 193.424C447.377 193.424 449.406 191.395 449.406 188.893C449.406 186.391 447.377 184.362 444.875 184.362C442.372 184.362 440.344 186.391 440.344 188.893C440.344 191.395 442.372 193.424 444.875 193.424Z" fill="#FF4B5C"/>
<path d="M444.875 190.835C445.948 190.835 446.817 189.965 446.817 188.893C446.817 187.821 445.948 186.951 444.875 186.951C443.803 186.951 442.934 187.821 442.934 188.893C442.934 189.965 443.803 190.835 444.875 190.835Z" fill="#F2F2F2"/>
<path d="M457.851 210.77H317.39C315.96 210.77 314.801 211.929 314.801 213.359V238.603C314.801 240.033 315.96 241.193 317.39 241.193H457.851C459.281 241.193 460.44 240.033 460.44 238.603V213.359C460.44 211.929 459.281 210.77 457.851 210.77Z" fill="white"/>
<path d="M426.784 219.897H322.571C321.498 219.897 320.629 220.766 320.629 221.839V222.518C320.629 223.591 321.498 224.46 322.571 224.46H426.784C427.856 224.46 428.726 223.591 428.726 222.518V221.839C428.726 220.766 427.856 219.897 426.784 219.897Z" fill="#D6E0F0"/>
<path d="M391.245 227.503H322.571C321.498 227.503 320.629 228.372 320.629 229.444V230.124C320.629 231.197 321.498 232.066 322.571 232.066H391.245C392.318 232.066 393.187 231.197 393.187 230.124V229.444C393.187 228.372 392.318 227.503 391.245 227.503Z" fill="#D6E0F0"/>
<path d="M444.875 230.512C447.377 230.512 449.406 228.484 449.406 225.981C449.406 223.479 447.377 221.45 444.875 221.45C442.372 221.45 440.344 223.479 440.344 225.981C440.344 228.484 442.372 230.512 444.875 230.512Z" fill="#FF4B5C"/>
<path d="M444.875 227.923C445.948 227.923 446.817 227.054 446.817 225.981C446.817 224.909 445.948 224.039 444.875 224.039C443.803 224.039 442.934 224.909 442.934 225.981C442.934 227.054 443.803 227.923 444.875 227.923Z" fill="#F2F2F2"/>
<path d="M457.851 247.858H317.39C315.96 247.858 314.801 249.018 314.801 250.448V275.692C314.801 277.122 315.96 278.281 317.39 278.281H457.851C459.281 278.281 460.44 277.122 460.44 275.692V250.448C460.44 249.018 459.281 247.858 457.851 247.858Z" fill="white"/>
<path d="M426.784 256.985H322.571C321.498 256.985 320.629 257.855 320.629 258.927V259.607C320.629 260.679 321.498 261.548 322.571 261.548H426.784C427.856 261.548 428.726 260.679 428.726 259.607V258.927C428.726 257.855 427.856 256.985 426.784 256.985Z" fill="#D6E0F0"/>
<path d="M391.245 264.591H322.571C321.498 264.591 320.629 265.46 320.629 266.533V267.212C320.629 268.285 321.498 269.154 322.571 269.154H391.245C392.318 269.154 393.187 268.285 393.187 267.212V266.533C393.187 265.46 392.318 264.591 391.245 264.591Z" fill="#D6E0F0"/>
<path d="M444.875 267.601C447.377 267.601 449.406 265.572 449.406 263.07C449.406 260.567 447.377 258.539 444.875 258.539C442.372 258.539 440.344 260.567 440.344 263.07C440.344 265.572 442.372 267.601 444.875 267.601Z" fill="#FF4B5C"/>
<path d="M444.875 265.011C445.948 265.011 446.817 264.142 446.817 263.069C446.817 261.997 445.948 261.128 444.875 261.128C443.803 261.128 442.934 261.997 442.934 263.069C442.934 264.142 443.803 265.011 444.875 265.011Z" fill="#F2F2F2"/>
<g opacity="0.35">
<g opacity="0.85">
<path d="M719.701 0H527.671C525.012 0 522.855 1.68126 522.855 3.75519V158.657C522.855 160.731 525.012 162.412 527.671 162.412H719.701C722.36 162.412 724.516 160.731 724.516 158.657V3.75519C724.516 1.68126 722.36 0 719.701 0Z" fill="#B8E1C6"/>
<path fill-rule="evenodd" clip-rule="evenodd" d="M527.671 0H719.701C722.36 0 724.516 1.68126 724.516 3.75519V12.6738H522.855V3.75519C522.855 1.68126 525.012 0 527.671 0Z" fill="#056674"/>
<path d="M530.43 8.96882C531.623 8.96882 532.591 8.01206 532.591 6.83182C532.591 5.65159 531.623 4.69482 530.43 4.69482C529.237 4.69482 528.27 5.65159 528.27 6.83182C528.27 8.01206 529.237 8.96882 530.43 8.96882Z" fill="#FF7676"/>
<path d="M537.184 8.96834C538.377 8.96834 539.345 8.01157 539.345 6.83134C539.345 5.6511 538.377 4.69434 537.184 4.69434C535.991 4.69434 535.023 5.6511 535.023 6.83134C535.023 8.01157 535.991 8.96834 537.184 8.96834Z" fill="#FFE818"/>
<path d="M543.934 8.96834C545.127 8.96834 546.095 8.01157 546.095 6.83134C546.095 5.6511 545.127 4.69434 543.934 4.69434C542.741 4.69434 541.773 5.6511 541.773 6.83134C541.773 8.01157 542.741 8.96834 543.934 8.96834Z" fill="#B4F754"/>
</g>
</g>
<path d="M577.591 25.3977H538.699C535.517 25.3977 532.938 27.7916 532.938 30.7446V149.713C532.938 152.666 535.517 155.06 538.699 155.06H577.591C580.773 155.06 583.353 152.666 583.353 149.713V30.7446C583.353 27.7916 580.773 25.3977 577.591 25.3977Z" fill="white"/>
<path d="M567.509 37.428H548.783C547.192 37.428 545.902 38.6249 545.902 40.1014V52.1319C545.902 53.6085 547.192 54.8054 548.783 54.8054H567.509C569.1 54.8054 570.39 53.6085 570.39 52.1319V40.1014C570.39 38.6249 569.1 37.428 567.509 37.428Z" fill="#66BFBF"/>
<path d="M567.509 60.1523H548.783C547.192 60.1523 545.902 61.3493 545.902 62.8258V74.188C545.902 75.6645 547.192 76.8614 548.783 76.8614H567.509C569.1 76.8614 570.39 75.6645 570.39 74.188V62.8258C570.39 61.3493 569.1 60.1523 567.509 60.1523Z" fill="#FF4B5C"/>
<path d="M567.509 82.2085H548.783C547.192 82.2085 545.902 83.4054 545.902 84.8819V96.2441C545.902 97.7206 547.192 98.9176 548.783 98.9176H567.509C569.1 98.9176 570.39 97.7206 570.39 96.2441V84.8819C570.39 83.4054 569.1 82.2085 567.509 82.2085Z" fill="#66BFBF"/>
<path d="M567.509 126.32H548.783C547.192 126.32 545.902 127.517 545.902 128.994V140.356C545.902 141.832 547.192 143.029 548.783 143.029H567.509C569.1 143.029 570.39 141.832 570.39 140.356V128.994C570.39 127.517 569.1 126.32 567.509 126.32Z" fill="#66BFBF"/>
<path d="M567.509 104.264H548.783C547.192 104.264 545.902 105.461 545.902 106.938V118.3C545.902 119.776 547.192 120.973 548.783 120.973H567.509C569.1 120.973 570.39 119.776 570.39 118.3V106.938C570.39 105.461 569.1 104.264 567.509 104.264Z" fill="#FF4B5C"/>
<path d="M608.282 137.66C608.282 136.047 606.409 134.74 604.1 134.74C601.79 134.74 599.918 136.047 599.918 137.66V156.151C599.918 157.764 601.79 159.071 604.1 159.071C606.409 159.071 608.282 157.764 608.282 156.151V137.66Z" fill="#D92027"/>
<path d="M627.797 122.088C627.797 120.475 625.925 119.168 623.616 119.168C621.306 119.168 619.434 120.475 619.434 122.088V156.151C619.434 157.763 621.306 159.07 623.616 159.07C625.925 159.07 627.797 157.763 627.797 156.151V122.088Z" fill="#FF9234"/>
<path d="M647.313 114.302C647.313 112.69 645.441 111.383 643.131 111.383C640.822 111.383 638.949 112.69 638.949 114.302V156.151C638.949 157.764 640.822 159.071 643.131 159.071C645.441 159.071 647.313 157.764 647.313 156.151V114.302Z" fill="#FFCD3C"/>
<path d="M666.829 122.088C666.829 120.475 664.956 119.168 662.647 119.168C660.337 119.168 658.465 120.475 658.465 122.088V156.151C658.465 157.763 660.337 159.07 662.647 159.07C664.956 159.07 666.829 157.763 666.829 156.151V122.088Z" fill="#35D0BA"/>
<path d="M686.344 106.516C686.344 104.904 684.472 103.596 682.162 103.596C679.853 103.596 677.98 104.904 677.98 106.516V156.151C677.98 157.763 679.853 159.07 682.162 159.07C684.472 159.07 686.344 157.763 686.344 156.151V106.516Z" fill="#40AE31"/>
<g filter="url(#filter1_d)">
<path fill-rule="evenodd" clip-rule="evenodd" d="M738.197 133.586C737.91 132.148 731.898 131 724.524 131C717.15 131 711.138 132.148 710.851 133.586H710.84V133.693V159.985V160.308H710.937C711.748 161.643 717.522 162.679 724.524 162.679C731.526 162.679 737.3 161.643 738.111 160.308H738.208V159.985V133.693V133.586H738.197Z" fill="#FCFCFC"/>
</g>
<ellipse cx="734.378" cy="140.284" rx="1.47141" ry="1.36547" fill="#3545D0"/>
<ellipse cx="734.378" cy="147.658" rx="1.47141" ry="1.36547" fill="#3545D0"/>
<ellipse cx="734.378" cy="155.032" rx="1.47141" ry="1.36547" fill="#3545D0"/>
<path d="M682.746 44.4461L700.031 27.0687L716.596 44.4461L740.003 21.7218" stroke="#FFA318" stroke-width="3.5"/>
<ellipse cx="740.003" cy="21.0534" rx="9.00272" ry="8.35453" fill="#FFA318"/>
<ellipse cx="715.515" cy="43.7779" rx="5.40163" ry="5.01272" fill="#FFA318"/>
<ellipse cx="700.39" cy="27.0685" rx="5.40163" ry="5.01272" fill="#FFA318"/>
<ellipse cx="683.105" cy="43.7779" rx="5.40163" ry="5.01272" fill="#FFA318"/>
<ellipse cx="683.105" cy="43.778" rx="1.80054" ry="1.67091" fill="white"/>
<ellipse cx="700.39" cy="27.0686" rx="1.80054" ry="1.67091" fill="white"/>
<ellipse cx="715.515" cy="43.778" rx="1.80054" ry="1.67091" fill="white"/>
<ellipse cx="740.004" cy="21.0533" rx="3.9612" ry="3.67599" fill="white"/>
<path d="M628.712 100.12C624.851 100.101 621.032 99.3224 617.472 97.8278C613.912 96.3331 610.682 94.152 607.965 91.4089C605.248 88.6657 603.099 85.4144 601.638 81.8404C600.178 78.2664 599.436 74.4398 599.455 70.5791C599.473 66.7184 600.252 62.8991 601.747 59.3394C603.242 55.7797 605.423 52.5492 608.166 49.8325C610.909 47.1157 614.16 44.9658 617.734 43.5056C621.308 42.0454 625.135 41.3034 628.996 41.322L628.942 52.4679C626.545 52.4563 624.169 52.917 621.95 53.8236C619.731 54.7303 617.712 56.0651 616.009 57.7518C614.306 59.4386 612.952 61.4443 612.024 63.6545C611.096 65.8646 610.612 68.2359 610.601 70.6329C610.589 73.0299 611.05 75.4058 611.956 77.6247C612.863 79.8437 614.198 81.8624 615.885 83.5656C617.571 85.2687 619.577 86.6229 621.787 87.5509C623.997 88.4789 626.369 88.9625 628.766 88.974L628.712 100.12Z" fill="#59A2F7"/>
<path d="M629 41.3221C634.442 41.3495 639.769 42.8867 644.388 45.7625C649.008 48.6382 652.739 52.7397 655.166 57.6104L645.189 62.5809C643.683 59.5569 641.366 57.0104 638.498 55.2249C635.63 53.4394 632.322 52.485 628.944 52.468L629 41.3221Z" fill="#FFB951"/>
<path d="M655.106 57.4838C656.989 61.2189 658.054 65.313 658.229 69.4924L647.092 69.9582C646.984 67.3632 646.323 64.8213 645.153 62.5023L655.106 57.4838Z" fill="#DD1528"/>
<path d="M658.223 69.4395C658.503 75.8525 656.676 82.1808 653.022 87.4581L643.859 81.1127C646.128 77.8361 647.262 73.9071 647.088 69.9254L658.223 69.4395Z" fill="#1020AB"/>
<path d="M653.023 87.4539C650.143 91.6133 646.24 94.9594 641.689 97.1686L636.821 87.1415C639.647 85.7699 642.07 83.6924 643.858 81.1099L653.023 87.4539Z" fill="#6B0091"/>
<path d="M642.496 96.7652C638.014 99.1121 633.003 100.263 627.947 100.106L628.292 88.9656C631.431 89.0628 634.542 88.3483 637.325 86.8912L642.496 96.7652Z" fill="#7EA04D"/>
<path d="M285.5 496.279C284.277 496.017 260.083 486.709 248.138 482.088L243.114 498.152L278.679 503.866L291.406 511.673C292.44 511.986 294.59 512.658 294.915 512.837C295.321 513.061 296.037 512.941 296.705 512.536C297.239 512.212 297.006 511.412 296.823 511.053L296.226 509.69L294.912 508.448L294.362 507.37L294.218 506.516L295.196 505.766L298.322 504.654L302.975 503.87L309.824 503.009L311.208 502.483C311.447 502.443 311.896 502.192 311.78 501.509C311.665 500.826 310.586 500.247 310.061 500.043C306.87 499.312 299.878 497.72 297.434 497.195C294.378 496.539 287.027 496.607 285.5 496.279Z" fill="#FFC996"/>
<path fill-rule="evenodd" clip-rule="evenodd" d="M170.441 436.368L179.021 433.262C217.922 446.224 242.804 482.405 289.261 494.043L282.019 504.895C210.037 514.547 178.826 470.61 170.441 436.368Z" fill="#FF9B21"/>
<path d="M700.608 365.908L706.036 366.36L701.172 367.837L693.824 369.074L692.467 368.17L693.372 365.908L700.608 365.908Z" fill="#0B0A1B"/>
<defs>
<filter id="filter0_d" x="347.516" y="440.455" width="38.1333" height="73.4489" filterUnits="userSpaceOnUse" color-interpolation-filters="sRGB">
<feFlood flood-opacity="0" result="BackgroundImageFix"/>
<feColorMatrix in="SourceAlpha" type="matrix" values="0 0 0 0 0 0 0 0 0 0 0 0 0 0 0 0 0 0 127 0"/>
<feOffset dx="-6"/>
<feGaussianBlur stdDeviation="2"/>
<feColorMatrix type="matrix" values="0 0 0 0 0.879167 0 0 0 0 0.889873 0 0 0 0 1 0 0 0 1 0"/>
<feBlend mode="normal" in2="BackgroundImageFix" result="effect1_dropShadow"/>
<feBlend mode="normal" in="SourceGraphic" in2="effect1_dropShadow" result="shape"/>
</filter>
<filter id="filter1_d" x="708.84" y="131" width="35.3683" height="39.6791" filterUnits="userSpaceOnUse" color-interpolation-filters="sRGB">
<feFlood flood-opacity="0" result="BackgroundImageFix"/>
<feColorMatrix in="SourceAlpha" type="matrix" values="0 0 0 0 0 0 0 0 0 0 0 0 0 0 0 0 0 0 127 0"/>
<feOffset dx="2" dy="4"/>
<feGaussianBlur stdDeviation="2"/>
<feColorMatrix type="matrix" values="0 0 0 0 0.670833 0 0 0 0 0.670833 0 0 0 0 0.670833 0 0 0 0.29 0"/>
<feBlend mode="normal" in2="BackgroundImageFix" result="effect1_dropShadow"/>
<feBlend mode="normal" in="SourceGraphic" in2="effect1_dropShadow" result="shape"/>
</filter>
</defs>
</svg>
