<svg width="374" height="267" viewBox="0 0 374 267" fill="none" xmlns="http://www.w3.org/2000/svg">
<ellipse cx="186.734" cy="245.5" rx="186.713" ry="21.5" fill="#F6F6F6"/>
<path fill-rule="evenodd" clip-rule="evenodd" d="M6.05637 209.875C6.05637 209.875 4.86753 200.375 17.707 196.1C30.5465 191.825 33.3997 194.081 33.3997 194.081L32.2109 197.881C32.2109 197.881 30.1899 207.381 20.9169 208.687C11.6439 209.994 8.0774 208.094 6.05637 209.875Z" fill="#7CB305"/>
<path d="M32.023 194.529L32.3986 194.821L32.3675 194.86C32.3539 194.876 32.3371 194.897 32.3171 194.921L32.2578 194.991C32.216 195.039 32.17 195.092 32.1197 195.148L32.0812 195.191C31.8203 195.48 31.5054 195.802 31.1358 196.147C30.0823 197.133 28.8002 198.117 27.2828 199.035C24.2355 200.879 20.6375 202.219 16.4691 202.843L16.3145 202.866C13.5088 203.273 11.273 204.204 9.54109 205.499C8.71027 206.121 8.05092 206.785 7.54554 207.449C7.36963 207.68 7.22571 207.894 7.11162 208.085L7.07437 208.148C7.05684 208.178 7.04095 208.207 7.02667 208.233L6.98683 208.309L6.98445 208.314L6.55469 208.111L6.5678 208.084C6.59501 208.03 6.63972 207.947 6.70327 207.841C6.82632 207.635 6.98019 207.407 7.16711 207.161C7.69841 206.464 8.3888 205.768 9.25605 205.119C11.0257 203.795 13.2957 202.842 16.1229 202.414L16.2461 202.396C20.4154 201.792 24.0047 200.463 27.0364 198.629C28.5246 197.728 29.7807 196.764 30.8108 195.801C31.1465 195.487 31.4349 195.194 31.6769 194.929L31.728 194.873C31.8032 194.79 31.8688 194.715 31.9249 194.649L31.9876 194.573L32.023 194.529Z" fill="#7CB305"/>
<path fill-rule="evenodd" clip-rule="evenodd" d="M31.8545 216.287H33.3991V194.082H31.8545L32.2707 200.905C32.3892 202.846 32.4021 204.793 32.3097 206.735L31.8545 216.287Z" fill="#7CB305"/>
<path fill-rule="evenodd" clip-rule="evenodd" d="M8.05176 177.361C8.05176 177.361 12.7839 170.174 24.058 174.728C35.3319 179.282 35.8969 182.919 35.8969 182.919L32.9349 184.392C32.9349 184.392 26.0081 189.711 18.9054 185.204C11.8028 180.697 10.4733 177.321 8.05176 177.361Z" fill="#7CB305"/>
<path fill-rule="evenodd" clip-rule="evenodd" d="M34.351 222.462H35.5399L36.0057 183.263C36.0114 182.78 35.6925 182.352 35.2271 182.219L34.351 181.969C34.351 181.969 34.6496 185.611 34.5888 190.163C34.5307 194.517 34.1133 199.697 34.1133 203.535C34.1133 214.388 34.351 222.462 34.351 222.462Z" fill="#7CB305"/>
<path fill-rule="evenodd" clip-rule="evenodd" d="M24.1274 177.1C29.2577 181.077 34.4703 183.631 34.4703 183.631L32.9349 184.392C32.9349 184.392 26.0081 189.711 18.9054 185.204C11.8028 180.696 10.4733 177.32 8.05176 177.361C8.05176 177.361 16.1622 170.925 24.1274 177.1Z" fill="#5B8C00"/>
<path fill-rule="evenodd" clip-rule="evenodd" d="M63.6855 194.363C63.6855 194.363 60.4933 189.538 52.8881 192.595C45.283 195.652 44.9018 198.093 44.9018 198.093L46.8999 199.082C46.8999 199.082 51.5726 202.652 56.3639 199.626C61.1552 196.601 62.052 194.335 63.6855 194.363Z" fill="#7CB305"/>
<path fill-rule="evenodd" clip-rule="evenodd" d="M45.9266 224.83H45.1056L44.7839 198.391C44.78 198.065 45.0002 197.776 45.3216 197.687L45.9266 197.518C45.9266 197.518 45.7205 199.975 45.7624 203.044C45.8026 205.981 46.0908 209.475 46.0908 212.064C46.0908 219.384 45.9266 224.83 45.9266 224.83Z" fill="#7CB305"/>
<path fill-rule="evenodd" clip-rule="evenodd" d="M64.5727 168.218C64.5727 168.218 59.8405 161.03 48.5665 165.585C37.2926 170.139 36.7275 173.775 36.7275 173.775L39.6895 175.249C39.6895 175.249 46.6163 180.567 53.7191 176.06C60.8217 171.553 62.1512 168.177 64.5727 168.218Z" fill="#7CB305"/>
<path fill-rule="evenodd" clip-rule="evenodd" d="M38.2748 214.863H37.086L36.6202 174.12C36.6145 173.636 36.9333 173.209 37.3988 173.076L38.2748 172.826C38.2748 172.826 37.9763 176.468 38.0371 181.019C38.0952 185.373 38.5126 190.554 38.5126 194.391C38.5126 205.244 38.2748 214.863 38.2748 214.863Z" fill="#7CB305"/>
<path fill-rule="evenodd" clip-rule="evenodd" d="M64.5738 168.218C64.5738 168.218 56.4634 161.782 48.4982 167.957C43.3679 171.934 38.1553 174.488 38.1553 174.488L39.6907 175.249C39.6907 175.249 46.6175 180.567 53.7202 176.06C60.8228 171.553 62.1523 168.177 64.5738 168.218Z" fill="#5B8C00"/>
<path fill-rule="evenodd" clip-rule="evenodd" d="M40.4143 214.506H42.4353L43.2347 189.27L41.7122 165.451C41.718 164.967 41.3991 164.54 40.9337 164.407L40.0576 164.157C40.0576 164.157 41.9598 183.072 41.9598 186.91C41.9598 197.763 40.4143 214.506 40.4143 214.506Z" fill="#7CB305"/>
<path fill-rule="evenodd" clip-rule="evenodd" d="M17.6709 150.83C17.6709 150.83 21.9872 144.445 32.2113 150.857C42.5103 157.316 41.7952 165.79 41.7952 165.79L38.5041 166.132C38.5041 166.132 30.1497 168.686 25.0811 161.977C20.0124 155.267 19.9529 151.64 17.6709 150.83Z" fill="#7CB305"/>
<path fill-rule="evenodd" clip-rule="evenodd" d="M17.6709 150.83C17.6709 150.83 22.3174 147.409 26.2671 152.282C28.2881 154.776 31.8637 156.656 33.4001 158.101C37.3914 161.855 40.2091 165.958 40.2091 165.958L38.5041 166.133C38.5041 166.133 30.1497 168.686 25.0811 161.977C20.0124 155.268 19.9529 151.64 17.6709 150.83Z" fill="#5B8C00"/>
<path fill-rule="evenodd" clip-rule="evenodd" d="M51.6795 247.755H24.0983C22.5225 247.755 21.2451 246.479 21.2451 244.905V217.356C21.2451 215.782 22.5225 214.506 24.0983 214.506H51.6795C53.2553 214.506 54.5327 215.782 54.5327 217.356V244.905C54.5327 246.479 53.2553 247.755 51.6795 247.755Z" fill="#253368"/>
<path fill-rule="evenodd" clip-rule="evenodd" d="M119.899 185.703C119.899 188.339 117.76 190.476 115.121 190.476C112.482 190.476 110.343 188.339 110.343 185.703C110.343 183.067 112.482 180.93 115.121 180.93C117.76 180.93 119.899 183.067 119.899 185.703Z" fill="#253368"/>
<path fill-rule="evenodd" clip-rule="evenodd" d="M114.225 228.656H116.074V187.128H114.225V228.656Z" fill="#253368"/>
<path fill-rule="evenodd" clip-rule="evenodd" d="M114.225 228.657L92.6832 232.241L91.293 231.238L114.225 224.491V228.657Z" fill="#253368"/>
<path fill-rule="evenodd" clip-rule="evenodd" d="M116.075 228.657L137.617 232.241L139.007 231.238L116.075 224.491V228.657Z" fill="#253368"/>
<path fill-rule="evenodd" clip-rule="evenodd" d="M113.681 233.475H116.615V227.458H113.681V233.475Z" fill="#253368"/>
<path fill-rule="evenodd" clip-rule="evenodd" d="M94.7021 233.555C94.7021 234.929 93.5869 236.042 92.2115 236.042C90.8359 236.042 89.7207 234.929 89.7207 233.555C89.7207 232.181 90.8359 231.067 92.2115 231.067C93.5869 231.067 94.7021 232.181 94.7021 233.555Z" fill="#253368"/>
<path fill-rule="evenodd" clip-rule="evenodd" d="M117.64 233.555C117.64 234.929 116.524 236.042 115.149 236.042C113.773 236.042 112.658 234.929 112.658 233.555C112.658 232.181 113.773 231.067 115.149 231.067C116.524 231.067 117.64 232.181 117.64 233.555Z" fill="#253368"/>
<path fill-rule="evenodd" clip-rule="evenodd" d="M140.797 233.555C140.797 234.929 139.682 236.042 138.306 236.042C136.931 236.042 135.815 234.929 135.815 233.555C135.815 232.181 136.931 231.067 138.306 231.067C139.682 231.067 140.797 232.181 140.797 233.555Z" fill="#253368"/>
<path fill-rule="evenodd" clip-rule="evenodd" d="M145.072 184.827H85.1709C85.1709 178.946 89.9435 174.179 95.831 174.179H134.412C140.299 174.179 145.072 178.946 145.072 184.827Z" fill="#A3B5D6"/>
<path fill-rule="evenodd" clip-rule="evenodd" d="M284.8 185.703C284.8 188.339 282.661 190.476 280.022 190.476C277.384 190.476 275.244 188.339 275.244 185.703C275.244 183.067 277.384 180.93 280.022 180.93C282.661 180.93 284.8 183.067 284.8 185.703Z" fill="#253368"/>
<path fill-rule="evenodd" clip-rule="evenodd" d="M279.125 228.656H280.975V187.128H279.125V228.656Z" fill="#253368"/>
<path fill-rule="evenodd" clip-rule="evenodd" d="M279.126 228.657L257.585 232.241L256.194 231.238L279.126 224.491V228.657Z" fill="#253368"/>
<path fill-rule="evenodd" clip-rule="evenodd" d="M280.977 228.657L302.518 232.241L303.908 231.238L280.977 224.491V228.657Z" fill="#253368"/>
<path fill-rule="evenodd" clip-rule="evenodd" d="M278.582 233.475H281.517V227.458H278.582V233.475Z" fill="#253368"/>
<path fill-rule="evenodd" clip-rule="evenodd" d="M259.603 233.555C259.603 234.929 258.488 236.042 257.113 236.042C255.737 236.042 254.622 234.929 254.622 233.555C254.622 232.181 255.737 231.067 257.113 231.067C258.488 231.067 259.603 232.181 259.603 233.555Z" fill="#253368"/>
<path fill-rule="evenodd" clip-rule="evenodd" d="M282.541 233.555C282.541 234.929 281.426 236.042 280.05 236.042C278.675 236.042 277.56 234.929 277.56 233.555C277.56 232.181 278.675 231.067 280.05 231.067C281.426 231.067 282.541 232.181 282.541 233.555Z" fill="#253368"/>
<path fill-rule="evenodd" clip-rule="evenodd" d="M305.698 233.555C305.698 234.929 304.583 236.042 303.207 236.042C301.832 236.042 300.717 234.929 300.717 233.555C300.717 232.181 301.832 231.067 303.207 231.067C304.583 231.067 305.698 232.181 305.698 233.555Z" fill="#253368"/>
<path fill-rule="evenodd" clip-rule="evenodd" d="M309.973 184.827H250.072C250.072 178.946 254.845 174.179 260.732 174.179H299.313C305.201 174.179 309.973 178.946 309.973 184.827Z" fill="#A3B5D6"/>
<path fill-rule="evenodd" clip-rule="evenodd" d="M124.642 168.142L111.691 160.57C110.791 160.044 110.238 159.078 110.238 158.033L107.598 147.549C107.598 147.549 125.63 149.397 134.355 147.275C137.329 146.551 140.361 153.21 140.361 153.21C143.019 154.927 139.997 159.538 139.542 160.15C138.148 162.03 134.066 163.265 127.55 167.702C126.666 168.303 125.543 168.717 124.642 168.142Z" fill="#253368"/>
<path d="M127.288 147.942L127.26 147.944C127.184 147.958 127.131 148.024 127.131 148.099L127.134 148.127L127.604 150.743C127.62 150.829 127.701 150.886 127.786 150.87C127.862 150.856 127.915 150.79 127.915 150.715L127.913 150.687L127.442 148.071C127.428 147.995 127.363 147.942 127.288 147.942Z" fill="#253368"/>
<path fill-rule="evenodd" clip-rule="evenodd" d="M139.797 164.897L115.1 154.363C109.965 152.25 104.152 155.172 102.763 160.564C101.562 165.23 104.16 170.036 108.714 171.569L134.304 180.189C134.304 180.189 141.46 183.046 144.132 175.391C146.731 167.948 139.797 164.897 139.797 164.897Z" fill="#253368"/>
<path fill-rule="evenodd" clip-rule="evenodd" d="M160.972 176.25L134.573 171.408C129.126 170.336 125.876 164.687 127.674 159.419C129.23 154.859 134.034 152.281 138.678 153.515L164.773 160.449C164.773 160.449 172.315 162.015 170.347 169.882C168.435 177.532 160.972 176.25 160.972 176.25Z" fill="#253368"/>
<path fill-rule="evenodd" clip-rule="evenodd" d="M128.813 91.1905L128.265 91.1779C128.669 94.4802 116.258 94.9613 114.34 91.1287C114.292 91.031 114.254 90.9395 114.221 90.8519L112.709 90.8164L112.066 148.347C112.066 148.347 125.07 152.18 135.447 148.279C139.965 102.347 128.813 91.1905 128.813 91.1905Z" fill="#597EF7"/>
<path fill-rule="evenodd" clip-rule="evenodd" d="M138.085 201.878C135.641 201.887 133.736 204.003 133.979 206.442C134.395 210.613 134.953 217.034 135.14 223.022C135.307 228.39 134.364 232.031 135.358 233.465C136.429 235.011 138.876 233.847 140.735 235.854C142.595 237.861 143.931 239.398 149.246 238.496C155.461 237.441 150.093 235.525 147.356 232.772C142.521 227.911 142.013 225.694 141.899 222.269C141.667 215.256 141.943 209.869 142.227 206.36C142.423 203.938 140.506 201.87 138.085 201.878Z" fill="#FFC999"/>
<path fill-rule="evenodd" clip-rule="evenodd" d="M128.504 172.456L132.59 220.186C132.687 221.327 133.598 222.228 134.736 222.309L142.772 222.882C144.126 222.979 145.272 221.894 145.256 220.532L144.689 173.245C144.689 173.245 144.894 165.203 136.309 165.323C128.301 165.435 128.504 172.456 128.504 172.456Z" fill="#253368"/>
<path fill-rule="evenodd" clip-rule="evenodd" d="M135.044 228.234C135.044 228.234 135.857 229.424 138.747 231.986C141.026 234.007 142.511 235.236 143.827 234.733C146.228 233.816 148.065 233.381 148.065 233.381C148.065 233.381 150.206 234.601 151.797 235.939C153.388 237.276 153.097 239.345 149.44 239.759C145.781 240.174 143.702 239.868 140.372 237.074C137.041 234.281 135.497 235.309 135.028 233.772C134.296 231.369 135.044 228.234 135.044 228.234Z" fill="#253368"/>
<path fill-rule="evenodd" clip-rule="evenodd" d="M132.322 222.439L145.496 223.379C145.775 223.399 146.013 223.179 146.015 222.898L146.068 217.204C146.07 216.947 145.873 216.733 145.618 216.714L131.618 215.716C131.311 215.694 131.062 215.96 131.103 216.266L131.876 222.019C131.907 222.247 132.093 222.422 132.322 222.439Z" fill="#4E5C93"/>
<path fill-rule="evenodd" clip-rule="evenodd" d="M159.455 197.719C157.012 197.714 155.094 199.818 155.324 202.26C155.716 206.433 156.237 212.856 156.39 218.846C156.527 224.215 155.564 227.85 156.549 229.289C157.611 230.841 160.065 229.692 161.912 231.71C163.761 233.728 165.088 235.271 170.408 234.399C176.629 233.38 171.272 231.434 168.551 228.666C163.744 223.776 163.248 221.556 163.154 218.132C162.961 211.117 163.268 205.732 163.572 202.224C163.782 199.804 161.876 197.725 159.455 197.719Z" fill="#FFC999"/>
<path fill-rule="evenodd" clip-rule="evenodd" d="M156.265 224.057C156.265 224.057 157.072 225.252 159.947 227.83C162.215 229.864 163.693 231.101 165.011 230.606C167.417 229.703 169.257 229.278 169.257 229.278C169.257 229.278 171.391 230.511 172.974 231.857C174.557 233.204 174.255 235.27 170.595 235.664C166.935 236.057 164.858 235.741 161.543 232.927C158.228 230.114 156.678 231.135 156.218 229.595C155.499 227.188 156.265 224.057 156.265 224.057Z" fill="#253368"/>
<path fill-rule="evenodd" clip-rule="evenodd" d="M154.825 166.999L154.593 214.904C154.588 216.049 155.414 217.028 156.54 217.213L164.491 218.512C165.83 218.731 167.07 217.755 167.177 216.398L170.873 169.253C170.873 169.253 171.801 161.262 163.24 160.603C155.256 159.987 154.825 166.999 154.825 166.999Z" fill="#253368"/>
<path fill-rule="evenodd" clip-rule="evenodd" d="M153.747 217.397L166.882 218.781C167.16 218.811 167.405 218.598 167.416 218.319L167.661 212.63C167.672 212.373 167.482 212.152 167.227 212.125L153.269 210.654C152.963 210.621 152.705 210.879 152.735 211.186L153.315 216.962C153.338 217.191 153.518 217.373 153.747 217.397Z" fill="#4E5C93"/>
<path fill-rule="evenodd" clip-rule="evenodd" d="M115.014 73.9298C115.014 73.9298 114.499 63.8127 127.008 65.3408C133.945 66.6665 132.82 78.3229 132.82 78.3229C132.82 78.3229 133.106 80.8137 131.981 83.2593C130.721 85.9987 127.972 86.7217 124.428 86.7479C117.911 85.9734 115.573 82.1486 115.573 82.1486C115.573 82.1486 111.044 82.1126 111.891 76.462C112.711 71.223 115.014 73.9298 115.014 73.9298Z" fill="#FFC999"/>
<path fill-rule="evenodd" clip-rule="evenodd" d="M116.625 67.1131C116.465 69.6939 114.25 71.6559 111.677 71.4944C109.105 71.3334 107.15 69.1101 107.31 66.5293C107.471 63.9479 109.686 61.9864 112.259 62.1474C114.831 62.3089 116.786 64.5317 116.625 67.1131Z" fill="#253368"/>
<path fill-rule="evenodd" clip-rule="evenodd" d="M132.737 78.6821C132.737 78.6821 134.433 76.1168 135.548 73.0013C136.664 69.8858 131.04 63.1634 130.256 62.6001C129.472 62.0372 129.096 61.5001 123.358 63.1955C106.662 62.8204 109.66 78.3795 109.66 78.3795C109.66 78.3795 107.633 79.6658 108.519 83.5232C109.609 87.3932 114.815 87.8525 114.815 87.8525L115.365 81.9396C115.365 81.9396 113.595 81.962 112.396 79.8321C111.197 77.7018 112.498 75.2863 113.327 75.1326C114.087 74.631 115.887 75.0183 115.751 77.206C115.682 78.307 117.925 75.9699 119.004 71.8283C124.888 71.067 126.597 67.0977 126.597 67.0977C126.597 67.0977 126.559 70.9994 125.539 72.5795C128.656 71.8502 130.391 70.3149 129.989 68.5431C133.361 70.2954 132.737 78.6821 132.737 78.6821Z" fill="#253368"/>
<path fill-rule="evenodd" clip-rule="evenodd" d="M114.696 89.1048L115.465 79.7573L126.926 80.7425C126.926 80.7425 126.507 86.7711 126.582 89.2318C133.797 93.8228 117.22 97.1023 113.604 92.2096C112.487 90.6986 114.696 89.1048 114.696 89.1048Z" fill="#FFC999"/>
<path fill-rule="evenodd" clip-rule="evenodd" d="M126.28 76.3716C125.925 78.5969 124.081 80.1512 122.161 79.8433C120.24 79.5353 118.971 77.4818 119.325 75.2566C119.679 73.0314 121.523 71.477 123.444 71.785C125.364 72.0929 126.634 74.1464 126.28 76.3716Z" fill="white"/>
<path d="M123.483 71.545C125.544 71.8755 126.894 74.0593 126.52 76.4102C126.145 78.7611 124.184 80.4141 122.123 80.0837C120.062 79.7532 118.712 77.5692 119.086 75.2184C119.461 72.8675 121.422 71.2145 123.483 71.545ZM119.565 75.2952C119.231 77.3947 120.42 79.3178 122.2 79.6033C123.98 79.8887 125.707 78.4332 126.041 76.3335C126.375 74.2337 125.186 72.3108 123.406 72.0254C121.626 71.74 119.9 73.1955 119.565 75.2952Z" fill="#253368"/>
<path fill-rule="evenodd" clip-rule="evenodd" d="M134.112 76.5603C133.757 78.7855 132.012 80.3559 130.215 80.0674C128.416 79.7794 127.246 77.7415 127.6 75.5163C127.955 73.2911 129.699 71.7212 131.497 72.0092C133.295 72.2977 134.466 74.3351 134.112 76.5603Z" fill="white"/>
<path d="M131.535 71.7692C133.478 72.0809 134.724 74.2509 134.351 76.5989C133.977 78.9471 132.118 80.6196 130.176 80.3079C128.234 79.9968 126.987 77.8266 127.361 75.4782C127.735 73.1301 129.593 71.4581 131.535 71.7692ZM127.839 75.5549C127.505 77.6576 128.599 79.5627 130.253 79.8275C131.906 80.0928 133.537 78.6246 133.872 76.5222C134.207 74.4199 133.112 72.5149 131.459 72.2496C129.805 71.9848 128.174 73.4525 127.839 75.5549Z" fill="#253368"/>
<path d="M127.114 76.9686C127.05 76.89 126.934 76.8787 126.856 76.9434C126.786 77.0009 126.77 77.0991 126.812 77.1754L126.831 77.2029L127.897 78.5027L126.588 79.5162C126.516 79.5715 126.497 79.6692 126.537 79.7468L126.555 79.7749C126.61 79.8465 126.707 79.8663 126.784 79.8261L126.812 79.8082L128.271 78.6786C128.344 78.622 128.363 78.5216 128.32 78.4435L128.301 78.4154L127.114 76.9686Z" fill="#DD936F"/>
<path d="M124.158 80.1311C124.031 80.0872 123.893 80.1545 123.85 80.2814C123.806 80.4084 123.873 80.5469 123.999 80.5909L124.164 80.6453C124.193 80.6546 124.225 80.6648 124.26 80.6756C124.461 80.7384 124.678 80.8013 124.904 80.8599C125.199 80.9366 125.486 81.0004 125.758 81.0471C126.248 81.1312 126.664 81.1559 126.988 81.1048C127.12 81.0839 127.21 80.9594 127.189 80.8267C127.169 80.694 127.045 80.6033 126.912 80.6242C126.651 80.6655 126.283 80.6435 125.84 80.5676C125.582 80.5234 125.308 80.4624 125.026 80.389C124.862 80.3465 124.703 80.3018 124.552 80.2565L124.312 80.1821C124.243 80.1598 124.19 80.1423 124.158 80.1311Z" fill="#F5222D"/>
<path fill-rule="evenodd" clip-rule="evenodd" d="M126.4 75.3113C126.4 75.3113 127.038 74.9392 127.558 75.3839L126.4 75.3113Z" fill="white"/>
<path d="M126.4 75.3113C126.4 75.3113 127.038 74.9392 127.558 75.3839" stroke="#253368" stroke-width="1.5" stroke-linecap="round" stroke-linejoin="round"/>
<path d="M120.648 85.6595C120.551 85.6297 120.448 85.6843 120.418 85.7817C120.389 85.879 120.443 85.9822 120.54 86.0121C121.054 86.1704 121.645 86.3062 122.299 86.4215C123.131 86.5683 124.021 86.6749 124.911 86.7479L125.274 86.7757C125.332 86.7798 125.39 86.7838 125.446 86.7875L125.88 86.813C125.981 86.8181 126.055 86.8212 126.1 86.8228C126.201 86.8263 126.286 86.7467 126.29 86.6449C126.293 86.5431 126.214 86.4578 126.113 86.4543L125.946 86.447L125.792 86.439C125.535 86.4249 125.249 86.4056 124.941 86.3803C124.062 86.3082 123.182 86.2029 122.362 86.0583C121.723 85.9455 121.146 85.813 120.648 85.6595Z" fill="#DD936F"/>
<path fill-rule="evenodd" clip-rule="evenodd" d="M124.325 75.6686C124.291 76.2223 124.019 76.6557 123.718 76.6372C123.418 76.6183 123.202 76.1541 123.236 75.6005C123.271 75.0469 123.542 74.6134 123.843 74.6319C124.144 74.6509 124.36 75.115 124.325 75.6686Z" fill="#253368"/>
<path fill-rule="evenodd" clip-rule="evenodd" d="M131.406 76.2038C131.371 76.7575 131.099 77.1909 130.798 77.1724C130.498 77.1535 130.282 76.6893 130.316 76.1352C130.35 75.5821 130.623 75.1481 130.923 75.1671C131.224 75.1861 131.44 75.6502 131.406 76.2038Z" fill="#253368"/>
<path d="M119.325 75.257L116.152 75.1265" stroke="#253368" stroke-width="1.5" stroke-linecap="round" stroke-linejoin="round"/>
<path fill-rule="evenodd" clip-rule="evenodd" d="M153.68 126.559C156.814 124.526 157.713 120.329 155.688 117.183L144.086 99.1694C142.06 96.0243 137.877 95.1223 134.742 97.1549C131.608 99.187 130.709 103.384 132.735 106.53L144.336 124.544C146.362 127.689 150.545 128.591 153.68 126.559Z" fill="#E4EBF7"/>
<path d="M127.315 95.5284C127.271 95.4352 127.161 95.3953 127.068 95.4392C126.813 95.5595 126.556 95.67 126.294 95.7708C123.463 96.8628 120.434 96.7921 117.569 96.0151C117.166 95.906 116.799 95.7902 116.47 95.6737L116.332 95.6237C116.237 95.5888 116.151 95.5558 116.075 95.5253L115.943 95.4714C115.918 95.461 115.9 95.4532 115.889 95.4483C115.795 95.4063 115.685 95.4486 115.644 95.5427C115.602 95.6368 115.644 95.7471 115.738 95.7891L115.86 95.841C115.959 95.8812 116.073 95.926 116.204 95.974C116.576 96.111 117.001 96.2477 117.472 96.3753C120.406 97.1712 123.513 97.2436 126.428 96.1191C126.697 96.015 126.964 95.901 127.226 95.7768C127.319 95.7328 127.359 95.6217 127.315 95.5284Z" fill="#597EF7"/>
<path fill-rule="evenodd" clip-rule="evenodd" d="M126.599 89.703C126.599 89.703 131.065 97.466 131.072 126.048C131.078 154.671 144.366 155.036 144.366 155.036L151.828 156.862C151.828 156.862 143.921 150.698 143.557 136.145C142.893 109.64 142.433 102.403 140.203 96.5052C137.719 95.1177 135.087 94.1749 131.248 92.154C130.315 91.6631 128.687 90.3282 128.095 90.0119C126.483 89.1523 126.599 89.703 126.599 89.703Z" fill="#E4EBF7"/>
<path d="M141.059 103.103C140.927 103.123 140.835 103.247 140.855 103.379L140.944 104.003L141.056 104.831C141.087 105.068 141.12 105.317 141.153 105.58L141.178 105.779C141.421 107.696 141.664 109.846 141.89 112.178C142.529 118.754 142.916 125.456 142.925 131.891C142.926 132.025 143.034 132.134 143.168 132.134C143.302 132.134 143.41 132.024 143.41 131.89C143.4 125.438 143.013 118.721 142.373 112.131C142.172 110.069 141.96 108.149 141.745 106.405L141.609 105.323C141.568 105.002 141.528 104.701 141.49 104.42L141.335 103.307C141.317 103.186 141.211 103.099 141.092 103.1L141.059 103.103Z" fill="#A3B5D6"/>
<path d="M126.872 89.0417C126.758 88.972 126.609 89.0085 126.539 89.1233C126.475 89.2286 126.501 89.3631 126.594 89.4385L126.62 89.4575L131.302 92.3112L131.352 92.6083C131.367 92.7011 131.382 92.8016 131.399 92.9099L131.432 93.1368C131.545 93.9298 131.658 94.9033 131.764 96.0644L131.808 96.5666C132.517 104.844 132.462 116.773 131.144 132.816C131.133 132.95 131.232 133.067 131.365 133.078C131.499 133.089 131.616 132.99 131.627 132.856L131.706 131.877C132.975 115.975 132.989 104.177 132.246 96.0202L132.206 95.5905C132.118 94.6784 132.026 93.8896 131.933 93.2202L131.878 92.8373C131.862 92.7272 131.846 92.6248 131.83 92.5301L131.772 92.1856C131.766 92.1539 131.761 92.1295 131.758 92.1122C131.747 92.0566 131.717 92.0069 131.673 91.9715L131.646 91.9519L126.872 89.0417Z" fill="#A3B5D6"/>
<path fill-rule="evenodd" clip-rule="evenodd" d="M178.819 100.077C178.819 100.077 173.541 102.116 171.301 99.6365C169.273 97.3909 171.262 95.0903 171.262 95.0903C171.262 95.0903 172.877 92.49 175.64 90.5099C177.462 89.2056 181.174 87.0777 181.986 87.9451C183.045 89.0753 178.703 91.2382 179.19 92.256C179.688 93.3005 180.619 92.92 183.017 92.7536C184.516 92.6495 185.953 91.9558 187.24 92.1105C189.757 92.4136 186.991 97.6804 178.819 100.077Z" fill="#FFC999"/>
<path d="M187.373 92.7956C187.322 92.7076 187.21 92.6779 187.122 92.7293C184.91 94.0245 182.82 94.3741 181.173 94.2075L181.043 94.1926C180.995 94.1863 180.959 94.1807 180.937 94.1765C180.837 94.1577 180.741 94.2237 180.722 94.3238C180.704 94.4238 180.769 94.5202 180.869 94.5389L180.955 94.5527C181.002 94.5595 181.063 94.5669 181.137 94.5744C182.856 94.7483 185.023 94.3858 187.307 93.0478C187.395 92.9964 187.425 92.8835 187.373 92.7956Z" fill="#DD936F"/>
<path d="M186.202 94.7815C186.148 94.6951 186.034 94.6689 185.948 94.7229L185.843 94.7854L185.698 94.8665C185.646 94.895 185.591 94.9247 185.531 94.9556C185.191 95.1327 184.805 95.3099 184.379 95.4754C183.213 95.9286 181.982 96.2084 180.741 96.2298C180.639 96.2315 180.558 96.3155 180.56 96.4173C180.562 96.5191 180.646 96.6002 180.747 96.5985C182.036 96.5763 183.308 96.2871 184.512 95.8193C184.951 95.6487 185.349 95.4659 185.701 95.2829C185.793 95.2347 185.878 95.1891 185.953 95.1465L186.128 95.0447C186.134 95.0413 186.139 95.0382 186.143 95.0356C186.229 94.9816 186.255 94.8678 186.202 94.7815Z" fill="#DD936F"/>
<path d="M184.411 96.9675C184.372 96.8738 184.264 96.8299 184.17 96.8696C182.993 97.3697 181.936 97.6835 181.009 97.8474C180.444 97.9472 180.008 97.979 179.708 97.972L179.64 97.9696L179.583 97.9434C179.512 97.9104 179.429 97.8738 179.335 97.8343C179.07 97.722 178.774 97.6098 178.455 97.5051C177.558 97.21 176.661 97.0306 175.819 97.0249C174.539 97.0162 173.497 97.4117 172.797 98.3052C172.735 98.3852 172.748 98.5012 172.828 98.5641C172.908 98.627 173.023 98.6131 173.086 98.533C173.707 97.74 174.641 97.3856 175.816 97.3936C176.615 97.399 177.477 97.5713 178.341 97.8555C178.649 97.957 178.936 98.0656 179.193 98.1742L179.299 98.22C179.348 98.2413 179.391 98.2604 179.426 98.2767L179.512 98.3171L179.577 98.3352L179.63 98.3384C179.956 98.3528 180.44 98.3222 181.072 98.2106C182.027 98.0419 183.111 97.7201 184.314 97.2092C184.407 97.1695 184.451 97.0613 184.411 96.9675Z" fill="#DD936F"/>
<path fill-rule="evenodd" clip-rule="evenodd" d="M167.97 94.5107L176.521 102.339L155.987 126.364C153.472 129.13 149.198 129.327 146.441 126.803C143.684 124.279 143.489 119.99 146.004 117.224L167.97 94.5107Z" fill="#E4EBF7"/>
<path d="M168.248 94.2042C168.149 94.1136 167.995 94.1207 167.905 94.2199C167.823 94.3101 167.822 94.4455 167.896 94.5374L167.921 94.5636L176.472 102.392C176.571 102.483 176.724 102.476 176.815 102.376C176.897 102.286 176.898 102.151 176.824 102.059L176.799 102.033L168.248 94.2042Z" fill="#A3B5D6"/>
<path d="M165.509 98.5445C165.41 98.454 165.256 98.461 165.166 98.5603C165.084 98.6505 165.082 98.7858 165.157 98.8777L165.182 98.9039L172.443 105.551C172.542 105.642 172.695 105.635 172.785 105.536C172.867 105.445 172.869 105.31 172.794 105.218L172.77 105.192L165.509 98.5445Z" fill="#A3B5D6"/>
<path fill-rule="evenodd" clip-rule="evenodd" d="M130.35 130.387L137.366 108.367C137.481 108.004 137.815 107.756 138.195 107.751L157.867 107.483C158.478 107.475 158.912 108.078 158.714 108.657L151.391 130.092C151.273 130.437 150.957 130.674 150.594 130.69L131.23 131.542C130.616 131.569 130.163 130.974 130.35 130.387Z" fill="#4E5C93"/>
<path fill-rule="evenodd" clip-rule="evenodd" d="M131.387 130.118L138.28 108.482C138.42 108.043 138.825 107.742 139.284 107.736L159.199 107.465C159.626 107.46 159.93 107.881 159.791 108.287L152.367 130.017C152.236 130.399 151.886 130.662 151.484 130.679L132.452 131.517C131.709 131.55 131.16 130.829 131.387 130.118Z" fill="#253368"/>
<path fill-rule="evenodd" clip-rule="evenodd" d="M140.977 109.821C141.199 110.069 141.119 110.506 140.798 110.796C140.477 111.086 140.036 111.12 139.813 110.871C139.59 110.623 139.67 110.186 139.991 109.896C140.313 109.606 140.754 109.572 140.977 109.821Z" fill="#253368"/>
<path fill-rule="evenodd" clip-rule="evenodd" d="M140.712 110.08C140.827 110.209 140.786 110.436 140.619 110.587C140.453 110.738 140.224 110.755 140.109 110.626C139.993 110.497 140.035 110.27 140.201 110.12C140.368 109.969 140.597 109.952 140.712 110.08Z" fill="#E4EBF7"/>
<path fill-rule="evenodd" clip-rule="evenodd" d="M100.036 95.54C103.901 93.7118 108.13 92.9845 110.578 91.615C112.146 90.7378 113.409 89.5522 114.641 89.1514C122.574 124.836 120.357 165.934 118.792 186.45C109.48 187.604 99.6799 180.697 99.6799 180.697C97.7458 182.464 99.9747 151.557 101.367 132.565C102.503 117.075 99.0476 96.0075 100.036 95.54Z" fill="#E4EBF7"/>
<path d="M114.738 88.8916C114.67 88.7906 114.539 88.7577 114.432 88.8093L114.401 88.8273L110.563 91.4471C110.502 91.4891 110.463 91.5573 110.458 91.6319L110.447 91.8478L110.438 92.1661C110.41 93.4309 110.475 95.1536 110.7 97.2868C111.059 100.695 111.761 104.457 112.887 108.515L113.266 109.872L115.042 116.129C115.665 118.343 116.085 119.921 116.462 121.485C117.302 124.97 117.871 128.247 118.336 132.443C118.351 132.577 118.471 132.673 118.604 132.658C118.737 132.643 118.833 132.523 118.818 132.389L118.729 131.609C118.293 127.889 117.762 124.864 117.012 121.699L116.855 121.046C116.536 119.741 116.179 118.399 115.696 116.666L113.929 110.436C113.751 109.806 113.585 109.212 113.417 108.61L113.354 108.384C112.236 104.353 111.538 100.617 111.182 97.2357C110.952 95.0486 110.891 93.3015 110.926 92.0469L110.936 91.7813L114.674 89.2295C114.775 89.1609 114.807 89.0296 114.756 88.9228L114.738 88.8916Z" fill="#A3B5D6"/>
<path d="M101.135 144.711C101.002 144.69 100.878 144.78 100.857 144.913C100.837 145.034 100.911 145.149 101.025 145.184L101.057 145.191L109.194 146.509L108.797 163.729C108.766 165.058 107.597 166.062 106.294 165.9L106.22 165.89L100.393 164.972C100.261 164.951 100.137 165.041 100.116 165.174C100.097 165.296 100.171 165.41 100.286 165.445L100.318 165.452L106.144 166.37C107.74 166.622 109.194 165.43 109.279 163.823L109.282 163.74L109.684 146.308C109.686 146.197 109.614 146.101 109.511 146.069L109.48 146.062L101.135 144.711Z" fill="#A3B5D6"/>
<path fill-rule="evenodd" clip-rule="evenodd" d="M94.8936 133.204C91.283 132.256 89.1215 128.551 90.066 124.928L96.7365 99.3379C97.6805 95.715 101.373 93.5462 104.984 94.4939C108.594 95.4411 110.756 99.1462 109.812 102.769L103.141 128.36C102.197 131.983 98.5043 134.151 94.8936 133.204Z" fill="#E4EBF7"/>
<path fill-rule="evenodd" clip-rule="evenodd" d="M139.326 129.571C140.444 129.264 140.961 128.683 140.69 127.751C141.983 127.082 141.631 125.946 141.631 125.946C141.631 125.946 144.257 125.451 144.506 124.245C144.603 123.777 144.188 123.365 143.715 123.415C138.008 124.007 133.47 121.703 133.47 121.703C133.47 121.703 135.127 118.051 134.633 116.584C134.487 116.15 133.882 116.106 133.672 116.513C131.875 119.995 127.626 123.216 127.626 123.216C127.626 123.216 122.932 129.447 129.414 130.783C129.414 130.783 134.361 131.833 137.544 131.042C139.05 130.667 139.326 129.571 139.326 129.571Z" fill="#F4B784"/>
<path d="M137.538 125.545C137.443 125.511 137.338 125.562 137.304 125.658C137.27 125.754 137.32 125.859 137.416 125.893C137.817 126.035 138.261 126.135 138.741 126.197C139.647 126.315 140.613 126.294 141.535 126.188L141.728 126.164C141.789 126.156 141.849 126.148 141.905 126.14L142.072 126.114C142.109 126.108 142.137 126.103 142.156 126.099C142.255 126.081 142.321 125.984 142.303 125.884C142.284 125.784 142.188 125.718 142.088 125.737L141.931 125.763C141.802 125.783 141.655 125.803 141.493 125.821C140.598 125.924 139.661 125.945 138.788 125.831C138.332 125.772 137.913 125.678 137.538 125.545Z" fill="#DD936F"/>
<path d="M137.299 127.364C137.201 127.336 137.1 127.392 137.072 127.49C137.044 127.588 137.1 127.69 137.198 127.718C138.289 128.032 139.414 128.079 140.42 127.971C140.496 127.962 140.567 127.954 140.63 127.945L140.792 127.92C140.892 127.901 140.958 127.805 140.939 127.705C140.921 127.605 140.825 127.538 140.725 127.557C140.664 127.569 140.546 127.586 140.381 127.604C139.418 127.708 138.338 127.663 137.299 127.364Z" fill="#DD936F"/>
<path d="M139.305 129.387L139.105 129.41L138.859 129.435C138.774 129.444 138.687 129.452 138.598 129.46C138.345 129.483 138.098 129.501 137.866 129.514L137.662 129.524C137.169 129.544 136.803 129.531 136.629 129.48C136.532 129.452 136.43 129.509 136.402 129.607C136.374 129.705 136.43 129.807 136.528 129.835C136.78 129.908 137.247 129.917 137.886 129.882C138.063 129.873 138.249 129.86 138.439 129.844L138.631 129.828C138.766 129.816 138.897 129.803 139.022 129.79L139.349 129.754C139.45 129.742 139.522 129.65 139.509 129.549C139.498 129.458 139.423 129.39 139.335 129.386L139.305 129.387Z" fill="#DD936F"/>
<path fill-rule="evenodd" clip-rule="evenodd" d="M128.21 122.162L127.981 133.775L96.4415 134.123C92.7097 134.05 89.7449 130.955 89.8181 127.21C89.8923 123.467 92.9763 120.491 96.7077 120.565L128.21 122.162Z" fill="#E4EBF7"/>
<path d="M96.7194 120.322C96.5856 120.315 96.4718 120.419 96.4647 120.553C96.4589 120.676 96.5449 120.782 96.6622 120.804L96.695 120.808L128.133 122.396L127.914 133.535L101.044 133.607C100.922 133.608 100.821 133.7 100.805 133.818L100.803 133.851C100.803 133.974 100.894 134.076 101.013 134.092L101.046 134.094L128.152 134.021C128.273 134.021 128.373 133.932 128.391 133.815L128.394 133.782L128.622 122.17C128.624 122.049 128.539 121.947 128.424 121.926L128.392 121.922L96.7194 120.322Z" fill="#A3B5D6"/>
<path d="M123.326 122.716C123.204 122.713 123.101 122.803 123.082 122.921L123.08 122.954L122.886 132.815C122.883 132.949 122.989 133.06 123.123 133.063C123.246 133.065 123.349 132.976 123.367 132.857L123.37 132.824L123.563 122.964C123.566 122.83 123.46 122.719 123.326 122.716Z" fill="#A3B5D6"/>
<path fill-rule="evenodd" clip-rule="evenodd" d="M229.673 163.144C244.868 159.311 260.616 155.498 273.214 152.744C273.214 152.744 282.723 152.24 283.225 160.668C283.718 168.929 273.447 171.382 273.447 171.382L232.184 177.61C232.184 177.61 225.452 178.552 224.327 171.299C223.302 164.683 229.673 163.144 229.673 163.144Z" fill="#597EF7"/>
<path fill-rule="evenodd" clip-rule="evenodd" d="M228.01 202.877C230.757 202.717 232.94 205.083 232.468 207.716C231.924 210.744 231.213 214.839 230.507 219.258C229.781 223.807 229.17 227.575 228.766 228.009C226.984 229.924 223.914 230.313 220.576 231.997C217.935 233.331 217.408 234.063 214.263 234.208C209.805 234.413 212.086 232.896 217.718 227.885C222.736 223.42 222.784 221.016 222.784 221.016L224.018 206.665C224.194 204.614 225.895 203 228.01 202.877Z" fill="#C99382"/>
<path fill-rule="evenodd" clip-rule="evenodd" d="M218.346 226.604C214.724 229.569 210.744 231.763 210.602 233.384C210.46 235.004 211.559 236.633 217.229 235.498C221.109 234.721 220.16 233.808 224.008 232.053C225.93 231.177 226.556 231.383 228.366 230.306C229.463 229.268 229.852 223.561 229.852 223.561L222.725 229.311C222.725 229.311 224.771 226.461 223.545 225.619C222.318 224.776 221.165 224.16 220.308 224.6C219.451 225.04 218.346 226.604 218.346 226.604Z" fill="#7D4556"/>
<path fill-rule="evenodd" clip-rule="evenodd" d="M223.14 171.153C221.754 195.343 220.723 219.055 220.723 219.055L231.15 220.452L239.655 172.498C239.655 172.498 239.531 166.848 231.62 164.757C224.345 162.835 223.14 171.153 223.14 171.153Z" fill="#597EF7"/>
<path fill-rule="evenodd" clip-rule="evenodd" d="M298.697 163.777C297.74 153.935 297.486 148.876 296.35 147.027C271.926 147.705 265.931 148.468 265.931 148.468C265.931 148.468 265.593 150.874 264.467 161.59C264.467 161.59 271.987 174.897 281.691 174.897C290.439 174.897 298.697 163.777 298.697 163.777Z" fill="#597EF7"/>
<path fill-rule="evenodd" clip-rule="evenodd" d="M296.35 147.027L295.888 142.563L265.98 142.912L265.841 147.382C265.841 147.382 281.669 147.974 296.35 147.027Z" fill="#597EF7"/>
<path fill-rule="evenodd" clip-rule="evenodd" d="M245.117 128.391C245.117 128.391 240.762 134.786 246.862 138.562C253.082 142.412 257.229 135.774 257.229 135.774C257.229 135.774 260.337 131.358 263.923 125.896C266.724 121.629 268.891 118.364 270.415 115.467C272.06 112.341 271.281 108.505 268.425 106.737C264.082 104.049 260.611 105.496 258.542 108.354C256.53 111.132 253.934 114.961 251.787 118.071C247.658 124.051 245.117 128.391 245.117 128.391Z" fill="#ADC6FF"/>
<path fill-rule="evenodd" clip-rule="evenodd" d="M220.59 108.715C220.59 108.715 224.512 114.188 227.695 113.677C230.577 113.214 230.467 109.562 230.467 109.562C230.467 109.562 230.047 106.716 228.735 103.773C227.876 101.844 226.807 97.94 225.672 98.1019C224.193 98.3128 225.957 102.13 225.208 102.897C223.69 104.45 220.263 98.7276 219.195 98.0891C217.105 96.8419 215.833 102.186 220.59 108.715Z" fill="#C99382"/>
<path d="M218.503 98.7449C218.462 98.6389 218.34 98.5855 218.231 98.6257C218.121 98.6659 218.066 98.7845 218.108 98.8905C218.492 99.8732 219.058 100.833 219.76 101.756C220.236 102.383 220.747 102.955 221.257 103.462L221.466 103.665C221.566 103.761 221.662 103.85 221.752 103.931L221.898 104.06C221.916 104.076 221.931 104.088 221.943 104.098C222.032 104.172 222.165 104.162 222.241 104.076C222.317 103.99 222.307 103.86 222.218 103.786L222.08 103.667L222.04 103.63C221.895 103.5 221.734 103.347 221.56 103.175C221.062 102.681 220.564 102.122 220.1 101.512C219.42 100.618 218.872 99.6894 218.503 98.7449Z" fill="#9B6160"/>
<path d="M217.742 100.233C217.706 100.125 217.586 100.067 217.475 100.102C217.364 100.138 217.304 100.254 217.341 100.361L217.385 100.481L217.446 100.633C217.469 100.687 217.494 100.745 217.521 100.807C217.676 101.157 217.874 101.55 218.121 101.98C218.824 103.204 219.771 104.472 220.998 105.718C221.079 105.8 221.213 105.803 221.297 105.725C221.381 105.646 221.384 105.516 221.304 105.434C220.103 104.214 219.176 102.974 218.49 101.78C218.251 101.363 218.059 100.982 217.91 100.645L217.824 100.445C217.784 100.349 217.757 100.277 217.742 100.233Z" fill="#9B6160"/>
<path d="M218.139 103.358C218.083 103.259 217.954 103.223 217.852 103.279C217.75 103.334 217.713 103.459 217.77 103.558C218.459 104.755 219.142 105.739 219.791 106.525C219.986 106.762 220.166 106.966 220.329 107.139L220.497 107.312C220.563 107.378 220.612 107.425 220.643 107.453C220.679 107.485 220.725 107.504 220.774 107.506L220.949 107.522C220.966 107.523 220.983 107.525 221.002 107.527C221.187 107.548 221.395 107.578 221.618 107.618C222.256 107.734 222.894 107.912 223.487 108.165C224.454 108.578 225.205 109.148 225.659 109.898C225.718 109.996 225.848 110.029 225.949 109.971C226.049 109.914 226.083 109.788 226.023 109.69C225.519 108.857 224.699 108.234 223.657 107.789C223.031 107.522 222.363 107.335 221.695 107.214C221.509 107.181 221.332 107.154 221.169 107.134L220.993 107.113L220.878 107.102L220.833 107.059L220.717 106.942C220.542 106.76 220.342 106.536 220.121 106.269C219.487 105.5 218.816 104.535 218.139 103.358Z" fill="#9B6160"/>
<path fill-rule="evenodd" clip-rule="evenodd" d="M254.036 127.424C254.036 127.424 259.441 133.287 254.543 137.834C249.492 142.523 244.038 137.132 244.038 137.132C244.038 137.132 240.298 133.246 235.665 128.477C232.837 125.564 229.781 122.289 227.913 119.602C225.89 116.692 227.081 115.111 229.529 112.838C232.438 110.138 233.923 109.31 236.751 111.469C239.446 113.527 242.677 116.734 245.297 119.109C250.291 123.638 254.036 127.424 254.036 127.424Z" fill="#ADC6FF"/>
<path fill-rule="evenodd" clip-rule="evenodd" d="M224.934 113.547L230.597 108.29L234.663 111.628L228.184 117.642L224.934 113.547Z" fill="#ADC6FF"/>
<path d="M225.208 102.692C225.091 102.692 224.997 102.784 224.997 102.898L224.999 103.082L225.006 103.312C225.008 103.392 225.012 103.476 225.016 103.563C225.039 104.061 225.08 104.559 225.144 105.025C225.278 106.004 225.491 106.71 225.824 107.059C225.904 107.142 226.037 107.147 226.123 107.069C226.208 106.992 226.213 106.862 226.134 106.779C225.881 106.515 225.686 105.866 225.563 104.97C225.501 104.518 225.461 104.031 225.438 103.544L225.428 103.298L225.422 103.074C225.42 102.989 225.419 102.929 225.419 102.897C225.419 102.784 225.325 102.692 225.208 102.692Z" fill="#9B6160"/>
<path fill-rule="evenodd" clip-rule="evenodd" d="M287.011 88.5229C287.011 88.5229 291.163 86.0488 289.498 81.6577C291.18 77.7314 288.812 75.4758 288.812 75.4758C288.812 75.4758 288.467 70.4473 285.02 70.3337C282.589 65.279 276.651 67.6005 276.651 67.6005C276.651 67.6005 272.627 64.7251 267.316 69.1966C263.28 69.5368 263.163 67.5882 261.934 69.0079C260.705 70.4281 260.29 73.6309 262.089 74.796C259.164 76.194 262.13 80.6743 262.13 80.6743C262.13 80.6743 261.291 83.3942 264.845 85.2339C268.399 87.0735 270.043 93.3597 275.879 95.0752C281.495 96.7256 287.252 94.7228 287.011 88.5229Z" fill="#7D4556"/>
<path fill-rule="evenodd" clip-rule="evenodd" d="M285.321 98.0687L283.629 89.4658L271.866 91.4954L272.16 99.0858C272.29 102.474 275.273 105.091 278.757 104.876C278.824 104.872 278.89 104.867 278.957 104.863C282.521 104.644 285.756 101.511 285.321 98.0687Z" fill="#C99382"/>
<path fill-rule="evenodd" clip-rule="evenodd" d="M280.452 76.332C280.452 76.332 279.817 79.42 282.275 80.1231C281.928 84.0966 283.69 83.7209 283.69 83.7209C283.69 83.7209 286.46 80.1551 288.46 83.1919C290.361 86.0766 287.239 90.4294 284.262 89.8165C279.462 97.5794 269.591 98.1334 266.23 93.158C264.188 90.134 264.831 85.6753 264.541 83.5904C263.829 78.4675 264.776 76.8953 264.776 76.8953C264.776 76.8953 266.806 77.2786 268.985 75.63C271.39 77.2966 274.758 75.5479 274.758 75.5479C274.758 75.5479 277.09 78.3347 280.452 76.332Z" fill="#C99382"/>
<path d="M287.352 84.2191C287.094 83.8487 286.626 83.685 285.947 83.8262C284.717 84.0819 283.841 85.9157 284.587 86.3128C284.957 86.5096 285.238 86.786 285.32 87.0517C285.411 87.3514 285.257 87.6563 284.756 87.9708C284.652 88.0363 284.622 88.1715 284.689 88.2728C284.756 88.3742 284.896 88.4033 285 88.3378C285.656 87.9263 285.906 87.4326 285.751 86.9272C285.63 86.5331 285.268 86.1767 284.804 85.9296C284.799 85.9274 284.778 85.8677 284.783 85.751C284.789 85.5911 284.844 85.3889 284.94 85.1889C285.168 84.711 285.563 84.3528 286.041 84.2535C286.547 84.1483 286.828 84.2466 286.979 84.4636C287.034 84.5423 287.062 84.6221 287.073 84.6772L287.077 84.707C287.088 84.8272 287.197 84.9162 287.321 84.9059C287.445 84.8955 287.536 84.7896 287.526 84.6694C287.515 84.5489 287.467 84.3848 287.352 84.2191Z" fill="#9B6160"/>
<path d="M285.911 85.4205C285.706 85.4007 285.491 85.4082 285.284 85.4326L285.169 85.448C285.149 85.4512 285.132 85.4542 285.118 85.4567C284.996 85.4797 284.916 85.5944 284.94 85.7128C284.964 85.8312 285.082 85.9086 285.204 85.8856L285.256 85.8771C285.278 85.8738 285.306 85.8701 285.338 85.8664C285.515 85.8455 285.699 85.839 285.867 85.8553C286.198 85.8875 286.369 85.9895 286.39 86.1864L286.392 86.2301C286.391 86.3507 286.492 86.449 286.616 86.4495C286.74 86.45 286.841 86.3526 286.842 86.2319C286.844 85.7264 286.468 85.4746 285.911 85.4205Z" fill="#9B6160"/>
<path fill-rule="evenodd" clip-rule="evenodd" d="M272.657 83.5304C272.845 85.6275 274.747 87.18 276.907 86.9977C279.066 86.8159 280.665 84.9681 280.477 82.871C280.29 80.7738 278.387 79.2214 276.228 79.4037C274.068 79.586 272.47 81.4333 272.657 83.5304Z" fill="white"/>
<path d="M280.753 82.8478C280.954 85.0927 279.242 87.0707 276.93 87.2652C274.618 87.4604 272.582 85.7987 272.382 83.5536C272.181 81.3089 273.892 79.3314 276.204 79.1362C278.515 78.941 280.552 80.6029 280.753 82.8478ZM276.252 79.6713C274.244 79.8408 272.758 81.558 272.933 83.5072C273.107 85.4567 274.875 86.8996 276.883 86.7301C278.89 86.5612 280.376 84.8436 280.202 82.8943C280.031 80.9791 278.32 79.5526 276.357 79.6638L276.252 79.6713Z" fill="#7D4556"/>
<path fill-rule="evenodd" clip-rule="evenodd" d="M263.141 83.9742C263.328 86.0713 265.231 87.6238 267.39 87.4414C269.55 87.2597 271.148 85.4119 270.961 83.3147C270.773 81.2182 268.871 79.6657 266.711 79.8475C264.552 80.0298 262.954 81.877 263.141 83.9742Z" fill="white"/>
<path d="M271.236 83.2921C271.437 85.5369 269.726 87.5149 267.414 87.7095C265.102 87.9047 263.065 86.2428 262.865 83.9979C262.665 81.7531 264.376 79.7756 266.687 79.5804C268.999 79.3859 271.036 81.0477 271.236 83.2921ZM266.735 80.1155C264.728 80.285 263.242 82.0022 263.416 83.9515C263.59 85.9008 265.359 87.3439 267.366 87.1744C269.373 87.0055 270.859 85.2879 270.685 83.3385C270.514 81.4239 268.804 79.9974 266.84 80.1081L266.735 80.1155Z" fill="#7D4556"/>
<path d="M271.691 82.9083C271.582 82.8488 271.445 82.8857 271.384 82.9907L271.324 83.0964C271.277 83.1804 271.224 83.276 271.167 83.3815C271.006 83.6828 270.845 84.0037 270.694 84.331C270.557 84.6278 270.436 84.9159 270.333 85.1905C269.947 86.2309 269.858 86.9843 270.219 87.3875C270.523 87.7275 270.919 87.9278 271.378 88.0083C271.82 88.0856 272.285 88.0489 272.735 87.9417C272.904 87.9015 273.033 87.8607 273.108 87.8322C273.224 87.7883 273.281 87.6616 273.235 87.5492C273.19 87.4368 273.06 87.3814 272.944 87.4253C272.886 87.4472 272.776 87.4821 272.628 87.5174C272.234 87.6113 271.829 87.6432 271.458 87.5783C271.094 87.5146 270.791 87.3611 270.558 87.1009C270.351 86.8691 270.426 86.2267 270.757 85.3389C270.855 85.0752 270.972 84.797 271.104 84.5095C271.251 84.1906 271.409 83.8773 271.567 83.5832L271.671 83.391L271.775 83.2061C271.837 83.1011 271.799 82.9678 271.691 82.9083Z" fill="#9B6160"/>
<path fill-rule="evenodd" clip-rule="evenodd" d="M275.84 88.8076C275.84 88.8076 272.257 89.5142 269.637 89.3302C269.637 89.3302 270.586 91.7792 273.143 91.2601C275.414 90.7987 275.84 88.8076 275.84 88.8076Z" fill="white"/>
<path d="M276.071 88.8545C276.051 88.947 276.005 89.0995 275.924 89.2924C275.791 89.6105 275.605 89.9283 275.358 90.2255C274.841 90.8486 274.126 91.295 273.191 91.4849C271.891 91.7488 270.862 91.3311 270.101 90.4821C269.893 90.2495 269.721 90.001 269.582 89.7523C269.498 89.6018 269.444 89.4829 269.416 89.4111C269.355 89.2544 269.482 89.0893 269.654 89.1014C270.17 89.1376 270.748 89.1404 271.377 89.1133C272.238 89.0763 273.161 88.9854 274.097 88.8571C274.448 88.809 274.782 88.7582 275.093 88.7068L275.591 88.6205L275.793 88.5829C275.959 88.55 276.106 88.6931 276.071 88.8545ZM275.493 89.1046L275.404 89.1202C275.025 89.1855 274.607 89.2507 274.163 89.3116C273.213 89.4418 272.276 89.5341 271.398 89.5719L271.158 89.5809C270.841 89.5909 270.537 89.5932 270.247 89.5871L270.025 89.5804L269.998 89.534C270.121 89.7545 270.274 89.9753 270.458 90.1807C271.114 90.9125 271.976 91.2626 273.094 91.0356C273.919 90.8682 274.539 90.4805 274.99 89.9372C275.176 89.7143 275.322 89.4774 275.434 89.2386L275.493 89.1046Z" fill="#7D4556"/>
<path d="M269.798 78.6753C269.733 78.5657 269.588 78.5285 269.475 78.5921C268.358 79.2222 266.924 79.4789 265.413 79.2092C265.285 79.1862 265.162 79.2687 265.138 79.3934C265.115 79.5181 265.2 79.6377 265.328 79.6606C266.951 79.9504 268.499 79.6734 269.712 78.9891C269.825 78.9254 269.864 78.7849 269.798 78.6753Z" fill="#7D4556"/>
<path d="M272.816 82.0622C272.375 82.028 271.905 82.0275 271.46 82.0837C271.18 82.1192 270.924 82.1761 270.698 82.2582L270.588 82.3013L270.807 82.7943C271.006 82.7107 271.251 82.6518 271.532 82.6164C271.933 82.5657 272.366 82.5661 272.772 82.5976L272.924 82.6111L272.987 82.6183L273.06 82.0858L272.937 82.0725C272.901 82.0692 272.861 82.0657 272.816 82.0622Z" fill="#7D4556"/>
<path d="M268.451 83.453C268.138 82.9612 267.645 82.6771 266.972 82.7337C266.332 82.7875 265.924 83.1372 265.729 83.6619C265.621 83.9517 265.591 84.2463 265.604 84.4955L265.606 84.5345C265.619 84.6822 265.753 84.7916 265.906 84.7787C266.045 84.7669 266.151 84.6565 266.158 84.5244L266.156 84.47C266.147 84.2854 266.17 84.0565 266.249 83.8444C266.375 83.5049 266.611 83.3032 267.02 83.2688C267.468 83.2311 267.77 83.4052 267.98 83.7354C268.051 83.846 268.105 83.9664 268.144 84.0869L268.167 84.163C268.176 84.1962 268.181 84.2215 268.184 84.2368C268.209 84.3831 268.351 84.4822 268.502 84.4581C268.653 84.4339 268.755 84.2957 268.73 84.1494C268.699 83.9681 268.616 83.7123 268.451 83.453Z" fill="#7D4556"/>
<path d="M277.857 82.6601C277.544 82.1681 277.052 81.8839 276.379 81.9408C275.738 81.9946 275.33 82.3443 275.135 82.869C275.04 83.1225 275.006 83.3798 275.007 83.6071L275.012 83.7416C275.026 83.8893 275.16 83.9987 275.312 83.9858C275.451 83.974 275.558 83.8636 275.564 83.7315L275.562 83.6771C275.553 83.4925 275.576 83.2636 275.655 83.0515C275.781 82.712 276.017 82.5103 276.426 82.4759C276.875 82.438 277.176 82.6121 277.386 82.9424C277.457 83.053 277.511 83.1734 277.55 83.2939L277.573 83.3701C277.582 83.4033 277.588 83.4286 277.59 83.4439C277.615 83.5902 277.757 83.6893 277.908 83.6652C278.059 83.6411 278.161 83.5029 278.136 83.3565C278.105 83.1753 278.022 82.9194 277.857 82.6601Z" fill="#7D4556"/>
<path d="M280.476 82.8711L284.341 82.5449" stroke="#7D4556" stroke-width="1.383"/>
<path d="M274.004 78.09C273.883 78.0426 273.745 78.0994 273.696 78.217C273.648 78.3346 273.706 78.4683 273.827 78.5157C274.301 78.7013 274.852 78.8293 275.466 78.9073C276.376 79.0232 277.343 79.023 278.25 78.9536L278.439 78.9379L278.739 78.9067C278.868 78.8902 278.959 78.7749 278.942 78.6492C278.925 78.5236 278.807 78.4351 278.677 78.4516L278.556 78.4652C278.456 78.4757 278.341 78.4862 278.213 78.496C277.336 78.5631 276.4 78.5632 275.527 78.4522C274.951 78.3788 274.437 78.2596 274.004 78.09Z" fill="#7D4556"/>
<path d="M273.338 93.6291C273.214 93.6347 273.118 93.7369 273.124 93.8574L273.131 93.9606C273.137 94.0406 273.145 94.1295 273.155 94.2252C273.185 94.4991 273.23 94.7733 273.29 95.0309C273.435 95.6431 273.648 96.0728 273.984 96.252C274.093 96.31 274.23 96.2713 274.29 96.1655C274.343 96.0715 274.317 95.9561 274.234 95.8909L274.201 95.8689C274.015 95.7698 273.846 95.4298 273.729 94.933C273.672 94.6942 273.631 94.4366 273.602 94.1786L273.59 94.055C273.581 93.9597 273.575 93.885 273.573 93.8373C273.567 93.7168 273.462 93.6236 273.338 93.6291Z" fill="#9B6160"/>
<path d="M272.555 94.3784C272.431 94.3797 272.331 94.4784 272.332 94.5991L272.336 94.7314C272.338 94.786 272.341 94.8505 272.345 94.9229C272.359 95.1643 272.383 95.4059 272.419 95.6328C272.455 95.8663 272.503 96.0716 272.563 96.2425C272.603 96.3566 272.731 96.4173 272.848 96.3781C272.966 96.3388 273.028 96.2145 272.988 96.1004C272.937 95.9577 272.896 95.7766 272.863 95.5669C272.838 95.408 272.819 95.2397 272.805 95.069L272.793 94.8978C272.785 94.7604 272.782 94.6541 272.781 94.5947C272.78 94.474 272.679 94.3772 272.555 94.3784Z" fill="#9B6160"/>
<path d="M274.657 94.6769C274.621 94.5615 274.495 94.4967 274.377 94.5321C274.258 94.5675 274.191 94.6897 274.228 94.8051L274.264 94.9121C274.274 94.942 274.287 94.9758 274.301 95.0128C274.359 95.1667 274.425 95.3207 274.497 95.4656C274.672 95.8154 274.857 96.0599 275.079 96.1648C275.191 96.2176 275.325 96.1724 275.38 96.0639C275.429 95.9662 275.396 95.8506 275.307 95.79L275.276 95.7719C275.173 95.7232 275.035 95.5406 274.902 95.2744C274.836 95.1441 274.776 95.0033 274.723 94.8623L274.676 94.7333C274.668 94.7102 274.662 94.6912 274.657 94.6769Z" fill="#9B6160"/>
<path d="M271.869 94.2137C271.759 94.1981 271.655 94.2635 271.623 94.3638L271.615 94.3985L271.419 95.7045C271.402 95.8239 271.487 95.9348 271.609 95.9521C271.72 95.9678 271.823 95.9023 271.856 95.8021L271.864 95.7674L272.059 94.4613C272.077 94.3419 271.992 94.2311 271.869 94.2137Z" fill="#9B6160"/>
<path d="M279.904 94.1768C279.835 94.0759 279.696 94.0478 279.592 94.1139C279.255 94.3287 278.907 94.5239 278.55 94.7003C276.377 95.7725 274.099 96.0785 272.149 95.9506L271.961 95.9369C271.8 95.9239 271.689 95.911 271.632 95.9028C271.509 95.8848 271.395 95.9669 271.376 96.0862C271.358 96.2055 271.442 96.3168 271.565 96.3348L271.635 96.344C271.705 96.3524 271.802 96.3624 271.924 96.3723C273.99 96.539 276.425 96.2388 278.753 95.0899C279.126 94.9062 279.488 94.703 279.839 94.4793C279.943 94.4131 279.972 94.2777 279.904 94.1768Z" fill="#9B6160"/>
<path d="M274.973 87.2837C274.937 87.3995 275.006 87.5209 275.125 87.555L275.237 87.5896C275.298 87.6095 275.375 87.6356 275.462 87.6674C275.719 87.7605 275.975 87.8694 276.212 87.9925C276.914 88.356 277.286 88.7542 277.213 89.1396C277.191 89.2583 277.272 89.372 277.395 89.3936C277.517 89.4152 277.634 89.3365 277.656 89.2178C277.776 88.5796 277.283 88.052 276.424 87.607C276.167 87.474 275.894 87.3576 275.62 87.2582L275.439 87.1948L275.252 87.1359C275.133 87.1018 275.008 87.168 274.973 87.2837Z" fill="#9B6160"/>
<path fill-rule="evenodd" clip-rule="evenodd" d="M285.954 98.3872L287.812 101.504C287.812 101.504 294.982 101.832 299.035 104.62C302.701 107.142 296.858 130.475 295.657 138.408C297.008 147.921 293.742 148.249 293.742 148.249L266.043 148.468C266.043 148.468 262.215 147.593 265.892 141.832C265.789 136.429 257.71 111.684 259.513 107.244C260.563 104.658 270.793 102.139 270.793 102.139L271.386 99.5459C271.386 99.5459 276.055 99.0956 285.954 98.3872Z" fill="#ADC6FF"/>
<path d="M261.309 114.128C261.182 114.131 261.081 114.234 261.084 114.357C261.149 117.146 261.579 120.758 262.304 125.001C262.643 126.987 263.041 129.073 263.486 131.226C263.964 133.544 264.474 135.829 264.987 138.001L265.27 139.189C265.376 139.629 265.478 140.044 265.574 140.432L265.862 141.581L265.771 141.677L265.66 141.799C265.442 142.044 265.224 142.322 265.02 142.627C264.036 144.104 263.728 145.649 264.529 147.103C264.83 147.649 265.283 148.164 265.899 148.642C265.998 148.719 266.143 148.704 266.222 148.607C266.302 148.511 266.286 148.37 266.187 148.293C265.618 147.851 265.205 147.383 264.935 146.892C264.228 145.609 264.504 144.224 265.407 142.87C265.598 142.583 265.803 142.321 266.008 142.091L266.106 141.983C266.181 141.903 266.239 141.844 266.276 141.809C266.336 141.754 266.36 141.672 266.34 141.594L266.133 140.779L265.904 139.85C265.824 139.523 265.74 139.18 265.654 138.821L265.589 138.548C265.026 136.189 264.462 133.683 263.937 131.138C263.493 128.99 263.096 126.909 262.758 124.928L262.637 124.21C261.988 120.296 261.605 116.952 261.544 114.347C261.541 114.224 261.436 114.126 261.309 114.128Z" fill="#597EF7"/>
<path d="M284.633 101.777C281.611 102.349 278.562 102.765 275.639 103.049L275.037 103.106C274.445 103.16 273.886 103.205 273.365 103.244L272.716 103.289L271.831 103.339C271.704 103.345 271.606 103.449 271.611 103.572C271.617 103.696 271.725 103.791 271.851 103.786L272.122 103.772L272.61 103.743L272.889 103.725C273.719 103.669 274.658 103.593 275.685 103.493C278.621 103.208 281.684 102.791 284.721 102.215C284.846 102.192 284.927 102.074 284.903 101.953C284.881 101.844 284.781 101.769 284.67 101.773L284.633 101.777Z" fill="#597EF7"/>
<path fill-rule="evenodd" clip-rule="evenodd" d="M254.932 206.711C257.874 206.127 260.608 208.357 260.515 211.272C260.41 214.624 260.29 219.155 260.229 224.035C260.167 229.058 260.105 233.22 259.737 233.751C258.116 236.086 254.861 236.965 251.522 239.285C248.88 241.121 248.426 241.991 245.052 242.618C240.269 243.507 242.492 241.527 247.781 235.27C252.494 229.695 252.164 227.09 252.164 227.09L251.22 211.402C251.085 209.16 252.666 207.161 254.932 206.711Z" fill="#C99382"/>
<path fill-rule="evenodd" clip-rule="evenodd" d="M248.254 233.792C244.812 237.538 240.861 240.503 240.964 242.276C241.067 244.048 242.513 245.643 248.459 243.568C252.527 242.149 251.358 241.304 255.237 238.832C257.174 237.597 257.883 237.726 259.667 236.292C260.688 235.005 260.201 228.782 260.201 228.782L253.416 236.061C253.416 236.061 255.173 232.676 253.714 231.949C252.256 231.223 250.912 230.73 250.056 231.334C249.2 231.937 248.254 233.792 248.254 233.792Z" fill="#7D4556"/>
<path fill-rule="evenodd" clip-rule="evenodd" d="M244.925 172.81C247.246 199.154 249.874 224.929 249.874 224.929L261.361 224.886L262.983 171.806C262.983 171.806 261.995 163.919 253.079 164.638C245.034 165.285 244.925 172.81 244.925 172.81Z" fill="#597EF7"/>
<path fill-rule="evenodd" clip-rule="evenodd" d="M249.725 164.578C262.139 160.109 277.99 156.859 289.473 154.591C289.473 154.591 298.088 155.707 298.67 163.929C299.241 171.987 289.882 174.038 289.882 174.038L252.232 178.745C252.232 178.745 246.089 179.441 244.954 172.342C243.919 165.867 249.725 164.578 249.725 164.578Z" fill="#597EF7"/>
<path fill-rule="evenodd" clip-rule="evenodd" d="M292.578 138.359C292.578 138.359 294.103 146.379 301.644 144.897C309.334 143.386 307.463 135.331 307.463 135.331C307.463 135.331 307.197 130.217 305.791 123.465C304.692 118.19 303.159 111.311 302.124 108C301.008 104.427 297.238 102.433 293.707 103.127C288.339 104.181 287.038 108.641 287.626 112.312C288.197 115.882 289.121 121.757 289.84 125.677C291.224 133.216 292.578 138.359 292.578 138.359Z" fill="#ADC6FF"/>
<path fill-rule="evenodd" clip-rule="evenodd" d="M292.953 139.766C292.953 139.766 292.688 131.401 299.88 130.957C307.296 130.5 307.934 138.514 307.934 138.514C307.934 138.514 308.238 144.163 308.645 151.125C308.894 155.375 309.071 160.073 308.696 163.503C308.291 167.215 306.208 167.71 302.612 167.932C298.342 168.195 296.549 167.882 295.77 164.245C295.028 160.777 294.66 156.019 294.202 152.344C293.331 145.337 292.953 139.766 292.953 139.766Z" fill="#ADC6FF"/>
<path fill-rule="evenodd" clip-rule="evenodd" d="M306.626 170.737L298.311 171.25L297.356 165.831L306.868 165.244L306.626 170.737Z" fill="#ADC6FF"/>
<path d="M295.601 106.043C293.317 106.598 291.411 108.503 289.847 111.325C289.195 112.502 288.646 113.761 288.197 115.02C288.067 115.387 287.952 115.732 287.854 116.05L287.797 116.237C287.758 116.366 287.725 116.481 287.698 116.58L287.664 116.703C287.657 116.732 287.655 116.762 287.66 116.792L287.716 117.128C288.402 121.131 291.879 138.14 292.36 139.918L292.384 140.001L292.385 140.114L292.569 141.951C292.62 142.443 292.675 142.972 292.735 143.535L292.913 145.175C293.138 147.211 293.388 149.366 293.664 151.601L293.783 152.575C293.87 153.311 293.954 154.132 294.062 155.278L294.323 158.068L294.423 159.08C294.671 161.509 294.902 163.196 295.206 164.618C295.59 166.413 296.233 167.458 297.316 168.015L297.4 168.056L297.971 171.288C297.988 171.388 298.072 171.462 298.173 171.473L298.212 171.473L306.527 170.96C306.632 170.954 306.717 170.88 306.738 170.784L306.742 170.747L306.892 167.365C307.826 166.688 308.365 165.627 308.567 164.017L308.587 163.854C308.6 163.731 308.508 163.621 308.382 163.608C308.256 163.595 308.142 163.684 308.129 163.807C307.95 165.445 307.437 166.452 306.535 167.064C306.488 167.096 306.455 167.143 306.443 167.197L306.437 167.238L306.292 170.527L298.389 171.014L297.834 167.866C297.823 167.806 297.787 167.752 297.735 167.719L297.702 167.701C296.684 167.253 296.073 166.356 295.691 164.682L295.657 164.527C295.346 163.077 295.112 161.337 294.856 158.789L294.696 157.127L294.485 154.865C294.387 153.845 294.309 153.092 294.226 152.401L294.046 150.941C293.8 148.925 293.575 146.977 293.371 145.127L293.193 143.489C293.113 142.738 293.041 142.049 292.978 141.429L292.844 140.073L292.843 139.966L292.83 139.892L292.809 139.823C292.395 138.368 288.789 120.732 288.151 116.942L288.122 116.768L288.186 116.54C288.202 116.485 288.22 116.425 288.239 116.362C288.347 116.001 288.478 115.599 288.632 115.166C289.073 113.928 289.612 112.691 290.252 111.537C291.761 108.815 293.582 106.994 295.712 106.477C295.835 106.447 295.91 106.326 295.879 106.206C295.852 106.098 295.748 106.028 295.637 106.037L295.601 106.043Z" fill="#597EF7"/>
<path d="M292.087 148.031L266.6 148.796C266.476 148.8 266.378 148.901 266.382 149.021C266.385 149.13 266.47 149.217 266.577 149.231L266.614 149.233L292.101 148.467C292.225 148.464 292.323 148.363 292.319 148.242C292.316 148.134 292.231 148.046 292.124 148.033L292.087 148.031Z" fill="#253368"/>
<path d="M292.154 152.514L265.581 153.936C265.457 153.942 265.362 154.045 265.369 154.166C265.375 154.274 265.461 154.36 265.569 154.371L265.606 154.372L292.179 152.95C292.303 152.944 292.398 152.841 292.391 152.72C292.385 152.612 292.299 152.526 292.191 152.515L292.154 152.514Z" fill="#253368"/>
<path d="M273.316 156.565L272.731 156.688C272.542 156.728 272.336 156.773 272.113 156.822L271.526 156.952C270.728 157.131 269.863 157.331 268.945 157.552C265.668 158.34 262.392 159.223 259.332 160.18L258.594 160.414C250.735 162.934 245.861 165.486 245.274 168.048C244.707 170.528 245.3 180.72 246.722 196.254L246.873 197.894C247.027 199.548 247.188 201.243 247.356 202.971C247.767 207.192 248.201 211.459 248.64 215.624L249.013 219.129L249.649 224.953C249.661 225.052 249.738 225.129 249.836 225.145L249.874 225.148L261.361 225.105C261.486 225.105 261.586 225.007 261.585 224.886C261.585 224.778 261.503 224.688 261.396 224.671L261.36 224.669L250.075 224.71L249.689 221.2C249.591 220.3 249.488 219.344 249.38 218.339L249.087 215.58C248.698 211.878 248.311 208.097 247.942 204.338L247.804 202.93C247.636 201.202 247.475 199.509 247.321 197.855L247.004 194.387C245.711 179.969 245.184 170.457 245.714 168.143C246.265 165.734 251.369 163.132 259.47 160.596C262.519 159.642 265.786 158.762 269.053 157.976L269.729 157.815C270.395 157.658 271.03 157.512 271.627 157.378L272.683 157.146L273.408 156.992C273.53 156.967 273.608 156.852 273.582 156.734C273.559 156.627 273.46 156.555 273.352 156.56L273.316 156.565Z" fill="#253368"/>
<path fill-rule="evenodd" clip-rule="evenodd" d="M77.9223 252.539C76.2808 252.539 74.9874 251.649 75.1152 250.608L85.8008 163.517H96.0406L80.9564 250.943C80.7994 251.851 79.5936 252.539 78.1574 252.539" fill="#FFC53D"/>
<path fill-rule="evenodd" clip-rule="evenodd" d="M313.837 252.539C315.479 252.539 316.772 251.649 316.644 250.609L305.959 163.517H295.719L310.803 250.943C310.96 251.851 312.166 252.539 313.602 252.539" fill="#FFC53D"/>
<path fill-rule="evenodd" clip-rule="evenodd" d="M312.014 163.516H79.7441C78.9008 163.516 78.1118 163.252 77.6345 162.811C76.4668 161.73 77.6828 160.259 79.7441 160.259H312.014C314.075 160.259 315.291 161.73 314.123 162.811C313.646 163.252 312.857 163.516 312.014 163.516Z" fill="#FFC53D"/>
<path fill-rule="evenodd" clip-rule="evenodd" d="M306.299 165.688H85.46L85.801 163.517H305.958L306.299 165.688Z" fill="#D48806"/>
<path d="M225.57 49.1438C238.205 49.1438 248.448 38.9128 248.448 26.2922C248.448 13.6716 238.205 3.44058 225.57 3.44058C212.935 3.44058 202.692 13.6716 202.692 26.2922C202.692 38.9128 212.935 49.1438 225.57 49.1438Z" fill="#597EF7"/>
<path d="M225.571 47.5116C237.303 47.5116 246.814 38.0113 246.814 26.2922C246.814 14.5731 237.303 5.07285 225.571 5.07285C213.838 5.07285 204.327 14.5731 204.327 26.2922C204.327 38.0113 213.838 47.5116 225.571 47.5116Z" fill="#A3B5D6"/>
<path d="M225.57 46.7464C236.88 46.7464 246.048 37.5887 246.048 26.2922C246.048 14.9956 236.88 5.83795 225.57 5.83795C214.261 5.83795 205.093 14.9956 205.093 26.2922C205.093 37.5887 214.261 46.7464 225.57 46.7464Z" fill="white"/>
<path d="M225.57 13.2811C226.021 13.2811 226.386 13.6465 226.386 14.0972V25.6939H224.753V14.0972C224.753 13.6465 225.119 13.2811 225.57 13.2811Z" fill="#253368"/>
<path d="M233.89 26.2922C233.89 26.743 233.524 27.1084 233.073 27.1084H225.57V25.4761H233.073C233.524 25.4761 233.89 25.8415 233.89 26.2922Z" fill="#253368"/>
<path d="M225.57 28.1795C226.614 28.1795 227.46 27.3346 227.46 26.2922C227.46 25.2499 226.614 24.4049 225.57 24.4049C224.527 24.4049 223.681 25.2499 223.681 26.2922C223.681 27.3346 224.527 28.1795 225.57 28.1795Z" fill="#FF7946"/>
<path d="M226.384 9.15347C226.384 8.70274 226.019 8.33734 225.568 8.33734C225.117 8.33734 224.751 8.70274 224.751 9.15347V10.7857C224.751 11.2365 225.117 11.6019 225.568 11.6019C226.019 11.6019 226.384 11.2365 226.384 10.7857V9.15347Z" fill="#E4EBF7"/>
<path d="M212.858 13.5974C213.177 13.2787 213.694 13.2787 214.013 13.5974L215.168 14.7512C215.487 15.0698 215.487 15.5864 215.168 15.9051C214.849 16.2237 214.332 16.2237 214.013 15.9051L212.858 14.7512C212.539 14.4326 212.539 13.916 212.858 13.5974Z" fill="#E4EBF7"/>
<path d="M207.595 26.2942C207.595 25.8435 207.961 25.4781 208.412 25.4781H210.046C210.497 25.4781 210.863 25.8435 210.863 26.2942C210.863 26.745 210.497 27.1104 210.046 27.1104H208.412C207.961 27.1104 207.595 26.745 207.595 26.2942Z" fill="#E4EBF7"/>
<path d="M212.861 38.99C212.542 38.6714 212.542 38.1548 212.861 37.8362L214.016 36.6823C214.335 36.3637 214.852 36.3637 215.171 36.6823C215.49 37.001 215.49 37.5176 215.171 37.8362L214.016 38.99C213.697 39.3087 213.18 39.3087 212.861 38.99Z" fill="#E4EBF7"/>
<path d="M224.756 43.4309C224.756 43.8816 225.122 44.247 225.573 44.247C226.024 44.247 226.39 43.8816 226.39 43.4309V41.7986C226.39 41.3479 226.024 40.9825 225.573 40.9825C225.122 40.9825 224.756 41.3479 224.756 41.7986V43.4309Z" fill="#E4EBF7"/>
<path d="M238.283 38.9865C237.964 39.3052 237.447 39.3052 237.128 38.9865L235.972 37.8327C235.653 37.5141 235.653 36.9975 235.972 36.6788C236.291 36.3602 236.809 36.3602 237.128 36.6788L238.283 37.8327C238.602 38.1513 238.602 38.6679 238.283 38.9865Z" fill="#E4EBF7"/>
<path d="M243.546 26.2902C243.546 26.7409 243.18 27.1063 242.729 27.1063H241.095C240.643 27.1063 240.278 26.7409 240.278 26.2902C240.278 25.8394 240.643 25.474 241.095 25.474H242.729C243.18 25.474 243.546 25.8394 243.546 26.2902Z" fill="#E4EBF7"/>
<path d="M238.28 13.5948C238.599 13.9135 238.599 14.4301 238.28 14.7487L237.125 15.9025C236.806 16.2212 236.288 16.2212 235.969 15.9025C235.65 15.5839 235.65 15.0673 235.969 14.7487L237.125 13.5948C237.444 13.2762 237.961 13.2762 238.28 13.5948Z" fill="#E4EBF7"/>
<path d="M240.031 146.912H231.652L231.765 146.056C231.802 145.776 232.041 145.567 232.324 145.567H239.36C239.643 145.567 239.881 145.776 239.918 146.056L240.031 146.912Z" fill="#465A61"/>
<path d="M238.931 146.912H231.652L231.765 146.056C231.802 145.776 232.041 145.567 232.324 145.567H238.26C238.542 145.567 238.781 145.776 238.818 146.056L238.931 146.912Z" fill="#596C76"/>
<path d="M240.553 149.379H231.13C230.887 149.379 230.697 149.171 230.718 148.929L230.86 147.339C230.881 147.098 231.084 146.913 231.326 146.913H240.357C240.599 146.913 240.802 147.098 240.823 147.339L240.964 148.929C240.986 149.171 240.795 149.379 240.553 149.379Z" fill="#465A61"/>
<path d="M239.904 149.379H231.13C230.887 149.379 230.697 149.171 230.718 148.929L230.86 147.339C230.881 147.098 231.084 146.913 231.326 146.913H239.256C239.499 146.913 239.701 147.098 239.723 147.339L239.904 149.379Z" fill="#596C76"/>
<path d="M240.508 149.378L239.37 159.802C239.342 160.062 239.122 160.26 238.859 160.26H232.821C232.559 160.26 232.339 160.062 232.31 159.802L231.172 149.378H240.508Z" fill="#CFCFCF"/>
<path d="M239.427 149.378L238.289 159.802C238.261 160.062 238.04 160.26 237.778 160.26H232.821C232.559 160.26 232.339 160.062 232.31 159.802L231.172 149.378H239.427Z" fill="#E9E9E9"/>
<path d="M240.291 151.379L239.679 156.973L239.584 157.847H232.097L232.002 156.973L231.391 151.379H240.291Z" fill="#044256"/>
<path d="M239.209 151.379L238.598 156.973L238.503 157.847H232.097L232.002 156.973L231.391 151.379H239.209Z" fill="#066684"/>
<path d="M178.871 146.912H170.492L170.605 146.056C170.642 145.776 170.881 145.567 171.163 145.567H178.2C178.482 145.567 178.721 145.776 178.758 146.056L178.871 146.912Z" fill="#465A61"/>
<path d="M177.771 146.912H170.492L170.605 146.056C170.642 145.776 170.881 145.567 171.163 145.567H177.099C177.382 145.567 177.621 145.776 177.658 146.056L177.771 146.912Z" fill="#596C76"/>
<path d="M179.393 149.379H169.971C169.728 149.379 169.538 149.171 169.559 148.929L169.701 147.339C169.722 147.098 169.924 146.913 170.167 146.913H179.197C179.44 146.913 179.642 147.098 179.664 147.339L179.805 148.929C179.826 149.171 179.636 149.379 179.393 149.379Z" fill="#465A61"/>
<path d="M178.745 149.379H169.971C169.728 149.379 169.538 149.171 169.559 148.929L169.701 147.339C169.722 147.098 169.924 146.913 170.167 146.913H178.097C178.34 146.913 178.542 147.098 178.564 147.339L178.745 149.379Z" fill="#596C76"/>
<path d="M179.349 149.378L178.211 159.802C178.182 160.062 177.962 160.26 177.7 160.26H171.662C171.4 160.26 171.18 160.062 171.151 159.802L170.013 149.378H179.349Z" fill="#CFCFCF"/>
<path d="M178.268 149.378L177.13 159.802C177.101 160.062 176.881 160.26 176.619 160.26H171.662C171.4 160.26 171.18 160.062 171.151 159.802L170.013 149.378H178.268Z" fill="#E9E9E9"/>
<path d="M179.132 151.379L178.52 156.973L178.425 157.847H170.938L170.843 156.973L170.231 151.379H179.132Z" fill="#044256"/>
<path d="M178.05 151.379L177.439 156.973L177.344 157.847H170.938L170.843 156.973L170.231 151.379H178.05Z" fill="#066684"/>
</svg>
