<svg width="374" height="255" viewBox="0 0 374 255" fill="none" xmlns="http://www.w3.org/2000/svg">
<ellipse cx="187.246" cy="233.5" rx="186.713" ry="21.5" fill="#F7F7F7"/>
<g opacity="0.25">
<path d="M179.327 57.5913H173.305C172.64 57.5913 172.101 58.1299 172.101 58.7943C172.101 59.4586 172.64 59.9972 173.305 59.9972H179.327C179.992 59.9972 180.531 59.4586 180.531 58.7943C180.531 58.1299 179.992 57.5913 179.327 57.5913Z" fill="#CCD7EE"/>
<path d="M142.475 38.1938L163.068 58.7636H244.046V88.7747" stroke="#CCD7EE" stroke-width="1.14048"/>
<path d="M245.262 68.4178C245.262 67.7534 244.723 67.2148 244.058 67.2148C243.393 67.2148 242.854 67.7534 242.854 68.4178C242.854 69.0822 243.393 69.6207 244.058 69.6207C244.723 69.6207 245.262 69.0822 245.262 68.4178Z" fill="#023861"/>
<path d="M245.262 58.7943C245.262 58.1299 244.723 57.5913 244.058 57.5913C243.393 57.5913 242.854 58.1299 242.854 58.7943C242.854 59.4586 243.393 59.9972 244.058 59.9972C244.723 59.9972 245.262 59.4586 245.262 58.7943Z" fill="#CCD7EE"/>
<path d="M164.272 58.7943C164.272 58.1299 163.733 57.5913 163.068 57.5913C162.402 57.5913 161.863 58.1299 161.863 58.7943C161.863 59.4586 162.402 59.9972 163.068 59.9972C163.733 59.9972 164.272 59.4586 164.272 58.7943Z" fill="#56CCF2"/>
<path d="M184.445 58.7943C184.445 58.1299 183.906 57.5913 183.24 57.5913C182.575 57.5913 182.036 58.1299 182.036 58.7943C182.036 59.4586 182.575 59.9972 183.24 59.9972C183.906 59.9972 184.445 59.4586 184.445 58.7943Z" fill="#023861"/>
<path d="M285.039 24.0728V45.6902L275.353 55.3658V107.739H263.027" stroke="#CCD7EE" stroke-width="1.14048"/>
<path d="M276.576 107.513C276.576 106.849 276.036 106.311 275.371 106.311C274.706 106.311 274.167 106.849 274.167 107.513C274.167 108.178 274.706 108.716 275.371 108.716C276.036 108.716 276.576 108.178 276.576 107.513Z" fill="#CCD7EE"/>
<path d="M275.37 55.4859V17.0342" stroke="#CCD7EE" stroke-width="1.14048"/>
<path d="M276.576 55.4857C276.576 54.8213 276.036 54.2827 275.371 54.2827C274.706 54.2827 274.167 54.8213 274.167 55.4857C274.167 56.15 274.706 56.6886 275.371 56.6886C276.036 56.6886 276.576 56.15 276.576 55.4857Z" fill="#CCD7EE"/>
<path d="M276.576 70.8236C276.576 70.1592 276.036 69.6206 275.371 69.6206C274.706 69.6206 274.167 70.1592 274.167 70.8236C274.167 71.4879 274.706 72.0265 275.371 72.0265C276.036 72.0265 276.576 71.4879 276.576 70.8236Z" fill="#56CCF2"/>
<path d="M276.576 89.2445C276.576 88.5801 276.036 88.0415 275.371 88.0415C274.706 88.0415 274.167 88.5801 274.167 89.2445C274.167 89.9088 274.706 90.4474 275.371 90.4474C276.036 90.4474 276.576 89.9088 276.576 89.2445Z" fill="#56CCF2"/>
<path d="M281.392 121.347C281.392 120.683 280.853 120.145 280.188 120.145C279.523 120.145 278.983 120.683 278.983 121.347C278.983 122.012 279.523 122.55 280.188 122.55C280.853 122.55 281.392 122.012 281.392 121.347Z" fill="#CCD7EE"/>
<path d="M169.761 130.412L162.721 137.444H111.281" stroke="#E4EBF7" stroke-width="1.14048"/>
<path d="M163.669 137.63C163.669 136.965 163.13 136.427 162.465 136.427C161.8 136.427 161.261 136.965 161.261 137.63C161.261 138.294 161.8 138.833 162.465 138.833C163.13 138.833 163.669 138.294 163.669 137.63Z" fill="#56CCF2"/>
<path d="M220.273 120.488C220.273 119.823 219.734 119.285 219.069 119.285C218.403 119.285 217.864 119.823 217.864 120.488C217.864 121.152 218.403 121.691 219.069 121.691C219.734 121.691 220.273 121.152 220.273 120.488Z" fill="#CCD7EE"/>
<path d="M276.576 45.5613C276.576 44.897 276.036 44.3584 275.371 44.3584C274.706 44.3584 274.167 44.897 274.167 45.5613C274.167 46.2257 274.706 46.7643 275.371 46.7643C276.036 46.7643 276.576 46.2257 276.576 45.5613Z" fill="#56CCF2"/>
<path d="M276.274 31.4271C276.274 30.9288 275.87 30.5249 275.371 30.5249C274.872 30.5249 274.468 30.9288 274.468 31.4271V41.9529C274.468 42.4512 274.872 42.8551 275.371 42.8551C275.87 42.8551 276.274 42.4512 276.274 41.9529V31.4271Z" fill="#56CCF2"/>
<path d="M276.274 79.1092C276.274 78.611 275.87 78.207 275.371 78.207C274.872 78.207 274.468 78.611 274.468 79.1092V81.7475C274.468 82.2458 274.872 82.6497 275.371 82.6497C275.87 82.6497 276.274 82.2458 276.274 81.7475V79.1092Z" fill="#56CCF2"/>
<path d="M276.575 70.9736H288.618" stroke="#E4EBF7" stroke-width="1.14048" stroke-linecap="square"/>
<path d="M262.726 121.348L327.308 121.498" stroke="#E4EBF7" stroke-width="1.14048" stroke-linecap="square"/>
<path d="M280.188 121.498L287.425 128.726H310.297" stroke="#E4EBF7" stroke-width="1.14048"/>
<path d="M227.686 120.527H219.155L216.207 123.472" stroke="#E4EBF7" stroke-width="1.14048"/>
<path d="M204.317 57.5913H188.36C187.694 57.5913 187.155 58.1299 187.155 58.7943C187.155 59.4586 187.694 59.9972 188.36 59.9972H204.317C204.982 59.9972 205.521 59.4586 205.521 58.7943C205.521 58.1299 204.982 57.5913 204.317 57.5913Z" fill="#56CCF2"/>
<path fill-rule="evenodd" clip-rule="evenodd" d="M239.236 146.382H238.465C237.406 146.382 236.539 145.518 236.539 144.462V129.104C236.539 128.048 237.406 127.185 238.465 127.185H239.236C240.295 127.185 241.162 128.048 241.162 129.104V144.462C241.162 145.518 240.295 146.382 239.236 146.382Z" fill="#253368"/>
<path fill-rule="evenodd" clip-rule="evenodd" d="M262.127 146.956C262.127 148.228 261.093 149.259 259.816 149.259H218.208C216.931 149.259 215.896 148.228 215.896 146.956C215.896 145.684 216.931 144.652 218.208 144.652H259.816C261.093 144.652 262.127 145.684 262.127 146.956Z" fill="#253368"/>
<path fill-rule="evenodd" clip-rule="evenodd" d="M232.278 150.848C231.643 150.848 231.123 150.329 231.123 149.696V144.216C231.123 143.583 231.643 143.064 232.278 143.064H245.425C246.06 143.064 246.58 143.583 246.58 144.216V149.696C246.58 150.329 246.06 150.848 245.425 150.848H232.278Z" fill="#A3B5D6"/>
<path d="M233.042 144.199V149.713" stroke="#4E5C93" stroke-width="6" stroke-linecap="round" stroke-linejoin="round"/>
<path d="M244.469 144.199V149.713" stroke="#4E5C93" stroke-width="6" stroke-linecap="round" stroke-linejoin="round"/>
<path fill-rule="evenodd" clip-rule="evenodd" d="M217.341 136.077H260.686V85.6167H217.341V136.077Z" fill="#4E5C93"/>
<path fill-rule="evenodd" clip-rule="evenodd" d="M217.147 136.512C216.061 136.512 215.174 135.628 215.174 134.547V122.927C215.174 121.846 216.061 120.961 217.147 120.961H260.881C261.966 120.961 262.854 121.846 262.854 122.927V134.547C262.854 135.628 261.966 136.512 260.881 136.512H217.147Z" fill="#A3B5D6"/>
<path fill-rule="evenodd" clip-rule="evenodd" d="M217.147 100.206C216.061 100.206 215.174 99.3217 215.174 98.2403V86.6208C215.174 85.5398 216.061 84.6548 217.147 84.6548H260.881C261.966 84.6548 262.854 85.5398 262.854 86.6208V98.2403C262.854 99.3217 261.966 100.206 260.881 100.206H217.147Z" fill="#A3B5D6"/>
<path fill-rule="evenodd" clip-rule="evenodd" d="M220.701 93.9051C219.884 93.9051 219.222 93.2447 219.222 92.4306C219.222 91.6165 219.884 90.9565 220.701 90.9565C221.518 90.9565 222.18 91.6165 222.18 92.4306C222.18 93.2447 221.518 93.9051 220.701 93.9051Z" fill="white"/>
<path fill-rule="evenodd" clip-rule="evenodd" d="M223.78 92.4306C223.78 91.6165 224.442 90.9565 225.26 90.9565C226.077 90.9565 226.739 91.6165 226.739 92.4306C226.739 93.2447 226.077 93.9051 225.26 93.9051C224.442 93.9051 223.78 93.2447 223.78 92.4306Z" fill="white"/>
<path fill-rule="evenodd" clip-rule="evenodd" d="M229.819 93.9051C229.002 93.9051 228.34 93.2447 228.34 92.4306C228.34 91.6165 229.002 90.9565 229.819 90.9565C230.636 90.9565 231.298 91.6165 231.298 92.4306C231.298 93.2447 230.636 93.9051 229.819 93.9051Z" fill="white"/>
<path fill-rule="evenodd" clip-rule="evenodd" d="M245.521 93.9051C245.296 93.9051 245.113 93.7231 245.113 93.4985V91.3631C245.113 91.1385 245.296 90.9565 245.521 90.9565H259.499C259.724 90.9565 259.907 91.1385 259.907 91.3631V93.4985C259.907 93.7231 259.724 93.9051 259.499 93.9051H245.521Z" fill="#4E5C93"/>
<path fill-rule="evenodd" clip-rule="evenodd" d="M217.147 118.359C216.061 118.359 215.174 117.475 215.174 116.393V104.774C215.174 103.693 216.061 102.808 217.147 102.808H260.881C261.966 102.808 262.854 103.693 262.854 104.774V116.393C262.854 117.475 261.966 118.359 260.881 118.359H217.147Z" fill="#A3B5D6"/>
<path fill-rule="evenodd" clip-rule="evenodd" d="M220.701 112.585C219.884 112.585 219.222 111.925 219.222 111.11C219.222 110.296 219.884 109.636 220.701 109.636C221.518 109.636 222.18 110.296 222.18 111.11C222.18 111.925 221.518 112.585 220.701 112.585Z" fill="white"/>
<path fill-rule="evenodd" clip-rule="evenodd" d="M225.26 112.585C224.442 112.585 223.78 111.925 223.78 111.11C223.78 110.296 224.442 109.636 225.26 109.636C226.077 109.636 226.739 110.296 226.739 111.11C226.739 111.925 226.077 112.585 225.26 112.585Z" fill="#4E5C93"/>
<path fill-rule="evenodd" clip-rule="evenodd" d="M229.819 112.585C229.002 112.585 228.34 111.925 228.34 111.11C228.34 110.296 229.002 109.636 229.819 109.636C230.636 109.636 231.298 110.296 231.298 111.11C231.298 111.925 230.636 112.585 229.819 112.585Z" fill="#4E5C93"/>
<path fill-rule="evenodd" clip-rule="evenodd" d="M259.414 112.585H245.606C245.334 112.585 245.113 112.365 245.113 112.093V110.127C245.113 109.856 245.334 109.636 245.606 109.636H259.414C259.686 109.636 259.907 109.856 259.907 110.127V112.093C259.907 112.365 259.686 112.585 259.414 112.585Z" fill="white"/>
<path fill-rule="evenodd" clip-rule="evenodd" d="M219.222 128.846C219.222 128.032 219.884 127.372 220.701 127.372C221.518 127.372 222.18 128.032 222.18 128.846C222.18 129.66 221.518 130.32 220.701 130.32C219.884 130.32 219.222 129.66 219.222 128.846Z" fill="white"/>
<path fill-rule="evenodd" clip-rule="evenodd" d="M225.26 130.32C224.442 130.32 223.78 129.66 223.78 128.846C223.78 128.032 224.442 127.372 225.26 127.372C226.077 127.372 226.739 128.032 226.739 128.846C226.739 129.66 226.077 130.32 225.26 130.32Z" fill="white"/>
<path fill-rule="evenodd" clip-rule="evenodd" d="M229.819 130.32C229.002 130.32 228.34 129.66 228.34 128.846C228.34 128.032 229.002 127.372 229.819 127.372C230.636 127.372 231.298 128.032 231.298 128.846C231.298 129.66 230.636 130.32 229.819 130.32Z" fill="white"/>
<path fill-rule="evenodd" clip-rule="evenodd" d="M259.414 130.32H245.606C245.334 130.32 245.113 130.1 245.113 129.829V127.863C245.113 127.591 245.334 127.372 245.606 127.372H259.414C259.686 127.372 259.907 127.591 259.907 127.863V129.829C259.907 130.1 259.686 130.32 259.414 130.32Z" fill="#4E5C93"/>
</g>
<path fill-rule="evenodd" clip-rule="evenodd" d="M110.429 86.3933C110.429 86.3933 115.69 73.9329 121.098 71.0122C122.631 71.1825 121.04 73.1026 119.848 74.6822C119.238 75.49 118.798 76.5346 118.798 76.5346C118.798 76.5346 120.922 76.47 120.386 78.2313C122.081 78.2743 121.33 80.1217 121.33 80.1217C121.33 80.1217 122.629 80.2201 122.081 81.9475C121.705 83.1348 119.881 84.41 119.506 85.6848C118.54 88.9707 115.508 89.7498 114.549 89.8299C112.12 90.0326 110.833 89.0266 110.429 86.3933Z" fill="#FFC999"/>
<path d="M115.704 77.315C116.227 75.8067 116.945 75.2139 117.48 75.8069C117.928 76.3031 117.926 77.4797 117.419 78.511L117.306 78.7413C116.422 80.5759 116.326 81.2932 116.589 82.134L116.623 82.2382C116.718 82.5274 116.761 82.7118 116.768 82.9436L116.771 83.2091C116.777 83.8704 116.755 84.2573 116.651 84.7139C116.397 85.8247 115.715 86.5728 114.454 86.8192C114.361 86.8374 114.271 86.7767 114.252 86.6836C114.234 86.5906 114.295 86.5004 114.388 86.4823C115.507 86.2637 116.091 85.623 116.317 84.6373C116.407 84.2409 116.431 83.8941 116.429 83.3285L116.426 83.0229C116.426 82.8184 116.398 82.6676 116.324 82.4283L116.28 82.2929C115.954 81.3004 116.067 80.4798 117.111 78.3593C117.563 77.4415 117.564 76.4121 117.226 76.037C116.953 75.7344 116.477 76.1283 116.03 77.4223L116 77.5119L115.987 77.5406L113.831 81.4381C113.785 81.521 113.681 81.551 113.598 81.5051C113.525 81.4643 113.493 81.3772 113.519 81.3001L113.531 81.2718L115.679 77.3874L115.704 77.315Z" fill="#DD936F"/>
<path d="M120.474 78.0826C120.556 78.1305 120.584 78.2356 120.536 78.3174L120.468 78.4306C120.414 78.5197 120.353 78.6189 120.285 78.7257C120.09 79.0309 119.884 79.3361 119.672 79.6216C119.481 79.8803 119.295 80.1103 119.118 80.3044C118.638 80.8284 118.239 81.0787 117.901 80.9466C117.247 80.6924 117.049 80.1925 117.227 79.572C117.304 79.3049 117.447 79.0256 117.636 78.7427C117.736 78.593 117.843 78.4516 117.95 78.3225L118.01 78.2518C118.046 78.2095 118.075 78.1772 118.095 78.156C118.16 78.087 118.269 78.0839 118.338 78.1489C118.407 78.214 118.41 78.3226 118.345 78.3916L118.292 78.4498C118.27 78.475 118.244 78.5058 118.214 78.5418C118.114 78.6623 118.014 78.7945 117.921 78.9337C117.75 79.1895 117.623 79.4389 117.557 79.667C117.425 80.1273 117.549 80.4416 118.025 80.6267C118.174 80.6848 118.48 80.4924 118.865 80.0724C119.033 79.8881 119.212 79.6671 119.397 79.4173C119.562 79.1947 119.724 78.9589 119.88 78.7204L119.995 78.5413C120.062 78.4366 120.122 78.3395 120.175 78.2524L120.24 78.1441C120.288 78.0623 120.393 78.0347 120.474 78.0826Z" fill="#DD936F"/>
<path d="M121.086 80.1404C121.123 80.0531 121.224 80.0123 121.311 80.0493C121.398 80.0862 121.439 80.1869 121.402 80.2742L121.36 80.368L121.286 80.5239C121.273 80.5515 121.258 80.5798 121.244 80.6088C121.117 80.8576 120.974 81.1064 120.815 81.3395C120.301 82.0976 119.749 82.5299 119.158 82.439C118.6 82.353 118.354 81.9718 118.366 81.4359C118.37 81.2377 118.409 81.0296 118.471 80.8216C118.486 80.7705 118.502 80.7218 118.518 80.6759L118.563 80.5584C118.568 80.5442 118.573 80.5329 118.577 80.5246C118.615 80.4379 118.716 80.3988 118.803 80.4372C118.89 80.4756 118.929 80.577 118.89 80.6636L118.869 80.7156C118.849 80.7667 118.824 80.8365 118.8 80.9196C118.746 81.1005 118.712 81.2799 118.709 81.4435C118.7 81.8222 118.843 82.0431 119.21 82.0997C119.626 82.1637 120.085 81.804 120.532 81.1466C120.681 80.9266 120.818 80.6899 120.938 80.4532C120.966 80.3979 120.992 80.3454 121.015 80.2961L121.08 80.154C121.083 80.1486 121.085 80.1441 121.086 80.1404Z" fill="#DD936F"/>
<path d="M121.983 81.6358C122.012 81.5456 122.109 81.4963 122.199 81.5255C122.289 81.5548 122.339 81.6516 122.309 81.7418L122.279 81.8282C122.255 81.8949 122.227 81.9691 122.194 82.0488C122.101 82.2768 121.992 82.5049 121.868 82.7188C121.386 83.5485 120.806 83.9614 120.142 83.6484C119.718 83.4489 119.542 83.1304 119.598 82.7514C119.631 82.5232 119.745 82.2904 119.912 82.0583C119.98 81.964 120.053 81.876 120.126 81.7965L120.194 81.7244C120.206 81.7117 120.217 81.7012 120.226 81.6932C120.294 81.6281 120.403 81.631 120.468 81.6998C120.533 81.7686 120.53 81.8773 120.461 81.9425L120.42 81.9842C120.408 81.9968 120.394 82.0115 120.379 82.0282C120.315 82.0985 120.25 82.1764 120.191 82.2592C120.052 82.4506 119.961 82.6375 119.937 82.8014C119.904 83.029 119.999 83.202 120.288 83.3378C120.735 83.5486 121.168 83.2402 121.571 82.5464C121.686 82.3474 121.789 82.133 121.877 81.9186L121.918 81.816C121.948 81.737 121.97 81.6752 121.983 81.6358Z" fill="#DD936F"/>
<path fill-rule="evenodd" clip-rule="evenodd" d="M66.6848 191.41C66.6848 191.41 65.8726 202.901 65.2292 211.85C64.8785 216.736 64.7975 220.553 64.2506 220.856C62.7021 221.714 60.9155 220.98 59.0323 222.738C57.1487 224.498 55.79 225.85 50.8498 224.647C45.0722 223.241 50.2502 221.803 53.0091 219.403C57.8813 215.164 57.5378 212.544 57.6489 209.323C57.9814 199.706 57.6746 188.691 57.6746 188.691L66.6848 191.41Z" fill="#FFC999"/>
<path fill-rule="evenodd" clip-rule="evenodd" d="M64.9376 216.368C64.9376 216.368 64.05 217.031 61.1607 219.242C58.8815 220.986 57.4017 222.039 56.1985 221.479C54.0003 220.458 52.3009 219.926 52.3009 219.926C52.3009 219.926 50.2047 220.928 48.6192 222.077C47.0337 223.226 47.1686 225.187 50.5819 225.82C53.9957 226.454 55.9722 226.307 59.2922 223.908C62.6122 221.509 63.9969 222.578 64.5402 221.166C65.3894 218.961 64.9376 216.368 64.9376 216.368Z" fill="#253368"/>
<path fill-rule="evenodd" clip-rule="evenodd" d="M81.2441 190.696C81.2441 190.696 81.5972 202.521 81.931 211.488C82.113 216.382 82.1245 219.886 82.6609 220.208C84.1782 221.119 85.9896 220.447 87.8106 222.27C89.6325 224.093 90.944 225.492 95.9227 224.461C101.745 223.255 96.6201 221.639 93.9457 219.145C89.2223 214.74 89.6567 212.133 89.6567 208.91C89.6567 199.288 90.3431 188.29 90.3431 188.29L81.2441 190.696Z" fill="#FFC999"/>
<path fill-rule="evenodd" clip-rule="evenodd" d="M60.8299 125.1L92.0967 123.581L92.2504 209.255L80.8726 208.951L75.5798 150.616L67.0548 209.326L54.7588 209.712L60.8299 125.1Z" fill="#253368"/>
<path fill-rule="evenodd" clip-rule="evenodd" d="M85.0224 131.641C88.2844 88.3396 79.5714 77.2861 79.5714 77.2861H64.3779L65.0218 131.413C65.0218 131.413 75.3226 135.537 85.0224 131.641Z" fill="#597EF7"/>
<path d="M78.0752 80.8662C78.1618 80.8229 78.2672 80.858 78.3105 80.9447C78.3538 81.0314 78.3187 81.1369 78.232 81.1802C77.8966 81.3481 77.5543 81.4981 77.2057 81.6308C74.5131 82.6555 71.6452 82.6141 68.9429 81.9304C68.5235 81.8244 68.1452 81.7106 67.8139 81.5967L67.5763 81.5118L67.3987 81.4428C67.3094 81.4054 67.2673 81.3026 67.3047 81.2131C67.3421 81.1237 67.4448 81.0816 67.5342 81.119L67.6333 81.1582C67.717 81.1902 67.8154 81.226 67.9278 81.2647C68.2502 81.3755 68.6192 81.4865 69.0288 81.5901C71.6674 82.2576 74.4656 82.298 77.081 81.3027C77.4188 81.1741 77.7503 81.0288 78.0752 80.8662Z" fill="#597EF7"/>
<path fill-rule="evenodd" clip-rule="evenodd" d="M65.6804 61.9672C65.6804 61.9672 64.603 52.4975 76.4682 53.196C83.0762 54.0327 82.6999 65.0449 82.6999 65.0449C82.6999 65.0449 83.1151 67.3669 82.1991 69.7292C81.1729 72.3757 78.6276 73.217 75.2934 73.4495C69.1125 73.1062 66.6888 69.6519 66.6888 69.6519C66.6888 69.6519 62.4235 69.8848 62.889 64.5286C63.3541 59.561 65.6804 61.9672 65.6804 61.9672Z" fill="#FFC999"/>
<path fill-rule="evenodd" clip-rule="evenodd" d="M66.7996 55.471C66.7996 57.9042 64.8287 59.8765 62.3981 59.8765C59.9671 59.8765 57.9961 57.9042 57.9961 55.471C57.9961 53.0377 59.9671 51.0654 62.3981 51.0654C64.8287 51.0654 66.7996 53.0377 66.7996 55.471Z" fill="#253368"/>
<path fill-rule="evenodd" clip-rule="evenodd" d="M82.6425 65.3867C82.6425 65.3867 84.088 62.8779 84.956 59.8868C85.8235 56.896 80.136 50.9137 79.365 50.4317C78.5935 49.9488 78.208 49.4668 72.9061 51.3966C57.1666 52.0268 60.9005 66.4605 60.9005 66.4605C60.9005 66.4605 59.0676 67.7879 60.1281 71.3576C61.3811 74.9278 66.3081 75.0523 66.3081 75.0523L66.48 69.4677C66.48 69.4677 64.815 69.5931 63.5615 67.6634C62.3085 65.7336 63.3909 63.3888 64.1624 63.1956C64.8493 62.6802 66.566 62.9379 66.566 64.9999C66.566 66.038 68.5402 63.7114 69.313 59.7591C74.8071 58.6981 76.1836 54.8697 76.1836 54.8697C76.1836 54.8697 76.3765 58.536 75.5086 60.0799C78.401 59.2116 79.9435 57.6677 79.461 56.0277C82.739 57.475 82.6425 65.3867 82.6425 65.3867Z" fill="#253368"/>
<path fill-rule="evenodd" clip-rule="evenodd" d="M66.3084 75.7394L66.4479 67.4126L77.2942 67.663C77.2942 67.663 77.253 73.3483 77.4675 75.6547C83.0475 80.0497 67.7251 81.6677 65.5365 77.5437C64.7064 75.9806 66.3084 75.7394 66.3084 75.7394Z" fill="#FFC999"/>
<path fill-rule="evenodd" clip-rule="evenodd" d="M76.4292 63.5969C76.2267 65.7075 74.5813 67.2756 72.7557 67.0994C70.9297 66.9232 69.6145 65.0694 69.8176 62.9593C70.0206 60.8488 71.6655 59.2806 73.4911 59.4569C75.3171 59.6331 76.6323 61.4868 76.4292 63.5969Z" fill="white"/>
<path d="M69.591 62.9373C69.3765 65.1666 70.7755 67.138 72.7349 67.3271C74.6942 67.5162 76.4439 65.8482 76.6579 63.6187C76.8725 61.3894 75.4735 59.4181 73.5141 59.229C71.5549 59.0399 69.8055 60.7077 69.591 62.9373ZM73.4702 59.6846C75.1625 59.8479 76.3943 61.5837 76.2027 63.5749C76.0116 65.5661 74.471 67.0348 72.7788 66.8715C71.0865 66.7082 69.8546 64.9723 70.0462 62.9812C70.2348 61.0214 71.7296 59.568 73.3898 59.678L73.4702 59.6846Z" fill="#253368"/>
<path fill-rule="evenodd" clip-rule="evenodd" d="M83.8132 63.3135C83.6101 65.424 82.0594 67.0013 80.35 66.8361C78.6402 66.6713 77.4196 64.8271 77.6227 62.7166C77.8257 60.6061 79.3764 59.0288 81.0858 59.194C82.7952 59.3588 84.0162 61.2034 83.8132 63.3135Z" fill="white"/>
<path d="M77.3952 62.6946C77.1809 64.9218 78.481 66.8858 80.3282 67.0638C82.175 67.2423 83.8266 65.5624 84.0409 63.3353C84.2551 61.1086 82.9546 59.1442 81.1079 58.9661C79.261 58.7876 77.6094 60.4675 77.3952 62.6946ZM81.0639 59.4217C82.6358 59.5733 83.7775 61.2978 83.5857 63.2914C83.3938 65.2854 81.944 66.7601 80.3721 66.6082C78.7998 66.4567 77.6585 64.7327 77.8504 62.7385C78.0422 60.7445 79.492 59.2698 81.0639 59.4217Z" fill="#253368"/>
<path d="M76.9679 64.0591C77.0518 63.9807 77.179 63.9777 77.2662 64.0472L77.291 64.0703L78.4928 65.3592C78.5729 65.4451 78.574 65.5757 78.5006 65.6627L78.4764 65.6875L77.1694 66.834C77.0744 66.9173 76.93 66.9078 76.8467 66.8128C76.7711 66.7264 76.7721 66.599 76.8442 66.514L76.868 66.4898L77.9975 65.4987L76.9567 64.3826C76.8784 64.2986 76.8754 64.1712 76.9449 64.084L76.9679 64.0591Z" fill="#DD936F"/>
<path d="M74.3707 67.4113C74.4045 67.2895 74.5305 67.2182 74.6522 67.2521L74.8117 67.2937L74.8583 67.3053C75.0221 67.3458 75.2006 67.3863 75.3875 67.4241C75.6814 67.4835 75.9678 67.5304 76.2356 67.5602C76.6681 67.6083 77.0252 67.6083 77.2739 67.5531C77.3972 67.5257 77.5193 67.6035 77.5466 67.7269C77.574 67.8503 77.4962 67.9725 77.3729 67.9999C77.065 68.0683 76.6632 68.0683 76.1851 68.0151C75.9026 67.9837 75.6032 67.9346 75.297 67.8727C75.1517 67.8434 75.0115 67.8124 74.8788 67.7811L74.6558 67.7264C74.6001 67.7121 74.5576 67.7008 74.5298 67.6931C74.4082 67.6593 74.3369 67.5331 74.3707 67.4113Z" fill="#F5222D"/>
<path fill-rule="evenodd" clip-rule="evenodd" d="M88.4547 80.8945C88.4547 80.8945 92.1315 80.8913 101.845 97.906C106.653 90.3455 110.309 85.7028 110.309 85.7028L117.595 91.3744C117.595 91.3744 109.777 113.371 101.717 113.371C97.9378 113.371 95.3147 110.038 92.747 106.842C89.0149 102.196 86.1371 97.133 86.1371 97.133C86.1371 97.133 83.3956 83.7305 88.4547 80.8945Z" fill="#E4EBF7"/>
<path fill-rule="evenodd" clip-rule="evenodd" d="M77.5101 75.482C77.5101 75.482 79.4417 82.6988 82.2743 109.44C84.3038 128.603 84.6779 173.341 84.6779 173.341C84.6779 173.341 93.3191 172.424 93.7764 170.42C95.039 164.886 94.0933 133.925 93.4329 120.244C92.2311 95.3286 92.2311 87.1666 90 81.668C87.627 80.4171 85.7507 79.3483 81.6304 77.6731C80.7098 77.2986 79.492 76.0244 78.9264 75.7397C77.3884 74.9661 77.5101 75.482 77.5101 75.482Z" fill="#E4EBF7"/>
<path d="M91.5284 89.1719C91.6543 89.1633 91.7633 89.2585 91.772 89.3846L91.8566 90.7132C91.8897 91.2518 91.9252 91.8518 91.9628 92.5102L92.0373 93.8483C92.1491 95.8994 92.2598 98.1462 92.3649 100.561L92.3823 100.965C92.5538 104.96 92.6968 109.113 92.8017 113.365C92.8048 113.492 92.705 113.597 92.5789 113.6C92.4527 113.603 92.3479 113.503 92.3448 113.377C92.2475 109.43 92.1173 105.571 91.962 101.843L91.8907 100.181C91.7792 97.653 91.6617 95.3145 91.5437 93.1975L91.4343 91.2996L91.316 89.4159C91.3074 89.2898 91.4025 89.1805 91.5284 89.1719Z" fill="#A3B5D6"/>
<path d="M76.5623 62.2966C76.8696 62.1707 77.1981 62.1455 77.5132 62.2923C77.5816 62.3242 77.6476 62.3638 77.7108 62.4113C77.8118 62.4871 77.8322 62.6306 77.7565 62.7317C77.6807 62.8328 77.5375 62.8533 77.4365 62.7774C77.3987 62.749 77.36 62.7258 77.3205 62.7073C77.1386 62.6226 76.9356 62.6382 76.7353 62.7202C76.672 62.7462 76.6266 62.7712 76.6062 62.7848C76.5012 62.8549 76.3593 62.8264 76.2894 62.7213C76.2194 62.6161 76.2478 62.474 76.3528 62.4039C76.3968 62.3745 76.4683 62.3351 76.5623 62.2966Z" fill="#253368"/>
<path d="M71.6695 72.6517C72.135 72.7634 72.6694 72.8522 73.2593 72.9198C74.3711 73.0473 75.5297 73.0891 76.5173 73.0814L76.8605 73.0764C76.9551 73.0738 77.034 73.1485 77.0366 73.2432C77.0392 73.338 76.9646 73.417 76.8699 73.4196L76.7314 73.4223C75.6871 73.438 74.4288 73.3995 73.2202 73.2609C72.6175 73.1918 72.0698 73.1008 71.5896 72.9856C71.4975 72.9635 71.4407 72.8708 71.4628 72.7786C71.4826 72.6957 71.5596 72.6414 71.6419 72.6474L71.6695 72.6517Z" fill="#DD936F"/>
<path fill-rule="evenodd" clip-rule="evenodd" d="M54.7201 81.1525C56.5681 80.2435 60.167 78.9715 62.4458 77.6299C63.9046 76.7707 65.0698 75.6278 66.2222 75.2241C72.918 103.147 69.5143 158.793 68.2261 174.258C59.471 175.547 53.7762 171.794 53.7762 171.794C53.7762 171.794 53.6272 132.993 54.1773 115.433C54.6346 100.827 53.7954 81.6074 54.7201 81.1525Z" fill="#E4EBF7"/>
<path d="M65.9887 74.9235C66.0914 74.85 66.2342 74.8739 66.3076 74.9767C66.3744 75.0702 66.3608 75.1968 66.2806 75.2743L66.2545 75.296L62.7889 77.7736L62.7928 77.8782C62.7986 78.0267 62.8086 78.2009 62.8237 78.4011L62.8316 78.5034C62.8871 79.1937 62.988 80.0319 63.1456 81.0223L63.2121 81.4292C63.6606 84.1037 64.4253 87.3468 65.5787 91.1848L65.9417 92.388C68.4353 100.701 69.2854 104.916 70.5686 114.457C70.5855 114.582 70.4977 114.698 70.3725 114.714C70.2474 114.731 70.1323 114.643 70.1154 114.518L69.9353 113.194C68.7509 104.591 67.8714 100.412 65.5033 92.5184L65.2306 91.6142C63.961 87.4284 63.1456 83.9328 62.694 81.0943C62.5452 80.1591 62.4461 79.3563 62.3877 78.6825L62.3758 78.5401C62.351 78.2313 62.338 77.9937 62.3328 77.8259L62.3301 77.6578C62.3305 77.5933 62.3567 77.5336 62.4018 77.491L62.4258 77.4712L65.9887 74.9235Z" fill="#A3B5D6"/>
<path fill-rule="evenodd" clip-rule="evenodd" d="M74.5483 63.0517C74.5483 63.5739 74.3175 63.9969 74.0332 63.9969C73.7494 63.9969 73.5186 63.5739 73.5186 63.0517C73.5186 62.5299 73.7494 62.1069 74.0332 62.1069C74.3175 62.1069 74.5483 62.5299 74.5483 63.0517Z" fill="#253368"/>
<path fill-rule="evenodd" clip-rule="evenodd" d="M81.2431 63.1381C81.2431 63.6599 81.0128 64.0828 80.7285 64.0828C80.4442 64.0828 80.2139 63.6599 80.2139 63.1381C80.2139 62.6158 80.4442 62.1929 80.7285 62.1929C81.0128 62.1929 81.2431 62.6158 81.2431 63.1381Z" fill="#253368"/>
<path d="M77.4486 74.9252C77.5122 74.8296 77.6354 74.7974 77.7362 74.845L77.7657 74.8617L81.371 77.267C81.4149 77.2963 81.4473 77.3398 81.4628 77.3903L81.4885 77.4783C81.5087 77.5496 81.5321 77.6355 81.5584 77.7361L81.6095 77.9357C81.6705 78.1793 81.7362 78.4599 81.8058 78.7782L81.8786 79.1189C82.097 80.1626 82.3139 81.4036 82.5189 82.849L82.553 83.0919C83.6591 91.0675 84.0194 101.922 83.1892 115.962C83.1817 116.088 83.0735 116.184 82.9474 116.177C82.8214 116.169 82.7252 116.061 82.7327 115.935L82.781 115.098C83.5465 101.492 83.1798 90.9408 82.1 83.1548L82.0322 82.6763C81.8273 81.2635 81.6114 80.0548 81.3951 79.0429L81.3591 78.876C81.2905 78.5623 81.2258 78.2864 81.1661 78.0476L81.0858 77.7378L81.0482 77.6016L77.512 75.2426C77.4165 75.1788 77.3843 75.0556 77.4319 74.9547L77.4486 74.9252Z" fill="#A3B5D6"/>
<path fill-rule="evenodd" clip-rule="evenodd" d="M72.489 117.225L79.3856 96.5997C79.499 96.2601 79.8169 96.0308 80.1754 96.0308H98.7314C99.308 96.0308 99.7095 96.6024 99.5156 97.1453L92.336 117.217C92.2207 117.54 91.9194 117.759 91.5773 117.769L73.3044 118.323C72.725 118.341 72.3052 117.776 72.489 117.225Z" fill="#4E5C93"/>
<path fill-rule="evenodd" clip-rule="evenodd" d="M73.47 116.986L80.2458 96.7201C80.3835 96.3081 80.769 96.0308 81.2025 96.0308H99.9876C100.391 96.0308 100.672 96.4304 100.536 96.8103L93.258 117.159C93.1294 117.517 92.7965 117.76 92.4174 117.771L74.4568 118.316C73.7553 118.337 73.2473 117.652 73.47 116.986Z" fill="black"/>
<path fill-rule="evenodd" clip-rule="evenodd" d="M82.7722 98.0133C82.9792 98.2499 82.8979 98.6601 82.5912 98.9287C82.2845 99.1974 81.8681 99.2235 81.6611 98.9869C81.4545 98.7502 81.5359 98.3406 81.8426 98.0714C82.1492 97.8028 82.5656 97.7767 82.7722 98.0133Z" fill="#253368"/>
<path fill-rule="evenodd" clip-rule="evenodd" d="M82.5184 98.2543C82.6252 98.3775 82.5836 98.5898 82.4243 98.7294C82.265 98.869 82.0495 98.8828 81.9422 98.7597C81.835 98.637 81.877 98.4241 82.0358 98.2845C82.1951 98.1449 82.4111 98.1317 82.5184 98.2543Z" fill="#E4EBF7"/>
<path d="M69.786 62.7331C69.9112 62.7159 70.0265 62.8035 70.0437 62.9287C70.0594 63.0435 69.9872 63.1501 69.8787 63.1803L69.8483 63.1866L66.253 63.6809C66.1279 63.6981 66.0125 63.6105 65.9953 63.4853C65.9796 63.3705 66.0518 63.264 66.1603 63.2337L66.1907 63.2274L69.786 62.7331Z" fill="#253368"/>
<path fill-rule="evenodd" clip-rule="evenodd" d="M80.8005 113.442C81.8678 113.353 82.4344 112.915 82.3457 112.025C83.633 111.638 83.5045 110.549 83.5045 110.549C83.5045 110.549 85.9731 110.545 86.4025 109.495C86.5694 109.087 86.2621 108.644 85.8231 108.608C80.5412 108.178 76.8087 105.323 76.8087 105.323C76.8087 105.323 78.9288 102.296 78.728 100.883C78.6686 100.465 78.1257 100.323 77.8669 100.656C75.6476 103.506 71.2461 105.704 71.2461 105.704C71.2461 105.704 65.9326 110.553 71.5941 112.862C71.5941 112.862 75.9096 114.651 78.9333 114.473C80.3651 114.389 80.8005 113.442 80.8005 113.442Z" fill="#FFC999"/>
<path d="M79.6206 109.555C79.6679 109.473 79.7728 109.444 79.8548 109.492C80.234 109.711 80.679 109.89 81.1763 110.034C81.7831 110.209 82.4351 110.322 83.0875 110.385C83.2703 110.402 83.4426 110.415 83.6016 110.423L83.8073 110.432C83.8745 110.434 83.9241 110.435 83.954 110.435C84.0487 110.435 84.1254 110.512 84.1254 110.607C84.1254 110.701 84.0487 110.778 83.954 110.778L83.8375 110.776C83.7994 110.775 83.7548 110.774 83.7041 110.772C83.508 110.764 83.2897 110.749 83.0547 110.727C82.3827 110.662 81.7105 110.545 81.0812 110.364C80.559 110.213 80.0888 110.023 79.6835 109.789C79.6015 109.742 79.5733 109.637 79.6206 109.555Z" fill="#DD936F"/>
<path d="M79.1021 111.175C79.1445 111.09 79.2475 111.055 79.3322 111.098C79.3899 111.127 79.4483 111.155 79.5072 111.182C80.1421 111.475 80.8241 111.664 81.5065 111.769C81.6976 111.798 81.8777 111.819 82.0438 111.833L82.1656 111.842C82.2838 111.85 82.3672 111.853 82.41 111.853C82.5047 111.853 82.5815 111.93 82.5815 112.024C82.5815 112.119 82.5047 112.196 82.41 112.196L82.3572 112.195C82.3051 112.194 82.233 112.191 82.1431 112.185C81.935 112.171 81.7035 112.147 81.4544 112.108C80.7424 111.999 80.0301 111.801 79.3636 111.494C79.3014 111.465 79.2398 111.435 79.1788 111.405C79.0941 111.362 79.0598 111.259 79.1021 111.175Z" fill="#DD936F"/>
<path d="M78.1354 112.978C78.1778 112.893 78.2808 112.859 78.3655 112.902C78.5377 112.988 78.9478 113.072 79.5059 113.144C79.7197 113.172 79.9453 113.196 80.1738 113.218L80.5075 113.248L80.8103 113.27C80.9048 113.277 80.9765 113.358 80.9704 113.453C80.9644 113.547 80.8828 113.619 80.7883 113.613L80.4795 113.59C80.4451 113.587 80.4098 113.584 80.3736 113.581C80.0631 113.554 79.7525 113.522 79.462 113.485L79.2577 113.457C78.7646 113.386 78.4059 113.306 78.2119 113.208C78.1272 113.166 78.093 113.063 78.1354 112.978Z" fill="#DD936F"/>
<path fill-rule="evenodd" clip-rule="evenodd" d="M53.6033 81.7537C57.4986 78.8545 61.7442 82.5364 60.4706 91.2042C57.8956 101.171 56.1208 106.096 56.1208 106.096L71.7866 105.341C71.7866 105.341 71.7866 109.318 72.3015 115.504C60.4556 117.161 50.7278 118.597 46.9939 117.308C45.7217 116.869 43.6465 116.535 43.5838 111.642C43.4795 103.483 47.9936 85.929 53.6033 81.7537Z" fill="#E4EBF7"/>
<path d="M59.1591 92.1137C59.1863 91.9903 59.3084 91.9123 59.4317 91.9395C59.555 91.9667 59.6329 92.0888 59.6057 92.2123L59.2713 93.7207C58.4598 97.3577 57.7476 100.377 57.1365 102.821L56.8612 103.91C56.746 104.359 56.6405 104.764 56.5446 105.124L56.4348 105.533L56.383 105.723L71.7745 104.926C71.8952 104.92 71.998 105.008 72.0131 105.125L72.015 105.154L72.0199 105.899L72.026 106.417C72.0325 106.896 72.0418 107.425 72.0543 108L72.0722 108.762C72.1238 110.818 72.2073 113.065 72.3298 115.453C72.3357 115.568 72.2543 115.67 72.1402 115.69L71.6101 115.78C66.243 116.685 58.9731 117.608 54.8074 117.923C54.6815 117.933 54.5717 117.838 54.5622 117.712C54.5527 117.586 54.647 117.476 54.7729 117.467L55.1982 117.433C59.333 117.097 66.1195 116.232 71.2645 115.374L71.8627 115.273L71.8505 115.029C71.7401 112.803 71.6635 110.705 71.615 108.773L71.5971 108.01C71.5846 107.433 71.5753 106.903 71.5688 106.423L71.5593 105.514L71.5584 105.395L56.0893 106.196C55.943 106.204 55.8303 106.075 55.8512 105.935L55.8577 105.905L56.0416 105.235L56.2533 104.434C56.3453 104.081 56.4448 103.694 56.5516 103.272L56.7927 102.309C57.4641 99.6036 58.2537 96.223 59.1591 92.1137Z" fill="#A3B5D6"/>
<path d="M56.1081 105.681C56.2342 105.673 56.3426 105.769 56.3502 105.895C56.3572 106.011 56.2772 106.112 56.1667 106.134L56.1358 106.137L50.9427 106.453C50.8167 106.461 50.7083 106.364 50.7006 106.238C50.6936 106.123 50.7737 106.022 50.8842 106L50.915 105.996L56.1081 105.681Z" fill="#A3B5D6"/>
<path d="M68.2003 105.238C68.3158 105.24 68.4094 105.329 68.4221 105.441L68.4235 105.472L68.2523 113.376C68.2496 113.502 68.1452 113.603 68.0191 113.6C67.9036 113.597 67.81 113.509 67.7973 113.397L67.7959 113.366L67.9671 105.462C67.9698 105.335 68.0742 105.235 68.2003 105.238Z" fill="#A3B5D6"/>
<path d="M54.6931 127.778L62.5912 128.867C62.6941 128.881 62.7731 128.962 62.7866 129.063L62.7887 129.094V145.499C62.7887 147.024 61.4698 148.206 59.9654 148.05L59.8875 148.041L54.3742 147.305C54.2491 147.288 54.1611 147.173 54.1778 147.048C54.1931 146.933 54.291 146.85 54.4037 146.849L54.4347 146.851L59.9479 147.587C61.1868 147.753 62.2898 146.809 62.3302 145.569L62.3314 145.499L62.3313 129.293L54.6307 128.231C54.516 128.216 54.433 128.117 54.4332 128.005L54.4354 127.974C54.4512 127.859 54.5495 127.776 54.6621 127.776L54.6931 127.778Z" fill="#A3B5D6"/>
<path d="M81.4151 138.735C81.4995 138.687 81.6065 138.717 81.6539 138.802C81.6967 138.878 81.6767 138.972 81.6107 139.025L81.5871 139.041L77.5377 141.321L75.4238 152.351C75.4074 152.437 75.3313 152.496 75.2469 152.493L75.2185 152.49C75.1329 152.474 75.0739 152.398 75.0762 152.313L75.0793 152.285L77.2085 141.175C77.2163 141.134 77.2381 141.098 77.2695 141.072L77.2948 141.055L81.4151 138.735Z" fill="black"/>
<path fill-rule="evenodd" clip-rule="evenodd" d="M66.8049 210.34H54.5853C54.3265 210.34 54.1216 210.106 54.1376 209.829L54.4614 204.207C54.4755 203.953 54.6717 203.755 54.9086 203.755H67.8947C68.1791 203.755 68.3917 204.036 68.3341 204.334L67.2444 209.957C67.2009 210.179 67.0175 210.34 66.8049 210.34Z" fill="#4E5C93"/>
<path fill-rule="evenodd" clip-rule="evenodd" d="M92.5435 210.254H81.1393C80.9061 210.254 80.7099 210.078 80.6843 209.846L80.0994 204.499C80.0701 204.228 80.2823 203.992 80.5539 203.992H92.8732C93.1371 203.992 93.3461 204.214 93.3296 204.477L92.6258 209.968C92.6112 210.221 92.785 210.254 92.5435 210.254Z" fill="#4E5C93"/>
<path fill-rule="evenodd" clip-rule="evenodd" d="M81.999 214.982C81.999 214.982 82.8505 216.485 85.8042 218.702C88.3262 220.595 89.464 221.628 90.6864 221.11C92.9184 220.165 94.6352 219.693 94.6352 219.693C94.6352 219.693 96.6953 220.767 98.2405 221.969C99.7858 223.172 98.9274 224.718 95.4935 225.234C92.0601 225.75 90.7458 225.942 87.5108 223.43C84.2759 220.918 82.8546 221.938 82.3602 220.509C81.5878 218.275 81.999 214.982 81.999 214.982Z" fill="#253368"/>
<path d="M54.6623 82.7293C54.8411 82.7517 55.1407 82.8244 55.5209 82.9763C56.1485 83.2271 56.7748 83.6149 57.3583 84.1683C58.6143 85.3596 59.4947 87.1447 59.8391 89.6264C59.8565 89.7516 59.7691 89.8671 59.6441 89.8845C59.519 89.9019 59.4035 89.8145 59.3861 89.6893C59.0557 87.3081 58.2223 85.6184 57.0438 84.5005C56.5041 83.9887 55.9272 83.6315 55.3514 83.4014C55.1511 83.3214 54.9659 83.263 54.8007 83.2229L54.7142 83.2032C54.6635 83.1924 54.6268 83.1861 54.6056 83.1835C54.4803 83.1678 54.3914 83.0535 54.4071 82.928C54.4214 82.8131 54.5186 82.7287 54.6313 82.7275L54.6623 82.7293Z" fill="#A3B5D6"/>
<path d="M93.302 126.901C93.4215 126.86 93.5515 126.924 93.5924 127.043C93.6299 127.153 93.5796 127.272 93.4789 127.322L93.4502 127.334L89.5967 128.655L89.597 145.087C89.597 145.816 90.2965 146.332 90.9852 146.131L91.0381 146.114L93.7586 145.172C93.878 145.131 94.0082 145.194 94.0495 145.313C94.0874 145.423 94.0374 145.542 93.9368 145.592L93.9082 145.605L91.1877 146.547C90.205 146.887 89.1806 146.178 89.1408 145.149L89.1396 145.087V128.492C89.1396 128.405 89.1887 128.327 89.2645 128.288L89.2942 128.276L93.302 126.901Z" fill="#A3B5D6"/>
<path d="M110.07 85.7466C110.138 85.6495 110.267 85.6216 110.368 85.6773L110.394 85.6946L117.731 91.1913C117.832 91.2671 117.853 91.4105 117.777 91.5117C117.708 91.6037 117.584 91.6291 117.486 91.576L117.457 91.5577L110.309 86.2024L99.6289 101.474C99.563 101.568 99.4392 101.597 99.3395 101.548L99.3104 101.53C99.2164 101.464 99.187 101.34 99.2369 101.241L99.2542 101.211L110.07 85.7466Z" fill="#A3B5D6"/>
<path d="M109.049 89.5138C109.122 89.4246 109.247 89.4041 109.343 89.461L109.371 89.4804L114.865 93.9482C114.963 94.0279 114.978 94.1721 114.898 94.2702C114.826 94.3593 114.7 94.3798 114.604 94.3229L114.577 94.3035L109.083 89.8357C108.985 89.756 108.97 89.6118 109.049 89.5138Z" fill="#A3B5D6"/>
<path fill-rule="evenodd" clip-rule="evenodd" d="M319.075 165.93C319.075 169.116 316.906 171.699 314.23 171.699C311.554 171.699 309.385 169.116 309.385 165.93C309.385 162.744 311.554 160.161 314.23 160.161C316.906 160.161 319.075 162.744 319.075 165.93Z" fill="#253368"/>
<path fill-rule="evenodd" clip-rule="evenodd" d="M313.32 217.851H315.196V167.653H313.32V217.851Z" fill="#253368"/>
<path fill-rule="evenodd" clip-rule="evenodd" d="M313.32 217.852L291.476 222.184L290.066 220.972L313.32 212.816V217.852Z" fill="#253368"/>
<path fill-rule="evenodd" clip-rule="evenodd" d="M315.195 217.852L337.039 222.184L338.449 220.972L315.195 212.816V217.852Z" fill="#253368"/>
<path fill-rule="evenodd" clip-rule="evenodd" d="M312.771 223.676H315.746V216.402H312.771V223.676Z" fill="#253368"/>
<path fill-rule="evenodd" clip-rule="evenodd" d="M293.523 223.772C293.523 225.433 292.392 226.779 290.997 226.779C289.603 226.779 288.472 225.433 288.472 223.772C288.472 222.111 289.603 220.765 290.997 220.765C292.392 220.765 293.523 222.111 293.523 223.772Z" fill="#253368"/>
<path fill-rule="evenodd" clip-rule="evenodd" d="M316.783 223.772C316.783 225.433 315.652 226.779 314.257 226.779C312.862 226.779 311.731 225.433 311.731 223.772C311.731 222.111 312.862 220.765 314.257 220.765C315.652 220.765 316.783 222.111 316.783 223.772Z" fill="#253368"/>
<path fill-rule="evenodd" clip-rule="evenodd" d="M340.266 223.772C340.266 225.433 339.135 226.779 337.74 226.779C336.346 226.779 335.215 225.433 335.215 223.772C335.215 222.111 336.346 220.765 337.74 220.765C339.135 220.765 340.266 222.111 340.266 223.772Z" fill="#253368"/>
<path fill-rule="evenodd" clip-rule="evenodd" d="M344.6 164.871H283.857C283.857 157.762 288.697 152 294.667 152H333.79C339.76 152 344.6 157.762 344.6 164.871Z" fill="#A3B5D6"/>
<path fill-rule="evenodd" clip-rule="evenodd" d="M202.941 158.93C202.941 162.116 200.771 164.699 198.095 164.699C195.42 164.699 193.25 162.116 193.25 158.93C193.25 155.744 195.42 153.161 198.095 153.161C200.771 153.161 202.941 155.744 202.941 158.93Z" fill="#253368"/>
<path fill-rule="evenodd" clip-rule="evenodd" d="M197.187 210.851H199.062V160.653H197.187V210.851Z" fill="#253368"/>
<path fill-rule="evenodd" clip-rule="evenodd" d="M197.187 210.852L175.342 215.184L173.933 213.972L197.187 205.816V210.852Z" fill="#253368"/>
<path fill-rule="evenodd" clip-rule="evenodd" d="M199.062 210.852L220.906 215.184L222.315 213.972L199.062 205.816V210.852Z" fill="#253368"/>
<path fill-rule="evenodd" clip-rule="evenodd" d="M196.637 216.676H199.613V209.402H196.637V216.676Z" fill="#253368"/>
<path fill-rule="evenodd" clip-rule="evenodd" d="M177.389 216.772C177.389 218.433 176.258 219.779 174.864 219.779C173.469 219.779 172.338 218.433 172.338 216.772C172.338 215.111 173.469 213.765 174.864 213.765C176.258 213.765 177.389 215.111 177.389 216.772Z" fill="#253368"/>
<path fill-rule="evenodd" clip-rule="evenodd" d="M200.649 216.772C200.649 218.433 199.518 219.779 198.123 219.779C196.729 219.779 195.598 218.433 195.598 216.772C195.598 215.111 196.729 213.765 198.123 213.765C199.518 213.765 200.649 215.111 200.649 216.772Z" fill="#253368"/>
<path fill-rule="evenodd" clip-rule="evenodd" d="M224.132 216.772C224.132 218.433 223.002 219.779 221.607 219.779C220.212 219.779 219.081 218.433 219.081 216.772C219.081 215.111 220.212 213.765 221.607 213.765C223.002 213.765 224.132 215.111 224.132 216.772Z" fill="#253368"/>
<path fill-rule="evenodd" clip-rule="evenodd" d="M228.467 157.871H167.725C167.725 150.762 172.564 145 178.534 145H217.657C223.627 145 228.467 150.762 228.467 157.871Z" fill="#A3B5D6"/>
<path fill-rule="evenodd" clip-rule="evenodd" d="M278.242 132.78L280.315 141.392L312.401 137.038C315.869 136.528 318.208 133.227 317.536 129.79C316.863 126.353 313.452 124.174 310.046 125.007L278.242 132.78Z" fill="#ADC6FF"/>
<path d="M282.985 132.256C283.098 132.23 283.211 132.293 283.251 132.399L283.259 132.429L285.074 140.452C285.102 140.576 285.024 140.699 284.9 140.727C284.787 140.752 284.674 140.689 284.634 140.583L284.626 140.553L282.811 132.53C282.783 132.406 282.861 132.284 282.985 132.256Z" fill="#597EF7"/>
<path fill-rule="evenodd" clip-rule="evenodd" d="M281.789 138.328C281.401 138.404 281.148 138.779 281.224 139.167C281.3 139.554 281.675 139.806 282.063 139.731C282.45 139.655 282.703 139.28 282.627 138.892C282.551 138.505 282.176 138.253 281.789 138.328Z" fill="white"/>
<path fill-rule="evenodd" clip-rule="evenodd" d="M309.185 136.903C312.467 137.489 315.623 135.37 316.319 132.113L322.179 104.685C323.018 100.755 320.432 96.9118 316.472 96.2042C312.512 95.4966 308.752 98.2067 308.176 102.184L304.155 129.94C303.678 133.236 305.903 136.316 309.185 136.903Z" fill="#ADC6FF"/>
<path fill-rule="evenodd" clip-rule="evenodd" d="M277.286 155.176C277.324 159.139 280.492 162.364 284.457 162.477L328.677 163.733C333.81 163.879 338.038 159.736 337.99 154.607C337.941 149.478 333.637 145.415 328.508 145.657L284.32 147.742C280.356 147.929 277.25 151.212 277.286 155.176Z" fill="#253368"/>
<path fill-rule="evenodd" clip-rule="evenodd" d="M285.036 213.322C285.036 213.322 280.761 220.601 272.986 221.411C267.895 221.942 272.477 227.054 281.41 226.149C286.502 225.633 285.651 222.978 288.432 223.23C290.044 223.376 293.362 222.845 293.633 221.642C294.106 219.54 293.835 218.438 294.076 215.947C295.248 203.815 291.215 200.779 285.036 213.322Z" fill="#253368"/>
<path fill-rule="evenodd" clip-rule="evenodd" d="M288.029 208.65C288.029 208.65 286.65 216.976 279.682 220.516C275.12 222.834 281.232 225.966 289.246 221.923C293.815 219.619 292.069 217.445 294.755 216.685C296.312 216.244 299.219 214.561 299.04 213.341C298.728 211.209 298.08 210.278 297.411 207.865C294.152 196.119 289.299 194.728 288.029 208.65Z" fill="#253368"/>
<path fill-rule="evenodd" clip-rule="evenodd" d="M298.824 206.171L291.586 154.838C291 150.682 287.021 147.883 282.905 148.732C278.931 149.553 276.396 153.46 277.27 157.419L288.467 208.12C288.467 208.12 293.065 209.711 298.824 206.171Z" fill="#253368"/>
<path fill-rule="evenodd" clip-rule="evenodd" d="M337.23 103.573C337.23 103.847 337.452 104.068 337.726 104.068C338 104.068 338.221 103.847 338.221 103.573C338.221 103.3 338 103.078 337.726 103.078C337.452 103.078 337.23 103.3 337.23 103.573Z" fill="#4E5C93"/>
<path fill-rule="evenodd" clip-rule="evenodd" d="M322.347 94.0618L321.697 85.8879L332.838 82.3721L334.76 93.0927C335.126 95.5338 333.504 98.0815 331.301 99.2016C331.072 99.3177 330.834 99.4251 330.587 99.5205C326.863 100.957 322.487 98.0475 322.347 94.0618Z" fill="#997C79"/>
<path fill-rule="evenodd" clip-rule="evenodd" d="M335.63 76.7299C335.825 84.7803 330.987 89.2607 325.812 90.4253C319.642 91.8134 317.322 86.7089 316.326 78.9017C315.314 70.9743 318.229 67.7062 324.05 66.5104C330.117 65.2636 335.432 68.5753 335.63 76.7299Z" fill="#997C79"/>
<path fill-rule="evenodd" clip-rule="evenodd" d="M331.531 78.6295C331.606 77.9853 331.602 76.9281 332.514 76.3476C333.77 75.5478 335.233 76.8689 335.329 78.546C335.446 80.5779 333.897 82.0926 332.902 82.2748C333.185 84.253 333.327 85.4534 333.327 85.4534C333.327 85.4534 335.494 82.6694 336.121 79.0889C337.099 73.5026 335.096 66.6365 327.93 66.0042C317.629 65.8092 316.55 72.4889 316.55 72.4889L327.961 70.313L328.344 74.184C328.344 74.184 330.403 73.9376 330.787 78.5304L331.531 78.6295Z" fill="#604346"/>
<path d="M326.064 75.4043L327.267 75.5548C327.393 75.5706 327.482 75.6852 327.467 75.811C327.452 75.9262 327.354 76.0108 327.241 76.0119L327.21 76.0101L326.039 75.8635L322.5 76.4084C322.385 76.4261 322.277 76.3555 322.245 76.2471L322.238 76.2166C322.22 76.1018 322.291 75.9938 322.4 75.9617L322.43 75.9549L326.001 75.4052L326.064 75.4043Z" fill="#604346"/>
<path fill-rule="evenodd" clip-rule="evenodd" d="M329.541 85.2122C327.904 83.591 327.727 81.9157 322.332 82.9711C319.707 83.4845 318.525 84.59 318.364 86.7857C319.66 89.8977 321.904 91.6313 325.372 90.7384C332.658 88.8625 332.453 81.2627 332.453 81.2627C332.453 81.2627 331.46 81.7128 331.221 82.3254C330.563 84.02 330.026 84.5101 329.541 85.2122Z" fill="#7C5B4D"/>
<path fill-rule="evenodd" clip-rule="evenodd" d="M320.766 84.8281C320.766 84.8281 322.697 84.6051 325.577 83.8145C325.577 83.8145 325.362 85.1016 323.254 85.4884C321.6 85.7917 320.766 84.8281 320.766 84.8281Z" fill="white"/>
<path d="M325.516 83.5934C324.353 83.9129 323.265 84.1622 322.277 84.35L322.05 84.3923C321.737 84.4498 321.453 84.4973 321.202 84.5357L320.869 84.5839C320.812 84.5916 320.769 84.597 320.74 84.6003C320.556 84.6215 320.472 84.8389 320.592 84.9783C320.686 85.0863 320.86 85.2377 321.117 85.3864C321.704 85.7271 322.434 85.8723 323.296 85.7142C324.115 85.5639 324.731 85.2716 325.167 84.8757C325.577 84.5035 325.759 84.1225 325.804 83.8524C325.832 83.6871 325.678 83.549 325.516 83.5934ZM325.179 84.1592L325.153 84.2001C325.075 84.3141 324.978 84.4272 324.858 84.5362C324.487 84.8727 323.95 85.1276 323.213 85.2629L323.102 85.2816C322.401 85.3877 321.819 85.2628 321.347 84.9895L321.331 84.9799L321.679 84.9237C321.823 84.8994 321.974 84.8728 322.133 84.8436C322.959 84.6921 323.857 84.4974 324.813 84.2543L325.179 84.1592Z" fill="#604346"/>
<path d="M319.581 76.4357C319.686 76.386 319.81 76.4229 319.871 76.5176L319.887 76.5449L320.459 77.7535C320.47 77.7748 320.476 77.7975 320.479 77.8207L320.481 77.8558L320.397 82.6569C320.394 82.8405 320.547 82.9844 320.726 82.9755L320.762 82.9716L323.629 82.4995C323.754 82.4788 323.872 82.5635 323.893 82.6885C323.912 82.8031 323.842 82.9119 323.734 82.9451L323.703 82.9522L320.836 83.4244C320.376 83.5 319.959 83.1562 319.938 82.6983L319.938 82.6488L320.021 77.901L319.471 76.7412C319.422 76.6363 319.459 76.5126 319.553 76.4509L319.581 76.4357Z" fill="#604346"/>
<path d="M324.275 86.5688C324.4 86.5488 324.518 86.634 324.538 86.7591C324.556 86.8738 324.486 86.9822 324.378 87.0149L324.347 87.0219L322.974 87.2417C322.849 87.2618 322.731 87.1766 322.711 87.0515C322.693 86.9368 322.763 86.8284 322.871 86.7956L322.901 86.7886L324.275 86.5688Z" fill="#604346"/>
<path d="M319.477 76.4474C319.603 76.4287 319.72 76.5152 319.738 76.6405C319.755 76.7554 319.684 76.8631 319.575 76.8946L319.545 76.9012L316.512 77.3518C316.386 77.3705 316.269 77.284 316.251 77.1587C316.233 77.0438 316.305 76.9361 316.413 76.9046L316.444 76.898L319.477 76.4474Z" fill="#604346"/>
<path d="M329.188 88.5666C329.286 88.4856 329.431 88.4991 329.512 88.5966C329.593 88.6941 329.579 88.8387 329.482 88.9196C328.945 89.3647 328.364 89.7319 327.746 90.0267C326 90.8589 324.169 91.0552 322.578 90.8966L322.438 90.8813C322.416 90.8787 322.395 90.876 322.374 90.8734L322.256 90.8566C322.239 90.8541 322.227 90.852 322.218 90.8504C322.093 90.8281 322.01 90.709 322.032 90.5842C322.054 90.4595 322.173 90.3764 322.298 90.3986L322.384 90.4119C322.444 90.4203 322.525 90.4301 322.624 90.44C324.138 90.591 325.889 90.4033 327.548 89.6126C328.133 89.3338 328.681 88.9869 329.188 88.5666Z" fill="#604346"/>
<path d="M333.56 77.037C333.655 77.0438 333.726 77.1261 333.72 77.2209C333.714 77.3062 333.646 77.3725 333.564 77.38L333.536 77.3803C333.399 77.3752 333.218 77.4065 333.045 77.5055C332.694 77.706 332.499 78.1221 332.55 78.8477L332.552 78.8699L332.603 78.873C333.054 78.9072 333.357 79.1007 333.474 79.4173L333.491 79.4658C333.59 79.7969 333.474 80.2028 333.216 80.513C333.155 80.586 333.046 80.5959 332.973 80.5351C332.9 80.4742 332.89 80.3657 332.951 80.2927C333.141 80.0649 333.224 79.7745 333.161 79.5649C333.092 79.3359 332.851 79.1993 332.4 79.2125C332.311 79.2151 332.234 79.149 332.224 79.0602C332.113 78.0981 332.368 77.4961 332.874 77.2068C333.088 77.0844 333.305 77.0384 333.487 77.0356L333.56 77.037Z" fill="#604346"/>
<path d="M325.557 77.6367C325.682 77.6137 325.802 77.6961 325.825 77.8207C325.944 78.4684 325.534 79.0906 324.904 79.2067C324.273 79.3222 323.669 78.8859 323.55 78.2382C323.527 78.1136 323.609 77.994 323.734 77.9711C323.859 77.9483 323.979 78.0308 324.002 78.1554C324.076 78.5581 324.444 78.8243 324.82 78.7554C325.197 78.686 325.447 78.3065 325.373 77.9039C325.35 77.7793 325.433 77.6596 325.557 77.6367Z" fill="#604346"/>
<path d="M319.261 78.7919C319.386 78.769 319.506 78.8514 319.529 78.976C319.648 79.6237 319.238 80.2458 318.608 80.3619C317.977 80.4775 317.373 80.0412 317.254 79.3935C317.231 79.2688 317.314 79.1493 317.438 79.1264C317.563 79.1035 317.683 79.1861 317.706 79.3107C317.78 79.7134 318.149 79.9796 318.525 79.9107C318.901 79.8413 319.151 79.4618 319.077 79.0591C319.054 78.9345 319.137 78.8149 319.261 78.7919Z" fill="#604346"/>
<path fill-rule="evenodd" clip-rule="evenodd" d="M343.751 143.075C343.751 143.075 318.034 145.015 316.287 142.487C315.518 141.374 314.967 146.933 313.557 156.106C315.829 160.301 320.136 164.921 325.832 164.763C335.145 164.504 343.671 162.204 344.63 155.978C345.32 151.498 344.746 146.707 343.751 143.075Z" fill="#4E5C93"/>
<path fill-rule="evenodd" clip-rule="evenodd" d="M315.893 140.143L315.64 143.234C315.64 143.234 318.118 143.662 326.776 144.104C335.561 144.553 343.729 143.54 343.729 143.54L343.768 140.727C343.768 140.727 326.091 141.248 315.893 140.143Z" fill="black"/>
<path fill-rule="evenodd" clip-rule="evenodd" d="M319.791 143.258L319.825 141.005C319.835 140.371 320.357 139.877 320.963 139.934C322.415 140.071 324.982 140.268 326.851 140.168C327.462 140.136 327.962 140.664 327.933 141.302L327.83 143.601C327.805 144.138 327.41 144.576 326.897 144.636C325.678 144.779 323.334 144.914 320.63 144.341C320.138 144.237 319.783 143.783 319.791 143.258Z" fill="#E4EBF7"/>
<path fill-rule="evenodd" clip-rule="evenodd" d="M320.737 142.991L320.758 141.398C320.763 140.949 321.165 140.601 321.632 140.643C322.752 140.744 324.733 140.891 326.175 140.826C326.646 140.804 327.033 141.18 327.013 141.631L326.939 143.257C326.922 143.637 326.618 143.946 326.223 143.987C325.284 144.085 323.475 144.173 321.388 143.76C321.008 143.685 320.733 143.362 320.737 142.991Z" fill="black"/>
<path fill-rule="evenodd" clip-rule="evenodd" d="M283.438 156.494C283.475 160.457 286.643 163.682 290.609 163.795L334.828 165.051C339.962 165.197 344.189 161.055 344.142 155.925C344.093 150.796 339.789 146.733 334.659 146.976L290.471 149.06C286.507 149.247 283.401 152.531 283.438 156.494Z" fill="#4E5C93"/>
<path fill-rule="evenodd" clip-rule="evenodd" d="M294.949 209.718L298.281 157.938C298.551 153.745 295.226 150.198 291.027 150.2C286.972 150.202 283.699 153.522 283.752 157.578L284.421 209.538C284.421 209.538 288.597 212.025 294.949 209.718Z" fill="#4E5C93"/>
<path fill-rule="evenodd" clip-rule="evenodd" d="M340.952 138.553C344.268 138.9 347.262 136.558 347.719 133.259L351.572 105.479C352.123 101.499 349.265 97.8528 345.264 97.4343C341.262 97.0158 337.709 99.9911 337.424 103.999L335.43 131.974C335.193 135.296 337.636 138.206 340.952 138.553Z" fill="#ADC6FF"/>
<path fill-rule="evenodd" clip-rule="evenodd" d="M343.811 140.531C333.42 141.565 319.86 142.398 315.613 139.956C313.763 138.893 313.935 137.439 314.837 135.047C314.837 135.047 310.548 110.219 311.324 97.4284C314.773 95.8783 316.923 95.6034 320.896 94.8445C322.891 94.4636 326.137 96.2922 327.896 96.1366C331.069 95.8553 334.765 94.1584 335.527 94.3278C343.23 96.0366 347.541 97.9455 347.541 97.9455C347.541 97.9455 345.616 124.56 342.9 134.25C346.263 140.71 343.811 140.531 343.811 140.531Z" fill="#ADC6FF"/>
<path fill-rule="evenodd" clip-rule="evenodd" d="M322.205 92.605L319.963 95.6198L322.808 100.874L327.12 96.2227L322.205 92.605Z" fill="#ADC6FF"/>
<path fill-rule="evenodd" clip-rule="evenodd" d="M327.206 96.2226L334.757 91.7651L336.26 94.5L331.604 100.357L327.206 96.2226Z" fill="#ADC6FF"/>
<path fill-rule="evenodd" clip-rule="evenodd" d="M324.091 99.1069L327.292 96.395L330.569 99.6681L328.745 103.683L325.144 103.636L324.091 99.1069Z" fill="#253368"/>
<path fill-rule="evenodd" clip-rule="evenodd" d="M325.135 103.704L328.69 103.828L331.063 129.043C331.083 129.259 331.019 129.475 330.884 129.644L325.661 136.184C325.285 136.655 324.551 136.589 324.264 136.059L320.393 128.877C320.3 128.706 320.27 128.509 320.308 128.318L325.135 103.704Z" fill="#253368"/>
<path d="M335.669 95.0557C335.747 94.9553 335.891 94.9367 335.992 95.014C336.083 95.0844 336.107 95.2098 336.052 95.3074L336.033 95.3358L332.074 100.466C332.001 100.562 331.867 100.583 331.768 100.52L331.742 100.5L327.135 96.5367L323.002 100.745C322.903 100.847 322.738 100.833 322.655 100.724L322.638 100.697L319.85 95.732C319.788 95.6215 319.827 95.4816 319.938 95.4196C320.039 95.3628 320.165 95.3911 320.233 95.4814L320.25 95.5075L322.888 100.206L326.958 96.062C327.034 95.9843 327.153 95.9719 327.243 96.0277L327.271 96.0489L331.858 99.9945L335.669 95.0557Z" fill="#597EF7"/>
<path d="M328.5 103.688C328.563 103.688 328.614 103.739 328.614 103.802C328.614 103.858 328.575 103.904 328.523 103.915L328.5 103.917H325.05C324.987 103.917 324.936 103.866 324.936 103.802C324.936 103.747 324.975 103.701 325.027 103.69L325.05 103.688H328.5Z" fill="#597EF7"/>
<path d="M312.122 111.773C312.249 111.76 312.361 111.852 312.373 111.978L312.452 112.769C313.106 119.313 313.777 124.821 314.431 129.334L314.571 130.289C314.732 131.368 314.883 132.324 315.022 133.159L315.155 133.934L315.282 134.647C315.302 134.752 315.316 134.825 315.324 134.866C315.334 134.922 315.325 134.979 315.296 135.027L315.256 135.099C315.239 135.13 315.219 135.169 315.196 135.215C315.118 135.371 315.041 135.547 314.968 135.739C314.688 136.48 314.564 137.232 314.681 137.923C314.839 138.853 315.423 139.595 316.549 140.097C316.665 140.149 316.717 140.285 316.665 140.4C316.613 140.516 316.477 140.568 316.362 140.516C315.097 139.952 314.412 139.082 314.229 138C314.095 137.216 314.232 136.387 314.538 135.577C314.601 135.411 314.667 135.257 314.734 135.115L314.809 134.962L314.857 134.871L314.809 134.614C314.77 134.401 314.726 134.155 314.678 133.876L314.569 133.234C314.41 132.277 314.235 131.162 314.047 129.886L313.898 128.852C313.242 124.253 312.569 118.657 311.916 112.023C311.904 111.897 311.996 111.785 312.122 111.773Z" fill="#597EF7"/>
<path fill-rule="evenodd" clip-rule="evenodd" d="M308.029 135.261L310.301 143.823L342.278 138.731C345.733 138.141 347.995 134.787 347.243 131.366C346.491 127.946 343.031 125.846 339.645 126.757L308.029 135.261Z" fill="#ADC6FF"/>
<path d="M312.759 134.628C312.872 134.599 312.986 134.66 313.028 134.765L313.038 134.794L315.037 142.774C315.068 142.897 314.993 143.021 314.87 143.052C314.757 143.08 314.643 143.02 314.601 142.915L314.591 142.885L312.592 134.906C312.561 134.783 312.636 134.658 312.759 134.628Z" fill="#597EF7"/>
<path fill-rule="evenodd" clip-rule="evenodd" d="M311.703 140.727C311.318 140.811 311.074 141.192 311.158 141.578C311.243 141.963 311.624 142.207 312.01 142.123C312.396 142.038 312.639 141.657 312.555 141.271C312.47 140.886 312.089 140.642 311.703 140.727Z" fill="white"/>
<path d="M337.406 126.808C337.528 126.774 337.655 126.845 337.689 126.967C337.72 127.079 337.663 127.195 337.559 127.239L337.53 127.25L308.309 135.422L310.469 143.561L344.413 137.656C344.527 137.636 344.637 137.704 344.671 137.812L344.679 137.842C344.698 137.957 344.63 138.066 344.522 138.1L344.492 138.108L310.341 144.049C310.234 144.068 310.13 144.01 310.09 143.913L310.079 143.882L307.808 135.321C307.778 135.209 307.835 135.095 307.938 135.051L307.968 135.041L337.406 126.808Z" fill="#597EF7"/>
<path d="M337.569 104.995C337.685 104.999 337.778 105.089 337.789 105.201L337.79 105.233L336.971 127.536C336.966 127.663 336.859 127.762 336.733 127.757C336.617 127.753 336.524 127.663 336.513 127.55L336.512 127.519L337.331 105.216C337.336 105.089 337.442 104.99 337.569 104.995Z" fill="#597EF7"/>
<path fill-rule="evenodd" clip-rule="evenodd" d="M295.318 148.499L320.226 145.601L296.005 137.182L275.405 141.62L295.318 148.499Z" fill="#4E5C93"/>
<path fill-rule="evenodd" clip-rule="evenodd" d="M294.455 146.738L312.545 144.633L295.38 138.502L279.993 141.742L294.455 146.738Z" fill="#253368"/>
<path fill-rule="evenodd" clip-rule="evenodd" d="M320.158 146.876L320.23 145.61L294.817 148.365L295.189 149.735L320.158 146.876Z" fill="#FF7A46"/>
<path d="M291.903 139.489C291.922 139.442 291.972 139.416 292.021 139.426L292.041 139.432L305.973 145.192C306.027 145.214 306.053 145.276 306.03 145.33C306.011 145.377 305.961 145.403 305.912 145.394L305.892 145.388L291.96 139.628C291.906 139.605 291.88 139.543 291.903 139.489Z" fill="#CCD7EE"/>
<path d="M293.809 138.816C293.828 138.768 293.878 138.742 293.926 138.75L293.947 138.756L309.537 144.898C309.592 144.919 309.619 144.981 309.597 145.035C309.578 145.083 309.529 145.11 309.48 145.101L309.459 145.095L293.869 138.953C293.814 138.932 293.788 138.87 293.809 138.816Z" fill="#CCD7EE"/>
<path d="M291.638 140.766C291.658 140.719 291.708 140.694 291.756 140.704L291.777 140.71L303.469 145.735C303.522 145.758 303.547 145.82 303.524 145.874C303.504 145.921 303.454 145.946 303.405 145.936L303.385 145.93L291.693 140.905C291.639 140.882 291.614 140.82 291.638 140.766Z" fill="#CCD7EE"/>
<path d="M288.369 140.957C288.389 140.91 288.44 140.885 288.488 140.895L288.508 140.901L300.2 145.926C300.254 145.949 300.279 146.011 300.256 146.065C300.235 146.112 300.185 146.137 300.137 146.127L300.116 146.121L288.425 141.096C288.371 141.073 288.346 141.01 288.369 140.957Z" fill="#CCD7EE"/>
<path d="M285.343 141.344C285.363 141.297 285.413 141.272 285.462 141.282L285.482 141.289L297.174 146.314C297.228 146.337 297.252 146.399 297.229 146.453C297.209 146.5 297.159 146.525 297.11 146.515L297.09 146.508L285.398 141.484C285.344 141.461 285.319 141.398 285.343 141.344Z" fill="#CCD7EE"/>
<path d="M309.638 143.735C309.696 143.73 309.747 143.773 309.752 143.832C309.756 143.883 309.724 143.928 309.676 143.942L309.655 143.946L294.197 145.211C294.138 145.215 294.087 145.172 294.082 145.114C294.078 145.063 294.111 145.017 294.158 145.003L294.179 144.999L309.638 143.735Z" fill="#CCD7EE"/>
<path d="M306.275 142.393C306.333 142.388 306.385 142.432 306.389 142.49C306.393 142.541 306.361 142.587 306.313 142.6L306.292 142.604L290.834 143.869C290.775 143.874 290.724 143.83 290.719 143.772C290.715 143.721 290.748 143.675 290.795 143.661L290.816 143.658L306.275 142.393Z" fill="#CCD7EE"/>
<path d="M302.079 141.418C302.138 141.414 302.189 141.457 302.194 141.515C302.198 141.566 302.165 141.612 302.118 141.626L302.096 141.63L286.638 142.894C286.58 142.899 286.529 142.856 286.524 142.797C286.52 142.746 286.552 142.701 286.6 142.687L286.621 142.683L302.079 141.418Z" fill="#CCD7EE"/>
<path d="M299.307 139.175C299.365 139.17 299.416 139.213 299.421 139.272C299.425 139.323 299.392 139.368 299.345 139.382L299.324 139.386L283.866 140.651C283.807 140.655 283.756 140.612 283.751 140.554C283.747 140.503 283.78 140.457 283.827 140.443L283.848 140.439L299.307 139.175Z" fill="#CCD7EE"/>
<path fill-rule="evenodd" clip-rule="evenodd" d="M295.17 149.736L294.054 149.786L275.219 143.016L268.832 110.481L289.215 115.422L295.17 149.736Z" fill="#FF7A46"/>
<path fill-rule="evenodd" clip-rule="evenodd" d="M294.013 149.787L274.151 142.657C273.969 142.591 273.835 142.436 273.798 142.247L267.625 110.978C267.547 110.585 267.904 110.244 268.294 110.339L287.627 115.054C287.839 115.105 288 115.278 288.037 115.492L294.013 149.787Z" fill="#FAAD14"/>
<path fill-rule="evenodd" clip-rule="evenodd" d="M297.241 135.37L308.063 135.068L309.615 141.098C307.588 142.519 301.466 141.485 301.466 141.485L297.284 143.552C296.637 143.811 296.483 143.38 296.163 143.38C295.301 143.38 295.301 142.476 295.301 142.476C295.003 142.335 294.525 142.562 294.395 141.744C294.395 141.744 293.791 141.701 293.748 140.969C293.726 140.582 297.241 135.37 297.241 135.37Z" fill="#997C79"/>
<path d="M302.513 139.378C302.607 139.361 302.696 139.423 302.713 139.517C302.729 139.601 302.68 139.682 302.602 139.71L302.575 139.717L299.781 140.224L296.714 143.202C296.654 143.261 296.561 143.267 296.494 143.219L296.471 143.199C296.412 143.138 296.406 143.046 296.454 142.979L296.474 142.956L299.578 139.941C299.597 139.923 299.619 139.91 299.643 139.901L299.667 139.895L302.513 139.378Z" fill="#604346"/>
<path d="M301.02 137.921C301.11 137.889 301.209 137.935 301.241 138.025C301.269 138.105 301.234 138.193 301.162 138.233L301.136 138.245L298.762 139.091L295.859 142.247C295.801 142.31 295.709 142.32 295.64 142.277L295.615 142.258C295.553 142.2 295.542 142.108 295.586 142.039L295.605 142.014L298.537 138.828C298.549 138.814 298.564 138.802 298.58 138.793L298.606 138.782L301.02 137.921Z" fill="#604346"/>
<path d="M299.58 136.55C299.666 136.509 299.769 136.545 299.81 136.631C299.847 136.708 299.821 136.799 299.753 136.846L299.729 136.86L297.868 137.748L295.09 141.205C295.037 141.271 294.945 141.288 294.874 141.249L294.848 141.232C294.782 141.179 294.765 141.087 294.804 141.016L294.821 140.99L297.623 137.502C297.634 137.488 297.647 137.476 297.661 137.467L297.684 137.454L299.58 136.55Z" fill="#604346"/>
<path fill-rule="evenodd" clip-rule="evenodd" d="M191.365 86.0047L191.841 73.9077L202.742 74.2448L203.61 85.7863C203.872 89.2728 201.164 92.2708 197.666 92.3686C194.117 92.4682 191.226 89.5475 191.365 86.0047Z" fill="#FFC999"/>
<path fill-rule="evenodd" clip-rule="evenodd" d="M188.985 72.7057C188.985 72.7057 187.266 71.0374 186.602 72.2178C185.938 73.3976 187.296 77.4992 189.103 77.5499C191.516 77.617 188.985 72.7057 188.985 72.7057Z" fill="#FFC999"/>
<path fill-rule="evenodd" clip-rule="evenodd" d="M199.815 82.9816C199.815 82.9816 196.367 85.9876 191.589 83.2647C188.15 81.3045 187.499 73.8399 187.978 68.3313C188.249 65.2145 189.631 63.4992 192.633 62.486C195.637 61.4729 203.855 61.1874 204.191 70.3245C204.566 80.5013 199.815 82.9816 199.815 82.9816Z" fill="#FFC999"/>
<path d="M193.284 69.612C193.363 69.5894 193.444 69.6274 193.479 69.6982L193.49 69.7263L194.04 71.6432C194.044 71.6591 194.046 71.6755 194.046 71.6919L194.044 71.7165L193.202 76.7592L195.194 76.7149C195.277 76.7131 195.347 76.772 195.362 76.8509L195.364 76.8779C195.366 76.9607 195.307 77.0307 195.228 77.0454L195.201 77.0482L193.009 77.0971C192.913 77.0992 192.838 77.0223 192.838 76.9309L192.84 76.9031L193.708 71.699L193.169 69.8181C193.147 69.7394 193.185 69.6578 193.256 69.6228L193.284 69.612Z" fill="#DD936F"/>
<path d="M196.762 78.1129C196.886 78.0769 197.015 78.1479 197.051 78.2713C197.087 78.3948 197.016 78.524 196.892 78.5599L196.78 78.5893C196.755 78.5955 196.726 78.6023 196.694 78.6096C196.537 78.6454 196.355 78.6811 196.148 78.7144C195.237 78.8603 194.174 78.9131 192.993 78.8189C192.865 78.8087 192.769 78.6965 192.779 78.5684C192.789 78.4402 192.902 78.3446 193.03 78.3548C194.173 78.4459 195.199 78.3949 196.074 78.2546C196.231 78.2294 196.373 78.2027 196.499 78.1759L196.667 78.1376C196.712 78.1267 196.744 78.1182 196.762 78.1129Z" fill="#FF7946"/>
<path fill-rule="evenodd" clip-rule="evenodd" d="M203.274 74.274L204.944 70.6968C204.944 70.6968 205.911 65.5848 204.665 63.4393C202.731 60.1098 198.555 60.3347 196.046 59.5105C193.537 58.6859 193.534 57.8516 192.532 58.0225C191.531 58.1933 187.723 61.0321 187.377 63.8831C187.073 66.3899 187.913 72.7249 187.913 72.7249C187.913 72.7249 188.434 67.0743 188.929 65.5709C190.868 64.6876 198.008 64.418 201.018 65.2403C201.018 65.2403 201.338 67.1474 201.531 68.4921C203.164 69.5816 203.274 74.274 203.274 74.274Z" fill="#253368"/>
<path d="M202.726 78.6623C202.772 78.5823 202.874 78.5544 202.954 78.6C203.034 78.6457 203.062 78.7475 203.016 78.8274C202.241 80.1855 201.412 81.2845 200.535 82.1411C197.882 84.7356 195.044 84.9788 192.438 83.8329C192.125 83.6953 191.844 83.5478 191.6 83.4C191.536 83.361 191.478 83.324 191.425 83.2895L191.307 83.2086C191.302 83.2048 191.297 83.2015 191.294 83.1987C191.22 83.1436 191.205 83.0392 191.26 82.9654C191.315 82.8917 191.42 82.8766 191.493 82.9317L191.538 82.9635C191.591 83.0004 191.67 83.0522 191.773 83.1149C192.005 83.2555 192.273 83.3963 192.572 83.5278C195.063 84.623 197.756 84.3922 200.302 81.9029C201.155 81.0688 201.966 79.9944 202.726 78.6623Z" fill="#DD936F"/>
<path d="M193.497 71.3818L195.111 71.3963C195.295 71.3979 195.444 71.5485 195.442 71.7326C195.44 71.9045 195.309 72.0448 195.142 72.0614L195.105 72.063L193.491 72.0486C193.307 72.0469 193.159 71.8963 193.16 71.7122C193.162 71.5404 193.293 71.4001 193.461 71.3835L193.497 71.3818Z" fill="#253368"/>
<path d="M194.03 72.2549C194.349 72.2264 194.674 72.2949 194.993 72.4242C195.152 72.4887 195.276 72.5539 195.351 72.6011C195.508 72.6984 195.555 72.904 195.458 73.0603C195.361 73.2166 195.155 73.2643 194.998 73.167L194.948 73.1383C194.898 73.1111 194.828 73.0767 194.742 73.0419C194.513 72.9491 194.286 72.9014 194.09 72.919C193.938 72.9326 193.811 72.9838 193.703 73.0814L193.663 73.1202C193.536 73.2539 193.325 73.2597 193.191 73.1331C193.057 73.0065 193.052 72.7955 193.178 72.6618C193.412 72.4157 193.704 72.2841 194.03 72.2549Z" fill="#253368"/>
<path d="M190.108 68.3743C190.827 68.3209 191.58 68.4569 192.322 68.7144C192.698 68.8452 192.99 68.977 193.162 69.0687C193.379 69.1841 193.461 69.4533 193.346 69.6699C193.23 69.8865 192.961 69.9686 192.744 69.8532L192.674 69.8181C192.643 69.803 192.604 69.7847 192.557 69.7638C192.4 69.6925 192.222 69.6209 192.029 69.554C191.393 69.333 190.754 69.2176 190.174 69.2607C189.729 69.2938 189.339 69.4202 189.012 69.6509C188.811 69.7924 188.534 69.7445 188.392 69.5439C188.25 69.3433 188.298 69.0661 188.499 68.9246C188.967 68.5952 189.51 68.4188 190.108 68.3743Z" fill="#253368"/>
<path d="M197.561 68.4973C198.279 68.4439 199.032 68.5799 199.774 68.8375C200.15 68.9683 200.442 69.1 200.614 69.1918C200.831 69.3072 200.913 69.5763 200.798 69.7929C200.682 70.0096 200.413 70.0916 200.196 69.9762L200.126 69.9412C200.095 69.9261 200.056 69.9077 200.01 69.8868C199.852 69.8155 199.674 69.7439 199.482 69.677C198.845 69.4561 198.206 69.3406 197.627 69.3837C197.181 69.4169 196.792 69.5433 196.464 69.774C196.263 69.9154 195.986 69.8675 195.844 69.667C195.702 69.4664 195.75 69.1891 195.951 69.0476C196.419 68.7183 196.962 68.5418 197.561 68.4973Z" fill="#253368"/>
<path d="M195.333 79.9746C195.425 79.9743 195.5 80.0486 195.501 80.1407C195.501 80.2235 195.441 80.2925 195.362 80.3057L195.335 80.308L194.02 80.3131C193.928 80.3135 193.853 80.2391 193.853 80.1471C193.852 80.0642 193.912 79.9952 193.992 79.982L194.019 79.9797L195.333 79.9746Z" fill="#DD936F"/>
<path d="M203.731 71.3345C203.916 71.3327 204.066 71.4806 204.068 71.6647C204.07 71.8365 203.941 71.9792 203.774 71.9989L203.738 72.0012L201.091 72.0263C200.907 72.0281 200.756 71.8803 200.754 71.6962C200.752 71.5243 200.881 71.3816 201.048 71.3619L201.085 71.3596L203.731 71.3345Z" fill="#253368"/>
<path fill-rule="evenodd" clip-rule="evenodd" d="M200.888 71.1714L195.834 71.1914C195.481 71.1928 195.197 71.4787 195.2 71.8312C195.208 72.4886 195.249 73.5427 195.424 74.4446C195.63 75.5085 196.591 76.1562 197.675 76.2023C199.028 76.2591 200.243 76.2558 200.855 75.5518C201.786 74.4791 201.55 72.72 201.526 71.7879C201.518 71.4456 201.231 71.17 200.888 71.1714Z" fill="white"/>
<path d="M200.888 71.0606L195.834 71.0806C195.419 71.0822 195.085 71.4188 195.089 71.8325C195.1 72.7809 195.166 73.6991 195.314 74.4659C195.523 75.5415 196.486 76.2631 197.67 76.3135L197.917 76.3228C199.602 76.3786 200.409 76.2345 200.938 75.6248C201.339 75.1634 201.557 74.5609 201.641 73.8225C201.689 73.3926 201.692 73.0027 201.664 72.3991L201.638 71.8212C201.638 71.8103 201.638 71.7985 201.637 71.7852C201.627 71.3832 201.291 71.0589 200.888 71.0606ZM195.835 71.3027L200.888 71.2826C201.171 71.2815 201.408 71.5098 201.415 71.7908L201.426 72.0704L201.436 72.2773C201.469 72.9468 201.47 73.3522 201.42 73.7977C201.341 74.4951 201.138 75.0564 200.77 75.4793C200.28 76.0448 199.462 76.1664 197.679 76.0916C196.593 76.0454 195.72 75.3917 195.533 74.4238C195.387 73.6727 195.322 72.7662 195.311 71.8301C195.308 71.54 195.543 71.3038 195.835 71.3027Z" fill="#253368"/>
<path fill-rule="evenodd" clip-rule="evenodd" d="M193.006 71.147L187.284 71.1698C187.075 72.0056 187.293 75.2345 188.277 75.9227C189.595 76.6058 192.251 76.2971 192.661 75.5945C193.284 74.5282 193.507 72.4982 193.493 71.6247C193.489 71.3588 193.272 71.146 193.006 71.147Z" fill="white"/>
<path d="M193.005 71.0356L187.284 71.0585C187.233 71.0587 187.189 71.0933 187.176 71.1426C186.873 72.3572 187.334 75.3987 188.213 76.0134C189.534 76.699 192.29 76.4497 192.757 75.6501C193.296 74.7265 193.624 72.8609 193.604 71.6226C193.599 71.2958 193.332 71.0345 193.005 71.0356ZM187.373 71.2801L193.006 71.2577C193.211 71.257 193.378 71.4208 193.381 71.6262C193.401 72.8277 193.08 74.6564 192.565 75.5383C192.169 76.2161 189.544 76.4537 188.328 75.8239L188.285 75.7907C187.568 75.1958 187.147 72.5271 187.363 71.3325L187.373 71.2801Z" fill="#253368"/>
<path d="M201.426 70.8708C201.61 70.8652 201.764 71.0099 201.769 71.1939C201.774 71.3657 201.649 71.511 201.482 71.5342L201.446 71.5372L195.182 71.7262C194.997 71.7318 194.844 71.5871 194.838 71.4031C194.833 71.2313 194.959 71.086 195.125 71.0629L195.162 71.0598L201.426 70.8708Z" fill="#253368"/>
<path d="M187.24 70.9624L193.38 71.0243C193.564 71.0262 193.712 71.1769 193.71 71.3611C193.709 71.5329 193.577 71.673 193.41 71.6895L193.373 71.691L187.234 71.6291C187.049 71.6273 186.901 71.4765 186.903 71.2924C186.905 71.1206 187.037 70.9804 187.204 70.964L187.24 70.9624Z" fill="#253368"/>
<path fill-rule="evenodd" clip-rule="evenodd" d="M203.984 71.4035C204.6 70.7116 205.593 70.4839 206.335 71.2191C207.53 72.4031 206.673 77.0373 203.604 77.3637C202.428 77.2533 203.022 72.4832 203.984 71.4035Z" fill="#FFC999"/>
<path d="M205.298 71.7669C205.383 71.7307 205.481 71.77 205.517 71.8546C205.553 71.9393 205.514 72.0372 205.429 72.0734L205.386 72.0936C205.359 72.107 205.325 72.1252 205.285 72.1483C205.172 72.2132 205.059 72.2915 204.954 72.3827C204.581 72.7067 204.409 73.0981 204.529 73.572C204.561 73.6985 204.611 73.7578 204.736 73.8287L204.814 73.8706C205.073 74.0058 205.189 74.1267 205.225 74.4029C205.279 74.8217 205.088 75.1454 204.751 75.3735C204.58 75.4895 204.41 75.5577 204.292 75.5892C204.203 75.6127 204.111 75.5597 204.088 75.4707C204.064 75.3817 204.117 75.2905 204.206 75.2669L204.26 75.2497C204.276 75.244 204.294 75.2372 204.314 75.229C204.4 75.1946 204.486 75.1508 204.564 75.0975C204.806 74.9338 204.93 74.7235 204.894 74.4456C204.877 74.3133 204.839 74.2643 204.7 74.1878L204.625 74.1479C204.392 74.0254 204.269 73.9032 204.206 73.6541C204.051 73.042 204.276 72.5305 204.735 72.1312C204.857 72.0248 204.988 71.9344 205.118 71.8593C205.197 71.8139 205.26 71.7832 205.298 71.7669Z" fill="#DD936F"/>
<path fill-rule="evenodd" clip-rule="evenodd" d="M191.421 72.6793C191.442 73.1859 191.145 73.6086 190.759 73.624C190.373 73.6389 190.043 73.2408 190.023 72.7342C190.003 72.2281 190.3 71.8049 190.686 71.79C191.072 71.7746 191.401 72.1727 191.421 72.6793Z" fill="#253368"/>
<path fill-rule="evenodd" clip-rule="evenodd" d="M198.693 72.7862C198.713 73.2928 198.416 73.7156 198.03 73.7309C197.644 73.7458 197.315 73.3477 197.295 72.8412C197.275 72.3351 197.572 71.9118 197.958 71.8969C198.344 71.8815 198.673 72.2796 198.693 72.7862Z" fill="#253368"/>
<path fill-rule="evenodd" clip-rule="evenodd" d="M174.836 216.295C169.981 217.025 167.712 215.031 167.712 215.031C167.712 215.031 167.567 213.034 168.512 211.753C169.696 210.149 174.479 210.245 176.735 206.492C179.598 201.732 177.527 195.265 177.527 195.265C179.261 192.71 185.442 194.159 185.442 194.159C185.442 194.159 185.922 199.264 186.392 202.381C186.671 204.234 188.252 206.967 187.777 209.931C187.777 209.931 186.629 211.394 182.197 212.659C179.183 213.519 178.517 215.742 174.836 216.295Z" fill="#253368"/>
<path fill-rule="evenodd" clip-rule="evenodd" d="M223 216.295C227.855 217.025 230.124 215.031 230.124 215.031C230.124 215.031 230.269 213.034 229.324 211.753C228.14 210.149 223.357 210.245 221.101 206.492C218.238 201.732 220.309 195.265 220.309 195.265C218.575 192.71 212.394 194.159 212.394 194.159C212.394 194.159 211.914 199.264 211.444 202.381C211.165 204.234 209.584 206.967 210.059 209.931C210.059 209.931 211.207 211.394 215.639 212.659C218.653 213.519 219.32 215.742 223 216.295Z" fill="#253368"/>
<path fill-rule="evenodd" clip-rule="evenodd" d="M176.016 200.355L167.516 156.4C166.691 152.636 169.22 148.958 173.033 148.376C176.715 147.814 180.146 150.368 180.66 154.053L187.239 198.306C187.239 198.306 183.859 201.986 176.016 200.355Z" fill="#ADC6FF"/>
<path fill-rule="evenodd" clip-rule="evenodd" d="M167.856 158.282C169.617 161.538 173.601 162.879 176.975 161.349L193.699 151.887C197.691 149.686 201.242 143.472 198.777 139.64C198.777 139.64 194.09 131.005 185.902 135.513L170.187 149.049C165.956 152.352 167.856 158.282 167.856 158.282Z" fill="#ADC6FF"/>
<path fill-rule="evenodd" clip-rule="evenodd" d="M221.43 200.776L229.931 156.4C230.756 152.636 228.227 148.958 224.414 148.376C220.731 147.814 217.3 150.368 216.787 154.053L210.208 199.148C210.208 199.148 215.343 201.984 221.43 200.776Z" fill="#ADC6FF"/>
<path fill-rule="evenodd" clip-rule="evenodd" d="M229.591 158.282C227.83 161.538 223.846 162.879 220.472 161.349L203.747 151.887C199.756 149.686 196.204 143.472 198.669 139.64C198.669 139.64 203.357 131.005 211.544 135.513L227.26 149.049C231.49 152.352 229.591 158.282 229.591 158.282Z" fill="#ADC6FF"/>
<path fill-rule="evenodd" clip-rule="evenodd" d="M203.568 150.561C203.568 150.561 195.94 151.114 193.832 150.334C190.447 149.081 185.487 146.114 183.219 142.606C183.011 137.56 185.17 131.94 185.17 131.94L185.534 128.909C185.534 128.909 196.8 129.146 210.538 129.146C210.617 130.648 210.951 132.484 210.951 132.484C210.951 132.484 213.303 137.71 213.303 142.928C213.303 142.928 208.673 150.344 203.568 150.561Z" fill="#ADC6FF"/>
<path d="M186.407 131.905L189.089 131.908L190.488 131.912C193.996 131.924 197.73 131.949 201.53 131.984L205.303 132.022L209.927 132.077C210.044 132.079 210.137 132.175 210.135 132.291C210.134 132.407 210.038 132.5 209.922 132.499L206.739 132.46C205.566 132.446 204.322 132.433 203.024 132.42L200.105 132.393C197.506 132.37 194.947 132.353 192.482 132.341L189.55 132.33C188.467 132.327 187.418 132.326 186.407 132.326C186.291 132.326 186.196 132.232 186.196 132.115C186.196 131.999 186.291 131.905 186.407 131.905Z" fill="#597EF7"/>
<path d="M186.378 128.817L187.479 128.818C189.453 128.822 191.671 128.837 194.092 128.862L196.298 128.886C197.605 128.901 198.945 128.919 200.308 128.939L202.969 128.979C204.159 128.998 205.32 129.018 206.438 129.037L210.482 129.113C210.565 129.115 210.632 129.184 210.63 129.267C210.628 129.342 210.572 129.403 210.5 129.413L210.468 129.415L208.076 129.369L203.409 129.288L200.303 129.24C198.746 129.218 197.219 129.198 195.737 129.181L193.064 129.153C190.59 129.131 188.345 129.118 186.378 129.118C186.294 129.118 186.227 129.051 186.227 128.968C186.227 128.884 186.294 128.817 186.378 128.817Z" fill="#597EF7"/>
<path d="M198.46 129.08C198.576 129.079 198.671 129.172 198.672 129.288L198.731 136.901L198.767 142.856C198.78 145.395 198.788 147.559 198.789 149.254L198.789 149.569C198.789 149.686 198.694 149.78 198.578 149.78C198.462 149.78 198.367 149.686 198.367 149.569L198.362 146.541C198.357 145.003 198.348 143.24 198.337 141.29L198.285 133.62L198.251 129.292C198.25 129.176 198.344 129.081 198.46 129.08Z" fill="#597EF7"/>
<path fill-rule="evenodd" clip-rule="evenodd" d="M199.635 130.626C199.629 131.001 199.861 131.309 200.153 131.314C200.444 131.318 200.686 131.018 200.692 130.643C200.698 130.268 200.466 129.96 200.174 129.955C199.882 129.95 199.641 130.25 199.635 130.626Z" fill="white"/>
<path d="M202.143 131.927C202.259 131.915 202.362 131.999 202.374 132.115L202.395 132.347L202.415 132.6C202.428 132.776 202.441 132.97 202.454 133.179C202.573 135.19 202.573 137.43 202.374 139.681C202.183 141.844 201.304 142.882 199.462 143.133C199.347 143.148 199.24 143.068 199.225 142.952C199.209 142.837 199.29 142.731 199.405 142.715C201.041 142.493 201.78 141.62 201.954 139.644C202.151 137.416 202.151 135.196 202.033 133.204L202.01 132.849C202.003 132.736 201.995 132.629 201.987 132.529L201.955 132.158C201.943 132.042 202.027 131.939 202.143 131.927Z" fill="#597EF7"/>
<path d="M168.694 150.841C168.748 150.79 168.834 150.793 168.885 150.847C168.936 150.901 168.933 150.986 168.879 151.037L168.823 151.095C168.804 151.116 168.781 151.141 168.755 151.171C168.651 151.29 168.536 151.438 168.411 151.617C168.051 152.13 167.691 152.783 167.354 153.59C167.226 153.898 167.103 154.224 166.986 154.568C166.962 154.638 166.886 154.676 166.815 154.652C166.745 154.628 166.707 154.552 166.731 154.482C166.849 154.132 166.974 153.8 167.106 153.486C167.45 152.662 167.819 151.991 168.19 151.462C168.32 151.276 168.442 151.121 168.551 150.995L168.604 150.935C168.644 150.891 168.675 150.86 168.694 150.841Z" fill="#DD936F"/>
<path fill-rule="evenodd" clip-rule="evenodd" d="M173.744 149.634C171.862 149.634 170.333 148.118 170.319 146.238L170.139 121.835C170.116 118.854 172.527 116.423 175.511 116.417C178.817 116.409 181.349 119.35 180.846 122.613L177.129 146.733C176.872 148.402 175.434 149.634 173.744 149.634Z" fill="#FFC999"/>
<path fill-rule="evenodd" clip-rule="evenodd" d="M174.125 127.263C171.356 126.538 169.634 123.781 170.202 120.979L175.342 95.5941C176.098 91.8607 179.84 89.5294 183.529 90.4939C187.175 91.4471 189.296 95.2369 188.2 98.8381L180.655 123.616C179.811 126.386 176.929 127.995 174.125 127.263Z" fill="#FFC999"/>
<path fill-rule="evenodd" clip-rule="evenodd" d="M183.786 114.666L171.535 111.463L175.534 95.0105C176.41 91.4089 180.071 89.2246 183.661 90.163C187.25 91.1014 189.371 94.7973 188.368 98.3652L183.786 114.666Z" fill="#597EF7"/>
<path d="M171.331 111.41C171.358 111.307 171.457 111.242 171.56 111.254L171.588 111.26L183.839 114.463C183.952 114.492 184.019 114.607 183.989 114.72C183.962 114.823 183.863 114.888 183.76 114.875L183.732 114.87L171.482 111.667C171.369 111.638 171.302 111.523 171.331 111.41Z" fill="#253368"/>
<path fill-rule="evenodd" clip-rule="evenodd" d="M221.367 123.395C223.901 122.473 225.213 119.889 224.355 117.508L216.591 95.9356C215.449 92.7627 211.645 91.126 208.269 92.3546C204.933 93.5689 203.362 97.0934 204.81 97.5883L214.778 118.379C215.892 123.23 218.801 124.329 221.367 123.395Z" fill="#FFC999"/>
<path fill-rule="evenodd" clip-rule="evenodd" d="M212.912 114.749L224.654 110.011L218.586 94.2017C217.257 90.7416 213.346 89.0421 209.906 90.43C206.466 91.8182 204.834 95.7542 206.285 99.165L212.912 114.749Z" fill="#597EF7"/>
<path d="M224.574 109.815C224.682 109.772 224.804 109.824 224.848 109.932C224.888 110.03 224.848 110.142 224.757 110.193L224.732 110.206L212.99 114.943C212.882 114.987 212.759 114.935 212.716 114.827C212.676 114.728 212.716 114.617 212.806 114.565L212.832 114.553L224.574 109.815Z" fill="#253368"/>
<path fill-rule="evenodd" clip-rule="evenodd" d="M211.634 123.514L215.007 90.7971C214.283 90.0971 209.808 88.5062 203.227 87.3614C201.35 87.0346 199.46 90.0827 197.465 90.1779C196.117 90.2419 192.35 87.262 191.221 87.428C184.426 88.4258 181.706 89.6097 178.636 90.9858L183.985 122.909C183.985 122.909 181.908 127.167 185.406 128.838C211.05 128.838 210.165 129.022 210.165 129.022C210.165 129.022 213.361 128.077 211.634 123.514Z" fill="#597EF7"/>
<path fill-rule="evenodd" clip-rule="evenodd" d="M191.726 86.0522L189.39 88.4859L193.455 94.1281L197.789 89.7996L191.726 86.0522Z" fill="#597EF7"/>
<path d="M189.697 88.3093C189.786 88.2514 189.902 88.2687 189.97 88.3455L189.989 88.3703L193.475 93.6961L197.644 89.6821C197.72 89.6088 197.838 89.6041 197.919 89.6668L197.942 89.6876C198.016 89.7637 198.02 89.8808 197.958 89.9621L197.937 89.9854L193.585 94.1762C193.497 94.2608 193.358 94.2524 193.28 94.1637L193.262 94.1398L189.636 88.6008C189.572 88.5034 189.6 88.3729 189.697 88.3093Z" fill="#253368"/>
<path fill-rule="evenodd" clip-rule="evenodd" d="M203.767 86.0522L205.681 88.4859L202.038 94.1281L197.704 89.7996L203.767 86.0522Z" fill="#597EF7"/>
<path d="M205.076 88.3802C205.134 88.2795 205.263 88.245 205.364 88.3032C205.456 88.3565 205.493 88.4692 205.454 88.5652L205.441 88.5909L202.237 94.13C202.173 94.2393 202.031 94.2671 201.932 94.196L201.908 94.1762L197.556 89.9854C197.472 89.9047 197.469 89.7713 197.55 89.6876C197.624 89.6115 197.741 89.6025 197.824 89.6622L197.848 89.6821L202.006 93.686L205.076 88.3802Z" fill="#253368"/>
<path fill-rule="evenodd" clip-rule="evenodd" d="M198.871 94.3113C198.865 94.6861 199.114 94.9945 199.427 94.9995C199.739 95.0046 199.998 94.7047 200.004 94.3294C200.01 93.9545 199.761 93.6462 199.449 93.6412C199.135 93.6361 198.877 93.936 198.871 94.3113Z" fill="white"/>
<path fill-rule="evenodd" clip-rule="evenodd" d="M198.871 101.292C198.865 101.668 199.114 101.975 199.427 101.98C199.739 101.986 199.998 101.686 200.004 101.31C200.01 100.935 199.761 100.627 199.449 100.622C199.135 100.617 198.877 100.917 198.871 101.292Z" fill="white"/>
<path fill-rule="evenodd" clip-rule="evenodd" d="M198.871 108.756C198.865 109.131 199.114 109.439 199.427 109.444C199.739 109.449 199.998 109.15 200.004 108.774C200.01 108.399 199.761 108.091 199.449 108.086C199.135 108.081 198.877 108.381 198.871 108.756Z" fill="white"/>
<path fill-rule="evenodd" clip-rule="evenodd" d="M198.871 116.322C198.865 116.697 199.114 117.005 199.427 117.01C199.739 117.015 199.998 116.715 200.004 116.34C200.01 115.965 199.761 115.656 199.449 115.651C199.135 115.646 198.877 115.947 198.871 116.322Z" fill="white"/>
<path fill-rule="evenodd" clip-rule="evenodd" d="M198.871 125.056C198.865 125.431 199.114 125.739 199.427 125.744C199.739 125.749 199.998 125.449 200.004 125.074C200.01 124.699 199.761 124.391 199.449 124.386C199.135 124.381 198.877 124.681 198.871 125.056Z" fill="white"/>
<path d="M197.815 90.2993C197.921 90.2993 198.009 90.3785 198.023 90.4813L198.025 90.5099V128.524C198.025 128.64 197.931 128.735 197.815 128.735C197.708 128.735 197.62 128.655 197.606 128.553L197.604 128.524V90.5099C197.604 90.3936 197.699 90.2993 197.815 90.2993Z" fill="#253368"/>
<path d="M193.514 99.2344H185.675C185.556 99.2344 185.461 99.3316 185.464 99.4498L185.604 105.557C185.605 105.63 185.645 105.697 185.709 105.734L189.875 108.137C189.947 108.179 190.037 108.174 190.104 108.126L193.637 105.592C193.692 105.553 193.724 105.489 193.724 105.421V99.445C193.724 99.3287 193.63 99.2344 193.514 99.2344ZM193.303 99.6554V105.313L189.969 107.705L186.022 105.428L185.89 99.6554H193.303Z" fill="#253368"/>
<path d="M213.857 101.182C213.973 101.189 214.062 101.288 214.056 101.404L214.031 101.752L213.968 102.521C213.924 103.038 213.866 103.682 213.793 104.467L213.556 106.937C213.204 110.547 212.692 115.54 211.992 122.138L211.847 123.496L211.874 123.59C212.566 126.12 212.282 127.708 211.349 128.541L211.299 128.584C210.955 128.873 210.609 129.005 210.337 129.042L210.283 129.048H185.406C185.378 129.048 185.351 129.043 185.325 129.032C185.25 129.001 185.125 128.939 184.966 128.842C184.706 128.684 184.445 128.486 184.202 128.245C182.973 127.028 182.643 125.268 183.741 122.932L183.768 122.873L183.551 121.227L183.38 119.903L183.199 118.489C182.805 115.401 182.409 112.167 182.021 108.914L181.732 106.468C181.647 105.746 181.566 105.053 181.489 104.393L181.184 101.733C181.171 101.617 181.254 101.513 181.37 101.5C181.486 101.487 181.59 101.57 181.603 101.685L181.941 104.629C182.041 105.49 182.148 106.404 182.261 107.362L182.44 108.864C182.857 112.367 183.285 115.847 183.707 119.145L183.798 119.85C183.932 120.892 184.065 121.904 184.194 122.881C184.2 122.922 184.193 122.963 184.175 123C183.091 125.231 183.377 126.835 184.499 127.945C184.717 128.162 184.952 128.34 185.186 128.483C185.247 128.52 185.304 128.552 185.358 128.58L185.451 128.627L210.262 128.628C210.296 128.625 210.36 128.612 210.445 128.585L210.489 128.571C210.672 128.507 210.855 128.407 211.027 128.262C211.873 127.548 212.142 126.079 211.431 123.571C211.423 123.545 211.421 123.518 211.424 123.491L212.163 116.49C212.538 112.889 212.84 109.915 213.077 107.51L213.3 105.205C213.388 104.277 213.458 103.513 213.512 102.896L213.599 101.866L213.635 101.381C213.641 101.265 213.741 101.176 213.857 101.182Z" fill="#253368"/>
<path fill-rule="evenodd" clip-rule="evenodd" d="M229.243 92.1501C227.596 91.7659 225.908 92.6243 225.383 94.1124L216.205 117.633C215.277 120.268 216.957 123.076 219.871 123.763C222.799 124.452 225.747 122.712 226.29 119.975L231.624 95.5609C231.928 94.0244 230.888 92.5338 229.243 92.1501Z" fill="#FFC999"/>
<path fill-rule="evenodd" clip-rule="evenodd" d="M226.199 95.6433C226.199 95.6433 224.576 93.6726 225.83 89.8532C226.773 86.9812 224.975 84.8693 225.959 84.481C226.942 84.0922 228.366 86.1691 228.686 88.2873C230.619 86.5258 230.692 83.4267 232.289 82.3573C233.986 81.2205 237.959 83.9343 233.497 92.7055C229.556 99.8207 226.199 95.6433 226.199 95.6433Z" fill="#FFC999"/>
<path d="M228.367 87.2707C228.432 87.2448 228.506 87.2766 228.532 87.3416C228.66 87.6625 228.747 87.9378 228.803 88.1677L228.825 88.2649C228.831 88.2945 228.836 88.3212 228.84 88.3452L228.85 88.4052L228.872 88.4273C228.934 88.4934 229.009 88.5875 229.085 88.7096L229.123 88.773C229.51 89.4441 229.563 90.3064 229.077 91.3397C229.047 91.4031 228.972 91.4303 228.908 91.4005C228.845 91.3707 228.818 91.2952 228.847 91.2319C229.297 90.2754 229.249 89.5004 228.903 88.8997C228.845 88.7992 228.783 88.713 228.721 88.6413L228.683 88.5982C228.666 88.5802 228.653 88.5677 228.645 88.5605C228.621 88.5388 228.605 88.5083 228.603 88.4755L228.595 88.4139C228.587 88.3691 228.575 88.3068 228.556 88.2268C228.504 88.0088 228.419 87.7451 228.296 87.4354C228.27 87.3704 228.302 87.2966 228.367 87.2707Z" fill="#DD936F"/>
<path d="M235.137 84.2432C235.207 84.2417 235.265 84.2972 235.267 84.3672C235.268 84.4372 235.213 84.4952 235.143 84.4967C234.839 84.5033 234.658 84.6722 234.562 84.9678C234.513 85.1165 234.494 85.2724 234.492 85.4051L234.493 85.4799L234.487 85.5284L234.424 85.7082C234.374 85.8507 234.317 86.0096 234.254 86.1806C234.076 86.6694 233.888 87.1582 233.701 87.6147C233.591 87.8842 233.483 88.1347 233.38 88.3624C233.168 88.831 232.978 89.1928 232.815 89.4289C232.732 89.548 232.631 89.6676 232.506 89.7966L232.441 89.862C232.372 89.9302 232.299 89.9993 232.21 90.0801L231.729 90.5102C230.821 91.3306 230.434 91.9448 230.472 92.8283C230.475 92.8982 230.421 92.9574 230.351 92.9604C230.281 92.9634 230.222 92.9092 230.219 92.8392C230.178 91.8905 230.575 91.2295 231.473 90.4004L232.038 89.8934C232.125 89.8146 232.196 89.7476 232.262 89.682C232.408 89.5377 232.52 89.4092 232.606 89.2847C232.759 89.064 232.942 88.7137 233.149 88.2578C233.251 88.0331 233.357 87.7854 233.466 87.5186C233.615 87.1561 233.764 86.7726 233.908 86.385L234.088 85.8957L234.239 85.4673L234.238 85.4113C234.239 85.2758 234.256 85.1216 234.298 84.9667L234.321 84.8893C234.447 84.5001 234.713 84.2524 235.137 84.2432Z" fill="#DD936F"/>
<path d="M233.709 83.3917C233.989 83.1328 234.286 83.0585 234.535 83.0874L234.563 83.0915C234.567 83.0922 234.57 83.0928 234.573 83.0934C234.642 83.1081 234.685 83.1755 234.671 83.244C234.658 83.3048 234.603 83.346 234.543 83.3441L234.505 83.3393C234.325 83.3183 234.102 83.3742 233.882 83.5776C233.558 83.8776 233.322 84.4393 233.222 85.3273C233.19 85.6191 233.097 85.9473 232.952 86.3061C232.821 86.628 232.652 86.9677 232.454 87.3171C232.284 87.6143 232.103 87.902 231.922 88.1694L231.788 88.364L231.68 88.5139C231.638 88.57 231.558 88.5815 231.502 88.5396C231.446 88.4977 231.434 88.4182 231.476 88.3621L231.541 88.2739L231.622 88.158C231.651 88.1168 231.681 88.0732 231.712 88.0273C231.89 87.7651 232.067 87.4829 232.233 87.1918C232.426 86.8516 232.591 86.5217 232.716 86.2112C232.853 85.8721 232.94 85.5652 232.97 85.2991C233.076 84.3554 233.335 83.7379 233.709 83.3917Z" fill="#DD936F"/>
<path d="M233.338 82.2476C233.408 82.2368 233.473 82.2842 233.483 82.3534C233.494 82.4225 233.447 82.4874 233.378 82.4982L233.338 82.5063C233.306 82.5142 233.263 82.5271 233.211 82.5464C233.08 82.5953 232.949 82.6673 232.826 82.7663C232.51 83.0219 232.307 83.4103 232.268 83.9673L232.264 84.0567C232.245 84.5705 231.94 85.4377 231.465 86.462L231.348 86.7104C231.211 86.9973 231.072 87.2704 230.952 87.4911L230.897 87.5913C230.854 87.6691 230.817 87.7323 230.789 87.7764L230.758 87.8219C230.754 87.8282 230.749 87.8339 230.745 87.839L230.733 87.8529C230.723 87.8636 230.723 87.8636 230.698 87.8799L230.672 87.8928C230.645 87.903 230.626 87.8951 230.544 87.8594L230.52 87.8179C230.509 87.7971 230.505 87.7878 230.505 87.7775L230.508 87.741C230.508 87.737 230.509 87.7338 230.511 87.7276C230.518 87.6973 230.535 87.6722 230.559 87.655L230.569 87.6482L230.574 87.6408C230.594 87.6088 230.621 87.5642 230.652 87.5094L230.729 87.3704L230.834 87.1724C230.961 86.9286 231.102 86.6435 231.235 86.3555L231.331 86.145C231.721 85.278 231.974 84.541 232.007 84.0992L232.01 84.0476C232.034 83.3691 232.277 82.8844 232.667 82.5692C232.916 82.3678 233.165 82.2746 233.338 82.2476Z" fill="#DD936F"/>
<path d="M229.722 87.4932C229.751 87.4292 229.826 87.4005 229.89 87.429L229.958 87.4605L230.027 87.4936C230.135 87.5458 230.255 87.6069 230.384 87.6763C230.753 87.8746 231.122 88.1001 231.467 88.3491C231.936 88.6875 232.323 89.043 232.602 89.4128C232.644 89.4687 232.633 89.5482 232.577 89.5903C232.521 89.6324 232.441 89.6212 232.399 89.5652C232.138 89.2184 231.768 88.8793 231.318 88.5546C230.983 88.3127 230.623 88.0929 230.264 87.8996C230.138 87.8319 230.021 87.7724 229.916 87.7217L229.786 87.6606C229.722 87.6321 229.693 87.5571 229.722 87.4932Z" fill="#DD936F"/>
<path d="M224.522 96.2424C224.549 96.1711 224.629 96.1356 224.701 96.1632C224.764 96.1877 224.8 96.2538 224.787 96.3184L224.78 96.3424L217.1 116.177C217.073 116.248 216.992 116.283 216.921 116.256C216.857 116.231 216.822 116.165 216.834 116.101L216.841 116.077L224.522 96.2424Z" fill="#DD936F"/>
<path fill-rule="evenodd" clip-rule="evenodd" d="M354.936 152.795H111.91C110.25 152.795 108.904 151.274 108.904 149.397C108.904 147.521 110.25 146 111.91 146H354.936C356.597 146 357.942 147.521 357.942 149.397C357.942 151.274 356.597 152.795 354.936 152.795Z" fill="#CCD7EE"/>
<path fill-rule="evenodd" clip-rule="evenodd" d="M135.96 233.244H146.985V152.795H135.96V233.244Z" fill="#597EF7"/>
<path fill-rule="evenodd" clip-rule="evenodd" d="M151.647 237.147H131.297C131.297 234.991 132.843 233.244 134.749 233.244H148.194C150.101 233.244 151.647 234.991 151.647 237.147Z" fill="#253368"/>
<path fill-rule="evenodd" clip-rule="evenodd" d="M334.717 237.147H314.367C314.367 234.991 315.913 233.244 317.82 233.244H331.265C333.172 233.244 334.717 234.991 334.717 237.147Z" fill="#253368"/>
<path fill-rule="evenodd" clip-rule="evenodd" d="M319.03 233.244H330.055V152.795H319.03V233.244Z" fill="#597EF7"/>
<path fill-rule="evenodd" clip-rule="evenodd" d="M194.259 145.089H199.408V141.047H194.259V145.089Z" fill="#597EF7"/>
<path fill-rule="evenodd" clip-rule="evenodd" d="M202.527 146.472H191.309C190.852 146.472 190.481 146.102 190.481 145.645C190.481 145.189 190.852 144.819 191.309 144.819H202.527C202.985 144.819 203.355 145.189 203.355 145.645C203.355 146.102 202.985 146.472 202.527 146.472Z" fill="#597EF7"/>
<path fill-rule="evenodd" clip-rule="evenodd" d="M214.134 141.309H179.285C178.43 141.309 177.736 140.617 177.736 139.762V118.547C177.736 117.693 178.43 117 179.285 117H214.134C214.989 117 215.683 117.693 215.683 118.547V139.762C215.683 140.617 214.989 141.309 214.134 141.309Z" fill="#253368"/>
<path d="M147.551 0.0755005H119.322C118.439 0.0755005 117.724 0.886794 117.724 1.88758V51.3421C117.724 52.3429 118.439 53.1542 119.322 53.1542H154.429C155.312 53.1542 156.028 52.3429 156.028 51.3421V9.75802L147.551 0.0755005Z" fill="#597EF7"/>
<path d="M147.551 0L147.564 7.94972C147.564 8.95051 148.28 9.7618 149.163 9.7618H156.028" fill="#E4EBF7"/>
<path d="M134.762 4.9213H106.599C105.716 4.9213 105 5.73259 105 6.73337V56.1879C105 57.1887 105.716 58 106.599 58H141.772C142.655 58 143.371 57.1887 143.371 56.1879V15.5091H137.227C136.344 15.5091 134.762 14.6982 134.762 13.697V4.9213Z" fill="#E4EBF7"/>
<path d="M116.627 9.7482H110.293C109.687 9.7482 109.196 10.3063 109.196 10.9948V18.166C109.196 18.8545 109.687 19.4126 110.293 19.4126H116.627C117.232 19.4126 117.723 18.8545 117.723 18.166V10.9948C117.723 10.3063 117.232 9.7482 116.627 9.7482Z" fill="#597EF7"/>
<path d="M138.642 24.2448H109.594C109.375 24.2448 109.196 24.4474 109.196 24.6974V26.2082C109.196 26.4582 109.375 26.6609 109.594 26.6609H138.642C138.862 26.6609 139.041 26.4582 139.041 26.2082V24.6974C139.041 24.4474 138.862 24.2448 138.642 24.2448Z" fill="#597EF7"/>
<path d="M138.642 31.4848H109.594C109.375 31.4848 109.196 31.6875 109.196 31.9375V33.4483C109.196 33.6983 109.375 33.9009 109.594 33.9009H138.642C138.862 33.9009 139.041 33.6983 139.041 33.4483V31.9375C139.041 31.6875 138.862 31.4848 138.642 31.4848Z" fill="#FF7946"/>
<path d="M138.642 38.7331H109.594C109.375 38.7331 109.196 38.9358 109.196 39.1858V40.6965C109.196 40.9465 109.375 41.1492 109.594 41.1492H138.642C138.862 41.1492 139.041 40.9465 139.041 40.6965V39.1858C139.041 38.9358 138.862 38.7331 138.642 38.7331Z" fill="#FAAD14"/>
<path d="M134.763 4.9213V13.697C134.763 14.6978 135.479 15.5091 136.361 15.5091H143.372" fill="white"/>
</svg>
