<svg width="101" height="111" viewBox="0 0 101 111" fill="none" xmlns="http://www.w3.org/2000/svg">
<path d="M15.4349 7.5C15.4349 11.3615 12.2732 14.5 8.36296 14.5C4.45272 14.5 1.29102 11.3615 1.29102 7.5C1.29102 3.6385 4.45272 0.5 8.36296 0.5C12.2732 0.5 15.4349 3.6385 15.4349 7.5Z" stroke="#A7A7A7"/>
<path d="M15.4349 39.5C15.4349 43.3615 12.2732 46.5 8.36296 46.5C4.45272 46.5 1.29102 43.3615 1.29102 39.5C1.29102 35.6385 4.45272 32.5 8.36296 32.5C12.2732 32.5 15.4349 35.6385 15.4349 39.5Z" stroke="#A7A7A7"/>
<path d="M52.7899 7.5C52.7899 11.3615 49.6282 14.5 45.7179 14.5C41.8077 14.5 38.646 11.3615 38.646 7.5C38.646 3.6385 41.8077 0.5 45.7179 0.5C49.6282 0.5 52.7899 3.6385 52.7899 7.5Z" stroke="#A7A7A7"/>
<path d="M90.1449 7.5C90.1449 11.3615 86.9832 14.5 83.0729 14.5C79.1627 14.5 76.001 11.3615 76.001 7.5C76.001 3.6385 79.1627 0.5 83.0729 0.5C86.9832 0.5 90.1449 3.6385 90.1449 7.5Z" stroke="#A7A7A7"/>
<path d="M52.7899 39.5C52.7899 43.3615 49.6282 46.5 45.7179 46.5C41.8077 46.5 38.646 43.3615 38.646 39.5C38.646 35.6385 41.8077 32.5 45.7179 32.5C49.6282 32.5 52.7899 35.6385 52.7899 39.5Z" stroke="#A7A7A7"/>
<path d="M90.1449 39.5C90.1449 43.3615 86.9832 46.5 83.0729 46.5C79.1627 46.5 76.001 43.3615 76.001 39.5C76.001 35.6385 79.1627 32.5 83.0729 32.5C86.9832 32.5 90.1449 35.6385 90.1449 39.5Z" stroke="#A7A7A7"/>
<path d="M15.4349 71.5C15.4349 75.3615 12.2732 78.5 8.36296 78.5C4.45272 78.5 1.29102 75.3615 1.29102 71.5C1.29102 67.6385 4.45272 64.5 8.36296 64.5C12.2732 64.5 15.4349 67.6385 15.4349 71.5Z" stroke="#A7A7A7"/>
<path d="M52.7899 71.5C52.7899 75.3615 49.6282 78.5 45.7179 78.5C41.8077 78.5 38.646 75.3615 38.646 71.5C38.646 67.6385 41.8077 64.5 45.7179 64.5C49.6282 64.5 52.7899 67.6385 52.7899 71.5Z" stroke="#A7A7A7"/>
<path d="M15.4349 103.5C15.4349 107.362 12.2732 110.5 8.36296 110.5C4.45272 110.5 1.29102 107.362 1.29102 103.5C1.29102 99.6385 4.45272 96.5 8.36296 96.5C12.2732 96.5 15.4349 99.6385 15.4349 103.5Z" stroke="#A7A7A7"/>
<path d="M52.7899 103.5C52.7899 107.362 49.6282 110.5 45.7179 110.5C41.8077 110.5 38.646 107.362 38.646 103.5C38.646 99.6385 41.8077 96.5 45.7179 96.5C49.6282 96.5 52.7899 99.6385 52.7899 103.5Z" stroke="#A7A7A7"/>
<path d="M90.1449 103.5C90.1449 107.362 86.9832 110.5 83.0729 110.5C79.1627 110.5 76.001 107.362 76.001 103.5C76.001 99.6385 79.1627 96.5 83.0729 96.5C86.9832 96.5 90.1449 99.6385 90.1449 103.5Z" stroke="#A7A7A7"/>
<path d="M83.5777 64L90.5724 77.5H76.5831L83.5777 64Z" fill="#F8CC3E"/>
</svg>
