<svg width="374" height="358" viewBox="0 0 374 358" fill="none" xmlns="http://www.w3.org/2000/svg">
<ellipse cx="187.271" cy="336.5" rx="186.713" ry="21.5" fill="#F6F6F6"/>
<path fill-rule="evenodd" clip-rule="evenodd" d="M236 10.3576H139V2.92107C139 1.30791 140.529 0 142.415 0H232.586C234.472 0 236 1.30791 236 2.92107V10.3576Z" fill="#253368"/>
<path fill-rule="evenodd" clip-rule="evenodd" d="M232.586 81.9604H142.415C140.529 81.9604 139 80.6526 139 79.0394V9.48676H236V79.0394C236 80.6526 234.472 81.9604 232.586 81.9604Z" fill="#E4EBF7"/>
<path fill-rule="evenodd" clip-rule="evenodd" d="M146.884 4.81973C146.884 5.83212 145.925 6.65295 144.742 6.65295C143.558 6.65295 142.599 5.83212 142.599 4.81973C142.599 3.80733 143.558 2.98651 144.742 2.98651C145.925 2.98651 146.884 3.80733 146.884 4.81973Z" fill="#FF7946"/>
<path fill-rule="evenodd" clip-rule="evenodd" d="M154.884 4.81973C154.884 5.83212 153.925 6.65295 152.742 6.65295C151.558 6.65295 150.599 5.83212 150.599 4.81973C150.599 3.80733 151.558 2.98651 152.742 2.98651C153.925 2.98651 154.884 3.80733 154.884 4.81973Z" fill="#FAAD14"/>
<path fill-rule="evenodd" clip-rule="evenodd" d="M162.887 4.81973C162.887 5.83212 161.928 6.65295 160.744 6.65295C159.561 6.65295 158.602 5.83212 158.602 4.81973C158.602 3.80733 159.561 2.98651 160.744 2.98651C161.928 2.98651 162.887 3.80733 162.887 4.81973Z" fill="#7CB305"/>
<path fill-rule="evenodd" clip-rule="evenodd" d="M149.484 72.1025C148.895 72.1025 148.418 71.6947 148.418 71.1917V18.3926C148.418 17.8896 148.895 17.4818 149.484 17.4818H226.575C227.164 17.4818 227.641 17.8896 227.641 18.3926V71.1917C227.641 71.6947 227.164 72.1025 226.575 72.1025H149.484Z" fill="white"/>
<path d="M175.194 40.4956C175.637 40.1715 176.308 40.2442 176.644 40.6472L176.662 40.6687L192.175 60.5221L204.175 53.323C204.317 53.2377 204.483 53.1859 204.655 53.1726L204.692 53.1704L220.548 52.464C221.094 52.4396 221.56 52.798 221.589 53.2644C221.617 53.7226 221.212 54.1147 220.68 54.1514L220.651 54.153L205.08 54.8467L192.484 62.4041C192.037 62.6722 191.422 62.5802 191.107 62.2027L191.09 62.1815L175.634 42.4004L157.569 55.6056C157.161 55.9037 156.551 55.8694 156.192 55.5326L156.172 55.5132C155.823 55.165 155.863 54.6443 156.258 54.3379L156.28 54.3208L175.194 40.4956Z" fill="#FF7946"/>
<path d="M218.2 28.5138C218.505 28.1259 219.12 28.0224 219.574 28.2825C220.02 28.5379 220.145 29.049 219.861 29.4346L219.845 29.4559L205.739 47.4149C205.385 47.8653 204.636 47.9175 204.201 47.5287L204.18 47.5092L188.056 32.1926L176.88 38.6311C176.722 38.722 176.538 38.772 176.348 38.7755L176.31 38.7756L156.908 38.5049C156.362 38.4972 155.925 38.1125 155.934 37.6455C155.943 37.1867 156.378 36.8192 156.912 36.8137L156.941 36.8137L176.031 37.0801L187.663 30.379C188.064 30.148 188.601 30.1987 188.933 30.4955L188.954 30.5148L204.802 45.5705L218.2 28.5138Z" fill="#FAAD14"/>
<path d="M193.761 40.0156C194.008 39.8311 194.346 39.7635 194.662 39.8337L194.695 39.8414L205.024 42.4573L220.247 40.3863C220.778 40.3141 221.277 40.6162 221.376 41.0642L221.381 41.0884C221.466 41.5415 221.112 41.9679 220.587 42.0524L220.559 42.0566L205.114 44.1578C204.981 44.1759 204.845 44.1706 204.715 44.1425L204.676 44.1334L194.655 41.5954L177.241 54.5989C176.92 54.8384 176.457 54.8753 176.091 54.6933L176.063 54.6792L155.26 43.5654C154.796 43.3177 154.655 42.7959 154.945 42.3999C155.23 42.0112 155.825 41.8883 156.285 42.1184L156.31 42.1316L176.49 52.9122L193.761 40.0156Z" fill="#597EF7"/>
<path fill-rule="evenodd" clip-rule="evenodd" d="M175.901 24.3938H156.386C155.587 24.3938 154.933 23.8345 154.933 23.151C154.933 22.4673 155.587 21.9082 156.386 21.9082H175.901C176.7 21.9082 177.353 22.4673 177.353 23.151C177.353 23.8345 176.7 24.3938 175.901 24.3938Z" fill="#CCD7EE"/>
<path fill-rule="evenodd" clip-rule="evenodd" d="M164.618 30.2552H157.355C156.553 30.2552 155.903 29.6988 155.903 29.0125C155.903 28.326 156.553 27.7697 157.355 27.7697H164.618C165.421 27.7697 166.071 28.326 166.071 29.0125C166.071 29.6988 165.421 30.2552 164.618 30.2552Z" fill="#CCD7EE"/>
<path d="M217.239 57.299C213.837 57.299 211.087 59.6852 211.087 62.6208C211.087 65.5563 213.837 67.9424 217.239 67.9424C220.64 67.9424 223.39 65.5563 223.39 62.6208C223.39 59.6852 220.64 57.299 217.239 57.299ZM217.239 59.3009C219.336 59.3009 221.045 60.7836 221.045 62.6208C221.045 64.4579 219.337 65.9405 217.239 65.9405C215.141 65.9405 213.432 64.4579 213.432 62.6208C213.432 60.7836 215.141 59.3009 217.239 59.3009Z" fill="#CCD7EE"/>
<path d="M221.328 59.8139C221.923 59.5965 222.612 59.8322 222.867 60.3404C223.209 61.0232 223.388 61.7665 223.388 62.5306C223.388 63.1558 223.268 63.7678 223.036 64.3452C222.826 64.8681 222.159 65.1465 221.547 64.9671C220.944 64.7906 220.619 64.2367 220.809 63.7209L220.819 63.6955C220.967 63.3268 221.044 62.9343 221.044 62.5306C221.044 62.0583 220.939 61.6019 220.738 61.1824L220.712 61.1279C220.457 60.6197 220.733 60.0314 221.328 59.8139Z" fill="#597EF7"/>
<path fill-rule="evenodd" clip-rule="evenodd" d="M208.175 257.804C207.231 241.08 206.086 223.801 204.859 210.076C204.859 210.076 202.287 200.247 193.306 202.566C184.504 204.839 185.285 216.097 185.285 216.097L192.222 260.11C192.222 260.11 193.432 267.266 201.387 265.973C208.643 264.794 208.175 257.804 208.175 257.804Z" fill="#597EF7"/>
<path fill-rule="evenodd" clip-rule="evenodd" d="M205.173 299.69C201.983 299.397 199.353 302.155 199.803 305.327C200.322 308.976 200.996 313.909 201.651 319.232C202.325 324.709 202.894 329.248 203.349 329.783C205.35 332.143 208.909 332.72 212.73 334.862C215.754 336.557 216.34 337.453 219.995 337.741C225.176 338.15 222.578 336.249 216.212 330.037C210.54 324.503 210.574 321.62 210.574 321.62L209.677 304.376C209.549 301.912 207.631 299.916 205.173 299.69Z" fill="#C99382"/>
<path fill-rule="evenodd" clip-rule="evenodd" d="M215.53 328.48C219.634 332.166 224.183 334.94 224.288 336.888C224.393 338.835 223.052 340.748 216.496 339.18C212.009 338.107 213.147 337.048 208.734 334.804C206.531 333.683 205.795 333.907 203.729 332.55C202.49 331.266 202.254 324.413 202.254 324.413L210.331 331.564C210.331 331.564 208.057 328.074 209.516 327.109C210.976 326.144 212.34 325.449 213.322 326.007C214.303 326.565 215.53 328.48 215.53 328.48Z" fill="#7D4556"/>
<path fill-rule="evenodd" clip-rule="evenodd" d="M208.284 259.277C209.75 288.24 211.106 318.533 211.106 318.533L200.644 318.54L192.089 261.251C192.089 261.251 191.911 252.53 199.936 251.797C207.179 251.136 208.284 259.277 208.284 259.277Z" fill="#597EF7"/>
<path fill-rule="evenodd" clip-rule="evenodd" d="M164.284 259.539C164.838 242.797 165.581 225.496 166.487 211.747C166.487 211.747 168.83 201.86 177.863 203.969C186.716 206.037 186.196 217.311 186.196 217.311L180.286 261.473C180.286 261.473 179.243 268.655 171.26 267.547C163.979 266.538 164.284 259.539 164.284 259.539Z" fill="#597EF7"/>
<path fill-rule="evenodd" clip-rule="evenodd" d="M168.261 301.344C171.444 300.977 174.137 303.672 173.76 306.853C173.327 310.514 172.768 315.462 172.237 320.798C171.69 326.29 171.227 330.84 170.785 331.386C168.839 333.792 165.295 334.452 161.525 336.682C158.541 338.446 157.975 339.357 154.328 339.73C149.159 340.259 151.712 338.298 157.932 331.94C163.473 326.275 163.372 323.394 163.372 323.394L163.867 306.133C163.937 303.667 165.81 301.626 168.261 301.344Z" fill="#C99382"/>
<path fill-rule="evenodd" clip-rule="evenodd" d="M158.577 330.367C154.56 334.147 150.077 337.027 150.018 338.976C149.958 340.926 151.342 342.806 157.861 341.086C162.322 339.91 161.159 338.877 165.518 336.531C167.695 335.359 168.436 335.567 170.47 334.161C171.678 332.848 171.755 325.991 171.755 325.991L163.846 333.329C163.846 333.329 166.038 329.787 164.557 328.857C163.076 327.926 161.696 327.261 160.727 327.843C159.76 328.424 158.577 330.367 158.577 330.367Z" fill="#7D4556"/>
<path fill-rule="evenodd" clip-rule="evenodd" d="M164.21 261.014C163.419 290.003 162.767 320.32 162.767 320.32L173.226 320.083L180.446 262.61C180.446 262.61 180.422 253.887 172.381 253.341C165.125 252.849 164.21 261.014 164.21 261.014Z" fill="#597EF7"/>
<path fill-rule="evenodd" clip-rule="evenodd" d="M192.809 136.351L192.353 126.79L179.672 126.798L179.362 136.418C179.223 140.141 182.182 143.246 185.908 143.286C185.979 143.287 186.05 143.288 186.121 143.289C189.931 143.332 192.991 140.157 192.809 136.351Z" fill="#C99382"/>
<path fill-rule="evenodd" clip-rule="evenodd" d="M195.041 138.709L194.231 136.376L178.497 136.805L177.865 139.014C177.865 139.014 168.747 137.025 164.266 144.065C161.451 148.489 168.03 175.077 168.141 181.013C165.464 188.104 169.355 190.265 169.355 190.265L201.266 189.882C201.266 189.882 204.92 187.462 201.792 182.59C203.074 173.875 209.63 150.514 207.514 146.213C203.309 137.665 195.041 138.709 195.041 138.709Z" fill="#ADC6FF"/>
<path d="M193.821 139.015C193.953 139.002 194.07 139.099 194.083 139.231C194.095 139.363 193.999 139.48 193.867 139.493C192.816 139.592 191.691 139.677 190.503 139.746C186.877 139.958 183.081 140.019 179.758 139.992L178.526 139.978C178.393 139.975 178.288 139.865 178.291 139.733C178.293 139.6 178.403 139.495 178.535 139.498L179.214 139.507C182.653 139.545 186.661 139.49 190.475 139.267C191.658 139.198 192.776 139.114 193.821 139.015Z" fill="#597EF7"/>
<path fill-rule="evenodd" clip-rule="evenodd" d="M205.115 212.62C204.094 201.807 202.506 196.765 201.294 194.734C175.233 195.479 168.741 195.136 168.741 195.136C168.741 195.136 166.511 201.447 166.189 214.14C166.189 214.14 175.298 225.355 185.652 225.355C194.987 225.355 205.115 212.62 205.115 212.62Z" fill="#597EF7"/>
<path fill-rule="evenodd" clip-rule="evenodd" d="M201.294 194.734L200.8 189.83L168.889 190.212L168.741 195.124C168.741 195.124 185.63 195.774 201.294 194.734Z" fill="#597EF7"/>
<path d="M182.894 195.465C183.03 195.468 183.138 195.58 183.135 195.716L183.113 197.069C183.109 197.341 183.105 197.63 183.101 197.935C183.046 202.514 183.051 207.439 183.158 212.061L183.175 212.733C183.309 217.953 183.567 222.113 183.973 224.838C183.993 224.972 183.9 225.097 183.766 225.117C183.632 225.137 183.507 225.044 183.487 224.91L183.436 224.551C183.039 221.682 182.791 217.4 182.668 212.072C182.569 207.83 182.557 203.333 182.598 199.082L182.628 196.666L182.644 195.706C182.647 195.57 182.759 195.463 182.894 195.465Z" fill="#253368"/>
<path d="M187.45 195.57C187.586 195.571 187.695 195.681 187.694 195.816L187.695 197.368C187.697 198.103 187.703 198.939 187.712 199.85C187.734 201.957 187.774 204.042 187.836 206.014L187.858 206.667C187.965 209.766 188.122 212.337 188.335 214.201L188.358 214.391L188.359 214.44C188.218 216.232 187.214 217.327 185.656 217.842C184.799 218.125 183.908 218.198 183.146 218.154L183.027 218.146C183.018 218.145 183.01 218.145 183.003 218.144C182.868 218.13 182.77 218.01 182.784 217.875C182.798 217.74 182.918 217.642 183.053 217.656L183.173 217.664C183.879 217.704 184.713 217.636 185.502 217.376C186.844 216.932 187.694 216.035 187.856 214.539L187.867 214.424L187.848 214.258C187.662 212.637 187.519 210.494 187.414 207.941L187.367 206.684C187.3 204.734 187.255 202.662 187.229 200.557L187.214 199.055C187.208 198.363 187.205 197.724 187.203 197.151L187.204 195.814C187.204 195.679 187.315 195.569 187.45 195.57Z" fill="#253368"/>
<path d="M198.442 195.673C198.578 195.671 198.689 195.779 198.692 195.915L198.7 196.147C198.702 196.19 198.704 196.237 198.707 196.288C198.724 196.59 198.751 196.925 198.791 197.287C198.905 198.32 199.097 199.352 199.384 200.313C200.043 202.516 201.095 203.998 202.603 204.454C202.733 204.494 202.806 204.631 202.767 204.76C202.727 204.89 202.59 204.963 202.46 204.924C200.759 204.408 199.615 202.798 198.914 200.454C198.617 199.462 198.42 198.401 198.303 197.341C198.271 197.044 198.246 196.764 198.229 196.506L198.207 196.106C198.203 196.026 198.201 195.964 198.201 195.922C198.199 195.787 198.307 195.675 198.442 195.673Z" fill="#253368"/>
<path d="M171.595 196.241C171.717 196.24 171.819 196.328 171.839 196.445L171.842 196.492L171.84 196.746C171.835 197.058 171.82 197.47 171.786 197.952C171.717 198.964 171.589 199.972 171.39 200.915C170.866 203.389 169.942 205.026 168.472 205.407C168.341 205.441 168.207 205.362 168.173 205.231C168.139 205.1 168.218 204.966 168.349 204.932C169.578 204.613 170.421 203.12 170.909 200.813C171.104 199.895 171.228 198.909 171.297 197.918L171.314 197.643C171.337 197.244 171.348 196.907 171.351 196.652L171.351 196.488C171.35 196.353 171.459 196.242 171.595 196.241Z" fill="#253368"/>
<path d="M177.204 222.962C177.264 222.841 177.412 222.792 177.533 222.853L177.731 222.948L177.939 223.045C178.048 223.095 178.167 223.148 178.293 223.203C178.896 223.468 179.558 223.733 180.258 223.98C181.602 224.454 182.921 224.805 184.153 224.981C185.257 225.139 186.252 225.15 187.111 224.993C187.244 224.969 187.372 225.058 187.396 225.191C187.42 225.324 187.332 225.452 187.198 225.476C186.282 225.643 185.236 225.632 184.083 225.467C182.816 225.286 181.467 224.927 180.095 224.443C179.484 224.227 178.902 223.999 178.362 223.768L178.096 223.653C177.967 223.596 177.846 223.542 177.734 223.491L177.416 223.342C177.37 223.32 177.336 223.303 177.313 223.292C177.192 223.231 177.143 223.084 177.204 222.962Z" fill="#253368"/>
<path fill-rule="evenodd" clip-rule="evenodd" d="M197.576 117.857C197.576 117.857 200.814 114.171 202.694 117.658C204.481 120.969 200.802 125.491 197.684 124.582C196.321 121.48 197.576 117.857 197.576 117.857Z" fill="#C99382"/>
<path fill-rule="evenodd" clip-rule="evenodd" d="M175.004 117.857C175.004 117.857 171.766 114.171 169.885 117.658C168.1 120.969 171.777 125.491 174.896 124.582C176.258 121.48 175.004 117.857 175.004 117.857Z" fill="#C99382"/>
<path fill-rule="evenodd" clip-rule="evenodd" d="M198.904 118.639C198.904 130.091 193.215 133.118 186.199 133.118C179.182 133.118 173.975 130.211 173.494 118.639C173.052 107.994 179.182 104.42 186.199 104.42C193.215 104.42 198.904 108.585 198.904 118.639Z" fill="#C99382"/>
<path fill-rule="evenodd" clip-rule="evenodd" d="M187.215 119.9C187.242 122.213 189.139 124.065 191.452 124.037C193.764 124.009 195.617 122.112 195.589 119.8C195.562 117.487 193.664 115.635 191.352 115.662C189.039 115.691 187.187 117.588 187.215 119.9Z" fill="white"/>
<path d="M191.348 115.367C188.872 115.397 186.889 117.429 186.919 119.904C186.949 122.379 188.979 124.362 191.455 124.332C193.931 124.302 195.914 122.271 195.884 119.796C195.854 117.321 193.823 115.338 191.348 115.367ZM191.355 115.957C193.504 115.932 195.268 117.654 195.294 119.803C195.32 121.952 193.598 123.716 191.448 123.742C189.298 123.768 187.535 122.046 187.509 119.897C187.484 117.785 189.145 116.046 191.242 115.96L191.355 115.957Z" fill="#7D4556"/>
<path d="M190.378 120.103C190.36 120.247 190.238 120.359 190.089 120.361C189.939 120.363 189.815 120.253 189.793 120.11L189.79 120.07C189.789 119.828 189.833 119.501 189.972 119.169C190.217 118.585 190.686 118.214 191.392 118.206C192.092 118.197 192.587 118.529 192.883 119.069C193.053 119.378 193.126 119.681 193.145 119.896C193.16 120.058 193.04 120.202 192.878 120.216C192.715 120.23 192.572 120.111 192.558 119.948L192.551 119.896C192.545 119.863 192.537 119.82 192.524 119.769C192.49 119.627 192.438 119.484 192.366 119.353C192.168 118.993 191.866 118.79 191.399 118.796C190.948 118.801 190.677 119.015 190.517 119.397C190.457 119.539 190.419 119.693 190.397 119.849C190.389 119.907 190.385 119.957 190.382 119.997L190.378 120.103Z" fill="#7D4556"/>
<path d="M177.876 114.356C179.17 113.536 181.094 113.536 183.719 114.848C183.865 114.921 183.924 115.098 183.851 115.244C183.778 115.39 183.601 115.449 183.455 115.376C181.006 114.152 179.3 114.152 178.191 114.854C178.036 114.953 177.908 115.057 177.807 115.161L177.749 115.222C177.733 115.24 177.722 115.254 177.713 115.265L177.703 115.279C177.611 115.413 177.428 115.448 177.293 115.356C177.159 115.264 177.124 115.08 177.216 114.946C177.324 114.788 177.539 114.569 177.876 114.356Z" fill="#7D4556"/>
<path d="M191.919 113.709C192.731 113.666 193.454 113.796 194.061 114.134C194.204 114.213 194.255 114.392 194.176 114.535C194.097 114.677 193.917 114.729 193.775 114.65C193.275 114.372 192.659 114.261 191.95 114.299C191.218 114.338 190.426 114.532 189.626 114.831C189.372 114.926 189.131 115.026 188.908 115.128L188.745 115.204C188.585 115.28 188.472 115.338 188.414 115.371C188.272 115.449 188.092 115.398 188.013 115.255C187.935 115.112 187.986 114.933 188.129 114.854L188.246 114.792C188.312 114.759 188.393 114.718 188.491 114.672C188.773 114.537 189.085 114.403 189.419 114.278C190.271 113.96 191.119 113.752 191.919 113.709Z" fill="#7D4556"/>
<path d="M184.438 116.22C184.557 116.16 184.701 116.207 184.761 116.325L184.814 116.436C184.836 116.483 184.862 116.54 184.891 116.607C184.986 116.827 185.081 117.073 185.17 117.339C185.46 118.214 185.617 119.098 185.568 119.932C185.538 120.441 185.445 120.905 185.275 121.501L185.024 122.352C184.852 122.958 184.851 123.077 184.911 123.3C185.006 123.646 185.425 123.868 186.406 123.974C186.537 123.989 186.633 124.107 186.618 124.239C186.604 124.371 186.485 124.466 186.354 124.452C185.199 124.326 184.609 124.014 184.448 123.427L184.42 123.315C184.349 123.01 184.383 122.823 184.657 121.898L184.761 121.546C184.956 120.892 185.058 120.419 185.088 119.904C185.134 119.139 184.987 118.312 184.714 117.491C184.647 117.289 184.576 117.099 184.504 116.925L184.45 116.797C184.397 116.674 184.356 116.587 184.333 116.543C184.273 116.424 184.32 116.28 184.438 116.22Z" fill="#9B6160"/>
<path d="M189.01 125.041C189.145 125.006 189.282 125.087 189.317 125.222C189.352 125.356 189.271 125.494 189.136 125.529C187.296 126.006 185.387 126.006 183.624 125.721C183.418 125.687 183.229 125.652 183.058 125.616L182.824 125.564C182.758 125.549 182.71 125.537 182.679 125.528C182.544 125.492 182.465 125.353 182.502 125.219C182.538 125.084 182.677 125.005 182.811 125.042L183.043 125.097C183.236 125.14 183.457 125.183 183.705 125.223C185.405 125.498 187.246 125.498 189.01 125.041Z" fill="#7D4556"/>
<path fill-rule="evenodd" clip-rule="evenodd" d="M176.641 119.9C176.669 122.213 178.567 124.065 180.879 124.037C183.192 124.009 185.044 122.112 185.016 119.8C184.988 117.487 183.091 115.635 180.779 115.662C178.466 115.691 176.614 117.588 176.641 119.9Z" fill="white"/>
<path d="M180.776 115.367C178.3 115.397 176.318 117.428 176.347 119.904C176.376 122.379 178.408 124.362 180.883 124.332C183.359 124.302 185.342 122.271 185.312 119.796C185.282 117.321 183.251 115.338 180.776 115.367ZM180.783 115.957C182.932 115.932 184.696 117.654 184.722 119.803C184.748 121.953 183.026 123.716 180.876 123.742C178.727 123.768 176.963 122.046 176.937 119.897C176.912 117.785 178.573 116.046 180.67 115.96L180.783 115.957Z" fill="#7D4556"/>
<path d="M179.806 120.103C179.788 120.247 179.666 120.359 179.516 120.361C179.367 120.363 179.242 120.253 179.221 120.11L179.218 120.07C179.216 119.828 179.261 119.501 179.4 119.169C179.645 118.585 180.113 118.214 180.819 118.206C181.519 118.197 182.014 118.529 182.31 119.069C182.48 119.378 182.553 119.681 182.572 119.896C182.587 120.058 182.467 120.202 182.305 120.216C182.142 120.23 181.999 120.111 181.985 119.948L181.978 119.896C181.972 119.863 181.964 119.82 181.952 119.769C181.917 119.627 181.865 119.484 181.793 119.353C181.595 118.993 181.293 118.79 180.826 118.796C180.375 118.801 180.104 119.015 179.944 119.397C179.885 119.539 179.846 119.693 179.825 119.849L179.813 119.954C179.811 119.985 179.809 120.012 179.808 120.034L179.808 120.063L179.806 120.103Z" fill="#7D4556"/>
<path d="M185.262 118.106C185.867 117.912 186.508 117.887 187.119 118.144C187.174 118.167 187.228 118.193 187.281 118.22L187.36 118.263L187.07 118.777C187.011 118.743 186.951 118.714 186.89 118.688C186.428 118.493 185.924 118.513 185.442 118.668C185.326 118.705 185.238 118.741 185.183 118.767L185.155 118.781L184.88 118.259C184.957 118.218 185.088 118.161 185.262 118.106Z" fill="#7D4556"/>
<path d="M192.445 131.811C192.567 131.761 192.708 131.82 192.758 131.943C192.808 132.066 192.749 132.206 192.626 132.256C188.425 133.972 184.124 133.715 180.333 132.41C180.208 132.367 180.141 132.231 180.184 132.105C180.227 131.98 180.364 131.913 180.489 131.956C184.18 133.226 188.368 133.477 192.445 131.811Z" fill="#9B6160"/>
<path d="M187.011 127.397C187.143 127.397 187.251 127.504 187.251 127.637C187.251 127.756 187.164 127.855 187.05 127.874L187.011 127.877H185.118C184.985 127.877 184.878 127.77 184.878 127.637C184.878 127.518 184.965 127.419 185.079 127.4L185.118 127.397H187.011Z" fill="#9B6160"/>
<path d="M185.929 130.01C186.049 130.01 186.148 130.097 186.166 130.211L186.169 130.25V132.863C186.169 132.996 186.062 133.103 185.929 133.103C185.81 133.103 185.711 133.016 185.693 132.902L185.689 132.863V130.25C185.689 130.118 185.797 130.01 185.929 130.01Z" fill="#9B6160"/>
<path d="M186.978 130.733C187.096 130.717 187.206 130.79 187.24 130.9L187.248 130.939L187.518 132.921C187.536 133.052 187.444 133.173 187.313 133.191C187.195 133.207 187.085 133.134 187.051 133.024L187.043 132.986L186.773 131.003C186.755 130.872 186.847 130.751 186.978 130.733Z" fill="#9B6160"/>
<path d="M184.485 131.362L184.524 131.364C184.642 131.383 184.726 131.484 184.727 131.599L184.725 131.638L184.545 132.809C184.525 132.94 184.402 133.03 184.271 133.01C184.153 132.992 184.068 132.891 184.067 132.776L184.07 132.737L184.25 131.565C184.268 131.447 184.369 131.363 184.485 131.362Z" fill="#9B6160"/>
<path d="M187.939 131.189C188.055 131.159 188.173 131.217 188.22 131.323L188.233 131.36L188.594 132.711C188.628 132.839 188.552 132.971 188.423 133.005C188.308 133.036 188.19 132.977 188.143 132.872L188.13 132.835L187.769 131.483C187.735 131.355 187.811 131.224 187.939 131.189Z" fill="#9B6160"/>
<path d="M170.471 118.672C171.001 118.044 171.702 118.044 172.363 119.071C172.633 119.689 172.609 120.101 172.374 120.676L172.24 120.989C172.099 121.342 172.108 121.566 172.342 121.917C172.412 122.021 172.491 122.105 172.58 122.171C172.74 122.291 172.899 122.34 173.006 122.35L173.044 122.351C173.176 122.351 173.284 122.459 173.284 122.591C173.284 122.724 173.176 122.831 173.044 122.831C172.844 122.831 172.567 122.762 172.292 122.555C172.16 122.457 172.043 122.333 171.943 122.184C171.633 121.719 171.601 121.347 171.762 120.896L171.817 120.755C171.827 120.731 171.845 120.692 171.89 120.588C172.117 120.068 172.147 119.775 171.941 119.297C171.483 118.589 171.169 118.589 170.838 118.981C170.746 119.091 170.68 119.201 170.648 119.269C170.591 119.389 170.448 119.441 170.328 119.384C170.208 119.328 170.157 119.185 170.213 119.065C170.262 118.962 170.348 118.818 170.471 118.672Z" fill="#9B6160"/>
<path d="M199.793 119.037C200.435 118.044 201.136 118.044 201.666 118.672C201.789 118.818 201.875 118.962 201.923 119.065C201.98 119.185 201.928 119.328 201.808 119.384C201.688 119.441 201.545 119.389 201.489 119.269C201.457 119.201 201.391 119.09 201.299 118.981C200.968 118.589 200.654 118.589 200.214 119.263C200.004 119.743 200.018 120.03 200.207 120.493L200.342 120.81C200.539 121.301 200.523 121.69 200.194 122.183C200.094 122.333 199.976 122.457 199.844 122.556C199.569 122.762 199.293 122.831 199.094 122.831C198.961 122.831 198.854 122.724 198.854 122.591C198.854 122.472 198.941 122.373 199.055 122.354L199.094 122.351C199.198 122.351 199.377 122.307 199.557 122.172C199.645 122.105 199.725 122.022 199.794 121.917C200.013 121.589 200.036 121.372 199.923 121.058L199.854 120.888C199.844 120.864 199.829 120.829 199.807 120.779C199.532 120.148 199.488 119.725 199.793 119.037Z" fill="#9B6160"/>
<path fill-rule="evenodd" clip-rule="evenodd" d="M173.014 120.519C173.014 120.519 171.092 118.476 172.053 115.953C170.371 112.949 171.452 110.066 173.014 108.985C172.533 106.342 174.335 101.656 178.06 101.176C180.253 102.047 182.866 102.137 182.866 102.137C182.866 102.137 189.113 98.533 193.438 102.858C197.883 102.377 200.166 107.423 199.805 109.225C202.208 112.229 200.286 116.794 200.286 116.794C200.286 116.794 200.018 118.56 199.205 120.999C198.364 123.522 198.004 120.279 198.004 119.558C198.004 118.837 196.202 118.236 196.802 114.993C194.76 113.55 195.21 111.328 195.21 111.328C195.21 111.328 193.738 112.83 189.534 110.787C186.53 113.31 181.965 110.787 181.965 110.787C181.965 110.787 178.27 112.559 176.107 111.238C176.107 111.238 176.708 113.04 175.027 115.563C175.627 117.966 173.855 119.077 174.335 120.519C174.816 121.96 173.495 123.402 173.014 120.519Z" fill="#7D4556"/>
<path fill-rule="evenodd" clip-rule="evenodd" d="M166.313 159.833C166.313 159.833 171.905 166.834 178.231 161.602C184.682 156.268 178.747 149.406 178.747 149.406C178.747 149.406 174.92 144.463 170.097 138.63C166.328 134.073 163.453 130.561 160.765 127.874C157.862 124.975 153.325 124.439 150.362 126.888C145.859 130.612 146.258 134.88 148.713 138.14C151.101 141.311 154.454 145.489 157.163 148.925C162.373 155.531 166.313 159.833 166.313 159.833Z" fill="#ADC6FF"/>
<path fill-rule="evenodd" clip-rule="evenodd" d="M134.633 93.5931C134.633 93.5931 136.276 101.209 139.839 102.05C143.067 102.812 144.595 98.8256 144.595 98.8256C144.595 98.8256 145.437 95.5735 145.389 91.826C145.359 89.3707 145.996 84.6939 144.735 84.3719C143.091 83.9521 143.219 88.8401 142.089 89.3394C139.801 90.35 138.789 82.6809 137.957 81.5256C136.332 79.2669 132.593 84.4724 134.633 93.5931Z" fill="#C99382"/>
<path d="M136.706 81.6813C136.839 81.6857 136.943 81.7966 136.938 81.9291C136.885 83.5498 137.195 85.2608 137.746 86.9439C137.924 87.4885 138.115 87.9901 138.306 88.4368L138.402 88.6569L138.549 88.973C138.552 88.9796 138.555 88.9853 138.558 88.99C138.617 89.1084 138.57 89.2527 138.451 89.3124C138.333 89.372 138.189 89.3245 138.129 89.2061L138.055 89.0522L137.964 88.8531C137.932 88.7819 137.899 88.7059 137.865 88.6254C137.668 88.1664 137.472 87.6518 137.29 87.0933C136.723 85.3611 136.403 83.5972 136.458 81.9132C136.463 81.7807 136.574 81.6769 136.706 81.6813Z" fill="#9B6160"/>
<path d="M135.249 82.9436C135.382 82.9538 135.48 83.0693 135.47 83.2014L135.465 83.3018C135.442 83.8647 135.476 84.6567 135.613 85.6387C135.818 87.1159 136.217 88.705 136.857 90.3671C136.904 90.4908 136.842 90.6297 136.719 90.6772C136.595 90.7248 136.456 90.6631 136.409 90.5394C135.756 88.842 135.347 87.2173 135.137 85.7047C135.006 84.7609 134.967 83.9833 134.981 83.4038L134.989 83.2102C134.99 83.1905 134.991 83.1752 134.992 83.1644C135.002 83.0322 135.117 82.9334 135.249 82.9436Z" fill="#9B6160"/>
<path d="M134.213 86.5326C134.344 86.5176 134.463 86.6122 134.479 86.7439C134.603 87.8356 134.773 88.825 134.976 89.7126C135.135 90.403 135.304 90.9922 135.473 91.4807L135.541 91.6726C135.563 91.7326 135.584 91.7885 135.604 91.8405L135.685 92.0374C135.688 92.0436 135.691 92.0488 135.692 92.053C135.748 92.1733 135.696 92.316 135.576 92.3717C135.455 92.4274 135.313 92.3751 135.257 92.2548L135.207 92.1392L135.189 92.0954C135.138 91.9678 135.08 91.8152 135.019 91.6375C134.845 91.1328 134.671 90.5271 134.509 89.8198C134.301 88.9149 134.128 87.9079 134.002 86.7984C133.987 86.6667 134.081 86.5477 134.213 86.5326Z" fill="#9B6160"/>
<path fill-rule="evenodd" clip-rule="evenodd" d="M161.231 128.394C161.231 128.394 164.251 137.079 157.074 139.84C149.673 142.687 146.391 134.489 146.391 134.489C146.391 134.489 144.223 128.663 141.52 121.495C139.87 117.118 138.145 112.248 137.4 108.534C136.592 104.512 138.551 103.328 142.139 101.948C146.4 100.309 148.328 100.065 150.316 103.629C152.212 107.028 154.151 111.899 155.825 115.606C159.015 122.673 161.231 128.394 161.231 128.394Z" fill="#ADC6FF"/>
<path fill-rule="evenodd" clip-rule="evenodd" d="M137.007 100.704L145.305 97.5121L148.059 102.888L138.567 106.541L137.007 100.704Z" fill="#ADC6FF"/>
<path fill-rule="evenodd" clip-rule="evenodd" d="M208.223 159.833C208.223 159.833 202.631 166.834 196.305 161.602C189.854 156.268 195.789 149.406 195.789 149.406C195.789 149.406 199.616 144.463 204.439 138.63C208.208 134.073 211.083 130.561 213.771 127.874C216.674 124.975 221.211 124.439 224.174 126.888C228.678 130.612 228.278 134.88 225.823 138.14C223.436 141.311 220.082 145.489 217.373 148.925C212.163 155.531 208.223 159.833 208.223 159.833Z" fill="#ADC6FF"/>
<path fill-rule="evenodd" clip-rule="evenodd" d="M239.904 93.5931C239.904 93.5931 238.262 101.209 234.698 102.05C231.471 102.812 229.942 98.8256 229.942 98.8256C229.942 98.8256 229.101 95.5735 229.147 91.826C229.179 89.3707 228.541 84.6939 229.803 84.3719C231.446 83.9521 231.318 88.8401 232.448 89.3394C234.736 90.35 235.748 82.6809 236.58 81.5256C238.205 79.2669 241.944 84.4724 239.904 93.5931Z" fill="#C99382"/>
<path d="M237.831 81.6813C237.963 81.6769 238.074 81.7807 238.079 81.9132C238.134 83.5972 237.814 85.3611 237.247 87.0933C237.064 87.6518 236.868 88.1664 236.672 88.6254L236.573 88.8531L236.482 89.0522C236.447 89.1267 236.422 89.1785 236.408 89.2061C236.348 89.3245 236.204 89.372 236.086 89.3124C235.967 89.2527 235.92 89.1084 235.979 88.99L236.029 88.8881L236.047 88.8487C236.103 88.7305 236.164 88.5927 236.231 88.4368C236.422 87.9901 236.613 87.4885 236.791 86.9439C237.342 85.2608 237.652 83.5498 237.599 81.9291C237.594 81.7966 237.698 81.6857 237.831 81.6813Z" fill="#9B6160"/>
<path d="M239.287 82.9436C239.419 82.9334 239.535 83.0322 239.545 83.1644L239.551 83.2826C239.575 83.8731 239.54 84.6935 239.399 85.7047C239.189 87.2173 238.781 88.842 238.128 90.5394C238.081 90.6631 237.942 90.7248 237.818 90.6772C237.694 90.6297 237.633 90.4908 237.68 90.3671C238.319 88.705 238.719 87.1159 238.924 85.6387C239.051 84.7222 239.089 83.9712 239.076 83.4175L239.072 83.3018C239.07 83.2508 239.068 83.2171 239.067 83.2014C239.056 83.0693 239.155 82.9538 239.287 82.9436Z" fill="#9B6160"/>
<path d="M240.324 86.5326C240.455 86.5477 240.55 86.6666 240.535 86.7983C240.408 87.9079 240.235 88.9149 240.028 89.8198C239.884 90.4485 239.73 90.9969 239.576 91.4655L239.518 91.6375C239.468 91.7796 239.422 91.9057 239.379 92.0158L239.314 92.177C239.299 92.2119 239.288 92.2378 239.28 92.2548C239.224 92.3751 239.081 92.4274 238.961 92.3717C238.841 92.316 238.788 92.1733 238.844 92.053L238.886 91.9549L238.902 91.9155C238.951 91.7955 239.005 91.6506 239.064 91.4807C239.233 90.9922 239.402 90.403 239.56 89.7125C239.764 88.825 239.933 87.8356 240.058 86.7438C240.072 86.6253 240.169 86.5368 240.285 86.5313L240.324 86.5326Z" fill="#9B6160"/>
<path fill-rule="evenodd" clip-rule="evenodd" d="M213.306 128.394C213.306 128.394 210.287 137.079 217.463 139.84C224.864 142.687 228.147 134.489 228.147 134.489C228.147 134.489 230.314 128.663 233.017 121.495C234.667 117.118 236.392 112.248 237.137 108.534C237.945 104.512 235.987 103.328 232.398 101.948C228.138 100.309 226.209 100.065 224.221 103.629C222.325 107.028 220.387 111.899 218.712 115.606C215.522 122.673 213.306 128.394 213.306 128.394Z" fill="#ADC6FF"/>
<path fill-rule="evenodd" clip-rule="evenodd" d="M237.529 100.704L229.231 97.5121L226.477 102.888L235.969 106.541L237.529 100.704Z" fill="#ADC6FF"/>
<path d="M201.069 190.223C201.204 190.223 201.314 190.333 201.314 190.469C201.314 190.591 201.225 190.692 201.109 190.711L201.069 190.714H169.066C168.931 190.714 168.821 190.604 168.821 190.469C168.821 190.347 168.91 190.246 169.026 190.227L169.066 190.223H201.069Z" fill="#253368"/>
<path d="M201.069 194.704C201.205 194.704 201.315 194.814 201.315 194.949C201.315 195.071 201.226 195.172 201.109 195.191L201.069 195.195H168.427C168.291 195.195 168.181 195.085 168.181 194.949C168.181 194.827 168.27 194.726 168.387 194.707L168.427 194.704H201.069Z" fill="#253368"/>
<path fill-rule="evenodd" clip-rule="evenodd" d="M45.6062 293.947C48.6334 294.182 50.809 297.074 50.2928 300.185C49.411 305.504 48.1558 313.7 47.3993 321.375C46.7205 328.254 47.5685 333.016 46.2115 334.767C44.7479 336.654 41.8188 334.936 39.3385 337.343C36.8582 339.751 35.0675 341.602 28.5607 339.956C20.9511 338.031 27.7717 336.063 31.4048 332.778C37.8225 326.976 38.6476 324.176 39.0891 319.788C39.9938 310.801 40.1233 303.857 40.08 299.323C40.0492 296.195 42.6073 293.714 45.6062 293.947Z" fill="#FFC999"/>
<path fill-rule="evenodd" clip-rule="evenodd" d="M47.0611 328.077C47.0611 328.077 45.9486 329.532 42.1432 332.558C39.1418 334.944 37.1928 336.386 35.6069 335.621C32.7127 334.222 30.4739 333.495 30.4739 333.495C30.4739 333.495 27.7135 334.866 25.6247 336.438C23.5359 338.01 23.7142 340.694 28.2105 341.561C32.7067 342.429 35.3099 342.227 39.6821 338.944C44.0549 335.66 45.8787 337.124 46.5949 335.192C47.7128 332.173 47.0611 328.077 47.0611 328.077Z" fill="#253368"/>
<path fill-rule="evenodd" clip-rule="evenodd" d="M59.6105 260.563L64.8495 226.32C65.8457 219.225 60.5899 212.847 53.6952 212.784C47.7275 212.73 42.7355 217.482 42.2603 223.67L39.5896 258.436C39.5896 258.436 38.3067 268.297 48.3045 269.264C58.0277 270.205 59.6105 260.563 59.6105 260.563Z" fill="#253368"/>
<path fill-rule="evenodd" clip-rule="evenodd" d="M60.0617 257.035L50.8083 317.966C50.5867 319.422 49.3796 320.495 47.9612 320.495H37.9538C36.2679 320.495 34.9422 318.997 35.0813 317.249L39.9378 256.565C39.9378 256.565 40.3901 246.217 51.0173 247.158C60.9302 248.035 60.0617 257.035 60.0617 257.035Z" fill="#253368"/>
<path fill-rule="evenodd" clip-rule="evenodd" d="M50.9409 320.883H34.5339C34.1869 320.883 33.9117 320.579 33.9328 320.218L34.367 312.9C34.3869 312.57 34.6501 312.312 34.9681 312.312H52.4045C52.7858 312.312 53.0713 312.677 52.9936 313.066L51.5306 320.384C51.4727 320.675 51.2264 320.883 50.9409 320.883Z" fill="#4E5C93"/>
<path fill-rule="evenodd" clip-rule="evenodd" d="M82.5877 293.947C79.5605 294.182 77.385 297.074 77.9011 300.185C78.7829 305.504 80.0388 313.7 80.7947 321.375C81.4735 328.254 80.6254 333.016 81.9824 334.767C83.446 336.654 86.3757 334.936 88.8554 337.343C91.3358 339.751 93.1264 341.602 99.6332 339.956C107.243 338.031 100.423 336.063 96.7891 332.778C90.3714 326.976 89.5463 324.176 89.1048 319.788C88.2001 310.801 88.0706 303.857 88.114 299.323C88.1447 296.195 85.5867 293.714 82.5877 293.947Z" fill="#FFC999"/>
<path fill-rule="evenodd" clip-rule="evenodd" d="M81.1342 328.077C81.1342 328.077 82.2466 329.532 86.0521 332.558C89.054 334.944 91.0025 336.386 92.5884 335.621C95.4825 334.222 97.7213 333.495 97.7213 333.495C97.7213 333.495 100.482 334.866 102.571 336.438C104.659 338.01 104.481 340.694 99.9848 341.561C95.4885 342.429 92.8859 342.227 88.5131 338.944C84.1403 335.66 82.3165 337.124 81.6004 335.192C80.4825 332.173 81.1342 328.077 81.1342 328.077Z" fill="#253368"/>
<path fill-rule="evenodd" clip-rule="evenodd" d="M68.5846 260.563L63.3462 226.32C62.3494 219.225 67.6052 212.847 74.4999 212.784C80.4676 212.73 85.4596 217.482 85.9348 223.67L88.6055 258.436C88.6055 258.436 89.8884 268.297 79.8906 269.264C70.1675 270.205 68.5846 260.563 68.5846 260.563Z" fill="#253368"/>
<path fill-rule="evenodd" clip-rule="evenodd" d="M68.1326 257.035L77.3865 317.966C77.6076 319.422 78.8146 320.495 80.2331 320.495H90.2405C91.9264 320.495 93.2521 318.997 93.1129 317.249L88.2565 256.565C88.2565 256.565 87.8042 246.217 77.1775 247.158C67.2641 248.035 68.1326 257.035 68.1326 257.035Z" fill="#253368"/>
<path fill-rule="evenodd" clip-rule="evenodd" d="M77.253 320.883H93.66C94.007 320.883 94.2822 320.579 94.2611 320.218L93.8269 312.9C93.807 312.57 93.5438 312.312 93.2258 312.312H75.7894C75.4081 312.312 75.1226 312.677 75.2003 313.066L76.6633 320.384C76.7212 320.675 76.9675 320.883 77.253 320.883Z" fill="#4E5C93"/>
<path fill-rule="evenodd" clip-rule="evenodd" d="M61.1659 243.114L43.7464 232.523C42.5008 231.591 41.8256 230.041 41.9732 228.453L43.6633 210.243L84.8446 210.043L85.4247 228.794C85.4608 229.96 85.0585 231.09 84.3056 231.955C81.9975 234.607 77.7909 237.326 67.61 243.114C66.2283 243.899 62.4079 244.121 61.1659 243.114Z" fill="#253368"/>
<path d="M82.085 215.425C82.2126 215.425 82.316 215.532 82.316 215.665C82.316 215.785 82.2322 215.884 82.1225 215.902L82.085 215.905H44.7759C44.6483 215.905 44.5449 215.798 44.5449 215.665C44.5449 215.546 44.6287 215.447 44.7384 215.428L44.7759 215.425H82.085Z" fill="#253368"/>
<path d="M66.1431 210.134C66.2579 210.134 66.3532 210.221 66.3711 210.335L66.3741 210.374V215.665C66.3741 215.798 66.2707 215.906 66.1431 215.906C66.0283 215.906 65.933 215.818 65.9151 215.704L65.9121 215.665V210.374C65.9121 210.241 66.0155 210.134 66.1431 210.134Z" fill="#253368"/>
<path fill-rule="evenodd" clip-rule="evenodd" d="M58.0902 138.958L58.2739 127.562L72.5595 127.905C72.5595 127.905 72.5053 135.686 72.7878 138.843C82.3634 152.917 51.8376 152.388 56.1977 142.163C57.1421 139.948 58.0902 138.958 58.0902 138.958Z" fill="#FFC999"/>
<path fill-rule="evenodd" clip-rule="evenodd" d="M55.3567 120.985C56.3216 123.346 55.6362 125.908 53.8256 126.708C52.015 127.508 49.766 126.243 48.8011 123.882C47.8368 121.521 48.5222 118.959 50.3328 118.159C52.1427 117.358 54.3918 118.624 55.3567 120.985Z" fill="#FFC999"/>
<path fill-rule="evenodd" clip-rule="evenodd" d="M75.6695 120.985C74.7046 123.346 75.3907 125.908 77.2012 126.708C79.0112 127.508 81.2602 126.243 82.2251 123.882C83.1894 121.521 82.5046 118.959 80.694 118.159C78.8835 117.358 76.6344 118.624 75.6695 120.985Z" fill="#FFC999"/>
<path fill-rule="evenodd" clip-rule="evenodd" d="M71.1541 104.617C71.1541 107.947 68.5581 110.647 65.3568 110.647C62.1549 110.647 59.5596 107.947 59.5596 104.617C59.5596 101.287 62.1549 98.5878 65.3568 98.5878C68.5581 98.5878 71.1541 101.287 71.1541 104.617Z" fill="#253368"/>
<path fill-rule="evenodd" clip-rule="evenodd" d="M71.6078 104.029C71.6078 107.36 69.0119 110.059 65.8106 110.059C62.6087 110.059 60.0127 107.36 60.0127 104.029C60.0127 100.699 62.6087 98 65.8106 98C69.0119 98 71.6078 100.699 71.6078 104.029Z" fill="black"/>
<path fill-rule="evenodd" clip-rule="evenodd" d="M78.7042 120.651C78.7042 130 74.6338 134.859 65.6454 134.859C57.2227 134.859 52.5879 130.097 52.5879 120.651C52.5879 107.776 58.4339 104.601 65.6454 104.601C72.8575 104.601 78.7042 108.834 78.7042 120.651Z" fill="#FFC999"/>
<path d="M59.1043 133.514C59.1522 133.394 59.2844 133.337 59.3996 133.387C61.3183 134.217 63.4154 134.683 65.5889 134.683C67.5768 134.683 69.3784 134.317 71.2896 133.618C71.4073 133.575 71.5363 133.64 71.5776 133.762C71.619 133.885 71.5571 134.019 71.4394 134.062C69.4829 134.777 67.6319 135.152 65.5889 135.152C63.3537 135.152 61.1981 134.674 59.2261 133.821C59.1109 133.771 59.0564 133.633 59.1043 133.514Z" fill="#DD936F"/>
<path fill-rule="evenodd" clip-rule="evenodd" d="M55.1882 105.6C55.1882 105.6 59.6628 101.799 66.3069 101.171C68.7938 100.935 71.5536 102.742 73.4274 104.11C78.7411 107.99 79.2693 110.343 79.6084 114.458C79.8897 117.87 78.3646 123.394 78.3646 123.394C78.3646 123.394 78.0996 118.39 77.687 116.574C76.6691 112.106 74.2948 109.872 72.2596 109.284C70.5634 117.986 63.2152 116.339 63.2152 116.339C63.2152 116.339 65.3914 112.106 64.035 109.284C63.2718 116.78 53.4921 115.869 53.4921 115.869C53.4921 115.869 52.8139 120.337 52.7572 123.394C52.4175 122.16 51.3954 119.809 51.231 116.104C50.8919 108.461 55.1882 105.6 55.1882 105.6Z" fill="#253368"/>
<path fill-rule="evenodd" clip-rule="evenodd" d="M64.6542 121.294C64.6542 124.207 62.3828 126.569 59.5815 126.569C56.7801 126.569 54.5088 124.207 54.5088 121.294C54.5088 118.38 56.7801 116.018 59.5815 116.018C62.3828 116.018 64.6542 118.38 64.6542 121.294Z" fill="white"/>
<path d="M59.5828 115.705C56.615 115.705 54.209 118.207 54.209 121.294C54.209 124.38 56.615 126.882 59.5828 126.882C62.5506 126.882 64.9567 124.38 64.9567 121.294C64.9567 118.207 62.5506 115.705 59.5828 115.705ZM59.5828 116.332C62.218 116.332 64.3544 118.553 64.3544 121.294C64.3544 124.034 62.218 126.256 59.5828 126.256C56.9477 126.256 54.8113 124.034 54.8113 121.294C54.8113 118.553 56.9477 116.332 59.5828 116.332Z" fill="#253368"/>
<path fill-rule="evenodd" clip-rule="evenodd" d="M77.0901 121.294C77.0901 124.207 74.8188 126.569 72.0174 126.569C69.216 126.569 66.9453 124.207 66.9453 121.294C66.9453 118.38 69.216 116.018 72.0174 116.018C74.8188 116.018 77.0901 118.38 77.0901 121.294Z" fill="white"/>
<path d="M72.0187 115.705C69.0511 115.705 66.6455 118.207 66.6455 121.294C66.6455 124.38 69.0511 126.882 72.0187 126.882C74.9865 126.882 77.3926 124.38 77.3926 121.294C77.3926 118.207 74.9865 115.705 72.0187 115.705ZM72.0187 116.332C74.6539 116.332 76.7903 118.553 76.7903 121.294C76.7903 124.034 74.6539 126.256 72.0187 126.256C69.3837 126.256 67.2478 124.034 67.2478 121.294C67.2478 118.553 69.3837 116.332 72.0187 116.332Z" fill="#253368"/>
<path d="M64.9519 119.162C65.3184 119.05 65.6918 118.994 66.0499 119.028C66.3655 119.058 66.6515 119.157 66.8952 119.338C67.0306 119.439 67.062 119.634 66.9654 119.775C66.8687 119.916 66.6806 119.948 66.5453 119.848C66.395 119.736 66.2106 119.673 65.9955 119.652C65.7235 119.626 65.4215 119.671 65.1217 119.763C64.9763 119.807 64.8666 119.851 64.8096 119.878C64.6581 119.95 64.4796 119.88 64.4108 119.723C64.342 119.565 64.409 119.379 64.5605 119.308L64.643 119.272C64.7222 119.239 64.8269 119.2 64.9519 119.162Z" fill="#253368"/>
<path fill-rule="evenodd" clip-rule="evenodd" d="M58.8057 121.197C58.8057 120.287 59.4134 119.55 60.1627 119.55C60.912 119.55 61.5191 120.287 61.5191 121.197" fill="white"/>
<path d="M58.8057 121.197C58.8057 120.287 59.4134 119.55 60.1627 119.55C60.912 119.55 61.5191 120.287 61.5191 121.197" stroke="#253368" stroke-width="1.5" stroke-linecap="round" stroke-linejoin="round"/>
<path fill-rule="evenodd" clip-rule="evenodd" d="M70.2627 121.197C70.2627 120.287 70.8698 119.55 71.6191 119.55C72.3684 119.55 72.9761 120.287 72.9761 121.197" fill="white"/>
<path d="M70.2627 121.197C70.2627 120.287 70.8698 119.55 71.6191 119.55C72.3684 119.55 72.9761 120.287 72.9761 121.197" stroke="#253368" stroke-width="1.5" stroke-linecap="round" stroke-linejoin="round"/>
<path d="M65.7025 122.846C65.855 122.846 65.981 122.964 66.0009 123.117L66.0037 123.159V125.04C66.0037 125.213 65.8688 125.354 65.7025 125.354C65.5501 125.354 65.4241 125.236 65.4041 125.083L65.4014 125.04V123.159C65.4014 122.986 65.5362 122.846 65.7025 122.846Z" fill="#DD936F"/>
<path d="M67.4576 126.191C67.596 126.095 67.783 126.134 67.8753 126.278C67.9675 126.422 67.9301 126.616 67.7917 126.712C67.4806 126.928 67.144 127.08 66.7868 127.174C65.9787 127.386 65.1273 127.292 64.3061 127.01C64.0032 126.906 63.7736 126.802 63.6404 126.729C63.4933 126.648 63.4367 126.459 63.5142 126.306C63.5917 126.153 63.7738 126.094 63.921 126.174L63.9917 126.21C64.0135 126.221 64.0392 126.233 64.0687 126.246C64.1944 126.304 64.3374 126.361 64.4947 126.415C65.2168 126.663 65.9592 126.745 66.6396 126.566C66.9316 126.49 67.2049 126.366 67.4576 126.191Z" fill="#F5222D"/>
<path d="M51.3036 118.133C51.375 117.993 51.534 117.932 51.6733 117.985L51.7107 118.002L54.5934 119.59C54.7404 119.671 54.7964 119.86 54.7186 120.013C54.6473 120.153 54.4882 120.214 54.3489 120.161L54.3115 120.144L51.4289 118.556C51.2819 118.475 51.2258 118.286 51.3036 118.133Z" fill="#253368"/>
<path d="M79.1965 117.857C79.3273 117.75 79.5166 117.774 79.6193 117.91C79.7127 118.033 79.7025 118.207 79.6015 118.318L79.5686 118.349L77.1943 120.29C77.0635 120.396 76.8741 120.373 76.7714 120.237C76.678 120.113 76.6883 119.939 76.7892 119.828L76.8221 119.797L79.1965 117.857Z" fill="#253368"/>
<path fill-rule="evenodd" clip-rule="evenodd" d="M80.9082 143.057L74.4641 139.882C75.0604 144.121 58.6148 145.652 56.1242 140.775C56.061 140.651 56.0104 140.534 55.9676 140.422L45.4639 144.82L54.9371 214.501C54.9371 214.501 68.5036 220.145 81.2792 214.813C85.5755 155.55 80.9082 143.057 80.9082 143.057Z" fill="#597EF7"/>
<path d="M72.1319 145.322C72.246 145.263 72.3848 145.311 72.4418 145.43C72.4989 145.548 72.4526 145.693 72.3385 145.752C71.8962 145.982 71.445 146.187 70.9853 146.369C67.4396 147.771 63.6629 147.714 60.1043 146.779C59.552 146.633 59.0537 146.478 58.6174 146.322L58.4016 146.243C58.368 146.23 58.3356 146.218 58.3044 146.206L58.1122 146.129C58.0947 146.122 58.0809 146.116 58.0706 146.111C57.9529 146.06 57.8974 145.919 57.9467 145.797C57.9959 145.675 58.1313 145.617 58.249 145.668L58.3795 145.722L58.5593 145.791C58.624 145.816 58.6934 145.841 58.7675 145.868C59.192 146.019 59.6781 146.171 60.2175 146.313C63.6922 147.226 67.377 147.282 70.8212 145.92C71.2665 145.744 71.7036 145.545 72.1319 145.322Z" fill="#597EF7"/>
<path fill-rule="evenodd" clip-rule="evenodd" d="M41.0159 145.048C45.7645 142.578 49.2176 142.298 52.7496 140.893C54.8318 140.063 56.8085 138.152 58.3264 137.6C67.5279 185.917 61.6566 252.14 61.2886 273.606C39.3204 274.275 37.084 266.998 37.084 266.998C37.084 266.998 40.3865 210.321 40.3377 205.722C39.9986 173.974 39.8016 145.679 41.0159 145.048Z" fill="#E4EBF7"/>
<path d="M57.8659 137.151C58.0466 137.028 58.2901 137.136 58.3282 137.358L58.485 138.303L58.648 139.319C58.7872 140.198 58.9369 141.17 59.0953 142.23L59.3531 143.983C59.9459 148.073 60.5357 152.565 61.0892 157.359C62.7059 171.361 63.72 185.316 63.8384 198.346C63.8544 200.11 63.8536 201.848 63.8356 203.558L63.806 206.071C63.7622 209.456 63.7012 212.98 63.624 216.628L63.5738 218.917C63.3826 227.349 63.1129 236.228 62.7837 245.316L62.6434 249.106C62.4624 253.894 62.2736 258.518 62.0832 262.899L61.7965 269.292L61.5898 273.622C61.5816 273.784 61.455 273.913 61.2986 273.918L60.9092 273.927C57.3893 273.99 53.0841 273.803 48.9397 273.149L48.462 273.072C42.3022 272.041 38.1301 270.15 36.8102 267.127C36.7415 266.97 36.8085 266.784 36.9599 266.713C37.1113 266.641 37.2899 266.711 37.3586 266.868C38.5969 269.704 42.8021 271.548 49.03 272.53C52.9934 273.155 57.1151 273.35 60.5351 273.307L61.0026 273.299L61.1789 269.607C61.2266 268.581 61.277 267.481 61.3295 266.312L61.448 263.641C61.6496 259.035 61.85 254.15 62.0415 249.082L62.1365 246.533C62.5167 236.188 62.8211 226.098 63.0218 216.615L63.0766 213.903C63.1457 210.32 63.1982 206.864 63.2333 203.551C63.2513 201.845 63.2521 200.112 63.2361 198.352C63.2243 197.052 63.2035 195.742 63.1741 194.424L63.1508 193.473L63.1324 193.466C63.0489 193.43 62.9831 193.355 62.958 193.26L62.9499 193.219C62.2721 187.982 61.4965 183.866 60.4039 179.541L60.1904 178.709C59.724 176.915 59.2017 175.062 58.4689 172.578L56.3591 165.502C56.0866 164.584 55.8353 163.731 55.5825 162.866L55.4981 162.578C52.9879 153.978 52.2663 146.89 52.5338 141.817L52.5464 141.591C52.5535 141.472 52.5609 141.362 52.5684 141.262L52.5954 140.946C52.5976 140.924 52.5995 140.907 52.6009 140.894C52.6096 140.818 52.645 140.748 52.6994 140.697L52.7342 140.67L57.8659 137.151ZM57.8135 137.938L53.185 141.111L53.1688 141.311L53.1476 141.629C52.8549 146.572 53.5282 153.534 55.9642 162.015L56.4116 163.547C56.6375 164.315 56.8682 165.095 57.1196 165.94L58.7821 171.507L59.3696 173.502C59.9912 175.634 60.4537 177.302 60.8791 178.961C61.746 182.34 62.4176 185.568 62.9959 189.263L63.0235 189.442L62.9843 188.438C62.5877 178.713 61.7595 168.616 60.6111 158.482L60.4912 157.433C59.9384 152.646 59.3495 148.16 58.7575 144.076L58.596 142.972C58.4023 141.66 58.2204 140.473 58.0537 139.421L57.8911 138.408L57.8135 137.938Z" fill="#A3B5D6"/>
<path d="M39.8814 209.008L51.1453 211.017C51.2754 211.041 51.374 211.148 51.3924 211.281L51.3955 211.326V233.779C51.3955 235.865 49.6576 237.483 47.677 237.27L47.5744 237.258L40.3123 236.25C40.1474 236.227 40.0316 236.07 40.0536 235.898C40.0737 235.741 40.2027 235.627 40.351 235.627L40.3919 235.629L47.6541 236.637C49.2851 236.864 50.7384 235.572 50.7917 233.875L50.7932 233.779L50.7928 211.59L39.7796 209.625C39.6293 209.598 39.5243 209.46 39.5295 209.306L39.5337 209.263C39.5595 209.107 39.6924 208.998 39.8407 209.003L39.8814 209.008Z" fill="#A3B5D6"/>
<path fill-rule="evenodd" clip-rule="evenodd" d="M90.1815 203.502C91.1988 228.547 90.8735 270.629 90.8735 270.629C90.8735 270.629 80.6986 275.921 67.8013 273.295C67.4339 251.829 62.5208 187.026 72.5704 137.29C74.0889 137.843 76.2253 139.406 78.1478 140.582C81.1486 142.418 85.5852 142.828 90.3333 145.297L90.1815 203.502Z" fill="#E4EBF7"/>
<path d="M73.0531 136.779L73.088 136.8L78.1661 140.361C78.2452 140.417 78.2944 140.508 78.2986 140.607L78.3031 140.765L78.3066 140.985C78.3118 141.484 78.3014 142.133 78.2663 142.924C78.2073 144.254 78.0876 145.751 77.8931 147.404C77.382 151.75 76.4339 156.558 74.9477 161.748L71.9727 171.879L71.4829 173.579C70.7988 175.974 70.259 177.963 69.7751 179.889L69.7095 180.151C68.5051 184.982 67.6463 189.494 66.9625 194.778C66.9421 194.935 66.813 195.049 66.6647 195.049L66.6238 195.046L66.6135 195.044L66.6135 195.056C66.4294 201.544 66.386 208.31 66.5 215.348L66.5134 216.131L66.5745 219.463C66.7107 226.662 66.8707 233.729 67.0502 240.619L67.1526 244.456C67.3222 250.66 67.5 256.448 67.6792 261.751L67.8301 266.097C67.8919 267.826 67.95 269.39 68.0035 270.782L68.0924 273.043L68.3877 273.108L68.4908 273.13C68.9959 273.236 69.5766 273.341 70.224 273.44C75.1461 274.189 80.4453 274.109 85.4109 272.633C87.3017 272.071 89.0799 271.317 90.7266 270.356C90.8716 270.271 91.0552 270.325 91.1366 270.476C91.218 270.627 91.1664 270.817 91.0214 270.902C89.3324 271.888 87.5108 272.661 85.5764 273.236C80.5165 274.739 75.1362 274.821 70.1368 274.06C69.5608 273.972 69.0363 273.879 68.569 273.785L68.3722 273.744C68.2275 273.714 68.0971 273.686 67.9815 273.659L67.7297 273.599C67.5999 273.566 67.5067 273.448 67.5009 273.309L67.351 269.473C67.312 268.436 67.271 267.318 67.2282 266.12L67.0772 261.773C66.8765 255.832 66.6775 249.282 66.4898 242.223L66.407 239.042C66.217 231.592 66.0498 223.94 65.9111 216.143C65.4962 192.843 66.8006 172.493 69.2306 155.306L69.375 154.298C70.0519 149.633 70.7694 145.535 71.4885 142.017L71.6838 141.076C71.8983 140.059 72.1 139.156 72.2857 138.368L72.4665 137.617L72.6296 136.976C72.6813 136.784 72.8874 136.693 73.0531 136.779ZM77.7009 140.79L73.1013 137.565L72.9205 138.307L72.7161 139.184C72.5406 139.952 72.3526 140.816 72.1543 141.775L72.0008 142.526C71.2588 146.2 70.5196 150.495 69.8265 155.397C68.305 166.159 67.2254 178.165 66.7345 191.364L66.7023 192.249L66.7827 191.709C67.3683 187.823 68.0776 184.269 68.9883 180.553L69.1265 179.994C69.6291 177.979 70.1883 175.912 70.9052 173.401L71.7141 170.61C72.4209 168.2 73.8198 163.461 74.2209 162.086C75.7836 156.732 76.7712 151.783 77.2953 147.328C77.4741 145.807 77.589 144.422 77.6512 143.179L77.6646 142.895C77.6991 142.117 77.7094 141.48 77.7043 140.993L77.7009 140.79Z" fill="#A3B5D6"/>
<path d="M89.3514 209.188C89.5162 209.165 89.6679 209.285 89.6902 209.457C89.7106 209.614 89.6152 209.76 89.4722 209.801L89.432 209.809L78.8979 211.289L78.8982 233.469C78.8982 235.18 80.3212 236.507 81.9453 236.338L82.0374 236.327L89.3001 235.319C89.465 235.296 89.6164 235.417 89.6384 235.588C89.6586 235.746 89.5629 235.891 89.4199 235.932L89.3797 235.94L82.117 236.948C80.1283 237.223 78.3569 235.646 78.2974 233.576L78.2959 233.469V211.016C78.2959 210.873 78.388 210.751 78.517 210.714L78.5567 210.706L89.3514 209.188Z" fill="#A3B5D6"/>
<path fill-rule="evenodd" clip-rule="evenodd" d="M111.466 189.663C107.69 192.725 102.22 191.884 99.4587 187.816L78.803 157.386C76.2214 153.583 76.9677 148.342 80.4967 145.479C84.2726 142.417 89.7422 143.258 92.5038 147.326L113.16 177.757C115.741 181.56 114.995 186.8 111.466 189.663Z" fill="#E4EBF7"/>
<path d="M92.175 205.027C92.2905 204.925 92.458 204.929 92.5682 205.03L92.5995 205.063L95.2894 208.371C95.3968 208.503 95.3809 208.701 95.2539 208.812C95.1385 208.914 94.971 208.91 94.8607 208.809L94.8295 208.775L92.1396 205.468C92.0322 205.336 92.048 205.138 92.175 205.027Z" fill="#A3B5D6"/>
<path fill-rule="evenodd" clip-rule="evenodd" d="M86.6016 196.447L95.0574 208.573C95.0574 208.573 110.004 193.611 113.397 187.628C120.372 175.323 102.317 177.619 102.317 177.619L86.6016 196.447Z" fill="#E4EBF7"/>
<path d="M103.668 175.303C103.774 175.17 103.964 175.151 104.092 175.261C104.209 175.361 104.235 175.533 104.159 175.664L104.133 175.702L92.2619 190.649C92.1559 190.783 91.9661 190.801 91.8379 190.691C91.7213 190.591 91.6958 190.419 91.7717 190.288L91.7975 190.25L103.668 175.303Z" fill="#A3B5D6"/>
<path d="M94.5718 196.543C94.6957 196.453 94.8622 196.473 94.9631 196.584L94.9913 196.62L99.7399 203.675C99.8353 203.816 99.8022 204.012 99.6659 204.111C99.542 204.201 99.3756 204.181 99.2747 204.07L99.2465 204.034L94.4978 196.979C94.4024 196.837 94.4356 196.642 94.5718 196.543Z" fill="#A3B5D6"/>
<path fill-rule="evenodd" clip-rule="evenodd" d="M84.509 194.206C84.509 194.206 89.2787 189.489 90.8628 189.679C93.3172 189.975 91.594 194.911 91.594 194.911C91.594 194.911 93.6768 196.376 92.2626 198.879C93.1167 201.334 91.8036 202.492 91.8036 202.492C91.8036 202.492 93.1522 204.366 91.1869 205.85C89.2215 207.334 84.7993 206.84 85.4968 203.652C83.7429 201.856 85.227 200.112 85.227 200.112C85.227 200.112 83.9591 198.407 85.4414 196.747C84.1579 195.968 84.0157 194.703 84.509 194.206Z" fill="#FFC999"/>
<path d="M90.0331 193.691C90.1779 193.606 90.3616 193.659 90.4434 193.81C90.5184 193.948 90.4817 194.12 90.3635 194.213L90.3293 194.236L85.5909 197.02C85.4461 197.105 85.2624 197.052 85.1806 196.901C85.1056 196.763 85.1423 196.591 85.2605 196.498L85.2947 196.474L90.0331 193.691Z" fill="#DD936F"/>
<path d="M90.577 189.583C90.6279 189.418 90.7975 189.328 90.9559 189.381C92.1303 189.773 92.6013 190.815 92.5312 192.237C92.5024 192.822 92.3838 193.442 92.2043 194.065C92.15 194.253 92.0928 194.433 92.0348 194.6L91.9486 194.838L91.9985 194.896C92.1421 195.063 92.2853 195.252 92.4192 195.462C93.1192 196.56 93.3024 197.738 92.6383 198.859L92.6027 198.916L92.6465 199.033C93.0999 200.306 92.9949 201.34 92.5193 202.123L92.4669 202.206C92.3484 202.387 92.2281 202.527 92.1219 202.628L92.1052 202.643L92.0961 204.769C92.0954 204.928 91.9815 205.058 91.8344 205.078L91.7935 205.081C91.641 205.08 91.5156 204.962 91.4963 204.809L91.4938 204.766L91.504 202.491C91.5045 202.388 91.5534 202.292 91.6351 202.234C91.7094 202.181 91.8374 202.055 91.9692 201.854C92.4094 201.182 92.4975 200.253 91.9863 199.002C91.9452 198.901 91.9575 198.786 92.0188 198.697C92.6622 197.764 92.5357 196.778 91.9173 195.809C91.8003 195.625 91.6748 195.459 91.5496 195.313L91.482 195.237C91.4414 195.192 91.41 195.16 91.3907 195.141C91.2962 195.05 91.2675 194.907 91.3193 194.785L91.3741 194.647C91.3861 194.615 91.3994 194.58 91.4138 194.54C91.4865 194.342 91.5594 194.121 91.6274 193.885C91.7941 193.307 91.9037 192.734 91.9297 192.205C91.9873 191.036 91.6397 190.267 90.7716 189.977C90.6133 189.924 90.5261 189.748 90.577 189.583Z" fill="#DD936F"/>
<path d="M89.7044 198.538C89.865 198.493 90.0302 198.592 90.0733 198.759C90.1128 198.912 90.0361 199.069 89.8993 199.129L89.8605 199.143L85.307 200.414C85.1464 200.459 84.9812 200.36 84.9381 200.192C84.8986 200.039 84.9753 199.882 85.1121 199.823L85.1509 199.809L89.7044 198.538Z" fill="#DD936F"/>
<path d="M89.8314 202.574C89.9954 202.546 90.1508 202.661 90.1785 202.831C90.2038 202.988 90.1131 203.136 89.9715 203.182L89.9316 203.192L85.5486 203.961C85.3846 203.99 85.2292 203.875 85.2015 203.705C85.1761 203.548 85.2669 203.4 85.4085 203.354L85.4484 203.344L89.8314 202.574Z" fill="#DD936F"/>
<path fill-rule="evenodd" clip-rule="evenodd" d="M17.536 189.663C21.3113 192.725 26.7815 191.884 29.5425 187.816L50.1989 157.386C52.7798 153.583 52.0341 148.342 48.5046 145.479C44.7293 142.417 39.2591 143.258 36.4981 147.326L15.8417 177.757C13.2608 181.56 14.0065 186.8 17.536 189.663Z" fill="#E4EBF7"/>
<path fill-rule="evenodd" clip-rule="evenodd" d="M42.3971 196.447L33.9412 208.573C33.9412 208.573 18.9942 193.611 15.6025 187.628C8.62714 175.323 26.6821 177.619 26.6821 177.619L42.3971 196.447Z" fill="#E4EBF7"/>
<path d="M24.9082 175.261C25.0248 175.161 25.1923 175.167 25.3013 175.269L25.3322 175.303L37.2032 190.25C37.3091 190.384 37.291 190.581 37.1628 190.691C37.0462 190.791 36.8787 190.785 36.7697 190.683L36.7388 190.649L24.8678 175.702C24.7619 175.568 24.78 175.371 24.9082 175.261Z" fill="#A3B5D6"/>
<path d="M34.0101 196.62C34.1055 196.478 34.2933 196.444 34.4296 196.543C34.5534 196.633 34.5921 196.803 34.5264 196.939L34.5036 196.979L29.7549 204.034C29.6595 204.176 29.4718 204.21 29.3355 204.111C29.2116 204.021 29.173 203.851 29.2387 203.714L29.2615 203.675L34.0101 196.62Z" fill="#A3B5D6"/>
<path fill-rule="evenodd" clip-rule="evenodd" d="M44.4892 194.206C44.4892 194.206 39.7189 189.489 38.1348 189.679C35.6804 189.975 37.4042 194.911 37.4042 194.911C37.4042 194.911 35.3214 196.376 36.7351 198.879C35.8816 201.334 37.194 202.492 37.194 202.492C37.194 202.492 35.846 204.366 37.8114 205.85C39.7767 207.334 44.1983 206.84 43.5014 203.652C45.2554 201.856 43.7707 200.112 43.7707 200.112C43.7707 200.112 45.0385 198.407 43.5569 196.747C44.8404 195.968 44.9819 194.703 44.4892 194.206Z" fill="#FFC999"/>
<path d="M38.5575 193.81C38.6325 193.672 38.7931 193.616 38.9309 193.673L38.9679 193.691L43.7063 196.474C43.8511 196.559 43.9022 196.75 43.8204 196.901C43.7454 197.039 43.5848 197.095 43.447 197.038L43.4101 197.02L38.6717 194.237C38.5268 194.151 38.4757 193.96 38.5575 193.81Z" fill="#DD936F"/>
<path d="M38.0445 189.381C38.2029 189.328 38.3725 189.418 38.4234 189.583C38.4743 189.748 38.3871 189.924 38.2288 189.977C37.3608 190.267 37.0132 191.036 37.0709 192.205C37.097 192.734 37.2067 193.306 37.3734 193.885C37.4415 194.121 37.5144 194.341 37.5871 194.54L37.6714 194.76C37.6752 194.769 37.6787 194.778 37.6817 194.785C37.7335 194.907 37.7049 195.05 37.6103 195.141L37.5476 195.206C37.5207 195.234 37.4882 195.271 37.4513 195.314C37.326 195.459 37.2004 195.625 37.0835 195.809C36.4648 196.778 36.3382 197.764 36.9816 198.697C37.0429 198.786 37.0552 198.901 37.0141 199.002C36.5029 200.253 36.591 201.182 37.0312 201.854C37.163 202.055 37.291 202.181 37.3654 202.234C37.4353 202.283 37.4812 202.361 37.4933 202.447L37.4964 202.49L37.5072 204.766C37.5081 204.939 37.3739 205.08 37.2076 205.081C37.0551 205.082 36.9286 204.965 36.9079 204.812L36.9049 204.769L36.8946 202.642L36.8785 202.628C36.79 202.544 36.6917 202.433 36.5928 202.293L36.5335 202.206C36.0137 201.413 35.8843 200.352 36.3539 199.033L36.397 198.916L36.3621 198.859C35.7182 197.772 35.871 196.631 36.5194 195.562L36.5816 195.462C36.7156 195.252 36.8588 195.063 37.0024 194.896L37.052 194.838L37.0243 194.763C36.9465 194.551 36.8689 194.316 36.7965 194.065C36.617 193.442 36.4983 192.822 36.4694 192.238C36.3991 190.815 36.8701 189.773 38.0445 189.381Z" fill="#DD936F"/>
<path d="M38.9274 198.759C38.9669 198.606 39.109 198.51 39.2561 198.529L39.2963 198.538L43.8498 199.809C44.0104 199.854 44.1057 200.025 44.0626 200.192C44.0231 200.346 43.881 200.442 43.7338 200.422L43.6936 200.414L39.1402 199.143C38.9795 199.098 38.8842 198.926 38.9274 198.759Z" fill="#DD936F"/>
<path d="M39.1697 202.574L43.5533 203.344C43.7173 203.373 43.8278 203.534 43.8002 203.705C43.7748 203.861 43.6421 203.971 43.4938 203.966L43.4531 203.961L39.0695 203.192C38.9055 203.163 38.7949 203.002 38.8226 202.831C38.848 202.675 38.9807 202.565 39.1289 202.57L39.1697 202.574Z" fill="#DD936F"/>
<path d="M39.6524 161.314C39.8048 161.31 39.9335 161.425 39.9569 161.577L39.9606 161.62L40.6388 191.251C40.6428 191.424 40.5112 191.568 40.3449 191.572C40.1925 191.576 40.0638 191.461 40.0404 191.309L40.0367 191.266L39.3585 161.635C39.3545 161.462 39.4861 161.318 39.6524 161.314Z" fill="#A3B5D6"/>
<path d="M89.8618 160.961C90.0142 160.963 90.1388 161.083 90.1569 161.236L90.1591 161.278L89.82 189.499C89.818 189.672 89.6815 189.811 89.5151 189.808C89.3627 189.806 89.2381 189.687 89.22 189.534L89.2178 189.491L89.5569 161.27C89.5589 161.097 89.6955 160.959 89.8618 160.961Z" fill="#A3B5D6"/>
<path fill-rule="evenodd" clip-rule="evenodd" d="M304.295 120.057L306.272 105.308L319.558 106.977L319.286 121.201C319.205 125.497 315.549 128.854 311.262 128.57C306.914 128.283 303.716 124.376 304.295 120.057Z" fill="#FFC999"/>
<path fill-rule="evenodd" clip-rule="evenodd" d="M322.865 102.15C323.699 101.375 324.939 101.211 325.76 102.195C327.084 103.782 325.502 109.354 321.713 109.4C320.288 109.129 321.565 103.361 322.865 102.15Z" fill="#FFC999"/>
<path d="M324.502 102.975C324.614 102.961 324.716 103.041 324.73 103.153C324.743 103.254 324.679 103.347 324.585 103.375L324.552 103.381C324.521 103.385 324.453 103.402 324.361 103.442C324.201 103.51 324.039 103.619 323.886 103.778C323.61 104.064 323.395 104.479 323.271 105.049C323.239 105.197 323.252 105.234 323.38 105.315L323.468 105.37C323.732 105.531 323.862 105.699 323.873 106.015C323.89 106.508 323.674 106.884 323.313 107.146C323.11 107.294 322.908 107.376 322.766 107.411C322.656 107.439 322.545 107.372 322.517 107.262C322.49 107.152 322.557 107.041 322.667 107.014L322.702 107.003C322.724 106.996 322.753 106.986 322.788 106.972C322.885 106.932 322.982 106.88 323.072 106.815C323.33 106.628 323.475 106.375 323.464 106.029C323.459 105.891 323.421 105.828 323.298 105.747L323.205 105.689C322.908 105.509 322.792 105.324 322.871 104.962C323.011 104.319 323.261 103.836 323.591 103.493C323.923 103.149 324.261 103.004 324.502 102.975Z" fill="#DD936F"/>
<path fill-rule="evenodd" clip-rule="evenodd" d="M303.376 100.697C302.667 99.8058 301.464 99.4601 300.506 100.312C298.961 101.685 299.699 107.43 303.439 108.038C304.889 107.981 304.482 102.087 303.376 100.697Z" fill="#FFC999"/>
<path d="M301.642 101.162C301.825 101.213 302.08 101.356 302.33 101.638C302.683 102.036 302.911 102.606 302.961 103.37C302.984 103.72 302.86 103.884 302.575 104.016L302.459 104.065C302.298 104.134 302.243 104.188 302.216 104.337C302.149 104.696 302.271 104.979 302.524 105.207C302.599 105.274 302.679 105.331 302.76 105.378L302.82 105.411C302.837 105.42 302.85 105.426 302.858 105.429C302.963 105.473 303.012 105.592 302.969 105.697C302.926 105.801 302.806 105.851 302.701 105.808C302.583 105.759 302.416 105.662 302.249 105.511C301.899 105.194 301.718 104.775 301.813 104.263C301.865 103.98 302 103.83 302.236 103.716L302.358 103.663C302.541 103.587 302.563 103.562 302.552 103.396C302.508 102.721 302.314 102.238 302.023 101.91C301.91 101.782 301.79 101.687 301.671 101.621C301.63 101.598 301.596 101.582 301.571 101.571L301.532 101.557C301.423 101.526 301.36 101.413 301.39 101.304C301.417 101.208 301.509 101.146 301.606 101.155L301.642 101.162Z" fill="#DD936F"/>
<path fill-rule="evenodd" clip-rule="evenodd" d="M322.982 103.674C322.223 113.863 317.993 117.844 311.995 117.397C306.451 116.983 302.453 111.73 302.974 101.858C303.371 94.3271 305.614 89.0352 314.184 89.675C323.183 90.3458 323.543 96.1533 322.982 103.674Z" fill="#FFC999"/>
<path d="M307.11 115.322C307.183 115.235 307.312 115.224 307.399 115.296C308.663 116.356 310.528 117.028 312.416 117.169C314.41 117.317 315.896 116.984 317.435 116.051C317.532 115.992 317.658 116.023 317.717 116.12C317.775 116.217 317.745 116.343 317.648 116.401C316.034 117.38 314.463 117.732 312.386 117.577C310.417 117.43 308.47 116.73 307.136 115.61C307.049 115.538 307.038 115.408 307.11 115.322Z" fill="#DD936F"/>
<path fill-rule="evenodd" clip-rule="evenodd" d="M304.762 98.4723C303.867 99.5745 303.415 101.441 303.203 102.675C303.174 102.846 302.926 102.836 302.912 102.663C302.74 100.716 302.583 95.9514 303.4 93.2725C304.683 89.0593 310.077 85.9341 313.142 86.0011C314.389 86.028 316.524 86.2803 318.63 88.376C320.83 90.5667 322.252 90.4466 323.635 93.4888C324.577 95.5622 323.547 101.158 323.048 103.823C323.01 104.027 322.713 104.011 322.697 103.805C322.603 102.547 322.355 100.81 321.703 99.8973C321.622 98.2296 321.414 95.101 321.414 95.101C317.784 93.9415 309.571 93.5712 305.28 94.0594L304.762 98.4723Z" fill="#253368"/>
<path d="M315.659 98.9997C317.005 98.7627 318.545 98.7301 320.182 99.032C320.493 99.0893 320.698 99.3877 320.641 99.6985C320.583 100.009 320.285 100.215 319.974 100.158C318.482 99.8824 317.077 99.9122 315.857 100.127C315.695 100.156 315.547 100.186 315.416 100.216L315.272 100.251L315.15 100.285C314.848 100.378 314.528 100.209 314.434 99.9071C314.341 99.6052 314.51 99.2846 314.812 99.1912L314.913 99.1617C315.083 99.1148 315.335 99.0568 315.659 98.9997Z" fill="#253368"/>
<path d="M311.129 99.4871C311.22 99.4442 311.326 99.4742 311.383 99.5533L311.402 99.5852L312.308 101.511C312.318 101.533 312.325 101.556 312.327 101.58L312.327 101.616L311.787 107.804L313.509 107.938C313.611 107.946 313.689 108.026 313.697 108.125L313.698 108.158C313.69 108.26 313.609 108.338 313.511 108.346L313.477 108.347L311.549 108.197C311.447 108.189 311.368 108.108 311.36 108.009L311.361 107.975L311.913 101.635L311.031 99.7597C310.988 99.6687 311.018 99.5621 311.097 99.5057L311.129 99.4871Z" fill="#DD936F"/>
<path d="M305.861 97.9536C306.354 97.9061 306.926 97.9321 307.564 98.0186C308.095 98.0906 308.657 98.2023 309.23 98.343C309.521 98.4144 309.801 98.4897 310.065 98.5659L310.418 98.6717L310.673 98.7529C310.972 98.8539 311.133 99.1785 311.032 99.478C310.931 99.7775 310.607 99.9385 310.307 99.8375L310.056 99.7575L309.931 99.7196C309.629 99.6293 309.301 99.5389 308.958 99.4547C308.42 99.3229 307.898 99.2188 307.41 99.1528C306.852 99.0772 306.364 99.055 305.97 99.0929C305.656 99.1232 305.376 98.8927 305.346 98.5781C305.316 98.2635 305.546 97.9839 305.861 97.9536Z" fill="#253368"/>
<path d="M311.159 101.52L314.695 101.783C314.92 101.8 315.09 101.996 315.073 102.222C315.057 102.433 314.885 102.594 314.678 102.601L314.634 102.6L311.098 102.337C310.872 102.32 310.703 102.124 310.72 101.898C310.736 101.687 310.908 101.526 311.114 101.519L311.159 101.52Z" fill="#253368"/>
<path d="M311.336 103.192C312.242 102.82 313.127 102.89 313.917 103.229C314.167 103.335 314.351 103.445 314.46 103.524C314.642 103.658 314.681 103.915 314.548 104.097C314.414 104.28 314.157 104.319 313.975 104.185C313.913 104.14 313.782 104.062 313.595 103.982C312.991 103.723 312.328 103.671 311.647 103.95C311.438 104.036 311.198 103.936 311.112 103.726C311.026 103.517 311.127 103.278 311.336 103.192Z" fill="#253368"/>
<path fill-rule="evenodd" clip-rule="evenodd" d="M310.89 101.224L304.711 100.666C304.279 100.628 303.898 100.945 303.862 101.376C303.796 102.181 303.724 103.476 303.833 104.6C303.963 105.925 305.062 106.829 306.382 107.01C308.03 107.236 309.516 107.371 310.344 106.58C311.606 105.375 311.521 103.195 311.599 102.053C311.628 101.632 311.309 101.262 310.89 101.224Z" fill="white"/>
<path d="M310.903 101.088L304.723 100.53L304.659 100.527L304.603 100.527C304.147 100.545 303.765 100.899 303.727 101.365C303.63 102.528 303.605 103.658 303.698 104.613C303.828 105.953 304.923 106.947 306.363 107.145L306.809 107.203C308.764 107.443 309.738 107.348 310.438 106.679C311.014 106.13 311.356 105.365 311.536 104.396L311.564 104.24C311.624 103.884 311.655 103.575 311.684 103.078L311.733 102.108C311.734 102.093 311.735 102.077 311.736 102.062C311.769 101.568 311.396 101.133 310.903 101.088ZM304.643 100.8L304.69 100.802L310.878 101.36C311.224 101.392 311.487 101.698 311.463 102.043L311.445 102.377L311.423 102.836C311.388 103.539 311.354 103.879 311.267 104.346C311.097 105.264 310.778 105.978 310.25 106.482C309.584 107.117 308.569 107.172 306.4 106.874C305.078 106.693 304.087 105.793 303.969 104.586C303.878 103.651 303.903 102.536 303.999 101.387C304.026 101.051 304.309 100.798 304.643 100.8Z" fill="#253368"/>
<path d="M303.905 100.428L311.583 100.918C311.809 100.933 311.98 101.128 311.966 101.353C311.952 101.564 311.782 101.728 311.575 101.737L311.531 101.736L303.853 101.246C303.627 101.231 303.456 101.037 303.47 100.811C303.484 100.6 303.654 100.437 303.86 100.427L303.905 100.428Z" fill="#253368"/>
<path d="M308.225 102.232C308.875 102.281 309.319 102.963 309.262 103.728C309.25 103.885 309.113 104.003 308.955 103.992C308.797 103.98 308.679 103.843 308.691 103.685C308.727 103.207 308.478 102.825 308.182 102.803C307.886 102.781 307.583 103.122 307.548 103.6C307.536 103.758 307.399 103.876 307.241 103.864C307.083 103.852 306.965 103.715 306.977 103.557C307.032 102.818 307.539 102.224 308.16 102.23L308.225 102.232Z" fill="#5C4E4A"/>
<path fill-rule="evenodd" clip-rule="evenodd" d="M321.388 102.007L315.209 101.449C314.777 101.411 314.396 101.727 314.361 102.159C314.294 102.964 314.223 104.259 314.332 105.383C314.461 106.708 315.561 107.612 316.88 107.793C318.529 108.019 320.014 108.154 320.842 107.363C322.105 106.158 322.02 103.978 322.097 102.836C322.127 102.415 321.807 102.045 321.388 102.007Z" fill="white"/>
<path d="M321.401 101.871L315.221 101.314L315.157 101.31L315.101 101.31C314.645 101.328 314.263 101.681 314.225 102.148C314.128 103.307 314.103 104.441 314.196 105.396C314.327 106.736 315.422 107.73 316.862 107.928L317.162 107.968C319.215 108.231 320.219 108.147 320.937 107.462C321.512 106.913 321.855 106.148 322.034 105.179L322.062 105.023C322.127 104.641 322.158 104.313 322.188 103.751L322.228 102.939C322.23 102.906 322.232 102.875 322.234 102.845C322.268 102.351 321.894 101.916 321.401 101.871ZM315.141 101.583L315.202 101.586L321.376 102.143C321.722 102.175 321.985 102.481 321.961 102.826L321.946 103.092L321.916 103.731C321.882 104.359 321.848 104.688 321.766 105.129C321.596 106.047 321.276 106.761 320.748 107.265C320.082 107.9 319.068 107.955 316.899 107.657C315.577 107.476 314.586 106.576 314.468 105.37C314.377 104.434 314.402 103.315 314.497 102.17C314.525 101.834 314.807 101.581 315.141 101.583Z" fill="#253368"/>
<path d="M317.759 102.943C318.409 102.992 318.853 103.674 318.796 104.439C318.785 104.596 318.647 104.715 318.49 104.703C318.332 104.692 318.214 104.554 318.226 104.397C318.261 103.918 318.012 103.536 317.716 103.514C317.42 103.492 317.118 103.833 317.082 104.311C317.07 104.468 316.933 104.587 316.776 104.575C316.618 104.563 316.5 104.426 316.512 104.268C316.567 103.529 317.073 102.935 317.694 102.941L317.759 102.943Z" fill="#5C4E4A"/>
<path d="M314.403 101.211L322.08 101.701C322.306 101.716 322.478 101.911 322.463 102.136C322.45 102.347 322.279 102.511 322.073 102.52L322.028 102.519L314.35 102.029C314.125 102.014 313.953 101.82 313.968 101.594C313.981 101.383 314.152 101.22 314.358 101.21L314.403 101.211Z" fill="#253368"/>
<path fill-rule="evenodd" clip-rule="evenodd" d="M315.676 109.557C312.545 109.608 309.678 109.109 309.678 109.109C309.678 109.109 310.255 111.061 312.585 111.235C314.915 111.409 315.676 109.557 315.676 109.557Z" fill="white"/>
<path d="M309.404 109.191C309.494 109.496 309.712 109.934 310.109 110.371C310.698 111.021 311.51 111.442 312.564 111.521C313.707 111.606 314.604 111.251 315.267 110.607C315.625 110.26 315.841 109.91 315.941 109.666C316.02 109.476 315.878 109.267 315.672 109.271C314.259 109.294 312.795 109.208 311.376 109.051C310.934 109.002 310.53 108.949 310.171 108.897L309.727 108.828C309.518 108.791 309.343 108.987 309.404 109.191ZM310.2 109.544L310.159 109.473L310.468 109.516C310.731 109.552 311.014 109.586 311.313 109.619L311.746 109.665C312.761 109.767 313.794 109.831 314.812 109.844L315.172 109.846L315.145 109.885C315.064 109.991 314.972 110.096 314.868 110.197C314.319 110.73 313.58 111.023 312.606 110.95C311.704 110.883 311.027 110.532 310.533 109.986C310.404 109.844 310.293 109.695 310.2 109.544Z" fill="#FF7946"/>
<path d="M311.228 112.189C311.284 112.09 311.409 112.056 311.507 112.112L311.576 112.147L311.612 112.165C311.701 112.207 311.801 112.249 311.911 112.289C312.364 112.452 312.825 112.517 313.246 112.432C313.394 112.402 313.536 112.353 313.668 112.284C313.769 112.232 313.892 112.271 313.945 112.371C313.997 112.471 313.958 112.595 313.857 112.647C313.69 112.734 313.513 112.796 313.327 112.833C312.821 112.936 312.289 112.861 311.772 112.675C311.561 112.598 311.399 112.521 311.305 112.468C311.207 112.412 311.172 112.287 311.228 112.189Z" fill="#DD936F"/>
<path fill-rule="evenodd" clip-rule="evenodd" d="M341.497 343.907C348.831 346.999 352.595 342.547 352.595 342.547C352.595 342.547 352.804 340.989 351.52 339.248C349.914 337.068 346.337 336.293 342.097 332.123C338.839 328.919 336.69 323.933 336.69 323.933C334.336 320.461 326.834 324.596 326.834 324.596C326.834 324.596 326.706 331.772 326.857 335.878C326.857 335.878 327.129 338.138 332.757 338.947C336.967 339.552 337.104 342.055 341.497 343.907Z" fill="#253368"/>
<path fill-rule="evenodd" clip-rule="evenodd" d="M288.266 343.907C280.931 346.999 277.167 342.547 277.167 342.547C277.167 342.547 276.959 340.989 278.242 339.248C279.848 337.068 283.425 336.293 287.666 332.123C290.923 328.919 293.072 323.933 293.072 323.933C295.426 320.461 302.929 324.596 302.929 324.596C302.929 324.596 303.056 331.772 302.905 335.878C302.905 335.878 302.633 338.138 297.006 338.947C292.795 339.552 292.658 342.055 288.266 343.907Z" fill="#253368"/>
<path fill-rule="evenodd" clip-rule="evenodd" d="M368.587 125.28C369.031 129.159 366.4 132.673 362.639 133.225L330.971 137.867C326.434 138.532 322.228 135.204 321.692 130.524C321.156 125.843 324.502 121.671 329.075 121.317L360.992 118.849C364.783 118.556 368.142 121.402 368.587 125.28Z" fill="#FFC999"/>
<path fill-rule="evenodd" clip-rule="evenodd" d="M354.352 135.952L331.866 138.941C326.908 139.67 322.331 136.147 321.767 131.167C321.203 126.187 321.631 121.7 326.628 121.302L352.159 119.572L354.352 135.952Z" fill="#597EF7"/>
<path fill-rule="evenodd" clip-rule="evenodd" d="M327.385 170.845L333.697 124.544C332.739 123.567 329.274 121.2 321.519 121.851C318.942 122.068 312.926 125.27 310.217 125.326C308.384 125.364 302.789 121.673 301.276 122.006C292.468 123.939 289.89 125.229 285.164 126.732L293.019 169.352C293.019 169.352 290.62 177.347 295.13 177.468C329.922 178.405 325.276 177.958 325.276 177.958C325.276 177.958 329.562 177.106 327.385 170.845Z" fill="#597EF7"/>
<path fill-rule="evenodd" clip-rule="evenodd" d="M304.244 119.394L300.847 122.006L305.143 129.74L310.671 124.824L304.244 119.394Z" fill="#597EF7"/>
<path d="M300.705 121.972C300.831 121.9 300.988 121.935 301.074 122.046L301.095 122.079L305.218 129.293L310.482 124.656C310.59 124.561 310.749 124.562 310.856 124.652L310.886 124.682C310.981 124.79 310.98 124.949 310.89 125.055L310.86 125.086L305.333 129.955C305.207 130.065 305.017 130.044 304.918 129.916L304.895 129.882L300.598 122.363C300.52 122.225 300.568 122.051 300.705 121.972Z" fill="#253368"/>
<path fill-rule="evenodd" clip-rule="evenodd" d="M319.305 119.394L321.742 122.274L316.745 130.17L310.553 124.821L319.305 119.394Z" fill="#597EF7"/>
<path d="M321.232 123.138C321.319 123.006 321.496 122.969 321.629 123.056C321.749 123.135 321.79 123.288 321.731 123.415L321.711 123.452L317.199 130.327C317.113 130.457 316.941 130.493 316.811 130.415L316.777 130.39L310.825 125.466L309.903 171.066L309.864 171.35L309.828 171.634C309.811 171.781 309.793 171.937 309.777 172.1C309.704 172.817 309.657 173.531 309.651 174.196C309.639 175.496 309.786 176.452 310.099 176.869C310.194 176.996 310.168 177.175 310.042 177.27C309.915 177.365 309.736 177.339 309.641 177.213C309.226 176.659 309.066 175.615 309.079 174.19C309.085 173.506 309.133 172.775 309.208 172.042L309.242 171.719C309.254 171.615 309.266 171.515 309.278 171.418L309.329 171.046C309.33 171.039 309.331 171.033 309.332 171.028L309.334 171.018L310.265 124.862C310.269 124.636 310.518 124.51 310.701 124.625L310.733 124.648L316.895 129.745L321.232 123.138Z" fill="#253368"/>
<path fill-rule="evenodd" clip-rule="evenodd" d="M312.018 131.674C311.949 132.179 312.234 132.635 312.655 132.692C313.076 132.749 313.473 132.386 313.542 131.882C313.611 131.376 313.325 130.921 312.905 130.863C312.483 130.806 312.087 131.168 312.018 131.674Z" fill="white"/>
<path fill-rule="evenodd" clip-rule="evenodd" d="M311.9 140.376C311.832 140.882 312.117 141.337 312.538 141.395C312.959 141.452 313.356 141.09 313.424 140.584C313.494 140.079 313.208 139.623 312.787 139.566C312.366 139.508 311.969 139.872 311.9 140.376Z" fill="white"/>
<path fill-rule="evenodd" clip-rule="evenodd" d="M311.471 149.976C311.402 150.481 311.688 150.937 312.109 150.994C312.53 151.051 312.926 150.689 312.996 150.184C313.064 149.678 312.779 149.223 312.358 149.165C311.937 149.108 311.54 149.471 311.471 149.976Z" fill="white"/>
<path fill-rule="evenodd" clip-rule="evenodd" d="M311.132 169.222C311.063 169.728 311.349 170.183 311.769 170.241C312.191 170.298 312.587 169.935 312.656 169.43C312.724 168.925 312.439 168.469 312.019 168.412C311.598 168.354 311.2 168.718 311.132 169.222Z" fill="white"/>
<path fill-rule="evenodd" clip-rule="evenodd" d="M311.042 158.425C310.973 158.93 311.258 159.386 311.679 159.443C312.1 159.501 312.497 159.138 312.566 158.633C312.635 158.128 312.349 157.672 311.928 157.614C311.507 157.557 311.111 157.921 311.042 158.425Z" fill="white"/>
<path d="M328.874 137.669L318.277 137.405C318.123 137.401 317.993 137.52 317.984 137.674L317.481 145.888C317.476 145.985 317.52 146.079 317.598 146.136L323.184 150.218C323.29 150.295 323.433 150.291 323.534 150.208L327.945 146.605C328.001 146.559 328.038 146.493 328.048 146.421L329.151 137.993C329.173 137.824 329.044 137.674 328.874 137.669ZM318.538 137.984L328.542 138.233L327.495 146.233L323.343 149.625L318.062 145.766L318.538 137.984Z" fill="#253368"/>
<path fill-rule="evenodd" clip-rule="evenodd" d="M327.475 181.259L292.901 180.9L293.583 176.835L327.012 177.163L327.475 181.259Z" fill="#ADC6FF"/>
<path fill-rule="evenodd" clip-rule="evenodd" d="M293.183 179.763C293.183 179.763 288.578 190.074 289.053 203.434C294.912 207.299 306.687 209.504 306.687 209.504C307.565 209.959 312.823 209.725 313.713 209.339C313.713 209.339 329.753 204.447 331.27 202.017C330.408 189.421 327.419 180.685 327.419 180.685" fill="#ADC6FF"/>
<path fill-rule="evenodd" clip-rule="evenodd" d="M311.641 178.589C311.572 179.094 311.857 179.55 312.279 179.608C312.7 179.665 313.096 179.302 313.165 178.797C313.234 178.291 312.948 177.836 312.528 177.778C312.106 177.721 311.71 178.084 311.641 178.589Z" fill="white"/>
<path fill-rule="evenodd" clip-rule="evenodd" d="M283.611 177.507C279.484 177.04 276.47 173.385 276.8 169.245L279.57 134.377C279.966 129.381 284.423 125.707 289.403 126.27C294.383 126.834 297.907 131.41 297.178 136.368L292.095 170.973C291.492 175.083 287.738 177.973 283.611 177.507Z" fill="#FFC999"/>
<path fill-rule="evenodd" clip-rule="evenodd" d="M297.697 136.739C298.426 131.78 294.383 126.618 289.403 126.056C284.423 125.493 279.966 129.167 279.57 134.163L277.482 157.939C277.482 157.939 293.549 158.942 294.083 158.942L297.697 136.739Z" fill="#597EF7"/>
<path fill-rule="evenodd" clip-rule="evenodd" d="M298.704 263.967C293.753 263.947 289.713 259.997 289.583 255.047L289.07 199.098C289.016 193.25 293.82 188.522 299.666 188.668C305.406 188.812 309.929 193.606 309.74 199.345L307.893 255.19C307.687 260.11 303.628 263.987 298.704 263.967Z" fill="#ADC6FF"/>
<path fill-rule="evenodd" clip-rule="evenodd" d="M303.895 325.322L307.535 257.335C307.822 252.107 303.636 247.723 298.4 247.77C293.345 247.815 289.303 251.985 289.415 257.039L290.766 325.208C290.766 325.208 296.002 328.264 303.895 325.322Z" fill="#ADC6FF"/>
<path fill-rule="evenodd" clip-rule="evenodd" d="M327.488 267.033C332.42 266.586 336.103 262.302 335.805 257.359L331.488 201.575C331.037 195.744 325.843 191.448 320.032 192.099C314.325 192.737 310.233 197.903 310.917 203.605L317.576 259.081C318.205 263.966 322.584 267.478 327.488 267.033Z" fill="#ADC6FF"/>
<path fill-rule="evenodd" clip-rule="evenodd" d="M326.794 327.418L317.749 261.122C317.012 255.938 320.805 251.209 326.025 250.804C331.065 250.413 335.452 254.218 335.776 259.264L339.293 326.155C339.293 326.155 334.912 329.667 326.794 327.418Z" fill="#ADC6FF"/>
<path fill-rule="evenodd" clip-rule="evenodd" d="M336.623 103.34L329.367 98.4805C329.367 98.4805 325.926 89.8928 324.189 88.5565C322.451 87.2208 320.188 87.4817 318.276 86.6244C316.365 85.7672 316.792 87.8743 319.178 89.067C321.564 90.259 322.535 90.124 323.114 92.5579C323.693 94.9913 322.815 103.672 326.319 105.217C327.569 106.366 328.551 107.243 329.32 107.912C330.998 109.372 333.599 109.149 334.921 107.361C334.953 107.318 334.985 107.275 335.017 107.23C336.381 105.328 338.696 104.426 336.623 103.34Z" fill="#FFC999"/>
<path d="M316.664 86.947C316.422 86.119 317.08 85.7906 318.105 86.2507C318.208 86.297 318.254 86.4182 318.208 86.5215C318.162 86.6247 318.04 86.6708 317.937 86.6245C317.185 86.2869 316.935 86.412 317.057 86.8322C317.228 87.4171 317.973 88.176 319.014 88.6962L319.193 88.7832C319.792 89.0699 320.912 89.5647 320.998 89.6057C322.161 90.1647 322.664 90.757 323.026 92.194L323.058 92.323C323.149 92.7047 323.219 93.221 323.3 94.0512L323.511 96.3564L323.56 96.8456C323.625 97.4795 323.693 98.0438 323.77 98.5876L323.826 98.9657C324.342 102.321 325.226 104.406 326.71 105.061C326.813 105.106 326.86 105.227 326.815 105.331C326.769 105.434 326.648 105.481 326.544 105.435C324.825 104.677 323.891 102.36 323.364 98.6451C323.286 98.0959 323.218 97.5268 323.153 96.8884L323.05 95.8223L322.92 94.3779C322.828 93.3949 322.754 92.8168 322.659 92.4179C322.334 91.0506 321.932 90.5291 320.917 90.0225L320.787 89.9596C320.555 89.8544 319.323 89.3088 318.831 89.0628C317.696 88.4957 316.87 87.6548 316.664 86.947Z" fill="#DD936F"/>
<path d="M332.488 134.434C332.645 134.452 332.758 134.594 332.74 134.751L332.607 135.897L332.495 136.797C332.181 139.172 329.962 154.624 328.043 168.224L327.68 170.801L327.714 170.876C328.522 172.674 328.451 174.474 327.833 176.122L327.779 176.263C327.665 176.551 327.543 176.809 327.42 177.035L327.36 177.142C327.314 177.224 327.276 177.284 327.25 177.323C327.162 177.454 326.985 177.489 326.853 177.401C326.722 177.313 326.687 177.135 326.775 177.004L326.822 176.93C326.848 176.887 326.88 176.83 326.918 176.761C327.03 176.555 327.142 176.318 327.247 176.053C327.879 174.456 327.957 172.709 327.126 170.969C327.102 170.918 327.094 170.861 327.101 170.806L331.683 138.498C331.826 137.478 331.92 136.796 331.952 136.534L332.081 135.472C332.109 135.227 332.139 134.969 332.171 134.686C332.188 134.542 332.308 134.436 332.449 134.433L332.488 134.434Z" fill="#253368"/>
<path fill-rule="evenodd" clip-rule="evenodd" d="M312.204 252.81L272.228 251.733C271.169 251.705 270.333 250.823 270.362 249.763L271.117 221.707C271.146 220.648 272.027 219.812 273.087 219.841L313.063 220.917C314.122 220.946 314.957 221.828 314.929 222.887L314.173 250.943C314.145 252.002 313.264 252.839 312.204 252.81Z" fill="#4E5C93"/>
<path fill-rule="evenodd" clip-rule="evenodd" d="M310.843 252.773L270.867 251.697C269.808 251.668 268.972 250.786 269.001 249.726L269.756 221.671C269.785 220.611 270.667 219.775 271.726 219.804L311.702 220.88C312.762 220.909 313.597 221.791 313.569 222.851L312.813 250.907C312.785 251.966 311.903 252.802 310.843 252.773Z" fill="#253368"/>
<path fill-rule="evenodd" clip-rule="evenodd" d="M292.236 220.517C290.964 220.937 291.263 222.062 291.099 224.846C290.996 226.585 291.42 228.854 290.963 230.287C290.492 231.765 283.692 232.521 282.155 222.767C282.155 222.767 280.624 211.419 283.799 209.209C286.674 207.208 291.608 211.166 291.608 211.166C291.608 211.166 292.54 212.422 294.401 215.892L296.192 220.355L292.236 220.517Z" fill="#FFC999"/>
<path d="M288.646 220.936C288.748 220.935 288.831 221.016 288.832 221.117L288.835 221.255C288.838 221.368 288.842 221.5 288.847 221.648C288.863 222.072 288.888 222.545 288.923 223.054C289.024 224.508 289.19 225.962 289.434 227.317C289.614 228.316 289.83 229.223 290.087 230.016C290.118 230.113 290.065 230.216 289.969 230.247C289.873 230.278 289.769 230.225 289.738 230.129C289.476 229.318 289.256 228.396 289.073 227.382C288.826 226.012 288.66 224.545 288.558 223.079L288.53 222.649C288.513 222.368 288.5 222.1 288.489 221.848L288.474 221.45L288.466 221.122C288.464 221.021 288.545 220.938 288.646 220.936Z" fill="#4E5C93"/>
<path d="M286.484 221.523C286.585 221.523 286.667 221.605 286.667 221.706C286.668 222.482 286.732 223.361 286.852 224.321C286.98 225.352 287.168 226.448 287.399 227.574C287.537 228.242 287.683 228.887 287.83 229.491L287.904 229.79C287.964 230.031 288.019 230.247 288.07 230.436L288.132 230.667C288.159 230.765 288.103 230.866 288.005 230.893C287.908 230.92 287.807 230.863 287.779 230.766L287.716 230.53L287.584 230.021L287.548 229.879C287.375 229.185 287.202 228.433 287.04 227.648C286.807 226.513 286.618 225.408 286.488 224.366C286.367 223.392 286.302 222.499 286.301 221.706C286.301 221.605 286.382 221.523 286.484 221.523Z" fill="#4E5C93"/>
<path d="M284.073 221.94C284.174 221.932 284.263 222.006 284.271 222.107L284.306 222.447C284.313 222.517 284.322 222.591 284.331 222.67C284.384 223.122 284.452 223.631 284.538 224.184C284.782 225.764 285.117 227.383 285.554 228.948C285.581 229.046 285.524 229.147 285.427 229.174C285.33 229.201 285.229 229.144 285.201 229.047C284.76 227.466 284.423 225.833 284.176 224.24L284.106 223.773C284.062 223.47 284.024 223.182 283.991 222.912L283.942 222.486L283.906 222.139C283.898 222.038 283.972 221.949 284.073 221.94Z" fill="#4E5C93"/>
<path fill-rule="evenodd" clip-rule="evenodd" d="M291.541 211.284L282.37 212.025L276.955 171.621C276.434 167.285 279.641 163.392 283.996 163.074C288.353 162.757 292.091 166.144 292.204 170.51L291.541 211.284Z" fill="#FFC999"/>
<path d="M296.375 220.352C296.377 220.453 296.297 220.536 296.196 220.539L295.548 220.554C295.16 220.564 294.772 220.575 294.4 220.587L293.494 220.621C292.913 220.646 292.485 220.672 292.258 220.699C291.237 220.819 291.14 222.287 291.558 226.773L291.666 227.952C291.724 228.609 291.764 229.132 291.791 229.633C291.796 229.734 291.719 229.82 291.618 229.825C291.517 229.831 291.431 229.753 291.425 229.652L291.409 229.379C291.386 229.009 291.356 228.617 291.317 228.159L291.105 225.848C290.958 224.189 290.925 223.415 290.972 222.586C291.051 221.205 291.419 220.429 292.215 220.335L292.381 220.318C292.716 220.289 293.265 220.261 293.976 220.235L294.67 220.212L295.665 220.184L296.188 220.172C296.289 220.17 296.373 220.251 296.375 220.352Z" fill="#4E5C93"/>
<path d="M296.122 140.462L296.161 140.464C296.305 140.48 296.412 140.6 296.415 140.741L296.414 140.78L294.377 159.025C294.361 159.163 294.249 159.269 294.113 159.279H294.075L277.475 158.275C277.317 158.266 277.197 158.13 277.207 157.972C277.215 157.828 277.33 157.715 277.471 157.704L277.509 157.704L293.838 158.691L295.845 140.717C295.859 140.586 295.96 140.485 296.084 140.466L296.122 140.462Z" fill="#253368"/>
<path d="M353.348 125.733C353.492 125.719 353.622 125.814 353.654 125.951L353.661 125.99L354.637 135.924C354.651 136.064 354.561 136.192 354.428 136.228L354.391 136.236L331.842 139.276C331.685 139.297 331.541 139.187 331.52 139.031C331.501 138.887 331.591 138.754 331.727 138.717L331.766 138.709L354.04 135.705L353.091 126.046C353.077 125.901 353.173 125.772 353.31 125.739L353.348 125.733Z" fill="#253368"/>
<path fill-rule="evenodd" clip-rule="evenodd" d="M328.838 107.511L332.812 100.926L364.977 119.371C368.422 121.346 369.588 125.927 367.538 129.429C365.488 132.931 361.053 133.933 357.801 131.63L328.838 107.511Z" fill="#FFC999"/>
<path d="M344.003 120.213C344.087 120.113 344.23 120.092 344.339 120.158L344.373 120.183L354.441 128.72C354.551 128.814 354.565 128.98 354.471 129.091C354.387 129.191 354.244 129.212 354.135 129.147L354.1 129.122L344.033 120.584C343.923 120.49 343.909 120.324 344.003 120.213Z" fill="#253368"/>
<path d="M327.42 180.696C327.533 180.696 327.625 180.787 327.625 180.9C327.625 181.002 327.55 181.087 327.453 181.103L327.42 181.105H292.902C292.789 181.105 292.697 181.014 292.697 180.9C292.697 180.799 292.771 180.714 292.868 180.698L292.902 180.696H327.42Z" fill="#597EF7"/>
<path d="M326.992 176.549C327.151 176.549 327.279 176.677 327.279 176.835C327.279 176.98 327.171 177.1 327.031 177.119L326.992 177.122H293.583C293.425 177.122 293.297 176.993 293.297 176.835C293.297 176.691 293.405 176.571 293.544 176.552L293.583 176.549H326.992Z" fill="#253368"/>
<path d="M309.87 176.836C309.972 176.836 310.056 176.91 310.072 177.008L310.075 177.041V209.447C310.075 209.56 309.983 209.652 309.87 209.652C309.768 209.652 309.684 209.578 309.668 209.48L309.665 209.447V177.041C309.665 176.928 309.757 176.836 309.87 176.836Z" fill="#597EF7"/>
<path d="M313.708 209.134C313.821 209.131 313.915 209.221 313.918 209.334C313.92 209.436 313.848 209.522 313.751 209.54L313.718 209.544L306.692 209.709C306.579 209.711 306.485 209.622 306.482 209.509C306.48 209.407 306.552 209.321 306.649 209.302L306.682 209.299L313.708 209.134Z" fill="#597EF7"/>
<path d="M314.953 181.098C315.055 181.098 315.14 181.172 315.156 181.269L315.158 181.302V197.582C315.158 198.886 314.49 200.096 313.395 200.791L313.291 200.855L310.331 202.604C310.234 202.662 310.108 202.63 310.051 202.532C309.999 202.446 310.019 202.337 310.093 202.273L310.123 202.251L313.083 200.502C314.082 199.912 314.707 198.853 314.747 197.698L314.749 197.582V181.302C314.749 181.189 314.84 181.098 314.953 181.098Z" fill="#597EF7"/>
</svg>
