<svg width="432" height="408" viewBox="0 0 432 408" fill="none" xmlns="http://www.w3.org/2000/svg">
<g filter="url(#filter0_d)">
<rect x="16.8301" y="11" width="398.335" height="385.058" rx="10" fill="#003951"/>
</g>
<g filter="url(#filter1_d)">
<rect x="16.8301" y="11" width="398.335" height="385.058" rx="10" fill="#003951"/>
</g>
<g filter="url(#filter2_d)">
<rect x="16.8301" y="11" width="398.335" height="385.058" rx="10" fill="#003951"/>
</g>
<path d="M83.9494 168.421C78.4997 168.926 73.5454 170.652 70.3442 173.094C67.0287 175.578 69.1628 178.062 74.5363 178.062C76.8991 178.062 77.8518 177.851 80.1765 176.715C82.8823 175.41 83.1872 175.325 87.9509 175.325C93.8198 175.325 95.9159 175.999 98.736 178.736C100.603 180.546 101.823 182.988 102.547 186.482C103.042 188.713 102.661 189.724 101.213 189.976C100.603 190.061 96.2207 190.187 91.3808 190.229C79.3381 190.355 72.4784 191.534 67.3717 194.397C65.5805 195.407 62.9509 197.891 62.0363 199.533C60.0165 203.07 59.4067 208.458 60.6262 212.584C61.6552 216.079 62.3412 217.299 64.7421 219.657C67.5241 222.436 70.268 223.867 75.7939 225.383C79.9098 226.561 91.2284 226.056 100.527 224.33C101.785 224.12 104.262 223.741 106.015 223.53C107.806 223.32 109.483 222.899 109.75 222.604C112.036 220.036 113.942 190.187 112.265 182.777C111.236 178.146 108.225 173.852 104.529 171.747C99.6125 168.926 91.7238 167.663 83.9494 168.421ZM102.166 198.523C102.928 199.112 103.004 199.491 103.004 203.027C102.966 211.405 101.213 215.068 96.4113 216.921C93.5149 218.057 84.6735 218.731 80.8625 218.141C74.422 217.131 70.611 213.216 70.611 207.574C70.611 205.385 70.7634 204.838 71.8686 203.28C74.079 200.038 78.8046 198.691 89.4753 198.27C101.213 197.807 101.251 197.807 102.166 198.523ZM286.312 168.421C281.053 168.926 275.984 170.568 272.897 172.757C270.878 174.189 270.497 174.82 271.068 175.999C271.868 177.599 273.583 178.146 277.128 177.978C279.757 177.851 280.862 177.557 282.692 176.588C284.902 175.41 285.207 175.368 290.314 175.325C295.611 175.325 295.725 175.368 298.24 176.715C301.022 178.23 302.928 180.462 303.957 183.367C304.681 185.472 304.91 189.387 304.338 189.766C304.109 189.934 299.65 190.103 294.429 190.187C277.432 190.397 270.039 192.376 265.466 198.017C263.141 200.922 262.303 203.617 262.303 208.29C262.303 211.279 262.455 212.121 263.446 214.352C264.094 215.826 264.894 217.384 265.275 217.847C266.762 219.825 270.382 222.646 272.478 223.53C280.291 226.772 285.664 226.898 304.224 224.12C306.625 223.783 309.178 223.404 309.902 223.32C311.807 223.067 312.57 221.973 313.217 218.647C314.208 213.721 314.513 209.848 314.742 197.639C315.085 181.893 314.589 179.325 310.512 174.904C305.824 169.81 296.754 167.411 286.312 168.421ZM304.414 198.438C305.062 198.944 305.1 199.449 304.871 204.754C304.605 211.279 304.186 212.668 301.861 214.858C299.765 216.878 297.25 217.636 291.304 218.141C282.958 218.857 278.69 217.847 275.565 214.479C273.126 211.911 272.288 209.048 272.936 205.848C273.964 200.838 278.804 198.86 291.457 198.27C302.394 197.807 303.652 197.807 304.414 198.438ZM343.934 168.421C336.007 169.263 329.681 173.136 326.137 179.367C325.603 180.251 325.184 181.219 325.184 181.472C325.184 181.725 324.955 182.525 324.65 183.24C323.545 185.893 323.278 190.734 323.278 207.111V223.572L328.042 223.446L332.844 223.32L332.806 207.743C332.806 187.45 333.187 184.924 336.922 180.672C340.733 176.378 350.298 175.199 356.243 178.315C358.682 179.578 361.16 182.525 362.303 185.514C363.027 187.408 363.103 188.545 363.217 205.553L363.332 223.53H372.859L372.707 204.501C372.592 186.819 372.516 185.261 371.83 183.325C368.667 174.357 362.112 169.474 351.632 168.379C349.346 168.168 347.402 168 347.288 168C347.173 168.042 345.687 168.211 343.934 168.421ZM120.23 192.671L120.344 216.584L121.335 218.268C122.745 220.583 123.85 221.636 125.984 222.646C127.737 223.488 128.538 223.53 143.058 223.53H158.301L158.187 219.825L158.073 216.163L146.259 215.952C139.78 215.826 134.102 215.531 133.683 215.363C132.425 214.731 131.548 213.721 130.977 212.205C130.519 210.984 130.405 207.153 130.367 190.271C130.367 179.03 130.253 169.6 130.176 169.305C130.024 168.926 128.652 168.8 125.07 168.8H120.116L120.23 192.671ZM148.126 169.347C148.012 169.684 147.974 171.41 148.05 173.263L148.164 176.588L156.625 176.799L165.123 177.009L166.152 178.188L167.219 179.325L167.333 201.428L167.448 223.53H178.08V201.933C178.08 190.103 178.195 179.956 178.309 179.451C178.423 178.946 178.995 178.188 179.567 177.767C180.405 177.136 181.701 176.967 188.751 176.799L196.945 176.588V169.01L172.631 168.884C152.547 168.8 148.317 168.884 148.126 169.347ZM205.443 195.828C205.367 210.732 205.405 223.025 205.519 223.193C205.634 223.362 207.958 223.53 210.664 223.572L215.618 223.657L215.809 213.089C215.923 205.806 216.152 202.354 216.457 202.017C216.762 201.638 219.429 201.596 226.556 201.722C234.368 201.891 236.579 202.101 238.103 202.691C243.019 204.543 244.887 209.09 244.696 218.689L244.62 223.32L249.498 223.53C252.204 223.657 254.567 223.614 254.757 223.488C255.024 223.278 255.1 220.541 254.948 215.279C254.795 208.332 254.643 207.069 253.957 205.343C252.966 202.901 250.832 200.501 249.308 200.165C247.669 199.744 247.821 198.27 249.65 196.754C251.632 195.07 252.585 193.765 253.804 191.155C254.757 189.092 254.872 188.461 254.833 184.63C254.833 180.798 254.719 180.167 253.766 178.188C251.594 173.81 248.317 171.284 242.753 169.642C240.237 168.884 238.522 168.8 222.783 168.8H205.519L205.443 195.828ZM239.247 177.599C242.448 178.862 243.477 179.872 244.163 182.398C245.42 187.156 243.019 191.618 238.37 193.218C236.198 193.976 234.788 194.06 226.099 194.06C217.486 194.06 216.228 193.976 216.038 193.386C215.58 192.081 215.771 177.851 216.266 177.304C216.609 176.925 219.506 176.799 226.937 176.799C236.045 176.799 237.379 176.883 239.247 177.599Z" fill="white"/>
<path d="M166.369 356.214C166.19 358.11 165.49 359.591 164.269 360.657C163.048 361.715 161.425 362.244 159.398 362.244C157.982 362.244 156.733 361.91 155.651 361.243C154.577 360.568 153.747 359.611 153.161 358.375C152.575 357.138 152.27 355.701 152.245 354.065V352.405C152.245 350.729 152.542 349.252 153.136 347.974C153.73 346.696 154.581 345.712 155.688 345.02C156.802 344.328 158.088 343.982 159.545 343.982C161.506 343.982 163.085 344.515 164.281 345.582C165.478 346.648 166.173 348.153 166.369 350.098H163.292C163.146 348.82 162.772 347.901 162.169 347.339C161.575 346.77 160.701 346.485 159.545 346.485C158.202 346.485 157.169 346.977 156.444 347.962C155.728 348.938 155.362 350.375 155.346 352.271V353.846C155.346 355.766 155.688 357.231 156.371 358.24C157.063 359.249 158.072 359.754 159.398 359.754C160.611 359.754 161.522 359.481 162.133 358.936C162.743 358.391 163.13 357.483 163.292 356.214H166.369ZM168.297 355.274C168.297 353.98 168.554 352.816 169.066 351.783C169.579 350.741 170.299 349.944 171.227 349.39C172.155 348.829 173.221 348.548 174.425 348.548C176.208 348.548 177.652 349.122 178.759 350.269C179.874 351.417 180.476 352.938 180.565 354.834L180.578 355.53C180.578 356.832 180.325 357.996 179.821 359.021C179.324 360.047 178.608 360.84 177.672 361.402C176.745 361.963 175.67 362.244 174.45 362.244C172.586 362.244 171.093 361.626 169.97 360.389C168.855 359.144 168.297 357.487 168.297 355.42V355.274ZM171.264 355.53C171.264 356.889 171.544 357.955 172.106 358.729C172.667 359.493 173.449 359.876 174.45 359.876C175.451 359.876 176.228 359.485 176.781 358.704C177.343 357.923 177.624 356.779 177.624 355.274C177.624 353.939 177.335 352.881 176.757 352.1C176.187 351.319 175.41 350.928 174.425 350.928C173.457 350.928 172.688 351.315 172.118 352.088C171.549 352.853 171.264 354 171.264 355.53ZM185.839 348.792L185.924 350.318C186.901 349.138 188.183 348.548 189.77 348.548C192.52 348.548 193.92 350.123 193.969 353.272V362H191.002V353.443C191.002 352.605 190.819 351.986 190.453 351.587C190.095 351.181 189.505 350.977 188.683 350.977C187.487 350.977 186.596 351.518 186.01 352.601V362H183.043V348.792H185.839ZM204.406 358.411C204.406 357.882 204.186 357.479 203.747 357.203C203.315 356.926 202.595 356.682 201.586 356.47C200.577 356.259 199.735 355.99 199.059 355.665C197.578 354.948 196.837 353.911 196.837 352.552C196.837 351.412 197.318 350.46 198.278 349.695C199.238 348.93 200.459 348.548 201.94 348.548C203.519 348.548 204.792 348.938 205.761 349.72C206.737 350.501 207.226 351.514 207.226 352.759H204.259C204.259 352.19 204.048 351.718 203.625 351.343C203.201 350.961 202.64 350.77 201.94 350.77C201.289 350.77 200.756 350.92 200.341 351.221C199.934 351.522 199.73 351.925 199.73 352.43C199.73 352.885 199.922 353.239 200.304 353.492C200.687 353.744 201.46 354 202.624 354.261C203.787 354.513 204.699 354.818 205.358 355.176C206.025 355.526 206.518 355.949 206.835 356.446C207.16 356.942 207.323 357.544 207.323 358.252C207.323 359.441 206.831 360.405 205.846 361.146C204.861 361.878 203.572 362.244 201.977 362.244C200.894 362.244 199.93 362.049 199.083 361.658C198.237 361.268 197.578 360.73 197.106 360.047C196.634 359.363 196.398 358.627 196.398 357.837H199.279C199.319 358.537 199.584 359.078 200.072 359.461C200.561 359.835 201.208 360.022 202.013 360.022C202.794 360.022 203.389 359.876 203.795 359.583C204.202 359.282 204.406 358.891 204.406 358.411ZM217.919 360.706C217.048 361.731 215.811 362.244 214.208 362.244C212.776 362.244 211.689 361.825 210.949 360.987C210.216 360.149 209.85 358.936 209.85 357.349V348.792H212.816V357.312C212.816 358.989 213.512 359.827 214.904 359.827C216.344 359.827 217.317 359.31 217.821 358.277V348.792H220.788V362H217.992L217.919 360.706ZM226.964 362H223.998V343.25H226.964V362ZM233.922 345.582V348.792H236.254V350.989H233.922V358.362C233.922 358.867 234.02 359.233 234.215 359.461C234.419 359.681 234.777 359.791 235.29 359.791C235.631 359.791 235.977 359.75 236.327 359.668V361.963C235.652 362.151 235.001 362.244 234.374 362.244C232.095 362.244 230.956 360.987 230.956 358.472V350.989H228.783V348.792H230.956V345.582H233.922ZM246.422 362C246.292 361.748 246.178 361.337 246.081 360.767C245.137 361.752 243.981 362.244 242.614 362.244C241.287 362.244 240.205 361.866 239.367 361.109C238.528 360.352 238.109 359.416 238.109 358.301C238.109 356.893 238.63 355.815 239.672 355.066C240.722 354.31 242.219 353.931 244.164 353.931H245.983V353.064C245.983 352.381 245.792 351.836 245.409 351.429C245.027 351.014 244.445 350.806 243.664 350.806C242.988 350.806 242.435 350.977 242.003 351.319C241.572 351.653 241.356 352.08 241.356 352.601H238.39C238.39 351.876 238.63 351.201 239.11 350.574C239.59 349.939 240.242 349.443 241.063 349.085C241.894 348.727 242.817 348.548 243.834 348.548C245.381 348.548 246.614 348.938 247.533 349.72C248.453 350.493 248.925 351.583 248.949 352.991V358.948C248.949 360.136 249.116 361.084 249.45 361.792V362H246.422ZM243.163 359.864C243.749 359.864 244.298 359.721 244.811 359.437C245.332 359.152 245.722 358.769 245.983 358.289V355.799H244.384C243.285 355.799 242.459 355.99 241.906 356.373C241.352 356.755 241.076 357.296 241.076 357.996C241.076 358.566 241.263 359.021 241.637 359.363C242.02 359.697 242.528 359.864 243.163 359.864ZM254.809 348.792L254.894 350.318C255.871 349.138 257.152 348.548 258.739 348.548C261.49 348.548 262.89 350.123 262.938 353.272V362H259.972V353.443C259.972 352.605 259.789 351.986 259.423 351.587C259.065 351.181 258.475 350.977 257.653 350.977C256.457 350.977 255.565 351.518 254.979 352.601V362H252.013V348.792H254.809ZM269.689 345.582V348.792H272.021V350.989H269.689V358.362C269.689 358.867 269.787 359.233 269.982 359.461C270.185 359.681 270.543 359.791 271.056 359.791C271.398 359.791 271.744 359.75 272.094 359.668V361.963C271.418 362.151 270.767 362.244 270.141 362.244C267.862 362.244 266.723 360.987 266.723 358.472V350.989H264.55V348.792H266.723V345.582H269.689Z" fill="white"/>
<defs>
<filter id="filter0_d" x="16.8301" y="6" width="414.335" height="401.058" filterUnits="userSpaceOnUse" color-interpolation-filters="sRGB">
<feFlood flood-opacity="0" result="BackgroundImageFix"/>
<feColorMatrix in="SourceAlpha" type="matrix" values="0 0 0 0 0 0 0 0 0 0 0 0 0 0 0 0 0 0 127 0"/>
<feMorphology radius="4" operator="dilate" in="SourceAlpha" result="effect1_dropShadow"/>
<feOffset dx="8" dy="3"/>
<feGaussianBlur stdDeviation="2"/>
<feColorMatrix type="matrix" values="0 0 0 0 0.133333 0 0 0 0 0.133333 0 0 0 0 0.133333 0 0 0 0.53 0"/>
<feBlend mode="normal" in2="BackgroundImageFix" result="effect1_dropShadow"/>
<feBlend mode="normal" in="SourceGraphic" in2="effect1_dropShadow" result="shape"/>
</filter>
<filter id="filter1_d" x="0.830078" y="0" width="414.335" height="401.058" filterUnits="userSpaceOnUse" color-interpolation-filters="sRGB">
<feFlood flood-opacity="0" result="BackgroundImageFix"/>
<feColorMatrix in="SourceAlpha" type="matrix" values="0 0 0 0 0 0 0 0 0 0 0 0 0 0 0 0 0 0 127 0"/>
<feMorphology radius="4" operator="dilate" in="SourceAlpha" result="effect1_dropShadow"/>
<feOffset dx="-8" dy="-3"/>
<feGaussianBlur stdDeviation="2"/>
<feColorMatrix type="matrix" values="0 0 0 0 0.691667 0 0 0 0 0.691667 0 0 0 0 0.691667 0 0 0 0.04 0"/>
<feBlend mode="normal" in2="BackgroundImageFix" result="effect1_dropShadow"/>
<feBlend mode="normal" in="SourceGraphic" in2="effect1_dropShadow" result="shape"/>
</filter>
<filter id="filter2_d" x="0.830078" y="0" width="414.335" height="401.058" filterUnits="userSpaceOnUse" color-interpolation-filters="sRGB">
<feFlood flood-opacity="0" result="BackgroundImageFix"/>
<feColorMatrix in="SourceAlpha" type="matrix" values="0 0 0 0 0 0 0 0 0 0 0 0 0 0 0 0 0 0 127 0"/>
<feMorphology radius="4" operator="dilate" in="SourceAlpha" result="effect1_dropShadow"/>
<feOffset dx="-8" dy="-3"/>
<feGaussianBlur stdDeviation="2"/>
<feColorMatrix type="matrix" values="0 0 0 0 0.691667 0 0 0 0 0.691667 0 0 0 0 0.691667 0 0 0 0.04 0"/>
<feBlend mode="normal" in2="BackgroundImageFix" result="effect1_dropShadow"/>
<feBlend mode="normal" in="SourceGraphic" in2="effect1_dropShadow" result="shape"/>
</filter>
</defs>
</svg>
