<svg width="431" height="408" viewBox="0 0 431 408" fill="none" xmlns="http://www.w3.org/2000/svg">
<g filter="url(#filter0_d)">
<rect x="16" y="11.2207" width="398.335" height="385.058" rx="10" fill="#003951"/>
</g>
<g filter="url(#filter1_d)">
<rect x="16" y="11.2207" width="398.335" height="385.058" rx="10" fill="#003951"/>
</g>
<g filter="url(#filter2_d)">
<rect x="16" y="11.2207" width="398.335" height="385.058" rx="10" fill="#003951"/>
</g>
<path d="M380.736 200.005V194.189H373.514V185.147L373.271 185.222L366.487 187.298L366.353 187.338V194.189H355.646V190.373C355.646 188.596 356.043 187.236 356.826 186.329C357.604 185.433 358.716 184.977 360.135 184.977C361.155 184.977 362.211 185.217 363.274 185.691L363.54 185.81V179.685L363.415 179.639C362.424 179.282 361.075 179.103 359.404 179.103C357.297 179.103 355.383 179.561 353.714 180.47C352.043 181.38 350.729 182.679 349.809 184.33C348.892 185.98 348.426 187.885 348.426 189.993V194.189H343.397V200.005H348.426V224.507H355.646V200.005H366.353V215.576C366.353 221.988 369.378 225.238 375.343 225.238C376.324 225.238 377.355 225.123 378.409 224.898C379.481 224.667 380.211 224.437 380.641 224.19L380.736 224.134V218.264L380.443 218.458C380.051 218.719 379.563 218.933 378.991 219.091C378.416 219.253 377.937 219.334 377.565 219.334C376.167 219.334 375.133 218.957 374.492 218.214C373.843 217.464 373.514 216.153 373.514 214.319V200.005H380.736ZM327.275 219.335C324.654 219.335 322.588 218.466 321.132 216.754C319.668 215.034 318.925 212.582 318.925 209.466C318.925 206.251 319.668 203.735 321.133 201.984C322.59 200.245 324.636 199.363 327.216 199.363C329.719 199.363 331.712 200.206 333.14 201.869C334.574 203.542 335.302 206.038 335.302 209.29C335.302 212.582 334.618 215.111 333.267 216.803C331.927 218.482 329.911 219.335 327.275 219.335ZM327.596 193.459C322.596 193.459 318.626 194.923 315.794 197.813C312.965 200.702 311.531 204.701 311.531 209.698C311.531 214.445 312.931 218.263 315.693 221.045C318.455 223.828 322.214 225.237 326.865 225.237C331.711 225.237 335.603 223.752 338.433 220.823C341.262 217.897 342.696 213.936 342.696 209.055C342.696 204.234 341.35 200.387 338.696 197.624C336.041 194.86 332.305 193.459 327.596 193.459ZM299.89 193.459C296.49 193.459 293.677 194.328 291.528 196.043C289.366 197.769 288.269 200.032 288.269 202.77C288.269 204.193 288.506 205.457 288.972 206.53C289.44 207.606 290.166 208.553 291.129 209.348C292.086 210.136 293.562 210.962 295.518 211.803C297.162 212.479 298.388 213.052 299.167 213.503C299.929 213.945 300.469 214.389 300.774 214.822C301.071 215.246 301.221 215.825 301.221 216.541C301.221 218.578 299.696 219.569 296.557 219.569C295.393 219.569 294.065 219.326 292.61 218.846C291.166 218.374 289.803 217.683 288.568 216.797L288.269 216.582V223.533L288.379 223.584C289.4 224.056 290.688 224.453 292.206 224.766C293.721 225.079 295.098 225.239 296.294 225.239C299.984 225.239 302.956 224.365 305.124 222.639C307.306 220.902 308.412 218.586 308.412 215.753C308.412 213.709 307.817 211.957 306.643 210.544C305.478 209.142 303.455 207.855 300.634 206.717C298.386 205.815 296.946 205.066 296.352 204.491C295.779 203.936 295.488 203.15 295.488 202.156C295.488 201.274 295.847 200.568 296.584 199.996C297.327 199.421 298.36 199.128 299.657 199.128C300.859 199.128 302.09 199.318 303.314 199.691C304.537 200.063 305.611 200.562 306.508 201.172L306.803 201.374V194.78L306.69 194.732C305.863 194.377 304.772 194.073 303.447 193.827C302.128 193.582 300.931 193.459 299.89 193.459ZM269.448 219.335C266.829 219.335 264.762 218.466 263.306 216.754C261.841 215.034 261.1 212.582 261.1 209.466C261.1 206.251 261.842 203.735 263.308 201.984C264.764 200.245 266.809 199.363 269.39 199.363C271.893 199.363 273.886 200.206 275.313 201.869C276.748 203.542 277.476 206.038 277.476 209.29C277.476 212.582 276.791 215.111 275.441 216.803C274.1 218.482 272.085 219.335 269.448 219.335ZM269.77 193.459C264.77 193.459 260.798 194.923 257.969 197.813C255.14 200.702 253.704 204.701 253.704 209.698C253.704 214.447 255.105 218.263 257.867 221.045C260.63 223.828 264.388 225.237 269.039 225.237C273.884 225.237 277.777 223.752 280.607 220.823C283.436 217.897 284.87 213.936 284.87 209.055C284.87 204.234 283.525 200.387 280.87 197.624C278.213 194.86 274.479 193.459 269.77 193.459ZM242.745 199.439V194.189H235.614V224.506H242.745V208.998C242.745 206.361 243.343 204.194 244.523 202.558C245.688 200.941 247.24 200.122 249.135 200.122C249.777 200.122 250.499 200.228 251.279 200.437C252.052 200.645 252.612 200.872 252.942 201.11L253.242 201.327V194.137L253.127 194.088C252.462 193.805 251.523 193.663 250.334 193.663C248.542 193.663 246.938 194.239 245.564 195.373C244.359 196.369 243.487 197.736 242.821 199.439H242.745ZM222.842 193.459C219.57 193.459 216.652 194.16 214.17 195.543C211.683 196.929 209.759 198.908 208.45 201.425C207.147 203.935 206.486 206.867 206.486 210.138C206.486 213.002 207.127 215.631 208.395 217.948C209.663 220.268 211.459 222.084 213.731 223.343C216.001 224.601 218.624 225.238 221.528 225.238C224.917 225.238 227.811 224.561 230.131 223.224L230.225 223.171V216.637L229.925 216.856C228.874 217.621 227.699 218.232 226.436 218.673C225.175 219.113 224.026 219.335 223.018 219.335C220.22 219.335 217.974 218.459 216.343 216.733C214.709 215.005 213.88 212.577 213.88 209.523C213.88 206.45 214.745 203.96 216.447 202.123C218.145 200.292 220.396 199.363 223.136 199.363C225.48 199.363 227.764 200.156 229.925 201.724L230.225 201.941V195.057L230.128 195.002C229.315 194.547 228.206 194.171 226.829 193.886C225.457 193.602 224.116 193.459 222.842 193.459ZM201.574 194.189H194.442V224.506H201.574V194.189ZM198.081 181.274C196.907 181.274 195.884 181.674 195.043 182.465C194.198 183.259 193.77 184.259 193.77 185.439C193.77 186.6 194.193 187.582 195.029 188.355C195.861 189.125 196.888 189.516 198.081 189.516C199.275 189.516 200.306 189.125 201.147 188.356C201.993 187.582 202.423 186.601 202.423 185.439C202.423 184.3 202.005 183.311 201.182 182.497C200.359 181.685 199.316 181.274 198.081 181.274ZM180.287 191.952V224.506H187.566V182.202H177.492L164.689 213.624L152.264 182.202H141.78V224.506H148.62V191.949H148.855L161.975 224.506H167.137L180.053 191.952H180.287Z" fill="white"/>
<path d="M83.5732 201.614H50.0244V168.066H83.5732V201.614Z" fill="#F1511B"/>
<path d="M120.617 201.614H87.0684V168.065H120.617V201.614Z" fill="#80CC28"/>
<path d="M83.5723 238.669H50.0244V205.12H83.5723V238.669Z" fill="#00ADEF"/>
<path d="M120.617 238.669H87.0684V205.12H120.617V238.669Z" fill="#FBBC09"/>
<path d="M156.066 370H152.99V352.227H156.066V370ZM169.152 365.422C169.152 364.641 168.875 364.039 168.322 363.616C167.777 363.193 166.788 362.765 165.355 362.334C163.923 361.903 162.784 361.423 161.938 360.894C160.318 359.876 159.508 358.55 159.508 356.914C159.508 355.482 160.09 354.302 161.254 353.374C162.426 352.446 163.944 351.982 165.807 351.982C167.044 351.982 168.147 352.21 169.115 352.666C170.084 353.122 170.845 353.773 171.398 354.619C171.951 355.457 172.228 356.389 172.228 357.415H169.152C169.152 356.487 168.859 355.763 168.273 355.242C167.695 354.713 166.865 354.448 165.783 354.448C164.774 354.448 163.988 354.664 163.427 355.095C162.873 355.527 162.597 356.129 162.597 356.902C162.597 357.553 162.898 358.098 163.5 358.538C164.102 358.969 165.095 359.392 166.479 359.807C167.862 360.214 168.973 360.682 169.811 361.211C170.649 361.732 171.264 362.334 171.654 363.018C172.045 363.693 172.24 364.486 172.24 365.398C172.24 366.879 171.671 368.059 170.531 368.938C169.4 369.809 167.862 370.244 165.917 370.244C164.631 370.244 163.447 370.008 162.365 369.536C161.291 369.056 160.452 368.397 159.85 367.559C159.256 366.72 158.959 365.744 158.959 364.629H162.047C162.047 365.638 162.381 366.419 163.048 366.973C163.716 367.526 164.672 367.803 165.917 367.803C166.991 367.803 167.797 367.587 168.334 367.156C168.879 366.716 169.152 366.139 169.152 365.422ZM181.212 366.13L185.729 352.227H189.123L182.726 370H179.735L173.363 352.227H176.745L181.212 366.13ZM200.451 363.396V370H197.362V352.227H204.162C206.147 352.227 207.722 352.743 208.886 353.777C210.058 354.81 210.644 356.178 210.644 357.878C210.644 359.62 210.07 360.975 208.922 361.943C207.783 362.912 206.184 363.396 204.125 363.396H200.451ZM200.451 360.918H204.162C205.26 360.918 206.098 360.662 206.676 360.149C207.254 359.628 207.543 358.879 207.543 357.903C207.543 356.943 207.25 356.178 206.664 355.608C206.078 355.03 205.272 354.733 204.247 354.717H200.451V360.918ZM220.812 370C220.682 369.748 220.568 369.337 220.47 368.767C219.526 369.752 218.371 370.244 217.003 370.244C215.677 370.244 214.595 369.866 213.756 369.109C212.918 368.352 212.499 367.416 212.499 366.301C212.499 364.893 213.02 363.815 214.062 363.066C215.111 362.31 216.609 361.931 218.554 361.931H220.373V361.064C220.373 360.381 220.181 359.836 219.799 359.429C219.416 359.014 218.834 358.806 218.053 358.806C217.378 358.806 216.824 358.977 216.393 359.319C215.962 359.653 215.746 360.08 215.746 360.601H212.78C212.78 359.876 213.02 359.201 213.5 358.574C213.98 357.939 214.631 357.443 215.453 357.085C216.283 356.727 217.207 356.548 218.224 356.548C219.77 356.548 221.003 356.938 221.923 357.72C222.842 358.493 223.314 359.583 223.339 360.991V366.948C223.339 368.136 223.506 369.084 223.839 369.792V370H220.812ZM217.553 367.864C218.139 367.864 218.688 367.721 219.201 367.437C219.722 367.152 220.112 366.769 220.373 366.289V363.799H218.773C217.675 363.799 216.849 363.99 216.295 364.373C215.742 364.755 215.465 365.296 215.465 365.996C215.465 366.566 215.653 367.021 216.027 367.363C216.409 367.697 216.918 367.864 217.553 367.864ZM233.361 359.502C232.97 359.437 232.567 359.404 232.152 359.404C230.793 359.404 229.878 359.925 229.406 360.967V370H226.439V356.792H229.271L229.345 358.269C230.061 357.122 231.054 356.548 232.323 356.548C232.746 356.548 233.096 356.605 233.373 356.719L233.361 359.502ZM239.562 353.582V356.792H241.894V358.989H239.562V366.362C239.562 366.867 239.66 367.233 239.855 367.461C240.058 367.681 240.417 367.791 240.929 367.791C241.271 367.791 241.617 367.75 241.967 367.668V369.963C241.291 370.151 240.64 370.244 240.014 370.244C237.735 370.244 236.596 368.987 236.596 366.472V358.989H234.423V356.792H236.596V353.582H239.562ZM246.923 356.792L247.008 358.318C247.985 357.138 249.267 356.548 250.854 356.548C253.604 356.548 255.004 358.123 255.053 361.272V370H252.086V361.443C252.086 360.605 251.903 359.986 251.537 359.587C251.179 359.181 250.589 358.977 249.767 358.977C248.571 358.977 247.68 359.518 247.094 360.601V370H244.127V356.792H246.923ZM263.903 370.244C262.023 370.244 260.497 369.654 259.325 368.474C258.161 367.286 257.58 365.707 257.58 363.738V363.372C257.58 362.053 257.832 360.877 258.336 359.844C258.849 358.802 259.565 357.992 260.485 357.415C261.404 356.837 262.43 356.548 263.561 356.548C265.36 356.548 266.747 357.122 267.724 358.269C268.708 359.417 269.201 361.04 269.201 363.14V364.336H260.57C260.66 365.426 261.022 366.289 261.657 366.924C262.3 367.559 263.105 367.876 264.074 367.876C265.433 367.876 266.54 367.327 267.394 366.228L268.993 367.754C268.464 368.543 267.756 369.158 266.869 369.597C265.99 370.028 265.001 370.244 263.903 370.244ZM263.549 358.928C262.735 358.928 262.076 359.213 261.571 359.783C261.075 360.352 260.757 361.146 260.619 362.163H266.271V361.943C266.206 360.951 265.941 360.202 265.478 359.697C265.014 359.185 264.371 358.928 263.549 358.928ZM278.429 359.502C278.039 359.437 277.636 359.404 277.221 359.404C275.862 359.404 274.946 359.925 274.474 360.967V370H271.508V356.792H274.34L274.413 358.269C275.129 357.122 276.122 356.548 277.392 356.548C277.815 356.548 278.165 356.605 278.441 356.719L278.429 359.502Z" fill="white"/>
<defs>
<filter id="filter0_d" x="16" y="6.2207" width="414.335" height="401.058" filterUnits="userSpaceOnUse" color-interpolation-filters="sRGB">
<feFlood flood-opacity="0" result="BackgroundImageFix"/>
<feColorMatrix in="SourceAlpha" type="matrix" values="0 0 0 0 0 0 0 0 0 0 0 0 0 0 0 0 0 0 127 0"/>
<feMorphology radius="4" operator="dilate" in="SourceAlpha" result="effect1_dropShadow"/>
<feOffset dx="8" dy="3"/>
<feGaussianBlur stdDeviation="2"/>
<feColorMatrix type="matrix" values="0 0 0 0 0.133333 0 0 0 0 0.133333 0 0 0 0 0.133333 0 0 0 0.53 0"/>
<feBlend mode="normal" in2="BackgroundImageFix" result="effect1_dropShadow"/>
<feBlend mode="normal" in="SourceGraphic" in2="effect1_dropShadow" result="shape"/>
</filter>
<filter id="filter1_d" x="0" y="0.220703" width="414.335" height="401.058" filterUnits="userSpaceOnUse" color-interpolation-filters="sRGB">
<feFlood flood-opacity="0" result="BackgroundImageFix"/>
<feColorMatrix in="SourceAlpha" type="matrix" values="0 0 0 0 0 0 0 0 0 0 0 0 0 0 0 0 0 0 127 0"/>
<feMorphology radius="4" operator="dilate" in="SourceAlpha" result="effect1_dropShadow"/>
<feOffset dx="-8" dy="-3"/>
<feGaussianBlur stdDeviation="2"/>
<feColorMatrix type="matrix" values="0 0 0 0 0.691667 0 0 0 0 0.691667 0 0 0 0 0.691667 0 0 0 0.04 0"/>
<feBlend mode="normal" in2="BackgroundImageFix" result="effect1_dropShadow"/>
<feBlend mode="normal" in="SourceGraphic" in2="effect1_dropShadow" result="shape"/>
</filter>
<filter id="filter2_d" x="0" y="0.220703" width="414.335" height="401.058" filterUnits="userSpaceOnUse" color-interpolation-filters="sRGB">
<feFlood flood-opacity="0" result="BackgroundImageFix"/>
<feColorMatrix in="SourceAlpha" type="matrix" values="0 0 0 0 0 0 0 0 0 0 0 0 0 0 0 0 0 0 127 0"/>
<feMorphology radius="4" operator="dilate" in="SourceAlpha" result="effect1_dropShadow"/>
<feOffset dx="-8" dy="-3"/>
<feGaussianBlur stdDeviation="2"/>
<feColorMatrix type="matrix" values="0 0 0 0 0.691667 0 0 0 0 0.691667 0 0 0 0 0.691667 0 0 0 0.04 0"/>
<feBlend mode="normal" in2="BackgroundImageFix" result="effect1_dropShadow"/>
<feBlend mode="normal" in="SourceGraphic" in2="effect1_dropShadow" result="shape"/>
</filter>
</defs>
</svg>
