<svg width="431" height="408" viewBox="0 0 431 408" fill="none" xmlns="http://www.w3.org/2000/svg">
<g filter="url(#filter0_d)">
<rect x="16.6602" y="11" width="398.335" height="385.058" rx="10" fill="#003951"/>
</g>
<g filter="url(#filter1_d)">
<rect x="16.6602" y="11" width="398.335" height="385.058" rx="10" fill="#003951"/>
</g>
<g filter="url(#filter2_d)">
<rect x="16.6602" y="11" width="398.335" height="385.058" rx="10" fill="#003951"/>
</g>
<path d="M252.559 113.545V128.419V152.845V165.089V189.524H283.332H301.765H311.445H336.405H348.921V165.089H336.405V128.419H311.445V113.545H301.765V104H252.559V113.545Z" fill="#E3731C"/>
<path d="M263.382 235.547C254.855 236.91 250.497 243.149 250.497 254.126C250.497 265.172 256.302 272.559 265.206 272.559C269.349 272.559 273.111 271.196 281.025 267.353V276.287C271.53 280.603 265.939 281.935 258.291 281.935C250.01 281.935 244.181 279.758 239.424 274.951C234.548 270.117 232.106 263.736 232.106 256.629C232.106 240.819 243.92 230.122 261.182 230.122C272.647 230.122 280.529 235.309 280.529 242.926C280.529 247.833 276.859 251.208 271.414 251.208C268.619 251.208 266.323 250.482 263.386 248.793V235.547H263.382Z" fill="white"/>
<path d="M221.31 256.633C228.954 247.088 231.653 243.237 231.653 238.549C231.653 233.885 227.913 230.126 222.918 230.126C219.839 230.126 217.071 231.566 215.719 233.063V252.506L203.195 269.039V231.351H191.285L171.489 263.859V231.351H164.647L146.675 235.689V240.239L156.477 241.226V281.094H169.147L188.133 250.187V281.094H202.009L221.31 256.633Z" fill="white"/>
<path d="M108.833 274.955C110.181 275.016 110.772 275.016 111.625 275.016C121.83 275.016 127.301 268.712 127.301 256.633C127.301 246.405 122.824 240.964 114.562 240.964C113.187 240.964 111.744 241.13 108.83 241.479V274.955H108.833ZM108.833 296.74L117.05 298.548V303.167H84.8178V298.548L92.1626 296.74V240.968H84V236.184L103.719 230.252H108.837V236.914C118.071 231.473 121.243 230.51 125.98 230.51C136.919 230.51 144.993 240.504 144.993 254.341C144.993 270.336 134.22 281.098 117.246 281.098C115.326 281.098 112.132 280.983 108.837 280.607V296.74H108.833Z" fill="white"/>
<path d="M348.922 165.089H336.405V189.524H348.922V165.089Z" fill="#E669A2"/>
<path d="M311.444 113.545H301.765V128.423H311.444V113.545Z" fill="#F3BC87"/>
<path d="M301.766 104H252.559V113.545H301.766V104Z" fill="#EE9C34"/>
<path d="M301.766 113.545H252.559V128.423H301.766V113.545Z" fill="#E3731C"/>
<path d="M336.401 128.419H311.445V165.089H336.401V128.419Z" fill="#F3BE26"/>
<path d="M336.401 165.089H311.445V189.524H336.401V165.089Z" fill="#DB4E18"/>
<path d="M311.444 128.419H301.765V165.089H311.444V128.419Z" fill="#E88C14"/>
<path d="M311.444 165.089H301.765V189.524H311.444V165.089Z" fill="#D1390D"/>
<path d="M301.766 165.089V128.419H252.559V152.845H283.332V165.089H301.766Z" fill="#D85604"/>
<path d="M301.765 165.089H283.332V189.524H301.765V165.089Z" fill="#C22303"/>
<path d="M283.332 152.845H252.559V165.089H283.332V152.845Z" fill="#C14303"/>
<path d="M283.332 165.089H252.559V189.524H283.332V165.089Z" fill="#AD1B02"/>
<path d="M252.559 189.523H203.219V201.741H252.559V189.523Z" fill="#AD1B02"/>
<path d="M102.066 362H98.9897V344.227H102.066V362ZM108.328 348.792L108.414 350.318C109.39 349.138 110.672 348.548 112.259 348.548C115.009 348.548 116.409 350.123 116.458 353.272V362H113.492V353.443C113.492 352.605 113.309 351.986 112.942 351.587C112.584 351.181 111.994 350.977 111.172 350.977C109.976 350.977 109.085 351.518 108.499 352.601V362H105.533V348.792H108.328ZM124.148 358.24L126.944 348.792H130.008L125.43 362H122.854L118.24 348.792H121.316L124.148 358.24ZM137.515 362.244C135.635 362.244 134.109 361.654 132.938 360.474C131.774 359.286 131.192 357.707 131.192 355.738V355.372C131.192 354.053 131.444 352.877 131.949 351.844C132.461 350.802 133.178 349.992 134.097 349.415C135.017 348.837 136.042 348.548 137.173 348.548C138.972 348.548 140.359 349.122 141.336 350.269C142.321 351.417 142.813 353.04 142.813 355.14V356.336H134.183C134.272 357.426 134.634 358.289 135.269 358.924C135.912 359.559 136.718 359.876 137.686 359.876C139.045 359.876 140.152 359.327 141.006 358.228L142.605 359.754C142.076 360.543 141.368 361.158 140.481 361.597C139.603 362.028 138.614 362.244 137.515 362.244ZM137.161 350.928C136.347 350.928 135.688 351.213 135.184 351.783C134.687 352.352 134.37 353.146 134.231 354.163H139.883V353.943C139.818 352.951 139.554 352.202 139.09 351.697C138.626 351.185 137.983 350.928 137.161 350.928ZM152.53 358.411C152.53 357.882 152.31 357.479 151.871 357.203C151.439 356.926 150.719 356.682 149.71 356.47C148.701 356.259 147.859 355.99 147.183 355.665C145.702 354.948 144.961 353.911 144.961 352.552C144.961 351.412 145.442 350.46 146.402 349.695C147.362 348.93 148.583 348.548 150.064 348.548C151.643 348.548 152.916 348.938 153.885 349.72C154.861 350.501 155.35 351.514 155.35 352.759H152.383C152.383 352.19 152.172 351.718 151.749 351.343C151.325 350.961 150.764 350.77 150.064 350.77C149.413 350.77 148.88 350.92 148.465 351.221C148.058 351.522 147.854 351.925 147.854 352.43C147.854 352.885 148.046 353.239 148.428 353.492C148.811 353.744 149.584 354 150.748 354.261C151.911 354.513 152.823 354.818 153.482 355.176C154.149 355.526 154.642 355.949 154.959 356.446C155.285 356.942 155.447 357.544 155.447 358.252C155.447 359.441 154.955 360.405 153.97 361.146C152.986 361.878 151.696 362.244 150.101 362.244C149.018 362.244 148.054 362.049 147.208 361.658C146.361 361.268 145.702 360.73 145.23 360.047C144.758 359.363 144.522 358.627 144.522 357.837H147.403C147.444 358.537 147.708 359.078 148.196 359.461C148.685 359.835 149.332 360.022 150.137 360.022C150.918 360.022 151.513 359.876 151.919 359.583C152.326 359.282 152.53 358.891 152.53 358.411ZM161.758 345.582V348.792H164.09V350.989H161.758V358.362C161.758 358.867 161.856 359.233 162.051 359.461C162.255 359.681 162.613 359.791 163.125 359.791C163.467 359.791 163.813 359.75 164.163 359.668V361.963C163.488 362.151 162.837 362.244 162.21 362.244C159.931 362.244 158.792 360.987 158.792 358.472V350.989H156.619V348.792H158.792V345.582H161.758ZM169.156 348.792L169.241 350.171C170.169 349.089 171.438 348.548 173.05 348.548C174.816 348.548 176.024 349.223 176.675 350.574C177.636 349.223 178.986 348.548 180.728 348.548C182.185 348.548 183.267 348.951 183.975 349.756C184.691 350.562 185.057 351.75 185.074 353.321V362H182.107V353.406C182.107 352.568 181.924 351.954 181.558 351.563C181.192 351.172 180.586 350.977 179.739 350.977C179.064 350.977 178.51 351.16 178.079 351.526C177.656 351.884 177.359 352.356 177.188 352.942L177.2 362H174.234V353.309C174.193 351.754 173.4 350.977 171.854 350.977C170.665 350.977 169.823 351.461 169.327 352.43V362H166.36V348.792H169.156ZM193.936 362.244C192.056 362.244 190.53 361.654 189.358 360.474C188.195 359.286 187.613 357.707 187.613 355.738V355.372C187.613 354.053 187.865 352.877 188.37 351.844C188.882 350.802 189.598 349.992 190.518 349.415C191.438 348.837 192.463 348.548 193.594 348.548C195.393 348.548 196.78 349.122 197.757 350.269C198.742 351.417 199.234 353.04 199.234 355.14V356.336H190.604C190.693 357.426 191.055 358.289 191.69 358.924C192.333 359.559 193.139 359.876 194.107 359.876C195.466 359.876 196.573 359.327 197.427 358.228L199.026 359.754C198.497 360.543 197.789 361.158 196.902 361.597C196.023 362.028 195.035 362.244 193.936 362.244ZM193.582 350.928C192.768 350.928 192.109 351.213 191.604 351.783C191.108 352.352 190.791 353.146 190.652 354.163H196.304V353.943C196.239 352.951 195.975 352.202 195.511 351.697C195.047 351.185 194.404 350.928 193.582 350.928ZM204.3 348.792L204.385 350.318C205.362 349.138 206.644 348.548 208.23 348.548C210.981 348.548 212.381 350.123 212.43 353.272V362H209.463V353.443C209.463 352.605 209.28 351.986 208.914 351.587C208.556 351.181 207.966 350.977 207.144 350.977C205.948 350.977 205.057 351.518 204.471 352.601V362H201.504V348.792H204.3ZM219.18 345.582V348.792H221.512V350.989H219.18V358.362C219.18 358.867 219.278 359.233 219.473 359.461C219.677 359.681 220.035 359.791 220.547 359.791C220.889 359.791 221.235 359.75 221.585 359.668V361.963C220.91 362.151 220.258 362.244 219.632 362.244C217.353 362.244 216.214 360.987 216.214 358.472V350.989H214.041V348.792H216.214V345.582H219.18ZM230.301 362V344.227H236.392C238.402 344.227 239.932 344.629 240.982 345.435C242.032 346.241 242.557 347.441 242.557 349.036C242.557 349.85 242.337 350.582 241.897 351.233C241.458 351.884 240.815 352.389 239.969 352.747C240.929 353.007 241.67 353.5 242.19 354.224C242.719 354.94 242.984 355.803 242.984 356.812C242.984 358.48 242.447 359.762 241.373 360.657C240.306 361.552 238.777 362 236.783 362H230.301ZM233.389 353.98V359.534H236.819C237.788 359.534 238.545 359.294 239.09 358.814C239.635 358.334 239.908 357.667 239.908 356.812C239.908 354.965 238.964 354.021 237.076 353.98H233.389ZM233.389 351.709H236.417C237.377 351.709 238.125 351.494 238.663 351.062C239.208 350.623 239.48 350.005 239.48 349.207C239.48 348.328 239.228 347.693 238.724 347.303C238.227 346.912 237.45 346.717 236.392 346.717H233.389V351.709ZM253.677 362C253.547 361.748 253.433 361.337 253.335 360.767C252.391 361.752 251.236 362.244 249.869 362.244C248.542 362.244 247.46 361.866 246.622 361.109C245.783 360.352 245.364 359.416 245.364 358.301C245.364 356.893 245.885 355.815 246.927 355.066C247.977 354.31 249.474 353.931 251.419 353.931H253.238V353.064C253.238 352.381 253.047 351.836 252.664 351.429C252.282 351.014 251.7 350.806 250.918 350.806C250.243 350.806 249.69 350.977 249.258 351.319C248.827 351.653 248.611 352.08 248.611 352.601H245.645C245.645 351.876 245.885 351.201 246.365 350.574C246.845 349.939 247.496 349.443 248.318 349.085C249.148 348.727 250.072 348.548 251.089 348.548C252.636 348.548 253.868 348.938 254.788 349.72C255.708 350.493 256.18 351.583 256.204 352.991V358.948C256.204 360.136 256.371 361.084 256.705 361.792V362H253.677ZM250.418 359.864C251.004 359.864 251.553 359.721 252.066 359.437C252.587 359.152 252.977 358.769 253.238 358.289V355.799H251.639C250.54 355.799 249.714 355.99 249.161 356.373C248.607 356.755 248.331 357.296 248.331 357.996C248.331 358.566 248.518 359.021 248.892 359.363C249.275 359.697 249.783 359.864 250.418 359.864ZM262.063 348.792L262.149 350.318C263.125 349.138 264.407 348.548 265.994 348.548C268.745 348.548 270.145 350.123 270.193 353.272V362H267.227V353.443C267.227 352.605 267.044 351.986 266.678 351.587C266.32 351.181 265.73 350.977 264.908 350.977C263.711 350.977 262.82 351.518 262.234 352.601V362H259.268V348.792H262.063ZM277.518 356.336L276.199 357.691V362H273.233V343.25H276.199V354.065L277.127 352.906L280.777 348.792H284.341L279.434 354.297L284.866 362H281.436L277.518 356.336ZM291.861 362.244C289.981 362.244 288.455 361.654 287.283 360.474C286.119 359.286 285.538 357.707 285.538 355.738V355.372C285.538 354.053 285.79 352.877 286.294 351.844C286.807 350.802 287.523 349.992 288.443 349.415C289.362 348.837 290.388 348.548 291.519 348.548C293.318 348.548 294.705 349.122 295.682 350.269C296.666 351.417 297.159 353.04 297.159 355.14V356.336H288.528C288.618 357.426 288.98 358.289 289.615 358.924C290.258 359.559 291.063 359.876 292.032 359.876C293.391 359.876 294.498 359.327 295.352 358.228L296.951 359.754C296.422 360.543 295.714 361.158 294.827 361.597C293.948 362.028 292.959 362.244 291.861 362.244ZM291.507 350.928C290.693 350.928 290.034 351.213 289.529 351.783C289.033 352.352 288.715 353.146 288.577 354.163H294.229V353.943C294.164 352.951 293.899 352.202 293.436 351.697C292.972 351.185 292.329 350.928 291.507 350.928ZM306.387 351.502C305.997 351.437 305.594 351.404 305.179 351.404C303.82 351.404 302.904 351.925 302.432 352.967V362H299.466V348.792H302.298L302.371 350.269C303.087 349.122 304.08 348.548 305.35 348.548C305.773 348.548 306.123 348.605 306.399 348.719L306.387 351.502Z" fill="white"/>
<defs>
<filter id="filter0_d" x="16.6602" y="6" width="414.335" height="401.058" filterUnits="userSpaceOnUse" color-interpolation-filters="sRGB">
<feFlood flood-opacity="0" result="BackgroundImageFix"/>
<feColorMatrix in="SourceAlpha" type="matrix" values="0 0 0 0 0 0 0 0 0 0 0 0 0 0 0 0 0 0 127 0"/>
<feMorphology radius="4" operator="dilate" in="SourceAlpha" result="effect1_dropShadow"/>
<feOffset dx="8" dy="3"/>
<feGaussianBlur stdDeviation="2"/>
<feColorMatrix type="matrix" values="0 0 0 0 0.133333 0 0 0 0 0.133333 0 0 0 0 0.133333 0 0 0 0.53 0"/>
<feBlend mode="normal" in2="BackgroundImageFix" result="effect1_dropShadow"/>
<feBlend mode="normal" in="SourceGraphic" in2="effect1_dropShadow" result="shape"/>
</filter>
<filter id="filter1_d" x="0.660156" y="0" width="414.335" height="401.058" filterUnits="userSpaceOnUse" color-interpolation-filters="sRGB">
<feFlood flood-opacity="0" result="BackgroundImageFix"/>
<feColorMatrix in="SourceAlpha" type="matrix" values="0 0 0 0 0 0 0 0 0 0 0 0 0 0 0 0 0 0 127 0"/>
<feMorphology radius="4" operator="dilate" in="SourceAlpha" result="effect1_dropShadow"/>
<feOffset dx="-8" dy="-3"/>
<feGaussianBlur stdDeviation="2"/>
<feColorMatrix type="matrix" values="0 0 0 0 0.691667 0 0 0 0 0.691667 0 0 0 0 0.691667 0 0 0 0.04 0"/>
<feBlend mode="normal" in2="BackgroundImageFix" result="effect1_dropShadow"/>
<feBlend mode="normal" in="SourceGraphic" in2="effect1_dropShadow" result="shape"/>
</filter>
<filter id="filter2_d" x="0.660156" y="0" width="414.335" height="401.058" filterUnits="userSpaceOnUse" color-interpolation-filters="sRGB">
<feFlood flood-opacity="0" result="BackgroundImageFix"/>
<feColorMatrix in="SourceAlpha" type="matrix" values="0 0 0 0 0 0 0 0 0 0 0 0 0 0 0 0 0 0 127 0"/>
<feMorphology radius="4" operator="dilate" in="SourceAlpha" result="effect1_dropShadow"/>
<feOffset dx="-8" dy="-3"/>
<feGaussianBlur stdDeviation="2"/>
<feColorMatrix type="matrix" values="0 0 0 0 0.691667 0 0 0 0 0.691667 0 0 0 0 0.691667 0 0 0 0.04 0"/>
<feBlend mode="normal" in2="BackgroundImageFix" result="effect1_dropShadow"/>
<feBlend mode="normal" in="SourceGraphic" in2="effect1_dropShadow" result="shape"/>
</filter>
</defs>
</svg>
