<svg width="374" height="225" viewBox="0 0 374 225" fill="none" xmlns="http://www.w3.org/2000/svg">
<ellipse cx="186.758" cy="203.5" rx="186.713" ry="21.5" fill="#F6F6F6"/>
<g opacity="0.55" clip-path="url(#clip0)">
<path d="M338.734 195.549H149.306C147.502 195.549 146.04 194.087 146.04 192.283C146.04 190.479 147.502 189.017 149.306 189.017H335.468V38.781C335.468 36.9773 336.93 35.515 338.734 35.515C340.538 35.515 342 36.9773 342 38.781V192.283C342 194.087 340.538 195.549 338.734 195.549Z" fill="#5A6470"/>
<path d="M165.636 107.367H204.828V179.219H165.636V107.367Z" fill="#FDBD40"/>
<path d="M224.424 68.175H263.616V179.219H224.424V68.175Z" fill="#E9686A"/>
<path d="M283.212 35.515H322.404V179.219H283.212V35.515Z" fill="#238892"/>
<path d="M178.701 169.421C176.897 169.421 175.435 167.959 175.435 166.155V159.623C175.435 157.819 176.897 156.357 178.701 156.357C180.504 156.357 181.967 157.819 181.967 159.623V166.155C181.967 167.959 180.505 169.421 178.701 169.421Z" fill="white"/>
<path d="M178.701 149.825C176.897 149.825 175.435 148.363 175.435 146.559V133.495C175.435 131.691 176.897 130.229 178.701 130.229C180.504 130.229 181.967 131.691 181.967 133.495V146.559C181.967 148.363 180.505 149.825 178.701 149.825Z" fill="white"/>
<path d="M237.489 169.421C235.685 169.421 234.223 167.959 234.223 166.155V159.623C234.223 157.819 235.685 156.357 237.489 156.357C239.292 156.357 240.755 157.819 240.755 159.623V166.155C240.755 167.959 239.293 169.421 237.489 169.421Z" fill="white"/>
<path d="M237.489 149.825C235.685 149.825 234.223 148.363 234.223 146.559V113.899C234.223 112.095 235.685 110.633 237.489 110.633C239.292 110.633 240.755 112.095 240.755 113.899V146.559C240.755 148.363 239.293 149.825 237.489 149.825Z" fill="white"/>
<path d="M296.277 169.421C294.473 169.421 293.011 167.959 293.011 166.155V159.623C293.011 157.819 294.473 156.357 296.277 156.357C298.08 156.357 299.543 157.819 299.543 159.623V166.155C299.543 167.959 298.081 169.421 296.277 169.421Z" fill="white"/>
<path d="M296.277 149.825C294.473 149.825 293.011 148.363 293.011 146.559V81.239C293.011 79.4353 294.473 77.973 296.277 77.973C298.08 77.973 299.543 79.4353 299.543 81.239V146.559C299.543 148.363 298.081 149.825 296.277 149.825Z" fill="white"/>
</g>
<path fill-rule="evenodd" clip-rule="evenodd" d="M141.006 22.3041C141.006 22.3041 139.083 13.0621 142.692 8.00937C144.159 7.48211 145.002 7.08519 144.348 7.49881C144.154 8.50248 144.219 9.64493 144.219 9.64493C144.219 9.64493 146.118 8.64159 146.414 10.4771C147.971 9.76213 148.11 11.7706 148.11 11.7706C148.11 11.7706 149.332 11.2828 149.603 13.0913C149.789 14.3356 148.701 16.3024 148.927 17.6245C149.511 21.0333 147.106 23.0876 146.271 23.5869C144.158 24.8507 142.543 24.511 141.006 22.3041Z" fill="#997C79"/>
<path d="M141.702 11.7382C141.501 10.0996 141.911 9.19416 142.721 9.51842C143.373 9.77931 143.905 10.8689 143.903 12.051L143.904 12.3121C143.916 14.3017 144.134 15.0015 144.701 15.6181L144.818 15.7397C145.039 15.9663 145.162 16.1176 145.276 16.3308L145.463 16.7046C145.745 17.2737 145.915 17.7112 146.002 18.1989C146.192 19.2602 145.871 20.1972 144.881 20.9468C144.78 21.0239 144.635 21.0039 144.558 20.9022C144.481 20.8005 144.501 20.6556 144.602 20.5785C145.447 19.9386 145.708 19.1775 145.547 18.2803C145.476 17.8789 145.337 17.5051 145.108 17.0306L145.025 16.862C144.987 16.7851 144.919 16.6492 144.898 16.6076C144.81 16.4273 144.721 16.3077 144.548 16.1255L144.445 16.0192C143.703 15.2594 143.436 14.4422 143.441 12.05C143.443 11.0383 142.998 10.1268 142.55 9.94744C142.229 9.81897 141.994 10.3399 142.159 11.6742L142.172 11.7686L142.173 11.8108L141.948 16.3022C141.942 16.4297 141.833 16.5278 141.706 16.5214C141.589 16.5156 141.497 16.4239 141.487 16.3105L141.487 16.2791L141.711 11.808L141.702 11.7382Z" fill="#7C5B4D"/>
<path d="M146.431 10.2465C146.558 10.2559 146.654 10.3666 146.644 10.4939L146.633 10.6319L146.606 10.8966C146.603 10.9281 146.6 10.9603 146.596 10.9931C146.554 11.3681 146.499 11.7474 146.432 12.1085C146.35 12.5478 146.253 12.9301 146.14 13.2379C145.947 13.761 145.71 14.0736 145.369 14.1027C144.568 14.1708 144.143 13.7147 144.064 12.9551C144.037 12.6898 144.051 12.3971 144.097 12.0892C144.122 11.9215 144.155 11.7596 144.192 11.6091L144.223 11.4907C144.232 11.4575 144.24 11.4308 144.246 11.4114C144.283 11.2895 144.413 11.2214 144.535 11.2591C144.657 11.2969 144.725 11.4264 144.687 11.5482L144.663 11.6327C144.656 11.6578 144.649 11.6868 144.641 11.7195C144.607 11.8568 144.577 12.0049 144.554 12.1575C144.513 12.4299 144.501 12.6855 144.524 12.9072C144.579 13.4386 144.81 13.6865 145.33 13.6423C145.427 13.634 145.571 13.444 145.706 13.0782C145.809 12.7984 145.9 12.4396 145.978 12.0234C146.043 11.6746 146.096 11.306 146.137 10.9414L146.165 10.6717L146.183 10.46C146.193 10.3327 146.304 10.2371 146.431 10.2465Z" fill="#7C5B4D"/>
<path d="M148.058 11.6558C148.185 11.6487 148.294 11.7462 148.301 11.8736L148.304 11.9484L148.305 11.9849C148.307 12.071 148.307 12.1673 148.306 12.2717C148.3 12.5701 148.278 12.8748 148.233 13.1692C148.095 14.0753 147.778 14.7074 147.186 14.8923C146.585 15.0802 146.158 14.7986 145.926 14.2446C145.843 14.0476 145.789 13.8295 145.758 13.6074C145.742 13.4997 145.735 13.4144 145.733 13.3625C145.728 13.235 145.828 13.1276 145.955 13.1227C146.083 13.1177 146.19 13.2171 146.195 13.3446L146.198 13.3921C146.201 13.4306 146.207 13.4818 146.215 13.5424C146.242 13.7285 146.286 13.9099 146.352 14.0656C146.501 14.4217 146.708 14.5578 147.048 14.4513C147.417 14.3362 147.662 13.8459 147.776 13.0994C147.818 12.8274 147.839 12.5428 147.844 12.2636C147.845 12.1984 147.845 12.1367 147.844 12.0791L147.84 11.8993C147.833 11.7719 147.93 11.6628 148.058 11.6558Z" fill="#7C5B4D"/>
<path d="M149.514 12.6005C149.641 12.5825 149.758 12.6703 149.776 12.7966L149.788 12.8954C149.796 12.9714 149.803 13.0563 149.809 13.1485C149.826 13.4121 149.827 13.6815 149.805 13.9426C149.726 14.9062 149.366 15.5424 148.6 15.5547C148.03 15.5637 147.698 15.2687 147.614 14.788C147.578 14.579 147.59 14.3476 147.636 14.104C147.67 13.9179 147.716 13.7635 147.752 13.667C147.797 13.5474 147.93 13.4866 148.05 13.5312C148.169 13.5757 148.23 13.7088 148.185 13.8284L148.169 13.8766C148.164 13.8911 148.159 13.9082 148.153 13.9274C148.129 14.0091 148.107 14.0976 148.09 14.1891C148.053 14.3831 148.044 14.5624 148.07 14.7088C148.115 14.9719 148.258 15.098 148.592 15.0927C149.042 15.0855 149.283 14.6598 149.345 13.9047C149.364 13.6682 149.364 13.4206 149.348 13.1779L149.34 13.0621C149.332 12.9734 149.324 12.9048 149.318 12.8619C149.302 12.7461 149.374 12.6381 149.484 12.607L149.514 12.6005Z" fill="#7C5B4D"/>
<path fill-rule="evenodd" clip-rule="evenodd" d="M148.131 66.6749C145.611 68.8878 141.791 68.7044 139.495 66.26L120.162 45.6732C117.392 42.7232 117.615 38.0654 120.656 35.3946C123.696 32.7242 128.344 33.1031 130.912 36.2305L148.833 58.0575C150.961 60.6493 150.651 64.462 148.131 66.6749Z" fill="#ADC6FF"/>
<path fill-rule="evenodd" clip-rule="evenodd" d="M140.844 20.1776L148.237 20.1776L150.396 62.2488C150.364 65.817 147.324 68.6167 143.765 68.3556C140.291 68.1006 137.714 65.0254 138.071 61.5602L140.844 20.1776Z" fill="#ADC6FF"/>
<path d="M140.765 20.2118C140.768 20.111 140.846 20.0271 140.946 20.0122L140.976 20.0099L148.426 19.972C148.539 19.9714 148.628 20.0609 148.624 20.1718C148.62 20.2727 148.542 20.3566 148.443 20.3714L148.412 20.3738L140.963 20.4117C140.85 20.4122 140.761 20.3228 140.765 20.2118Z" fill="#597EF7"/>
<path d="M140.16 27.9767C140.164 27.8608 140.252 27.7672 140.364 27.7538L140.398 27.7522L148.66 27.9816C148.787 27.9852 148.888 28.0914 148.884 28.219C148.881 28.3349 148.793 28.4286 148.681 28.442L148.647 28.4435L140.385 28.2141C140.257 28.2106 140.157 28.1043 140.16 27.9767Z" fill="#597EF7"/>
<path fill-rule="evenodd" clip-rule="evenodd" d="M147.435 22.575C147.711 22.7446 147.797 23.105 147.627 23.3804C147.458 23.6558 147.097 23.7417 146.822 23.5721C146.546 23.403 146.46 23.0421 146.63 22.7667C146.8 22.4913 147.16 22.4054 147.435 22.575Z" fill="white"/>
<path fill-rule="evenodd" clip-rule="evenodd" d="M90.6791 192.915C90.6791 192.915 87.5277 200.807 79.9171 202.787C74.9345 204.082 80.2632 208.481 89.01 206.233C93.9964 204.951 92.7497 202.436 95.5531 202.268C97.1778 202.17 100.397 201.142 100.485 199.903C100.638 197.738 100.678 197.131 100.693 194.61C100.783 179.675 94.9316 179.495 90.6791 192.915Z" fill="#253368"/>
<path fill-rule="evenodd" clip-rule="evenodd" d="M98.2516 80.02C98.2516 80.02 120.749 80.2594 123.84 80.1369C125.449 80.0732 127.625 90.0144 127.716 96.7793C126.692 98.8518 117.786 103.015 113.228 105.115C111.506 105.909 109.923 105.477 109.923 105.477C107.657 106.077 94.3701 96.2891 94.3701 96.2891C94.3701 96.2891 94.585 85.4925 98.2516 80.02Z" fill="#4E5C93"/>
<path fill-rule="evenodd" clip-rule="evenodd" d="M124.291 77.2979L124.416 80.4179C124.416 80.4179 120.828 81.8638 112.128 82.4723C103.758 83.0583 98.1348 80.9493 98.1348 80.9493L98.2101 77.6556C98.2101 77.6556 108.946 81.0376 124.291 77.2979Z" fill="black"/>
<path fill-rule="evenodd" clip-rule="evenodd" d="M116.508 81.7236L116.485 79.4552C116.479 78.8161 115.956 78.3166 115.346 78.3711C113.885 78.501 111.302 78.6872 109.422 78.5768C108.808 78.5407 108.302 79.0703 108.328 79.7126L108.421 82.0285C108.442 82.5701 108.838 83.0123 109.354 83.0756C110.578 83.2263 112.936 83.3732 115.659 82.8104C116.154 82.7078 116.513 82.2522 116.508 81.7236Z" fill="#E4EBF7"/>
<path fill-rule="evenodd" clip-rule="evenodd" d="M115.558 81.4509L115.546 79.846C115.542 79.3941 115.14 79.042 114.67 79.0818C113.543 79.1779 111.55 79.316 110.1 79.2426C109.626 79.219 109.235 79.5947 109.253 80.0489L109.319 81.6875C109.334 82.0705 109.638 82.382 110.035 82.4259C110.98 82.5289 112.798 82.6273 114.9 82.2221C115.283 82.1482 115.56 81.8247 115.558 81.4509Z" fill="black"/>
<path fill-rule="evenodd" clip-rule="evenodd" d="M116.221 27.4321L115.152 20.2384L104.331 17.6558L103.716 28.1354C103.68 30.6214 105.641 32.9457 107.988 33.7664C108.231 33.8519 108.483 33.9267 108.742 33.9886C112.648 34.9211 116.618 31.4287 116.221 27.4321Z" fill="#997C79"/>
<path fill-rule="evenodd" clip-rule="evenodd" d="M100.214 12.9913C101.99 20.904 107.805 24.1002 113.14 23.9755C119.5 23.8267 120.517 18.2738 119.582 10.4036C118.633 2.41232 114.99 -0.0690707 109.019 0.182303C102.794 0.444767 98.4151 4.97642 100.214 12.9913Z" fill="#997C79"/>
<path fill-rule="evenodd" clip-rule="evenodd" d="M104.678 13.8469C104.447 13.2355 104.194 12.2023 103.161 11.8571C101.741 11.3826 100.636 13.0304 100.951 14.6915C101.334 16.7058 103.215 17.8074 104.23 17.7427C104.27 19.7394 104.191 20.8068 104.191 20.8068C104.191 20.8068 101.798 18.7607 100.312 15.4156C97.9934 10.1964 99.2105 2.77764 105.108 0.634028C115.389 -1.94856 117.798 4.193 117.798 4.193L106.131 4.85147L106.703 8.72604C106.703 8.72604 104.634 8.98758 105.38 13.5682L104.678 13.8469Z" fill="#604346"/>
<path d="M112.907 9.01375C113.034 9.00203 113.146 9.09554 113.158 9.2226C113.169 9.33908 113.091 9.44332 112.98 9.4689L112.949 9.47388L109.362 9.80441L108.256 10.2337C108.147 10.276 108.025 10.2299 107.97 10.1303L107.957 10.1018C107.915 9.99275 107.961 9.8712 108.061 9.81616L108.089 9.80286L109.226 9.36203L109.288 9.34737L112.907 9.01375Z" fill="#604346"/>
<path fill-rule="evenodd" clip-rule="evenodd" d="M108.228 19.7924C109.43 17.8091 109.193 16.1294 114.716 15.8443C117.402 15.7057 118.409 16.5227 119.519 18.603C119.014 21.9595 116.459 24.2321 112.857 24.2057C105.289 24.1507 104.422 16.6442 104.422 16.6442C104.422 16.6442 105.501 16.8415 105.883 17.3821C106.939 18.877 107.583 19.2249 108.228 19.7924Z" fill="#7C5B4D"/>
<path fill-rule="evenodd" clip-rule="evenodd" d="M116.696 17.2762C116.696 17.2762 114.757 17.5294 111.754 17.4592C111.754 17.4592 112.278 18.6648 114.429 18.528C116.117 18.4213 116.696 17.2762 116.696 17.2762Z" fill="white"/>
<path d="M116.675 17.1044L116.511 17.1235L116.21 17.1538C116.037 17.17 115.846 17.1859 115.637 17.2011C114.507 17.2829 113.201 17.3197 111.759 17.286C111.64 17.2832 111.556 17.3967 111.588 17.5061L111.599 17.5355C111.694 17.7381 111.894 17.9902 112.232 18.2184C112.763 18.5768 113.491 18.7614 114.441 18.701C115.184 18.6539 115.784 18.4136 116.251 18.0416C116.568 17.7883 116.762 17.5326 116.852 17.3544C116.914 17.2302 116.813 17.0864 116.675 17.1044ZM116.33 17.4904L116.317 17.505C116.236 17.5956 116.142 17.685 116.035 17.7706C115.623 18.0993 115.09 18.3126 114.419 18.3551C113.543 18.4107 112.891 18.2455 112.425 17.9311L112.363 17.887C112.261 17.8132 112.177 17.7383 112.11 17.6662L112.085 17.6389L112.289 17.6419C113.442 17.6554 114.501 17.6241 115.446 17.5617L115.662 17.5467C115.831 17.5344 115.989 17.5216 116.135 17.5086L116.33 17.4904Z" fill="#604346"/>
<path d="M115.803 8.78913C115.917 8.81205 115.995 8.91622 115.988 9.0298L115.984 9.06096L115.73 10.3281L116.972 14.9461C117.093 15.3987 116.79 15.8513 116.333 15.9175L116.284 15.9231L113.371 16.1611C113.244 16.1714 113.132 16.0768 113.122 15.9496C113.112 15.833 113.191 15.7296 113.302 15.7052L113.333 15.7005L116.246 15.4625C116.43 15.4475 116.56 15.2794 116.533 15.1017L116.525 15.0661L115.27 10.3963C115.264 10.3734 115.262 10.3498 115.263 10.3262L115.267 10.2911L115.531 8.97043C115.554 8.85573 115.658 8.77796 115.771 8.78506L115.803 8.78913Z" fill="#604346"/>
<path d="M115.096 19.7705C115.191 19.7623 115.275 19.8329 115.284 19.9283C115.291 20.0141 115.234 20.0907 115.154 20.1111L115.126 20.1158L113.732 20.2359C113.637 20.2442 113.553 20.1735 113.545 20.0782C113.537 19.9924 113.594 19.9158 113.675 19.8953L113.702 19.8907L115.096 19.7705Z" fill="#604346"/>
<path d="M118.977 8.4752C119.104 8.46281 119.217 8.55572 119.23 8.68272C119.241 8.79913 119.164 8.90378 119.053 8.92996L119.022 8.9351L115.953 9.23453C115.826 9.24692 115.713 9.15401 115.7 9.02701C115.689 8.9106 115.766 8.80595 115.877 8.77977L115.908 8.77463L118.977 8.4752Z" fill="#604346"/>
<path d="M108.424 23.2147C108.466 23.1285 108.569 23.0921 108.656 23.1336C110.757 24.1435 112.833 24.2604 114.649 23.8549C114.812 23.8185 114.96 23.7801 115.093 23.7413L115.189 23.7122C115.28 23.6835 115.343 23.6615 115.373 23.6496C115.462 23.6148 115.562 23.6587 115.597 23.7478C115.632 23.837 115.588 23.9375 115.499 23.9724L115.419 24.0015C115.384 24.0134 115.342 24.0274 115.292 24.043C115.128 24.0943 114.938 24.1455 114.725 24.1931C112.838 24.6144 110.685 24.4931 108.505 23.446C108.419 23.4045 108.383 23.301 108.424 23.2147Z" fill="#604346"/>
<path d="M102.415 12.7602C102.68 12.7099 102.971 12.7307 103.249 12.8755C103.696 13.1082 103.999 13.6144 104.107 14.4367C104.118 14.5258 104.06 14.6091 103.972 14.6283C103.529 14.7256 103.327 14.9179 103.315 15.1584C103.305 15.3786 103.457 15.6419 103.698 15.8182C103.775 15.8747 103.792 15.9831 103.735 16.0604C103.679 16.1376 103.571 16.1545 103.493 16.098C103.165 15.8579 102.953 15.4897 102.969 15.142C102.986 14.7793 103.237 14.497 103.691 14.3462L103.74 14.3307L103.735 14.3013C103.631 13.724 103.419 13.3774 103.133 13.2071L103.089 13.1829C102.89 13.079 102.674 13.0637 102.479 13.1007L102.425 13.1129C102.421 13.1139 102.418 13.1148 102.416 13.1156C102.325 13.1453 102.227 13.0956 102.197 13.0047C102.167 12.9137 102.217 12.8159 102.308 12.7861L102.352 12.7738C102.37 12.7694 102.391 12.7647 102.415 12.7602Z" fill="#604346"/>
<path d="M118.551 10.8946C118.678 10.8865 118.788 10.9831 118.796 11.1105C118.838 11.7721 118.355 12.3456 117.711 12.3867C117.068 12.4272 116.516 11.9197 116.474 11.2577C116.466 11.1304 116.563 11.0205 116.69 11.0124C116.817 11.0043 116.927 11.101 116.935 11.2283C116.961 11.6401 117.298 11.9497 117.682 11.9255C118.066 11.901 118.361 11.5512 118.335 11.1399C118.327 11.0125 118.423 10.9027 118.551 10.8946Z" fill="#604346"/>
<path fill-rule="evenodd" clip-rule="evenodd" d="M99.3291 145.673C95.3529 145.353 92.3364 141.953 92.4921 137.967L94.0983 96.7383C94.2998 91.575 98.7598 87.6177 103.91 88.0326C109.05 88.4467 112.816 93.049 112.206 98.1694L107.314 139.139C106.841 143.108 103.314 145.994 99.3291 145.673Z" fill="#4E5C93"/>
<path fill-rule="evenodd" clip-rule="evenodd" d="M100.816 192.415L107.399 139.247C107.931 134.954 104.751 131.095 100.436 130.794C96.2172 130.5 92.5806 133.731 92.3763 137.956L89.79 191.483C89.79 191.483 94.2894 194.327 100.816 192.415Z" fill="#4E5C93"/>
<path fill-rule="evenodd" clip-rule="evenodd" d="M125.861 192.408C125.861 192.408 129.229 200.21 136.891 201.979C141.907 203.137 136.701 207.68 127.896 205.674C122.877 204.53 124.053 201.982 121.246 201.891C119.619 201.838 116.373 200.898 116.251 199.663C116.038 197.503 115.982 196.898 115.897 194.378C115.396 179.45 121.24 179.11 125.861 192.408Z" fill="#253368"/>
<path fill-rule="evenodd" clip-rule="evenodd" d="M119.708 146.561C123.699 146.476 126.91 143.258 126.988 139.267L127.794 98.0131C127.895 92.8484 123.676 88.6383 118.512 88.7487C113.355 88.8592 109.323 93.2347 109.634 98.3837L112.122 139.571C112.364 143.56 115.713 146.646 119.708 146.561Z" fill="#4E5C93"/>
<path fill-rule="evenodd" clip-rule="evenodd" d="M115.151 192.438L112.112 140.274C111.869 136.099 115.141 132.556 119.322 132.467C123.469 132.378 126.874 135.723 126.859 139.871L126.674 192.191C126.674 192.191 121.554 194.731 115.151 192.438Z" fill="#4E5C93"/>
<path fill-rule="evenodd" clip-rule="evenodd" d="M125.351 71.6304C125.351 71.6304 131.205 47.3516 128.322 34.6762C124.911 32.6407 122.321 32.5668 116.383 30.6459C115.193 30.261 112.69 33.1083 111.211 33.058C109.024 32.9836 104.537 29.9361 102.501 30.4001C93.5936 32.4291 90.4902 33.8587 90.4902 33.8587L92.1667 51.4133C94.173 60.9794 97.0412 70.722 97.0412 70.722C97.0412 70.722 92.3307 77.2988 102.01 78.5238C108.752 79.3773 120.016 79.6259 124.254 77.1103C126.1 76.0142 126.291 74.0263 125.351 71.6304Z" fill="#ADC6FF"/>
<path fill-rule="evenodd" clip-rule="evenodd" d="M116.263 28.2186L118.704 31.364L115.713 37.1331L110.9 32.4495L116.263 28.2186Z" fill="#ADC6FF"/>
<path fill-rule="evenodd" clip-rule="evenodd" d="M110.942 32.4544L104.033 28.2975L101.897 30.7553L106.272 36.8007L110.942 32.4544Z" fill="#ADC6FF"/>
<path fill-rule="evenodd" clip-rule="evenodd" d="M114.687 36.0359L111.014 32.3984L107.442 36.1995L109.6 40.251L113.683 40.1485L114.687 36.0359Z" fill="#253368"/>
<path fill-rule="evenodd" clip-rule="evenodd" d="M113.661 40.1174L109.621 40.0966L107.539 65.1162L113.434 73.3639L118.471 64.808L113.661 40.1174Z" fill="#253368"/>
<path d="M101.754 30.5973C101.85 30.5322 101.977 30.549 102.053 30.6319L102.075 30.6587L106.31 36.8985L110.847 32.2372C110.927 32.1552 111.053 32.145 111.145 32.2086L111.171 32.2299L115.765 36.5403L118.144 31.1882C118.191 31.0813 118.31 31.0282 118.419 31.0601L118.449 31.0709C118.556 31.1184 118.609 31.2371 118.577 31.3463L118.566 31.3758L116.055 37.0253C115.995 37.1602 115.828 37.2027 115.712 37.121L115.686 37.0999L111.02 32.7219L106.443 37.4239C106.349 37.5207 106.195 37.5152 106.107 37.4186L106.087 37.3925L101.692 30.9183C101.621 30.8127 101.648 30.669 101.754 30.5973Z" fill="#597EF7"/>
<path d="M113.51 40.0113C113.637 40.0113 113.741 40.1147 113.741 40.2423C113.741 40.3593 113.654 40.456 113.541 40.4713L113.51 40.4734H109.883C109.756 40.4734 109.652 40.3699 109.652 40.2423C109.652 40.1254 109.739 40.0287 109.852 40.0134L109.883 40.0113H113.51Z" fill="#597EF7"/>
<path d="M128.547 41.3099C128.674 41.3038 128.783 41.4018 128.789 41.5293C128.916 44.026 128.869 46.7893 128.667 49.7747C128.387 53.9215 127.822 58.3485 127.055 62.8539C126.685 65.0278 126.291 67.0895 125.895 68.9832L125.815 69.3597C125.697 69.9187 125.585 70.4301 125.482 70.8896L125.334 71.54L125.272 71.8032L125.346 71.941C125.435 72.114 125.523 72.3083 125.606 72.5201C125.928 73.3458 126.072 74.1905 125.935 74.9897C125.751 76.0582 125.076 76.9242 123.832 77.5002C123.716 77.5538 123.579 77.5034 123.525 77.3876C123.472 77.2718 123.522 77.1345 123.638 77.0809C124.745 76.5681 125.322 75.8287 125.479 74.9114C125.6 74.2079 125.47 73.4423 125.175 72.6881C125.114 72.5309 125.049 72.3842 124.984 72.2502L124.935 72.152C124.886 72.0575 124.849 71.9918 124.829 71.9591C124.797 71.9069 124.788 71.8441 124.802 71.7847L124.907 71.3368L125.031 70.7884C125.121 70.3879 125.218 69.9476 125.319 69.4706L125.363 69.264C125.785 67.274 126.206 65.0888 126.6 62.7764C127.364 58.2853 127.927 53.8732 128.206 49.7435C128.406 46.7752 128.453 44.0297 128.328 41.5526C128.322 41.4252 128.42 41.3166 128.547 41.3099Z" fill="#597EF7"/>
<path fill-rule="evenodd" clip-rule="evenodd" d="M127.134 72.2322C128.211 72.1278 128.778 71.6772 128.676 70.7799C129.972 70.3723 129.827 69.2749 129.827 69.2749C129.827 69.2749 132.321 69.2365 132.74 68.171C132.903 67.7574 132.587 67.3142 132.143 67.2842C126.8 66.9224 122.991 64.0908 122.991 64.0908C122.991 64.0908 125.091 61.0063 124.868 59.5827C124.803 59.1617 124.253 59.0258 123.996 59.3655C121.792 62.2724 117.375 64.5519 117.375 64.5519C117.375 64.5519 112.073 69.5198 117.825 71.7724C117.825 71.7724 122.209 73.5196 125.262 73.2982C126.707 73.1938 127.134 72.2322 127.134 72.2322Z" fill="#997C79"/>
<path d="M125.84 68.2957C125.902 68.1843 126.043 68.1445 126.154 68.2068C126.532 68.4179 126.974 68.5903 127.468 68.7267C128.058 68.8896 128.693 68.994 129.331 69.0507L129.526 69.0665C129.776 69.0851 129.99 69.0937 130.157 69.0957L130.28 69.096C130.407 69.0943 130.512 69.1963 130.514 69.3239C130.515 69.4409 130.43 69.5387 130.317 69.5555L130.286 69.5581L130.217 69.5583C129.991 69.5576 129.673 69.5449 129.29 69.511C128.626 69.4519 127.965 69.3432 127.345 69.1721C126.818 69.0265 126.342 68.8408 125.929 68.6101C125.818 68.5478 125.778 68.407 125.84 68.2957Z" fill="#7C5B4D"/>
<path d="M125.335 69.9411C125.39 69.8262 125.528 69.7781 125.643 69.8337C125.692 69.8572 125.741 69.8802 125.791 69.9026C126.419 70.186 127.095 70.3681 127.773 70.468C128.128 70.5202 128.422 70.5425 128.63 70.5472L128.735 70.5482C128.865 70.5464 128.97 70.6484 128.971 70.776C128.973 70.893 128.887 70.9908 128.775 71.0076L128.738 71.0102L128.623 71.0093C128.396 71.0042 128.082 70.9805 127.706 70.9252C126.988 70.8194 126.272 70.6264 125.601 70.3238C125.547 70.2997 125.494 70.275 125.442 70.2497C125.327 70.1942 125.279 70.056 125.335 69.9411Z" fill="#7C5B4D"/>
<path d="M124.383 71.7759C124.439 71.661 124.577 71.6128 124.692 71.6684C124.859 71.749 125.27 71.8277 125.827 71.8919C126.115 71.9252 126.424 71.9528 126.734 71.9752L127.033 71.9951L127.145 72.0015C127.273 72.0079 127.371 72.1165 127.364 72.2439C127.358 72.3714 127.249 72.4694 127.122 72.4629L127.005 72.4563C126.913 72.4508 126.811 72.4441 126.7 72.4361C126.385 72.4133 126.069 72.385 125.774 72.351L125.566 72.3255C125.062 72.2602 124.695 72.1831 124.491 72.0844C124.376 72.0289 124.328 71.8908 124.383 71.7759Z" fill="#7C5B4D"/>
<path fill-rule="evenodd" clip-rule="evenodd" d="M83.5359 73.5903C80.3179 72.6477 78.4266 69.323 79.2616 66.075L86.2941 38.7228C87.3014 34.8034 91.3553 32.4981 95.2386 33.6357C99.122 34.7729 101.291 38.9012 100.025 42.7448L91.1894 69.5683C90.14 72.7535 86.7543 74.533 83.5359 73.5903Z" fill="#ADC6FF"/>
<path d="M91.1305 35.5683C91.186 35.4534 91.3242 35.4053 91.439 35.4608C93.4796 36.4469 95.0359 38.4851 96.182 41.2576C96.7573 42.6492 97.192 44.1379 97.5062 45.6263C97.6024 46.082 97.6811 46.5094 97.7439 46.9002L97.7959 47.24C97.8079 47.3231 97.8185 47.4 97.8276 47.4702L97.8456 47.6161C97.8477 47.6356 97.8474 47.6553 97.8446 47.6746L97.8385 47.7033L93.8683 61.9831C93.8341 62.106 93.7067 62.178 93.5838 62.1438C93.4711 62.1124 93.4013 62.0028 93.4167 61.8901L93.4231 61.8593L97.3811 47.6226L97.3498 47.3848C97.339 47.308 97.3268 47.2247 97.3131 47.1354C97.2478 46.7092 97.1622 46.2338 97.0541 45.7218C96.7453 44.2592 96.3183 42.7969 95.755 41.4342C94.6481 38.7566 93.1575 36.8044 91.238 35.8768C91.1231 35.8213 91.075 35.6832 91.1305 35.5683Z" fill="#597EF7"/>
<path fill-rule="evenodd" clip-rule="evenodd" d="M117.428 63.074L117.554 72.354L85.3256 73.9985C81.762 74.1861 78.7807 71.3245 78.8227 67.7563C78.8634 64.2726 81.7745 61.5121 85.2554 61.6554L117.428 63.074Z" fill="#ADC6FF"/>
<path d="M87.4064 61.4278L117.482 62.7993C117.594 62.8044 117.685 62.8892 117.7 62.9979L117.703 63.028L117.785 72.352C117.786 72.4646 117.706 72.5599 117.598 72.5808L117.568 72.5846L95.727 73.921C95.5996 73.9288 95.4901 73.8318 95.4823 73.7045C95.4751 73.5877 95.556 73.4859 95.6676 73.4638L95.6988 73.4598L117.321 72.1364L117.242 63.2509L87.3853 61.8894C87.2685 61.8841 87.1759 61.7929 87.1657 61.6795L87.165 61.6481C87.1704 61.5313 87.2616 61.4386 87.375 61.4285L87.4064 61.4278Z" fill="#597EF7"/>
<path d="M113.627 63.5015C113.744 63.5048 113.838 63.5944 113.85 63.7075L113.851 63.7389L113.63 71.6803C113.626 71.8078 113.52 71.9084 113.392 71.9048C113.276 71.9015 113.181 71.812 113.169 71.6988L113.168 71.6674L113.389 63.726C113.393 63.5985 113.499 63.498 113.627 63.5015Z" fill="#597EF7"/>
<path fill-rule="evenodd" clip-rule="evenodd" d="M115.939 69.9469C115.943 70.2704 115.684 70.5361 115.361 70.5402C115.038 70.5449 114.772 70.2861 114.768 69.9626C114.763 69.6396 115.022 69.3739 115.345 69.3693C115.669 69.3652 115.934 69.6235 115.939 69.9469Z" fill="white"/>
<path d="M116.146 103.155C116.262 103.103 116.399 103.156 116.451 103.272C116.498 103.379 116.458 103.503 116.361 103.563L116.333 103.577L111.624 105.671L101.046 192.442C101.032 192.558 100.934 192.644 100.82 192.645L100.789 192.644C100.673 192.63 100.587 192.532 100.586 192.418L100.588 192.386L111.181 105.486C111.19 105.416 111.229 105.356 111.286 105.319L111.317 105.302L116.146 103.155Z" fill="#253368"/>
<path d="M175.499 6.9531V15.9373C175.499 16.7518 174.544 17.4116 173.365 17.4116C172.186 17.4116 171.23 16.7518 171.23 15.9373V6.9531C171.23 6.13857 172.186 5.47883 173.365 5.47883C174.544 5.47883 175.499 6.13857 175.499 6.9531Z" fill="#01A0C8"/>
<path d="M155.222 5.47884L173.364 5.47884V17.273H155.222C154.635 17.273 154.155 16.9413 154.155 16.5358V15.7987H134.946V14.3244H120.005V8.42737H134.946V6.9531H154.155V6.21597C154.155 5.81055 154.635 5.47884 155.222 5.47884Z" fill="#FAB400"/>
<path d="M120.005 7.69026V15.0616C120.005 15.4685 119.527 15.7987 118.938 15.7987H116.804C116.214 15.7987 115.736 15.4685 115.736 15.0616V7.69026C115.736 7.28337 116.214 6.95313 116.804 6.95313H118.938C119.527 6.95313 120.005 7.28337 120.005 7.69026Z" fill="#0B5078"/>
<path d="M137.08 6.95313V15.7987H133.879C133.29 15.7987 132.812 15.4685 132.812 15.0616V7.69026C132.812 7.28337 133.29 6.95313 133.879 6.95313H137.08Z" fill="#0B5078"/>
<path d="M153.088 5.47884H156.289V17.273H153.088C152.501 17.273 152.021 16.9413 152.021 16.5358V6.21597C152.021 5.81055 152.501 5.47884 153.088 5.47884Z" fill="#0B5078"/>
<path d="M173.364 4.74171V18.0101C173.364 18.417 172.886 18.7473 172.297 18.7473H170.163C169.574 18.7473 169.096 18.417 169.096 18.0101V4.74171C169.096 4.33481 169.574 4.00457 170.163 4.00457H172.297C172.886 4.00457 173.364 4.33481 173.364 4.74171Z" fill="#0B5078"/>
<path fill-rule="evenodd" clip-rule="evenodd" d="M111.267 11.9204C111.267 12.5493 110.889 13.059 110.422 13.059C109.955 13.059 109.576 12.5493 109.576 11.9204C109.576 11.2915 109.955 10.7819 110.422 10.7819C110.889 10.7819 111.267 11.2915 111.267 11.9204Z" fill="#604346"/>
<defs>
<clipPath id="clip0">
<rect width="196" height="196" fill="white" transform="translate(146 11)"/>
</clipPath>
</defs>
</svg>
