<svg width="1920" height="328" viewBox="0 0 1920 328" fill="none" xmlns="http://www.w3.org/2000/svg">
<path d="M2007.52 149.119H2000.69V138.557C2000.69 136.445 1999.33 135.036 1997.28 135.036H1976.81C1974.76 135.036 1973.39 136.445 1973.39 138.557V149.119H1966.57C1964.52 149.119 1963.16 150.527 1963.16 152.64V208.972H1959.74V198.41C1959.74 196.297 1958.38 194.889 1956.33 194.889H1952.92V191.369C1952.92 189.256 1951.55 187.848 1949.51 187.848C1947.46 187.848 1946.09 189.256 1946.09 191.369V194.889H1942.68C1940.63 194.889 1939.27 196.297 1939.27 198.41V208.972H1929.03V138.557C1929.03 136.445 1927.66 135.036 1925.62 135.036H1915.38V113.912C1915.38 111.799 1914.01 110.391 1911.97 110.391H1871.01C1868.97 110.391 1867.6 111.799 1867.6 113.911V135.036H1857.36C1855.32 135.036 1853.95 136.444 1853.95 138.557V230.097H1847.13V219.535C1847.13 217.422 1845.76 216.014 1843.71 216.014H1823.24C1821.19 216.014 1819.83 217.422 1819.83 219.535V230.097H1816.41C1814.36 230.097 1813 231.505 1813 233.618V318.116C1813 320.229 1814.36 321.637 1816.41 321.637H1857.36H1884.67H1966.57H2007.52C2009.57 321.637 2010.93 320.229 2010.93 318.116V152.64C2010.93 150.527 2009.57 149.119 2007.52 149.119ZM1980.22 142.078H1993.87V149.119H1980.22V142.078ZM1946.09 201.931H1952.92V208.973H1946.09V201.931ZM1860.78 142.078H1871.01C1873.06 142.078 1874.43 140.669 1874.43 138.557V117.432H1908.55V138.557C1908.55 140.669 1909.92 142.078 1911.97 142.078H1922.2V208.972H1915.38V152.64C1915.38 150.527 1914.01 149.119 1911.97 149.119C1909.92 149.119 1908.55 150.527 1908.55 152.64V208.972H1901.73V152.64C1901.73 150.527 1900.36 149.119 1898.32 149.119C1896.27 149.119 1894.9 150.527 1894.9 152.64V208.972H1888.08V152.64C1888.08 150.527 1886.71 149.119 1884.67 149.119C1882.62 149.119 1881.25 150.527 1881.25 152.64V212.493V230.097H1874.43V152.64C1874.43 150.527 1873.06 149.119 1871.01 149.119C1868.97 149.119 1867.6 150.527 1867.6 152.64V230.097H1860.78V142.078ZM1826.65 223.056H1840.3V230.097H1826.65V223.056ZM1819.82 237.139H1823.24H1843.71H1857.36H1881.25V244.18H1857.36C1855.32 244.18 1853.95 245.588 1853.95 247.701V314.596H1819.82V237.139ZM1860.78 251.222H1881.25V258.263H1871.01C1868.97 258.263 1867.6 259.671 1867.6 261.784C1867.6 263.896 1868.97 265.305 1871.01 265.305H1881.25V272.346H1871.01C1868.97 272.346 1867.6 273.754 1867.6 275.867C1867.6 277.979 1868.97 279.387 1871.01 279.387H1881.25V286.429H1871.01C1868.97 286.429 1867.6 287.837 1867.6 289.95C1867.6 292.062 1868.97 293.47 1871.01 293.47H1881.25V300.513H1871.01C1868.97 300.513 1867.6 301.921 1867.6 304.033C1867.6 306.146 1868.97 307.554 1871.01 307.554H1881.25V314.596H1860.78V251.222ZM1888.08 247.701V233.618V216.014H1925.62H1942.68H1956.33H1963.16V314.596H1956.33V226.576C1956.33 224.464 1954.97 223.056 1952.92 223.056C1950.87 223.056 1949.51 224.464 1949.51 226.576V314.596H1942.68V226.576C1942.68 224.464 1941.31 223.056 1939.27 223.056C1937.22 223.056 1935.85 224.464 1935.85 226.576V314.596H1929.03V226.576C1929.03 224.464 1927.66 223.056 1925.62 223.056C1923.57 223.056 1922.2 224.464 1922.2 226.576V314.596H1915.38V226.576C1915.38 224.464 1914.01 223.056 1911.97 223.056C1909.92 223.056 1908.55 224.464 1908.55 226.576V314.596H1901.73V226.576C1901.73 224.464 1900.36 223.056 1898.32 223.056C1896.27 223.056 1894.9 224.464 1894.9 226.576V314.596H1888.08V247.701ZM2004.11 314.596H1969.98V212.493V156.161H1976.81H1997.28H2004.11V314.596Z" fill="#6A6A6A" fill-opacity="0.1"/>
<path d="M1830.06 286.429C1828.01 286.429 1826.65 287.838 1826.65 289.95V296.992C1826.65 299.104 1828.01 300.512 1830.06 300.512C1832.11 300.512 1833.47 299.104 1833.47 296.992V289.95C1833.47 287.838 1832.11 286.429 1830.06 286.429Z" fill="#6A6A6A" fill-opacity="0.1"/>
<path d="M1830.06 244.18C1828.01 244.18 1826.65 245.588 1826.65 247.701V254.743C1826.65 256.855 1828.01 258.263 1830.06 258.263C1832.11 258.263 1833.47 256.855 1833.47 254.743V247.701C1833.47 245.588 1832.11 244.18 1830.06 244.18Z" fill="#6A6A6A" fill-opacity="0.1"/>
<path d="M1830.06 265.305C1828.01 265.305 1826.65 266.713 1826.65 268.825V275.867C1826.65 277.979 1828.01 279.388 1830.06 279.388C1832.11 279.388 1833.47 277.979 1833.47 275.867V268.825C1833.47 266.713 1832.11 265.305 1830.06 265.305Z" fill="#6A6A6A" fill-opacity="0.1"/>
<path d="M1843.71 265.305C1841.67 265.305 1840.3 266.713 1840.3 268.825V275.867C1840.3 277.979 1841.67 279.388 1843.71 279.388C1845.76 279.388 1847.13 277.979 1847.13 275.867V268.825C1847.13 266.713 1845.76 265.305 1843.71 265.305Z" fill="#6A6A6A" fill-opacity="0.1"/>
<path d="M1843.71 286.429C1841.67 286.429 1840.3 287.838 1840.3 289.95V296.992C1840.3 299.104 1841.67 300.512 1843.71 300.512C1845.76 300.512 1847.13 299.104 1847.13 296.992V289.95C1847.13 287.838 1845.76 286.429 1843.71 286.429Z" fill="#6A6A6A" fill-opacity="0.1"/>
<path d="M1843.71 244.18C1841.67 244.18 1840.3 245.588 1840.3 247.701V254.743C1840.3 256.855 1841.67 258.263 1843.71 258.263C1845.76 258.263 1847.13 256.855 1847.13 254.743V247.701C1847.13 245.588 1845.76 244.18 1843.71 244.18Z" fill="#6A6A6A" fill-opacity="0.1"/>
<path d="M1884.67 142.077C1886.71 142.077 1888.08 140.669 1888.08 138.557V127.995C1888.08 125.882 1886.71 124.474 1884.67 124.474C1882.62 124.474 1881.25 125.882 1881.25 127.995V138.557C1881.25 140.669 1882.62 142.077 1884.67 142.077Z" fill="#6A6A6A" fill-opacity="0.1"/>
<path d="M1898.31 142.077C1900.36 142.077 1901.73 140.669 1901.73 138.557V127.995C1901.73 125.882 1900.36 124.474 1898.31 124.474C1896.27 124.474 1894.9 125.882 1894.9 127.995V138.557C1894.9 140.669 1896.27 142.077 1898.31 142.077Z" fill="#6A6A6A" fill-opacity="0.1"/>
<path d="M1762.32 314.996V225.72L1707.47 198.559V129.398H1694.31V111.291H1665.79V101.105H1659.21V111.291H1630.69V129.398H1617.53V192.773H1604.36V173.534H1597.78V192.773H1573.65V210.88H1562.68V314.996H1555V321.786H1770V314.996H1762.32ZM1617.53 235.777H1576.94V242.567H1617.53V253.884H1576.94V260.674H1617.53V271.991H1576.94V278.781H1617.53V290.098H1576.94V296.888H1617.53V314.995H1569.26V217.67H1617.53V235.777ZM1617.53 210.88H1580.23V199.563H1617.53V210.88ZM1637.27 118.081H1687.73V129.398H1637.27V118.081ZM1700.89 314.996H1624.11V136.188H1700.89V314.996H1700.89ZM1755.74 296.889H1742.58V285.572H1755.74V296.889ZM1755.74 260.675H1742.58V249.358H1755.74V260.675ZM1755.74 242.568H1716.25V267.465H1755.74V278.782H1716.25V303.679H1755.74V314.996H1707.47V206.09L1755.74 229.992V242.568ZM1735.99 249.358V260.675H1722.83V249.358H1735.99ZM1735.99 285.572V296.889H1722.83V285.572H1735.99Z" fill="#6A6A6A" fill-opacity="0.1"/>
<path d="M1723.93 226.724H1715.15V233.514H1723.93V226.724Z" fill="#6A6A6A" fill-opacity="0.1"/>
<path d="M1669.08 149.769H1655.92V156.559H1669.08V149.769Z" fill="#6A6A6A" fill-opacity="0.1"/>
<path d="M1669.08 167.876H1655.92V174.666H1669.08V167.876Z" fill="#6A6A6A" fill-opacity="0.1"/>
<path d="M1669.08 185.983H1655.92V192.773H1669.08V185.983Z" fill="#6A6A6A" fill-opacity="0.1"/>
<path d="M1669.08 204.09H1655.92V210.88H1669.08V204.09Z" fill="#6A6A6A" fill-opacity="0.1"/>
<path d="M1691.02 204.09H1677.86V210.88H1691.02V204.09Z" fill="#6A6A6A" fill-opacity="0.1"/>
<path d="M1647.14 204.09H1633.98V210.88H1647.14V204.09Z" fill="#6A6A6A" fill-opacity="0.1"/>
<path d="M1669.08 222.197H1655.92V228.987H1669.08V222.197Z" fill="#6A6A6A" fill-opacity="0.1"/>
<path d="M1691.02 222.197H1677.86V228.987H1691.02V222.197Z" fill="#6A6A6A" fill-opacity="0.1"/>
<path d="M1647.14 222.197H1633.98V228.987H1647.14V222.197Z" fill="#6A6A6A" fill-opacity="0.1"/>
<path d="M1669.08 240.304H1655.92V247.094H1669.08V240.304Z" fill="#6A6A6A" fill-opacity="0.1"/>
<path d="M1691.02 240.304H1677.86V247.094H1691.02V240.304Z" fill="#6A6A6A" fill-opacity="0.1"/>
<path d="M1647.14 240.304H1633.98V247.094H1647.14V240.304Z" fill="#6A6A6A" fill-opacity="0.1"/>
<path d="M1669.08 258.412H1655.92V265.202H1669.08V258.412Z" fill="#6A6A6A" fill-opacity="0.1"/>
<path d="M1691.02 258.412H1677.86V265.202H1691.02V258.412Z" fill="#6A6A6A" fill-opacity="0.1"/>
<path d="M1647.14 258.412H1633.98V265.202H1647.14V258.412Z" fill="#6A6A6A" fill-opacity="0.1"/>
<path d="M1669.08 276.519H1655.92V283.309H1669.08V276.519Z" fill="#6A6A6A" fill-opacity="0.1"/>
<path d="M1691.02 276.519H1677.86V283.309H1691.02V276.519Z" fill="#6A6A6A" fill-opacity="0.1"/>
<path d="M1647.14 276.519H1633.98V283.309H1647.14V276.519Z" fill="#6A6A6A" fill-opacity="0.1"/>
<path d="M1669.08 294.626H1655.92V301.416H1669.08V294.626Z" fill="#6A6A6A" fill-opacity="0.1"/>
<path d="M1691.02 294.626H1677.86V301.416H1691.02V294.626Z" fill="#6A6A6A" fill-opacity="0.1"/>
<path d="M1647.14 294.626H1633.98V301.416H1647.14V294.626Z" fill="#6A6A6A" fill-opacity="0.1"/>
<path d="M1691.02 185.983H1677.86V192.773H1691.02V185.983Z" fill="#6A6A6A" fill-opacity="0.1"/>
<path d="M1647.14 185.983H1633.98V192.773H1647.14V185.983Z" fill="#6A6A6A" fill-opacity="0.1"/>
<path d="M1691.02 167.876H1677.86V174.666H1691.02V167.876Z" fill="#6A6A6A" fill-opacity="0.1"/>
<path d="M1647.14 167.876H1633.98V174.666H1647.14V167.876Z" fill="#6A6A6A" fill-opacity="0.1"/>
<path d="M1691.02 149.769H1677.86V156.559H1691.02V149.769Z" fill="#6A6A6A" fill-opacity="0.1"/>
<path d="M1647.14 149.769H1633.98V156.559H1647.14V149.769Z" fill="#6A6A6A" fill-opacity="0.1"/>
<path d="M1492.25 314.407V257.664H1472.25V243.478H1464.75V257.664H1444.75V280.877H1404.75V164.813H1432.25V115.807H1414.75V95.1738H1382.25V73.25H1374.75V95.1733H1342.25V115.807H1324.75V164.812H1352.25V280.877H1312.25V257.665H1292.25V243.479H1284.75V257.665H1264.75V314.407H1256V322.145H1501V314.407H1492.25V314.407ZM1304.75 314.407H1272.25V265.402H1304.75V314.407H1304.75ZM1352.25 314.407H1312.25V288.615H1352.25V314.407ZM1349.75 102.911H1407.25V115.807H1349.75V102.911ZM1332.25 157.075V123.545H1424.75V157.075H1332.25ZM1397.25 314.407H1359.75V280.877H1397.25V314.407ZM1397.25 273.139H1359.75V255.085H1397.25V273.139ZM1397.25 247.347H1359.75V224.134H1397.25V247.347ZM1397.25 216.397H1359.75V198.343H1397.25V216.397ZM1397.25 190.605H1359.75V164.813H1397.25V190.605ZM1444.75 314.407H1404.75V288.615H1444.75V314.407ZM1484.75 314.407H1452.25V265.402H1484.75V314.407Z" fill="#6A6A6A" fill-opacity="0.1"/>
<path d="M1386 136.441H1371V144.178H1386V136.441Z" fill="#6A6A6A" fill-opacity="0.1"/>
<path d="M1411 136.441H1396V144.178H1411V136.441Z" fill="#6A6A6A" fill-opacity="0.1"/>
<path d="M1361 136.441H1346V144.178H1361V136.441Z" fill="#6A6A6A" fill-opacity="0.1"/>
<path d="M1298.5 273.139H1278.5V280.877H1298.5V273.139Z" fill="#6A6A6A" fill-opacity="0.1"/>
<path d="M1298.5 288.615H1278.5V296.352H1298.5V288.615Z" fill="#6A6A6A" fill-opacity="0.1"/>
<path d="M1478.5 273.139H1458.5V280.877H1478.5V273.139Z" fill="#6A6A6A" fill-opacity="0.1"/>
<path d="M1478.5 288.615H1458.5V296.352H1478.5V288.615Z" fill="#6A6A6A" fill-opacity="0.1"/>
<path d="M1346 298.932H1318.5V306.669H1346V298.932Z" fill="#6A6A6A" fill-opacity="0.1"/>
<path d="M1438.5 298.932H1411V306.669H1438.5V298.932Z" fill="#6A6A6A" fill-opacity="0.1"/>
<path d="M1376 288.615H1366V296.352H1376V288.615Z" fill="#6A6A6A" fill-opacity="0.1"/>
<path d="M1391 288.615H1381V296.352H1391V288.615Z" fill="#6A6A6A" fill-opacity="0.1"/>
<path d="M1323.5 185.446H1314.68C1314.06 179.651 1309.28 175.129 1303.5 175.129H1278.5C1272.3 175.129 1267.25 180.336 1267.25 186.736C1267.25 193.135 1272.3 198.342 1278.5 198.342H1287.32C1287.94 204.137 1292.72 208.659 1298.5 208.659H1323.5C1329.7 208.659 1334.75 203.452 1334.75 197.053C1334.75 190.653 1329.7 185.446 1323.5 185.446ZM1323.5 200.922H1298.5C1296.43 200.922 1294.75 199.186 1294.75 197.053C1294.75 196.69 1294.83 196.291 1295.03 195.627L1296.55 190.605H1278.5C1276.43 190.605 1274.75 188.869 1274.75 186.736C1274.75 184.602 1276.43 182.867 1278.5 182.867H1303.5C1305.57 182.867 1307.25 184.602 1307.25 186.736C1307.25 187.098 1307.17 187.498 1306.97 188.161L1305.45 193.184H1323.5C1325.57 193.184 1327.25 194.919 1327.25 197.053C1327.25 199.186 1325.57 200.922 1323.5 200.922Z" fill="#6A6A6A" fill-opacity="0.1"/>
<path d="M1478.5 185.446H1469.68C1469.06 179.651 1464.28 175.129 1458.5 175.129H1433.5C1427.3 175.129 1422.25 180.336 1422.25 186.736C1422.25 193.135 1427.3 198.342 1433.5 198.342H1442.32C1442.94 204.137 1447.72 208.659 1453.5 208.659H1478.5C1484.7 208.659 1489.75 203.452 1489.75 197.053C1489.75 190.653 1484.7 185.446 1478.5 185.446ZM1478.5 200.922H1453.5C1451.43 200.922 1449.75 199.186 1449.75 197.053C1449.75 196.69 1449.83 196.291 1450.03 195.627L1451.55 190.605H1433.5C1431.43 190.605 1429.75 188.869 1429.75 186.736C1429.75 184.602 1431.43 182.867 1433.5 182.867H1458.5C1460.57 182.867 1462.25 184.602 1462.25 186.736C1462.25 187.098 1462.17 187.498 1461.97 188.161L1460.45 193.184H1478.5C1480.57 193.184 1482.25 194.919 1482.25 197.053C1482.25 199.186 1480.57 200.922 1478.5 200.922Z" fill="#6A6A6A" fill-opacity="0.1"/>
<path d="M996.124 44.8535V24.7603H987.897V44.8535H944.021V143.775H913.856V120.59H905.629V143.775H875.464V88.1317H828.845V64.9473H820.619V88.1317H774V321.525H782.227V97.4055H867.237V321.525H875.464V153.049H944.021V321.525H952.248V54.1279H1031.77V321.525H1040V44.8535H996.124Z" fill="#6A6A6A" fill-opacity="0.1"/>
<path d="M790.453 109.771V143.776H859.01V109.771H790.453ZM820.618 134.502H798.68V119.045H820.618V134.502ZM850.783 134.502H828.845V119.045H850.783V134.502Z" fill="#6A6A6A" fill-opacity="0.1"/>
<path d="M790.453 159.231V193.236H859.01V159.231H790.453ZM820.618 183.962H798.68V168.505H820.618V183.962ZM850.783 183.962H828.845V168.505H850.783V183.962Z" fill="#6A6A6A" fill-opacity="0.1"/>
<path d="M790.453 208.692V242.696H859.01V208.692H790.453ZM820.618 233.423H798.68V217.966H820.618V233.423ZM850.783 233.423H828.845V217.966H850.783V233.423Z" fill="#6A6A6A" fill-opacity="0.1"/>
<path d="M790.453 258.153V292.158H859.01V258.153H790.453ZM820.618 282.883H798.68V267.427H820.618V282.883ZM850.783 282.883H828.845V267.427H850.783V282.883Z" fill="#6A6A6A" fill-opacity="0.1"/>
<path d="M960.473 66.4929V100.497H1023.54V66.4929H960.473ZM1015.32 91.2234H968.699V75.7668H1015.32V91.2234Z" fill="#6A6A6A" fill-opacity="0.1"/>
<path d="M960.473 115.954V149.958H1023.54V115.954H960.473ZM1015.32 140.684H968.699V125.227H1015.32V140.684Z" fill="#6A6A6A" fill-opacity="0.1"/>
<path d="M960.473 165.414V199.419H1023.54V165.414H960.473ZM1015.32 190.145H968.699V174.688H1015.32V190.145Z" fill="#6A6A6A" fill-opacity="0.1"/>
<path d="M960.473 214.875V248.879H1023.54V214.875H960.473ZM1015.32 239.605H968.699V224.149H1015.32V239.605Z" fill="#6A6A6A" fill-opacity="0.1"/>
<path d="M960.473 264.335V298.34H1023.54V264.335H960.473ZM1015.32 289.066H968.699V273.609H1015.32V289.066Z" fill="#6A6A6A" fill-opacity="0.1"/>
<path d="M937.166 165.414H882.32V174.688H937.166V165.414Z" fill="#6A6A6A" fill-opacity="0.1"/>
<path d="M937.166 190.145H882.32V199.418H937.166V190.145Z" fill="#6A6A6A" fill-opacity="0.1"/>
<path d="M937.166 214.875H882.32V224.149H937.166V214.875Z" fill="#6A6A6A" fill-opacity="0.1"/>
<path d="M937.166 239.605H882.32V248.879H937.166V239.605Z" fill="#6A6A6A" fill-opacity="0.1"/>
<path d="M937.166 264.335H882.32V273.609H937.166V264.335Z" fill="#6A6A6A" fill-opacity="0.1"/>
<path d="M937.166 289.066H882.32V298.34H937.166V289.066Z" fill="#6A6A6A" fill-opacity="0.1"/>
<path d="M1255.69 166.616C1255.69 154.685 1246.28 144.978 1234.72 144.978C1234.71 144.978 1234.71 144.978 1234.71 144.978C1233.79 138.971 1228.73 134.364 1222.66 134.364C1222.05 134.364 1221.45 134.411 1220.85 134.505C1218.78 130.509 1214.72 127.887 1210.1 127.887C1208.18 127.887 1206.31 128.353 1204.63 129.23C1201.79 127.067 1198.32 125.866 1194.76 125.866C1189.43 125.866 1184.55 128.485 1181.47 132.719C1177.9 129.994 1173.56 128.491 1169.02 128.491C1158.91 128.491 1150.42 135.942 1148.47 145.798C1143.76 145.687 1139.36 147.926 1136.55 151.616C1133.27 149.512 1129.47 148.385 1125.53 148.385C1118.56 148.385 1112.15 151.935 1108.28 157.701C1106.38 156.79 1104.3 156.308 1102.16 156.308C1094.14 156.308 1087.62 163.04 1087.62 171.314C1087.62 172.116 1087.68 172.919 1087.8 173.711C1078.56 176.887 1072 185.948 1072 196.29C1072 202.014 1074 207.545 1077.63 211.867C1080.34 215.094 1083.82 217.493 1087.69 218.84C1087.64 219.294 1087.62 219.752 1087.62 220.213C1087.62 227.237 1093.16 232.952 1099.96 232.952C1103.52 232.952 1106.79 231.411 1109.08 228.815C1111.38 230.117 1113.97 230.81 1116.66 230.81C1119.47 230.81 1122.17 230.057 1124.54 228.642C1128.49 233.479 1134.35 236.359 1140.6 236.359C1143.53 236.359 1146.36 235.716 1148.96 234.547C1159.26 242.451 1164.59 246.407 1167.55 248.375C1167.17 249.66 1166.71 250.927 1166.16 252.17C1163.46 258.303 1159.02 263.272 1153.31 266.541C1136.19 276.345 1129.32 298.339 1137.66 316.613L1138.41 318.245H1116.27C1114.31 318.245 1112.71 319.888 1112.71 321.915C1112.71 323.942 1114.31 325.586 1116.27 325.586H1209.19C1211.15 325.586 1212.75 323.942 1212.75 321.915C1212.75 319.888 1211.15 318.245 1209.19 318.245H1177.7C1167.98 304.43 1168.51 285.412 1179.27 272.147C1185.82 264.083 1189.42 253.849 1189.42 243.329C1189.42 242.871 1189.41 242.414 1189.4 241.958L1204.96 230.29C1211.92 229.807 1218.03 225.21 1220.67 218.664C1220.88 218.672 1221.1 218.676 1221.32 218.676C1231.32 218.676 1239.48 210.362 1239.63 200.081C1245.77 198.244 1250.17 192.444 1250.17 185.53C1250.17 184.24 1250.02 182.975 1249.71 181.748C1253.54 177.723 1255.69 172.338 1255.69 166.616ZM1155.22 230.201C1156.91 228.511 1158.33 226.523 1159.4 224.3C1160.01 224.137 1160.62 223.925 1161.21 223.661C1161.77 223.413 1162.3 223.122 1162.82 222.792C1163.94 223.714 1165.2 224.41 1166.54 224.869L1168.18 232.733C1168.71 235.278 1168.93 237.845 1168.85 240.39C1165.4 237.895 1160.33 234.093 1155.22 230.201ZM1173.82 267.435C1162.04 281.954 1160.5 302.243 1169.24 318.245H1146.27L1144.1 313.485C1137.35 298.695 1142.91 280.894 1156.77 272.96C1163.82 268.921 1169.31 262.781 1172.64 255.204C1175.97 247.626 1176.84 239.321 1175.14 231.186L1173.84 224.986C1174.31 224.843 1174.77 224.674 1175.23 224.471C1175.79 224.218 1176.34 223.918 1176.86 223.583C1180.42 229.522 1182.31 236.326 1182.31 243.329C1182.31 252.129 1179.29 260.69 1173.82 267.435ZM1183.89 221.44C1185.23 221.409 1186.56 221.213 1187.86 220.851C1189.65 224.09 1192.32 226.67 1195.49 228.317L1188.4 233.633C1187.49 229.376 1185.97 225.273 1183.89 221.44ZM1243.35 177.797C1242.06 178.855 1241.65 180.685 1242.34 182.223C1242.82 183.264 1243.05 184.376 1243.05 185.53C1243.05 189.778 1239.83 193.21 1235.72 193.343C1234.68 193.377 1233.71 193.874 1233.06 194.706C1232.41 195.537 1232.14 196.62 1232.33 197.671C1232.46 198.38 1232.52 199.089 1232.52 199.78C1232.52 206.151 1227.5 211.335 1221.32 211.335C1220.53 211.335 1219.72 211.245 1218.93 211.065C1218 210.857 1217.04 211.038 1216.24 211.566C1215.45 212.095 1214.89 212.928 1214.69 213.882C1213.59 219.162 1208.99 222.994 1203.74 222.994C1199.76 222.994 1196.17 220.845 1194.18 217.449C1196.9 215.092 1198.82 211.889 1199.65 208.327C1203.98 209.368 1208.54 208.97 1212.71 207.113C1214.52 206.31 1215.35 204.149 1214.57 202.289C1213.79 200.428 1211.7 199.57 1209.89 200.374C1206.1 202.063 1201.81 201.924 1198.12 199.994C1196.97 199.393 1195.6 199.479 1194.53 200.218C1193.46 200.957 1192.86 202.234 1192.96 203.557C1193.28 207.732 1191 211.652 1187.27 213.312C1184.82 214.404 1182.12 214.391 1179.68 213.275C1177.9 212.464 1175.81 213.277 1175 215.101C1174.48 216.287 1173.55 217.221 1172.41 217.732C1170.1 218.759 1167.45 217.916 1166.11 215.73C1165.49 214.73 1164.45 214.098 1163.3 214.032C1162.16 213.966 1161.05 214.474 1160.33 215.397C1159.81 216.068 1159.15 216.581 1158.39 216.921C1155.81 218.07 1152.81 216.84 1151.7 214.183C1151.55 213.819 1151.44 213.428 1151.37 212.989C1151.16 211.746 1150.35 210.7 1149.21 210.219C1148.08 209.738 1146.79 209.891 1145.8 210.623C1145 211.211 1144.13 211.712 1143.24 212.111C1139.84 213.625 1136.07 213.683 1132.63 212.274C1129.19 210.865 1126.49 208.158 1125.02 204.652C1124.24 202.791 1122.15 201.933 1120.34 202.737C1118.54 203.541 1117.71 205.701 1118.49 207.562C1120.71 212.868 1124.8 216.965 1130.01 219.097C1135.22 221.23 1140.92 221.142 1146.06 218.85C1146.06 218.85 1146.06 218.849 1146.07 218.848C1147.35 220.948 1149.21 222.591 1151.44 223.607C1148.85 226.951 1144.88 229.018 1140.6 229.018C1135.56 229.018 1130.91 226.186 1128.46 221.625C1127.91 220.615 1126.94 219.927 1125.83 219.769C1124.72 219.61 1123.61 219.999 1122.82 220.819C1121.18 222.528 1118.99 223.469 1116.66 223.469C1114.39 223.469 1112.24 222.568 1110.6 220.932C1109.75 220.078 1108.54 219.72 1107.38 219.975C1106.22 220.231 1105.26 221.068 1104.82 222.206C1104.02 224.275 1102.11 225.612 1099.96 225.612C1097.08 225.612 1094.73 223.19 1094.73 220.214C1094.73 219.385 1094.92 218.58 1095.28 217.822C1095.79 216.772 1095.78 215.536 1095.26 214.494C1094.73 213.453 1093.76 212.733 1092.63 212.557C1084.93 211.345 1079.12 204.352 1079.12 196.291C1079.12 188.14 1085.01 181.139 1092.82 180.007C1093.96 179.842 1094.95 179.125 1095.48 178.079C1096.01 177.033 1096.02 175.787 1095.51 174.73C1094.99 173.663 1094.73 172.514 1094.73 171.315C1094.73 167.089 1098.06 163.651 1102.16 163.651C1104.01 163.651 1105.77 164.354 1107.14 165.633C1107.99 166.428 1109.16 166.751 1110.29 166.499C1111.41 166.248 1112.34 165.454 1112.8 164.366C1114.99 159.118 1119.99 155.727 1125.53 155.727C1129.14 155.727 1132.56 157.156 1135.15 159.75C1136.02 160.618 1137.26 160.971 1138.44 160.687C1139.62 160.402 1140.58 159.519 1140.98 158.343C1142.05 155.228 1144.93 153.136 1148.13 153.136C1148.93 153.136 1149.73 153.267 1150.49 153.526C1151.57 153.893 1152.75 153.705 1153.68 153.019C1154.6 152.334 1155.15 151.233 1155.16 150.059C1155.2 142.215 1161.41 135.833 1169.02 135.833C1173.15 135.833 1177.03 137.716 1179.68 140.999C1180.5 142.02 1181.79 142.503 1183.06 142.262C1184.33 142.021 1185.37 141.093 1185.78 139.835C1187.09 135.87 1190.7 133.207 1194.76 133.207C1197.43 133.207 1199.9 134.322 1201.71 136.347C1203.04 137.821 1205.26 137.926 1206.71 136.58C1207.65 135.708 1208.85 135.228 1210.1 135.228C1212.61 135.228 1214.72 137.085 1215.11 139.644C1215.3 140.813 1216.01 141.82 1217.04 142.349C1218.06 142.879 1219.27 142.865 1220.29 142.312C1221.03 141.909 1221.83 141.705 1222.66 141.705C1225.46 141.705 1227.74 144.06 1227.74 146.956C1227.74 147.353 1227.69 147.761 1227.59 148.203C1227.31 149.429 1227.66 150.719 1228.51 151.62C1229.37 152.52 1230.61 152.905 1231.81 152.638C1232.75 152.426 1233.73 152.319 1234.72 152.319C1242.36 152.319 1248.58 158.733 1248.58 166.616C1248.58 170.989 1246.67 175.064 1243.35 177.797Z" fill="#6A6A6A" fill-opacity="0.1"/>
<path d="M1214.71 171.437C1214.35 171.598 1213.99 171.768 1213.63 171.945C1209.9 164.722 1201.33 161.534 1193.92 164.836C1192.92 165.28 1191.97 165.834 1191.09 166.483C1186.71 162.4 1180.35 161.198 1174.68 163.724C1172.21 164.827 1170.08 166.573 1168.48 168.774C1163.8 167.452 1158.77 167.789 1154.28 169.79C1145.85 173.546 1140.68 182.415 1141.4 191.86C1141.55 193.782 1143.11 195.24 1144.95 195.24C1145.04 195.24 1145.14 195.236 1145.23 195.229C1147.19 195.068 1148.65 193.3 1148.5 191.279C1148.01 184.967 1151.47 179.04 1157.11 176.529C1160.81 174.878 1164.89 174.898 1168.59 176.585C1170.37 177.396 1172.45 176.583 1173.26 174.759C1174.12 172.824 1175.63 171.299 1177.5 170.463C1181.27 168.787 1185.59 170.162 1187.79 173.734C1188.41 174.733 1189.45 175.365 1190.6 175.431C1191.74 175.496 1192.85 174.989 1193.57 174.067C1194.42 172.971 1195.49 172.132 1196.74 171.576C1200.94 169.703 1205.84 171.708 1207.66 176.046C1207.91 176.647 1208.09 177.284 1208.21 177.995C1208.42 179.238 1209.23 180.284 1210.36 180.765C1211.49 181.246 1212.78 181.093 1213.78 180.361C1214.95 179.498 1216.21 178.763 1217.53 178.177C1219.33 177.374 1220.16 175.214 1219.39 173.353C1218.61 171.491 1216.51 170.634 1214.71 171.437Z" fill="#6A6A6A" fill-opacity="0.1"/>
<path d="M444.23 49.925V176.052H455.129V59.779H510.345V151.09H521.243V49.925H444.23Z" fill="#6A6A6A" fill-opacity="0.1"/>
<path d="M549.578 0V151.09H560.476V9.85337H638.941V201.015H649.839V0H549.578Z" fill="#6A6A6A" fill-opacity="0.1"/>
<path d="M661.465 0V201.015H672.363V9.85337H750.102V312.032H688.572V206.31H610.924V312.033H583V156.345H505.261V312.033H460.216V180.651H405V312.033V317.288V321.886H761V317.288V312.033V0H661.465ZM449.319 312.033H415.898V190.504H449.318V312.033H449.319ZM572.102 312.033H516.16V166.198H572.102V312.033ZM677.674 311.928H621.823V216.163H677.674V311.928Z" fill="#6A6A6A" fill-opacity="0.1"/>
<path d="M438.421 201.015H427.523V211.525H438.421V201.015Z" fill="#6A6A6A" fill-opacity="0.1"/>
<path d="M438.421 221.379H427.523V231.889H438.421V221.379Z" fill="#6A6A6A" fill-opacity="0.1"/>
<path d="M438.421 241.743H427.523V251.596H438.421V241.743Z" fill="#6A6A6A" fill-opacity="0.1"/>
<path d="M438.421 261.45H427.523V271.304H438.421V261.45Z" fill="#6A6A6A" fill-opacity="0.1"/>
<path d="M438.421 281.815H427.523V291.668H438.421V281.815Z" fill="#6A6A6A" fill-opacity="0.1"/>
<path d="M477.652 70.9463H466.027V80.7997H477.652V70.9463Z" fill="#6A6A6A" fill-opacity="0.1"/>
<path d="M499.448 70.9463H488.551V80.7997H499.448V70.9463Z" fill="#6A6A6A" fill-opacity="0.1"/>
<path d="M477.652 90.6538H466.027V100.507H477.652V90.6538Z" fill="#6A6A6A" fill-opacity="0.1"/>
<path d="M499.448 90.6538H488.551V100.507H499.448V90.6538Z" fill="#6A6A6A" fill-opacity="0.1"/>
<path d="M477.652 111.018H466.027V120.872H477.652V111.018Z" fill="#6A6A6A" fill-opacity="0.1"/>
<path d="M499.448 111.018H488.551V120.872H499.448V111.018Z" fill="#6A6A6A" fill-opacity="0.1"/>
<path d="M477.652 130.726H466.027V140.579H477.652V130.726Z" fill="#6A6A6A" fill-opacity="0.1"/>
<path d="M499.448 130.726H488.551V140.579H499.448V130.726Z" fill="#6A6A6A" fill-opacity="0.1"/>
<path d="M477.652 151.09H466.027V160.943H477.652V151.09Z" fill="#6A6A6A" fill-opacity="0.1"/>
<path d="M499.448 151.09H488.551V160.943H499.448V151.09Z" fill="#6A6A6A" fill-opacity="0.1"/>
<path d="M477.652 170.797H466.027V180.65H477.652V170.797Z" fill="#6A6A6A" fill-opacity="0.1"/>
<path d="M499.448 170.797H488.551V180.65H499.448V170.797Z" fill="#6A6A6A" fill-opacity="0.1"/>
<path d="M477.652 191.161H466.027V201.014H477.652V191.161Z" fill="#6A6A6A" fill-opacity="0.1"/>
<path d="M499.448 191.161H488.551V201.014H499.448V191.161Z" fill="#6A6A6A" fill-opacity="0.1"/>
<path d="M477.652 211.525H466.027V221.379H477.652V211.525Z" fill="#6A6A6A" fill-opacity="0.1"/>
<path d="M499.448 211.525H488.551V221.379H499.448V211.525Z" fill="#6A6A6A" fill-opacity="0.1"/>
<path d="M477.652 231.89H466.027V241.743H477.652V231.89Z" fill="#6A6A6A" fill-opacity="0.1"/>
<path d="M499.448 231.89H488.551V241.743H499.448V231.89Z" fill="#6A6A6A" fill-opacity="0.1"/>
<path d="M477.652 251.597H466.027V261.45H477.652V251.597Z" fill="#6A6A6A" fill-opacity="0.1"/>
<path d="M499.448 251.597H488.551V261.45H499.448V251.597Z" fill="#6A6A6A" fill-opacity="0.1"/>
<path d="M477.652 271.961H466.027V281.815H477.652V271.961Z" fill="#6A6A6A" fill-opacity="0.1"/>
<path d="M499.448 271.961H488.551V281.815H499.448V271.961Z" fill="#6A6A6A" fill-opacity="0.1"/>
<path d="M560.479 176.052H527.785V185.906H560.479V176.052Z" fill="#6A6A6A" fill-opacity="0.1"/>
<path d="M560.479 196.416H527.785V206.269H560.479V196.416Z" fill="#6A6A6A" fill-opacity="0.1"/>
<path d="M560.479 216.123H527.785V225.977H560.479V216.123Z" fill="#6A6A6A" fill-opacity="0.1"/>
<path d="M560.479 236.488H527.785V246.341H560.479V236.488Z" fill="#6A6A6A" fill-opacity="0.1"/>
<path d="M560.479 256.195H527.785V266.048H560.479V256.195Z" fill="#6A6A6A" fill-opacity="0.1"/>
<path d="M560.479 277.217H527.785V287.07H560.479V277.217Z" fill="#6A6A6A" fill-opacity="0.1"/>
<path d="M582.999 19.7073H572.102V151.09H582.999V19.7073Z" fill="#6A6A6A" fill-opacity="0.1"/>
<path d="M604.796 19.7073H593.898V241.744H604.796V19.7073Z" fill="#6A6A6A" fill-opacity="0.1"/>
<path d="M627.32 19.7073H616.422V201.015H627.32V19.7073Z" fill="#6A6A6A" fill-opacity="0.1"/>
<path d="M738.476 19.7073H727.578V241.744H738.476V19.7073Z" fill="#6A6A6A" fill-opacity="0.1"/>
<path d="M716.683 19.7073H705.785V241.744H716.683V19.7073Z" fill="#6A6A6A" fill-opacity="0.1"/>
<path d="M694.159 19.7073H683.262V201.015H694.159V19.7073Z" fill="#6A6A6A" fill-opacity="0.1"/>
<path d="M649.843 225.978H627.32V235.831H649.843V225.978Z" fill="#6A6A6A" fill-opacity="0.1"/>
<path d="M672.362 225.978H661.465V235.831H672.362V225.978Z" fill="#6A6A6A" fill-opacity="0.1"/>
<path d="M649.843 246.342H627.32V256.195H649.843V246.342Z" fill="#6A6A6A" fill-opacity="0.1"/>
<path d="M672.362 246.342H661.465V256.195H672.362V246.342Z" fill="#6A6A6A" fill-opacity="0.1"/>
<path d="M649.843 266.049H627.32V275.902H649.843V266.049Z" fill="#6A6A6A" fill-opacity="0.1"/>
<path d="M672.362 266.049H661.465V275.902H672.362V266.049Z" fill="#6A6A6A" fill-opacity="0.1"/>
<path d="M649.843 287.07H627.32V296.923H649.843V287.07Z" fill="#6A6A6A" fill-opacity="0.1"/>
<path d="M672.362 287.07H661.465V296.923H672.362V287.07Z" fill="#6A6A6A" fill-opacity="0.1"/>
<path d="M3.53571 154.729H10.6071V144.166C10.6071 142.054 12.0213 140.646 14.1426 140.646H35.3565C37.4779 140.646 38.892 142.054 38.892 144.166V154.729H45.9634C48.0848 154.729 49.4989 156.137 49.4989 158.249V214.582H53.0344V204.019C53.0344 201.907 54.4485 200.499 56.5699 200.499H60.1058V196.978C60.1058 194.866 61.5199 193.457 63.6413 193.457C65.7627 193.457 67.1768 194.866 67.1768 196.978V200.499H70.7128C72.8341 200.499 74.2483 201.907 74.2483 204.019V214.582H84.8552V144.166C84.8552 142.054 86.2693 140.646 88.3907 140.646H98.9976V119.521C98.998 117.408 100.412 116 102.534 116H144.961C147.083 116 148.497 117.408 148.497 119.521V140.645H159.104C161.225 140.645 162.639 142.053 162.639 144.166V235.706H169.711V225.144C169.711 223.031 171.125 221.623 173.246 221.623H194.46C196.581 221.623 197.995 223.031 197.995 225.144V235.706H201.531C203.652 235.706 205.066 237.114 205.066 239.227V323.726C205.066 325.838 203.652 327.246 201.531 327.246H159.103H130.818H45.9626H3.53488C1.4135 327.246 -0.000610352 325.838 -0.000610352 323.726V158.249C-0.000198364 156.137 1.41432 154.729 3.53571 154.729ZM31.8206 147.687H17.6781V154.729H31.8206V147.687ZM67.1772 207.54H60.1058V214.582H67.1772V207.54ZM155.568 147.687H144.961C142.84 147.687 141.426 146.279 141.426 144.166V123.042H106.069V144.166C106.069 146.279 104.655 147.687 102.534 147.687H91.927V214.582H98.9984V158.249C98.9984 156.137 100.413 154.729 102.534 154.729C104.655 154.729 106.069 156.137 106.069 158.249V214.582H113.14V158.249C113.14 156.137 114.555 154.729 116.676 154.729C118.797 154.729 120.211 156.137 120.211 158.249V214.582H127.283V158.249C127.283 156.137 128.697 154.729 130.818 154.729C132.94 154.729 134.354 156.137 134.354 158.249V218.103V235.707H141.426V158.249C141.426 156.137 142.84 154.729 144.961 154.729C147.083 154.729 148.497 156.137 148.497 158.249V235.706H155.568V147.687ZM190.924 228.665H176.782V235.707H190.924V228.665ZM197.996 242.748H194.46H173.246H159.104H134.354V249.79H159.104C161.225 249.79 162.639 251.198 162.639 253.31V320.205H197.996V242.748ZM155.568 256.831H134.354V263.873H144.961C147.083 263.873 148.497 265.281 148.497 267.393C148.497 269.506 147.083 270.914 144.961 270.914H134.354V277.956H144.961C147.083 277.956 148.497 279.364 148.497 281.476C148.497 283.589 147.083 284.997 144.961 284.997H134.354V292.039H144.961C147.083 292.039 148.497 293.447 148.497 295.559C148.497 297.672 147.083 299.08 144.961 299.08H134.354V306.122H144.961C147.083 306.122 148.497 307.53 148.497 309.643C148.497 311.755 147.083 313.163 144.961 313.163H134.354V320.205H155.568V256.831ZM127.283 253.31V239.227V221.623H88.3907H70.7128H56.5703H49.4989V320.205H56.5703V232.186C56.5703 230.073 57.9845 228.665 60.1058 228.665C62.2272 228.665 63.6413 230.073 63.6413 232.186V320.205H70.7128V232.186C70.7128 230.073 72.1269 228.665 74.2483 228.665C76.3696 228.665 77.7838 230.073 77.7838 232.186V320.205H84.8552V232.186C84.8552 230.073 86.2693 228.665 88.3907 228.665C90.5121 228.665 91.9262 230.073 91.9262 232.186V320.205H98.9976V232.186C98.9976 230.073 100.412 228.665 102.533 228.665C104.654 228.665 106.069 230.073 106.069 232.186V320.205H113.14V232.186C113.14 230.073 114.555 228.665 116.676 228.665C118.797 228.665 120.211 230.073 120.211 232.186V320.205H127.283V253.31ZM7.07123 320.205H42.4275V218.103V161.77H35.3561H14.1422H7.07123V320.205Z" fill="#6A6A6A" fill-opacity="0.1"/>
<path d="M31.82 253.31C33.9414 253.31 35.3555 254.718 35.3555 256.831V263.873C35.3555 265.985 33.9414 267.393 31.82 267.393C29.6986 267.393 28.2845 265.985 28.2845 263.873V256.831C28.2845 254.718 29.6986 253.31 31.82 253.31Z" fill="#6A6A6A" fill-opacity="0.1"/>
<path d="M31.82 274.435C33.9414 274.435 35.3555 275.843 35.3555 277.955V284.997C35.3555 287.11 33.9414 288.518 31.82 288.518C29.6986 288.518 28.2845 287.11 28.2845 284.997V277.955C28.2845 275.843 29.6986 274.435 31.82 274.435Z" fill="#6A6A6A" fill-opacity="0.1"/>
<path d="M31.82 295.56C33.9414 295.56 35.3555 296.968 35.3555 299.08V306.122C35.3555 308.234 33.9414 309.643 31.82 309.643C29.6986 309.643 28.2845 308.234 28.2845 306.122V299.08C28.2845 296.968 29.6986 295.56 31.82 295.56Z" fill="#6A6A6A" fill-opacity="0.1"/>
<path d="M31.82 232.186C33.9414 232.186 35.3555 233.594 35.3555 235.706V242.748C35.3555 244.86 33.9414 246.269 31.82 246.269C29.6986 246.269 28.2845 244.86 28.2845 242.748V235.706C28.2845 233.594 29.6986 232.186 31.82 232.186Z" fill="#6A6A6A" fill-opacity="0.1"/>
<path d="M31.82 168.812C33.9414 168.812 35.3555 170.22 35.3555 172.332V179.374C35.3555 181.486 33.9414 182.894 31.82 182.894C29.6986 182.894 28.2845 181.486 28.2845 179.374V172.332C28.2845 170.22 29.6986 168.812 31.82 168.812Z" fill="#6A6A6A" fill-opacity="0.1"/>
<path d="M31.82 189.936C33.9414 189.936 35.3555 191.344 35.3555 193.457V200.499C35.3555 202.611 33.9414 204.019 31.82 204.019C29.6986 204.019 28.2845 202.611 28.2845 200.499V193.457C28.2845 191.344 29.6986 189.936 31.82 189.936Z" fill="#6A6A6A" fill-opacity="0.1"/>
<path d="M31.82 211.061C33.9414 211.061 35.3555 212.469 35.3555 214.582V221.623C35.3555 223.736 33.9414 225.144 31.82 225.144C29.6986 225.144 28.2845 223.736 28.2845 221.623V214.582C28.2845 212.469 29.6986 211.061 31.82 211.061Z" fill="#6A6A6A" fill-opacity="0.1"/>
<path d="M17.6793 253.31C19.8007 253.31 21.2148 254.718 21.2148 256.831V263.873C21.2148 265.985 19.8007 267.393 17.6793 267.393C15.558 267.393 14.1438 265.985 14.1438 263.873V256.831C14.1438 254.718 15.558 253.31 17.6793 253.31Z" fill="#6A6A6A" fill-opacity="0.1"/>
<path d="M17.6793 295.56C19.8007 295.56 21.2148 296.968 21.2148 299.08V306.122C21.2148 308.234 19.8007 309.643 17.6793 309.643C15.558 309.643 14.1438 308.234 14.1438 306.122V299.08C14.1438 296.968 15.558 295.56 17.6793 295.56Z" fill="#6A6A6A" fill-opacity="0.1"/>
<path d="M17.6793 189.936C19.8007 189.936 21.2148 191.344 21.2148 193.457V200.499C21.2148 202.611 19.8007 204.019 17.6793 204.019C15.558 204.019 14.1438 202.611 14.1438 200.499V193.457C14.1438 191.344 15.558 189.936 17.6793 189.936Z" fill="#6A6A6A" fill-opacity="0.1"/>
<path d="M17.6793 168.812C19.8007 168.812 21.2148 170.22 21.2148 172.332V179.374C21.2148 181.486 19.8007 182.894 17.6793 182.894C15.558 182.894 14.1438 181.486 14.1438 179.374V172.332C14.1438 170.22 15.558 168.812 17.6793 168.812Z" fill="#6A6A6A" fill-opacity="0.1"/>
<path d="M17.6793 232.186C19.8007 232.186 21.2148 233.594 21.2148 235.706V242.748C21.2148 244.86 19.8007 246.269 17.6793 246.269C15.558 246.269 14.1438 244.86 14.1438 242.748V235.706C14.1438 233.594 15.558 232.186 17.6793 232.186Z" fill="#6A6A6A" fill-opacity="0.1"/>
<path d="M17.6793 274.435C19.8007 274.435 21.2148 275.843 21.2148 277.955V284.997C21.2148 287.11 19.8007 288.518 17.6793 288.518C15.558 288.518 14.1438 287.11 14.1438 284.997V277.955C14.1438 275.843 15.558 274.435 17.6793 274.435Z" fill="#6A6A6A" fill-opacity="0.1"/>
<path d="M17.6793 211.061C19.8007 211.061 21.2148 212.469 21.2148 214.582V221.623C21.2148 223.736 19.8007 225.144 17.6793 225.144C15.558 225.144 14.1438 223.736 14.1438 221.623V214.582C14.1438 212.469 15.558 211.061 17.6793 211.061Z" fill="#6A6A6A" fill-opacity="0.1"/>
<path d="M187.39 292.039C189.512 292.039 190.926 293.447 190.926 295.559V302.601C190.926 304.714 189.512 306.122 187.39 306.122C185.269 306.122 183.855 304.714 183.855 302.601V295.559C183.855 293.447 185.269 292.039 187.39 292.039Z" fill="#6A6A6A" fill-opacity="0.1"/>
<path d="M187.39 249.79C189.512 249.79 190.926 251.198 190.926 253.31V260.352C190.926 262.464 189.512 263.873 187.39 263.873C185.269 263.873 183.855 262.464 183.855 260.352V253.31C183.855 251.198 185.269 249.79 187.39 249.79Z" fill="#6A6A6A" fill-opacity="0.1"/>
<path d="M187.39 270.914C189.512 270.914 190.926 272.322 190.926 274.435V281.476C190.926 283.589 189.512 284.997 187.39 284.997C185.269 284.997 183.855 283.589 183.855 281.476V274.435C183.855 272.322 185.269 270.914 187.39 270.914Z" fill="#6A6A6A" fill-opacity="0.1"/>
<path d="M173.246 270.914C175.367 270.914 176.781 272.322 176.781 274.435V281.476C176.781 283.589 175.367 284.997 173.246 284.997C171.124 284.997 169.71 283.589 169.71 281.476V274.435C169.71 272.322 171.124 270.914 173.246 270.914Z" fill="#6A6A6A" fill-opacity="0.1"/>
<path d="M173.246 292.039C175.367 292.039 176.781 293.447 176.781 295.559V302.601C176.781 304.714 175.367 306.122 173.246 306.122C171.124 306.122 169.71 304.714 169.71 302.601V295.559C169.71 293.447 171.124 292.039 173.246 292.039Z" fill="#6A6A6A" fill-opacity="0.1"/>
<path d="M173.246 249.79C175.367 249.79 176.781 251.198 176.781 253.31V260.352C176.781 262.464 175.367 263.873 173.246 263.873C171.124 263.873 169.71 262.464 169.71 260.352V253.31C169.71 251.198 171.124 249.79 173.246 249.79Z" fill="#6A6A6A" fill-opacity="0.1"/>
<path d="M130.82 147.687C128.699 147.687 127.284 146.279 127.284 144.166V133.604C127.284 131.491 128.699 130.083 130.82 130.083C132.941 130.083 134.355 131.491 134.355 133.604V144.166C134.355 146.279 132.941 147.687 130.82 147.687Z" fill="#6A6A6A" fill-opacity="0.1"/>
<path d="M116.675 147.687C114.554 147.687 113.14 146.279 113.14 144.166V133.604C113.14 131.491 114.554 130.083 116.675 130.083C118.797 130.083 120.211 131.491 120.211 133.604V144.166C120.211 146.279 118.797 147.687 116.675 147.687Z" fill="#6A6A6A" fill-opacity="0.1"/>
</svg>
