<svg width="776" height="623" viewBox="0 0 776 623" fill="none" xmlns="http://www.w3.org/2000/svg">
<ellipse cx="388" cy="573.565" rx="388" ry="49.311" fill="#E2E2E2"/>
<path fill-rule="evenodd" clip-rule="evenodd" d="M635.043 511.614C635.043 511.614 632.779 493.498 657.235 485.346C681.69 477.194 687.125 481.497 687.125 481.497L684.861 488.743C684.861 488.743 681.011 506.858 663.348 509.349C645.686 511.84 638.893 508.217 635.043 511.614Z" fill="#7CB305"/>
<path d="M684.503 482.352L685.218 482.907L685.159 482.981C685.133 483.013 685.101 483.052 685.063 483.098L684.95 483.231C684.87 483.324 684.783 483.425 684.687 483.532L684.613 483.614C684.117 484.165 683.517 484.778 682.813 485.437C680.806 487.316 678.364 489.193 675.474 490.944C669.67 494.46 662.816 497.016 654.877 498.206L654.582 498.249C649.238 499.025 644.979 500.8 641.68 503.271C640.098 504.456 638.842 505.723 637.88 506.988C637.544 507.429 637.27 507.836 637.053 508.2L636.982 508.321C636.949 508.379 636.918 508.433 636.891 508.483L636.815 508.628L636.811 508.638L635.992 508.25L636.017 508.199C636.069 508.095 636.154 507.939 636.275 507.736C636.51 507.343 636.803 506.908 637.159 506.44C638.171 505.11 639.486 503.782 641.138 502.545C644.508 500.021 648.832 498.203 654.217 497.388L654.452 497.353C662.393 496.2 669.23 493.667 675.004 490.169C677.839 488.452 680.232 486.613 682.194 484.776C682.833 484.177 683.383 483.619 683.843 483.115L683.941 483.007C684.084 482.848 684.209 482.705 684.316 482.579L684.435 482.435L684.503 482.352Z" fill="#7CB305"/>
<path fill-rule="evenodd" clip-rule="evenodd" d="M684.182 523.842H687.125V481.497H684.182L684.975 494.508C685.201 498.21 685.225 501.922 685.049 505.627L684.182 523.842Z" fill="#7CB305"/>
<path fill-rule="evenodd" clip-rule="evenodd" d="M638.842 449.613C638.842 449.613 647.856 435.907 669.33 444.592C690.804 453.276 691.88 460.211 691.88 460.211L686.238 463.021C686.238 463.021 673.045 473.163 659.516 464.568C645.987 455.973 643.455 449.535 638.842 449.613Z" fill="#7CB305"/>
<path fill-rule="evenodd" clip-rule="evenodd" d="M688.937 535.617H691.201L692.088 460.867C692.099 459.945 691.492 459.13 690.605 458.877L688.937 458.4C688.937 458.4 689.505 465.345 689.39 474.024C689.279 482.327 688.484 492.206 688.484 499.523C688.484 520.219 688.937 535.617 688.937 535.617Z" fill="#7CB305"/>
<path fill-rule="evenodd" clip-rule="evenodd" d="M669.462 449.116C679.234 456.7 689.163 461.57 689.163 461.57L686.238 463.021C686.238 463.021 673.045 473.163 659.516 464.568C645.987 455.973 643.455 449.535 638.842 449.614C638.842 449.614 654.29 437.341 669.462 449.116Z" fill="#5B8C00"/>
<path fill-rule="evenodd" clip-rule="evenodd" d="M744.812 482.033C744.812 482.033 738.732 472.834 724.246 478.663C709.76 484.492 709.034 489.147 709.034 489.147L712.84 491.032C712.84 491.032 721.74 497.84 730.867 492.071C739.993 486.302 741.701 481.981 744.812 482.033Z" fill="#7CB305"/>
<path fill-rule="evenodd" clip-rule="evenodd" d="M710.986 540.133H709.422L708.809 489.715C708.801 489.093 709.221 488.543 709.833 488.372L710.986 488.051C710.986 488.051 710.593 492.735 710.673 498.589C710.75 504.189 711.299 510.853 711.299 515.788C711.299 529.747 710.986 540.133 710.986 540.133Z" fill="#7CB305"/>
<path fill-rule="evenodd" clip-rule="evenodd" d="M746.504 432.177C746.504 432.177 737.49 418.471 716.016 427.156C694.542 435.84 693.466 442.775 693.466 442.775L699.108 445.585C699.108 445.585 712.301 455.727 725.83 447.132C739.359 438.537 741.891 432.099 746.504 432.177Z" fill="#7CB305"/>
<path fill-rule="evenodd" clip-rule="evenodd" d="M696.409 521.124H694.145L693.257 443.431C693.247 442.509 693.854 441.693 694.74 441.44L696.409 440.963C696.409 440.963 695.841 447.909 695.956 456.588C696.067 464.89 696.862 474.77 696.862 482.087C696.862 502.782 696.409 521.124 696.409 521.124Z" fill="#7CB305"/>
<path fill-rule="evenodd" clip-rule="evenodd" d="M746.504 432.178C746.504 432.178 731.055 419.905 715.884 431.68C706.112 439.264 696.183 444.134 696.183 444.134L699.108 445.585C699.108 445.585 712.301 455.727 725.83 447.132C739.359 438.537 741.891 432.099 746.504 432.178Z" fill="#5B8C00"/>
<path fill-rule="evenodd" clip-rule="evenodd" d="M700.485 520.445H704.335L705.857 472.321L702.957 426.9C702.968 425.979 702.361 425.163 701.474 424.91L699.806 424.433C699.806 424.433 703.429 460.504 703.429 467.821C703.429 488.517 700.485 520.445 700.485 520.445Z" fill="#7CB305"/>
<path fill-rule="evenodd" clip-rule="evenodd" d="M657.165 399.02C657.165 399.02 665.387 386.844 684.861 399.072C704.478 411.389 703.116 427.548 703.116 427.548L696.847 428.2C696.847 428.2 680.934 433.07 671.279 420.276C661.625 407.482 661.512 400.565 657.165 399.02Z" fill="#7CB305"/>
<path fill-rule="evenodd" clip-rule="evenodd" d="M657.165 399.019C657.165 399.019 666.015 392.495 673.538 401.788C677.388 406.544 684.199 410.129 687.125 412.884C694.727 420.042 700.094 427.867 700.094 427.867L696.847 428.2C696.847 428.2 680.934 433.069 671.279 420.275C661.625 407.481 661.512 400.564 657.165 399.019Z" fill="#5B8C00"/>
<path fill-rule="evenodd" clip-rule="evenodd" d="M721.942 583.85H669.407C666.406 583.85 663.973 581.417 663.973 578.415V525.88C663.973 522.879 666.406 520.446 669.407 520.446H721.942C724.944 520.446 727.377 522.879 727.377 525.88V578.415C727.377 581.417 724.944 583.85 721.942 583.85Z" fill="#212231"/>
<path d="M649.983 75.2642H621.146V104.101H649.983V75.2642Z" fill="#E8505B"/>
<path d="M687.179 75.2642H658.345V104.098H687.179V75.2642Z" fill="#F9D56E"/>
<path d="M649.98 151.394H621.146V180.228H649.98V151.394Z" fill="#F9D56E"/>
<path d="M611.915 113.329H583.081V142.163H611.915V113.329Z" fill="#F9D56E"/>
<path d="M574.718 0H545.881V28.8369H574.718V0Z" fill="#F9D56E"/>
<path d="M724.382 38.0645H695.545V66.9013H724.382V38.0645Z" fill="#14B1AB"/>
<path d="M687.182 0H658.345V28.8369H687.182V0Z" fill="#E8505B"/>
<path d="M611.918 38.0645H583.081V66.9013H611.918V38.0645Z" fill="#E8505B"/>
<path d="M574.718 187.728H545.881V216.565H574.718V187.728Z" fill="#C14A4C"/>
<path d="M536.654 113.329H507.817V142.166H536.654V113.329Z" fill="#2F4459"/>
<path d="M725.247 113.329H696.41V142.166H725.247V113.329Z" fill="#14B1AB"/>
<path d="M649.983 113.329H621.146V142.166H649.983V113.329Z" fill="#14B1AB"/>
<path d="M394.007 549.689C393.838 557.678 391.216 565.423 386.494 571.87C381.773 578.317 375.182 583.156 367.616 585.728C360.05 588.3 351.875 588.481 344.203 586.247C336.53 584.014 329.731 579.473 324.728 573.241C319.725 567.009 316.761 559.389 316.239 551.415C315.716 543.441 317.661 535.499 321.807 528.668C325.954 521.837 332.103 516.448 339.419 513.232C346.734 510.016 354.862 509.129 362.699 510.692L355.085 548.87L394.007 549.689Z" fill="#FF072E"/>
<path d="M368.739 506.761C377.168 508.837 384.661 513.671 390.027 520.493C395.393 527.316 398.325 535.737 398.357 544.418L359.428 544.56L368.739 506.761Z" fill="#FE5E77"/>
<path d="M159.179 430.148L185.564 439.928V596.923L159.179 589.57V430.148Z" fill="#FF2365"/>
<path d="M185.564 439.928L211.95 430.148V591.732L185.564 596.923V439.928Z" fill="#B40B3D"/>
<path d="M185.565 419.577L211.951 430.149L185.565 439.928L159.179 430.149L185.565 419.577Z" fill="#F43E74"/>
<path fill-rule="evenodd" clip-rule="evenodd" d="M185.132 439.774L185.564 439.928L211.95 430.149L185.564 419.577L185.132 419.746V439.774Z" fill="#F43E74"/>
<path d="M229.252 380.523L255.638 393.212V596.923L229.252 587.382V380.523Z" fill="#A3CB38"/>
<path d="M255.638 393.212L282.024 380.523V590.188L255.638 596.923V393.212Z" fill="#009432"/>
<path d="M255.638 366.805L282.024 380.523L255.638 393.212L229.252 380.523L255.638 366.805Z" fill="#C4E538"/>
<path fill-rule="evenodd" clip-rule="evenodd" d="M255.206 393.013L255.639 393.212L282.024 380.523L255.639 366.805L255.206 367.025V393.013Z" fill="#C4E538"/>
<path d="M299.326 338.219L325.712 353.389V596.923L299.326 585.516V338.219Z" fill="#FFF200"/>
<path d="M325.712 353.389L352.098 338.219V588.871L325.712 596.923V353.389Z" fill="#FFBB36"/>
<path d="M325.712 321.819L352.098 338.219L325.712 353.389L299.326 338.219L325.712 321.819Z" fill="#FFFA65"/>
<path fill-rule="evenodd" clip-rule="evenodd" d="M325.279 353.15L325.712 353.389L352.098 338.219L325.712 321.819L325.279 322.082V353.15Z" fill="#FFFA65"/>
<path d="M181.646 410.311H183.66V413.155H181.646V417H178.118V413.155H170.83L170.671 410.933L178.081 399.227H181.646V410.311ZM174.187 410.311H178.118V404.036L177.886 404.439L174.187 410.311ZM197.777 409.651C197.777 412.109 197.268 413.989 196.251 415.291C195.234 416.593 193.744 417.244 191.783 417.244C189.846 417.244 188.365 416.605 187.34 415.328C186.314 414.05 185.79 412.219 185.765 409.834V406.563C185.765 404.081 186.278 402.197 187.303 400.911C188.337 399.625 189.822 398.982 191.759 398.982C193.696 398.982 195.177 399.621 196.202 400.899C197.228 402.168 197.752 403.995 197.777 406.38V409.651ZM194.249 406.062C194.249 404.59 194.046 403.519 193.639 402.852C193.24 402.177 192.613 401.839 191.759 401.839C190.929 401.839 190.314 402.16 189.916 402.803C189.525 403.438 189.317 404.435 189.293 405.794V410.115C189.293 411.564 189.488 412.642 189.879 413.35C190.278 414.05 190.912 414.4 191.783 414.4C192.646 414.4 193.268 414.062 193.651 413.387C194.033 412.711 194.233 411.678 194.249 410.286V406.062ZM200.371 402.645C200.371 401.554 200.725 400.671 201.433 399.996C202.141 399.312 203.068 398.97 204.216 398.97C205.38 398.97 206.315 399.308 207.023 399.983C207.731 400.651 208.085 401.558 208.085 402.706V403.584C208.085 404.683 207.731 405.566 207.023 406.233C206.315 406.901 205.388 407.234 204.24 407.234C203.085 407.234 202.149 406.901 201.433 406.233C200.725 405.558 200.371 404.651 200.371 403.511V402.645ZM202.714 403.584C202.714 404.073 202.853 404.467 203.129 404.769C203.414 405.062 203.785 405.208 204.24 405.208C204.696 405.208 205.058 405.057 205.327 404.756C205.595 404.455 205.729 404.052 205.729 403.548V402.645C205.729 402.156 205.595 401.762 205.327 401.46C205.058 401.159 204.688 401.009 204.216 401.009C203.768 401.009 203.406 401.159 203.129 401.46C202.853 401.753 202.714 402.164 202.714 402.693V403.584ZM208.867 412.642C208.867 411.543 209.225 410.66 209.941 409.993C210.657 409.318 211.585 408.98 212.724 408.98C213.88 408.98 214.812 409.314 215.52 409.981C216.236 410.64 216.594 411.552 216.594 412.715V413.594C216.594 414.685 216.244 415.568 215.544 416.243C214.844 416.91 213.912 417.244 212.749 417.244C211.577 417.244 210.637 416.906 209.929 416.231C209.221 415.556 208.867 414.66 208.867 413.545V412.642ZM211.21 413.594C211.21 414.042 211.357 414.424 211.65 414.742C211.943 415.059 212.309 415.218 212.749 415.218C213.741 415.218 214.238 414.668 214.238 413.57V412.642C214.238 412.154 214.099 411.763 213.823 411.47C213.546 411.169 213.18 411.019 212.724 411.019C212.268 411.019 211.902 411.169 211.625 411.47C211.349 411.763 211.21 412.166 211.21 412.679V413.594ZM204.936 415.669L203.215 414.742L211.894 400.85L213.615 401.778L204.936 415.669Z" fill="#FF2365"/>
<path d="M238.733 352.26L239.759 343.227H249.72V346.168H242.652L242.212 349.989C243.051 349.542 243.942 349.318 244.886 349.318C246.578 349.318 247.905 349.843 248.865 350.893C249.826 351.942 250.306 353.411 250.306 355.299C250.306 356.447 250.062 357.476 249.573 358.388C249.093 359.291 248.401 359.995 247.498 360.5C246.595 360.996 245.529 361.244 244.3 361.244C243.226 361.244 242.229 361.028 241.309 360.597C240.389 360.158 239.661 359.543 239.124 358.754C238.595 357.965 238.314 357.065 238.282 356.056H241.773C241.846 356.797 242.103 357.375 242.542 357.79C242.99 358.196 243.571 358.4 244.288 358.4C245.085 358.4 245.7 358.115 246.131 357.545C246.562 356.968 246.778 356.154 246.778 355.104C246.778 354.095 246.53 353.322 246.033 352.785C245.537 352.248 244.833 351.979 243.921 351.979C243.083 351.979 242.404 352.199 241.883 352.638L241.541 352.956L238.733 352.26ZM264.777 353.651C264.777 356.109 264.268 357.989 263.251 359.291C262.234 360.593 260.744 361.244 258.783 361.244C256.846 361.244 255.365 360.605 254.34 359.328C253.314 358.05 252.79 356.219 252.765 353.834V350.563C252.765 348.081 253.278 346.197 254.303 344.911C255.337 343.625 256.822 342.982 258.759 342.982C260.696 342.982 262.177 343.621 263.202 344.899C264.228 346.168 264.752 347.995 264.777 350.38V353.651ZM261.249 350.062C261.249 348.59 261.046 347.519 260.639 346.852C260.24 346.177 259.613 345.839 258.759 345.839C257.929 345.839 257.314 346.16 256.916 346.803C256.525 347.438 256.317 348.435 256.293 349.794V354.115C256.293 355.564 256.488 356.642 256.879 357.35C257.278 358.05 257.912 358.4 258.783 358.4C259.646 358.4 260.268 358.062 260.651 357.387C261.033 356.711 261.233 355.678 261.249 354.286V350.062ZM267.371 346.645C267.371 345.554 267.725 344.671 268.433 343.996C269.141 343.312 270.068 342.97 271.216 342.97C272.38 342.97 273.315 343.308 274.023 343.983C274.731 344.651 275.085 345.558 275.085 346.706V347.584C275.085 348.683 274.731 349.566 274.023 350.233C273.315 350.901 272.388 351.234 271.24 351.234C270.085 351.234 269.149 350.901 268.433 350.233C267.725 349.558 267.371 348.651 267.371 347.511V346.645ZM269.714 347.584C269.714 348.073 269.853 348.467 270.129 348.769C270.414 349.062 270.785 349.208 271.24 349.208C271.696 349.208 272.058 349.057 272.327 348.756C272.595 348.455 272.729 348.052 272.729 347.548V346.645C272.729 346.156 272.595 345.762 272.327 345.46C272.058 345.159 271.688 345.009 271.216 345.009C270.768 345.009 270.406 345.159 270.129 345.46C269.853 345.753 269.714 346.164 269.714 346.693V347.584ZM275.867 356.642C275.867 355.543 276.225 354.66 276.941 353.993C277.657 353.318 278.585 352.98 279.724 352.98C280.88 352.98 281.812 353.314 282.52 353.981C283.236 354.64 283.594 355.552 283.594 356.715V357.594C283.594 358.685 283.244 359.568 282.544 360.243C281.844 360.91 280.912 361.244 279.749 361.244C278.577 361.244 277.637 360.906 276.929 360.231C276.221 359.556 275.867 358.66 275.867 357.545V356.642ZM278.21 357.594C278.21 358.042 278.357 358.424 278.65 358.742C278.943 359.059 279.309 359.218 279.749 359.218C280.741 359.218 281.238 358.668 281.238 357.57V356.642C281.238 356.154 281.099 355.763 280.823 355.47C280.546 355.169 280.18 355.019 279.724 355.019C279.268 355.019 278.902 355.169 278.625 355.47C278.349 355.763 278.21 356.166 278.21 356.679V357.594ZM271.936 359.669L270.215 358.742L278.894 344.85L280.615 345.778L271.936 359.669Z" fill="#A3CB38"/>
<path d="M318.779 302.043V304.949H318.437C316.842 304.973 315.556 305.388 314.58 306.194C313.611 307 313.029 308.118 312.834 309.551C313.778 308.59 314.97 308.11 316.411 308.11C317.957 308.11 319.186 308.664 320.097 309.771C321.009 310.877 321.464 312.334 321.464 314.141C321.464 315.296 321.212 316.342 320.708 317.278C320.211 318.214 319.503 318.942 318.583 319.463C317.672 319.984 316.639 320.244 315.483 320.244C313.611 320.244 312.097 319.593 310.942 318.291C309.794 316.989 309.221 315.251 309.221 313.079V311.809C309.221 309.88 309.583 308.18 310.307 306.707C311.04 305.225 312.085 304.082 313.444 303.276C314.812 302.463 316.394 302.052 318.193 302.043H318.779ZM315.336 310.942C314.767 310.942 314.25 311.093 313.786 311.394C313.322 311.687 312.98 312.078 312.761 312.566V313.64C312.761 314.82 312.993 315.744 313.457 316.411C313.92 317.07 314.571 317.4 315.41 317.4C316.167 317.4 316.777 317.103 317.241 316.509C317.713 315.907 317.949 315.129 317.949 314.177C317.949 313.209 317.713 312.428 317.241 311.833C316.769 311.239 316.134 310.942 315.336 310.942ZM335.777 312.651C335.777 315.109 335.268 316.989 334.251 318.291C333.234 319.593 331.744 320.244 329.783 320.244C327.846 320.244 326.365 319.605 325.34 318.328C324.314 317.05 323.79 315.219 323.765 312.834V309.563C323.765 307.081 324.278 305.197 325.303 303.911C326.337 302.625 327.822 301.982 329.759 301.982C331.696 301.982 333.177 302.621 334.202 303.899C335.228 305.168 335.752 306.995 335.777 309.38V312.651ZM332.249 309.062C332.249 307.59 332.046 306.519 331.639 305.852C331.24 305.177 330.613 304.839 329.759 304.839C328.929 304.839 328.314 305.16 327.916 305.803C327.525 306.438 327.317 307.435 327.293 308.794V313.115C327.293 314.564 327.488 315.642 327.879 316.35C328.278 317.05 328.912 317.4 329.783 317.4C330.646 317.4 331.268 317.062 331.651 316.387C332.033 315.711 332.233 314.678 332.249 313.286V309.062ZM338.371 305.645C338.371 304.554 338.725 303.671 339.433 302.996C340.141 302.312 341.068 301.97 342.216 301.97C343.38 301.97 344.315 302.308 345.023 302.983C345.731 303.651 346.085 304.558 346.085 305.706V306.584C346.085 307.683 345.731 308.566 345.023 309.233C344.315 309.901 343.388 310.234 342.24 310.234C341.085 310.234 340.149 309.901 339.433 309.233C338.725 308.558 338.371 307.651 338.371 306.511V305.645ZM340.714 306.584C340.714 307.073 340.853 307.467 341.129 307.769C341.414 308.062 341.785 308.208 342.24 308.208C342.696 308.208 343.058 308.057 343.327 307.756C343.595 307.455 343.729 307.052 343.729 306.548V305.645C343.729 305.156 343.595 304.762 343.327 304.46C343.058 304.159 342.688 304.009 342.216 304.009C341.768 304.009 341.406 304.159 341.129 304.46C340.853 304.753 340.714 305.164 340.714 305.693V306.584ZM346.867 315.642C346.867 314.543 347.225 313.66 347.941 312.993C348.657 312.318 349.585 311.98 350.724 311.98C351.88 311.98 352.812 312.314 353.52 312.981C354.236 313.64 354.594 314.552 354.594 315.715V316.594C354.594 317.685 354.244 318.568 353.544 319.243C352.844 319.91 351.912 320.244 350.749 320.244C349.577 320.244 348.637 319.906 347.929 319.231C347.221 318.556 346.867 317.66 346.867 316.545V315.642ZM349.21 316.594C349.21 317.042 349.357 317.424 349.65 317.742C349.943 318.059 350.309 318.218 350.749 318.218C351.741 318.218 352.238 317.668 352.238 316.57V315.642C352.238 315.154 352.099 314.763 351.823 314.47C351.546 314.169 351.18 314.019 350.724 314.019C350.268 314.019 349.902 314.169 349.625 314.47C349.349 314.763 349.21 315.166 349.21 315.679V316.594ZM342.936 318.669L341.215 317.742L349.894 303.85L351.615 304.778L342.936 318.669Z" fill="#FFF200"/>
<path d="M447.367 19.8423H167.872C163.071 19.8423 159.179 23.734 159.179 28.5347V229.248C159.179 234.048 163.071 237.94 167.872 237.94H447.367C452.168 237.94 456.059 234.048 456.059 229.248V28.5347C456.059 23.734 452.168 19.8423 447.367 19.8423Z" fill="#E4EBF7"/>
<path d="M443.335 56.2319H242.694C240.526 56.2319 238.769 56.7837 238.769 57.4643L238.336 115.924C238.336 116.605 240.526 115.924 242.694 115.924H443.335C445.502 115.924 447.26 115.372 447.26 114.692V57.4643C447.26 56.7837 445.502 56.2319 443.335 56.2319Z" fill="#597EF7"/>
<path d="M411.831 94.6904H264.72V101.207H411.831V94.6904Z" fill="white"/>
<path d="M401.105 71.8809H327.549V78.3978H401.105V71.8809Z" fill="#FAAD14"/>
<path d="M309.16 71.8809H264.72V78.3978H309.16V71.8809Z" fill="white"/>
<path d="M167.131 9.51611H447.958C452.35 9.51611 455.91 13.0024 455.91 17.303V40.5079H159.179V17.303C159.179 13.0024 162.739 9.51611 167.131 9.51611Z" fill="#253368"/>
<path d="M176.471 30.9581C179.606 30.9581 182.147 28.4697 182.147 25.4002C182.147 22.3306 179.606 19.8423 176.471 19.8423C173.337 19.8423 170.795 22.3306 170.795 25.4002C170.795 28.4697 173.337 30.9581 176.471 30.9581Z" fill="#FF7946"/>
<path d="M198.415 30.9581C201.55 30.9581 204.091 28.4697 204.091 25.4002C204.091 22.3306 201.55 19.8423 198.415 19.8423C195.28 19.8423 192.739 22.3306 192.739 25.4002C192.739 28.4697 195.28 30.9581 198.415 30.9581Z" fill="#FAAD14"/>
<path d="M219.067 30.9581C222.202 30.9581 224.743 28.4697 224.743 25.4002C224.743 22.3306 222.202 19.8423 219.067 19.8423C215.933 19.8423 213.392 22.3306 213.392 25.4002C213.392 28.4697 215.933 30.9581 219.067 30.9581Z" fill="#7CB305"/>
<path d="M215.661 132.141H183.876C182.787 132.141 181.905 133.023 181.905 134.111V138.986C181.905 140.074 182.787 140.957 183.876 140.957H215.661C216.749 140.957 217.631 140.074 217.631 138.986V134.111C217.631 133.023 216.749 132.141 215.661 132.141Z" fill="#597EF7"/>
<path d="M215.691 148.921H183.846C182.774 148.921 181.905 149.79 181.905 150.862V155.529C181.905 156.601 182.774 157.47 183.846 157.47H215.691C216.762 157.47 217.631 156.601 217.631 155.529V150.862C217.631 149.79 216.762 148.921 215.691 148.921Z" fill="#ADC6FF"/>
<path d="M215.691 165.701H183.846C182.774 165.701 181.905 166.57 181.905 167.642V172.309C181.905 173.381 182.774 174.25 183.846 174.25H215.691C216.762 174.25 217.631 173.381 217.631 172.309V167.642C217.631 166.57 216.762 165.701 215.691 165.701Z" fill="#FF7946"/>
<path d="M215.691 182.481H183.846C182.774 182.481 181.905 183.35 181.905 184.422V189.089C181.905 190.161 182.774 191.03 183.846 191.03H215.691C216.762 191.03 217.631 190.161 217.631 189.089V184.422C217.631 183.35 216.762 182.481 215.691 182.481Z" fill="#ADC6FF"/>
<path d="M227.91 55.9844H170.31C168.394 55.9844 166.841 57.5378 166.841 59.454V215.153C166.841 217.07 168.394 218.623 170.31 218.623H227.91C229.827 218.623 231.38 217.07 231.38 215.153V59.454C231.38 57.5378 229.827 55.9844 227.91 55.9844Z" fill="white"/>
<path d="M215.661 132.141H183.876C182.787 132.141 181.905 133.023 181.905 134.111V138.986C181.905 140.074 182.787 140.957 183.876 140.957H215.661C216.749 140.957 217.631 140.074 217.631 138.986V134.111C217.631 133.023 216.749 132.141 215.661 132.141Z" fill="#597EF7"/>
<path d="M215.691 148.921H183.846C182.774 148.921 181.905 149.79 181.905 150.862V155.529C181.905 156.601 182.774 157.47 183.846 157.47H215.691C216.762 157.47 217.631 156.601 217.631 155.529V150.862C217.631 149.79 216.762 148.921 215.691 148.921Z" fill="#ADC6FF"/>
<path d="M215.691 165.701H183.846C182.774 165.701 181.905 166.57 181.905 167.642V172.309C181.905 173.381 182.774 174.25 183.846 174.25H215.691C216.762 174.25 217.631 173.381 217.631 172.309V167.642C217.631 166.57 216.762 165.701 215.691 165.701Z" fill="#FF7946"/>
<path d="M215.691 182.481H183.846C182.774 182.481 181.905 183.35 181.905 184.422V189.089C181.905 190.161 182.774 191.03 183.846 191.03H215.691C216.762 191.03 217.631 190.161 217.631 189.089V184.422C217.631 183.35 216.762 182.481 215.691 182.481Z" fill="#ADC6FF"/>
<path d="M199.323 108.976C208.137 108.976 215.282 101.75 215.282 92.8356C215.282 83.9216 208.137 76.6953 199.323 76.6953C190.509 76.6953 183.364 83.9216 183.364 92.8356C183.364 101.75 190.509 108.976 199.323 108.976Z" fill="#FAAD14"/>
<path d="M199.323 108.976C203.923 108.978 208.288 106.923 211.247 103.362C208.915 98.8851 204.324 96.0825 199.32 96.0825C194.317 96.0825 189.725 98.8851 187.394 103.362C190.354 106.924 194.722 108.979 199.323 108.976Z" fill="#253368"/>
<path d="M199.408 96.724C202.723 96.724 205.41 94.0063 205.41 90.6538C205.41 87.3012 202.723 84.5835 199.408 84.5835C196.093 84.5835 193.406 87.3012 193.406 90.6538C193.406 94.0063 196.093 96.724 199.408 96.724Z" fill="#253368"/>
<rect x="238.769" y="136.687" width="127.171" height="82.1851" rx="5" fill="white"/>
<path d="M270.643 142.743H244.959C244.407 142.743 243.959 143.19 243.959 143.743V146.933C243.959 147.486 244.407 147.933 244.959 147.933H270.643C271.195 147.933 271.643 147.486 271.643 146.933V143.743C271.643 143.19 271.195 142.743 270.643 142.743Z" fill="#C7C7C7"/>
<path d="M246.555 175.184H265.154L281.591 166.965L306.247 175.184L328.307 166.965L346.907 175.184L355.558 170.426" stroke="#25ACB3"/>
<path d="M265.154 175.616H246.555V192.919H355.558V170.858L346.474 175.616L328.307 167.398L306.68 175.616L281.591 167.398L265.154 175.616Z" fill="#95FAFF"/>
<path d="M246.555 188.16H265.154L281.591 179.942L306.247 188.16L328.307 179.942L346.907 188.16L355.558 183.402" stroke="#99F910"/>
<path d="M265.154 188.593H246.555V205.895H355.558V183.835L346.474 188.593L328.307 180.374L306.68 188.593L281.437 179.942L265.154 188.593Z" fill="#CDFF84"/>
<path d="M246.555 205.895L263.424 191.621L285.484 203.3L306.247 185.133L326.577 196.812L346.042 185.133L355.125 191.621" stroke="#FF072E"/>
<path d="M263.491 192.054L246.555 206.328V211.519H355.558V192.054L346.042 185.565L326.896 197.244L306.485 185.565L285.64 203.733L263.491 192.054Z" fill="#FFD4DA"/>
<rect x="325.279" y="141.877" width="4.32553" height="1.73021" fill="#25ACB2"/>
<rect x="331.335" y="141.877" width="4.32553" height="1.73021" fill="#99F910"/>
<rect x="337.391" y="141.877" width="4.32553" height="1.73021" fill="#FF072E"/>
<rect x="377.186" y="136.687" width="71.8038" height="82.1851" rx="5" fill="white"/>
<rect x="383.242" y="151.394" width="29.4136" height="4.32553" fill="#4F8A8B"/>
<rect x="383.242" y="155.719" width="34.6042" height="4.32553" fill="#FBD46D"/>
<rect x="383.242" y="167.831" width="40.66" height="4.32553" fill="#4F8A8B"/>
<rect x="383.242" y="172.156" width="42.3902" height="4.32553" fill="#FBD46D"/>
<rect x="383.242" y="184.268" width="52.7715" height="4.32553" fill="#4F8A8B"/>
<rect x="383.242" y="188.593" width="42.3902" height="4.32553" fill="#FBD46D"/>
<rect x="383.242" y="200.705" width="54.5017" height="4.32553" fill="#4F8A8B"/>
<rect x="383.242" y="205.03" width="57.9621" height="4.32553" fill="#FBD46D"/>
<path fill-rule="evenodd" clip-rule="evenodd" d="M538.28 277.624L544.658 291.243C544.658 291.243 593.385 267.899 601.488 255.323C608.682 244.157 591.655 216.826 591.655 216.826C591.655 216.826 574.646 228.668 571.465 236.125L574.26 244.522L538.28 277.624Z" fill="#FFC999"/>
<path fill-rule="evenodd" clip-rule="evenodd" d="M474.381 255.748L487.109 224.675L463.188 210.529C463.188 210.529 438.687 253.302 443.69 262.874C450.002 274.952 464.227 274.988 474.381 255.748Z" fill="#FFC999"/>
<path fill-rule="evenodd" clip-rule="evenodd" d="M579.762 588.815C594.435 595.113 602.044 586.231 602.044 586.231C602.044 586.231 602.483 583.108 599.93 579.599C596.737 575.205 589.571 573.602 581.118 565.18C574.625 558.711 570.379 548.682 570.379 548.682C565.702 541.684 550.597 549.882 550.597 549.882C550.597 549.882 550.248 564.276 550.498 572.515C550.498 572.515 551.012 577.053 562.291 578.749C570.732 580.016 570.974 585.042 579.762 588.815Z" fill="#181818"/>
<path fill-rule="evenodd" clip-rule="evenodd" d="M507.387 545.579C507.387 545.579 507.884 566.579 506.17 572.098C501.284 577.545 497.024 574.976 490.551 580.388C484.076 585.799 470.471 594.751 458.339 585.217C456.894 578.832 460.959 575.992 465.99 572.641C486.731 558.824 483.141 556.279 486.955 548.205C492.808 535.816 507.583 536.85 507.387 545.579Z" fill="#181818"/>
<path fill-rule="evenodd" clip-rule="evenodd" d="M549.224 267.76C549.224 267.76 556.258 233.706 559.354 221.127C562.451 208.549 567.226 178.418 562.035 176.126C556.846 173.835 544.415 168.957 544.415 168.957C544.415 168.957 534.495 168.537 523.314 170.843C514.46 172.668 514.564 167.459 503.835 169.162C499.291 169.882 481.487 175.325 478.024 178.016C474.561 180.706 480.351 269.138 480.351 269.138C480.351 269.138 476.082 273.469 481.185 279.154C483.716 281.817 494.753 280.991 508.871 281.119C524.943 281.262 543.835 283.402 547.362 280.37C553.988 274.672 549.224 267.76 549.224 267.76Z" fill="#1445E7"/>
<path fill-rule="evenodd" clip-rule="evenodd" d="M508.986 163.065L519.185 171.851L507.571 183.683L501.874 169.426L508.986 163.065Z" fill="#1445E7"/>
<path fill-rule="evenodd" clip-rule="evenodd" d="M477.772 248.005C477.772 248.005 494.789 218.869 496.108 201.902C497.403 185.263 482.766 172.792 475.191 180.039C464.154 190.598 452.34 226.029 452.34 226.029C452.34 226.029 464.739 241.948 477.772 248.005Z" fill="#1445E7"/>
<path d="M457.267 229.1C457.089 228.838 456.732 228.769 456.469 228.946C456.207 229.124 456.138 229.481 456.315 229.743C458.042 232.296 459.959 234.662 462.035 236.845C465.332 240.313 468.864 243.165 472.398 245.442C473.636 246.239 474.787 246.909 475.821 247.454C476.039 247.57 476.243 247.674 476.431 247.769L476.966 248.029C477.043 248.065 477.101 248.091 477.14 248.108C477.43 248.236 477.769 248.104 477.896 247.814C478.024 247.524 477.893 247.185 477.603 247.057L477.374 246.951L477.285 246.909C477.071 246.806 476.83 246.686 476.562 246.547L476.357 246.439C475.351 245.908 474.229 245.256 473.02 244.476C469.559 242.247 466.098 239.452 462.867 236.054C460.834 233.915 458.957 231.599 457.267 229.1Z" fill="#253368"/>
<path fill-rule="evenodd" clip-rule="evenodd" d="M598.954 230.559C598.954 230.559 579.235 188.349 568.614 180.089C557.993 171.828 553.255 176.17 548.963 182.054C546.262 185.758 540.046 196.269 553.755 218.441C564.079 235.136 568.407 241.324 569.639 244.109C586.95 242.95 598.954 230.559 598.954 230.559Z" fill="#1445E7"/>
<path fill-rule="evenodd" clip-rule="evenodd" d="M519.046 174.461L508.852 163.211L512.028 129.739L538.799 131.951L539.021 165.945L519.046 174.461Z" fill="#FFC999"/>
<path fill-rule="evenodd" clip-rule="evenodd" d="M505.155 126.418C505.155 126.418 501.139 122.092 499.356 124.914C497.573 127.736 500.393 138.008 504.832 138.362C510.76 138.834 505.155 126.418 505.155 126.418Z" fill="#FFC999"/>
<path fill-rule="evenodd" clip-rule="evenodd" d="M530.492 153.094C530.492 153.094 521.629 160.06 510.222 152.749C502.009 147.486 501.357 129.022 503.236 115.517C504.299 107.875 507.913 103.826 515.428 101.712C522.943 99.5974 543.195 99.9361 542.863 122.48C542.493 147.589 530.492 153.094 530.492 153.094Z" fill="#FFC999"/>
<path d="M516.122 119.343C515.925 119.389 515.794 119.568 515.804 119.763L515.814 119.836L516.902 124.536L514.106 137.242C514.055 137.471 514.206 137.69 514.427 137.734L514.495 137.741L519.895 137.899C520.122 137.905 520.311 137.727 520.318 137.5C520.324 137.296 520.18 137.122 519.985 137.084L519.919 137.077L515.016 136.934L517.725 124.622C517.734 124.582 517.737 124.541 517.733 124.501L517.724 124.441L516.615 119.651C516.569 119.454 516.39 119.324 516.195 119.333L516.122 119.343Z" fill="#DD936F"/>
<path d="M533.833 118.38C530.241 115.599 525.745 115.369 521.937 117.324C521.373 117.613 521.15 118.305 521.44 118.869C521.729 119.433 522.421 119.656 522.986 119.366C526.031 117.803 529.571 117.984 532.427 120.195C532.928 120.584 533.649 120.492 534.037 119.99C534.426 119.489 534.334 118.768 533.833 118.38Z" fill="#5A3825"/>
<path fill-rule="evenodd" clip-rule="evenodd" d="M513.314 139.91C518.994 140.659 524.631 139.499 524.631 139.499C524.631 139.499 523.465 143.563 518.946 143.826C513.933 144.116 513.314 139.91 513.314 139.91Z" fill="white"/>
<path d="M525.183 139.657C525.007 140.272 524.586 141.157 523.832 142.041C522.668 143.408 521.063 144.278 518.979 144.399C516.527 144.541 514.793 143.7 513.71 142.213C513.111 141.39 512.831 140.569 512.746 139.993C512.691 139.616 513.012 139.291 513.389 139.341C516.317 139.727 519.451 139.64 522.446 139.261C522.897 139.204 523.314 139.143 523.692 139.082L524.345 138.97C524.418 138.956 524.475 138.945 524.516 138.937C524.938 138.849 525.302 139.242 525.183 139.657ZM523.596 140.395L523.68 140.247L523.575 140.263C523.267 140.31 522.938 140.356 522.59 140.4L522.01 140.47C519.49 140.756 516.891 140.836 514.387 140.607L514.11 140.578L514.18 140.747C514.302 141.017 514.454 141.284 514.638 141.537C515.494 142.712 516.854 143.372 518.913 143.253C520.669 143.151 521.989 142.435 522.958 141.297C523.205 141.007 523.417 140.704 523.596 140.395Z" fill="#DD936F"/>
<path fill-rule="evenodd" clip-rule="evenodd" d="M540.106 132.09L544.669 123.492C544.669 123.492 547.695 111.025 544.902 105.585C540.566 97.1401 530.267 97.1653 524.2 94.8174C518.132 92.4695 518.23 90.4144 515.744 90.7083C513.26 91.0022 503.534 97.5098 502.32 104.487C501.254 110.621 502.518 126.328 502.518 126.328C502.518 126.328 504.516 112.48 505.926 108.839C510.805 106.911 528.404 107.151 535.703 109.557C535.703 109.557 536.249 114.295 536.552 117.631C540.429 120.52 540.106 132.09 540.106 132.09Z" fill="#5A3825"/>
<path d="M510.073 151.962C509.923 151.792 509.664 151.775 509.493 151.924C509.322 152.074 509.305 152.334 509.455 152.504L509.558 152.615C509.68 152.741 509.859 152.909 510.097 153.109C510.618 153.546 511.247 153.982 511.985 154.388C516.038 156.615 521.443 157.05 528.24 154.589C528.453 154.512 528.563 154.276 528.486 154.062C528.409 153.849 528.173 153.739 527.96 153.816C521.386 156.196 516.227 155.781 512.381 153.667C511.691 153.288 511.107 152.883 510.626 152.479C510.342 152.241 510.158 152.059 510.073 151.962Z" fill="#DD936F"/>
<path d="M516.428 122.58C515.975 122.553 515.585 122.898 515.558 123.351C515.532 123.774 515.831 124.142 516.24 124.211L516.329 124.221L520.298 124.461C520.751 124.489 521.141 124.143 521.168 123.69C521.193 123.267 520.895 122.9 520.486 122.83L520.397 122.82L516.428 122.58Z" fill="#242526"/>
<path d="M519.911 125.305C519.088 124.931 518.246 124.731 517.417 124.811C516.693 124.881 516.033 125.167 515.483 125.69C515.155 126.003 515.142 126.523 515.455 126.852C515.768 127.181 516.288 127.194 516.617 126.881C516.892 126.619 517.206 126.483 517.575 126.447C518.07 126.4 518.647 126.536 519.23 126.802C519.54 126.943 519.776 127.082 519.895 127.165C520.267 127.425 520.78 127.333 521.039 126.961C521.299 126.589 521.207 126.076 520.835 125.816C520.64 125.681 520.322 125.492 519.911 125.305Z" fill="#242526"/>
<path d="M513.705 116.89C511.816 116.146 509.901 115.74 508.067 115.859C506.733 115.945 505.5 116.313 504.409 117.001C503.873 117.339 503.713 118.048 504.051 118.584C504.389 119.121 505.098 119.281 505.634 118.943C506.384 118.47 507.247 118.213 508.215 118.15C509.662 118.056 511.262 118.396 512.864 119.027C513.367 119.225 513.832 119.437 514.245 119.648L514.515 119.79C514.616 119.844 514.69 119.886 514.735 119.914C515.279 120.24 515.984 120.064 516.311 119.521C516.637 118.977 516.461 118.272 515.918 117.945C515.463 117.672 514.695 117.28 513.705 116.89Z" fill="#5A3825"/>
<path d="M516.935 145.617C516.709 145.606 516.516 145.781 516.505 146.008C516.496 146.212 516.636 146.389 516.83 146.43L516.896 146.438L520.133 146.592C520.36 146.603 520.552 146.428 520.563 146.201C520.573 145.997 520.432 145.821 520.238 145.78L520.172 145.771L516.935 145.617Z" fill="#DD936F"/>
<path d="M535.091 124.636C534.637 124.616 534.254 124.969 534.235 125.422C534.217 125.846 534.523 126.208 534.932 126.27L535.022 126.278L541.536 126.551C541.99 126.57 542.373 126.218 542.392 125.765C542.41 125.341 542.104 124.979 541.694 124.917L541.605 124.909L535.091 124.636Z" fill="#242526"/>
<path fill-rule="evenodd" clip-rule="evenodd" d="M534.637 122.999L522.203 122.408C521.335 122.367 520.598 123.035 520.562 123.903C520.498 125.523 520.465 128.125 520.78 130.367C521.152 133.013 523.434 134.731 526.095 134.981C529.416 135.293 532.406 135.438 533.999 133.783C536.427 131.258 536.069 126.896 536.128 124.599C536.15 123.755 535.479 123.04 534.637 122.999Z" fill="white"/>
<path d="M522.216 122.134L534.651 122.726C535.642 122.773 536.428 123.614 536.403 124.606L536.395 125.198L536.394 125.595C536.39 127.394 536.353 128.314 536.181 129.443C535.894 131.334 535.276 132.85 534.197 133.972C532.751 135.475 530.617 135.681 526.07 135.254C523.165 134.98 520.886 133.081 520.51 130.405C520.261 128.638 520.203 126.566 520.271 124.394L520.289 123.892C520.331 122.873 521.196 122.086 522.216 122.134ZM522.19 122.681C521.51 122.649 520.93 123.143 520.846 123.803L520.836 123.914C520.744 126.237 520.789 128.464 521.052 130.329C521.391 132.737 523.455 134.458 526.121 134.708C530.492 135.119 532.522 134.923 533.802 133.593C534.792 132.563 535.368 131.15 535.64 129.36L535.693 128.981C535.798 128.168 535.834 127.395 535.843 126.185L535.855 124.591C535.873 123.899 535.319 123.306 534.624 123.273L522.19 122.681Z" fill="#242526"/>
<path fill-rule="evenodd" clip-rule="evenodd" d="M515.251 121.939L501.173 121.27C500.555 123.303 500.68 131.281 503.014 133.1C506.17 134.95 512.741 134.526 513.839 132.848C515.505 130.301 516.314 125.331 516.388 123.178C516.412 122.521 515.906 121.97 515.251 121.939Z" fill="white"/>
<path d="M501.186 120.996L515.264 121.666C516.069 121.704 516.692 122.382 516.662 123.188C516.556 126.237 515.512 130.791 514.069 132.998C512.818 134.908 506.008 135.172 502.875 133.336C500.761 131.691 500.012 124.146 500.912 121.19C500.948 121.07 501.061 120.99 501.186 120.996ZM501.379 121.553L501.345 121.688C500.652 124.667 501.393 131.489 503.182 132.884C506.063 134.569 512.55 134.317 513.61 132.698C514.989 130.591 516.012 126.127 516.115 123.169C516.133 122.661 515.743 122.237 515.238 122.213L501.379 121.553Z" fill="#242526"/>
<path d="M520.568 121.998C520.114 121.989 519.739 122.349 519.729 122.803C519.72 123.226 520.033 123.582 520.444 123.635L520.533 123.642L535.964 123.97C536.418 123.98 536.794 123.62 536.804 123.166C536.813 122.742 536.499 122.387 536.089 122.333L535.999 122.327L520.568 121.998Z" fill="#242526"/>
<path d="M501.095 120.755C500.642 120.727 500.252 121.072 500.224 121.525C500.198 121.948 500.496 122.316 500.905 122.386L500.994 122.396L516.087 123.326C516.54 123.354 516.93 123.009 516.958 122.556C516.984 122.133 516.685 121.765 516.277 121.695L516.188 121.685L501.095 120.755Z" fill="#242526"/>
<path fill-rule="evenodd" clip-rule="evenodd" d="M542.218 125.111C543.821 123.485 546.293 123.051 548.025 124.955C550.812 128.023 548.118 139.325 540.526 139.74C537.648 139.32 539.713 127.648 542.218 125.111Z" fill="#FFC999"/>
<path fill-rule="evenodd" clip-rule="evenodd" d="M524.705 127.07C524.66 128.48 525.44 129.65 526.448 129.681C527.455 129.713 528.308 128.597 528.353 127.187C528.397 125.776 527.617 124.608 526.61 124.575C525.603 124.543 524.75 125.66 524.705 127.07Z" fill="#242526"/>
<path fill-rule="evenodd" clip-rule="evenodd" d="M507.684 126.529C507.639 127.939 508.42 129.107 509.426 129.14C510.433 129.172 511.286 128.055 511.331 126.645C511.376 125.235 510.595 124.066 509.588 124.034C508.581 124.002 507.728 125.119 507.684 126.529Z" fill="#242526"/>
<path fill-rule="evenodd" clip-rule="evenodd" d="M469.809 254.41C469.809 254.41 464.884 271.996 449.318 268.764C438.689 266.556 428.33 211.124 427.511 204.686C426.925 200.083 440.801 199.326 440.801 199.326L469.809 254.41Z" fill="#FFC999"/>
<path fill-rule="evenodd" clip-rule="evenodd" d="M546.888 553.192L515.239 338.569L513.191 338.112L511.3 552.165C511.3 552.165 493.54 557.305 484.208 551.622C484.115 509.865 471.551 374.288 476.113 312.375C476.848 302.407 480.001 288.872 480.639 285.109C509.13 280.484 547.908 287.289 547.908 287.289L574.153 550.104C574.153 550.104 560.032 557.501 546.888 553.192Z" fill="#709B98"/>
<path d="M498.733 329.717C498.53 329.616 498.283 329.699 498.182 329.903C498.092 330.083 498.148 330.298 498.304 330.415L498.367 330.454L515.468 338.947C515.671 339.048 515.918 338.965 516.019 338.762C516.108 338.581 516.053 338.366 515.896 338.25L515.833 338.211L498.733 329.717Z" fill="#1B1B1B"/>
<path fill-rule="evenodd" clip-rule="evenodd" d="M547.536 280.282C547.536 280.282 511.331 274.689 481.171 279.771C480.906 282.44 480.627 285.726 480.627 285.726C480.627 285.726 505.04 279.898 547.653 288.268C547.583 281.02 547.536 280.282 547.536 280.282Z" fill="#323232"/>
<path d="M535.129 287.807C522.069 286.682 508.72 286.207 496.257 286.753C490.969 286.985 485.979 287.399 481.333 288.012C481.108 288.041 480.95 288.248 480.98 288.473C481.009 288.698 481.216 288.856 481.441 288.827C486.061 288.217 491.028 287.805 496.293 287.574C508.716 287.03 522.031 287.504 535.058 288.626C537.796 288.862 540.338 289.112 542.647 289.365L543.883 289.502C544.408 289.562 544.898 289.619 545.351 289.674L547.157 289.9C547.382 289.93 547.589 289.773 547.62 289.548C547.65 289.323 547.492 289.116 547.268 289.085L546.754 289.019L545.449 288.858C544.994 288.803 544.502 288.746 543.976 288.686L542.736 288.548C540.421 288.295 537.873 288.044 535.129 287.807Z" fill="#1B1B1B"/>
<path d="M535.346 278.595C522.281 277.47 508.927 276.994 496.458 277.54C491.165 277.772 486.168 278.186 481.517 278.8C481.203 278.841 480.982 279.129 481.023 279.444C481.064 279.758 481.353 279.979 481.667 279.938C486.283 279.329 491.247 278.917 496.508 278.687C508.461 278.164 521.243 278.584 533.8 279.617L535.247 279.739C538.232 279.996 540.986 280.271 543.457 280.546L544.83 280.703L546.67 280.925L547.341 281.012C547.655 281.055 547.944 280.834 547.986 280.52C548.029 280.206 547.809 279.917 547.495 279.874L546.636 279.764C546.136 279.702 545.578 279.634 544.963 279.562L544.198 279.474C541.562 279.175 538.591 278.875 535.346 278.595Z" fill="#253368"/>
<path d="M511.219 279.215C511.014 279.215 510.845 279.364 510.813 279.559L510.807 279.626L510.817 282.612C510.828 284.883 510.85 287.402 510.882 290.107C510.976 297.788 511.145 305.46 511.408 312.622L511.488 314.731C511.821 323.056 512.269 330.038 512.848 335.278C512.873 335.504 513.076 335.666 513.302 335.642C513.527 335.617 513.69 335.413 513.665 335.188L513.527 333.882C512.971 328.371 512.543 321.139 512.229 312.591C511.985 305.948 511.822 298.864 511.726 291.741L511.68 287.928C511.666 286.512 511.654 285.155 511.646 283.87L511.63 279.63C511.63 279.399 511.446 279.215 511.219 279.215Z" fill="#1B1B1B"/>
<path fill-rule="evenodd" clip-rule="evenodd" d="M504.165 282.142C504.142 283.164 504.768 284.008 505.564 284.026C506.358 284.043 507.022 283.229 507.046 282.208C507.068 281.185 506.442 280.342 505.647 280.324C504.853 280.305 504.189 281.12 504.165 282.142Z" fill="white"/>
<path d="M453.187 222.443C453.075 222.245 452.824 222.175 452.627 222.287C452.451 222.386 452.376 222.595 452.44 222.779L452.471 222.847L464.64 244.42C464.751 244.618 465.002 244.688 465.2 244.576C465.375 244.477 465.45 244.268 465.386 244.084L465.356 244.016L453.187 222.443Z" fill="#DD936F"/>
<path fill-rule="evenodd" clip-rule="evenodd" d="M519.074 173.209L528.962 186.396L543.976 168.983L538.564 162.125L519.074 173.209Z" fill="#1445E7"/>
<path d="M518.621 173.916C518.338 173.81 518.022 173.953 517.915 174.236L517.802 174.566L517.69 174.919C517.631 175.111 517.567 175.326 517.498 175.566L517.357 176.07C517.071 177.118 516.758 178.397 516.426 179.925L516.256 180.72C515.209 185.707 514.166 192.24 513.19 200.518L513.01 202.08C512.082 210.23 511.265 219.638 510.588 230.392L510.523 231.437C509.413 249.444 509.543 264.889 510.333 276.466C510.353 276.768 510.615 276.996 510.917 276.976C511.219 276.955 511.447 276.693 511.427 276.391L511.349 275.205C510.633 263.813 510.548 248.853 511.618 231.504L511.748 229.426C512.433 218.777 513.256 209.472 514.189 201.421L514.279 200.646C515.278 192.178 516.345 185.55 517.413 180.549L517.498 180.158C517.88 178.397 518.235 176.977 518.552 175.867L518.679 175.436C518.719 175.303 518.757 175.181 518.792 175.068L518.942 174.622C519.048 174.339 518.905 174.022 518.621 173.916Z" fill="#253368"/>
<path d="M477.555 180.649C477.238 180.636 476.97 180.882 476.957 181.199L476.935 181.935C476.862 185.008 476.942 188.528 477.296 191.875C477.516 193.963 477.831 195.819 478.254 197.39L478.347 197.722L478.315 197.781L478.279 197.858C478.186 198.067 478.101 198.37 478.017 198.775C477.853 199.567 477.691 200.761 477.546 202.277L477.479 203.007C477.186 206.377 476.989 210.87 476.937 216.045C476.794 230.162 477.692 247.203 479.841 265.766L479.951 266.71L479.804 267.088L479.757 267.213C479.569 267.717 479.382 268.273 479.207 268.869C478.787 270.297 478.505 271.716 478.425 273.052C478.292 275.28 478.731 277.099 479.914 278.335C480.133 278.565 480.496 278.573 480.725 278.354C480.955 278.134 480.963 277.771 480.744 277.542C479.822 276.578 479.455 275.06 479.571 273.12C479.646 271.881 479.911 270.544 480.309 269.192C480.442 268.738 480.583 268.307 480.726 267.907L480.833 267.613C480.939 267.328 481.021 267.125 481.066 267.019C481.106 266.927 481.121 266.825 481.109 266.725C478.916 248.15 477.976 231.071 478.078 216.888L478.085 216.057C478.137 210.911 478.332 206.447 478.623 203.11L478.689 202.387C478.831 200.909 478.987 199.752 479.141 199.009C479.181 198.819 479.219 198.66 479.255 198.537L479.291 198.423C479.49 198.306 479.62 198.083 479.572 197.826L479.555 197.756C479.053 196.128 478.685 194.096 478.437 191.755C478.115 188.7 478.023 185.486 478.069 182.617L478.099 181.384C478.101 181.329 478.103 181.283 478.104 181.247C478.118 180.93 477.872 180.663 477.555 180.649Z" fill="#253368"/>
<path d="M505.579 190.854L505.697 190.854C506.03 190.852 506.295 191.135 506.271 191.468L504.812 211.912C504.798 212.106 504.687 212.28 504.516 212.374L493.395 218.501C493.205 218.607 492.971 218.595 492.792 218.471L484.271 212.572C484.132 212.475 484.042 212.322 484.027 212.153L483.972 211.453L483.927 210.753C483.907 210.419 483.888 210.055 483.869 209.662L483.854 209.361C483.677 205.488 483.621 200.475 483.761 194.29C483.766 194.068 483.898 193.87 484.099 193.779C486.845 192.542 491.227 191.739 496.654 191.273C498.607 191.105 500.582 190.991 502.501 190.923L503.692 190.886C504.435 190.866 505.072 190.856 505.579 190.854ZM503.689 211.519L505.082 192.006L504.156 192.023C503.67 192.034 503.129 192.049 502.542 192.07C500.641 192.138 498.685 192.25 496.753 192.416L496.273 192.459L495.332 192.549C490.993 192.987 487.434 193.666 485.061 194.618L484.902 194.683L484.883 195.573C484.782 200.951 484.833 205.387 484.984 208.907L485.044 210.167C485.063 210.526 485.083 210.855 485.103 211.155L485.148 211.781L493.153 217.324L503.689 211.519Z" fill="#253368"/>
<path fill-rule="evenodd" clip-rule="evenodd" d="M518.234 183.068C518.21 184.089 518.883 184.935 519.735 184.954C520.587 184.972 521.296 184.16 521.319 183.138C521.342 182.115 520.671 181.271 519.819 181.251C518.967 181.232 518.257 182.045 518.234 183.068Z" fill="white"/>
<path fill-rule="evenodd" clip-rule="evenodd" d="M515.65 201.838C515.626 202.86 516.298 203.705 517.15 203.725C518.002 203.743 518.712 202.93 518.735 201.908C518.758 200.885 518.086 200.041 517.234 200.022C516.382 200.002 515.673 200.816 515.65 201.838Z" fill="white"/>
<path fill-rule="evenodd" clip-rule="evenodd" d="M513.956 222.172C513.933 223.194 514.604 224.039 515.458 224.059C516.309 224.077 517.018 223.264 517.042 222.242C517.065 221.219 516.392 220.375 515.54 220.356C514.689 220.336 513.98 221.149 513.956 222.172Z" fill="white"/>
<path fill-rule="evenodd" clip-rule="evenodd" d="M513.216 241.293C513.193 242.316 513.864 243.16 514.717 243.179C515.569 243.197 516.278 242.385 516.302 241.363C516.324 240.34 515.652 239.496 514.8 239.476C513.948 239.457 513.24 240.271 513.216 241.293Z" fill="white"/>
<path fill-rule="evenodd" clip-rule="evenodd" d="M512.953 266.598C512.93 267.62 513.602 268.465 514.455 268.485C515.307 268.503 516.015 267.69 516.039 266.668C516.061 265.645 515.389 264.802 514.537 264.782C513.685 264.763 512.977 265.575 512.953 266.598Z" fill="white"/>
<path d="M544.138 169.101C543.929 168.922 543.624 168.927 543.422 169.102L543.365 169.16L529.272 185.559L519.365 173.88C519.186 173.67 518.884 173.628 518.657 173.769L518.592 173.817C518.382 173.995 518.339 174.297 518.481 174.524L518.528 174.589L528.851 186.758C529.051 186.994 529.401 187.015 529.627 186.819L529.685 186.761L544.196 169.874C544.394 169.645 544.367 169.299 544.138 169.101Z" fill="#253368"/>
<path d="M502.387 169.562C502.292 169.274 501.982 169.119 501.694 169.214C501.431 169.302 501.278 169.57 501.328 169.835L501.347 169.907L506.645 185.872C506.766 186.236 507.207 186.36 507.498 186.135L507.558 186.082L518.934 174.403C519.145 174.186 519.141 173.839 518.924 173.628C518.728 173.438 518.428 173.422 518.216 173.579L518.148 173.638L507.402 184.67L502.387 169.562Z" fill="#253368"/>
<path d="M502.163 287.078C501.939 287.043 501.729 287.196 501.694 287.421L501.654 287.691C501.623 287.909 501.587 288.165 501.55 288.454L501.458 289.187C501.381 289.818 501.306 290.502 501.234 291.231C500.799 295.658 500.636 300.208 500.904 304.462L500.954 305.188C501.679 314.794 504.561 320.882 510.333 321.706C510.557 321.739 510.765 321.582 510.798 321.358C510.83 321.133 510.674 320.925 510.449 320.893C505.065 320.123 502.334 314.08 501.724 304.41C501.459 300.206 501.621 295.698 502.052 291.311L502.139 290.466C502.198 289.918 502.259 289.4 502.319 288.916L502.419 288.158L502.506 287.547C502.541 287.323 502.388 287.113 502.163 287.078Z" fill="#1B1B1B"/>
<path d="M568.606 183.904C568.447 183.63 568.095 183.538 567.821 183.697L567.715 183.762C567.611 183.826 567.47 183.92 567.294 184.042C566.892 184.324 566.446 184.668 565.967 185.077C564.605 186.242 563.246 187.7 561.979 189.475C557.043 196.388 554.877 205.91 557.017 218.369C557.071 218.682 557.368 218.891 557.68 218.838C557.992 218.784 558.202 218.487 558.149 218.175C556.06 206.017 558.156 196.805 562.913 190.142C564.124 188.446 565.42 187.055 566.713 185.95C567.088 185.629 567.44 185.352 567.762 185.119L567.952 184.983C568.171 184.83 568.324 184.733 568.399 184.689C568.673 184.53 568.766 184.178 568.606 183.904Z" fill="#253368"/>
<path d="M599.353 230.146C599.125 229.926 598.761 229.932 598.541 230.16L598.323 230.378C598.226 230.473 598.106 230.589 597.963 230.725L597.531 231.129C597.155 231.476 596.737 231.849 596.281 232.241C594.452 233.813 592.375 235.385 590.093 236.852C583.502 241.089 576.571 243.602 569.644 243.535C569.327 243.532 569.067 243.786 569.064 244.103C569.061 244.421 569.316 244.68 569.633 244.683C576.815 244.753 583.95 242.166 590.714 237.818C593.043 236.32 595.161 234.716 597.029 233.112L597.571 232.64C597.919 232.332 598.242 232.039 598.537 231.762L598.88 231.437L599.366 230.958C599.586 230.73 599.58 230.367 599.353 230.146Z" fill="#DD936F"/>
<path d="M545.772 126.998C545.689 126.787 545.45 126.684 545.239 126.767L545.093 126.83C545.007 126.87 544.901 126.923 544.78 126.989C544.448 127.169 544.115 127.389 543.803 127.649C542.662 128.602 542.086 129.842 542.427 131.349C542.556 131.921 542.817 132.228 543.303 132.522L543.513 132.642C543.93 132.873 544.034 132.987 544.07 133.344C544.139 134.026 543.827 134.533 543.23 134.92C543.031 135.05 542.814 135.155 542.597 135.236L542.459 135.285C542.399 135.305 542.352 135.318 542.323 135.325C542.102 135.377 541.965 135.599 542.018 135.82C542.07 136.041 542.292 136.177 542.513 136.125C542.814 136.053 543.243 135.892 543.678 135.61C544.511 135.069 544.992 134.287 544.887 133.261C544.823 132.624 544.576 132.314 544.033 131.992L543.831 131.878C543.446 131.662 543.308 131.517 543.228 131.168C542.964 130.001 543.405 129.053 544.33 128.28C544.597 128.057 544.885 127.867 545.173 127.711L545.357 127.616C545.438 127.576 545.501 127.548 545.542 127.531C545.753 127.448 545.856 127.209 545.772 126.998Z" fill="#DD936F"/>
<path d="M494.541 336.698C494.314 336.682 494.118 336.853 494.102 337.079C494.088 337.283 494.224 337.463 494.417 337.508L494.483 337.518L508.044 338.471C508.27 338.487 508.466 338.316 508.482 338.09C508.497 337.886 508.36 337.707 508.167 337.661L508.101 337.651L494.541 336.698Z" fill="#1B1B1B"/>
<path fill-rule="evenodd" clip-rule="evenodd" d="M443.047 204.078L435.069 173.805C435.069 173.805 421.552 149.116 416.484 150.527C411.766 152.493 422.221 159.679 424.196 166.621C419.746 166.222 421.649 172.887 421.649 172.887C421.649 172.887 418.104 172.694 418.961 178.112C415.632 180.002 418.159 186.246 418.159 186.246C418.159 186.246 424.483 202.694 431.617 213.716C431.617 213.716 443.612 223.33 443.047 204.078Z" fill="#FFC999"/>
<path fill-rule="evenodd" clip-rule="evenodd" d="M441.338 193.867C441.338 193.867 440.253 183.514 439.398 178.235C438.541 172.957 440.935 163.494 437.053 165.942C434.443 167.59 434.789 173.25 434.806 177.42C434.824 181.591 427.913 191.35 432.806 198.28C436.113 202.962 441.448 203.667 441.338 193.867Z" fill="#FFC999"/>
<path d="M423.919 166.318C423.751 166.471 423.74 166.731 423.893 166.898L424.135 167.168L424.607 167.715C424.663 167.781 424.721 167.849 424.779 167.919C425.446 168.714 426.113 169.565 426.735 170.434C427.349 171.293 427.885 172.124 428.321 172.909C429.862 175.682 429.976 177.484 428.403 178.107C428.192 178.19 428.089 178.429 428.173 178.64C428.256 178.851 428.495 178.954 428.706 178.871C430.94 177.986 430.793 175.665 429.04 172.51C428.587 171.695 428.034 170.838 427.403 169.956C426.768 169.068 426.089 168.201 425.409 167.39L425.066 166.986L424.499 166.343C424.346 166.175 424.086 166.164 423.919 166.318Z" fill="#DD936F"/>
<path d="M421.747 172.838C421.606 173.015 421.635 173.274 421.813 173.415L422.069 173.625L422.395 173.899C422.509 173.996 422.629 174.099 422.753 174.207C423.461 174.826 424.169 175.489 424.828 176.168C425.518 176.877 426.114 177.564 426.588 178.211C427.932 180.042 428.145 181.283 427.11 181.892C426.72 182.122 426.289 182.18 425.807 182.08C425.032 181.921 424.164 181.367 423.279 180.54C422.895 180.181 422.533 179.794 422.207 179.408L421.929 179.069C421.874 178.999 421.831 178.942 421.8 178.9C421.665 178.717 421.408 178.677 421.225 178.812C421.042 178.946 421.002 179.203 421.137 179.386L421.344 179.654C421.411 179.738 421.49 179.833 421.579 179.939C421.925 180.348 422.308 180.758 422.718 181.141C423.703 182.062 424.686 182.689 425.641 182.886C426.315 183.024 426.953 182.939 427.528 182.601C429.146 181.648 428.846 179.897 427.251 177.724C426.752 177.044 426.132 176.33 425.418 175.595C424.741 174.898 424.017 174.221 423.294 173.588C423.04 173.367 422.805 173.167 422.593 172.992L422.325 172.772C422.147 172.631 421.888 172.66 421.747 172.838Z" fill="#DD936F"/>
<path d="M420.214 178.122C419.99 178.082 419.777 178.231 419.737 178.455C419.698 178.679 419.847 178.892 420.071 178.931C420.817 179.063 421.739 179.74 422.824 181.066C425.112 183.858 425.576 185.68 424.789 186.121C424.008 186.559 422.284 185.735 421.204 184.129C420.919 183.706 420.271 184.078 420.493 184.538C421.888 187.419 423.562 189.356 425.717 190.872C426.15 191.177 426.6 191.463 427.105 191.761L427.415 191.942C427.613 192.055 427.815 192.169 428.054 192.3L429.039 192.84C432.471 194.732 433.808 196.242 434.495 200.015C434.535 200.238 434.749 200.386 434.973 200.346C435.196 200.305 435.344 200.091 435.303 199.868C434.598 195.996 433.197 194.276 429.908 192.386L428.123 191.398C428.019 191.34 427.921 191.284 427.824 191.229C427.21 190.876 426.687 190.549 426.19 190.199C424.828 189.242 423.671 188.109 422.657 186.645L422.584 186.536L422.645 186.572C423.522 187.054 424.413 187.2 425.077 186.896L425.191 186.838C426.631 186.03 426.035 183.687 423.46 180.545C422.262 179.082 421.19 178.294 420.214 178.122Z" fill="#DD936F"/>
<path d="M434.826 171.799C434.622 171.778 434.439 171.909 434.387 172.1L434.375 172.166L433.583 179.998L433.514 180.112C433.419 180.271 433.314 180.454 433.201 180.66C432.878 181.247 432.556 181.9 432.256 182.604C431.389 184.632 430.869 186.665 430.873 188.579C430.876 189.994 431.17 191.29 431.796 192.434C431.905 192.633 432.154 192.706 432.353 192.597C432.553 192.488 432.626 192.238 432.517 192.039C431.961 191.024 431.698 189.862 431.695 188.577C431.692 186.792 432.185 184.861 433.012 182.927C433.301 182.249 433.611 181.62 433.921 181.056L434.165 180.626C434.234 180.509 434.289 180.418 434.329 180.356C434.352 180.32 434.369 180.28 434.38 180.239L434.392 180.175L435.193 172.249C435.216 172.023 435.051 171.821 434.826 171.799Z" fill="#DD936F"/>
</svg>
