<svg width="867" height="896" viewBox="0 0 867 896" fill="none" xmlns="http://www.w3.org/2000/svg">
<ellipse cx="454.5" cy="851.31" rx="412.5" ry="43.9586" fill="#E2E2E2"/>
<path fill-rule="evenodd" clip-rule="evenodd" d="M569.345 672.388C567.126 633.078 564.433 592.466 561.551 560.207C561.551 560.207 555.505 537.104 534.397 542.555C513.707 547.897 515.544 574.359 515.544 574.359L531.848 677.808C531.848 677.808 534.692 694.626 553.39 691.588C570.443 688.816 569.345 672.388 569.345 672.388Z" fill="#B4C9FF"/>
<path fill-rule="evenodd" clip-rule="evenodd" d="M562.286 770.837C554.788 770.148 548.606 776.629 549.665 784.085C550.884 792.663 552.47 804.257 554.009 816.768C555.593 829.642 556.93 840.31 557.998 841.568C562.703 847.114 571.067 848.471 580.05 853.505C587.156 857.489 588.534 859.596 597.124 860.273C609.301 861.235 603.195 856.765 588.232 842.165C574.902 829.158 574.98 822.381 574.98 822.381L572.874 781.851C572.573 776.059 568.063 771.367 562.286 770.837Z" fill="#F1C27D"/>
<path fill-rule="evenodd" clip-rule="evenodd" d="M586.629 838.505C596.275 847.169 606.968 853.69 607.213 858.267C607.46 862.845 604.31 867.34 588.899 863.655C578.353 861.134 581.028 858.644 570.657 853.369C565.477 850.734 563.747 851.262 558.891 848.072C555.98 845.054 555.425 828.946 555.425 828.946L574.41 845.755C574.41 845.755 569.064 837.551 572.494 835.284C575.925 833.016 579.132 831.38 581.439 832.692C583.745 834.006 586.629 838.505 586.629 838.505Z" fill="#38394D"/>
<path fill-rule="evenodd" clip-rule="evenodd" d="M569.598 675.85C573.045 743.925 576.233 815.126 576.233 815.126L551.642 815.142L531.533 680.488C531.533 680.488 531.115 659.99 549.978 658.268C567 656.714 569.598 675.85 569.598 675.85Z" fill="#B4C9FF"/>
<path fill-rule="evenodd" clip-rule="evenodd" d="M466.18 676.465C467.483 637.115 469.229 596.45 471.36 564.134C471.36 564.134 476.867 540.896 498.097 545.853C518.906 550.712 517.684 577.211 517.684 577.211L503.793 681.01C503.793 681.01 501.342 697.89 482.578 695.288C465.464 692.915 466.18 676.465 466.18 676.465Z" fill="#B4C9FF"/>
<path fill-rule="evenodd" clip-rule="evenodd" d="M475.528 774.724C483.009 773.862 489.338 780.197 488.454 787.674C487.435 796.278 486.12 807.908 484.873 820.45C483.588 833.358 482.499 844.052 481.46 845.336C476.886 850.991 468.557 852.543 459.696 857.783C452.681 861.931 451.352 864.07 442.78 864.947C430.631 866.191 436.63 861.582 451.25 846.637C464.275 833.323 464.036 826.55 464.036 826.55L465.2 785.982C465.366 780.184 469.766 775.388 475.528 774.724Z" fill="#F1C27D"/>
<path fill-rule="evenodd" clip-rule="evenodd" d="M452.766 842.94C443.324 851.825 432.786 858.593 432.648 863.175C432.508 867.758 435.76 872.177 451.083 868.135C461.567 865.37 458.833 862.942 469.08 857.427C474.196 854.672 475.938 855.161 480.719 851.858C483.559 848.772 483.74 832.656 483.74 832.656L465.15 849.902C465.15 849.902 470.303 841.577 466.821 839.391C463.339 837.204 460.095 835.64 457.819 837.008C455.546 838.372 452.766 842.94 452.766 842.94Z" fill="#38394D"/>
<path fill-rule="evenodd" clip-rule="evenodd" d="M466.006 679.932C464.147 748.069 462.615 819.326 462.615 819.326L487.198 818.769L504.168 683.683C504.168 683.683 504.111 663.181 485.211 661.898C468.157 660.741 466.006 679.932 466.006 679.932Z" fill="#B4C9FF"/>
<path fill-rule="evenodd" clip-rule="evenodd" d="M533.226 386.921L532.155 364.45L502.349 364.468L501.62 387.079C501.294 395.83 508.249 403.127 517.006 403.222C517.173 403.224 517.34 403.227 517.507 403.228C526.462 403.33 533.653 395.866 533.226 386.921Z" fill="#F1C27D"/>
<path fill-rule="evenodd" clip-rule="evenodd" d="M538.472 392.464L536.569 386.979L499.587 387.988L498.101 393.181C498.101 393.181 476.669 388.504 466.138 405.052C459.522 415.451 474.986 477.944 475.246 491.896C468.953 508.561 478.098 513.642 478.098 513.642L553.104 512.742C553.104 512.742 561.691 507.054 554.341 495.603C557.352 475.117 572.763 420.21 567.79 410.101C557.906 390.008 538.472 392.464 538.472 392.464Z" fill="#E13D3E"/>
<path d="M535.607 393.182C535.917 393.153 536.192 393.381 536.222 393.691C536.251 394.001 536.023 394.276 535.713 394.306C533.243 394.54 530.6 394.738 527.808 394.901C519.286 395.399 510.362 395.542 502.552 395.48L499.656 395.445C499.345 395.439 499.097 395.182 499.103 394.87C499.11 394.559 499.367 394.311 499.679 394.317L501.273 394.34C509.357 394.429 518.777 394.299 527.742 393.775C530.521 393.612 533.151 393.416 535.607 393.182Z" fill="#A8191A"/>
<path fill-rule="evenodd" clip-rule="evenodd" d="M562.151 566.185C559.75 540.77 556.018 528.92 553.169 524.145C491.915 525.896 476.657 525.091 476.657 525.091C476.657 525.091 471.414 539.923 470.659 569.758C470.659 569.758 492.068 596.118 516.405 596.118C538.346 596.118 562.151 566.185 562.151 566.185Z" fill="#B4C9FF"/>
<path fill-rule="evenodd" clip-rule="evenodd" d="M553.169 524.145L552.009 512.618L477.005 513.518L476.656 525.063C476.656 525.063 516.352 526.591 553.169 524.145Z" fill="#B4C9FF"/>
<path d="M509.923 525.865C510.241 525.872 510.494 526.135 510.488 526.454L510.435 529.635C510.426 530.275 510.417 530.954 510.409 531.67C510.279 542.433 510.291 554.009 510.543 564.872L510.582 566.451C510.896 578.72 511.503 588.499 512.457 594.903C512.504 595.218 512.286 595.512 511.971 595.559C511.656 595.605 511.362 595.388 511.315 595.073L511.195 594.23C510.263 587.485 509.68 577.42 509.39 564.899C509.158 554.926 509.128 544.358 509.225 534.366L509.295 528.686L509.334 526.43C509.341 526.112 509.604 525.859 509.923 525.865Z" fill="#4776EE"/>
<path d="M520.63 526.111C520.948 526.112 521.205 526.371 521.204 526.69L521.205 530.336C521.21 532.064 521.223 534.028 521.245 536.17C521.296 541.123 521.391 546.022 521.537 550.658L521.588 552.193C521.839 559.477 522.208 565.52 522.71 569.901L522.763 570.348L522.765 570.462C522.434 574.676 520.075 577.248 516.413 578.459C514.399 579.125 512.304 579.295 510.512 579.193L510.234 579.174C510.212 579.172 510.193 579.17 510.177 579.169C509.86 579.136 509.63 578.853 509.662 578.536C509.695 578.219 509.978 577.988 510.295 578.021L510.577 578.041C512.237 578.136 514.197 577.976 516.051 577.363C519.205 576.32 521.203 574.212 521.585 570.695L521.609 570.426L521.564 570.035C521.127 566.225 520.792 561.189 520.546 555.187L520.435 552.233C520.276 547.649 520.171 542.779 520.11 537.833L520.074 534.301C520.06 532.675 520.053 531.173 520.049 529.827L520.05 526.685C520.051 526.366 520.311 526.109 520.63 526.111Z" fill="#4776EE"/>
<path d="M546.466 526.353C546.784 526.348 547.047 526.602 547.052 526.921L547.071 527.468C547.076 527.568 547.082 527.679 547.089 527.799C547.128 528.507 547.192 529.296 547.286 530.146C547.554 532.574 548.005 535.001 548.68 537.26C550.228 542.436 552.701 545.919 556.245 546.992C556.55 547.085 556.722 547.407 556.63 547.712C556.537 548.017 556.215 548.189 555.91 548.097C551.91 546.885 549.222 543.1 547.575 537.59C546.877 535.258 546.414 532.765 546.139 530.273C546.062 529.576 546.005 528.918 545.964 528.31L545.912 527.37C545.904 527.182 545.9 527.037 545.898 526.939C545.893 526.621 546.147 526.358 546.466 526.353Z" fill="#4776EE"/>
<path d="M483.364 527.688C483.651 527.686 483.891 527.893 483.937 528.167L483.946 528.279L483.942 528.875C483.93 529.608 483.892 530.575 483.814 531.71C483.651 534.088 483.351 536.457 482.882 538.674C481.652 544.489 479.479 548.336 476.025 549.232C475.716 549.312 475.401 549.127 475.321 548.818C475.241 548.51 475.427 548.195 475.735 548.115C478.624 547.366 480.606 543.857 481.753 538.435C482.21 536.276 482.503 533.959 482.663 531.631L482.704 530.984C482.759 530.046 482.784 529.253 482.79 528.654L482.792 528.269C482.789 527.95 483.046 527.69 483.364 527.688Z" fill="#4776EE"/>
<path d="M496.546 590.494C496.689 590.209 497.035 590.094 497.32 590.236L497.786 590.461L498.274 590.688C498.532 590.806 498.81 590.931 499.107 591.061C500.524 591.683 502.08 592.305 503.725 592.886C506.885 594.001 509.985 594.826 512.88 595.24C515.474 595.61 517.813 595.635 519.832 595.268C520.145 595.211 520.446 595.419 520.503 595.733C520.56 596.046 520.352 596.346 520.038 596.403C517.884 596.795 515.425 596.769 512.717 596.382C509.738 595.956 506.567 595.113 503.341 593.974C501.906 593.468 500.539 592.93 499.27 592.389L498.643 592.117C498.34 591.984 498.056 591.857 497.793 591.736L497.044 591.386C496.937 591.334 496.857 591.295 496.804 591.269C496.519 591.126 496.404 590.779 496.546 590.494Z" fill="#4776EE"/>
<path fill-rule="evenodd" clip-rule="evenodd" d="M544.43 343.453C544.43 343.453 552.042 334.79 556.46 342.984C560.659 350.768 552.013 361.395 544.684 359.26C541.481 351.967 544.43 343.453 544.43 343.453Z" fill="#F1C27D"/>
<path fill-rule="evenodd" clip-rule="evenodd" d="M491.375 343.453C491.375 343.453 483.764 334.79 479.345 342.984C475.147 350.768 483.792 361.395 491.121 359.26C494.324 351.967 491.375 343.453 491.375 343.453Z" fill="#F1C27D"/>
<path fill-rule="evenodd" clip-rule="evenodd" d="M547.552 345.29C547.552 372.207 534.181 379.321 517.689 379.321C501.198 379.321 488.958 372.488 487.828 345.29C486.789 320.27 501.198 311.869 517.689 311.869C534.181 311.869 547.552 321.66 547.552 345.29Z" fill="#F1C27D"/>
<path fill-rule="evenodd" clip-rule="evenodd" d="M520.076 348.255C520.141 353.69 524.6 358.044 530.035 357.979C535.471 357.913 539.826 353.454 539.76 348.019C539.695 342.583 535.235 338.229 529.801 338.294C524.365 338.36 520.01 342.819 520.076 348.255Z" fill="white"/>
<path d="M529.792 337.601C523.973 337.671 519.312 342.445 519.383 348.263C519.452 354.081 524.225 358.742 530.043 358.672C535.863 358.602 540.524 353.828 540.453 348.01C540.384 342.192 535.61 337.531 529.792 337.601ZM529.809 338.988C534.86 338.927 539.006 342.975 539.066 348.027C539.128 353.079 535.08 357.224 530.027 357.286C524.974 357.346 520.83 353.299 520.77 348.246C520.709 343.283 524.615 339.195 529.544 338.995L529.809 338.988Z" fill="#831D3C"/>
<path d="M527.512 348.73C527.47 349.069 527.183 349.334 526.832 349.338C526.481 349.342 526.188 349.085 526.138 348.747L526.13 348.653C526.127 348.084 526.232 347.316 526.559 346.536C527.135 345.162 528.235 344.291 529.895 344.271C531.542 344.251 532.704 345.032 533.401 346.301C533.799 347.027 533.972 347.74 534.017 348.244C534.051 348.626 533.769 348.963 533.387 348.997C533.006 349.031 532.669 348.749 532.635 348.367L532.619 348.246C532.606 348.168 532.586 348.067 532.557 347.947C532.476 347.611 532.354 347.276 532.185 346.969C531.72 346.122 531.009 345.645 529.912 345.658C528.851 345.671 528.214 346.175 527.838 347.072C527.699 347.405 527.608 347.769 527.558 348.135C527.539 348.271 527.528 348.389 527.522 348.483L527.512 348.73Z" fill="#372F31"/>
<path d="M498.125 335.224C501.166 333.298 505.691 333.298 511.859 336.381C512.201 336.553 512.34 336.969 512.169 337.312C511.998 337.654 511.581 337.793 511.239 337.622C505.484 334.745 501.474 334.745 498.867 336.395C498.502 336.627 498.202 336.873 497.963 337.115L497.828 337.26C497.791 337.302 497.763 337.336 497.743 337.362L497.72 337.393C497.503 337.709 497.072 337.79 496.756 337.574C496.439 337.358 496.359 336.926 496.575 336.61C496.829 336.239 497.334 335.725 498.125 335.224Z" fill="#372F31"/>
<path d="M531.134 333.705C533.042 333.603 534.742 333.909 536.17 334.702C536.505 334.888 536.625 335.31 536.439 335.645C536.253 335.98 535.831 336.1 535.496 335.914C534.32 335.261 532.874 335.001 531.208 335.09C529.487 335.182 527.624 335.637 525.745 336.34C525.147 336.564 524.582 336.8 524.058 337.039L523.673 337.218C523.299 337.396 523.033 337.534 522.896 337.609C522.561 337.794 522.139 337.672 521.954 337.337C521.769 337.001 521.891 336.58 522.226 336.395L522.502 336.249C522.655 336.17 522.848 336.075 523.076 335.966C523.739 335.65 524.472 335.335 525.259 335.041C527.26 334.292 529.253 333.805 531.134 333.705Z" fill="#372F31"/>
<path d="M513.552 339.605C513.829 339.463 514.169 339.574 514.31 339.852L514.436 340.112C514.487 340.223 514.547 340.357 514.615 340.514C514.839 341.031 515.062 341.609 515.27 342.236C515.953 344.291 516.322 346.369 516.206 348.33C516.136 349.525 515.918 350.615 515.517 352.016L514.929 354.018C514.525 355.442 514.521 355.723 514.664 356.246C514.886 357.059 515.872 357.58 518.176 357.831C518.485 357.865 518.709 358.143 518.675 358.453C518.642 358.762 518.363 358.986 518.053 358.952C515.339 358.657 513.952 357.924 513.575 356.543L513.508 356.281C513.341 355.565 513.422 355.125 514.065 352.949L514.31 352.124C514.769 350.586 515.008 349.474 515.08 348.264C515.186 346.465 514.841 344.522 514.2 342.592C514.042 342.117 513.875 341.671 513.706 341.262L513.579 340.961C513.454 340.671 513.357 340.467 513.305 340.363C513.163 340.085 513.274 339.746 513.552 339.605Z" fill="#AB8855"/>
<path d="M524.297 360.338C524.614 360.256 524.937 360.446 525.019 360.763C525.102 361.08 524.911 361.403 524.594 361.485C520.269 362.607 515.783 362.607 511.639 361.936C511.155 361.858 510.71 361.775 510.309 361.691L509.757 361.568C509.603 361.532 509.489 361.503 509.416 361.483C509.1 361.397 508.914 361.072 509 360.756C509.086 360.44 509.412 360.254 509.728 360.34L510.273 360.47C510.725 360.571 511.247 360.672 511.829 360.766C515.823 361.413 520.152 361.413 524.297 360.338Z" fill="#AB8855"/>
<path fill-rule="evenodd" clip-rule="evenodd" d="M495.225 348.255C495.29 353.69 499.751 358.044 505.186 357.979C510.621 357.913 514.975 353.454 514.91 348.019C514.844 342.583 510.385 338.229 504.95 338.294C499.514 338.36 495.161 342.819 495.225 348.255Z" fill="white"/>
<path d="M504.942 337.601C499.123 337.671 494.463 342.445 494.532 348.263C494.601 354.081 499.376 358.742 505.194 358.672C511.013 358.602 515.673 353.828 515.604 348.01C515.533 342.192 510.76 337.531 504.942 337.601ZM504.958 338.988C510.01 338.927 514.155 342.974 514.217 348.027C514.277 353.079 510.23 357.224 505.178 357.286C500.125 357.346 495.979 353.298 495.919 348.246C495.86 343.283 499.765 339.195 504.693 338.995L504.958 338.988Z" fill="#831D3C"/>
<path d="M502.663 348.73C502.621 349.069 502.334 349.334 501.983 349.338C501.632 349.342 501.339 349.085 501.289 348.747L501.281 348.653C501.278 348.084 501.383 347.316 501.709 346.536C502.285 345.162 503.385 344.291 505.044 344.271C506.691 344.251 507.853 345.032 508.55 346.301C508.948 347.027 509.121 347.74 509.166 348.244C509.2 348.626 508.918 348.963 508.537 348.997C508.155 349.031 507.818 348.749 507.785 348.367L507.768 348.246C507.756 348.168 507.736 348.067 507.707 347.947C507.625 347.611 507.503 347.276 507.334 346.969C506.87 346.122 506.159 345.645 505.061 345.658C504.001 345.671 503.365 346.175 502.989 347.072C502.85 347.405 502.759 347.769 502.708 348.135L502.681 348.381C502.674 348.454 502.671 348.517 502.669 348.569L502.668 348.638L502.663 348.73Z" fill="#372F31"/>
<path d="M515.485 344.036C516.906 343.582 518.415 343.522 519.851 344.127C519.979 344.181 520.106 344.241 520.231 344.305L520.418 344.406L519.735 345.613C519.596 345.535 519.455 345.466 519.312 345.405C518.226 344.948 517.042 344.995 515.908 345.357C515.637 345.444 515.429 345.529 515.3 345.59L515.233 345.624L514.587 344.396C514.77 344.3 515.077 344.167 515.485 344.036Z" fill="#831D3C"/>
<path d="M532.37 376.251C532.658 376.134 532.988 376.272 533.106 376.56C533.223 376.849 533.085 377.178 532.797 377.296C522.922 381.329 512.813 380.725 503.902 377.659C503.608 377.558 503.451 377.237 503.552 376.942C503.654 376.648 503.975 376.491 504.269 376.592C512.945 379.577 522.788 380.165 532.37 376.251Z" fill="#AB8855"/>
<path d="M519.597 365.876C519.909 365.876 520.161 366.129 520.161 366.44C520.161 366.721 519.957 366.953 519.689 366.997L519.597 367.004H515.149C514.837 367.004 514.584 366.752 514.584 366.44C514.584 366.16 514.789 365.927 515.057 365.883L515.149 365.876H519.597Z" fill="#AB8855"/>
<path d="M517.055 372.018C517.336 372.018 517.568 372.222 517.612 372.49L517.62 372.582V378.724C517.62 379.036 517.367 379.289 517.055 379.289C516.775 379.289 516.542 379.084 516.499 378.816L516.491 378.724V372.582C516.491 372.27 516.744 372.018 517.055 372.018Z" fill="#AB8855"/>
<path d="M519.521 373.718C519.799 373.68 520.057 373.851 520.136 374.111L520.156 374.2L520.791 378.86C520.833 379.168 520.617 379.453 520.308 379.495C520.03 379.533 519.772 379.361 519.692 379.102L519.673 379.012L519.038 374.353C518.996 374.044 519.212 373.76 519.521 373.718Z" fill="#AB8855"/>
<path d="M513.66 375.194L513.752 375.201C514.029 375.243 514.228 375.481 514.23 375.752L514.224 375.844L513.801 378.597C513.754 378.905 513.466 379.116 513.158 379.069C512.881 379.026 512.682 378.789 512.679 378.517L512.686 378.426L513.109 375.673C513.151 375.395 513.389 375.197 513.66 375.194Z" fill="#AB8855"/>
<path d="M521.78 374.79C522.051 374.718 522.329 374.855 522.44 375.103L522.471 375.19L523.318 378.367C523.398 378.668 523.219 378.977 522.918 379.057C522.647 379.13 522.369 378.992 522.258 378.744L522.227 378.658L521.381 375.48C521.3 375.179 521.479 374.87 521.78 374.79Z" fill="#AB8855"/>
<path d="M480.721 345.368C481.967 343.891 483.615 343.891 485.168 346.305C485.804 347.758 485.747 348.726 485.194 350.079L484.881 350.814C484.549 351.644 484.57 352.171 485.12 352.996C485.283 353.241 485.471 353.437 485.678 353.593C486.055 353.875 486.43 353.99 486.681 354.012L486.769 354.016C487.081 354.016 487.333 354.269 487.333 354.58C487.333 354.892 487.081 355.144 486.769 355.144C486.3 355.144 485.65 354.982 485.002 354.496C484.692 354.264 484.416 353.974 484.182 353.622C483.454 352.531 483.378 351.656 483.757 350.595L483.887 350.263C483.91 350.208 483.95 350.116 484.057 349.871C484.59 348.649 484.661 347.961 484.177 346.838C483.1 345.172 482.363 345.172 481.584 346.095C481.367 346.352 481.212 346.613 481.137 346.772C481.004 347.054 480.668 347.175 480.386 347.042C480.105 346.909 479.984 346.573 480.116 346.291C480.23 346.051 480.432 345.711 480.721 345.368Z" fill="#AB8855"/>
<path d="M549.641 346.225C551.152 343.891 552.8 343.891 554.045 345.368C554.334 345.711 554.536 346.051 554.65 346.291C554.782 346.573 554.661 346.909 554.379 347.042C554.097 347.175 553.761 347.054 553.629 346.772C553.554 346.612 553.399 346.352 553.182 346.095C552.404 345.172 551.667 345.172 550.632 346.758C550.138 347.886 550.17 348.561 550.615 349.647L550.933 350.394C551.395 351.547 551.357 352.463 550.585 353.621C550.35 353.974 550.073 354.265 549.763 354.497C549.116 354.982 548.466 355.144 547.998 355.144C547.687 355.144 547.434 354.891 547.434 354.58C547.434 354.3 547.639 354.067 547.907 354.023L547.998 354.016C548.244 354.016 548.664 353.911 549.087 353.594C549.295 353.438 549.482 353.241 549.646 352.996C550.159 352.225 550.212 351.715 549.947 350.976L549.786 350.577C549.761 350.519 549.726 350.439 549.675 350.321C549.029 348.838 548.925 347.843 549.641 346.225Z" fill="#AB8855"/>
<path fill-rule="evenodd" clip-rule="evenodd" d="M486.699 349.709C486.699 349.709 482.181 344.908 484.439 338.978C480.486 331.918 483.028 325.141 486.699 322.6C485.569 316.388 489.804 305.375 498.559 304.245C503.713 306.292 509.854 306.504 509.854 306.504C509.854 306.504 524.537 298.033 534.704 308.198C545.152 307.069 550.518 318.929 549.669 323.164C555.317 330.224 550.799 340.955 550.799 340.955C550.799 340.955 550.169 345.105 548.258 350.839C546.281 356.769 545.434 349.145 545.434 347.451C545.434 345.755 541.2 344.344 542.611 336.72C537.81 333.331 538.869 328.107 538.869 328.107C538.869 328.107 535.409 331.637 525.527 326.836C518.467 332.767 507.736 326.836 507.736 326.836C507.736 326.836 499.053 331 493.969 327.895C493.969 327.895 495.38 332.13 491.43 338.06C492.841 343.708 488.674 346.321 489.804 349.709C490.934 353.097 487.828 356.486 486.699 349.709Z" fill="#372F31"/>
<path fill-rule="evenodd" clip-rule="evenodd" d="M470.949 442.115C470.949 442.115 484.093 458.568 498.962 446.273C514.125 433.735 500.175 417.605 500.175 417.605C500.175 417.605 491.18 405.988 479.843 392.279C470.985 381.566 464.229 373.312 457.909 366.996C451.087 360.183 440.422 358.922 433.458 364.679C422.874 373.432 423.812 383.465 429.583 391.126C435.195 398.579 443.078 408.4 449.444 416.475C461.69 432.002 470.949 442.115 470.949 442.115Z" fill="#E13D3E"/>
<path fill-rule="evenodd" clip-rule="evenodd" d="M396.488 286.423C396.488 286.423 400.348 304.323 408.725 306.3C416.31 308.09 419.902 298.721 419.902 298.721C419.902 298.721 421.881 291.077 421.769 282.269C421.697 276.498 423.195 265.506 420.23 264.749C416.367 263.762 416.668 275.251 414.013 276.424C408.634 278.8 406.256 260.774 404.3 258.059C400.481 252.75 391.692 264.985 396.488 286.423Z" fill="#F1C27D"/>
<path d="M401.36 258.425C401.671 258.435 401.915 258.696 401.905 259.007C401.779 262.816 402.508 266.838 403.803 270.794C404.223 272.074 404.671 273.253 405.12 274.303L405.346 274.82L405.691 275.563C405.699 275.579 405.706 275.592 405.711 275.603C405.852 275.881 405.74 276.221 405.461 276.361C405.183 276.501 404.844 276.389 404.704 276.111L404.53 275.749L404.316 275.281C404.241 275.114 404.163 274.935 404.082 274.746C403.621 273.667 403.161 272.458 402.731 271.145C401.398 267.074 400.646 262.928 400.777 258.97C400.788 258.658 401.049 258.414 401.36 258.425Z" fill="#AB8855"/>
<path d="M397.937 261.392C398.247 261.416 398.479 261.687 398.455 261.998L398.443 262.234C398.39 263.557 398.47 265.418 398.791 267.726C399.273 271.198 400.212 274.933 401.714 278.84C401.826 279.131 401.681 279.457 401.39 279.569C401.099 279.681 400.773 279.536 400.661 279.245C399.127 275.255 398.167 271.437 397.673 267.881C397.365 265.663 397.272 263.835 397.307 262.473L397.324 262.018C397.326 261.972 397.329 261.936 397.331 261.911C397.355 261.6 397.626 261.368 397.937 261.392Z" fill="#AB8855"/>
<path d="M395.5 269.827C395.81 269.792 396.089 270.014 396.125 270.324C396.418 272.89 396.817 275.215 397.295 277.301C397.667 278.924 398.065 280.309 398.462 281.457L398.622 281.908C398.674 282.049 398.723 282.181 398.771 282.303L398.961 282.766C398.968 282.78 398.973 282.792 398.978 282.802C399.109 283.085 398.986 283.42 398.703 283.551C398.421 283.682 398.085 283.559 397.954 283.277L397.837 283.005L397.795 282.902C397.674 282.602 397.539 282.243 397.395 281.826C396.985 280.639 396.576 279.216 396.195 277.553C395.708 275.426 395.302 273.06 395.004 270.452C394.968 270.142 395.191 269.862 395.5 269.827Z" fill="#AB8855"/>
<path fill-rule="evenodd" clip-rule="evenodd" d="M459.002 368.218C459.002 368.218 466.1 388.632 449.233 395.122C431.838 401.814 424.122 382.544 424.122 382.544C424.122 382.544 419.028 368.851 412.675 352.002C408.796 341.715 404.742 330.27 402.989 321.54C401.091 312.086 405.694 309.303 414.128 306.06C424.143 302.207 428.675 301.634 433.348 310.012C437.804 318 442.361 329.448 446.296 338.162C453.794 354.772 459.002 368.218 459.002 368.218Z" fill="#E13D3E"/>
<path fill-rule="evenodd" clip-rule="evenodd" d="M402.069 303.136L421.572 295.633L428.045 308.27L405.735 316.854L402.069 303.136Z" fill="#E13D3E"/>
<path fill-rule="evenodd" clip-rule="evenodd" d="M569.456 442.115C569.456 442.115 556.312 458.568 541.443 446.273C526.28 433.735 540.23 417.605 540.23 417.605C540.23 417.605 549.225 405.988 560.561 392.279C569.42 381.566 576.176 373.312 582.496 366.996C589.318 360.183 599.983 358.922 606.947 364.679C617.532 373.432 616.593 383.465 610.822 391.126C605.211 398.579 597.328 408.4 590.961 416.475C578.716 432.002 569.456 442.115 569.456 442.115Z" fill="#E13D3E"/>
<path fill-rule="evenodd" clip-rule="evenodd" d="M643.918 286.423C643.918 286.423 640.058 304.323 631.681 306.3C624.096 308.09 620.502 298.721 620.502 298.721C620.502 298.721 618.526 291.077 618.635 282.269C618.709 276.498 617.211 265.506 620.176 264.749C624.039 263.762 623.738 275.251 626.394 276.424C631.772 278.8 634.15 260.774 636.106 258.059C639.925 252.75 648.714 264.985 643.918 286.423Z" fill="#F1C27D"/>
<path d="M639.046 258.425C639.357 258.414 639.618 258.658 639.628 258.97C639.759 262.928 639.007 267.074 637.674 271.145C637.245 272.458 636.784 273.667 636.323 274.746L636.09 275.281L635.876 275.749C635.794 275.924 635.735 276.046 635.702 276.111C635.562 276.389 635.222 276.501 634.944 276.361C634.666 276.221 634.554 275.881 634.694 275.603L634.81 275.364L634.854 275.271C634.984 274.993 635.129 274.669 635.286 274.303C635.734 273.253 636.183 272.074 636.602 270.794C637.897 266.838 638.627 262.816 638.5 259.007C638.49 258.696 638.734 258.435 639.046 258.425Z" fill="#AB8855"/>
<path d="M642.469 261.392C642.78 261.368 643.051 261.6 643.075 261.911L643.09 262.189C643.145 263.576 643.063 265.505 642.733 267.881C642.239 271.437 641.279 275.255 639.745 279.245C639.633 279.536 639.306 279.681 639.016 279.569C638.725 279.457 638.58 279.131 638.692 278.84C640.194 274.933 641.133 271.198 641.615 267.726C641.914 265.572 642.004 263.807 641.971 262.505L641.963 262.234C641.958 262.114 641.953 262.034 641.95 261.998C641.926 261.687 642.159 261.416 642.469 261.392Z" fill="#AB8855"/>
<path d="M644.906 269.827C645.216 269.863 645.438 270.142 645.403 270.452C645.105 273.06 644.699 275.427 644.211 277.554C643.872 279.031 643.512 280.32 643.148 281.422L643.011 281.826C642.896 282.16 642.787 282.456 642.685 282.715L642.532 283.094C642.498 283.176 642.471 283.237 642.452 283.277C642.321 283.56 641.986 283.683 641.703 283.552C641.42 283.421 641.297 283.085 641.428 282.803L641.527 282.572L641.565 282.479C641.679 282.197 641.807 281.857 641.945 281.457C642.342 280.309 642.739 278.924 643.111 277.302C643.589 275.215 643.989 272.89 644.282 270.324C644.314 270.045 644.543 269.837 644.814 269.824L644.906 269.827Z" fill="#AB8855"/>
<path fill-rule="evenodd" clip-rule="evenodd" d="M581.403 368.218C581.403 368.218 574.306 388.632 591.173 395.122C608.568 401.814 616.284 382.544 616.284 382.544C616.284 382.544 621.378 368.851 627.731 352.002C631.609 341.715 635.663 330.27 637.416 321.54C639.315 312.086 634.711 309.303 626.278 306.06C616.263 302.207 611.73 301.634 607.057 310.012C602.601 318 598.045 329.448 594.109 338.162C586.611 354.772 581.403 368.218 581.403 368.218Z" fill="#E13D3E"/>
<path fill-rule="evenodd" clip-rule="evenodd" d="M638.337 303.136L618.834 295.633L612.361 308.27L634.671 316.854L638.337 303.136Z" fill="#E13D3E"/>
<path d="M552.64 513.544C552.959 513.544 553.217 513.802 553.217 514.121C553.217 514.408 553.008 514.646 552.734 514.691L552.64 514.698H477.421C477.103 514.698 476.844 514.44 476.844 514.121C476.844 513.834 477.053 513.596 477.328 513.552L477.421 513.544H552.64Z" fill="#4776EE"/>
<path d="M552.64 524.075C552.959 524.075 553.217 524.333 553.217 524.652C553.217 524.939 553.008 525.176 552.734 525.221L552.64 525.229H475.917C475.598 525.229 475.34 524.97 475.34 524.652C475.34 524.365 475.549 524.127 475.823 524.082L475.917 524.075H552.64Z" fill="#4776EE"/>
<path d="M564.076 168.623C564.076 142.994 543.294 122 517.658 122C492.021 122 471.238 142.994 471.238 168.623C471.238 178.766 476.624 191.868 485.273 201.528C493.849 211.1 496.291 227.214 496.291 240.064V245.102H539.024V240.106C539.024 227.256 541.467 211.172 549.999 201.57C558.676 191.811 564.076 177.545 564.076 168.623Z" fill="#FFE58F"/>
<path d="M556.436 168.497C556.436 147.09 539.08 129.55 517.658 129.55C496.236 129.55 478.883 147.088 478.883 168.497C478.883 176.977 483.38 187.917 490.607 195.987C497.77 203.984 503.09 217.445 503.09 228.179V232.384H532.227V228.215C532.227 217.48 537.547 204.043 544.676 196.021C551.925 187.87 556.436 175.953 556.436 168.498V168.497Z" fill="#FAAD14"/>
<path d="M529.439 268.611H505.876C505.053 268.611 504.301 268.076 503.854 267.196L500.649 258.903H534.67L531.465 267.196C531.016 268.076 530.267 268.611 529.443 268.611H529.439Z" fill="#253368"/>
<path d="M535.161 225.935H500.154C497.553 225.935 495.444 228.044 495.444 230.645V257.764C495.444 260.365 497.553 262.474 500.154 262.474H535.161C537.762 262.474 539.871 260.365 539.871 257.764V230.645C539.871 228.044 537.762 225.935 535.161 225.935Z" fill="#597EF7"/>
<path d="M520.53 235.726C520.963 235.726 521.315 236.077 521.315 236.511C521.315 236.933 520.982 237.277 520.564 237.295L520.53 237.295H495.501C495.068 237.295 494.717 236.944 494.717 236.511C494.717 236.089 495.05 235.745 495.467 235.727L495.501 235.726H520.53Z" fill="white"/>
<path d="M520.53 251.97C520.963 251.97 521.315 252.321 521.315 252.755C521.315 253.177 520.982 253.521 520.564 253.539L520.53 253.539H495.501C495.068 253.539 494.717 253.188 494.717 252.755C494.717 252.333 495.05 251.989 495.467 251.971L495.501 251.97H520.53Z" fill="white"/>
<path d="M539.728 243.847C540.161 243.847 540.512 244.198 540.512 244.632C540.512 245.054 540.179 245.398 539.762 245.416L539.728 245.416H514.699C514.266 245.416 513.915 245.065 513.915 244.632C513.915 244.21 514.248 243.866 514.665 243.848L514.699 243.847H539.728Z" fill="white"/>
<path d="M525.269 136.895L501.49 173.593C500.21 175.583 501.587 178.029 503.892 178.029H514.544L501.447 203.093C500.471 205.12 502.988 207 504.532 205.398L540.15 169.144C541.967 167.257 540.677 164.034 538.106 164.034H521.998L528.737 138.496C529.264 136.316 526.466 135.037 525.269 136.895Z" fill="white"/>
<circle cx="17.4018" cy="17.4018" r="17.4018" fill="#F9D56E"/>
<circle cx="199.773" cy="76.707" r="17.4018" fill="#14B1AB"/>
<circle cx="163.02" cy="164.69" r="17.4018" fill="#C7FC7B"/>
<circle cx="85.199" cy="98.0071" r="44.5486" fill="#E8505B"/>
<path d="M179.41 808H188.119V823.785H179.41V808Z" fill="#FF9800"/>
<path d="M147.659 808H156.368V823.785H147.659V808Z" fill="#FF9800"/>
<path d="M221.761 845.557H192.248C191.574 845.557 190.928 845.289 190.452 844.813C189.976 844.336 189.708 843.69 189.708 843.016C189.708 842.343 189.976 841.697 190.452 841.22C190.928 840.744 191.574 840.476 192.248 840.476H219.221V825.236C219.221 824.562 219.488 823.916 219.965 823.44C220.441 822.964 221.087 822.696 221.761 822.696H270.868C271.542 822.696 272.188 822.964 272.664 823.44C273.14 823.916 273.408 824.562 273.408 825.236C273.408 825.91 273.14 826.556 272.664 827.032C272.188 827.509 271.542 827.776 270.868 827.776H224.301V843.016C224.301 843.69 224.033 844.336 223.557 844.813C223.08 845.289 222.434 845.557 221.761 845.557Z" fill="#FDD82E"/>
<path d="M186.2 838.481H205.487V847.189H186.2V838.481Z" fill="#FF9800"/>
<path d="M139 816.709H196.78V851.544H139V816.709Z" fill="#FDD82E"/>
<path d="M147.707 843.198C147.033 843.198 146.387 842.93 145.911 842.454C145.435 841.978 145.167 841.331 145.167 840.658V831.586C145.167 830.913 145.435 830.266 145.911 829.79C146.387 829.314 147.033 829.046 147.707 829.046C148.381 829.046 149.027 829.314 149.503 829.79C149.979 830.266 150.247 830.913 150.247 831.586V840.658C150.247 840.991 150.182 841.322 150.054 841.63C149.927 841.938 149.739 842.218 149.504 842.454C149.268 842.69 148.988 842.877 148.679 843.005C148.371 843.132 148.041 843.198 147.707 843.198Z" fill="#FF9800"/>
<path d="M167.889 845.557C167.605 845.556 167.324 845.507 167.057 845.411C166.742 845.302 166.452 845.132 166.202 844.911C165.953 844.689 165.75 844.421 165.604 844.121C165.458 843.821 165.373 843.495 165.354 843.162C165.334 842.829 165.38 842.495 165.49 842.18L167.403 836.665H164.807C164.402 836.665 164.003 836.568 163.643 836.383C163.283 836.197 162.973 835.928 162.738 835.598C162.503 835.268 162.35 834.887 162.293 834.486C162.236 834.085 162.275 833.676 162.408 833.293L165.49 824.403C165.713 823.77 166.178 823.252 166.783 822.96C167.387 822.669 168.082 822.629 168.716 822.849C169.35 823.069 169.872 823.53 170.167 824.133C170.461 824.736 170.506 825.431 170.29 826.066L168.377 831.582H170.972C171.377 831.582 171.776 831.678 172.136 831.864C172.496 832.05 172.807 832.319 173.041 832.649C173.276 832.979 173.429 833.36 173.486 833.761C173.543 834.162 173.504 834.571 173.371 834.954L170.29 843.851C170.116 844.349 169.792 844.781 169.361 845.087C168.931 845.393 168.417 845.557 167.889 845.557Z" fill="#FF9800"/>
<path d="M270.593 733.728H314.18V847.239H270.593V733.728Z" fill="#9B9B9B"/>
<path d="M365.322 589.016H219.417C217.508 588.847 215.749 590.063 215.233 591.908L190.053 796.064C189.677 798.497 191.343 800.774 193.776 801.151C194.041 801.192 194.31 801.209 194.578 801.202H390.16C392.621 801.269 394.669 799.328 394.736 796.867C394.743 796.598 394.726 796.33 394.685 796.065L369.506 591.908C368.99 590.061 367.231 588.847 365.322 589.016Z" fill="#E1E6E9"/>
<path d="M201.248 790.484L222.854 595.004H361.884L383.492 790.484H201.248Z" fill="#3A556A"/>
<path d="M235.987 790.484H237.995L251.129 591.534H249.599L235.987 790.484Z" fill="#E1E6E9"/>
<path d="M272.906 790.484H274.914L279.133 591.534H277.602L272.906 790.484Z" fill="#E1E6E9"/>
<path d="M309.824 790.484H311.832L307.136 591.534H305.604L309.824 790.484Z" fill="#E1E6E9"/>
<path d="M346.742 790.484H348.751L335.14 591.534H333.643L346.742 790.484Z" fill="#E1E6E9"/>
<path d="M217.001 612.833L216.866 614.024H367.873L367.736 612.833H217.001Z" fill="#E1E6E9"/>
<path d="M214.143 637.469L214.007 638.761H370.73L370.595 637.469H214.143Z" fill="#E1E6E9"/>
<path d="M211.046 664.077L210.877 665.472H373.86L373.691 664.077H211.046Z" fill="#E1E6E9"/>
<path d="M207.678 692.863L207.508 694.359H377.23L377.061 692.863H207.678Z" fill="#E1E6E9"/>
<path d="M204.037 724.133L203.834 725.766H380.905L380.7 724.133H204.037Z" fill="#E1E6E9"/>
<path d="M200.056 758.193L199.853 759.997H384.886L384.682 758.193H200.056Z" fill="#E1E6E9"/>
<path d="M335.582 609.703L330.614 613.753L336.127 617.836L341.128 613.753L335.582 609.703Z" fill="#E1E6E9"/>
<path d="M301.624 613.753L306.966 617.836L312.104 613.753L306.761 609.703L301.624 613.753Z" fill="#E1E6E9"/>
<path d="M272.634 613.753L277.772 617.836L283.114 613.753L277.976 609.703L272.634 613.753Z" fill="#E1E6E9"/>
<path d="M243.61 613.753L248.578 617.836L254.124 613.753L249.156 609.703L243.61 613.753Z" fill="#E1E6E9"/>
<path d="M337.215 633.76L332.078 638.115L337.794 642.538L342.932 638.115L337.215 633.76Z" fill="#E1E6E9"/>
<path d="M301.964 638.115L307.511 642.538L312.852 638.115L307.306 633.76L301.964 638.115Z" fill="#E1E6E9"/>
<path d="M271.886 638.115L277.227 642.538L282.774 638.115L277.432 633.76L271.886 638.115Z" fill="#E1E6E9"/>
<path d="M241.772 638.115L246.945 642.538L252.661 638.115L247.524 633.76L241.772 638.115Z" fill="#E1E6E9"/>
<path d="M338.951 659.722L333.643 664.418L339.597 669.181L344.94 664.418L338.951 659.722Z" fill="#E1E6E9"/>
<path d="M302.339 664.418L308.123 669.181L313.669 664.418L307.885 659.722L302.339 664.418Z" fill="#E1E6E9"/>
<path d="M271.069 664.418L276.615 669.181L282.4 664.418L276.853 659.722L271.069 664.418Z" fill="#E1E6E9"/>
<path d="M239.799 664.418L245.141 669.181L251.129 664.418L245.787 659.722L239.799 664.418Z" fill="#E1E6E9"/>
<path d="M340.89 688.507L335.344 693.611L341.571 698.784L347.117 693.611L340.89 688.507Z" fill="#E1E6E9"/>
<path d="M302.781 693.611L308.77 698.784L314.554 693.611L308.532 688.507L302.781 693.611Z" fill="#E1E6E9"/>
<path d="M270.184 693.611L275.967 698.784L281.957 693.611L276.206 688.507L270.184 693.611Z" fill="#E1E6E9"/>
<path d="M237.621 693.611L243.167 698.784L249.394 693.611L243.848 688.507L237.621 693.611Z" fill="#E1E6E9"/>
<path d="M342.966 719.403L337.215 724.949L343.714 730.564L349.499 724.949L342.966 719.403Z" fill="#E1E6E9"/>
<path d="M303.223 724.949L309.484 730.564L315.507 724.949L309.245 719.403L303.223 724.949Z" fill="#E1E6E9"/>
<path d="M269.23 724.949L275.253 730.564L281.514 724.949L275.492 719.403L269.23 724.949Z" fill="#E1E6E9"/>
<path d="M235.239 724.949L241.024 730.564L247.523 724.949L241.772 719.403L235.239 724.949Z" fill="#E1E6E9"/>
<path d="M345.245 753.054L339.223 759.111L346.062 765.236L352.051 759.111L345.245 753.054Z" fill="#E1E6E9"/>
<path d="M303.7 759.111L310.267 765.236L316.562 759.111L309.994 753.054L303.7 759.111Z" fill="#E1E6E9"/>
<path d="M268.177 759.111L274.472 765.236L281.038 759.111L274.743 753.054L268.177 759.111Z" fill="#E1E6E9"/>
<path d="M232.687 759.111L238.676 765.236L245.515 759.111L239.491 753.054L232.687 759.111Z" fill="#E1E6E9"/>
<path d="M345.416 843.531H239.323C235.601 843.621 232.607 846.615 232.518 850.335V859.352H352.391V850.506C352.392 846.654 349.269 843.531 345.416 843.531Z" fill="#676767"/>
<path d="M793.615 787.95H805.645V818.849H793.615V787.95Z" fill="#FF9B0B"/>
<path d="M799.63 787.95H805.645V818.849H799.63V787.95Z" fill="#FF631A"/>
<path d="M799.63 793.965C785.032 793.965 773.156 782.089 773.156 767.492C773.156 755.529 790.626 715.381 794.128 707.454L799.63 695L805.132 707.454C808.634 715.381 826.104 755.529 826.104 767.492C826.104 782.089 814.228 793.965 799.63 793.965Z" fill="#BDF052"/>
<path d="M826.104 767.492C826.104 755.53 808.634 715.381 805.132 707.455L799.63 695.001V793.966C814.228 793.965 826.104 782.089 826.104 767.492Z" fill="#77DD00"/>
<path d="M835.322 853H630V812.898H835.322V853Z" fill="#725D57"/>
<path d="M732.661 812.898H835.322V853H732.661V812.898Z" fill="#53433F"/>
<path d="M692.093 812.756H663.803L673.097 659.503H682.799L692.093 812.756Z" fill="#B2CCDE"/>
<path d="M692.095 812.761H683.807L674.507 659.505H682.795L692.095 812.761Z" fill="#4C81A5"/>
<path d="M678.281 649.901L664.815 636.113L676.283 564.333L688.029 563.004L689.08 653.394L678.281 649.901Z" fill="#D4E6F2"/>
<path d="M689.078 653.383L680.468 650.621L680.444 563.851L688.019 563L689.078 653.383Z" fill="#8BBCDD"/>
<path d="M594.006 695.321L669.159 649.003L675.059 662.407L668.93 678.871L601.366 705.97L594.006 695.321Z" fill="#D4E6F2"/>
<path d="M599.388 702.051L601.942 705.734L601.367 705.963L594 695.328L669.166 649.008L672.641 656.905L599.388 702.051Z" fill="#8BBCDD"/>
<path d="M678.697 670.008L685.227 658.697L703.903 653.929L761.896 698.692L755.61 710.587L678.697 670.008Z" fill="#D4E6F2"/>
<path d="M759.479 703.248L755.611 710.591L678.695 670.005L682.863 662.822L759.479 703.248Z" fill="#8BBCDD"/>
<path d="M689.4 656.986C689.4 662.896 684.608 667.688 678.698 667.688C672.787 667.688 667.995 662.896 667.995 656.986C667.995 651.075 672.787 646.283 678.698 646.283C684.608 646.283 689.4 651.075 689.4 656.986Z" fill="white" stroke="#144F77" stroke-width="5"/>
</svg>
