<svg width="805" height="504" viewBox="0 0 805 504" fill="none" xmlns="http://www.w3.org/2000/svg">
<ellipse cx="385.5" cy="464" rx="419.5" ry="40" fill="#032838"/>
<path fill-rule="evenodd" clip-rule="evenodd" d="M48.7009 304.567C69.6603 294.653 82.1521 320.654 71.6112 335.13C58.7479 352.796 52.1587 373.123 48.4893 379.248C45.3939 384.414 36.9148 397.01 26.7045 391.204C17.3079 385.861 22.4293 364.892 22.4293 364.892C22.4293 364.892 22.8443 316.797 48.7009 304.567Z" fill="#5B8C00"/>
<path fill-rule="evenodd" clip-rule="evenodd" d="M-14.3417 387.167C-21.4672 377.554 -24.0689 363.758 -16.1156 360.22C-8.49026 356.828 4.14099 365.18 9.99166 381.252C15.8421 397.324 19.2176 408.879 13.4946 410.889C4.1051 414.185 -4.93021 399.864 -14.3417 387.167Z" fill="#5B8C00"/>
<path fill-rule="evenodd" clip-rule="evenodd" d="M60.5696 387.896C52.5103 397.341 40.8803 416.34 33.5944 409.686C29.1786 405.653 35.0819 386.556 51.2408 376.165C64.9859 367.326 68.629 378.452 60.5696 387.896Z" fill="#7CB305"/>
<path fill-rule="evenodd" clip-rule="evenodd" d="M-16.5506 322.356C-13.4859 320.294 -9.63025 319.823 -6.11241 320.95C-1.20279 322.522 6.24773 327.205 13.6216 340.644C23.2488 358.19 28.2605 377.426 27.2698 389.611C26.6222 397.579 16.8054 401.014 11.3135 395.204C8.79143 392.536 6.12278 388.423 3.51178 382.183C-6.996 357.073 -16.8201 341.337 -17.9917 339.757C-21.1176 335.541 -23.3526 326.933 -16.5506 322.356Z" fill="#7CB305"/>
<path fill-rule="evenodd" clip-rule="evenodd" d="M-9.50321 332.372C-9.39927 333.612 -10.3201 334.701 -11.5597 334.805C-12.7996 334.909 -13.8888 333.988 -13.993 332.748C-14.0969 331.509 -13.1761 330.419 -11.9363 330.315C-10.6966 330.211 -9.60734 331.132 -9.50321 332.372Z" fill="white"/>
<path fill-rule="evenodd" clip-rule="evenodd" d="M9.63114 341.99C9.73527 343.229 8.81448 344.319 7.57462 344.423C6.33476 344.527 5.24551 343.606 5.14138 342.366C5.03744 341.127 5.95822 340.037 7.19809 339.933C8.43776 339.829 9.5272 340.75 9.63114 341.99Z" fill="white"/>
<path fill-rule="evenodd" clip-rule="evenodd" d="M6.42418 367.598C6.54337 369.018 5.48889 370.266 4.06903 370.385C2.64918 370.504 1.40169 369.449 1.28269 368.03C1.1635 366.61 2.21798 365.362 3.63783 365.243C5.0575 365.124 6.30499 366.179 6.42418 367.598Z" fill="white"/>
<path fill-rule="evenodd" clip-rule="evenodd" d="M65.1955 329.327C65.1955 331.342 63.5621 332.976 61.5471 332.976C59.532 332.976 57.8987 331.342 57.8987 329.327C57.8987 327.312 59.532 325.679 61.5471 325.679C63.5621 325.679 65.1955 327.312 65.1955 329.327Z" fill="white"/>
<path fill-rule="evenodd" clip-rule="evenodd" d="M35.8249 340.469C35.8249 342.483 34.1914 344.117 32.1766 344.117C30.1615 344.117 28.5282 342.483 28.5282 340.469C28.5282 338.454 30.1615 336.82 32.1766 336.82C34.1914 336.82 35.8249 338.454 35.8249 340.469Z" fill="white"/>
<path fill-rule="evenodd" clip-rule="evenodd" d="M45.3372 365.234C45.3372 366.076 44.6544 366.759 43.8123 366.759C42.9702 366.759 42.2874 366.076 42.2874 365.234C42.2874 364.392 42.9702 363.709 43.8123 363.709C44.6544 363.709 45.3372 364.392 45.3372 365.234Z" fill="white"/>
<path fill-rule="evenodd" clip-rule="evenodd" d="M56.3233 384.736C56.3233 385.98 55.3145 386.989 54.0706 386.989C52.8262 386.989 51.8179 385.98 51.8179 384.736C51.8179 383.492 52.8262 382.483 54.0706 382.483C55.3145 382.483 56.3233 383.492 56.3233 384.736Z" fill="white"/>
<path d="M3.70535 389.732C3.91529 389.532 4.24779 389.54 4.44801 389.75L4.54407 389.854L4.61685 389.934C4.7493 390.082 4.9023 390.258 5.07412 390.463C5.56238 391.046 6.10529 391.741 6.68912 392.55C8.35293 394.853 10.0151 397.602 11.5656 400.791C15.9901 409.892 18.6437 420.701 18.6437 433.18C18.6437 433.47 18.4085 433.705 18.1184 433.705C17.8283 433.705 17.5931 433.47 17.5931 433.18C17.5931 420.866 14.9778 410.212 10.6207 401.25C9.0976 398.117 7.46671 395.421 5.83743 393.165C5.30213 392.424 4.80351 391.781 4.353 391.239L4.2691 391.138C4.14127 390.986 4.02488 390.851 3.92074 390.732L3.78906 390.585C3.74024 390.531 3.7062 390.494 3.68775 390.475C3.48753 390.265 3.49541 389.933 3.70535 389.732Z" fill="#DBA53D"/>
<path d="M43.3907 393.409C43.5643 393.177 43.8934 393.129 44.1259 393.302C44.3584 393.476 44.4061 393.805 44.2325 394.038C42.3194 396.6 40.5538 399.355 38.9301 402.275C35.4977 408.449 32.844 415.068 30.8743 421.688C30.1849 424.004 29.6305 426.155 29.1988 428.084L29.1114 428.48C29.0084 428.952 28.9194 429.382 28.8436 429.768L28.7947 430.02L28.7075 430.497C28.6593 430.783 28.3884 430.975 28.1023 430.927C27.8162 430.879 27.6233 430.608 27.6715 430.322L27.7014 430.153C27.7261 430.016 27.7562 429.856 27.792 429.672L27.8788 429.234C27.9633 428.817 28.0614 428.357 28.1736 427.855L28.2691 427.433C28.6911 425.591 29.2206 423.562 29.8674 421.388C31.8575 414.7 34.539 408.011 38.0119 401.765C39.6577 398.805 41.4485 396.01 43.3907 393.409Z" fill="#DBA53D"/>
<path d="M52.5701 327.873C52.7712 328.066 52.7858 328.38 52.609 328.59L52.5859 328.616C52.5756 328.626 52.5534 328.65 52.5197 328.686L52.3906 328.827L52.3155 328.91C52.0894 329.162 51.8265 329.466 51.5298 329.821C50.6793 330.838 49.7303 332.063 48.7074 333.495C45.78 337.593 42.8509 342.529 40.1159 348.308C35.5622 357.93 32.0156 368.904 29.8661 381.24C27.2561 396.221 26.8238 412.586 28.9603 430.347C28.995 430.635 28.7896 430.896 28.5015 430.931C28.2135 430.966 27.9519 430.76 27.9173 430.472C25.7685 412.609 26.2035 396.141 28.8311 381.06C30.9972 368.628 34.5729 357.564 39.1663 347.859C41.9287 342.022 44.8897 337.032 47.8525 332.884L48.0821 332.565C48.9955 331.3 49.8496 330.199 50.627 329.263L50.7238 329.147C51.003 328.813 51.2539 328.522 51.4741 328.275L51.5334 328.209C51.6021 328.132 51.6637 328.065 51.7179 328.006L51.8274 327.889C52.0281 327.679 52.3606 327.672 52.5701 327.873Z" fill="#DBA53D"/>
<path d="M7.10211 359.023C7.35021 358.873 7.67323 358.952 7.82358 359.2L7.87633 359.289C7.91834 359.36 7.96774 359.445 8.02427 359.543L8.10672 359.687C8.24762 359.935 8.40588 360.219 8.58027 360.54L8.7247 360.808C9.25895 361.802 9.84444 362.953 10.4696 364.257L10.5551 364.435C12.5942 368.707 14.6323 373.703 16.5339 379.38C21.8586 395.275 25.098 413.315 25.2192 433.176C25.221 433.467 24.9872 433.703 24.6971 433.705C24.407 433.707 24.1704 433.473 24.1687 433.183C24.0482 413.438 20.8285 395.507 15.5378 379.714C13.6844 374.181 11.7015 369.303 9.71724 365.12L9.60701 364.888C8.92875 363.467 8.29741 362.227 7.72796 361.173L7.55646 360.857C7.39198 360.557 7.24392 360.293 7.11351 360.067L7.05157 359.959L6.9251 359.745C6.77475 359.496 6.854 359.173 7.10211 359.023Z" fill="#DBA53D"/>
<path fill-rule="evenodd" clip-rule="evenodd" d="M47.53 459.235H2.12472C-0.329714 459.235 -2.33789 457.227 -2.33789 454.773V421.648C-2.33789 419.193 -0.329714 417.185 2.12472 417.185H47.53C49.9842 417.185 51.9926 419.193 51.9926 421.648V454.773C51.9926 457.227 49.9842 459.235 47.53 459.235Z" fill="#DBA53D"/>
<path d="M107.431 224.613C107.178 224.609 106.971 224.811 106.967 225.063C106.964 225.291 107.127 225.482 107.344 225.52L107.418 225.527L147.665 226.103C147.918 226.106 148.125 225.904 148.129 225.652C148.132 225.425 147.969 225.234 147.752 225.195L147.678 225.188L107.431 224.613Z" fill="#A3B5D6"/>
<path fill-rule="evenodd" clip-rule="evenodd" d="M232.678 353.023C232.591 352.755 251.877 420.03 252.85 424.957C255.505 438.403 254.324 440.552 262.203 442.709C264.221 443.262 266.793 441.685 270.351 444.386C280.086 451.786 292.735 454.569 293.193 449.129C293.195 444.118 271.375 432.436 267.538 422.834C263.552 412.857 260.99 329.988 252.729 325.516C244.468 321.044 224.028 295.995 232.678 353.023Z" fill="#FFC999"/>
<path fill-rule="evenodd" clip-rule="evenodd" d="M257.915 445.349C257.915 445.349 254.144 438.503 253.888 429.264C253.888 429.264 261.029 433.607 267.499 438.627C274.97 444.426 276.522 444.491 276.522 444.491C284.67 445.375 285.542 440.641 285.542 440.641C285.542 440.641 290.782 445.21 299.811 449.468C307.896 453.282 280.636 459.71 275.521 453.507C270.407 447.305 264.66 444.221 264.66 444.221L264.561 455.154L261.93 455.592L257.915 445.349Z" fill="#932C2C"/>
<path fill-rule="evenodd" clip-rule="evenodd" d="M258.803 283.677L281.897 401.487L240.255 409.762C240.255 409.762 225.555 346.502 216.786 292.364C216.786 292.364 210.293 264.452 232.539 260.318C254.784 256.182 258.803 283.677 258.803 283.677Z" fill="#C00A8D"/>
<path fill-rule="evenodd" clip-rule="evenodd" d="M232.794 258.26C188.92 252.82 156.521 252.355 146.375 254.9C146.375 254.9 125.313 259.122 129.264 275.334C134.086 295.119 156.733 295.449 156.733 295.449L230.086 301.204C235.919 301.722 255.112 303.943 256.219 281.401C257.264 260.138 233.75 258.378 232.794 258.26Z" fill="#C00A8D"/>
<path fill-rule="evenodd" clip-rule="evenodd" d="M233.41 229.992C233.41 229.992 177.296 210.277 169.36 208.02C149.294 202.313 146.782 226.759 159.509 230.019C167.18 231.984 182.716 234.236 196.246 236.367C215.315 239.37 229.338 240.978 229.338 240.978L233.41 229.992Z" fill="#FFC999"/>
<path fill-rule="evenodd" clip-rule="evenodd" d="M133.429 76.0281C133.429 76.0281 164.309 81.9984 164.029 99.7752C163.886 108.918 154.705 118.604 158.945 121.512C175.516 132.871 157.035 136.864 167.492 145.914C183.044 159.374 172.701 181.361 155.917 179.44C138.532 177.449 146.183 202.398 116.362 194.528C99.5571 190.093 94.7255 186.23 82.8837 179.926C71.0406 173.621 64.5205 142.061 79.7089 127.046C89.1551 117.537 97.9063 118.728 103.449 102.633C108.992 86.5362 114.174 76.7206 122.178 78.2702C125.222 74.153 133.429 76.0281 133.429 76.0281Z" fill="#1A1A1B"/>
<path fill-rule="evenodd" clip-rule="evenodd" d="M150.516 115C150.61 114.66 151.087 114.654 151.192 114.991C152.113 117.969 154.297 125.997 151.16 126.3C147.624 126.64 149.662 118.104 150.516 115Z" fill="white"/>
<path fill-rule="evenodd" clip-rule="evenodd" d="M119.656 138.476C121.065 126.259 122.402 116.278 122.402 116.278L141.224 126.9L140.113 141.788C139.255 147.268 134.032 150.95 128.581 149.916C122.818 148.821 118.985 144.303 119.656 138.476Z" fill="#F4B784"/>
<path fill-rule="evenodd" clip-rule="evenodd" d="M131.932 94.8254C131.932 94.8254 134.019 89.3037 137.805 91.981C140.513 93.8939 139.791 92.3224 140.401 90.835C142.665 85.3061 143.422 98.9206 152.192 101.772C152.339 108.706 152.719 130.869 137.738 131.732C131.909 132.069 124.444 127.919 121.875 120.018C120.2 114.869 121.595 109.685 123.638 108.651C130.37 105.248 130.245 101.738 131.932 94.8254Z" fill="#FFC999"/>
<path d="M145.183 100.746C144.965 100.665 144.725 100.756 144.613 100.951L144.581 101.02L143.208 104.68L143.181 104.794L143.147 105.207C143.142 105.283 143.137 105.368 143.132 105.46C143.001 107.775 143.1 110.768 143.585 114.292L143.658 114.803L143.342 114.826C142.665 114.881 142.033 114.964 141.447 115.07L141.101 115.135C140.764 115.203 140.461 115.275 140.193 115.348L139.998 115.403C139.806 115.459 139.672 115.504 139.599 115.532C139.357 115.623 139.235 115.893 139.327 116.134C139.418 116.376 139.688 116.498 139.929 116.407L140.085 116.354C140.134 116.338 140.193 116.32 140.26 116.301C140.549 116.216 140.891 116.132 141.286 116.052C142.147 115.879 143.127 115.757 144.218 115.708C144.496 115.696 144.702 115.445 144.659 115.17C144.081 111.439 143.938 108.272 144.049 105.84L144.08 105.273L144.105 104.951L145.456 101.348C145.538 101.131 145.447 100.891 145.252 100.779L145.183 100.746Z" fill="#DD936F"/>
<path d="M135.036 117.611C134.714 117.512 134.373 117.692 134.274 118.014C134.175 118.336 134.356 118.677 134.677 118.776C134.908 118.847 135.143 118.914 135.382 118.977C136.823 119.36 138.357 119.597 139.912 119.717C140.842 119.789 141.668 119.812 142.338 119.804L142.753 119.795C143.089 119.78 143.35 119.495 143.335 119.159C143.321 118.823 143.036 118.562 142.7 118.577L142.553 118.581C141.883 118.597 141.008 118.579 140.006 118.502C138.52 118.387 137.057 118.161 135.695 117.799C135.471 117.74 135.251 117.677 135.036 117.611Z" fill="#C44343"/>
<path d="M151.85 101.426C150.226 100.324 147.951 100.007 144.993 100.906C144.671 101.004 144.489 101.344 144.587 101.667C144.685 101.989 145.025 102.17 145.347 102.073C147.958 101.279 149.851 101.543 151.166 102.435C151.606 102.734 151.869 103.022 151.975 103.188C152.155 103.473 152.532 103.557 152.816 103.377C153.101 103.197 153.185 102.82 153.005 102.536C152.815 102.237 152.44 101.826 151.85 101.426Z" fill="#253368"/>
<path d="M132.62 99.2945C131.694 99.269 130.848 99.325 130.1 99.4759C129.77 99.5425 129.556 99.864 129.622 100.194C129.689 100.524 130.01 100.738 130.34 100.671C130.99 100.54 131.746 100.49 132.586 100.513C133.666 100.543 134.831 100.691 136.005 100.919C136.354 100.987 136.685 101.058 136.994 101.13L137.505 101.255C137.629 101.287 137.721 101.313 137.778 101.329C138.102 101.422 138.439 101.234 138.532 100.911C138.625 100.587 138.437 100.25 138.114 100.157L137.812 100.076L137.588 100.019C137.178 99.9177 136.724 99.8165 136.238 99.7221C135.003 99.4823 133.775 99.3264 132.62 99.2945Z" fill="#253368"/>
<path d="M138.043 122.285C137.785 122.277 137.569 122.48 137.561 122.738C137.554 122.97 137.718 123.168 137.939 123.211L138.014 123.22L139.643 123.27C139.901 123.277 140.117 123.075 140.125 122.817C140.132 122.584 139.968 122.386 139.747 122.343L139.672 122.335L138.043 122.285Z" fill="#DD936F"/>
<path fill-rule="evenodd" clip-rule="evenodd" d="M113.294 111.998C112.148 106.122 117.765 106.576 117.765 106.576C117.765 106.576 117.773 112.411 119.212 117.653C113.579 117.385 113.294 111.998 113.294 111.998Z" fill="#FFC999"/>
<path fill-rule="evenodd" clip-rule="evenodd" d="M116.399 116.155C116.493 115.815 116.97 115.808 117.074 116.144C117.995 119.123 120.178 127.152 117.043 127.453C113.507 127.795 115.544 119.259 116.399 116.155Z" fill="white"/>
<path d="M148.073 105.97C146.768 105.824 145.654 107.061 145.479 108.639C145.442 108.973 145.683 109.274 146.018 109.311C146.353 109.349 146.654 109.107 146.691 108.773C146.799 107.794 147.405 107.122 147.939 107.182C148.473 107.24 148.917 108.028 148.808 109.007C148.77 109.342 149.011 109.644 149.346 109.681C149.68 109.718 149.982 109.477 150.019 109.143C150.195 107.564 149.378 106.113 148.073 105.97Z" fill="#253368"/>
<path d="M134.507 104.692C133.044 104.476 131.71 105.716 131.462 107.393C131.413 107.726 131.643 108.036 131.976 108.086C132.309 108.135 132.619 107.905 132.668 107.572C132.825 106.509 133.598 105.79 134.329 105.898C135.06 106.006 135.593 106.917 135.437 107.98C135.388 108.313 135.618 108.623 135.951 108.672C136.284 108.721 136.594 108.491 136.643 108.157C136.889 106.48 135.97 104.908 134.507 104.692Z" fill="#253368"/>
<path fill-rule="evenodd" clip-rule="evenodd" d="M172.1 220.904C172.1 220.904 170.831 179.832 169.943 171.92C167.8 152.808 157.076 148.548 148.967 156.334C139.193 165.718 150.834 223.136 150.834 223.136C150.834 223.136 152.314 230.789 161.501 230.932C172.359 231.1 172.1 220.904 172.1 220.904Z" fill="#FFC999"/>
<path fill-rule="evenodd" clip-rule="evenodd" d="M171.755 191.415C171.493 187.294 174.652 150.448 157.39 150.306C143.963 150.197 147.139 167.748 150.988 197.212L171.755 191.415Z" fill="#48F0DC"/>
<path fill-rule="evenodd" clip-rule="evenodd" d="M108.64 225.999C118.24 228.341 144.802 227.221 147.653 225.999C150.505 224.777 148.949 216.055 148.949 216.055C166.342 171.659 164.7 156.907 163.176 153.607C161.117 149.144 142.667 149.398 141.97 145.915C141.627 144.197 141.748 138.268 141.748 138.268L117.968 136.947C117.968 136.947 116.641 143.475 115.384 145.57C112.94 149.644 97.9171 146.485 91.7371 154.725C80.6939 169.45 95.7775 194.756 104.076 213.164C104.076 213.164 103.562 221.817 108.64 225.999Z" fill="#48F0DC"/>
<path fill-rule="evenodd" clip-rule="evenodd" d="M143.595 287.989L163.878 266.78C163.878 266.78 159.504 243.132 148.265 232.83L108.178 231.424C108.178 231.424 90.9762 243.403 92.8464 272.426L123.598 288.156L143.595 287.989Z" fill="#E91CAF"/>
<path fill-rule="evenodd" clip-rule="evenodd" d="M107.24 231.892L148.264 232.83L147.244 226.551L108.597 225.384L107.24 231.892Z" fill="#48F0DC"/>
<path d="M133.968 232.842C133.718 232.871 133.538 233.098 133.567 233.349C134.031 237.356 134.382 241.712 134.629 246.362C135.184 256.797 135.193 267.901 134.861 278.472L134.799 280.331C134.744 281.867 134.686 283.269 134.628 284.518L134.519 286.662C134.504 286.914 134.697 287.131 134.949 287.146C135.201 287.16 135.417 286.968 135.432 286.716L135.48 285.82L135.563 284.084C135.607 283.116 135.65 282.064 135.692 280.935L135.712 280.364C136.107 269.217 136.131 257.393 135.542 246.314C135.294 241.645 134.941 237.271 134.475 233.244C134.449 233.018 134.263 232.85 134.043 232.84L133.968 232.842Z" fill="#B9B20F"/>
<path d="M107.359 231.76C107.106 231.756 106.898 231.957 106.894 232.209C106.89 232.437 107.052 232.628 107.269 232.667L107.343 232.675L147.547 233.377C147.8 233.381 148.008 233.18 148.013 232.928C148.017 232.7 147.854 232.509 147.637 232.47L147.563 232.463L107.359 231.76Z" fill="#720BC4"/>
<path fill-rule="evenodd" clip-rule="evenodd" d="M172.504 353.291C172.448 352.994 183.781 427.047 184.145 432.411C185.137 447.049 183.59 449.171 191.663 452.533C193.73 453.393 196.677 452.067 200.086 455.422C209.417 464.6 222.469 469.276 223.696 463.561C224.378 458.24 202.798 442.872 200.029 432.154C197.152 421.02 205.697 332.681 197.533 326.808C189.37 320.936 171.072 291.561 172.504 353.291Z" fill="#FFC999"/>
<path fill-rule="evenodd" clip-rule="evenodd" d="M186.089 452.373C186.089 452.373 183.518 444.411 185.125 434.649C185.125 434.649 191.748 440.664 197.528 447.258C204.201 454.869 205.819 455.254 205.819 455.254C214.201 457.84 216.082 453.04 216.082 453.04C216.082 453.04 220.66 458.907 229.284 465.219C237.007 470.87 207.049 472.087 202.934 464.527C198.818 456.968 193.406 452.557 193.406 452.557L191.08 464.03L188.226 463.954L186.089 452.373Z" fill="#932C2C"/>
<path fill-rule="evenodd" clip-rule="evenodd" d="M213.476 285.866L215.392 414.365L169.951 415.158C169.951 415.158 166.499 345.723 167.561 287.024C167.561 287.024 166.032 256.387 190.252 256.263C214.473 256.139 213.476 285.866 213.476 285.866Z" fill="#E91CAF"/>
<path fill-rule="evenodd" clip-rule="evenodd" d="M187.646 254.216C138.983 247.059 123.726 247.15 112.378 249.722C112.378 249.722 88.8441 253.888 92.8296 272.021C97.6953 294.149 122.876 295.086 122.876 295.086L183.552 301.912C190.026 302.638 213.118 304.162 213.118 280.546C213.118 256.863 188.705 254.372 187.646 254.216Z" fill="#E91CAF"/>
<path fill-rule="evenodd" clip-rule="evenodd" d="M106.413 213.126C106.413 213.126 114.236 177.845 113.935 169.6C113.211 149.685 99.2975 147.677 92.1946 156.555C86.7022 163.42 83.2702 215.255 83.2702 215.255C83.2702 215.255 85.3623 224.122 94.5159 225.037C105.336 226.117 106.413 213.126 106.413 213.126Z" fill="#FFC999"/>
<path fill-rule="evenodd" clip-rule="evenodd" d="M100.205 149.69C90.5806 151.677 86.889 161.177 86.0161 188.137L111.419 192.255C111.476 188.126 128.124 146.715 98.181 150.079" fill="#48F0DC"/>
<path fill-rule="evenodd" clip-rule="evenodd" d="M168.828 231.29C168.828 231.29 108.108 206.707 100.059 204.894C83.7286 201.215 78.0168 220.488 91.6934 226.199C109.298 233.552 165.783 244.499 165.783 244.499L168.828 231.29Z" fill="#FFC999"/>
<path d="M107.139 154.763C106.908 154.662 106.638 154.767 106.537 154.999C106.436 155.23 106.541 155.5 106.772 155.601C108.798 156.487 110.44 158.887 111.696 162.34C112.278 163.939 112.738 165.656 113.088 167.373C113.186 167.855 113.27 168.308 113.34 168.727L113.426 169.269L113.474 169.604L110.963 192.204C110.938 192.43 111.082 192.636 111.294 192.695L111.367 192.709C111.593 192.734 111.799 192.59 111.858 192.378L111.872 192.305L114.389 169.65L114.388 169.544L114.331 169.135L114.293 168.891C114.212 168.378 114.11 167.806 113.984 167.191C113.626 165.432 113.155 163.673 112.556 162.027C111.221 158.36 109.453 155.775 107.139 154.763Z" fill="#12A694"/>
<path d="M120.797 146.799C120.545 146.791 120.333 146.988 120.325 147.241C120.317 147.468 120.476 147.662 120.692 147.705L120.766 147.713L138.406 148.315C138.658 148.324 138.87 148.126 138.879 147.874C138.886 147.647 138.727 147.453 138.511 147.41L138.437 147.402L120.797 146.799Z" fill="#12A694"/>
<path d="M157.904 161.615C157.688 161.543 157.457 161.64 157.355 161.835L157.326 161.904L155.953 166.022C155.928 166.095 155.923 166.173 155.937 166.248L155.957 166.322L159.507 176.128L159.573 176.269C159.602 176.333 159.636 176.414 159.675 176.512C159.807 176.843 159.94 177.234 160.065 177.681C161.55 183.011 160.528 189.569 155.088 196.754C154.936 196.955 154.975 197.242 155.177 197.395C155.378 197.547 155.665 197.507 155.817 197.306C161.437 189.884 162.504 183.031 160.945 177.436C160.812 176.956 160.668 176.534 160.524 176.173L160.423 175.929C160.394 175.864 160.371 175.814 160.356 175.786L160.345 175.765L156.871 166.16L158.193 162.193C158.265 161.977 158.167 161.746 157.972 161.644L157.904 161.615Z" fill="#12A694"/>
<path d="M121.496 245.661C121.246 245.63 121.017 245.809 120.987 246.059C120.959 246.285 121.101 246.492 121.312 246.554L121.385 246.569L190.878 255.103C191.128 255.134 191.356 254.955 191.387 254.705C191.415 254.479 191.273 254.272 191.062 254.21L190.989 254.195L121.496 245.661Z" fill="#B9B20F"/>
<path fill-rule="evenodd" clip-rule="evenodd" d="M192.639 269.178L121.559 257.926L192.001 236.608L250.546 251.775L192.639 269.178Z" fill="#CCD7EE"/>
<path fill-rule="evenodd" clip-rule="evenodd" d="M195.319 264.224L143.696 256.052L193.639 240.472L237.377 251.584L195.319 264.224Z" fill="#3F4044"/>
<path fill-rule="evenodd" clip-rule="evenodd" d="M121.602 261.595L121.545 257.951L194.088 268.851L192.859 272.742L121.602 261.595Z" fill="#4E4E4E"/>
<path d="M203.492 243.717C203.441 243.579 203.301 243.499 203.161 243.52L203.101 243.536L162.474 258.43C162.316 258.488 162.235 258.664 162.293 258.822C162.344 258.96 162.484 259.039 162.624 259.018L162.684 259.003L203.311 244.108C203.469 244.05 203.55 243.875 203.492 243.717Z" fill="#CCD7EE"/>
<path d="M198.104 241.557C198.056 241.418 197.917 241.336 197.776 241.355L197.716 241.37L152.29 257.166C152.131 257.222 152.047 257.395 152.102 257.554C152.15 257.693 152.289 257.775 152.43 257.756L152.49 257.742L197.916 241.945C198.075 241.89 198.159 241.716 198.104 241.557Z" fill="#CCD7EE"/>
<path d="M204.106 247.41C204.053 247.273 203.912 247.195 203.772 247.218L203.712 247.235L169.595 260.283C169.438 260.344 169.359 260.52 169.419 260.677C169.472 260.814 169.613 260.892 169.753 260.869L169.813 260.853L203.93 247.804C204.087 247.744 204.166 247.568 204.106 247.41Z" fill="#CCD7EE"/>
<path d="M213.452 248.344C213.4 248.206 213.258 248.129 213.118 248.152L213.059 248.168L178.942 261.215C178.784 261.276 178.706 261.452 178.766 261.609C178.818 261.747 178.96 261.824 179.1 261.801L179.159 261.785L213.277 248.737C213.434 248.677 213.513 248.501 213.452 248.344Z" fill="#CCD7EE"/>
<path d="M222.086 249.813C222.034 249.675 221.892 249.598 221.752 249.621L221.693 249.637L187.575 262.685C187.418 262.745 187.339 262.921 187.4 263.078C187.452 263.216 187.594 263.293 187.733 263.27L187.793 263.254L221.91 250.207C222.068 250.146 222.146 249.97 222.086 249.813Z" fill="#CCD7EE"/>
<path d="M152.139 253.814C151.972 253.793 151.82 253.912 151.799 254.079C151.781 254.225 151.87 254.36 152.004 254.405L152.064 254.419L196.241 259.87C196.408 259.891 196.56 259.772 196.581 259.605C196.599 259.459 196.51 259.324 196.376 259.279L196.316 259.265L152.139 253.814Z" fill="#CCD7EE"/>
<path d="M161.938 250.36C161.771 250.339 161.618 250.458 161.598 250.625C161.58 250.771 161.668 250.906 161.803 250.951L161.863 250.965L206.04 256.416C206.207 256.436 206.359 256.318 206.38 256.15C206.398 256.004 206.309 255.87 206.175 255.824L206.114 255.811L161.938 250.36Z" fill="#CCD7EE"/>
<path d="M174.084 248.055C173.917 248.034 173.765 248.153 173.744 248.32C173.726 248.466 173.815 248.601 173.949 248.646L174.009 248.66L218.186 254.111C218.353 254.131 218.505 254.013 218.526 253.846C218.544 253.699 218.455 253.565 218.321 253.519L218.261 253.506L174.084 248.055Z" fill="#CCD7EE"/>
<path d="M182.3 241.941C182.133 241.92 181.981 242.039 181.96 242.206C181.942 242.352 182.031 242.487 182.165 242.532L182.225 242.546L226.402 247.996C226.569 248.017 226.721 247.898 226.742 247.731C226.76 247.585 226.671 247.45 226.537 247.405L226.477 247.391L182.3 241.941Z" fill="#CCD7EE"/>
<path fill-rule="evenodd" clip-rule="evenodd" d="M192.916 272.744L196.11 273.022L250.915 255.803L273.063 163.157L214.035 174.942L192.916 272.744Z" fill="#4E4E4E"/>
<path fill-rule="evenodd" clip-rule="evenodd" d="M196.225 273.027L254.019 254.897C254.547 254.731 254.949 254.301 255.078 253.762L276.465 164.727C276.733 163.608 275.751 162.587 274.623 162.815L218.63 174.072C218.017 174.195 217.534 174.671 217.401 175.283L196.225 273.027Z" fill="#BDBDBD"/>
<path fill-rule="evenodd" clip-rule="evenodd" d="M162.16 242.176C163.901 248.679 178.386 246.471 178.386 246.471L185.486 252.253C186.611 253.028 187.093 252.271 187.705 252.411C189.355 252.786 189.75 251.053 189.75 251.053C190.379 250.913 191.197 251.557 191.801 250.046C191.801 250.046 192.975 250.227 193.376 248.843C193.526 248.328 191.259 241.364 189.906 237.289C189.311 235.499 187.764 234.199 185.899 233.919L168.564 231.309C168.564 231.309 159.817 233.426 162.16 242.176Z" fill="#FFC999"/>
<path d="M177.354 241.861C177.116 241.76 176.841 241.87 176.74 242.107C176.649 242.321 176.729 242.565 176.919 242.685L176.986 242.721L182.086 244.898L187.186 251.92C187.321 252.106 187.567 252.163 187.767 252.067L187.839 252.024C188.025 251.889 188.082 251.643 187.986 251.443L187.943 251.371L182.766 244.245C182.733 244.199 182.692 244.16 182.646 244.129L182.572 244.09L177.354 241.861Z" fill="#DD936F"/>
<path d="M180.842 239.716C180.617 239.59 180.332 239.669 180.205 239.894C180.091 240.097 180.144 240.348 180.32 240.489L180.383 240.531L185.066 243.168L189.221 250.437C189.337 250.639 189.579 250.722 189.79 250.643L189.859 250.611C190.061 250.496 190.144 250.253 190.065 250.042L190.033 249.973L185.813 242.592C185.786 242.543 185.749 242.5 185.706 242.465L185.637 242.417L180.842 239.716Z" fill="#DD936F"/>
<path d="M184.225 237.738C184.023 237.578 183.729 237.612 183.568 237.814C183.426 237.994 183.437 238.247 183.584 238.413L183.645 238.471L186.797 240.964L190.589 248.768C190.691 248.977 190.928 249.077 191.143 249.012L191.214 248.984C191.423 248.883 191.523 248.646 191.458 248.43L191.43 248.359L187.59 240.459C187.57 240.417 187.543 240.378 187.511 240.344L187.46 240.297L184.225 237.738Z" fill="#DD936F"/>
<rect x="83.0361" y="293.428" width="109.125" height="19.1508" rx="9.5754" fill="#FF7B31"/>
<rect x="128.552" y="312.935" width="11.379" height="117.041" fill="#090E3C"/>
<path d="M105.794 448.263C105.794 445.327 106.519 442.421 107.928 439.709C109.338 436.997 111.403 434.533 114.007 432.458C116.611 430.382 119.702 428.736 123.104 427.613C126.506 426.489 130.153 425.911 133.835 425.911C137.517 425.911 141.164 426.489 144.566 427.613C147.968 428.736 151.059 430.382 153.663 432.458C156.267 434.533 158.332 436.997 159.741 439.709C161.151 442.421 161.876 445.327 161.876 448.263L133.835 448.263H105.794Z" fill="#090E3B"/>
<rect x="110.671" y="404.779" width="44.703" height="2.43835" fill="#090E3B"/>
<path d="M497.977 423.707C431.768 423.707 378.092 410.049 378.092 396.041V428.299C378.129 442.298 431.786 455.984 497.977 455.984C564.167 455.984 617.825 442.298 617.862 428.299V396.041C617.862 410.049 564.186 423.707 497.977 423.707Z" fill="#E4AF18"/>
<path d="M484.144 372.986C417.935 372.986 364.259 359.328 364.259 345.32V377.578C364.296 391.577 417.953 405.263 484.144 405.263C550.334 405.263 603.992 391.577 604.029 377.578V345.32C604.029 359.328 550.353 372.986 484.144 372.986Z" fill="#F4BF1A"/>
<path d="M511.81 322.265C445.601 322.265 391.925 308.607 391.925 294.599V326.857C391.962 340.856 445.619 354.542 511.81 354.542C578 354.542 631.658 340.856 631.695 326.857V294.599C631.695 308.607 578.019 322.265 511.81 322.265Z" fill="#E4AF18"/>
<path d="M604.029 239.868C604.029 253.871 550.353 266.934 484.144 266.934C417.935 266.934 364.259 253.871 364.259 239.868C364.259 225.86 417.935 216.213 484.144 216.213C550.353 216.213 604.029 225.86 604.029 239.868Z" fill="#FFD949"/>
<path d="M484.144 266.934C417.935 266.934 364.259 253.276 364.259 239.268V271.526C364.296 285.525 417.953 299.211 484.144 299.211C550.334 299.211 603.992 285.525 604.029 271.526V239.268C604.029 253.276 550.353 266.934 484.144 266.934Z" fill="#F4BF1A"/>
<path d="M382.702 253.443V285.697C385.506 286.73 388.577 287.726 391.924 288.675V256.417C388.577 255.467 385.506 254.471 382.702 253.443Z" fill="#DCA815"/>
<path d="M576.363 256.417V288.675C579.71 287.726 582.781 286.73 585.585 285.697V253.443C582.781 254.476 579.71 255.467 576.363 256.417Z" fill="#DCA815"/>
<path d="M405.759 259.765V292.028C408.71 292.642 411.785 293.223 414.981 293.771V261.508C411.785 260.96 408.71 260.379 405.759 259.765Z" fill="#DCA815"/>
<path d="M553.308 261.508V293.776C556.504 293.223 559.579 292.642 562.53 292.028V259.765C559.579 260.379 556.504 260.96 553.308 261.508Z" fill="#DCA815"/>
<path d="M428.812 263.561V295.829C431.819 296.216 434.885 296.576 438.034 296.898V264.631C434.885 264.308 431.819 263.944 428.812 263.561Z" fill="#DCA815"/>
<path d="M530.253 264.635V296.903C533.403 296.576 536.469 296.216 539.475 295.833V263.561C536.469 263.953 533.403 264.313 530.253 264.635Z" fill="#DCA815"/>
<path d="M451.868 265.823V298.095C454.897 298.307 457.968 298.496 461.09 298.648V266.371C457.968 266.219 454.897 266.035 451.868 265.823Z" fill="#DCA815"/>
<path d="M507.199 266.371V298.648C510.32 298.496 513.391 298.307 516.421 298.095V265.823C513.391 266.035 510.32 266.219 507.199 266.371Z" fill="#DCA815"/>
<path d="M484.143 266.935C482.599 266.935 481.063 266.922 479.532 266.908V299.184C481.063 299.198 482.599 299.212 484.143 299.212C485.688 299.212 487.223 299.198 488.754 299.184V266.908C487.223 266.922 485.688 266.935 484.143 266.935Z" fill="#DCA815"/>
<path d="M410.368 308.774V341.028C413.172 342.061 416.243 343.057 419.59 344.007V311.748C416.243 310.799 413.172 309.803 410.368 308.774Z" fill="#C49214"/>
<path d="M604.029 311.748V344.007C607.376 343.057 610.447 342.061 613.251 341.028V308.774C610.447 309.807 607.376 310.799 604.029 311.748Z" fill="#C49214"/>
<path d="M433.423 315.096V347.359C436.374 347.973 439.449 348.554 442.645 349.102V316.839C439.449 316.291 436.374 315.71 433.423 315.096Z" fill="#C49214"/>
<path d="M580.974 316.839V349.107C584.17 348.554 587.245 347.973 590.196 347.359V315.096C587.245 315.71 584.17 316.291 580.974 316.839Z" fill="#C49214"/>
<path d="M456.478 318.897V351.165C459.484 351.552 462.551 351.912 465.7 352.235V319.967C462.551 319.64 459.484 319.28 456.478 318.897Z" fill="#C49214"/>
<path d="M557.92 319.963V352.235C561.069 351.907 564.136 351.548 567.142 351.165V318.897C564.136 319.285 561.069 319.644 557.92 319.963Z" fill="#C49214"/>
<path d="M479.532 321.153V353.425C482.562 353.638 485.633 353.827 488.754 353.979V321.702C485.633 321.55 482.562 321.365 479.532 321.153Z" fill="#C49214"/>
<path d="M534.865 321.702V353.979C537.986 353.827 541.057 353.638 544.087 353.425V321.153C541.057 321.365 537.986 321.55 534.865 321.702Z" fill="#C49214"/>
<path d="M511.81 322.266C510.265 322.266 508.73 322.252 507.199 322.239V354.515C508.73 354.529 510.265 354.543 511.81 354.543C513.354 354.543 514.89 354.529 516.421 354.515V322.239C514.89 322.252 513.354 322.266 511.81 322.266Z" fill="#C49214"/>
<path d="M382.702 359.495V391.749C385.506 392.782 388.577 393.773 391.924 394.727V362.469C388.577 361.519 385.506 360.523 382.702 359.495Z" fill="#DCA815"/>
<path d="M576.363 362.469V394.727C579.71 393.778 582.781 392.782 585.585 391.749V359.495C582.781 360.528 579.71 361.519 576.363 362.469Z" fill="#DCA815"/>
<path d="M405.759 365.817V398.08C408.71 398.694 411.785 399.275 414.981 399.823V367.56C411.785 367.012 408.71 366.431 405.759 365.817Z" fill="#DCA815"/>
<path d="M553.308 367.56V399.828C556.504 399.275 559.579 398.694 562.53 398.08V365.817C559.579 366.431 556.504 367.012 553.308 367.56Z" fill="#DCA815"/>
<path d="M428.812 369.618V401.886C431.819 402.273 434.885 402.633 438.034 402.956V370.688C434.885 370.361 431.819 370.001 428.812 369.618Z" fill="#DCA815"/>
<path d="M530.253 370.684V402.956C533.403 402.628 536.469 402.269 539.475 401.886V369.618C536.469 370.006 533.403 370.365 530.253 370.684Z" fill="#DCA815"/>
<path d="M451.868 371.875V404.147C454.897 404.359 457.968 404.548 461.09 404.7V372.423C457.968 372.271 454.897 372.087 451.868 371.875Z" fill="#DCA815"/>
<path d="M507.199 372.423V404.7C510.32 404.548 513.391 404.359 516.421 404.147V371.875C513.391 372.087 510.32 372.271 507.199 372.423Z" fill="#DCA815"/>
<path d="M484.143 372.987C482.599 372.987 481.063 372.974 479.532 372.96V405.236C481.063 405.25 482.599 405.264 484.143 405.264C485.688 405.264 487.223 405.25 488.754 405.236V372.96C487.223 372.974 485.688 372.987 484.143 372.987Z" fill="#DCA815"/>
<path d="M396.535 410.216V442.47C399.339 443.503 402.41 444.494 405.757 445.448V413.19C402.41 412.24 399.339 411.244 396.535 410.216Z" fill="#C49214"/>
<path d="M590.196 413.19V445.448C593.543 444.499 596.614 443.503 599.418 442.47V410.216C596.614 411.249 593.543 412.24 590.196 413.19Z" fill="#C49214"/>
<path d="M419.59 416.538V448.801C422.541 449.415 425.616 449.995 428.812 450.544V418.281C425.616 417.733 422.541 417.152 419.59 416.538Z" fill="#C49214"/>
<path d="M567.141 418.281V450.549C570.337 449.995 573.412 449.415 576.363 448.801V416.538C573.412 417.152 570.337 417.733 567.141 418.281Z" fill="#C49214"/>
<path d="M442.645 420.338V452.606C445.651 452.993 448.717 453.353 451.866 453.675V421.408C448.717 421.08 445.651 420.721 442.645 420.338Z" fill="#C49214"/>
<path d="M544.086 421.403V453.675C547.236 453.348 550.302 452.988 553.308 452.606V420.338C550.302 420.725 547.236 421.085 544.086 421.403Z" fill="#C49214"/>
<path d="M465.701 422.594V454.866C468.73 455.078 471.801 455.267 474.923 455.419V423.143C471.801 422.991 468.73 422.806 465.701 422.594Z" fill="#C49214"/>
<path d="M521.032 423.143V455.419C524.153 455.267 527.224 455.078 530.254 454.866V422.594C527.224 422.806 524.153 422.991 521.032 423.143Z" fill="#C49214"/>
<path d="M497.976 423.707C496.432 423.707 494.896 423.693 493.365 423.679V455.956C494.896 455.97 496.432 455.984 497.976 455.984C499.521 455.984 501.056 455.97 502.587 455.956V423.679C501.056 423.693 499.521 423.707 497.976 423.707Z" fill="#C49214"/>
<path d="M600.396 383.924C587.301 395.442 540.227 405.263 484.144 405.263C440.294 405.263 401.963 399.255 381.061 391.131C379.138 392.874 378.092 394.718 378.092 396.641C378.092 410.649 431.768 423.707 497.977 423.707C564.19 423.707 617.862 410.649 617.862 396.641C617.862 391.813 611.476 387.497 600.396 383.924Z" fill="#FCC62D"/>
<path d="M511.81 354.541C450.885 354.541 400.612 342.945 392.967 330.181C375.081 334.234 364.259 339.634 364.259 345.919C364.259 359.922 417.935 372.985 484.144 372.985C550.353 372.985 604.029 359.922 604.029 345.919C604.029 345.301 603.891 344.697 603.683 344.097C581.693 350.285 548.707 354.541 511.81 354.541Z" fill="#FFD949"/>
<path d="M599.386 278.687C585.041 289.845 538.895 299.21 484.144 299.21C448.787 299.21 417.013 295.3 395.069 289.527C393.036 291.325 391.925 293.216 391.925 295.199C391.925 309.207 445.601 322.265 511.81 322.265C578.019 322.265 631.695 309.207 631.695 295.199C631.695 288.504 619.416 282.809 599.386 278.687Z" fill="#FCC62D"/>
<path d="M492.642 33.3374C440.601 33.3374 397.583 75.6146 397.583 127.657C397.583 179.699 440.601 222.716 492.642 222.716C544.683 222.716 586.961 179.699 586.961 127.657C586.961 75.6146 544.683 33.3374 492.642 33.3374Z" fill="#FEDB41"/>
<path d="M586.961 127.657C586.961 179.699 544.683 222.716 492.642 222.716V33.3374C544.683 33.3374 586.961 75.6146 586.961 127.657Z" fill="#FFCC33"/>
<path d="M492.642 55.5303C452.916 55.5303 419.776 87.9313 419.776 127.657C419.776 167.382 452.916 200.523 492.642 200.523C532.368 200.523 564.769 167.382 564.769 127.657C564.769 87.9313 532.368 55.5303 492.642 55.5303Z" fill="#FEA832"/>
<path d="M564.769 127.657C564.769 167.382 532.368 200.523 492.642 200.523V55.5303C532.368 55.5303 564.769 87.9313 564.769 127.657Z" fill="#FE9923"/>
<path d="M503.739 122.108H498.191V99.9154H503.739C506.846 99.9154 509.287 102.356 509.287 105.464C509.287 112.787 520.383 112.787 520.383 105.464C520.383 96.2532 512.949 88.819 503.739 88.819H498.191V83.2708C498.191 79.6087 495.416 77.7227 492.642 77.7227C489.868 77.7227 487.094 79.6087 487.094 83.2708V88.819H480.806C471.595 88.819 464.162 96.2532 464.162 105.464V116.56C464.162 125.77 471.595 133.205 480.806 133.205H487.094V156.137H480.806C477.699 156.137 475.258 153.696 475.258 150.589C475.258 143.266 464.162 143.266 464.162 150.589C464.162 159.799 471.595 167.233 480.806 167.233H487.094V172.782C487.094 176.444 489.868 178.33 492.642 178.33C495.416 178.33 498.191 176.444 498.191 172.782V167.233H503.739C512.949 167.233 520.383 159.799 520.383 150.589V138.753C520.383 129.542 512.949 122.108 503.739 122.108ZM487.094 122.108H480.806C477.699 122.108 475.258 119.667 475.258 116.56V105.464C475.258 102.356 477.699 99.9154 480.806 99.9154H487.094V122.108ZM509.287 150.589C509.287 153.696 506.846 156.137 503.739 156.137H498.191V133.205H503.739C506.846 133.205 509.287 135.645 509.287 138.753V150.589Z" fill="#FEDB41"/>
<path d="M503.738 122.108H498.19V99.9154H503.738C506.846 99.9154 509.287 102.356 509.287 105.464C509.287 112.787 520.383 112.787 520.383 105.464C520.383 96.2532 512.949 88.819 503.738 88.819H498.19V83.2708C498.19 79.6087 495.416 77.7227 492.642 77.7227V178.33C495.416 178.33 498.19 176.444 498.19 172.782V167.233H503.738C512.949 167.233 520.383 159.799 520.383 150.589V138.753C520.383 129.542 512.949 122.108 503.738 122.108ZM509.287 150.589C509.287 153.696 506.846 156.137 503.738 156.137H498.19V133.205H503.738C506.846 133.205 509.287 135.645 509.287 138.753V150.589Z" fill="#FFCC33"/>
<path fill-rule="evenodd" clip-rule="evenodd" d="M608.591 167.2L618.622 183.205L667.209 155.797C674.24 152.025 676.691 143.145 672.595 136.299C668.497 129.454 659.51 127.42 652.865 131.835L608.591 167.2Z" fill="white"/>
<path d="M608.675 166.541C608.906 166.413 609.193 166.479 609.346 166.686L609.385 166.745L618.436 183.112C618.575 183.365 618.484 183.683 618.231 183.823C618 183.951 617.713 183.885 617.559 183.678L617.521 183.618L608.47 167.251C608.33 166.999 608.422 166.681 608.675 166.541Z" fill="#597EF7"/>
<path d="M619.054 162.545C619.276 162.405 619.563 162.452 619.729 162.646L619.775 162.708L628.423 176.404C628.577 176.648 628.505 176.971 628.26 177.125C628.039 177.265 627.752 177.218 627.586 177.024L627.539 176.962L618.891 163.266C618.737 163.022 618.81 162.699 619.054 162.545Z" fill="#808080"/>
<path fill-rule="evenodd" clip-rule="evenodd" d="M620.471 176.349C619.701 176.811 619.449 177.811 619.911 178.581C620.373 179.353 621.372 179.604 622.144 179.142C622.915 178.68 623.166 177.681 622.704 176.91C622.242 176.138 621.243 175.887 620.471 176.349Z" fill="white"/>
<path fill-rule="evenodd" clip-rule="evenodd" d="M667.225 151.923C673.291 147.366 674.651 138.82 670.297 132.607L633.647 80.2757C628.395 72.7774 617.976 71.1195 610.657 76.618C603.337 82.1165 602.028 92.5846 607.765 99.717L647.818 149.494C652.572 155.405 661.159 156.479 667.225 151.923Z" fill="white"/>
<path fill-rule="evenodd" clip-rule="evenodd" d="M553.715 237.445C553.715 237.445 543.709 226.224 546.449 219.711C548.931 213.813 556.885 215.961 556.885 215.961C556.885 215.961 562.913 218.349 568.702 222.683C572.496 225.524 580.513 229.849 579.581 232.181C578.365 235.222 570.89 229.463 568.827 230.657C564.648 233.076 575.456 243.375 576.312 245.986C577.986 251.088 565.616 250.998 553.715 237.445Z" fill="#997C79"/>
<path d="M564.791 236.475C564.955 236.391 565.157 236.456 565.241 236.62L565.299 236.73C565.346 236.818 565.41 236.935 565.491 237.078L565.555 237.191C565.817 237.65 566.127 238.163 566.484 238.715C567.504 240.292 568.694 241.87 570.041 243.342C571.424 244.853 572.897 246.166 574.451 247.222C574.604 247.326 574.643 247.534 574.539 247.687C574.435 247.84 574.227 247.88 574.075 247.776C572.474 246.688 570.964 245.341 569.548 243.794C568.174 242.292 566.962 240.685 565.922 239.078C565.619 238.609 565.348 238.168 565.112 237.762L564.848 237.3C564.754 237.131 564.686 237.004 564.646 236.925C564.562 236.761 564.626 236.559 564.791 236.475Z" fill="#4E5C93"/>
<path d="M560.704 237.618C560.86 237.518 561.067 237.563 561.167 237.718C561.351 238.004 561.538 238.286 561.727 238.564C563.719 241.502 565.852 243.917 567.984 245.842C568.728 246.515 569.419 247.078 570.038 247.536C570.199 247.655 570.347 247.761 570.48 247.853L570.78 248.053C570.789 248.059 570.797 248.064 570.803 248.068C570.96 248.165 571.009 248.371 570.912 248.528C570.815 248.686 570.609 248.734 570.452 248.637L570.293 248.535L570.234 248.495C570.062 248.379 569.863 248.239 569.64 248.073C569.004 247.603 568.296 247.026 567.535 246.339C565.365 244.379 563.196 241.924 561.173 238.939C560.982 238.657 560.792 238.371 560.605 238.081C560.505 237.926 560.549 237.718 560.704 237.618Z" fill="#4E5C93"/>
<path d="M556.752 237.479C556.914 237.389 557.117 237.447 557.207 237.609L557.294 237.757C557.357 237.861 557.446 238.002 557.561 238.177C557.872 238.65 558.263 239.196 558.74 239.81C560.107 241.568 561.889 243.507 564.131 245.57C564.267 245.695 564.276 245.907 564.151 246.043C564.026 246.179 563.814 246.188 563.678 246.063C561.409 243.974 559.602 242.008 558.212 240.22C557.785 239.671 557.424 239.173 557.126 238.731L557.002 238.545C556.918 238.417 556.843 238.3 556.779 238.196L556.622 237.934C556.533 237.772 556.591 237.569 556.752 237.479Z" fill="#4E5C93"/>
<path fill-rule="evenodd" clip-rule="evenodd" d="M596.609 75.045L566.147 75.8739L567.111 37.2756L593.393 36.5083L596.609 75.045Z" fill="#FFC999"/>
<path fill-rule="evenodd" clip-rule="evenodd" d="M564.84 34.3974C566.069 38.0143 564.865 40.2859 562.818 40.7876C560.183 41.4326 557.232 38.768 555.737 35.2525C553.62 30.2704 555.5 27.1616 558.594 27.219C561.154 27.265 563.611 30.7805 564.84 34.3974Z" fill="#FFC999"/>
<path fill-rule="evenodd" clip-rule="evenodd" d="M595.492 33.5029C594.476 37.1856 595.812 39.3829 597.884 39.7634C600.553 40.2547 603.344 37.4218 604.63 33.8248C606.452 28.7277 604.393 25.7338 601.308 25.9711C598.756 26.1677 596.508 29.8201 595.492 33.5029Z" fill="#FFC999"/>
<path fill-rule="evenodd" clip-rule="evenodd" d="M600.107 27.5837C600.562 43.1322 593.149 55.9627 580.597 56.3297C568.789 56.6746 560.61 44.2821 559.44 28.7712C557.837 7.51306 567.144 0.370203 578.951 0.0252385C590.758 -0.319726 599.497 6.68827 600.107 27.5837Z" fill="#FFC999"/>
<path fill-rule="evenodd" clip-rule="evenodd" d="M563.164 12.987L595.181 11.9782C595.181 11.9782 595.922 15.4895 596.519 20.8218C600.774 25.3597 600.085 32.005 600.085 32.005C600.085 32.005 605.36 -0.761108 578.833 0.0134935C551.815 0.80273 559.941 33.1779 559.941 33.1779C559.675 24.0572 562.4 22.0972 562.4 22.0972C562.4 22.0972 562.728 18.2263 563.164 12.987Z" fill="#1F1F1F"/>
<path d="M566.006 22.8154L575.584 23.1092C575.873 23.118 576.1 23.3591 576.091 23.6476C576.083 23.9121 575.88 24.1247 575.623 24.1514L575.552 24.154L566.131 23.8651L564.531 24.8624C564.308 25.0011 564.022 24.9518 563.857 24.7577L563.811 24.6951C563.672 24.4723 563.722 24.1857 563.916 24.0208L563.978 23.9751L565.714 22.8942C565.779 22.8533 565.853 22.8277 565.929 22.8187L566.006 22.8154Z" fill="#1F1F1F"/>
<path d="M593.049 22.0239C593.12 22.0208 593.191 22.0324 593.257 22.0575L593.321 22.0872L595.116 23.0656C595.37 23.2038 595.463 23.5213 595.325 23.7747C595.198 24.0071 594.921 24.105 594.68 24.0132L594.616 23.9835L592.948 23.0742L583.668 23.476C583.403 23.4874 583.176 23.3004 583.131 23.047L583.123 22.9764C583.112 22.712 583.299 22.485 583.552 22.4394L583.623 22.4316L593.049 22.0239Z" fill="#1F1F1F"/>
<path fill-rule="evenodd" clip-rule="evenodd" d="M561.123 38.1866C561.123 38.1866 562.949 38.4647 564.129 40.3076C565.517 42.4746 567.667 45.504 567.667 45.504C567.667 45.504 568.695 40.8606 571.665 39.163C573.447 38.1448 576.115 37.3284 580.09 37.3231C583.842 37.3179 586.481 38.0946 588.312 39.0678C591.364 40.6913 593.275 45.1977 593.275 45.1977C593.275 45.1977 594.842 43.3851 596.08 40.4048C597.301 37.4643 597.327 37.7183 599.225 37.2207C597.719 46.0988 591.677 55.992 580.497 56.3181C567.455 56.6997 562.922 44.3176 561.123 38.1866Z" fill="#202020"/>
<path d="M581.986 46.7712C582.275 46.7628 582.516 46.9898 582.524 47.2783C582.532 47.5428 582.342 47.7672 582.088 47.8093L582.017 47.8161L578.633 47.9154C578.345 47.9239 578.104 47.6969 578.095 47.4083C578.088 47.1438 578.278 46.9195 578.532 46.8774L578.603 46.8705L581.986 46.7712Z" fill="#DD936F"/>
<path d="M575.722 23.7124C575.974 23.6327 576.242 23.7542 576.352 23.9871L576.378 24.0533L577.351 27.1318C577.363 27.1702 577.371 27.2098 577.374 27.2499L577.375 27.3101L576.981 37.2005L582.128 37.05C582.393 37.0422 582.617 37.2324 582.659 37.4864L582.666 37.5571C582.674 37.8216 582.484 38.046 582.23 38.088L582.159 38.0949L576.452 38.2621C576.173 38.2703 575.941 38.0584 575.916 37.7877L575.915 37.7189L576.327 27.3603L575.381 24.3684C575.302 24.1161 575.423 23.8483 575.656 23.7384L575.722 23.7124Z" fill="#DD936F"/>
<path fill-rule="evenodd" clip-rule="evenodd" d="M572.523 30.2874C572.564 31.709 571.742 32.8872 570.686 32.9175C569.629 32.9488 568.741 31.8209 568.699 30.3992C568.657 28.9776 569.48 27.7995 570.535 27.7692C571.591 27.7388 572.482 28.8657 572.523 30.2874Z" fill="#262727"/>
<path fill-rule="evenodd" clip-rule="evenodd" d="M590.616 29.7586C590.658 31.1802 589.836 32.3583 588.78 32.3887C587.723 32.42 586.833 31.2921 586.793 29.8704C586.751 28.4488 587.573 27.2707 588.629 27.2403C589.685 27.21 590.576 28.3369 590.616 29.7586Z" fill="#262727"/>
<path fill-rule="evenodd" clip-rule="evenodd" d="M573.939 41.5135C573.939 41.5135 578.353 41.8219 585.124 41.2563C585.124 41.2563 584.106 44.0485 579.229 44.0328C575.402 44.0203 573.939 41.5135 573.939 41.5135Z" fill="white"/>
<path d="M585.08 40.7358L584.078 40.8148C580.612 41.0713 577.594 41.1216 575.166 41.0452L574.481 41.0194L573.975 40.9924C573.556 40.9631 573.276 41.4147 573.487 41.7773C573.704 42.1492 574.145 42.6748 574.844 43.1932C575.986 44.0407 577.442 44.5499 579.227 44.5558C581.483 44.563 583.165 44.0024 584.341 43.0513C585.065 42.4659 585.458 41.8662 585.615 41.4357C585.746 41.0772 585.461 40.704 585.08 40.7358ZM584.089 41.862L583.99 41.9653C583.896 42.0577 583.794 42.149 583.684 42.2385C582.7 43.0344 581.252 43.5169 579.231 43.5104C577.675 43.5053 576.434 43.0714 575.467 42.3537L575.271 42.2018L575.141 42.0899L575.488 42.1002C577.768 42.1591 580.525 42.1098 583.656 41.893L584.089 41.862Z" fill="#DD936F"/>
<path d="M590.681 51.8959C590.832 51.7403 591.08 51.736 591.236 51.8865C591.391 52.037 591.396 52.2851 591.245 52.4408C588.871 54.897 585.35 56.5699 580.51 56.7113C575.717 56.8513 571.936 55.3619 569.115 52.9602C568.951 52.8199 568.931 52.5725 569.071 52.4076C569.211 52.2428 569.459 52.223 569.624 52.3633C572.303 54.6451 575.9 56.0616 580.487 55.9276C585.115 55.7924 588.445 54.2102 590.681 51.8959Z" fill="#202020"/>
<path fill-rule="evenodd" clip-rule="evenodd" d="M616.585 153.864L625.993 74.7553C624.196 73.0179 616.575 69.7847 594.699 66.2284C590.036 65.4695 585.361 72.9824 580.416 73.2186C577.072 73.3775 570.682 65.7204 567.882 66.1312C551.039 68.6076 542.166 71.7322 534.556 75.1473L546.917 138.329L550.135 154.452C550.135 154.452 547.608 166.809 553.656 169.169C617.23 169.169 611.839 168.58 611.839 168.58C611.839 168.58 620.869 165.188 616.585 153.864Z" fill="white"/>
<path fill-rule="evenodd" clip-rule="evenodd" d="M566.192 62.979L560.4 69.019L570.479 83.0225L581.222 72.2794L566.192 62.979Z" fill="white"/>
<path fill-rule="evenodd" clip-rule="evenodd" d="M573.027 80.7051L581.224 72.3643L589.419 80.8525L585.709 89.0386L576.469 88.932L573.027 80.7051Z" fill="#253368"/>
<path fill-rule="evenodd" clip-rule="evenodd" d="M576.517 88.8608L585.654 88.6904L594.264 141.611C594.338 142.068 594.239 142.535 593.986 142.923L583.807 158.501C583.08 159.614 581.452 159.622 580.713 158.516L570.03 142.537C569.78 142.164 569.674 141.714 569.732 141.268L576.517 88.8608Z" fill="#253368"/>
<path d="M561.16 68.5809C561.379 68.4373 561.667 68.4802 561.836 68.6707L561.883 68.7323L570.527 81.9502L580.861 71.9882C581.05 71.8061 581.34 71.7945 581.542 71.9501L581.6 72.0017C581.782 72.1906 581.794 72.4813 581.638 72.6831L581.586 72.7408L570.798 83.142C570.58 83.352 570.236 83.3312 570.043 83.1109L569.998 83.0518L561.008 69.3044C560.85 69.0628 560.918 68.7389 561.16 68.5809Z" fill="#808080"/>
<path fill-rule="evenodd" clip-rule="evenodd" d="M596.036 62.979L600.782 69.019L591.749 83.0225L581.006 72.2794L596.036 62.979Z" fill="white"/>
<path d="M599.284 68.7568C599.428 68.5069 599.748 68.4214 599.998 68.5658C600.227 68.6982 600.318 68.9779 600.22 69.2161L600.189 69.2799L592.244 83.0272C592.087 83.2987 591.734 83.3676 591.488 83.1912L591.429 83.142L580.641 72.7408C580.433 72.5404 580.427 72.2095 580.627 72.0017C580.81 71.8128 581.1 71.7907 581.307 71.9387L581.366 71.9883L591.673 81.9258L599.284 68.7568Z" fill="#808080"/>
<path d="M585.91 88.4248C586.055 88.4248 586.172 88.5418 586.172 88.6861C586.172 88.8124 586.082 88.9178 585.963 88.9422L585.91 88.9475H576.159C576.015 88.9475 575.898 88.8305 575.898 88.6861C575.898 88.5599 575.988 88.4545 576.107 88.4301L576.159 88.4248H585.91Z" fill="#597EF7"/>
<path d="M621.669 98.0076C621.957 97.9981 622.199 98.2238 622.21 98.5123C622.398 103.901 622.213 110.235 621.708 117.323C621.255 123.665 620.561 130.413 619.691 137.328C619.164 141.507 618.603 145.514 618.04 149.232L617.703 151.421C617.591 152.136 617.484 152.805 617.383 153.426L617.122 154.998L617.218 155.3L617.25 155.404C617.377 155.825 617.504 156.296 617.622 156.807C618.02 158.527 618.228 160.266 618.145 161.9C617.945 165.828 616.091 168.484 612.152 169.097C611.867 169.141 611.6 168.946 611.556 168.661C611.511 168.375 611.707 168.108 611.992 168.064C615.379 167.537 616.924 165.324 617.101 161.847C617.179 160.322 616.981 158.675 616.603 157.042C616.513 156.653 616.418 156.287 616.322 155.952L616.192 155.52C616.148 155.379 616.114 155.277 616.092 155.216C616.062 155.131 616.055 155.04 616.07 154.952L616.291 153.624C616.409 152.905 616.536 152.115 616.67 151.259L616.877 149.926C617.482 145.98 618.088 141.688 618.653 137.197C619.522 130.299 620.214 123.57 620.665 117.249C621.168 110.195 621.352 103.896 621.165 98.5489C621.155 98.2604 621.38 98.0184 621.669 98.0076Z" fill="#808080"/>
<path fill-rule="evenodd" clip-rule="evenodd" d="M502.674 158.065C496.04 154.383 493.522 146.105 496.981 139.353L526.108 82.4893C530.281 74.3419 540.374 71.2707 548.38 75.7134C556.384 80.1551 559.116 90.3451 554.41 98.1978L521.564 152.997C517.665 159.504 509.308 161.746 502.674 158.065Z" fill="white"/>
<path fill-rule="evenodd" clip-rule="evenodd" d="M533.32 438.543C533.32 438.543 524.587 455.669 507.032 458.552C495.538 460.44 506.633 471.452 526.803 468.199C538.3 466.343 536.012 460.421 542.363 460.622C546.044 460.739 553.509 459.087 553.963 456.315C554.756 451.47 553.994 449.003 554.207 443.304C555.247 415.557 545.678 409.192 533.32 438.543Z" fill="#050505"/>
<path fill-rule="evenodd" clip-rule="evenodd" d="M552.57 336.343C543.558 335.597 536.768 327.825 537.239 318.793L544.321 216.837C545.061 206.18 554.486 198.259 565.11 199.363C575.543 200.447 583.093 209.823 581.925 220.246L570.562 321.675C569.482 330.606 561.535 337.084 552.57 336.343Z" fill="#212121"/>
<path fill-rule="evenodd" clip-rule="evenodd" d="M554.778 441.315L569.94 324.198C571.168 314.714 564.131 306.164 554.587 305.543C545.373 304.945 537.448 311.997 536.973 321.218L530.877 439.339C530.877 439.339 540.003 445.611 554.778 441.315Z" fill="#212121"/>
<path fill-rule="evenodd" clip-rule="evenodd" d="M611.539 440.05C611.539 440.05 619.613 457.497 637.043 461.047C648.456 463.373 636.951 473.952 616.92 469.932C605.502 467.64 608.013 461.809 601.66 461.768C597.976 461.744 590.579 459.809 590.231 457.021C589.624 452.15 590.48 449.713 590.484 444.011C590.505 416.243 600.308 410.248 611.539 440.05Z" fill="#050505"/>
<path fill-rule="evenodd" clip-rule="evenodd" d="M602.978 335.201C612.036 335.329 619.512 328.147 619.749 319.09L622.419 217.111C622.725 206.6 614.382 197.864 603.868 197.687C593.201 197.508 584.505 206.199 584.678 216.866L586.667 318.98C586.841 327.901 594.057 335.076 602.978 335.201Z" fill="#212121"/>
<path fill-rule="evenodd" clip-rule="evenodd" d="M590.362 439.185L586.561 321.152C586.254 311.593 594.082 303.76 603.64 304.063C612.869 304.356 620.078 312.139 619.662 321.364L614.342 439.521C614.342 439.521 604.654 444.884 590.362 439.185Z" fill="#212121"/>
<path fill-rule="evenodd" clip-rule="evenodd" d="M614.162 176.037H550.987L552.032 168.581H613.117L614.162 176.037Z" fill="black"/>
<path fill-rule="evenodd" clip-rule="evenodd" d="M622.56 215.05C621.525 186.41 614.034 174.991 614.034 174.991H551.474C551.474 174.991 543.572 194.043 545.095 218.416C555.986 225.186 577.593 226.541 577.593 226.541C579.22 227.33 588.811 227.689 590.415 226.94C590.415 226.94 619.911 219.563 622.56 215.05Z" fill="#212121"/>
<path fill-rule="evenodd" clip-rule="evenodd" d="M590.009 177.345H576.137C574.578 177.345 573.304 176.07 573.304 174.512V169.36C573.304 167.801 574.578 166.526 576.137 166.526H590.009C591.567 166.526 592.843 167.801 592.843 169.36V174.512C592.843 176.07 591.567 177.345 590.009 177.345Z" fill="white"/>
<path fill-rule="evenodd" clip-rule="evenodd" d="M588.516 175.598H577.377C576.44 175.598 575.674 174.832 575.674 173.895V170.082C575.674 169.145 576.44 168.379 577.377 168.379H588.516C589.453 168.379 590.219 169.145 590.219 170.082V173.895C590.219 174.832 589.453 175.598 588.516 175.598Z" fill="black"/>
<path d="M581.432 226.041H581.502L588.272 226.631C588.56 226.656 588.773 226.909 588.748 227.197C588.725 227.46 588.51 227.661 588.253 227.673L588.182 227.672L581.911 227.126L554.593 441.617C554.57 441.794 554.459 441.946 554.301 442.022L554.23 442.05L553.987 442.122L553.672 442.211C553.559 442.242 553.439 442.274 553.311 442.308C552.584 442.499 551.765 442.69 550.872 442.868C547.342 443.573 543.737 443.879 540.36 443.559C536.215 443.166 532.779 441.85 530.31 439.416C530.104 439.214 530.102 438.883 530.304 438.677C530.507 438.471 530.838 438.469 531.043 438.672C533.319 440.915 536.534 442.146 540.458 442.518C543.72 442.828 547.229 442.53 550.668 441.843C551.415 441.694 552.108 441.536 552.737 441.377L553.225 441.249L553.599 441.146L580.938 226.497C580.967 226.267 581.141 226.09 581.359 226.049L581.432 226.041Z" fill="#212121"/>
<path d="M541.23 96.0452C541.519 96.0415 541.756 96.2722 541.76 96.5608C541.789 98.673 541.864 100.838 541.984 103.051C542.544 113.434 544.044 124.544 546.193 135.796C547.166 140.892 548.208 145.678 549.251 150.015L549.675 151.756C549.812 152.309 549.945 152.835 550.072 153.332L550.436 154.736L550.639 155.491C550.659 155.562 550.663 155.637 550.652 155.71L550.609 156.021L550.56 156.433C550.544 156.579 550.528 156.734 550.513 156.896C550.322 158.925 550.304 161.071 550.571 163.071C550.863 165.256 551.472 167.033 552.442 168.255C552.621 168.481 552.583 168.81 552.357 168.989C552.131 169.169 551.802 169.131 551.623 168.905C550.517 167.51 549.849 165.565 549.535 163.21C549.256 161.12 549.275 158.899 549.472 156.799C549.496 156.545 549.521 156.311 549.547 156.096L549.602 155.662L549.369 154.788L549.059 153.591C548.868 152.842 548.664 152.028 548.451 151.154L548.234 150.259C547.188 145.907 546.142 141.105 545.166 135.992C543.009 124.697 541.503 113.543 540.94 103.108C540.82 100.88 540.744 98.7017 540.714 96.5753C540.711 96.2867 540.941 96.0495 541.23 96.0452Z" fill="#808080"/>
<path fill-rule="evenodd" clip-rule="evenodd" d="M609.328 166.11C609.328 166.11 617.403 158.432 620.084 158.742C624.24 159.224 621.322 167.258 621.322 167.258C621.322 167.258 624.848 169.644 622.455 173.717C623.899 177.715 621.677 179.599 621.677 179.599C621.677 179.599 623.959 182.65 620.632 185.065C617.306 187.479 609.82 186.677 611 181.487C608.03 178.563 610.543 175.723 610.543 175.723C610.543 175.723 608.396 172.949 610.906 170.248C608.733 168.98 608.492 166.92 609.328 166.11Z" fill="#FFC999"/>
<path d="M618.735 165.375C618.923 165.269 619.163 165.335 619.269 165.524C619.364 165.692 619.322 165.899 619.179 166.018L619.121 166.058L611.099 170.589C610.91 170.695 610.671 170.629 610.564 170.44C610.47 170.273 610.512 170.065 610.655 169.946L610.713 169.906L618.735 165.375Z" fill="#604346"/>
<path d="M618.15 173.275C618.359 173.219 618.574 173.343 618.63 173.552C618.68 173.741 618.585 173.934 618.413 174.011L618.353 174.033L610.645 176.101C610.435 176.158 610.22 176.034 610.164 175.824C610.114 175.636 610.209 175.443 610.381 175.366L610.441 175.344L618.15 173.275Z" fill="#604346"/>
<path d="M618.355 179.849C618.569 179.813 618.771 179.957 618.807 180.17C618.839 180.363 618.726 180.546 618.547 180.606L618.486 180.622L611.065 181.873C610.851 181.909 610.649 181.766 610.613 181.552C610.581 181.36 610.694 181.177 610.872 181.116L610.934 181.1L618.355 179.849Z" fill="#604346"/>
<path d="M652.536 131.428C652.76 131.246 653.089 131.281 653.271 131.505C653.436 131.709 653.423 131.999 653.251 132.187L653.195 132.24L641.815 141.479C641.591 141.661 641.262 141.627 641.08 141.402C640.914 141.199 640.928 140.908 641.1 140.72L641.156 140.667L652.536 131.428Z" fill="#808080"/>
<path fill-rule="evenodd" clip-rule="evenodd" d="M592.54 112.867H578.605C577.223 112.867 576.078 111.792 575.993 110.412L574.187 81.475C574.094 79.9686 575.29 78.6943 576.8 78.6943H594.346C595.855 78.6943 597.051 79.9686 596.958 81.475L595.153 110.412C595.067 111.792 593.922 112.867 592.54 112.867Z" fill="#4E5C93"/>
<path fill-rule="evenodd" clip-rule="evenodd" d="M576.932 118.865C576.932 118.865 563.683 122.877 559.305 118.065C555.34 113.707 560.215 107.895 560.215 107.895C560.215 107.895 563.966 105.419 569.056 101.588C571.676 99.6149 574.515 92.609 574.606 94.9203C574.787 99.5313 574.926 100.877 575.125 103.061C575.526 107.49 590.307 103.001 592.819 103.298C597.73 103.877 592.863 114.173 576.932 118.865Z" fill="#FFC999"/>
<path d="M593.089 105.26C593.274 105.149 593.515 105.209 593.626 105.395C593.737 105.581 593.677 105.821 593.491 105.933C592.594 106.47 591.632 106.948 590.613 107.371C588.452 108.269 586.14 108.882 583.829 109.263C583.155 109.374 582.521 109.459 581.938 109.52L581.594 109.554C581.417 109.571 581.254 109.584 581.107 109.595L580.825 109.613C580.786 109.615 580.757 109.617 580.736 109.617C580.52 109.626 580.337 109.457 580.329 109.241C580.321 109.046 580.457 108.879 580.642 108.842L580.725 108.833L580.914 108.822L581.354 108.789L581.521 108.774C582.179 108.712 582.912 108.62 583.701 108.489C585.957 108.117 588.212 107.52 590.313 106.647C591.297 106.238 592.225 105.777 593.089 105.26Z" fill="#604346"/>
<path d="M592.378 108.636C592.558 108.517 592.802 108.566 592.921 108.747C593.04 108.928 592.99 109.171 592.81 109.29L592.647 109.393C592.598 109.422 592.541 109.456 592.476 109.495C592.207 109.653 591.888 109.828 591.52 110.017C590.473 110.553 589.239 111.089 587.827 111.588C585.513 112.406 582.947 113.046 580.143 113.439C579.928 113.469 579.73 113.319 579.7 113.105C579.67 112.89 579.82 112.692 580.034 112.662C582.785 112.277 585.3 111.65 587.566 110.849C588.944 110.362 590.146 109.84 591.163 109.319C591.446 109.174 591.698 109.037 591.919 108.911L592.236 108.725C592.302 108.685 592.349 108.655 592.378 108.636Z" fill="#604346"/>
<path d="M587.722 113.233C587.922 113.15 588.151 113.245 588.234 113.445C588.317 113.645 588.222 113.875 588.022 113.958C585.394 115.047 583.047 115.795 581.011 116.265C580.296 116.43 579.67 116.548 579.137 116.627L578.816 116.672C578.661 116.692 578.546 116.703 578.473 116.709C578.257 116.724 578.069 116.562 578.053 116.346C578.038 116.13 578.2 115.942 578.416 115.927L578.571 115.912C578.681 115.899 578.832 115.88 579.022 115.852C579.534 115.776 580.14 115.661 580.835 115.501C582.829 115.041 585.135 114.306 587.722 113.233Z" fill="#604346"/>
<path fill-rule="evenodd" clip-rule="evenodd" d="M562.06 105.573L570.496 124.476L514.078 160.03C506.64 162.92 498.299 159.011 495.76 151.446C493.222 143.883 498.498 133.735 506.173 131.556L562.06 105.573Z" fill="white"/>
<path d="M552.216 112.688C552.461 112.588 552.738 112.688 552.866 112.911L552.898 112.975L559.055 128.096C559.163 128.363 559.035 128.668 558.768 128.777C558.523 128.877 558.246 128.777 558.118 128.554L558.086 128.49L551.929 113.369C551.82 113.102 551.949 112.797 552.216 112.688Z" fill="#808080"/>
<path fill-rule="evenodd" clip-rule="evenodd" d="M562.545 120.402C563.397 120.116 564.319 120.575 564.605 121.427C564.892 122.279 564.433 123.202 563.58 123.487C562.728 123.774 561.805 123.315 561.519 122.462C561.233 121.61 561.693 120.688 562.545 120.402Z" fill="white"/>
<path d="M561.815 105.389C562.055 105.279 562.336 105.367 562.473 105.584L562.507 105.647L570.74 123.641C570.837 123.854 570.781 124.101 570.61 124.251L570.549 124.297L515.229 160.189C514.987 160.346 514.664 160.278 514.506 160.035C514.364 159.815 514.408 159.528 514.599 159.359L514.66 159.312L569.601 123.666L561.773 106.556L504.866 132.467C504.625 132.577 504.345 132.489 504.207 132.271L504.174 132.208C504.064 131.968 504.152 131.687 504.37 131.55L504.433 131.516L561.815 105.389Z" fill="#808080"/>
<path fill-rule="evenodd" clip-rule="evenodd" d="M592.54 114.367H578.605C577.223 114.367 576.078 113.292 575.993 111.912L574.187 82.9749C574.094 81.4686 575.29 80.1943 576.8 80.1943H594.346C595.855 80.1943 597.051 81.4686 596.958 82.9749L595.153 111.912C595.067 113.292 593.922 114.367 592.54 114.367Z" fill="#6FCC4E"/>
<path d="M255.346 166.645C282.032 125.329 420.991 66.9058 555.262 80.8857" stroke="#D0D0D0" stroke-width="2" stroke-dasharray="5 5"/>
<mask id="path-177-inside-1" fill="white">
<path d="M349.096 106.666L354.823 100.938L344.93 91.0449L329.31 106.666"/>
</mask>
<path d="M349.096 106.666L354.823 100.938L344.93 91.0449L329.31 106.666" fill="#78B75B"/>
<path d="M354.823 100.938L355.53 101.645L356.238 100.938L355.53 100.231L354.823 100.938ZM344.93 91.0449L345.637 90.3378L344.93 89.6307L344.223 90.3378L344.93 91.0449ZM349.803 107.373L355.53 101.645L354.116 100.231L348.389 105.958L349.803 107.373ZM355.53 100.231L345.637 90.3378L344.223 91.752L354.116 101.645L355.53 100.231ZM344.223 90.3378L328.602 105.958L330.017 107.373L345.637 91.752L344.223 90.3378Z" fill="#4C9D2A" mask="url(#path-177-inside-1)"/>
<path d="M334.999 106.005C334.999 104.672 335.507 103.34 336.524 102.323C338.557 100.29 341.854 100.29 343.888 102.323C344.905 103.34 345.413 104.672 345.413 106.005" fill="#F1D9A9"/>
<path d="M343.76 106.742C343.76 106.186 343.544 105.662 343.15 105.269C342.364 104.482 340.991 104.482 340.206 105.269L338.733 103.796C339.139 103.39 339.799 103.39 340.206 103.796L340.941 103.059C340.13 102.248 338.809 102.248 337.996 103.059L337.628 102.691L336.891 103.428L337.26 103.797C336.866 104.19 336.65 104.712 336.65 105.269C336.65 105.825 336.867 106.348 337.261 106.742C337.654 107.135 338.177 107.352 338.733 107.352C339.289 107.352 339.812 107.135 340.205 106.742L341.678 108.215C341.272 108.621 340.612 108.62 340.205 108.215L339.469 108.951C339.875 109.357 340.409 109.56 340.942 109.56C341.475 109.56 342.008 109.357 342.414 108.951L342.783 109.32L343.519 108.583L343.151 108.214C343.544 107.82 343.76 107.298 343.76 106.742ZM339.468 106.005C339.076 106.398 338.389 106.398 337.996 106.005C337.8 105.809 337.691 105.547 337.691 105.269C337.691 104.991 337.8 104.73 337.996 104.533L339.468 106.005ZM340.942 106.005C341.335 105.612 342.021 105.612 342.414 106.005C342.611 106.202 342.719 106.463 342.719 106.741C342.719 107.019 342.611 107.281 342.414 107.477L340.942 106.005Z" fill="#FFBB36"/>
<path d="M347.621 101.798L348.357 101.061L349.095 101.797L348.358 102.534L347.621 101.798Z" fill="#96CC7F"/>
<path d="M349.079 100.341L349.815 99.6042L350.552 100.341L349.816 101.077L349.079 100.341Z" fill="#96CC7F"/>
<path d="M343.939 98.1245L344.677 97.3883L345.413 98.1252L344.675 98.8614L343.939 98.1245Z" fill="#96CC7F"/>
<path d="M345.397 96.6577L346.134 95.9213L346.871 96.6581L346.134 97.3944L345.397 96.6577Z" fill="#96CC7F"/>
<path d="M330.122 119.492L332.205 121.575L334.288 119.492" fill="#4C9D2A"/>
<path d="M323.62 105.675H354.861V119.213H323.62V105.675Z" fill="#96CC7F"/>
<path d="M324.12 106.175H354.361V118.713H324.12V106.175Z" stroke="#4C9D2A"/>
<path d="M339.393 117.714C342.269 117.714 344.6 115.383 344.6 112.507C344.6 109.631 342.269 107.3 339.393 107.3C336.518 107.3 334.187 109.631 334.187 112.507C334.187 115.383 336.518 117.714 339.393 117.714Z" fill="#F1D9A9"/>
<path d="M339.914 111.986H339.913V109.904H339.914C340.488 109.904 340.954 110.371 340.954 110.945H341.995C341.995 109.796 341.061 108.862 339.914 108.862H339.913V108.342H338.872V108.862C337.723 108.862 336.789 109.796 336.789 110.945C336.789 112.093 337.723 113.027 338.872 113.027V115.11C338.297 115.11 337.83 114.643 337.83 114.069L336.789 114.069C336.789 115.217 337.723 116.151 338.872 116.151V116.672H339.913V116.151H339.914C341.061 116.151 341.995 115.217 341.995 114.069C341.995 112.92 341.061 111.986 339.914 111.986ZM337.83 110.945C337.83 110.371 338.297 109.904 338.872 109.904V111.986C338.297 111.986 337.83 111.519 337.83 110.945ZM339.914 115.11H339.913V113.027H339.914C340.488 113.027 340.954 113.494 340.954 114.069C340.954 114.643 340.488 115.11 339.914 115.11Z" fill="#FFBB36"/>
<path d="M347.19 114.133H348.231V115.174H347.19V114.133Z" fill="#78B75B"/>
<path d="M349.273 114.133H350.314V115.174H349.273V114.133Z" fill="#78B75B"/>
<path d="M347.19 108.926H348.231V109.967H347.19V108.926Z" fill="#78B75B"/>
<path d="M349.273 108.926H350.314V109.967H349.273V108.926Z" fill="#78B75B"/>
<path d="M327.684 108.926H328.724V109.967H327.684V108.926Z" fill="#78B75B"/>
<path d="M329.768 108.926H330.808V109.967H329.768V108.926Z" fill="#78B75B"/>
<path d="M327.684 114.133H328.724V115.174H327.684V114.133Z" fill="#78B75B"/>
<path d="M329.768 114.133H330.808V115.174H329.768V114.133Z" fill="#78B75B"/>
<g clip-path="url(#clip0)">
<path d="M312.561 118.021C312.682 117.56 314.407 112.142 307.102 109.919C299.796 107.697 297.996 103.237 297.996 103.237C297.996 103.237 291.173 119.362 305.2 121.719C311.868 122.839 312.561 118.021 312.561 118.021Z" fill="#7CC7FF"/>
<path d="M323.476 112.587C322.908 111.138 321.145 110.101 319.076 110.139C315.688 110.202 313.823 112.67 312.573 114.605C311.282 113.041 308.984 111.693 304.893 111.615C295.337 111.433 291.647 106.676 291.647 106.676C291.647 106.676 290.517 122.341 301.626 125.341C301.626 125.341 299.914 126.164 298.284 127.696C294.757 131.013 292.303 134.509 290.929 136.724C290.686 137.116 290.588 137.582 290.667 138.036C290.7 138.225 290.761 138.398 291.155 138.672C291.469 138.889 292.088 138.734 292.577 138.963C292.949 139.137 293.211 139.727 293.697 139.883C294.1 140.012 294.659 139.694 295.146 139.797C295.566 139.885 295.944 140.408 296.432 140.468C296.862 140.522 297.36 140.113 297.846 140.14C298.283 140.163 298.731 140.627 299.214 140.624C299.297 140.624 299.38 140.607 299.464 140.58C299.925 140.429 300.235 139.993 300.255 139.508C300.362 136.824 300.852 132.661 302.806 131.587C305.491 133.977 311.43 134.212 314.965 131.46C320.045 127.506 319.501 123.27 320.287 120.338C321.7 115.071 327.339 115.483 327.339 115.483C324.606 114.212 324.111 113.626 323.476 112.587Z" fill="#A0D6FF"/>
<path d="M296.274 139.508C296.262 139.798 296.146 140.07 295.956 140.274C296.106 140.37 296.262 140.447 296.432 140.468C296.862 140.522 297.36 140.113 297.846 140.14C298.282 140.163 298.73 140.627 299.214 140.625C299.297 140.624 299.38 140.607 299.464 140.58C299.925 140.429 300.235 139.993 300.254 139.508C300.362 136.824 300.851 132.661 302.806 131.587C298.768 133.229 296.381 136.824 296.274 139.508Z" fill="#A0D6FF"/>
<path d="M317.439 117.491C316.653 120.423 317.198 124.659 312.118 128.613C309.258 130.839 305.548 132.36 302.813 131.594C305.502 133.978 311.433 134.209 314.965 131.46C320.044 127.506 319.5 123.27 320.286 120.338C321.699 115.071 327.339 115.483 327.339 115.483C327.221 115.428 327.109 115.375 326.999 115.323C324.333 114.577 318.521 113.459 317.439 117.491Z" fill="#7CC7FF"/>
<path d="M304.893 111.615C295.337 111.433 291.646 106.676 291.646 106.676C291.646 106.676 293.725 120.195 305.2 121.719C316.674 123.243 312.573 114.605 312.573 114.605C311.281 113.041 308.984 111.693 304.893 111.615Z" fill="#B1DDFE"/>
<path d="M320.837 114.061C320.649 114.061 320.497 113.908 320.497 113.721C320.497 113.207 320.079 112.789 319.565 112.789C319.051 112.789 318.632 113.207 318.632 113.721C318.632 113.908 318.48 114.061 318.292 114.061C318.105 114.061 317.952 113.908 317.952 113.721C317.952 112.832 318.675 112.108 319.565 112.108C320.454 112.108 321.177 112.832 321.177 113.721C321.177 113.908 321.024 114.061 320.837 114.061Z" fill="#4D4A5B"/>
</g>
<defs>
<clipPath id="clip0">
<rect width="37.388" height="37.388" fill="white" transform="translate(290.296 103.237)"/>
</clipPath>
</defs>
</svg>
