<svg width="797" height="791" viewBox="0 0 797 791" fill="none" xmlns="http://www.w3.org/2000/svg">
<path d="M411.868 86.9047C411.345 86.9047 410.864 86.6163 410.618 86.1536C408.178 81.5536 407.438 76.2466 408.422 70.3828C409.353 64.8278 411.791 59.004 415.668 53.0713C423.546 41.0145 436.535 29.7817 452.239 21.4429C467.944 13.1041 484.524 8.64051 498.927 8.8679C506.012 8.97952 512.203 10.2226 517.325 12.5625C522.735 15.0334 526.715 18.6178 529.159 23.2193C529.524 23.9084 529.262 24.7636 528.573 25.1293C527.884 25.495 527.028 25.2328 526.663 24.5436C524.518 20.5058 520.982 17.339 516.152 15.1327C511.385 12.9567 505.575 11.7991 498.882 11.6875C484.95 11.4642 468.855 15.8217 453.565 23.9331C438.275 32.0445 425.655 42.9521 418.032 54.6176C414.371 60.2222 412.075 65.6822 411.208 70.85C410.329 76.0867 410.971 80.7901 413.115 84.8279C413.347 85.2648 413.334 85.7911 413.081 86.2158C412.827 86.6404 412.37 86.9017 411.875 86.9047H411.868Z" fill="#FF7946"/>
<path opacity="0.33" d="M467.666 100.994C495.554 100.994 518.163 78.386 518.163 50.4972C518.163 22.6083 495.554 0 467.666 0C439.777 0 417.168 22.6083 417.168 50.4972C417.168 78.386 439.777 100.994 467.666 100.994Z" fill="#4E5C93"/>
<path d="M501.62 62.7553C504.594 54.8231 506.083 51.8478 501.62 50.4986C497.158 49.1495 490.713 57.797 484.759 53.6255C478.806 49.454 486.742 40.4455 484.263 35.2887C481.784 30.1319 478.809 29.5379 480.297 19.7935C481.052 14.8489 485.629 9.37106 489.955 5.17617C483.023 1.7615 475.398 -0.00970201 467.671 3.99702e-05C465.653 3.99702e-05 463.636 0.11976 461.632 0.358382C465.82 9.53643 458.222 16.2298 452.537 25.5167C445.596 36.8652 448.075 43.9155 462.452 46.6469C476.83 49.3782 475.343 66.7214 462.452 71.1768C449.562 75.6321 453.528 57.3022 445.596 57.2127C437.663 57.1231 429.731 55.3192 429.235 47.8899C428.959 43.6771 423.57 39.7372 418.96 37.116C417.767 41.4767 417.164 45.9777 417.168 50.4986C417.168 78.3869 439.777 100.996 467.667 100.996C480.598 101.013 493.039 96.0516 502.41 87.1419C498.857 78.9092 499.44 68.5694 501.62 62.7553Z" fill="#597EF7"/>
<path d="M429.235 47.8899C429.731 55.3191 437.663 57.123 445.596 57.2126C453.528 57.3022 449.562 75.6459 462.452 71.1836C475.343 66.7214 476.83 49.3782 462.452 46.6537C448.075 43.9292 445.596 36.8693 452.537 25.5235C458.216 16.2366 465.815 9.53777 461.632 0.365234C441.074 2.8072 424.31 17.6009 418.96 37.116C423.572 39.7371 428.954 43.6771 429.235 47.8899Z" fill="#4E5C93"/>
<path d="M429.235 47.8899C429.731 55.3191 437.663 57.123 445.596 57.2126C453.528 57.3022 449.562 75.6459 462.452 71.1836C475.343 66.7214 476.83 49.3782 462.452 46.6537C448.075 43.9292 445.596 36.8693 452.537 25.5235C458.216 16.2366 465.815 9.53777 461.632 0.365234C441.074 2.8072 424.31 17.6009 418.96 37.116C423.572 39.7371 428.954 43.6771 429.235 47.8899Z" fill="#7CB305"/>
<path d="M518.163 50.4985C518.163 30.6113 506.667 13.4101 489.959 5.17603C485.633 9.37092 481.056 14.8488 480.301 19.7934C478.813 29.5378 481.788 30.129 484.267 35.2886C486.746 40.4481 478.813 49.4539 484.759 53.6254C490.706 57.7968 497.162 49.148 501.62 50.4985C506.078 51.849 504.594 54.8229 501.62 62.7552C499.44 68.5693 498.857 78.9091 502.41 87.1473C512.482 77.6205 518.181 64.3624 518.163 50.4985Z" fill="#7CB305"/>
<path d="M486.877 88.094C486.228 88.0957 485.66 87.6539 485.503 87.0236C485.346 86.3932 485.639 85.7368 486.213 85.4329C501.51 77.3146 514.122 66.4153 521.744 54.7554C525.413 49.1521 527.702 43.6852 528.568 38.5215C529.448 33.2848 528.807 28.5814 526.663 24.5436C526.297 23.8544 526.559 22.9993 527.248 22.6336C527.937 22.2679 528.793 22.5301 529.158 23.2193C531.6 27.8193 532.34 33.125 531.363 38.9901C530.43 44.5451 527.992 50.3689 524.117 56.3002C516.239 68.3584 503.25 79.5898 487.544 87.9286C487.339 88.038 487.11 88.0948 486.877 88.094Z" fill="#FAAD14"/>
<path d="M442.181 106.948C448.348 106.948 453.347 101.948 453.347 95.7811C453.347 89.614 448.348 84.6145 442.181 84.6145C436.014 84.6145 431.014 89.614 431.014 95.7811C431.014 101.948 436.014 106.948 442.181 106.948Z" fill="#FAAD14"/>
<ellipse cx="419.5" cy="751" rx="419.5" ry="40" fill="#032838"/>
<path fill-rule="evenodd" clip-rule="evenodd" d="M381.151 423.277C381.151 423.277 409.42 418.643 412.582 404.926C415.445 392.504 402.5 385.787 402.5 385.787C402.5 385.787 391.892 381.891 379.557 381.36C371.473 381.012 356.155 377.637 354.955 382.488C353.391 388.812 369.49 389.244 371.007 393.737C374.079 402.844 348.73 405.323 344.836 408.342C337.225 414.241 350.652 431.574 381.151 423.277Z" fill="#F1C27D"/>
<path d="M343.547 415.245C343.221 413.615 344.36 412.478 346.328 411.719C346.908 411.495 347.527 411.318 348.146 411.183L348.357 411.138L348.745 411.066C348.855 411.047 348.935 411.035 348.936 411.037C351.046 410.546 353.026 410.126 355.213 409.698L361.621 408.472L362.348 408.321C365.389 407.672 367.067 407.079 368.387 406.132C368.619 405.966 368.934 406.03 369.092 406.274C369.249 406.519 369.189 406.852 368.957 407.018C367.445 408.102 365.586 408.74 362.196 409.445L361.293 409.626C359.798 409.917 356.55 410.527 356.346 410.567C353.782 411.059 351.552 411.524 349.11 412.091L348.955 412.114C348.804 412.139 348.598 412.177 348.352 412.231C347.778 412.357 347.205 412.52 346.676 412.724C345.13 413.321 344.354 414.096 344.539 415.024C344.597 415.313 344.422 415.597 344.148 415.659C343.874 415.72 343.605 415.535 343.547 415.245Z" fill="#907A59"/>
<path d="M349.684 422.185C347.48 419.989 347.976 417.876 350.058 416.226C350.436 415.927 350.839 415.665 351.243 415.442L351.509 415.3C351.588 415.26 351.658 415.226 351.716 415.199L351.794 415.164L351.953 415.125L352.768 415.053C352.989 415.032 353.229 415.008 353.486 414.98L354.431 414.871C355.401 414.754 356.445 414.609 357.547 414.435C361.746 413.77 365.938 412.813 369.836 411.512C371.418 410.984 372.922 410.408 374.336 409.781C374.594 409.667 374.891 409.795 375 410.068C375.108 410.341 374.986 410.654 374.728 410.769C373.285 411.408 371.752 411.995 370.142 412.533C366.188 413.853 361.946 414.821 357.698 415.494C356.397 415.699 355.177 415.864 354.061 415.992L353.091 416.097L352.108 416.187L351.836 416.324L351.713 416.391C351.355 416.589 350.997 416.821 350.667 417.082C349.031 418.379 348.71 419.743 350.381 421.407C350.584 421.61 350.594 421.948 350.401 422.164C350.209 422.379 349.888 422.388 349.684 422.185Z" fill="#907A59"/>
<path d="M356.753 424.035C356.101 421.79 357.233 420.319 359.376 419.558C359.957 419.352 360.575 419.212 361.194 419.124C361.338 419.103 361.475 419.086 361.605 419.073L361.981 419.043C361.994 419.042 362.004 419.041 362.011 419.041C366.879 418.667 371.819 417.573 376.61 415.993C378.577 415.344 380.385 414.656 381.991 413.974L382.633 413.697C382.735 413.653 382.834 413.609 382.93 413.566L383.594 413.263L383.806 413.162L383.937 412.837C384.108 412.422 384.313 411.961 384.554 411.464C385.243 410.046 386.08 408.624 387.072 407.29C390.803 402.269 395.617 399.82 401.528 401.454C401.799 401.529 401.961 401.822 401.89 402.108C401.819 402.394 401.542 402.565 401.271 402.49C395.808 400.98 391.375 403.234 387.87 407.95C386.921 409.227 386.118 410.592 385.457 411.953C385.272 412.333 385.11 412.692 384.969 413.021L384.868 413.264C384.771 413.498 384.708 413.663 384.678 413.747C384.632 413.877 384.539 413.983 384.42 414.043L384.006 414.241L383.881 414.299C383.447 414.5 382.941 414.725 382.37 414.968C380.739 415.66 378.907 416.357 376.912 417.015C372.052 418.618 367.038 419.729 362.066 420.11L361.917 420.119C361.77 420.13 361.569 420.151 361.33 420.185C360.77 420.265 360.213 420.391 359.7 420.573C358.014 421.171 357.265 422.145 357.722 423.721C357.804 424.004 357.654 424.303 357.386 424.39C357.118 424.477 356.835 424.318 356.753 424.035Z" fill="#907A59"/>
<path d="M370.636 394.102C370.445 393.886 370.457 393.547 370.662 393.346C370.867 393.144 371.188 393.156 371.379 393.373L371.626 393.64C371.834 393.859 372.077 394.103 372.352 394.366C373.14 395.118 374.025 395.868 374.987 396.564C378.701 399.252 382.423 400.372 385.795 399.101C386.009 399.02 386.22 398.93 386.43 398.83C386.686 398.709 386.986 398.829 387.101 399.098C387.216 399.368 387.103 399.685 386.847 399.806C386.612 399.918 386.375 400.019 386.136 400.109C382.393 401.52 378.369 400.309 374.413 397.447C373.412 396.722 372.491 395.942 371.672 395.159C371.456 394.954 371.259 394.758 371.082 394.577L370.771 394.251C370.711 394.186 370.666 394.136 370.636 394.102Z" fill="#907A59"/>
<path fill-rule="evenodd" clip-rule="evenodd" d="M627.408 226.475C627.408 226.475 631.405 239.804 624.113 243.708C617.706 247.138 611.515 245.919 610.886 236.662C610.258 227.405 613.668 202.133 619.367 203.029C625.067 203.925 627.408 226.475 627.408 226.475Z" fill="#4A3D39"/>
<path fill-rule="evenodd" clip-rule="evenodd" d="M571.838 225.711L569.817 250.892C568.665 265.249 578.309 278.068 591.815 280.135C606.681 282.408 620.234 270.843 621.244 255.022L622.905 229.022L571.838 225.711Z" fill="#F1C27D"/>
<path fill-rule="evenodd" clip-rule="evenodd" d="M595.202 252.837C595.202 252.837 580.731 254.348 571.738 248.103C560.944 240.605 564.118 216.269 564.467 208.326C565.081 194.389 570.966 187.074 570.966 187.074C570.966 187.074 576.913 175.402 600.025 175.773C623.139 176.143 623.639 198.813 623.488 209.271C623.338 219.73 620.541 239.544 614.307 244.863C606.783 251.279 595.202 252.837 595.202 252.837Z" fill="#F1C27D"/>
<path fill-rule="evenodd" clip-rule="evenodd" d="M565.83 199.631C565.83 199.631 556.075 189.014 559.908 180.795C563.742 172.576 571.184 171.824 579.407 174.135C587.63 176.446 620.019 167.263 623.414 185.736C637.214 202.083 626.808 216.015 626.808 216.015C626.808 216.015 621.1 209.185 618.955 214.817C616.81 220.448 615.139 224.271 613.514 222.502C611.888 220.732 613.478 214.028 610.633 210.931C607.788 207.834 604.341 198.368 606.81 192.008C607.692 188.099 576.743 187.167 570.095 190.112C566.347 191.772 565.83 199.631 565.83 199.631Z" fill="#4A3D39"/>
<path d="M576.22 202.812C572.56 202.027 569.887 202.401 568.083 203.585C567.325 204.083 566.857 204.627 566.623 205.072C566.261 205.761 566.496 206.63 567.149 207.013C567.764 207.373 568.529 207.174 568.919 206.575L568.988 206.458C569.008 206.419 569.164 206.237 569.511 206.01C570.687 205.238 572.66 204.962 575.681 205.61C576.413 205.767 577.127 205.268 577.276 204.496C577.425 203.723 576.952 202.969 576.22 202.812Z" fill="#4A3D39"/>
<path d="M597.269 203.663C594.999 202.961 592.627 202.905 590.429 203.226L590.096 203.278C589.787 203.329 589.548 203.379 589.392 203.418C588.665 203.597 588.213 204.365 588.383 205.133C588.553 205.901 589.281 206.377 590.008 206.198L590.154 206.165C590.304 206.134 590.522 206.095 590.799 206.054C592.65 205.784 594.66 205.831 596.507 206.403C597.087 206.583 597.635 206.811 598.146 207.091C598.808 207.454 599.625 207.182 599.969 206.482C600.313 205.782 600.054 204.92 599.391 204.557C598.721 204.19 598.011 203.894 597.269 203.663Z" fill="#4A3D39"/>
<path d="M580.752 210.575C580.539 210.383 580.219 210.411 580.038 210.636L579.849 210.879L579.616 211.189C579.535 211.299 579.45 211.416 579.362 211.539C578.861 212.241 578.359 213.007 577.89 213.813C577.117 215.139 576.511 216.44 576.134 217.672C574.746 222.215 576.675 225.126 582.757 225.224C583.037 225.228 583.268 224.992 583.272 224.696C583.276 224.401 583.053 224.157 582.773 224.153C577.378 224.067 575.919 221.865 577.1 218.001C577.448 216.861 578.021 215.633 578.754 214.373C579.205 213.599 579.689 212.86 580.172 212.183L580.416 211.847L580.81 211.33C580.992 211.104 580.966 210.766 580.752 210.575Z" fill="#917A59"/>
<path d="M593.295 213.087C591.642 213.06 590.328 214.65 590.299 216.584C590.293 216.979 590.591 217.303 590.965 217.309C591.338 217.315 591.645 217.001 591.651 216.607C591.669 215.413 592.423 214.5 593.275 214.514C594.129 214.528 594.856 215.464 594.839 216.657C594.833 217.051 595.131 217.376 595.504 217.382C595.878 217.388 596.185 217.074 596.191 216.679C596.219 214.745 594.951 213.113 593.295 213.087Z" fill="#4A3D39"/>
<path d="M571.834 212.742C570.18 212.715 568.865 214.306 568.837 216.24C568.831 216.634 569.129 216.958 569.502 216.965C569.876 216.971 570.183 216.656 570.189 216.262C570.206 215.068 570.961 214.156 571.814 214.169C572.666 214.183 573.394 215.119 573.376 216.313C573.371 216.707 573.669 217.031 574.042 217.037C574.415 217.043 574.723 216.729 574.729 216.335C574.757 214.401 573.488 212.768 571.834 212.742Z" fill="#4A3D39"/>
<path fill-rule="evenodd" clip-rule="evenodd" d="M570.494 230.656C570.494 230.656 571.09 224.502 579.22 224.096C586.241 223.745 590.685 225.481 593.086 230.75C595.487 236.018 580.395 230.546 580.395 230.546C580.395 230.546 568.349 236.287 570.494 230.656Z" fill="#4A3D39"/>
<path fill-rule="evenodd" clip-rule="evenodd" d="M630.237 222.258C629.298 228.15 625.348 232.361 621.415 231.662C617.479 230.964 615.052 225.62 615.989 219.728C616.929 213.836 620.879 209.626 624.813 210.324C628.747 211.022 631.175 216.366 630.237 222.258Z" fill="#F1C27D"/>
<path d="M605.91 248.17C605.806 247.896 605.511 247.762 605.251 247.872C594.132 252.567 584.483 252.598 576.68 249.843C575.559 249.448 574.583 249.025 573.757 248.603L573.356 248.391L573.015 248.199C572.893 248.128 572.814 248.079 572.777 248.055C572.539 247.898 572.227 247.975 572.079 248.226C571.931 248.477 572.003 248.807 572.241 248.964L572.523 249.136C572.746 249.266 573.011 249.411 573.315 249.567C574.18 250.008 575.196 250.448 576.358 250.859C584.381 253.691 594.277 253.659 605.627 248.866C605.887 248.757 606.014 248.445 605.91 248.17Z" fill="#917A59"/>
<path d="M582.946 244.526C582.667 244.495 582.418 244.708 582.388 245.002L582.374 245.174L582.369 245.258C582.31 246.298 582.376 247.485 582.668 248.626C583.166 250.576 584.23 251.932 585.989 252.333C586.263 252.395 586.532 252.212 586.592 251.923C586.651 251.634 586.477 251.349 586.203 251.286C584.869 250.982 584.055 249.946 583.647 248.347C583.418 247.449 583.345 246.496 583.368 245.638L583.39 245.192C583.393 245.158 583.395 245.132 583.396 245.115C583.426 244.821 583.224 244.557 582.946 244.526Z" fill="#917A59"/>
<path d="M624.529 215.174C623.872 215.169 622.962 215.37 622.054 215.983C620.564 216.987 619.66 218.795 619.621 221.527C619.617 221.776 619.776 221.994 620.004 222.055C621.82 222.537 622.601 223.176 622.642 223.882C622.679 224.503 622.186 225.331 621.236 226.288C621.033 226.492 621.025 226.83 621.219 227.044C621.412 227.258 621.733 227.267 621.936 227.063C623.086 225.905 623.715 224.847 623.655 223.816C623.585 222.626 622.614 221.744 620.739 221.157L620.65 221.13L620.658 220.967C620.789 219.015 621.441 217.743 622.453 216.989L622.6 216.885C623.017 216.604 623.465 216.423 623.915 216.323C624.143 216.273 624.329 216.251 624.454 216.246L624.522 216.245C624.799 216.249 625.03 216.013 625.034 215.717C625.038 215.451 624.857 215.228 624.617 215.182L624.529 215.174Z" fill="#B58F57"/>
<path fill-rule="evenodd" clip-rule="evenodd" d="M657.942 427.322C657.269 427.697 542.088 426.919 542.088 426.919C511.375 409.635 527.725 366.759 527.725 366.759C525.425 353.337 529.144 329.644 529.144 329.644C519.211 296.352 532.293 267.339 532.293 267.339C549.466 260.908 560.834 258.761 569.607 256.889C578.834 254.92 582.545 276.553 592.582 275.663C604.674 274.589 610.857 251.967 623.549 253.963C638.253 256.275 651.089 264.124 664.692 270.153C678.365 281.941 675.394 347.945 667.843 389.536C667.843 389.536 676.219 417.138 657.942 427.322Z" fill="#E4EBF7"/>
<path fill-rule="evenodd" clip-rule="evenodd" d="M479.233 390.874C492.658 399.131 509.846 395.06 518.643 381.537L559.875 318.155C569.963 302.646 565.699 281.38 550.523 271.517C535.964 262.054 516.902 266.743 507.804 282.023L469.044 347.121C460.11 362.123 464.728 381.954 479.233 390.874Z" fill="#E4EBF7"/>
<path fill-rule="evenodd" clip-rule="evenodd" d="M399.222 384.401L406.862 410.582C408.852 417.408 415.581 421.367 422.127 419.564L500.25 398.056C515.624 393.057 524.248 375.847 519.513 359.618C514.777 343.386 498.474 334.283 483.101 339.28L407.055 367.908C400.684 370.308 397.231 377.577 399.222 384.401Z" fill="#E4EBF7"/>
<path fill-rule="evenodd" clip-rule="evenodd" d="M564.609 266.598C564.609 266.598 574.526 317.095 585.632 340.029C608.463 286.708 623.451 254.513 624.196 254.345L591.517 273.354L564.609 266.598Z" fill="white"/>
<path fill-rule="evenodd" clip-rule="evenodd" d="M577.691 281.227L588.836 271.111L602.486 280.954L596.194 291.981L580.913 293.235L577.691 281.227Z" fill="#253368"/>
<path fill-rule="evenodd" clip-rule="evenodd" d="M573.922 311.556L581.17 293.054L596.361 291.897L600.984 303.934L584.584 343.176L573.922 311.556Z" fill="#253368"/>
<path fill-rule="evenodd" clip-rule="evenodd" d="M570.772 286.349L590.114 271.444L569.073 257.73L566.02 261.455L570.772 286.349Z" fill="white"/>
<path fill-rule="evenodd" clip-rule="evenodd" d="M590.115 271.444L608.786 283.996L624.576 254.316L620.45 249.793L590.115 271.444Z" fill="white"/>
<path fill-rule="evenodd" clip-rule="evenodd" d="M570.099 287.447L589.329 271.102L569.846 252.964L563.769 257.961L570.099 287.447Z" fill="white"/>
<path d="M563.014 257.676L569.872 252.037L590.377 271.126L569.678 288.72L563.014 257.676ZM569.819 253.89L564.522 258.245L570.519 286.172L588.28 271.076L569.819 253.89Z" fill="#E4EBF7"/>
<path fill-rule="evenodd" clip-rule="evenodd" d="M589.328 271.101L609.325 286.076L625.123 254.649L620.629 248.313L589.328 271.101Z" fill="white"/>
<path d="M588.149 271.093L620.781 247.336L625.921 254.584L609.562 287.128L588.149 271.093ZM620.478 249.29L590.509 271.109L609.089 285.024L624.325 254.714L620.478 249.29Z" fill="#E4EBF7"/>
<path d="M585.632 343.536C585.29 343.519 584.995 343.772 584.934 344.118L584.923 344.214L583.682 370.9L583.496 371.435L583.275 372.098C583.16 372.448 583.038 372.828 582.911 373.235C582.308 375.17 581.704 377.332 581.141 379.667C579.407 386.863 578.423 394.093 578.582 400.855C578.841 411.957 582.161 420.64 589.296 425.897C589.602 426.123 590.023 426.044 590.237 425.72C590.451 425.397 590.376 424.952 590.07 424.726C583.341 419.769 580.183 411.51 579.933 400.82C579.779 394.205 580.745 387.098 582.452 380.019C582.945 377.973 583.47 376.062 583.998 374.325L584.196 373.681C584.32 373.282 584.439 372.909 584.552 372.566L584.769 371.918C584.872 371.615 584.945 371.408 584.983 371.304C585 371.257 585.012 371.208 585.02 371.158L585.027 371.082L586.274 344.284C586.292 343.89 586.005 343.556 585.632 343.536Z" fill="#96A7CA"/>
<path d="M625.869 254.021C625.556 253.807 625.137 253.902 624.934 254.233L624.501 254.947C620.411 261.756 615.036 272.625 608.676 286.692L607.566 289.157C606.821 290.818 606.066 292.515 605.302 294.246L604.727 295.55C600.376 305.437 595.907 315.982 591.537 326.571L589.493 331.544C588.889 333.019 588.306 334.449 587.746 335.829L585.929 340.323L585.053 342.506L584.981 342.347C581.404 334.216 577.975 323.221 574.731 310.052L574.515 309.171C571.912 298.504 569.579 287.072 567.551 275.639L567.074 272.915C566.611 270.239 566.191 267.711 565.815 265.363L565.334 262.291L565.05 260.399C564.994 260.01 564.649 259.742 564.28 259.801C563.942 259.855 563.7 260.166 563.705 260.517L563.719 260.651L563.999 262.519C564.085 263.077 564.178 263.681 564.28 264.328L564.609 266.392C565.081 269.318 565.62 272.507 566.222 275.901C568.255 287.363 570.594 298.826 573.205 309.527L573.649 311.33C577.065 325.048 580.685 336.38 584.484 344.563C584.725 345.081 585.404 345.091 585.67 344.619L585.721 344.509L587.04 341.213L588.656 337.212C589.647 334.768 590.713 332.156 591.843 329.409C596.505 318.071 601.297 306.733 605.953 296.152L607.098 293.559C607.857 291.848 608.606 290.171 609.344 288.531L610.572 285.818C616.838 272.03 622.111 261.463 626.07 255.009C626.273 254.678 626.183 254.236 625.869 254.021Z" fill="#96A7CA"/>
<path d="M523.697 298.518C523.324 298.498 523.006 298.801 522.988 299.195C522.852 302.05 522.992 305.53 523.361 309.5C523.632 312.418 524.02 315.515 524.493 318.695C524.785 320.651 525.094 322.541 525.406 324.315L525.561 325.192C525.689 325.9 525.807 326.537 525.914 327.093L526.036 327.723L526.104 329.826C526.157 331.549 526.21 333.468 526.259 335.533C526.384 340.764 526.465 345.99 526.482 350.933L526.485 352.57C526.488 359.475 526.357 365.24 526.066 369.487L526.041 369.843L525.878 370.408C519.926 391.333 522.622 407.223 530.809 418.624L531.062 418.972C532.891 421.465 534.852 423.526 536.816 425.181C537.407 425.679 537.963 426.11 538.474 426.476L538.726 426.654C539.077 426.898 539.332 427.06 539.476 427.143C539.551 427.187 539.633 427.215 539.717 427.226L539.803 427.232H664.692C665.112 427.232 665.807 427.143 666.686 426.887C668.136 426.465 669.583 425.71 670.931 424.539C676.754 419.484 678.847 408.772 675.227 390.724L675.02 389.712L675.209 388.742C678.943 369.324 679.536 350.237 678.267 333.564L678.192 332.605L678.096 331.468C677.999 330.361 677.899 329.344 677.798 328.422L677.685 327.437L677.543 326.323C677.488 325.934 677.143 325.665 676.774 325.724C676.405 325.783 676.15 326.146 676.206 326.536L676.314 327.376L676.404 328.14C676.554 329.458 676.704 330.992 676.844 332.726C678.225 349.816 677.64 369.545 673.666 389.57C673.647 389.67 673.647 389.772 673.668 389.872C677.515 408.151 675.559 418.673 670.072 423.437C668.878 424.474 667.601 425.14 666.327 425.511C665.884 425.64 665.474 425.723 665.11 425.769C664.983 425.785 664.88 425.795 664.805 425.8L664.69 425.805L539.984 425.804L539.721 425.633L539.469 425.461C538.925 425.083 538.317 424.619 537.66 424.065C535.777 422.478 533.892 420.497 532.131 418.098C524.014 407.037 521.286 391.513 527.175 370.814L527.356 370.185L527.384 370.03L527.444 369.143C527.708 365.054 527.831 359.669 527.837 353.283L527.837 352.57C527.835 347.681 527.766 342.48 527.651 337.243L527.535 332.51L527.385 327.608L527.371 327.487L527.107 326.111C527.039 325.743 526.966 325.347 526.89 324.926C526.528 322.917 526.167 320.74 525.829 318.473C525.36 315.319 524.975 312.249 524.707 309.361C524.344 305.454 524.207 302.041 524.338 299.266C524.357 298.872 524.069 298.537 523.697 298.518Z" fill="#96A7CA"/>
<path d="M595.345 358.718L572.347 362.029C571.977 362.082 571.718 362.442 571.769 362.832C571.815 363.191 572.105 363.45 572.438 363.45L572.53 363.443L595.527 360.133C595.897 360.079 596.156 359.719 596.106 359.329C596.06 358.971 595.77 358.711 595.436 358.711L595.345 358.718Z" fill="#96A7CA"/>
<path d="M582.06 369.437C575.574 369.112 570.106 369.539 565.968 370.883C565.611 370.999 565.411 371.398 565.52 371.775C565.63 372.152 566.009 372.363 566.365 372.248C570.327 370.961 575.653 370.545 581.995 370.863C586.685 371.099 591.706 371.722 596.793 372.614C598.85 372.975 600.795 373.358 602.586 373.744L603.25 373.889C603.823 374.016 604.345 374.135 604.811 374.244L605.731 374.467C606.094 374.559 606.459 374.322 606.547 373.939C606.634 373.556 606.41 373.17 606.047 373.078L605.381 372.916C604.933 372.809 604.427 372.692 603.868 372.568L603.526 372.492C601.539 372.053 599.348 371.615 597.015 371.206C591.879 370.305 586.807 369.676 582.06 369.437Z" fill="#96A7CA"/>
<path d="M639.268 317.676C638.926 317.686 638.649 317.962 638.613 318.311L638.609 318.408L639.752 366.644C639.761 367.038 640.071 367.349 640.444 367.34C640.787 367.33 641.063 367.054 641.1 366.705L641.104 366.608L639.961 318.372C639.951 317.978 639.641 317.667 639.268 317.676Z" fill="#96A7CA"/>
<path d="M660.562 271.757C660.381 271.413 659.97 271.288 659.643 271.479L659.421 271.614C659.291 271.695 659.145 271.788 658.984 271.892L658.819 272.001C658.176 272.425 657.461 272.93 656.692 273.515C654.496 275.183 652.301 277.156 650.251 279.426C644.835 285.425 641.391 292.386 640.894 300.252C640.87 300.645 641.151 300.985 641.524 301.012C641.897 301.038 642.219 300.74 642.244 300.347C642.717 292.854 646.015 286.188 651.23 280.411C653.218 278.209 655.35 276.293 657.482 274.674C658.102 274.202 658.686 273.785 659.221 273.422L659.792 273.044C660.027 272.892 660.199 272.787 660.299 272.728C660.626 272.537 660.744 272.102 660.562 271.757Z" fill="#96A7CA"/>
<path fill-rule="evenodd" clip-rule="evenodd" d="M669.536 404.569C685.572 402.783 697.341 387.834 696.071 370.864L690.83 300.86C689.472 282.733 674.436 269.211 657.267 270.677C639.632 272.183 626.724 288.878 628.859 307.42L636.886 377.128C638.847 394.151 653.382 406.368 669.536 404.569Z" fill="#E4EBF7"/>
<path d="M491.921 314.084C491.665 313.797 491.237 313.784 490.966 314.055C490.719 314.301 490.686 314.696 490.874 314.982L490.938 315.064L516.322 343.469C516.578 343.756 517.006 343.769 517.278 343.499C517.525 343.253 517.557 342.857 517.369 342.572L517.305 342.49L491.921 314.084Z" fill="#96A7CA"/>
<path fill-rule="evenodd" clip-rule="evenodd" d="M579.284 698.611L581.688 727.746C581.688 727.746 569.578 731.031 558.12 729.738C538.518 727.522 543.716 732.75 520.408 734.96C499.877 736.909 486.464 726.332 495.47 721.708C521.4 708.398 532.98 696.84 532.98 696.84C532.98 696.84 542.356 663.917 555.238 660.683C575.478 655.601 579.284 698.611 579.284 698.611Z" fill="#E4EBF7"/>
<path fill-rule="evenodd" clip-rule="evenodd" d="M498.165 722.24C498.165 722.24 498.131 725.382 509.907 730.381C523.623 736.201 544.45 728.213 556.623 724.748C575.372 719.412 577.028 723.282 580.519 720.513C583.688 725.791 580.381 730.97 580.381 730.97C580.381 730.97 576.373 733.217 562.148 733.049C547.924 732.882 548.088 736.928 530.295 739.101C505.229 742.161 492.758 734.699 491.837 729.267C490.678 722.433 495.313 719.675 498.165 722.24Z" fill="#A3B5D6"/>
<path fill-rule="evenodd" clip-rule="evenodd" d="M559.437 614.256C540.609 613.458 525.678 597.216 525.485 577.323L524.719 498.478C524.492 475.056 542.885 456.204 565.055 457.136C587.093 458.064 603.966 478.175 602.175 501.381L596.116 579.971C594.575 599.934 578.394 615.06 559.437 614.256Z" fill="#4E5C93"/>
<path fill-rule="evenodd" clip-rule="evenodd" d="M561.446 551.217C581.479 551.936 596.829 570.266 595.041 591.342C591.609 631.825 586.71 689.459 586.71 689.459C591.481 696.663 587.113 712.994 574.631 710.341C542.611 703.537 534.107 707.329 526.751 701.074C519.399 694.821 526.518 682.828 526.519 682.822C526.519 682.822 525.927 627.912 525.341 588.637C525.027 567.559 541.49 550.5 561.446 551.217Z" fill="#4E5C93"/>
<path fill-rule="evenodd" clip-rule="evenodd" d="M670.232 718.409L672.369 747.567C672.369 747.567 660.229 750.729 648.783 749.319C629.202 746.903 634.353 752.184 611.026 754.157C590.477 755.894 577.161 745.182 586.211 740.65C612.26 727.606 623.945 716.166 623.945 716.166C623.945 716.166 633.622 683.341 646.534 680.237C666.819 675.362 670.232 718.409 670.232 718.409Z" fill="#E4EBF7"/>
<path fill-rule="evenodd" clip-rule="evenodd" d="M588.9 741.209C588.9 741.209 588.837 744.352 600.566 749.468C614.23 755.429 635.128 747.655 647.331 744.314C666.128 739.169 667.751 743.055 671.266 740.32C674.387 745.632 671.032 750.777 671.032 750.777C671.032 750.777 667.003 752.985 652.781 752.67C638.56 752.358 638.686 756.407 620.875 758.397C595.782 761.202 583.38 753.613 582.509 748.171C581.412 741.326 586.071 738.615 588.9 741.209Z" fill="#A3B5D6"/>
<path fill-rule="evenodd" clip-rule="evenodd" d="M637.525 621.795C618.715 623.013 602.305 608.451 600.204 588.681L591.882 510.323C589.408 487.045 605.898 466.325 628.044 464.883C650.056 463.449 668.771 481.653 669.217 504.932L670.725 583.766C671.109 603.79 656.461 620.569 637.525 621.795Z" fill="#4E5C93"/>
<path fill-rule="evenodd" clip-rule="evenodd" d="M632.957 559.433C652.919 557.51 670.314 573.676 671.029 594.824C672.406 635.441 674.351 693.271 674.351 693.271C674.351 693.271 674.351 693.271 674.352 693.271C679.937 699.789 677.533 716.562 664.834 715.579C636.309 713.37 624.269 717.924 616.233 712.688C608.199 707.453 613.846 694.614 613.847 694.608C613.847 694.608 606.773 640.205 601.553 601.312C598.753 580.442 613.072 561.349 632.957 559.433Z" fill="#4E5C93"/>
<path fill-rule="evenodd" clip-rule="evenodd" d="M536.341 426.87C536.341 426.87 523.28 464.693 524.894 500.85C525.689 518.681 574.196 533.32 600.083 533.795C613.978 534.052 675.213 513.317 679.787 491.777C685.568 464.545 679.025 452.34 675.289 440.682C672.594 432.278 670.158 428.527 670.158 428.527C670.158 428.527 547.763 427.079 536.341 426.87Z" fill="#4E5C93"/>
<path d="M558.176 504.902C557.803 504.922 557.516 505.258 557.535 505.651C557.552 505.998 557.685 506.567 558.021 507.322C558.553 508.518 559.458 509.832 560.82 511.23C564.627 515.141 571.273 519.02 581.449 522.624C584.645 523.756 588.154 524.846 591.989 525.888L592.505 526.027L600.195 594.171C600.235 594.53 600.522 594.795 600.855 594.8L600.946 594.795C601.286 594.753 601.537 594.451 601.542 594.099L601.538 594.002L593.792 525.372C593.759 525.078 593.557 524.836 593.286 524.764C589.104 523.651 585.308 522.485 581.88 521.271C571.881 517.729 565.408 513.952 561.763 510.207C560.515 508.926 559.706 507.751 559.245 506.715C559.01 506.188 558.914 505.821 558.891 505.634L558.886 505.578C558.867 505.184 558.549 504.882 558.176 504.902Z" fill="#253368"/>
<path d="M583.927 455.089C583.556 455.036 583.216 455.311 583.167 455.702L583.051 456.732L582.983 457.399L582.904 458.243C582.838 458.97 582.772 459.758 582.71 460.602C581.782 473.188 582.108 486.985 584.587 499.993C585.802 506.37 587.5 512.241 589.73 517.5C589.883 517.86 590.283 518.021 590.623 517.86C590.964 517.699 591.117 517.277 590.964 516.917C588.778 511.761 587.109 505.99 585.913 499.711C583.463 486.853 583.139 473.179 584.058 460.713L584.134 459.738C584.197 458.948 584.263 458.217 584.328 457.547L584.421 456.646L584.507 455.891C584.557 455.5 584.297 455.141 583.927 455.089Z" fill="#253368"/>
<path d="M669.986 443.439C669.848 443.073 669.455 442.894 669.108 443.04C640.295 455.173 615.008 460.986 593.072 461.551C576.175 461.986 562.283 459.308 551.22 454.582C547.639 453.052 544.626 451.415 542.163 449.781C541.412 449.283 540.762 448.817 540.21 448.392L539.737 448.019C539.518 447.842 539.368 447.713 539.287 447.639C539.005 447.38 538.578 447.412 538.333 447.709C538.088 448.007 538.118 448.458 538.4 448.716L538.602 448.893C538.743 449.013 538.932 449.169 539.17 449.357L539.665 449.738C540.184 450.128 540.777 450.548 541.444 450.99C543.973 452.668 547.057 454.344 550.712 455.905C561.947 460.705 576.023 463.418 593.105 462.978C615.207 462.409 640.652 456.559 669.609 444.366C669.956 444.22 670.125 443.805 669.986 443.439Z" fill="#253368"/>
<path d="M587.127 427.895C586.785 427.901 586.507 428.175 586.468 428.524L586.463 428.621L586.84 451.946C586.847 452.34 587.155 452.654 587.528 452.647C587.87 452.641 588.149 452.368 588.188 452.018L588.192 451.921L587.815 428.597C587.809 428.203 587.501 427.888 587.127 427.895Z" fill="#253368"/>
<path d="M645.459 451.86C645.274 451.517 644.862 451.397 644.537 451.591C644.212 451.786 644.098 452.221 644.282 452.564C646.884 457.409 649.773 461.558 652.901 465.058C657.931 470.686 663.33 474.399 668.735 476.562C670.633 477.322 672.399 477.833 673.987 478.143C674.434 478.23 674.843 478.296 675.209 478.344L675.715 478.401C675.856 478.414 675.962 478.422 676.031 478.425C676.404 478.44 676.718 478.133 676.733 477.739C676.746 477.378 676.503 477.069 676.175 477.008L675.73 476.969L675.62 476.957C675.222 476.912 674.757 476.841 674.232 476.739C672.722 476.444 671.035 475.956 669.214 475.227C663.996 473.139 658.771 469.545 653.885 464.078C650.832 460.662 648.007 456.606 645.459 451.86Z" fill="#253368"/>
<path d="M536.913 426.167C536.539 426.16 536.231 426.474 536.225 426.869C536.219 427.23 536.468 427.533 536.797 427.587L536.889 427.595L670.894 430.06C671.267 430.067 671.575 429.753 671.582 429.359C671.588 428.998 671.338 428.694 671.009 428.641L670.918 428.633L536.913 426.167Z" fill="#253368"/>
<path fill-rule="evenodd" clip-rule="evenodd" d="M687.695 525.055L620.145 532.856C617.264 533.19 614.705 530.935 614.531 527.914L610.121 451.452C609.947 448.414 612.252 445.849 615.164 445.84L680.586 445.631C683.982 445.62 686.832 448.303 687.173 451.831L693.537 517.507C693.9 521.271 691.293 524.639 687.695 525.055Z" fill="#FAAD14"/>
<path fill-rule="evenodd" clip-rule="evenodd" d="M613.23 445.834L613.737 445.83C615.472 445.818 616.911 447.233 617.005 449.044L621.148 529.726C621.246 531.604 619.863 533.207 618.066 533.3C616.284 533.394 614.763 531.971 614.656 530.113L610.006 449.434C609.894 447.49 611.367 445.846 613.23 445.834Z" fill="#FF7A46"/>
<path d="M688.237 471.839C688.444 471.838 688.613 472.013 688.613 472.23C688.613 472.419 688.485 472.577 688.314 472.614L688.239 472.622L618.555 472.807L612.453 472.848C612.245 472.849 612.077 472.675 612.075 472.459C612.074 472.269 612.202 472.111 612.372 472.073L612.448 472.065L618.551 472.024L688.237 471.839Z" fill="#FF7A46"/>
<path fill-rule="evenodd" clip-rule="evenodd" d="M688.065 498.461C688.065 498.461 689.066 474.716 678.109 467.244C668.182 460.477 659.837 469.478 659.837 469.478C659.837 469.478 654.36 477.405 651.374 487.997C649.418 494.937 643.414 507.159 647.271 509.871C652.304 513.408 655.977 499.496 660.092 499.714C668.432 500.158 665.32 523.148 667.074 527.584C670.504 536.259 687.104 527.001 688.065 498.461Z" fill="#F1C27D"/>
<path d="M672.047 505.296C672.293 505.233 672.54 505.392 672.6 505.651L672.71 506.175L672.741 506.331C672.847 506.874 672.956 507.497 673.062 508.189C673.364 510.164 673.583 512.304 673.67 514.533C673.868 519.578 673.37 524.325 671.959 528.444C671.873 528.695 671.611 528.825 671.373 528.735C671.135 528.644 671.012 528.367 671.098 528.116C672.464 524.13 672.949 519.503 672.756 514.573C672.67 512.384 672.455 510.282 672.158 508.343C672.075 507.8 671.99 507.302 671.907 506.853L671.788 506.242C671.754 506.076 671.728 505.954 671.71 505.88C671.651 505.62 671.802 505.359 672.047 505.296Z" fill="#907A59"/>
<path d="M678.829 503.933C679.079 503.898 679.309 504.084 679.343 504.349C680.133 510.648 680.019 516.241 679.263 521.064C678.998 522.756 678.67 524.233 678.314 525.486C678.188 525.926 678.068 526.308 677.957 526.63L677.83 526.981C677.822 527.001 677.816 527.018 677.81 527.032C677.711 527.277 677.442 527.391 677.209 527.286C676.977 527.182 676.869 526.898 676.968 526.652L677.062 526.399L677.097 526.299C677.202 525.994 677.317 525.63 677.437 525.208C677.782 523.994 678.101 522.557 678.36 520.906C679.101 516.175 679.214 510.678 678.435 504.476C678.402 504.211 678.578 503.968 678.829 503.933Z" fill="#907A59"/>
<path d="M684.014 500.824C684.262 500.77 684.504 500.938 684.555 501.2L684.598 501.442C684.625 501.61 684.657 501.834 684.692 502.113C684.786 502.852 684.864 503.722 684.916 504.721C685.066 507.566 684.981 510.871 684.575 514.603C684.445 515.795 684.284 517.015 684.089 518.262C684.048 518.525 683.812 518.704 683.563 518.66C683.314 518.617 683.145 518.368 683.186 518.105C683.378 516.873 683.538 515.669 683.666 514.492C684.066 510.816 684.149 507.565 684.002 504.775C683.951 503.801 683.875 502.955 683.785 502.241L683.712 501.711C683.69 501.57 683.672 501.464 683.659 501.395C683.608 501.134 683.767 500.878 684.014 500.824Z" fill="#907A59"/>
<path fill-rule="evenodd" clip-rule="evenodd" d="M654.978 476.457L680.926 476.629C687.692 476.674 693.289 471.088 693.627 463.955L697.663 378.829C697.764 361.845 684.805 347.992 668.719 347.885C652.632 347.779 639.509 361.458 639.408 378.442L642.43 463.615C642.682 470.752 648.214 476.411 654.978 476.457Z" fill="#E4EBF7"/>
<path d="M652.507 277.803C652.306 277.464 651.879 277.361 651.554 277.573C643.836 282.593 638.419 289.006 634.982 296.406C632.538 301.67 631.233 307.119 630.802 312.442C630.652 314.307 630.621 316.024 630.678 317.555L630.707 318.171C630.723 318.465 630.742 318.735 630.763 318.982L630.795 319.311C630.8 319.359 630.806 319.405 630.812 319.45L630.83 319.583L644.175 375.108L641.052 461.192C640.781 468.695 646.142 475.086 653.266 475.83L653.564 475.857L680.049 478.024C687.321 478.619 693.773 473.133 694.684 465.578C694.732 465.182 694.463 464.821 694.084 464.773C693.705 464.724 693.358 465.006 693.311 465.402C692.504 472.088 686.867 476.971 680.453 476.604L680.161 476.584L653.677 474.417C647.241 473.892 642.337 468.248 642.428 461.547L642.436 461.241L645.563 375.057L645.543 374.854L632.188 319.307L632.154 318.977L632.143 318.849C632.109 318.461 632.081 318.008 632.062 317.494C632.007 316.02 632.037 314.362 632.182 312.559C632.599 307.403 633.863 302.125 636.228 297.033C639.553 289.874 644.792 283.67 652.284 278.798C652.609 278.586 652.709 278.141 652.507 277.803Z" fill="#96A7CA"/>
<path d="M253.662 427.5H331.246C331.386 427.5 331.642 427.575 331.917 427.951C332.192 428.327 332.408 428.919 332.408 429.639V503.361C332.408 504.081 332.192 504.673 331.917 505.049C331.642 505.425 331.386 505.5 331.246 505.5H253.662C253.521 505.5 253.266 505.425 252.99 505.049C252.716 504.673 252.5 504.081 252.5 503.361V429.639C252.5 428.919 252.716 428.327 252.99 427.951C253.266 427.575 253.521 427.5 253.662 427.5Z" fill="#444444" stroke="#262626" stroke-width="3"/>
<path d="M291.595 471.95L291.569 471.925L291.542 471.902L252.513 438.251L252.5 429.281C252.5 429.28 252.5 429.28 252.5 429.28C252.5 428.631 252.679 428.111 252.89 427.797C252.994 427.643 253.088 427.563 253.145 427.527C253.172 427.51 253.189 427.503 253.196 427.501C253.199 427.5 253.201 427.5 253.201 427.5L253.201 427.5H331.799L331.799 427.5C331.799 427.5 331.8 427.5 331.801 427.5C331.802 427.501 331.803 427.501 331.805 427.501C331.811 427.503 331.829 427.51 331.856 427.527C331.913 427.563 332.006 427.643 332.11 427.797C332.321 428.111 332.5 428.631 332.5 429.279C332.5 429.279 332.5 429.28 332.5 429.281L332.487 438.266L294.738 471.918L294.721 471.934L294.704 471.95C294.172 472.454 293.627 472.645 293.149 472.645C292.672 472.645 292.127 472.454 291.595 471.95Z" fill="#444444" stroke="#262626" stroke-width="3"/>
<path fill-rule="evenodd" clip-rule="evenodd" d="M328.183 417.226C328.183 417.226 331.523 392.798 323.045 386.917C315.367 381.592 309.464 389.051 309.464 389.051C309.464 389.051 302.159 395.045 297.214 404.311C293.953 410.417 288.932 422.656 291.907 424.801C295.787 427.598 300.664 413.416 303.97 414.502C307.363 415.616 306.572 418.622 307.024 426.046C307.304 430.685 305.65 433.501 306.638 437.389C308.57 444.988 324.701 439.264 328.183 417.226Z" fill="#FFC999"/>
<path d="M313.078 418.559C312.986 418.277 312.683 418.123 312.401 418.215C312.119 418.306 311.965 418.609 312.057 418.891L312.116 419.094C312.134 419.156 312.153 419.23 312.175 419.316C312.268 419.678 312.361 420.104 312.449 420.591C313.359 425.66 312.91 431.806 310.106 438.465C309.991 438.739 310.119 439.053 310.393 439.169C310.666 439.284 310.981 439.155 311.096 438.882C313.987 432.017 314.45 425.663 313.506 420.401C313.432 419.991 313.354 419.62 313.275 419.289L313.216 419.049C313.155 418.813 313.107 418.648 313.078 418.559Z" fill="#DD936F"/>
<path d="M318.819 416.885L318.731 416.888C318.436 416.921 318.225 417.187 318.258 417.482C318.742 421.765 318.23 426.104 317.08 430.197C316.783 431.253 316.466 432.209 316.148 433.048L315.955 433.545C315.859 433.785 315.783 433.962 315.732 434.073C315.609 434.343 315.727 434.661 315.997 434.785C316.267 434.908 316.585 434.789 316.709 434.52L316.834 434.231L316.986 433.857C317.04 433.723 317.095 433.58 317.153 433.428C317.481 432.561 317.809 431.575 318.114 430.487C319.299 426.271 319.827 421.798 319.325 417.361C319.295 417.096 319.077 416.898 318.819 416.885Z" fill="#DD936F"/>
<path d="M323.528 412.67C323.238 412.734 323.055 413.02 323.119 413.31L323.144 413.441C323.168 413.577 323.197 413.78 323.227 414.05C323.585 417.259 323.226 421.851 321.587 427.757C321.508 428.043 321.675 428.339 321.961 428.418C322.247 428.497 322.542 428.33 322.622 428.044C324.298 422.006 324.668 417.276 324.295 413.931L324.255 413.607C324.223 413.364 324.192 413.188 324.168 413.079C324.111 412.822 323.879 412.648 323.624 412.658L323.528 412.67Z" fill="#DD936F"/>
<path fill-rule="evenodd" clip-rule="evenodd" d="M294.003 727.427C294.003 727.427 303.979 753.146 328.62 759.815C344.751 764.182 327.313 778.289 298.993 770.71C282.849 766.388 286.975 758.267 277.882 757.63C272.61 757.261 258.321 751.81 258.075 747.785C257.649 740.755 259.072 741.569 261.442 732.61C273.84 685.735 280.63 683.729 294.003 727.427Z" fill="black"/>
<path fill-rule="evenodd" clip-rule="evenodd" d="M231.513 730.819C231.513 730.819 241.725 756.445 266.424 762.889C282.596 767.107 265.289 781.373 236.9 774.053C220.716 769.882 224.769 761.722 215.669 761.168C210.395 760.847 199.947 757.499 199.665 753.479C199.173 746.452 199.044 744.482 199.002 736.3C198.744 687.815 217.74 687.245 231.513 730.819Z" fill="black"/>
<path fill-rule="evenodd" clip-rule="evenodd" d="M319.147 560.379L310.054 475.732C308.386 460.254 293.86 453.204 276.589 454.678C276.589 454.678 243.787 460.849 248.441 493.309L264.105 571.816C264.105 571.816 266.983 589.23 295.035 585.904C320.598 582.873 319.147 560.379 319.147 560.379Z" fill="#1F1F1F"/>
<path fill-rule="evenodd" clip-rule="evenodd" d="M320 566.505L300.657 709.618C299.858 715.533 293.83 719.686 287.174 718.906L268.76 716.749C262.498 716.015 257.829 711.149 258.004 705.538L262.389 565.156C262.389 565.156 267.697 540.883 294.191 543.149C320.057 545.36 320 566.505 320 566.505Z" fill="#1F1F1F"/>
<path fill-rule="evenodd" clip-rule="evenodd" d="M191.414 569.916L188.974 486.919C188.716 469.75 205.423 456.325 224.433 458.428C240.887 460.248 252.974 473.16 252.117 488.001L247.298 571.404C247.298 571.404 247.38 595.23 219.504 594.262C192.396 593.322 191.414 569.916 191.414 569.916Z" fill="#1F1F1F"/>
<path fill-rule="evenodd" clip-rule="evenodd" d="M191.402 561.395L195.554 709.055C195.654 712.584 198.604 715.526 202.51 715.989L230.071 719.256C234.715 719.805 238.891 716.682 239.119 712.488L246.993 566.847C246.993 566.847 249.373 542.136 219.772 540.9C192.162 539.747 191.402 561.395 191.402 561.395Z" fill="#1F1F1F"/>
<path fill-rule="evenodd" clip-rule="evenodd" d="M240.818 530.403L191.776 497.343C188.371 495.047 186.582 491.3 187.082 487.505L192.812 444L307.205 445.701L307.753 490.62C307.786 493.413 306.603 496.098 304.464 498.128C297.901 504.356 281.454 516.732 252.849 530.05C248.969 531.856 244.208 532.88 240.818 530.403Z" fill="#1F1F1F"/>
<path fill-rule="evenodd" clip-rule="evenodd" d="M309.812 444.47L310.103 454.604C310.103 454.604 293.859 459.072 254.728 460.503C217.077 461.882 192 454.686 192 454.686L192.622 444C192.622 444 240.556 455.646 309.812 444.47Z" fill="black"/>
<path fill-rule="evenodd" clip-rule="evenodd" d="M274.469 458.347L274.563 450.983C274.59 448.909 272.283 447.254 269.541 447.394C262.965 447.725 251.345 448.166 242.912 447.691C240.155 447.536 237.838 449.222 237.898 451.309L238.114 458.831C238.164 460.589 239.906 462.05 242.214 462.287C247.704 462.853 258.282 463.478 270.56 461.821C272.796 461.519 274.449 460.063 274.469 458.347Z" fill="#E4EBF7"/>
<path fill-rule="evenodd" clip-rule="evenodd" d="M270.224 457.402L270.31 452.193C270.334 450.726 268.559 449.557 266.442 449.658C261.37 449.899 252.405 450.223 245.898 449.895C243.77 449.787 241.981 450.982 242.024 452.458L242.176 457.78C242.211 459.024 243.552 460.054 245.334 460.221C249.567 460.615 257.726 461.047 267.202 459.864C268.927 459.648 270.204 458.616 270.224 457.402Z" fill="black"/>
<path fill-rule="evenodd" clip-rule="evenodd" d="M253.035 213.758L266.353 199.825L262.204 158.372L227.229 161.111L226.938 203.212L253.035 213.758Z" fill="#FFC999"/>
<path fill-rule="evenodd" clip-rule="evenodd" d="M271.184 154.259C271.184 154.259 276.431 148.902 278.76 152.397C281.09 155.892 277.406 168.613 271.607 169.051C263.861 169.636 271.184 154.259 271.184 154.259Z" fill="#FFC999"/>
<path fill-rule="evenodd" clip-rule="evenodd" d="M238.081 187.296C238.081 187.296 249.661 195.923 264.564 186.868C275.293 180.35 276.145 157.483 273.691 140.759C272.302 131.295 267.58 126.28 257.763 123.662C247.944 121.043 221.485 121.463 221.919 149.381C222.402 180.478 238.081 187.296 238.081 187.296Z" fill="#FFC999"/>
<path d="M256.856 145.498C257.112 145.554 257.283 145.777 257.271 146.018L257.258 146.109L255.836 151.929L259.489 167.665C259.555 167.948 259.359 168.22 259.07 168.274L258.981 168.283L251.926 168.478C251.63 168.486 251.382 168.265 251.374 167.984C251.366 167.731 251.554 167.516 251.808 167.47L251.895 167.461L258.301 167.283L254.761 152.036C254.75 151.986 254.746 151.936 254.75 151.886L254.762 151.811L256.211 145.879C256.271 145.636 256.505 145.474 256.76 145.485L256.856 145.498Z" fill="#DD936F"/>
<path d="M233.717 144.304C238.41 140.86 244.284 140.576 249.259 142.996C249.996 143.355 250.287 144.212 249.908 144.91C249.53 145.609 248.626 145.885 247.889 145.526C243.91 143.59 239.286 143.814 235.554 146.553C234.899 147.033 233.957 146.92 233.45 146.299C232.943 145.678 233.062 144.785 233.717 144.304Z" fill="#272727"/>
<path fill-rule="evenodd" clip-rule="evenodd" d="M260.524 170.968C253.104 171.896 245.739 170.458 245.739 170.458C245.739 170.458 247.263 175.492 253.167 175.818C259.716 176.177 260.524 170.968 260.524 170.968Z" fill="white"/>
<path d="M245.018 170.655C245.248 171.416 245.798 172.512 246.782 173.607C248.303 175.3 250.4 176.377 253.123 176.527C256.327 176.703 258.592 175.662 260.007 173.82C260.79 172.8 261.156 171.784 261.266 171.071C261.339 170.604 260.92 170.201 260.426 170.263C256.601 170.741 252.507 170.634 248.594 170.164C248.005 170.093 247.46 170.018 246.965 169.943L246.113 169.803C246.017 169.786 245.943 169.772 245.89 169.762C245.338 169.654 244.862 170.141 245.018 170.655ZM247.091 171.569L246.982 171.385L247.118 171.405C247.52 171.463 247.95 171.52 248.406 171.575L249.163 171.661C252.455 172.015 255.852 172.114 259.122 171.831L259.485 171.795L259.393 172.004C259.233 172.339 259.035 172.669 258.794 172.983C257.677 174.438 255.899 175.256 253.21 175.108C250.916 174.981 249.191 174.095 247.924 172.685C247.602 172.327 247.325 171.951 247.091 171.569Z" fill="#DD936F"/>
<path d="M264.758 185.894C264.953 185.683 265.293 185.662 265.516 185.847C265.739 186.033 265.761 186.354 265.565 186.566L265.431 186.703C265.271 186.858 265.037 187.067 264.726 187.314C264.046 187.856 263.224 188.395 262.26 188.898C256.965 191.657 249.903 192.195 241.024 189.147C240.745 189.051 240.601 188.76 240.702 188.495C240.803 188.231 241.111 188.094 241.389 188.19C249.978 191.138 256.717 190.624 261.742 188.006C262.644 187.536 263.407 187.034 264.036 186.534C264.407 186.239 264.647 186.014 264.758 185.894Z" fill="#DD936F"/>
<path d="M260.013 142.459C262.481 141.538 264.983 141.035 267.379 141.182C269.122 141.289 270.732 141.744 272.157 142.596C272.858 143.015 273.068 143.893 272.626 144.557C272.184 145.222 271.258 145.42 270.557 145.002C269.578 144.416 268.451 144.098 267.185 144.02C265.295 143.903 263.204 144.324 261.112 145.105C260.455 145.35 259.847 145.613 259.307 145.875L258.955 146.05C258.823 146.118 258.726 146.17 258.667 146.204C257.957 146.608 257.035 146.39 256.609 145.717C256.182 145.044 256.412 144.17 257.122 143.766C257.717 143.427 258.719 142.942 260.013 142.459Z" fill="#272727"/>
<path d="M255.793 178.036C256.089 178.023 256.341 178.24 256.355 178.521C256.368 178.773 256.184 178.992 255.931 179.043L255.844 179.053L251.616 179.244C251.319 179.257 251.068 179.04 251.054 178.759C251.041 178.507 251.225 178.288 251.478 178.237L251.565 178.227L255.793 178.036Z" fill="#DD936F"/>
<path fill-rule="evenodd" clip-rule="evenodd" d="M222.762 152.641C220.666 150.628 217.437 150.09 215.175 152.448C211.533 156.247 215.053 170.244 224.971 170.759C228.732 170.238 226.033 155.783 222.762 152.641Z" fill="#FFC999"/>
<path d="M218.119 154.977C218.228 154.716 218.54 154.588 218.816 154.692L219.005 154.77C219.118 154.819 219.256 154.884 219.414 154.965C219.849 155.189 220.284 155.461 220.691 155.784C222.182 156.964 222.935 158.5 222.489 160.366C222.32 161.074 221.98 161.454 221.345 161.818L221.07 161.966C220.526 162.253 220.39 162.395 220.343 162.836C220.252 163.68 220.66 164.309 221.44 164.789C221.7 164.949 221.983 165.079 222.267 165.18L222.447 165.24C222.526 165.265 222.587 165.281 222.625 165.29C222.914 165.355 223.092 165.629 223.024 165.903C222.955 166.176 222.665 166.345 222.377 166.28C221.984 166.191 221.423 165.992 220.855 165.643C219.766 164.973 219.137 164.004 219.274 162.733C219.359 161.945 219.681 161.561 220.39 161.162L220.655 161.02C221.157 160.754 221.339 160.574 221.442 160.141C221.787 158.696 221.211 157.522 220.003 156.565C219.654 156.289 219.278 156.054 218.902 155.86L218.662 155.742C218.556 155.693 218.473 155.658 218.42 155.638C218.144 155.534 218.009 155.238 218.119 154.977Z" fill="#DD936F"/>
<path fill-rule="evenodd" clip-rule="evenodd" d="M268.287 136.99C268.287 136.99 273.331 137.713 273.331 145.238C273.331 146.717 274.139 147.554 274.273 149.339C274.579 153.391 274.773 155.5 274.773 155.5C274.773 155.5 280.509 144.16 280.745 142.778C287.393 140.174 285.33 138.655 285.33 138.655C285.33 138.655 284.413 137.497 283.496 134.747C287.623 135.399 285.33 133.011 285.33 133.011C285.33 133.011 278.198 123.496 277.075 121.726C277.075 121.726 270.274 112.392 263.09 113.26C264.465 111.669 264.007 109.354 261.714 110.945C257.434 111.959 251.89 107.215 244.362 112.695C227.934 112.248 220.461 128.239 220.901 130.48C219.899 131.298 219.373 132.071 220.137 134.531C219.411 137.244 221.577 147.228 221.818 148.095V151.709L223.273 158.344C223.346 158.645 224.728 153.576 225.181 149.29C225.487 146.396 227.321 146.584 227.321 145.383C227.321 135.544 235.422 136.845 235.422 136.845L249.943 138.583C249.943 138.583 264.847 136.014 268.287 136.99Z" fill="#272727"/>
<path fill-rule="evenodd" clip-rule="evenodd" d="M249.944 138.582C249.944 138.582 252.768 125.207 264.465 126.717C272.032 127.695 276.616 138.437 285.33 138.655C287.393 137.714 285.253 142.779 280.745 142.779C277.229 142.375 273.348 138.978 269.051 137.352C265.612 136.049 259.651 137.135 249.944 138.582Z" fill="#E7E7E7"/>
<path fill-rule="evenodd" clip-rule="evenodd" d="M249.791 138.582C249.791 138.582 249.104 130.406 252.084 127.44C256.495 123.051 261.868 120.93 268.593 125.125C275.317 129.321 283.497 134.748 283.497 134.748C283.497 134.748 271.589 125.408 268.44 123.244C258.962 116.733 248.216 118.392 247.498 129.033C247.04 135.833 249.791 138.582 249.791 138.582Z" fill="#E7E7E7"/>
<path fill-rule="evenodd" clip-rule="evenodd" d="M280.286 144.189C280.286 144.189 277.535 143.754 272.032 139.74C273.294 142.453 279.712 146.25 279.712 146.25L280.286 144.189Z" fill="#E7E7E7"/>
<path fill-rule="evenodd" clip-rule="evenodd" d="M249.151 138.261C249.151 138.261 240.056 134.86 241.431 124.733C239.139 126.759 239.597 130.521 239.597 130.521C239.597 130.521 237.151 118.799 243.877 113.013C235.928 116.485 234.4 129.074 238.833 135.44C234.859 132.98 231.343 133.269 228.439 134.572C225.535 135.873 220.796 130.376 220.796 130.376C220.796 130.376 222.936 135.295 226.604 136.308C221.713 136.018 220.032 134.427 220.032 134.427C220.032 134.427 219.42 140.179 220.91 144.411C222.579 146.65 227.674 141.517 227.674 141.517C227.674 141.517 229.356 137.393 231.802 137.249C233.636 136.815 249.151 138.261 249.151 138.261Z" fill="#E7E7E7"/>
<path fill-rule="evenodd" clip-rule="evenodd" d="M227.406 142.485C227.406 142.485 224.618 147.26 221.636 147.297C221.445 146.175 221.369 145.957 221.369 145.957C221.369 145.957 224.809 145.452 227.406 142.485Z" fill="#E7E7E7"/>
<path fill-rule="evenodd" clip-rule="evenodd" d="M327.948 389.618L293.951 392.332L287.473 308.023C287.043 298.016 295.579 289.195 306.54 288.32C317.5 287.446 326.734 294.849 327.165 304.855L327.948 389.618Z" fill="#1F1F1F"/>
<path fill-rule="evenodd" clip-rule="evenodd" d="M305.744 319.532C317.48 319.468 326.943 309.9 326.879 298.163L326.503 230.936C326.438 219.2 316.869 209.738 305.132 209.803C293.394 209.868 283.934 219.437 283.998 231.173L284.374 298.4C284.439 310.137 294.006 319.598 305.744 319.532Z" fill="#1F1F1F"/>
<path fill-rule="evenodd" clip-rule="evenodd" d="M280.426 265.381L278.736 265.369C280.144 275.867 241.91 278.023 235.815 265.911C235.661 265.604 235.539 265.315 235.434 265.036L230.772 265L231.572 448.285C231.572 448.285 265.135 462.506 296.929 449.557C308.633 303.025 280.426 265.381 280.426 265.381Z" fill="#141414"/>
<path d="M258.273 317.862L267.942 261.251L260.085 216.668L248.364 215.898L236.644 215.129L223.024 258.301L258.273 317.862Z" fill="#F33A3A"/>
<path d="M250.041 215.573L258.264 318.714L269.619 260.925L261.761 216.342L250.041 215.573Z" fill="#C13A3A"/>
<path d="M228.953 207.527H228.39L232.892 232.458L236.83 215.837L228.953 207.527Z" fill="white"/>
<path d="M267.347 209.826L261.72 215.92L265.168 235.686L267.347 209.826Z" fill="white"/>
<path d="M258.272 318.437L226.353 199.975C220.884 199.215 222.932 199.55 213.341 198.519C209.631 201.741 198.323 210.186 192.163 216.376L214.222 220.881L202.534 228.16L258.272 318.437Z" fill="#1F1F1F"/>
<path d="M258.272 318.437L268.098 202.116C273.64 203.59 271.431 202.89 281.16 205.195C284.418 208.874 294.524 218.725 299.822 225.668L277.362 227.249L287.998 235.994L258.272 318.437Z" fill="#1F1F1F"/>
<path d="M249.151 201.781L229.54 208.596L237.274 216.766H249.151H261.027L268.762 208.596L249.151 201.781Z" fill="#E25959"/>
<path d="M230.689 215.102L223.936 197.928L249.817 201.807L230.689 215.102Z" fill="#F2F2F2"/>
<path d="M268.094 217.657L270.907 200.483L264.155 200.483L247.928 201.781L268.094 217.657Z" fill="#F2F2F2"/>
<path fill-rule="evenodd" clip-rule="evenodd" d="M262.773 191.696C263.756 194.179 273.92 210.088 277.518 285.375C280.383 345.339 280.283 455 280.283 455C280.283 455 315.498 447.795 321.331 437.672C327.345 427.237 320.585 350.705 318.748 312.359C315.403 242.521 319.695 226.14 312.494 210.687C304.728 207.133 290.274 202.435 278.28 197.266C275.366 196.012 265.609 191.221 263.749 191" fill="#1F1F1F"/>
<path d="M312.54 237.267C312.952 237.228 313.318 237.531 313.358 237.943L313.549 240.068L313.893 244.128C313.946 244.766 313.999 245.429 314.054 246.117L314.301 249.278C314.74 255.007 315.175 261.309 315.586 268.091C316.616 285.122 317.35 302.809 317.657 320.565C317.664 320.979 317.334 321.321 316.92 321.329C316.506 321.335 316.164 321.005 316.157 320.591C315.869 303.967 315.208 287.401 314.278 271.379L314.088 268.182C313.602 260.138 313.08 252.77 312.559 246.236L312.196 241.834L311.864 238.085C311.825 237.672 312.128 237.306 312.54 237.267Z" fill="#0D0D0F"/>
<path fill-rule="evenodd" clip-rule="evenodd" d="M181.741 207.332C193.685 202.383 206.816 200.304 214.371 196.617C219.209 194.257 223.083 191.099 226.898 190C253.34 283.109 245.479 400.875 241.607 454.659C212.672 458.065 175.773 434.843 175.773 434.843C175.773 434.843 185.45 353.087 187.693 304.224C189.559 263.58 178.688 208.597 181.741 207.332Z" fill="#1F1F1F"/>
<path d="M224.826 189.157C225.153 188.903 225.624 188.963 225.878 189.291C226.109 189.588 226.08 190.005 225.827 190.269L225.745 190.343L215.254 198.472L215.251 198.604C215.162 201.993 215.352 206.917 216.041 213.211L216.19 214.533C217.39 224.782 219.64 236.11 223.184 248.335L223.953 250.944C224.498 252.785 225.046 254.619 225.635 256.578L230.13 271.445C232.26 278.527 233.697 283.522 234.964 288.349L235.224 289.345C238.017 300.141 239.954 310.296 241.607 323.301C241.659 323.712 241.368 324.087 240.957 324.14C240.546 324.192 240.171 323.901 240.119 323.49C238.526 310.952 236.669 301.088 234.029 290.726L233.513 288.729C232.426 284.586 231.211 280.313 229.535 274.687L223.764 255.56C223.264 253.892 222.788 252.294 222.31 250.679L222.104 249.985C218.328 237.208 215.95 225.382 214.701 214.707L214.549 213.371C213.877 207.229 213.675 202.365 213.743 198.927L213.769 198.056C213.779 197.874 213.854 197.704 213.978 197.574L214.059 197.502L224.826 189.157Z" fill="#0D0D0F"/>
<path d="M264.864 191.391C265.046 191.058 265.444 190.917 265.789 191.049L265.882 191.092L282.787 200.3C282.986 200.409 283.126 200.602 283.166 200.825L283.285 201.55L283.409 202.393C283.452 202.697 283.497 203.026 283.543 203.379L283.59 203.74C283.885 206.043 284.18 208.847 284.458 212.177L284.513 212.85C286.522 237.68 286.522 274.32 283.177 324.543C283.149 324.957 282.792 325.269 282.378 325.242C281.965 325.214 281.652 324.857 281.68 324.444L281.876 321.451C285.02 272.833 284.981 237.229 283.018 212.971L282.908 211.648C282.667 208.841 282.414 206.428 282.161 204.394L282.011 203.236C281.966 202.904 281.923 202.597 281.882 202.313L281.78 201.636L281.749 201.442L265.164 192.409C264.831 192.227 264.69 191.829 264.822 191.484L264.864 191.391Z" fill="#0D0D0F"/>
<path d="M319.976 357.442C320.364 357.295 320.796 357.491 320.943 357.878C321.077 358.233 320.924 358.627 320.599 358.802L320.506 358.845L301.973 365.847L302.474 422.671C302.486 424.054 303.874 424.978 305.152 424.49L305.289 424.433L321.223 417.468C321.603 417.302 322.045 417.475 322.211 417.855C322.363 418.203 322.23 418.603 321.915 418.795L321.824 418.843L305.906 425.8C303.673 426.838 301.121 425.284 300.98 422.863L300.974 422.684L300.468 365.338C300.466 365.058 300.619 364.804 300.859 364.673L300.953 364.63L319.976 357.442Z" fill="#0D0D0F"/>
<path d="M258.226 319.074C258.578 318.904 259.009 319.038 259.188 319.372L259.311 319.62C259.407 319.826 259.533 320.116 259.685 320.497L259.763 320.695C260.201 321.819 260.688 323.273 261.21 325.095L261.458 325.976C262.86 331.069 264.256 337.88 265.562 346.656L265.787 348.198C267.316 358.833 268.617 371.623 269.624 386.767L269.835 390.069C271.296 413.764 271.683 440.502 270.97 450.415C270.943 450.79 270.601 451.072 270.207 451.047C269.812 451.021 269.514 450.697 269.541 450.323L269.583 449.693C270.253 439.051 269.806 411.641 268.267 387.963L268.12 385.751C267.077 370.388 265.727 357.491 264.143 346.846L263.913 345.327C262.643 337.081 261.297 330.674 259.95 325.882L259.828 325.451C259.316 323.667 258.843 322.251 258.419 321.166L258.216 320.66C258.074 320.319 257.971 320.098 257.911 319.986C257.732 319.652 257.873 319.243 258.226 319.074Z" fill="#0C0C0C"/>
<path fill-rule="evenodd" clip-rule="evenodd" d="M258.804 330.377C258.835 331.643 257.956 332.689 256.843 332.713C255.73 332.736 254.803 331.729 254.773 330.464C254.743 329.197 255.621 328.152 256.734 328.128C257.847 328.103 258.774 329.112 258.804 330.377Z" fill="white"/>
<path fill-rule="evenodd" clip-rule="evenodd" d="M262.18 353.623C262.21 354.89 261.333 355.935 260.22 355.96C259.107 355.982 258.18 354.976 258.15 353.71C258.12 352.443 258.997 351.398 260.11 351.374C261.223 351.35 262.15 352.358 262.18 353.623Z" fill="white"/>
<path fill-rule="evenodd" clip-rule="evenodd" d="M264.393 378.806C264.423 380.071 263.545 381.118 262.432 381.142C261.319 381.165 260.392 380.158 260.362 378.893C260.332 377.626 261.21 376.581 262.323 376.557C263.436 376.532 264.363 377.541 264.393 378.806Z" fill="white"/>
<path fill-rule="evenodd" clip-rule="evenodd" d="M264.854 404.344C264.884 405.61 264.007 406.656 262.894 406.68C261.781 406.703 260.854 405.696 260.822 404.431C260.792 403.164 261.671 402.119 262.784 402.095C263.897 402.07 264.823 403.079 264.854 404.344Z" fill="white"/>
<path fill-rule="evenodd" clip-rule="evenodd" d="M307.224 388.015C307.224 388.015 291.487 377.509 288.724 367.529C284.77 353.254 304.804 355.571 304.804 355.571C304.804 355.571 310.752 355.783 322.863 360.403C329.59 362.968 346.783 370.133 343.716 372.75C340.085 375.848 328.921 371.062 327.447 374.163C325.935 377.345 328.781 378.87 334.138 384.341C337.486 387.761 342.142 389.914 344.422 393.316C348.882 399.963 329.929 403.197 307.224 388.015Z" fill="#FFC999"/>
<path d="M324.245 383.42C324.107 383.183 324.192 382.89 324.434 382.766C324.677 382.641 324.985 382.733 325.123 382.971L325.294 383.243C325.445 383.474 325.63 383.74 325.849 384.036C329.003 388.291 334.103 392.444 341.46 395.194C341.723 395.292 341.861 395.574 341.768 395.823C341.674 396.072 341.386 396.195 341.123 396.096C333.557 393.269 328.299 388.987 325.033 384.58C324.859 384.345 324.706 384.128 324.571 383.93L324.444 383.738C324.345 383.587 324.279 383.48 324.245 383.42Z" fill="#DD936F"/>
<path d="M319.019 386.332C319.229 386.163 319.548 386.194 319.731 386.402C322.52 389.553 325.983 392.11 329.725 394.111C330.869 394.723 331.954 395.235 332.945 395.652C333.118 395.725 333.281 395.792 333.435 395.854L333.867 396.022C334.026 396.082 334.134 396.121 334.188 396.139C334.454 396.23 334.6 396.508 334.515 396.76C334.43 397.012 334.145 397.143 333.879 397.052L333.526 396.923C333.246 396.818 332.925 396.69 332.567 396.539C331.546 396.109 330.431 395.583 329.257 394.955C325.412 392.899 321.851 390.269 318.971 387.015C318.787 386.807 318.809 386.502 319.019 386.332Z" fill="#DD936F"/>
<path d="M312.454 386.812C312.682 386.665 312.997 386.728 313.158 386.952L313.276 387.105C313.314 387.152 313.359 387.207 313.413 387.272C315.477 389.732 319.29 392.798 325.279 395.908C325.528 396.037 325.627 396.332 325.501 396.567C325.375 396.801 325.071 396.887 324.822 396.757C318.875 393.669 315.001 390.6 312.813 388.073L312.635 387.864C312.484 387.684 312.384 387.556 312.333 387.484C312.188 387.282 312.217 387.018 312.391 386.861L312.454 386.812Z" fill="#DD936F"/>
<path fill-rule="evenodd" clip-rule="evenodd" d="M156.326 321.046C148.055 318.437 143.266 310.177 145.412 302.223L164.858 230.174C167.719 219.578 179.403 213.584 190.423 217.059C201.313 220.494 207.154 231.8 203.282 241.952L176.65 311.797C173.674 319.605 164.7 323.688 156.326 321.046Z" fill="#FFC999"/>
<path fill-rule="evenodd" clip-rule="evenodd" d="M156.088 323.792C144.372 319.688 138.027 306.336 141.918 293.973L164.201 223.161C168.089 210.798 180.741 204.103 192.459 208.208C204.173 212.312 210.518 225.664 206.629 238.027L184.347 308.839C180.456 321.202 167.805 327.897 156.088 323.792Z" fill="#1F1F1F"/>
<path d="M141.536 297.712C145.01 289.603 154.4 285.846 162.509 289.32L304.245 350.047L291.664 379.412L149.927 318.685C141.818 315.211 138.061 305.821 141.536 297.712Z" fill="#1F1F1F"/>
<path d="M194.773 253L181 303.5L303.5 350.5L289.5 378.5" stroke="#0D0D0F" stroke-width="2" stroke-linecap="round" stroke-linejoin="round"/>
<path d="M178.616 212.006C179.203 212.079 180.185 212.317 181.432 212.815C183.491 213.637 185.545 214.908 187.459 216.722C191.579 220.625 194.467 226.476 195.596 234.608C195.653 235.019 195.367 235.397 194.957 235.454C194.546 235.511 194.168 235.225 194.111 234.815C193.027 227.011 190.293 221.474 186.427 217.81C184.657 216.133 182.765 214.962 180.876 214.208C180.219 213.946 179.612 213.755 179.07 213.623L178.786 213.559C178.62 213.523 178.499 213.503 178.43 213.494C178.019 213.443 177.727 213.068 177.779 212.657C177.826 212.28 178.145 212.004 178.514 212L178.616 212.006Z" fill="#0D0D0F"/>
<path d="M289.55 378.21L258.126 365.344" stroke="#0D0D0F" stroke-width="2" stroke-linecap="round"/>
<path d="M281.601 502.187C281.843 501.971 282.282 501.937 282.581 502.112C282.881 502.287 282.928 502.604 282.686 502.821C279.772 505.429 276.356 508.068 272.541 510.709C268.033 513.829 263.206 516.792 258.378 519.501L256.96 520.29C256.267 520.671 255.598 521.034 254.956 521.377L253.42 522.188L252.214 522.807L248.392 572.045C248.373 572.292 248.111 572.488 247.783 572.517L247.657 572.52C247.315 572.506 247.044 572.317 247.004 572.08L247 571.989L250.84 522.507C250.852 522.351 250.964 522.208 251.142 522.119L252.332 521.513L252.891 521.221C254.288 520.489 255.845 519.647 257.522 518.705C262.314 516.016 267.106 513.075 271.576 509.981C275.351 507.369 278.726 504.76 281.601 502.187Z" fill="#141414"/>
<path d="M256.974 148.02C257.566 147.995 258.067 148.455 258.092 149.048C258.115 149.601 257.716 150.074 257.181 150.155L257.064 150.166L251.874 150.385C251.282 150.41 250.781 149.95 250.756 149.357C250.733 148.804 251.132 148.331 251.667 148.25L251.784 148.239L256.974 148.02Z" fill="#3D3B34"/>
<path d="M252.327 151.511C253.382 151.05 254.461 150.803 255.521 150.901C256.506 150.991 257.399 151.383 258.132 152.107C258.554 152.524 258.558 153.204 258.141 153.626C257.754 154.017 257.14 154.049 256.716 153.717L256.622 153.634C256.256 153.273 255.83 153.086 255.324 153.04C254.683 152.981 253.939 153.15 253.188 153.479C252.789 153.653 252.486 153.826 252.333 153.928C251.841 154.258 251.174 154.126 250.843 153.633C250.513 153.14 250.645 152.473 251.138 152.143C251.389 151.975 251.799 151.742 252.327 151.511Z" fill="#3D3B34"/>
<path d="M232.564 148.76C233.157 148.746 233.649 149.215 233.663 149.808C233.676 150.362 233.268 150.827 232.731 150.898L232.614 150.907L224.099 151.108C223.506 151.122 223.014 150.653 223 150.06C222.987 149.506 223.395 149.041 223.931 148.97L224.048 148.961L232.564 148.76Z" fill="#3D3B34"/>
<path fill-rule="evenodd" clip-rule="evenodd" d="M233.178 148.133L249.433 147.658C250.569 147.625 251.515 148.514 251.541 149.65C251.587 151.768 251.568 155.165 251.101 158.089C250.552 161.536 247.531 163.724 244.051 163.987C239.703 164.317 235.795 164.435 233.754 162.233C230.643 158.879 231.214 153.19 231.19 150.187C231.181 149.084 232.077 148.165 233.178 148.133Z" fill="white"/>
<path d="M249.423 147.3L233.168 147.776C231.871 147.813 230.822 148.894 230.833 150.19L230.82 151.578L230.809 152.388C230.794 154.177 230.841 155.301 231.018 156.593C231.354 159.034 232.124 161.002 233.492 162.477C235.344 164.475 238.127 164.795 244.079 164.344C247.878 164.057 250.9 161.631 251.455 158.145C251.851 155.661 251.966 152.704 251.899 149.642C251.869 148.309 250.758 147.262 249.423 147.3ZM233.188 148.491L249.444 148.016C250.383 147.988 251.162 148.723 251.183 149.658C251.25 152.68 251.137 155.599 250.748 158.033C250.249 161.169 247.511 163.367 244.025 163.63L243.246 163.686C238.06 164.033 235.581 163.677 234.016 161.99C232.762 160.638 232.045 158.803 231.727 156.495C231.567 155.334 231.517 154.304 231.523 152.754L231.549 150.269C231.549 150.241 231.549 150.213 231.548 150.184C231.541 149.279 232.28 148.517 233.188 148.491Z" fill="#3D3B34"/>
<path fill-rule="evenodd" clip-rule="evenodd" d="M258.527 147.211L276.93 146.673C277.691 149.343 277.339 159.762 274.246 162.082C270.079 164.422 261.504 163.713 260.111 161.494C257.996 158.127 257.058 151.615 257.01 148.803C256.995 147.945 257.669 147.237 258.527 147.211Z" fill="white"/>
<path d="M276.92 146.315L258.516 146.854C257.463 146.885 256.634 147.755 256.653 148.809C256.721 152.798 257.976 158.768 259.808 161.685C261.394 164.209 270.284 164.717 274.42 162.394C277.223 160.296 278.38 150.456 277.274 146.575C277.23 146.417 277.084 146.31 276.92 146.315ZM276.655 147.038L276.696 147.215C277.531 151.122 276.402 160.017 274.031 161.796C270.228 163.928 261.758 163.444 260.414 161.304C258.665 158.519 257.434 152.667 257.368 148.797C257.356 148.134 257.876 147.589 258.537 147.569L276.655 147.038Z" fill="#3D3B34"/>
<path d="M251.578 147.161C252.171 147.159 252.653 147.638 252.655 148.231C252.657 148.785 252.239 149.242 251.702 149.302L251.585 149.309L231.42 149.37C230.827 149.372 230.345 148.893 230.343 148.299C230.341 147.746 230.759 147.289 231.296 147.229L231.414 147.222L251.578 147.161Z" fill="#3D3B34"/>
<path d="M277.046 146.001C277.639 145.975 278.14 146.435 278.166 147.028C278.19 147.581 277.791 148.054 277.256 148.136L277.139 148.147L257.401 149.002C256.808 149.028 256.307 148.568 256.281 147.976C256.257 147.422 256.656 146.949 257.191 146.867L257.308 146.856L277.046 146.001Z" fill="#3D3B34"/>
<path fill-rule="evenodd" clip-rule="evenodd" d="M244.767 156.091C244.826 157.837 243.807 159.286 242.49 159.324C241.175 159.364 240.06 157.982 240.002 156.236C239.943 154.488 240.963 153.041 242.279 153.001C243.594 152.961 244.709 154.345 244.767 156.091Z" fill="#1D1D1E"/>
<path fill-rule="evenodd" clip-rule="evenodd" d="M269.767 156.091C269.826 157.837 268.806 159.284 267.49 159.324C266.175 159.364 265.06 157.98 265.002 156.234C264.943 154.488 265.963 153.041 267.279 153.001C268.594 152.961 269.709 154.345 269.767 156.091Z" fill="#1D1D1E"/>
</svg>
