<svg width="204" height="206" viewBox="0 0 204 206" fill="none" xmlns="http://www.w3.org/2000/svg">
<g filter="url(#filter0_d)">
<circle cx="102" cy="100" r="100" fill="#003951"/>
</g>
<rect x="71" y="43" width="62" height="114" rx="4" fill="#186283"/>
<circle cx="102" cy="148" r="5" fill="#D5E8F3"/>
<circle cx="102" cy="148" r="4" fill="#A8B6CD"/>
<path fill-rule="evenodd" clip-rule="evenodd" d="M94.0853 46H78C75.7909 46 74 47.791 74 50V136C74 138.209 75.7909 140 78 140H126C128.209 140 130 138.209 130 136V50C130 47.791 128.209 46 126 46H108.915C108.709 46.5825 108.153 47 107.5 47H95.5C94.8469 47 94.2913 46.5825 94.0853 46Z" fill="#2797C7"/>
<path d="M111 90.375V88C111 86.7402 110.5 85.532 109.609 84.6412C108.718 83.7504 107.51 83.25 106.25 83.25H96.75C95.4902 83.25 94.282 83.7504 93.3912 84.6412C92.5004 85.532 92 86.7402 92 88V90.375" fill="white"/>
<path d="M101.5 78.5C104.123 78.5 106.25 76.3734 106.25 73.75C106.25 71.1266 104.123 69 101.5 69C98.8766 69 96.75 71.1266 96.75 73.75C96.75 76.3734 98.8766 78.5 101.5 78.5Z" fill="white"/>
<circle cx="74" cy="48" r="15" fill="#F6841F"/>
<circle cx="74" cy="48" r="12" fill="#F8CD3D"/>
<path d="M73.5 40V56.5" stroke="#F39A30" stroke-width="1.5" stroke-linecap="round" stroke-linejoin="round"/>
<path d="M77.25 43H71.625C70.9288 43 70.2611 43.2766 69.7688 43.7688C69.2766 44.2611 69 44.9288 69 45.625C69 46.3212 69.2766 46.9889 69.7688 47.4812C70.2611 47.9734 70.9288 48.25 71.625 48.25H75.375C76.0712 48.25 76.7389 48.5266 77.2312 49.0188C77.7234 49.5111 78 50.1788 78 50.875C78 51.5712 77.7234 52.2389 77.2312 52.7312C76.7389 53.2234 76.0712 53.5 75.375 53.5H69" stroke="#F39A30" stroke-width="1.5" stroke-linecap="round" stroke-linejoin="round"/>
<rect x="80" y="88" width="43" height="43" rx="4" fill="white"/>
<rect x="89" y="98" width="25" height="2" fill="#F8CD3D"/>
<rect x="84" y="103" width="20" height="2" fill="#F8CD3D"/>
<rect x="84" y="109" width="20" height="2" fill="#F8CD3D"/>
<rect x="84" y="115" width="20" height="2" fill="#F8CD3D"/>
<rect x="109" y="103" width="9" height="2" fill="#F8CD3D"/>
<rect x="113" y="109" width="5" height="2" fill="#F8CD3D"/>
<rect x="111" y="115" width="7" height="2" fill="#F8CD3D"/>
<rect x="91.5" y="121.5" width="20" height="6" stroke="#F8CD3D" stroke-width="3"/>
<rect x="112" y="63" width="50" height="32" rx="6" fill="#F8CD3D"/>
<rect x="116" y="69" width="12" height="9" rx="4.5" fill="#F39A30"/>
<rect x="116" y="83" width="37" height="1" fill="#F6841F"/>
<rect x="116" y="87" width="18" height="2" rx="1" fill="#F6841F"/>
<rect x="116" y="91" width="10" height="2" rx="1" fill="#F6841F"/>
<rect x="128" y="91" width="6" height="2" rx="1" fill="#F6841F"/>
<rect x="148" y="73" width="6" height="5" fill="#F8BE61"/>
<rect x="144" y="70" width="6" height="5" fill="#F8B03C"/>
<path d="M132.5 154.25C132.5 154.25 151 145 151 131.125V114.938L132.5 108L114 114.938V131.125C114 145 132.5 154.25 132.5 154.25Z" fill="#F6841F"/>
<path d="M132.5 148.7C132.5 148.7 147.3 141.3 147.3 130.2V117.25L132.5 111.7L117.7 117.25V130.2C117.7 141.3 132.5 148.7 132.5 148.7Z" fill="#F9D257"/>
<circle cx="132.5" cy="128.5" r="10.5" fill="#186283"/>
<path d="M136.889 128H129.111C128.497 128 128 128.497 128 129.111V133C128 133.614 128.497 134.111 129.111 134.111H136.889C137.503 134.111 138 133.614 138 133V129.111C138 128.497 137.503 128 136.889 128Z" fill="white"/>
<path d="M130.222 128V125.778C130.222 125.041 130.515 124.335 131.036 123.814C131.557 123.293 132.263 123 133 123C133.737 123 134.443 123.293 134.964 123.814C135.485 124.335 135.778 125.041 135.778 125.778V128" stroke="white" stroke-width="2" stroke-linecap="round" stroke-linejoin="round"/>
<circle cx="133" cy="131" r="1" fill="#186283"/>
<path d="M46 28H66V42.8485C66 48.3713 61.5228 52.8485 56 52.8485V52.8485C50.4772 52.8485 46 48.3713 46 42.8485V28Z" fill="#186283"/>
<path d="M47.8182 29.2122H64.1818V42.8485C64.1818 47.3672 60.5187 51.0303 56 51.0303V51.0303C51.4813 51.0303 47.8182 47.3672 47.8182 42.8485V29.2122Z" fill="#2797C7"/>
<path d="M61.1515 36.4849L54.4848 43.1515L51.4545 40.1212" stroke="white" stroke-width="1.5" stroke-linecap="round" stroke-linejoin="round"/>
<path fill-rule="evenodd" clip-rule="evenodd" d="M58.8054 75.8403C58.7706 75.6487 58.7941 75.451 58.8727 75.2727C58.9476 75.098 59.072 74.9489 59.2305 74.8439C59.3891 74.7389 59.5749 74.6826 59.765 74.6818H59.8182C60.1316 74.6818 60.4322 74.5573 60.6539 74.3357C60.8755 74.114 61 73.8134 61 73.5C61 73.1866 60.8755 72.886 60.6539 72.6643C60.4322 72.4427 60.1316 72.3182 59.8182 72.3182H59.7177C59.5276 72.3174 59.3418 72.2611 59.1833 72.1561C59.0247 72.0511 58.9004 71.902 58.8255 71.7273V71.68C58.7468 71.5018 58.7233 71.3041 58.7581 71.1124C58.7928 70.9207 58.8842 70.7438 59.0205 70.6045L59.0559 70.5691C59.1658 70.4593 59.253 70.329 59.3124 70.1855C59.3719 70.042 59.4025 69.8883 59.4025 69.733C59.4025 69.5776 59.3719 69.4239 59.3124 69.2804C59.253 69.1369 59.1658 69.0066 59.0559 68.8968C58.9461 68.7869 58.8158 68.6998 58.6723 68.6403C58.5289 68.5808 58.3751 68.5502 58.2198 68.5502C58.0645 68.5502 57.9107 68.5808 57.7672 68.6403C57.6237 68.6998 57.4934 68.7869 57.3836 68.8968L57.3482 68.9323C57.2089 69.0685 57.032 69.1599 56.8403 69.1946C56.6487 69.2294 56.451 69.2059 56.2727 69.1273C56.098 69.0524 55.9489 68.928 55.8439 68.7695C55.7389 68.6109 55.6826 68.4251 55.6818 68.235V68.1818C55.6818 67.8684 55.5573 67.5678 55.3357 67.3461C55.114 67.1245 54.8134 67 54.5 67C54.1866 67 53.886 67.1245 53.6643 67.3461C53.4427 67.5678 53.3182 67.8684 53.3182 68.1818V68.2823C53.3174 68.4724 53.2611 68.6582 53.1561 68.8167C53.0511 68.9753 52.902 69.0996 52.7273 69.1745H52.68C52.5018 69.2532 52.3041 69.2767 52.1124 69.2419C51.9207 69.2072 51.7438 69.1158 51.6045 68.9795L51.5691 68.9441C51.4593 68.8342 51.329 68.747 51.1855 68.6876C51.042 68.6281 50.8883 68.5975 50.733 68.5975C50.5776 68.5975 50.4239 68.6281 50.2804 68.6876C50.1369 68.747 50.0066 68.8342 49.8968 68.9441C49.7869 69.0538 49.6998 69.1842 49.6403 69.3277C49.5808 69.4711 49.5502 69.6249 49.5502 69.7802C49.5502 69.9355 49.5808 70.0893 49.6403 70.2328C49.6998 70.3763 49.7869 70.5066 49.8968 70.6164L49.9323 70.6518C50.0685 70.7911 50.1599 70.968 50.1946 71.1597C50.2294 71.3513 50.2059 71.549 50.1273 71.7273C50.0597 71.9109 49.9385 72.0699 49.7794 72.1838C49.6203 72.2976 49.4306 72.3609 49.235 72.3655H49.1818C48.8684 72.3655 48.5678 72.49 48.3461 72.7116C48.1245 72.9332 48 73.2338 48 73.5473C48 73.8607 48.1245 74.1613 48.3461 74.3829C48.5678 74.6046 48.8684 74.7291 49.1818 74.7291H49.2823C49.4724 74.7298 49.6582 74.7862 49.8167 74.8912C49.9753 74.9962 50.0996 75.1452 50.1745 75.32C50.2532 75.4982 50.2767 75.6959 50.2419 75.8876C50.2072 76.0793 50.1158 76.2562 49.9795 76.3955L49.9441 76.4309C49.8342 76.5407 49.747 76.671 49.6876 76.8145C49.6281 76.9579 49.5975 77.1117 49.5975 77.267C49.5975 77.4224 49.6281 77.5761 49.6876 77.7196C49.747 77.8631 49.8342 77.9934 49.9441 78.1032C50.0538 78.2131 50.1842 78.3002 50.3277 78.3597C50.4711 78.4192 50.6249 78.4498 50.7802 78.4498C50.9355 78.4498 51.0893 78.4192 51.2328 78.3597C51.3763 78.3002 51.5066 78.2131 51.6164 78.1032L51.6518 78.0677C51.7911 77.9315 51.968 77.8401 52.1597 77.8054C52.3513 77.7706 52.549 77.7941 52.7273 77.8727C52.9109 77.9403 53.0699 78.0615 53.1838 78.2206C53.2976 78.3797 53.3609 78.5694 53.3655 78.765V78.8182C53.3655 79.1316 53.49 79.4322 53.7116 79.6539C53.9332 79.8755 54.2338 80 54.5473 80C54.8607 80 55.1613 79.8755 55.3829 79.6539C55.6046 79.4322 55.7291 79.1316 55.7291 78.8182V78.7177C55.7298 78.5276 55.7862 78.3418 55.8912 78.1833C55.9962 78.0247 56.1452 77.9004 56.32 77.8255C56.4982 77.7468 56.6959 77.7233 56.8876 77.7581C57.0793 77.7928 57.2562 77.8842 57.3955 78.0205L57.4309 78.0559C57.5407 78.1658 57.671 78.253 57.8145 78.3124C57.9579 78.3719 58.1117 78.4025 58.267 78.4025C58.4224 78.4025 58.5761 78.3719 58.7196 78.3124C58.8631 78.253 58.9934 78.1658 59.1032 78.0559C59.2131 77.9461 59.3002 77.8158 59.3597 77.6723C59.4192 77.5289 59.4498 77.3751 59.4498 77.2198C59.4498 77.0645 59.4192 76.9107 59.3597 76.7672C59.3002 76.6237 59.2131 76.4934 59.1032 76.3836L59.0677 76.3482C58.9315 76.2089 58.8401 76.032 58.8054 75.8403ZM53.7273 73.5C53.7273 73.0732 54.0732 72.7273 54.5 72.7273C54.9268 72.7273 55.2727 73.0732 55.2727 73.5C55.2727 73.9268 54.9268 74.2727 54.5 74.2727C54.0732 74.2727 53.7273 73.9268 53.7273 73.5ZM54.5 70.7273C52.9687 70.7273 51.7273 71.9687 51.7273 73.5C51.7273 75.0313 52.9687 76.2727 54.5 76.2727C56.0313 76.2727 57.2727 75.0313 57.2727 73.5C57.2727 71.9687 56.0313 70.7273 54.5 70.7273Z" fill="#186283"/>
<path fill-rule="evenodd" clip-rule="evenodd" d="M153.286 40.9606C153.227 40.6362 153.267 40.3016 153.4 40C153.527 39.7042 153.737 39.452 154.006 39.2743C154.274 39.0966 154.588 39.0013 154.91 39H155C155.53 39 156.039 38.7893 156.414 38.4142C156.789 38.0391 157 37.5304 157 37C157 36.4696 156.789 35.9609 156.414 35.5858C156.039 35.2107 155.53 35 155 35H154.83C154.508 34.9987 154.194 34.9034 153.926 34.7257C153.657 34.548 153.447 34.2958 153.32 34V33.92C153.187 33.6184 153.147 33.2838 153.206 32.9594C153.265 32.635 153.419 32.3357 153.65 32.1L153.71 32.04C153.896 31.8543 154.043 31.6337 154.144 31.3909C154.245 31.1481 154.297 30.8878 154.297 30.625C154.297 30.3622 154.245 30.1019 154.144 29.8591C154.043 29.6163 153.896 29.3957 153.71 29.21C153.524 29.024 153.304 28.8765 153.061 28.7759C152.818 28.6752 152.558 28.6234 152.295 28.6234C152.032 28.6234 151.772 28.6752 151.529 28.7759C151.286 28.8765 151.066 29.024 150.88 29.21L150.82 29.27C150.584 29.5005 150.285 29.6552 149.961 29.714C149.636 29.7728 149.302 29.7331 149 29.6C148.704 29.4732 148.452 29.2628 148.274 28.9945C148.097 28.7262 148.001 28.4118 148 28.09V28C148 27.4696 147.789 26.9609 147.414 26.5858C147.039 26.2107 146.53 26 146 26C145.47 26 144.961 26.2107 144.586 26.5858C144.211 26.9609 144 27.4696 144 28V28.17C143.999 28.4918 143.903 28.8062 143.726 29.0745C143.548 29.3428 143.296 29.5532 143 29.68H142.92C142.618 29.8131 142.284 29.8528 141.959 29.794C141.635 29.7352 141.336 29.5805 141.1 29.35L141.04 29.29C140.854 29.104 140.634 28.9565 140.391 28.8559C140.148 28.7552 139.888 28.7034 139.625 28.7034C139.362 28.7034 139.102 28.7552 138.859 28.8559C138.616 28.9565 138.396 29.104 138.21 29.29C138.024 29.4757 137.877 29.6963 137.776 29.9391C137.675 30.1819 137.623 30.4422 137.623 30.705C137.623 30.9678 137.675 31.2281 137.776 31.4709C137.877 31.7137 138.024 31.9343 138.21 32.12L138.27 32.18C138.501 32.4157 138.655 32.715 138.714 33.0394C138.773 33.3638 138.733 33.6984 138.6 34C138.486 34.3107 138.281 34.5799 138.011 34.7725C137.742 34.9651 137.421 35.0723 137.09 35.08H137C136.47 35.08 135.961 35.2907 135.586 35.6658C135.211 36.0409 135 36.5496 135 37.08C135 37.6104 135.211 38.1191 135.586 38.4942C135.961 38.8693 136.47 39.08 137 39.08H137.17C137.492 39.0813 137.806 39.1766 138.074 39.3543C138.343 39.532 138.553 39.7842 138.68 40.08C138.813 40.3816 138.853 40.7162 138.794 41.0406C138.735 41.365 138.581 41.6643 138.35 41.9L138.29 41.96C138.104 42.1457 137.957 42.3663 137.856 42.6091C137.755 42.8519 137.703 43.1122 137.703 43.375C137.703 43.6378 137.755 43.8981 137.856 44.1409C137.957 44.3837 138.104 44.6043 138.29 44.79C138.476 44.976 138.696 45.1235 138.939 45.2241C139.182 45.3248 139.442 45.3766 139.705 45.3766C139.968 45.3766 140.228 45.3248 140.471 45.2241C140.714 45.1235 140.934 44.976 141.12 44.79L141.18 44.73C141.416 44.4995 141.715 44.3448 142.039 44.286C142.364 44.2272 142.698 44.2669 143 44.4C143.311 44.5143 143.58 44.7194 143.773 44.9887C143.965 45.258 144.072 45.579 144.08 45.91V46C144.08 46.5304 144.291 47.0391 144.666 47.4142C145.041 47.7893 145.55 48 146.08 48C146.61 48 147.119 47.7893 147.494 47.4142C147.869 47.0391 148.08 46.5304 148.08 46V45.83C148.081 45.5082 148.177 45.1938 148.354 44.9255C148.532 44.6572 148.784 44.4468 149.08 44.32C149.382 44.1869 149.716 44.1472 150.041 44.206C150.365 44.2648 150.664 44.4195 150.9 44.65L150.96 44.71C151.146 44.896 151.366 45.0435 151.609 45.1441C151.852 45.2448 152.112 45.2966 152.375 45.2966C152.638 45.2966 152.898 45.2448 153.141 45.1441C153.384 45.0435 153.604 44.896 153.79 44.71C153.976 44.5243 154.123 44.3037 154.224 44.0609C154.325 43.8181 154.377 43.5578 154.377 43.295C154.377 43.0322 154.325 42.7719 154.224 42.5291C154.123 42.2863 153.976 42.0657 153.79 41.88L153.73 41.82C153.499 41.5843 153.345 41.285 153.286 40.9606ZM144 37C144 35.8955 144.895 35 146 35C147.105 35 148 35.8955 148 37C148 38.1046 147.105 39 146 39C144.895 39 144 38.1046 144 37ZM146 33C143.791 33 142 34.7909 142 37C142 39.2092 143.791 41 146 41C148.209 41 150 39.2092 150 37C150 34.7909 148.209 33 146 33Z" fill="#186283"/>
<defs>
<filter id="filter0_d" x="0" y="0" width="204" height="206" filterUnits="userSpaceOnUse" color-interpolation-filters="sRGB">
<feFlood flood-opacity="0" result="BackgroundImageFix"/>
<feColorMatrix in="SourceAlpha" type="matrix" values="0 0 0 0 0 0 0 0 0 0 0 0 0 0 0 0 0 0 127 0"/>
<feMorphology radius="2" operator="dilate" in="SourceAlpha" result="effect1_dropShadow"/>
<feOffset dy="4"/>
<feColorMatrix type="matrix" values="0 0 0 0 0 0 0 0 0 0 0 0 0 0 0 0 0 0 0.25 0"/>
<feBlend mode="normal" in2="BackgroundImageFix" result="effect1_dropShadow"/>
<feBlend mode="normal" in="SourceGraphic" in2="effect1_dropShadow" result="shape"/>
</filter>
</defs>
</svg>
