<svg width="204" height="206" viewBox="0 0 204 206" fill="none" xmlns="http://www.w3.org/2000/svg">
<g filter="url(#filter0_d)">
<circle cx="102" cy="100" r="100" fill="#003951"/>
</g>
<path fill-rule="evenodd" clip-rule="evenodd" d="M45 158H159C145.364 146.836 117.932 144 102 144C86.0614 144 58.6263 146.844 45 158Z" fill="#E2FC85"/>
<path fill-rule="evenodd" clip-rule="evenodd" d="M91 145C98.3089 144.514 105.691 144.514 113 145L111.474 123.26H92.5264L91 145ZM94.0526 101.52H109.947L102 80L94.0526 101.52Z" fill="#E5ECF5"/>
<path fill-rule="evenodd" clip-rule="evenodd" d="M93 123H111L109.55 101H94.4501L93 123Z" fill="#F8CC3E"/>
<path fill-rule="evenodd" clip-rule="evenodd" d="M65.584 100L87.8985 87.1036L96.8609 77.6526C95.7682 76.6143 94.9711 75.267 94.6091 73.751L81.9528 76.7944L69.937 83.7388C64.2727 87.0121 62.3137 94.3299 65.584 100ZM100.068 64.2851C101.528 63.8531 103.11 63.8523 104.57 64.2856L108.265 51.7922V37.9038C108.265 31.3769 102.946 26.0325 96.4328 26L96.3728 51.7924L100.068 64.2851ZM107.777 77.6526L116.739 87.1036L128.755 94.048C134.419 97.3213 141.73 95.3606 145 89.6908L122.685 76.7944L110.029 73.751C109.667 75.267 108.87 76.614 107.777 77.6526Z" fill="#E5ECF5"/>
<path d="M102 80C106.418 80 110 76.4183 110 72C110 67.5817 106.418 64 102 64C97.5817 64 94 67.5817 94 72C94 76.4183 97.5817 80 102 80Z" fill="#F8CC3E"/>
<path fill-rule="evenodd" clip-rule="evenodd" d="M58 142H65.9748V134.246L61.9874 124L58 134.246V142ZM146 142H138.025V134.246L142.013 124L146 134.246V142Z" fill="#3C87D0"/>
<path fill-rule="evenodd" clip-rule="evenodd" d="M109.725 73.8924C109.368 75.4626 108.576 76.9167 107.469 78.0282L111.927 83C113.362 81.1531 115.024 78.0891 116 75.4884L109.725 73.8924ZM94.2749 73.8924C94.6318 75.4626 95.4241 76.9167 96.5309 78.0282L92.0735 83C90.6383 81.1531 88.9763 78.0891 88 75.4884L94.2749 73.8924ZM99.7446 63.8611C101.207 63.4033 102.793 63.4025 104.255 63.8617L106.093 57.2889C103.865 56.8964 100.528 56.9043 97.9125 57.3097L99.7446 63.8611Z" fill="#B0C5E0"/>
<path fill-rule="evenodd" clip-rule="evenodd" d="M105 79.4145C98.3688 76.7323 98.3696 67.2711 105 64.5863C99.8061 62.4836 94 66.2876 94 71.9994C94 77.7105 99.8053 81.5158 105 79.4145Z" fill="#E4B009"/>
<path fill-rule="evenodd" clip-rule="evenodd" d="M93 123H98.5731L100 101H94.4272L93 123Z" fill="#E4B009"/>
<path fill-rule="evenodd" clip-rule="evenodd" d="M94.0526 101.521H100.013L102 80.0003L102 80L94.0526 101.521ZM91 145C92.989 144.868 94.9838 144.772 96.9807 144.711L98.4867 123.26H92.5262L91 145Z" fill="#B0C5E0"/>
<path fill-rule="evenodd" clip-rule="evenodd" d="M146 151C143.529 150.184 140.862 149.436 138.025 148.766V142H146V151ZM58 151C60.4714 150.184 63.1384 149.436 65.9748 148.766V142H58V151Z" fill="#B0C5E0"/>
<path fill-rule="evenodd" clip-rule="evenodd" d="M45 158H52.9867C66.8251 146.67 102 144 102 144C86.0613 144 58.6263 146.844 45 158Z" fill="#BDE62B"/>
<path d="M100 110H104V113H100V110Z" fill="white"/>
<g clip-path="url(#clip0)">
<path d="M156.858 60.6207L160.602 62.2911C160.829 62.3927 160.878 62.6946 160.693 62.8621L156.11 67.018C155.926 67.1855 155.974 67.4874 156.202 67.5889L157.874 68.335C158.108 68.4395 158.15 68.7538 157.952 68.9167L153.415 72.6524C153.217 72.8154 153.259 73.1297 153.494 73.2341L154.16 73.5313C154.449 73.6603 154.46 74.0668 154.178 74.2111L148.044 77.3496C147.684 77.5342 147.355 77.0535 147.658 76.7843L150.542 74.2211C150.724 74.0597 150.686 73.7662 150.47 73.6557L149.149 72.9813C148.926 72.8671 148.895 72.5603 149.091 72.4039L152.97 69.3128C153.172 69.1515 153.131 68.8331 152.895 68.7276L150.563 67.6869C150.357 67.5952 150.293 67.3347 150.432 67.158L156.446 60.7223C156.544 60.5982 156.714 60.5563 156.858 60.6207V60.6207Z" fill="#FFEBA8"/>
<path d="M157.872 68.3349L156.2 67.5888C155.972 67.4873 155.924 67.1853 156.109 67.0179L160.691 62.862C160.876 62.6945 160.828 62.3926 160.6 62.291L156.856 60.6206C156.712 60.5562 156.542 60.598 156.445 60.7222L156.19 60.9945L159.032 62.2626C159.26 62.3642 159.308 62.6661 159.124 62.8335L154.541 66.9895C154.356 67.1569 154.405 67.4588 154.632 67.5604L156.304 68.3065C156.538 68.4109 156.581 68.7252 156.383 68.8882L151.846 72.6238C151.648 72.7868 151.69 73.1011 151.924 73.2056L152.59 73.5027C152.879 73.6318 152.89 74.0382 152.608 74.1825L147.836 76.6247L147.656 76.7842C147.353 77.0535 147.682 77.5342 148.043 77.3495L154.176 74.2109C154.458 74.0667 154.447 73.6602 154.158 73.5312L153.492 73.234C153.258 73.1295 153.215 72.8152 153.413 72.6523L157.951 68.9166C158.149 68.7537 158.106 68.4394 157.872 68.3349Z" fill="#FDDF7C"/>
</g>
<g clip-path="url(#clip1)">
<path d="M149.503 105.713L151.274 106.503C151.382 106.551 151.404 106.694 151.317 106.773L149.149 108.74C149.061 108.819 149.084 108.962 149.192 109.01L149.983 109.363C150.094 109.412 150.114 109.561 150.02 109.638L147.873 111.406C147.78 111.483 147.8 111.632 147.911 111.681L148.226 111.822C148.363 111.883 148.368 112.075 148.234 112.143L145.332 113.628C145.162 113.716 145.006 113.488 145.149 113.361L146.514 112.148C146.6 112.072 146.582 111.933 146.48 111.881L145.855 111.561C145.749 111.507 145.735 111.362 145.828 111.288L147.663 109.826C147.758 109.749 147.739 109.599 147.627 109.549L146.524 109.056C146.427 109.013 146.396 108.89 146.462 108.806L149.308 105.761C149.354 105.702 149.434 105.682 149.503 105.713V105.713Z" fill="#FFEBA8"/>
<path d="M149.983 109.363L149.191 109.01C149.084 108.962 149.061 108.819 149.148 108.74L151.317 106.774C151.404 106.694 151.381 106.552 151.273 106.503L149.502 105.713C149.434 105.683 149.353 105.702 149.307 105.761L149.187 105.89L150.532 106.49C150.639 106.538 150.662 106.681 150.575 106.76L148.406 108.727C148.319 108.806 148.342 108.949 148.45 108.997L149.241 109.35C149.352 109.399 149.372 109.548 149.278 109.625L147.131 111.393C147.037 111.47 147.058 111.618 147.168 111.668L147.483 111.808C147.62 111.869 147.625 112.062 147.492 112.13L145.234 113.286L145.149 113.361C145.006 113.488 145.161 113.716 145.332 113.629L148.234 112.143C148.367 112.075 148.362 111.883 148.225 111.822L147.91 111.681C147.799 111.632 147.779 111.483 147.873 111.406L150.02 109.638C150.114 109.561 150.093 109.413 149.983 109.363Z" fill="#FDDF7C"/>
</g>
<g clip-path="url(#clip2)">
<path d="M139.503 27.713L141.274 28.5034C141.382 28.5515 141.404 28.6943 141.317 28.7736L139.149 30.74C139.061 30.8192 139.084 30.962 139.192 31.0101L139.983 31.3631C140.094 31.4125 140.114 31.5612 140.02 31.6384L137.873 33.4059C137.78 33.483 137.8 33.6317 137.911 33.6812L138.226 33.8218C138.363 33.8828 138.368 34.0751 138.234 34.1434L135.332 35.6284C135.162 35.7158 135.006 35.4883 135.149 35.3609L136.514 34.1482C136.6 34.0718 136.582 33.9329 136.48 33.8806L135.855 33.5615C135.749 33.5075 135.735 33.3623 135.828 33.2883L137.663 31.8258C137.758 31.7495 137.739 31.5988 137.627 31.5489L136.524 31.0564C136.427 31.0131 136.396 30.8898 136.462 30.8062L139.308 27.7611C139.354 27.7024 139.434 27.6826 139.503 27.713V27.713Z" fill="#FFEBA8"/>
<path d="M139.983 31.3633L139.191 31.0102C139.084 30.9622 139.061 30.8193 139.148 30.7401L141.317 28.7737C141.404 28.6945 141.381 28.5516 141.273 28.5036L139.502 27.7132C139.434 27.6827 139.353 27.7025 139.307 27.7613L139.187 27.8901L140.532 28.4901C140.639 28.5382 140.662 28.681 140.575 28.7602L138.406 30.7266C138.319 30.8059 138.342 30.9487 138.45 30.9968L139.241 31.3498C139.352 31.3992 139.372 31.5479 139.278 31.625L137.131 33.3926C137.037 33.4697 137.058 33.6184 137.168 33.6678L137.483 33.8085C137.62 33.8695 137.625 34.0618 137.492 34.1301L135.234 35.2856L135.149 35.3611C135.006 35.4885 135.161 35.716 135.332 35.6286L138.234 34.1435C138.367 34.0753 138.362 33.883 138.225 33.8219L137.91 33.6813C137.799 33.6319 137.779 33.4832 137.873 33.406L140.02 31.6385C140.114 31.5614 140.093 31.4127 139.983 31.3633Z" fill="#FDDF7C"/>
</g>
<g clip-path="url(#clip3)">
<path d="M54.4596 59.4634L50.2193 60.5995C49.9615 60.6686 49.8596 60.9798 50.0267 61.1879L54.1732 66.3544C54.3402 66.5626 54.2384 66.8738 53.9805 66.9429L52.0868 67.4503C51.8215 67.5214 51.7236 67.8466 51.9055 68.0522L56.0749 72.7667C56.2568 72.9724 56.1589 73.2976 55.8937 73.3686L55.1393 73.5708C54.8118 73.6585 54.7319 74.0865 55.0057 74.2865L60.9633 78.6383C61.3138 78.8943 61.7424 78.4413 61.4673 78.1055L58.849 74.9093C58.6841 74.7081 58.7732 74.404 59.0206 74.3236L60.5304 73.8327C60.7859 73.7496 60.8703 73.4303 60.6891 73.2319L57.1082 69.3101C56.9213 69.1054 57.0178 68.7755 57.2855 68.7038L59.9273 67.9959C60.16 67.9335 60.2718 67.6689 60.1544 67.4586L54.878 59.6402C54.7954 59.4924 54.623 59.4196 54.4596 59.4634V59.4634Z" fill="#FFEBA8"/>
<path d="M52.0858 67.4496L53.9796 66.9422C54.2374 66.8731 54.3393 66.5619 54.1722 66.3537L50.0257 61.1872C49.8587 60.9791 49.9605 60.6679 50.2183 60.5988L54.4586 59.4626C54.6221 59.4188 54.7945 59.4917 54.877 59.6394L55.1002 59.9702L51.8812 60.8327C51.6234 60.9018 51.5215 61.213 51.6886 61.4211L55.835 66.5876C56.0021 66.7958 55.9002 67.107 55.6424 67.1761L53.7486 67.6835C53.4834 67.7546 53.3855 68.0798 53.5674 68.2854L57.7368 72.9999C57.9187 73.2055 57.8208 73.5307 57.5555 73.6018L56.8011 73.8039C56.4737 73.8917 56.3938 74.3197 56.6675 74.5197L61.3034 77.9059L61.4663 78.1048C61.7413 78.4406 61.3128 78.8936 60.9623 78.6376L55.0048 74.2858C54.7309 74.0858 54.8108 73.6578 55.1384 73.57L55.8927 73.3679C56.1579 73.2968 56.2558 72.9716 56.0739 72.766L51.9046 68.0515C51.7227 67.8458 51.8206 67.5207 52.0858 67.4496Z" fill="#FDDF7C"/>
</g>
<g clip-path="url(#clip4)">
<path d="M64.6242 106.088L62.7504 106.59C62.6365 106.621 62.5915 106.759 62.6653 106.851L64.4976 109.134C64.5714 109.226 64.5264 109.363 64.4125 109.394L63.5756 109.618C63.4584 109.649 63.4152 109.793 63.4955 109.884L65.338 111.967C65.4184 112.058 65.3751 112.202 65.2579 112.233L64.9245 112.322C64.7798 112.361 64.7445 112.55 64.8655 112.639L67.4982 114.562C67.6531 114.675 67.8424 114.475 67.7209 114.326L66.5639 112.914C66.491 112.825 66.5304 112.691 66.6397 112.655L67.3069 112.438C67.4198 112.401 67.4571 112.26 67.377 112.173L65.7946 110.44C65.712 110.349 65.7546 110.203 65.8729 110.172L67.0404 109.859C67.1432 109.831 67.1926 109.714 67.1407 109.621L64.8091 106.167C64.7726 106.101 64.6964 106.069 64.6242 106.088V106.088Z" fill="#FFEBA8"/>
<path d="M63.5751 109.618L64.4119 109.393C64.5259 109.363 64.5709 109.225 64.4971 109.133L62.6647 106.85C62.5909 106.758 62.6359 106.621 62.7498 106.59L64.6236 106.088C64.6959 106.069 64.772 106.101 64.8085 106.166L64.9072 106.313L63.4847 106.694C63.3707 106.724 63.3257 106.862 63.3995 106.954L65.2319 109.237C65.3057 109.329 65.2607 109.466 65.1467 109.497L64.3099 109.721C64.1927 109.752 64.1494 109.896 64.2298 109.987L66.0722 112.07C66.1526 112.161 66.1094 112.305 65.9922 112.336L65.6588 112.426C65.5141 112.464 65.4788 112.654 65.5997 112.742L67.6483 114.238L67.7203 114.326C67.8419 114.475 67.6525 114.675 67.4976 114.562L64.865 112.639C64.744 112.55 64.7793 112.361 64.924 112.322L65.2574 112.233C65.3745 112.202 65.4178 112.058 65.3374 111.967L63.495 109.884C63.4146 109.793 63.4579 109.649 63.5751 109.618Z" fill="#FDDF7C"/>
</g>
<g clip-path="url(#clip5)">
<path d="M74.6242 27.0885L72.7504 27.5906C72.6365 27.6211 72.5915 27.7586 72.6653 27.8506L74.4976 30.1336C74.5714 30.2256 74.5264 30.3631 74.4125 30.3937L73.5756 30.6179C73.4584 30.6493 73.4152 30.793 73.4955 30.8839L75.338 32.9672C75.4184 33.0581 75.3751 33.2018 75.2579 33.2332L74.9245 33.3225C74.7798 33.3613 74.7445 33.5505 74.8655 33.6388L77.4982 35.5619C77.6531 35.675 77.8424 35.4748 77.7209 35.3265L76.5639 33.9141C76.491 33.8251 76.5304 33.6908 76.6397 33.6552L77.3069 33.4383C77.4198 33.4016 77.4571 33.2605 77.377 33.1728L75.7946 31.4397C75.712 31.3493 75.7546 31.2035 75.8729 31.1718L77.0404 30.859C77.1432 30.8314 77.1926 30.7145 77.1407 30.6216L74.8091 27.1666C74.7726 27.1013 74.6964 27.0691 74.6242 27.0885V27.0885Z" fill="#FFEBA8"/>
<path d="M73.5751 30.6177L74.4119 30.3935C74.5259 30.3629 74.5709 30.2254 74.4971 30.1334L72.6647 27.8504C72.5909 27.7584 72.6359 27.6209 72.7498 27.5903L74.6236 27.0883C74.6959 27.0689 74.772 27.1011 74.8085 27.1664L74.9072 27.3125L73.4847 27.6937C73.3707 27.7242 73.3257 27.8617 73.3995 27.9537L75.2319 30.2368C75.3057 30.3288 75.2607 30.4663 75.1467 30.4968L74.3099 30.7211C74.1927 30.7525 74.1494 30.8962 74.2298 30.9871L76.0722 33.0704C76.1526 33.1613 76.1094 33.305 75.9922 33.3364L75.6588 33.4257C75.5141 33.4645 75.4788 33.6536 75.5997 33.742L77.6483 35.2384L77.7203 35.3263C77.8419 35.4746 77.6525 35.6748 77.4976 35.5617L74.865 33.6386C74.744 33.5502 74.7793 33.3611 74.924 33.3223L75.2574 33.233C75.3745 33.2016 75.4178 33.0579 75.3374 32.967L73.495 30.8837C73.4146 30.7928 73.4579 30.6491 73.5751 30.6177Z" fill="#FDDF7C"/>
</g>
<defs>
<filter id="filter0_d" x="0" y="0" width="204" height="206" filterUnits="userSpaceOnUse" color-interpolation-filters="sRGB">
<feFlood flood-opacity="0" result="BackgroundImageFix"/>
<feColorMatrix in="SourceAlpha" type="matrix" values="0 0 0 0 0 0 0 0 0 0 0 0 0 0 0 0 0 0 127 0"/>
<feMorphology radius="2" operator="dilate" in="SourceAlpha" result="effect1_dropShadow"/>
<feOffset dy="4"/>
<feColorMatrix type="matrix" values="0 0 0 0 0 0 0 0 0 0 0 0 0 0 0 0 0 0 0.25 0"/>
<feBlend mode="normal" in2="BackgroundImageFix" result="effect1_dropShadow"/>
<feBlend mode="normal" in="SourceGraphic" in2="effect1_dropShadow" result="shape"/>
</filter>
<clipPath id="clip0">
<rect width="19" height="19" fill="white" transform="translate(148.742 57) rotate(24.0463)"/>
</clipPath>
<clipPath id="clip1">
<rect width="8.99" height="8.99" fill="white" transform="translate(145.664 104) rotate(24.0463)"/>
</clipPath>
<clipPath id="clip2">
<rect width="8.99" height="8.99" fill="white" transform="translate(135.664 26) rotate(24.0463)"/>
</clipPath>
<clipPath id="clip3">
<rect width="20.3458" height="20.3458" fill="white" transform="matrix(-0.965926 0.258819 0.258819 0.965926 63.6523 57)"/>
</clipPath>
<clipPath id="clip4">
<rect width="8.99079" height="8.99079" fill="white" transform="matrix(-0.965926 0.258819 0.258819 0.965926 68.6836 105)"/>
</clipPath>
<clipPath id="clip5">
<rect width="8.99079" height="8.99079" fill="white" transform="matrix(-0.965926 0.258819 0.258819 0.965926 78.6836 26)"/>
</clipPath>
</defs>
</svg>
