<svg width="204" height="206" viewBox="0 0 204 206" fill="none" xmlns="http://www.w3.org/2000/svg">
<g filter="url(#filter0_d)">
<circle cx="102" cy="100" r="100" fill="#003951"/>
</g>
<path d="M148.711 119.955L131.223 135.77L117.298 110.433L148.559 102.332L148.711 119.955Z" fill="#BE7C5E"/>
<path d="M64.1577 79.5608C64.1577 79.5608 69.8812 87.3437 103.369 85.0968L123.203 114.299L136.452 128.948C138.533 131.25 138.68 134.767 136.677 137.137C135.46 138.575 133.698 139.34 131.237 137.728C131.237 137.728 131.322 147.518 121.499 143.686C121.499 143.686 117.65 151.552 109.785 147.703C109.785 147.703 109.819 151.619 103.928 149.712C98.0373 147.805 66.4871 122.622 66.4871 122.622L52.6973 112.951L64.1577 79.5608Z" fill="#FDA57D"/>
<path d="M134.731 88.7444C134.731 88.7444 126.27 88.8174 117.871 85.0905C110.233 81.7056 101.378 82.2215 94.3968 86.8116C88.7073 90.553 83.8029 96.7091 83.983 106.805C83.983 106.805 91.6645 114.571 99.5788 98.8379L105.453 98.7873C105.453 98.7873 111.277 118.32 127.144 116.221C143.01 114.122 146.691 112.136 146.691 112.136L134.731 88.7444Z" fill="#BE7C5E"/>
<path d="M83.6597 127.85L83.0187 127.22C81.2868 125.518 78.5028 125.542 76.8006 127.274L72.2889 131.864C70.5866 133.596 70.6106 136.38 72.3425 138.082L72.9835 138.712C74.7154 140.415 77.4994 140.391 79.2017 138.659L83.7134 134.068C85.4156 132.337 85.3916 129.553 83.6597 127.85Z" fill="#BE7C5E"/>
<path d="M77.2847 120.508L76.6437 119.878C74.9118 118.176 72.1278 118.2 70.4256 119.932L65.9139 124.522C64.2116 126.254 64.2356 129.038 65.9675 130.74L66.6085 131.37C68.3404 133.072 71.1244 133.048 72.8267 131.316L77.3384 126.726C79.0406 124.994 79.0166 122.21 77.2847 120.508Z" fill="#BE7C5E"/>
<path d="M92.5152 132.668L91.8742 132.038C90.1423 130.336 87.3583 130.36 85.656 132.091L80.1743 137.669C78.472 139.4 78.496 142.184 80.2279 143.887L80.8689 144.517C82.6008 146.219 85.3848 146.195 87.0871 144.463L92.5688 138.886C94.2711 137.154 94.2471 134.37 92.5152 132.668Z" fill="#BE7C5E"/>
<path d="M97.2039 139.44L96.7563 139C95.5469 137.812 93.6027 137.828 92.414 139.038L88.9542 142.558C87.7655 143.767 87.7822 145.711 88.9917 146.9L89.4393 147.34C90.6487 148.529 92.5928 148.512 93.7816 147.303L97.2413 143.783C98.4301 142.573 98.4133 140.629 97.2039 139.44Z" fill="#BE7C5E"/>
<path d="M168.326 123.702L150.772 131.685L132.777 88.7613L148.392 82.7525L168.326 123.702Z" fill="#F4F4F4"/>
<path d="M35.093 115.061L52.7818 122.74L70.0334 79.5121L54.3174 73.7715L35.093 115.061Z" fill="#F8CC3E"/>
<path d="M12.0059 56.5013L54.3184 73.7715L29.3721 132.732L6.50629 129.502L4.50604 124L3.5 118L2.0008 106.5L2.00066 91.5001L4.50604 76.5007L8.00507 65.5016L12.0059 56.5013Z" fill="#146588"/>
<path d="M195 63.5L148.385 82.7524L174.347 141.272L197.5 131L199 125.5L201.5 113.5L202 98.5L201.5 88.5L199 73.5L195 63.5Z" fill="#2B99C8"/>
<defs>
<filter id="filter0_d" x="0" y="0" width="204" height="206" filterUnits="userSpaceOnUse" color-interpolation-filters="sRGB">
<feFlood flood-opacity="0" result="BackgroundImageFix"/>
<feColorMatrix in="SourceAlpha" type="matrix" values="0 0 0 0 0 0 0 0 0 0 0 0 0 0 0 0 0 0 127 0"/>
<feMorphology radius="2" operator="dilate" in="SourceAlpha" result="effect1_dropShadow"/>
<feOffset dy="4"/>
<feColorMatrix type="matrix" values="0 0 0 0 0 0 0 0 0 0 0 0 0 0 0 0 0 0 0.25 0"/>
<feBlend mode="normal" in2="BackgroundImageFix" result="effect1_dropShadow"/>
<feBlend mode="normal" in="SourceGraphic" in2="effect1_dropShadow" result="shape"/>
</filter>
</defs>
</svg>
