<svg width="851" height="615" viewBox="0 0 851 615" fill="none" xmlns="http://www.w3.org/2000/svg">
<g opacity="0.41">
<g opacity="0.41">
<path opacity="0.41" d="M4.0587 442.323C-0.512143 345.066 49.5132 261.775 125.186 214.797C139.406 205.909 148.548 191.435 150.326 175.437C150.326 174.675 150.58 173.659 150.58 172.898C164.546 66.2447 268.152 -8.66627 378.614 5.80806C484.251 19.5206 560.432 73.3549 549.258 176.707C549.258 177.215 549.258 177.976 549.005 178.738C546.973 206.925 570.081 230.541 599.284 231.303C605.378 231.557 611.727 231.811 617.821 232.319C744.027 245.015 835.444 353.954 821.985 475.589C815.891 531.201 788.466 579.956 748.598 615H91.4126C41.3873 568.783 6.85199 505.045 4.0587 442.323Z" fill="#2E77BD"/>
</g>
</g>
<path d="M79.4529 159.277C93.5275 159.277 104.937 147.867 104.937 133.792C104.937 119.718 93.5275 108.308 79.4529 108.308C65.3784 108.308 53.9688 119.718 53.9688 133.792C53.9688 147.867 65.3784 159.277 79.4529 159.277Z" fill="#8488B5"/>
<path d="M736.127 88.2848C759.501 88.2848 778.449 69.3365 778.449 45.9627C778.449 22.5889 759.501 3.64062 736.127 3.64062C712.753 3.64062 693.805 22.5889 693.805 45.9627C693.805 69.3365 712.753 88.2848 736.127 88.2848Z" fill="#8488B5"/>
<path d="M574.578 32.7655C583.626 32.7655 590.961 25.4306 590.961 16.3827C590.961 7.33478 583.626 0 574.578 0C565.53 0 558.195 7.33478 558.195 16.3827C558.195 25.4306 565.53 32.7655 574.578 32.7655Z" fill="#8488B5"/>
<path d="M687.154 563.196H166.586V242.984C166.586 230.795 176.489 220.891 188.678 220.891H665.062C677.251 220.891 687.154 230.795 687.154 242.984V563.196Z" fill="#EDF1F7"/>
<path d="M688.424 564.466H165.316V242.984C165.316 230.033 175.728 219.622 188.679 219.622H665.062C678.012 219.622 688.424 230.033 688.424 242.984V564.466ZM167.856 561.927H685.884V242.984C685.884 231.557 676.489 222.161 665.062 222.161H188.933C177.505 222.161 168.11 231.557 168.11 242.984V561.927H167.856Z" fill="#253863"/>
<path d="M657.955 253.395H197.824V560.911H657.955V253.395Z" fill="white"/>
<path d="M657.955 253.395H197.824V282.343H657.955V253.395Z" fill="#888CB0"/>
<path d="M219.661 273.202C216.613 273.202 214.328 270.916 214.328 267.869C214.328 264.822 216.613 262.536 219.661 262.536C222.708 262.536 224.993 264.822 224.993 267.869C224.993 270.916 222.454 273.202 219.661 273.202ZM219.661 265.076C218.137 265.076 216.867 266.345 216.867 267.869C216.867 269.393 218.137 270.662 219.661 270.662C221.184 270.662 222.454 269.393 222.454 267.869C222.454 266.345 221.184 265.076 219.661 265.076Z" fill="white"/>
<path d="M237.942 273.202C234.895 273.202 232.609 270.916 232.609 267.869C232.609 264.822 234.895 262.536 237.942 262.536C240.989 262.536 243.275 264.822 243.275 267.869C243.275 270.916 240.989 273.202 237.942 273.202ZM237.942 265.076C236.419 265.076 235.149 266.345 235.149 267.869C235.149 269.393 236.419 270.662 237.942 270.662C239.466 270.662 240.735 269.393 240.735 267.869C240.735 266.345 239.466 265.076 237.942 265.076Z" fill="white"/>
<path d="M254.954 273.202C251.907 273.202 249.621 270.916 249.621 267.869C249.621 264.822 251.907 262.536 254.954 262.536C258.001 262.536 260.286 264.822 260.286 267.869C260.286 270.916 258.001 273.202 254.954 273.202ZM254.954 265.076C253.43 265.076 252.16 266.345 252.16 267.869C252.16 269.393 253.43 270.662 254.954 270.662C256.477 270.662 257.747 269.393 257.747 267.869C257.747 266.345 256.477 265.076 254.954 265.076Z" fill="white"/>
<path d="M199.094 560.911H196.555V252.125H392.847V254.664H199.094V560.911Z" fill="#253863"/>
<g opacity="0.4">
<path opacity="0.4" d="M288.471 393.314C316.66 393.314 339.512 370.463 339.512 342.273C339.512 314.084 316.66 291.232 288.471 291.232C260.281 291.232 237.43 314.084 237.43 342.273C237.43 370.463 260.281 393.314 288.471 393.314Z" fill="#AF9CCB"/>
<path opacity="0.4" d="M631.543 538.058H369.989C366.18 538.058 362.879 535.011 362.879 530.948V414.137C362.879 410.328 365.926 407.027 369.989 407.027H631.543C635.352 407.027 638.653 410.074 638.653 414.137V530.948C638.399 535.011 635.352 538.058 631.543 538.058Z" fill="#AF9CCB"/>
<path opacity="0.28" d="M486.038 472.542H392.336C391.32 472.542 390.812 471.78 390.812 471.018V428.103C390.812 427.087 391.574 426.579 392.336 426.579H486.038C487.054 426.579 487.562 427.341 487.562 428.103V471.018C487.816 472.034 487.054 472.542 486.038 472.542Z" fill="white"/>
<path opacity="0.28" d="M606.902 472.542H513.199C512.184 472.542 511.676 471.78 511.676 471.018V428.103C511.676 427.087 512.438 426.579 513.199 426.579H606.902C607.917 426.579 608.425 427.341 608.425 428.103V471.018C608.425 472.034 607.917 472.542 606.902 472.542Z" fill="white"/>
<g opacity="0.4">
<path opacity="0.4" d="M295.076 355.731C296.092 355.731 296.854 356.493 296.854 357.509V361.318C296.854 362.333 296.092 363.095 295.076 363.095H281.364C280.348 363.095 279.586 362.333 279.586 361.318V357.509C279.586 356.493 280.348 355.731 281.364 355.731C282.379 355.731 283.141 354.969 283.141 353.954V342.78C283.141 341.765 282.379 341.003 281.364 341.003C280.348 341.003 279.586 340.241 279.586 339.225V335.416C279.586 334.4 280.348 333.639 281.364 333.639H291.267C292.283 333.639 293.045 334.4 293.045 335.416V353.954C293.299 354.969 294.314 355.731 295.076 355.731Z" fill="white"/>
<path opacity="0.4" d="M288.215 321.45C290.247 321.45 292.024 323.228 292.024 325.259C292.024 327.291 290.247 329.068 288.215 329.068C286.184 329.068 284.406 327.291 284.406 325.259C284.406 323.228 286.184 321.45 288.215 321.45Z" fill="white"/>
</g>
<path opacity="0.4" d="M590.909 311.293H365.16V313.832H590.909V311.293Z" fill="#AF9CCB"/>
<path opacity="0.4" d="M590.909 371.476H365.16V374.016H590.909V371.476Z" fill="#AF9CCB"/>
<path opacity="0.4" d="M459.624 337.449H365.16V339.989H459.624V337.449Z" fill="#AF9CCB"/>
<path opacity="0.4" d="M333.164 488.794H234.383V491.333H333.164V488.794Z" fill="#AF9CCB"/>
<path opacity="0.4" d="M333.164 515.204H234.383V517.743H333.164V515.204Z" fill="#AF9CCB"/>
<path opacity="0.4" d="M579.734 337.449H480.699V339.989H579.734V337.449Z" fill="#AF9CCB"/>
<path opacity="0.4" d="M613.503 514.187H387.754V516.727H613.503V514.187Z" fill="white"/>
<path opacity="0.4" d="M482.218 493.365H387.754V495.905H482.218V493.365Z" fill="white"/>
<path opacity="0.4" d="M602.59 493.365H503.555V495.905H602.59V493.365Z" fill="white"/>
</g>
<path d="M428.137 246.031C424.582 246.031 421.789 243.237 421.789 239.682C421.789 236.127 424.582 233.334 428.137 233.334C431.693 233.334 434.486 236.127 434.486 239.682C434.74 243.237 431.693 246.031 428.137 246.031ZM428.137 235.619C426.106 235.619 424.328 237.397 424.328 239.428C424.328 241.46 426.106 243.237 428.137 243.237C430.169 243.237 431.946 241.46 431.946 239.428C432.2 237.397 430.423 235.619 428.137 235.619Z" fill="#253863"/>
<path d="M446.926 242.73C445.149 242.73 443.625 241.206 443.625 239.429C443.625 237.651 445.149 236.127 446.926 236.127C448.704 236.127 450.227 237.651 450.227 239.429C450.227 241.206 448.704 242.73 446.926 242.73ZM446.926 238.413C446.418 238.413 446.164 238.921 446.164 239.175C446.164 239.429 446.672 239.936 446.926 239.936C447.434 239.936 447.688 239.429 447.688 239.175C447.688 238.921 447.18 238.413 446.926 238.413Z" fill="#253863"/>
<path d="M738.956 611.952H115.036C112.242 611.952 109.957 609.667 109.957 606.874V578.179C109.957 569.799 116.813 562.943 125.193 562.943H728.798C737.178 562.943 744.034 569.799 744.034 578.179V606.874C744.034 609.921 741.749 611.952 738.956 611.952Z" fill="#253863"/>
<path opacity="0.29" d="M739.209 583.765H114.782C111.989 583.765 109.957 581.479 109.957 578.94C109.957 570.814 116.559 564.465 124.431 564.465H729.306C737.432 564.465 743.78 571.068 743.78 578.94C744.034 581.733 741.749 583.765 739.209 583.765Z" fill="#AF9CCB"/>
<path d="M480.193 588.844H377.603C371.254 588.844 366.176 583.766 366.176 577.417V565.482C366.176 564.72 366.684 564.213 367.445 564.213C368.207 564.213 368.715 564.72 368.715 565.482V577.417C368.715 582.242 372.778 586.305 377.603 586.305H480.193C484.764 586.305 488.319 582.75 488.319 578.179V565.482C488.319 564.72 488.827 564.213 489.588 564.213C490.35 564.213 490.858 564.72 490.858 565.482V578.179C490.858 584.02 486.033 588.844 480.193 588.844Z" fill="white"/>
<path d="M469.026 584.019H388.528C383.45 584.019 379.387 579.957 379.387 574.878V565.482C379.387 564.72 379.895 564.213 380.656 564.213C381.418 564.213 381.926 564.72 381.926 565.482V574.878C381.926 578.433 384.973 581.48 388.528 581.48H469.026C472.327 581.48 475.12 578.687 475.12 575.386V565.482C475.12 564.72 475.628 564.213 476.39 564.213C477.152 564.213 477.66 564.72 477.66 565.482V575.386C477.66 580.211 473.851 584.019 469.026 584.019Z" fill="white"/>
<path d="M203.411 601.032C199.602 601.032 196.555 597.985 196.555 594.176C196.555 590.367 199.602 587.32 203.411 587.32C207.22 587.32 210.267 590.367 210.267 594.176C210.267 597.731 207.22 601.032 203.411 601.032ZM203.411 589.859C201.125 589.859 199.094 591.891 199.094 594.176C199.094 596.461 201.125 598.493 203.411 598.493C205.696 598.493 207.728 596.461 207.728 594.176C207.728 591.637 205.696 589.859 203.411 589.859Z" fill="white"/>
<path d="M229.559 598.747C226.512 598.747 224.227 596.462 224.227 593.415C224.227 590.368 226.512 588.082 229.559 588.082C232.607 588.082 234.892 590.368 234.892 593.415C234.892 596.462 232.607 598.747 229.559 598.747ZM229.559 590.622C228.036 590.622 226.766 591.891 226.766 593.415C226.766 594.938 228.036 596.208 229.559 596.208C231.083 596.208 232.353 594.938 232.353 593.415C232.353 591.891 231.083 590.622 229.559 590.622Z" fill="white"/>
<path d="M657.945 283.614H392.836C392.074 283.614 391.566 283.106 391.566 282.344C391.566 281.583 392.074 281.075 392.836 281.075H657.691C658.453 281.075 658.961 281.583 658.961 282.344C659.214 283.106 658.453 283.614 657.945 283.614Z" fill="#253863"/>
<path d="M361.096 327.291H14.7282C6.60229 327.291 0 333.894 0 342.02V479.399C0 487.525 6.60229 494.127 14.7282 494.127H263.585L306.5 537.042V494.127H360.842C368.968 494.127 375.571 487.525 375.571 479.399V342.02C375.825 333.894 369.222 327.291 361.096 327.291Z" fill="#924C66"/>
<path d="M99.0404 486.254C55.8713 486.254 20.5742 450.957 20.5742 407.788C20.5742 364.619 55.8713 329.322 99.0404 329.322C142.209 329.322 177.507 364.619 177.507 407.788C177.507 450.957 142.209 486.254 99.0404 486.254ZM99.0404 331.862C57.141 331.862 23.1136 365.889 23.1136 407.788C23.1136 449.688 57.141 483.715 99.0404 483.715C140.94 483.715 174.967 449.688 174.967 407.788C174.967 365.889 140.94 331.862 99.0404 331.862Z" fill="#EDF1F7"/>
<path d="M337.585 371.342H206.317C205.56 371.342 205.055 370.796 205.055 369.977C205.055 369.158 205.56 368.612 206.317 368.612H337.585C338.342 368.612 338.847 369.158 338.847 369.977C338.847 370.796 338.342 371.342 337.585 371.342Z" fill="white"/>
<path d="M337.585 429.592H206.317C205.56 429.592 205.055 429.228 205.055 428.682C205.055 428.136 205.56 427.772 206.317 427.772H337.585C338.342 427.772 338.847 428.136 338.847 428.682C338.847 429.228 338.342 429.592 337.585 429.592Z" fill="white"/>
<path d="M272.052 401.377H206.319C205.56 401.377 205.055 400.831 205.055 400.012C205.055 399.193 205.56 398.647 206.319 398.647H272.052C272.81 398.647 273.316 399.193 273.316 400.012C273.316 400.558 272.81 401.377 272.052 401.377Z" fill="white"/>
<path d="M272.052 454.166H206.319C205.56 454.166 205.055 453.62 205.055 452.801C205.055 451.982 205.56 451.436 206.319 451.436H272.052C272.81 451.436 273.316 451.982 273.316 452.801C273.316 453.62 272.81 454.166 272.052 454.166Z" fill="white"/>
<path d="M336.665 401.377H291.882C291.118 401.377 290.609 400.831 290.609 400.012C290.609 399.193 291.118 398.647 291.882 398.647H336.665C337.428 398.647 337.937 399.193 337.937 400.012C337.937 400.558 337.428 401.377 336.665 401.377Z" fill="white"/>
<path d="M162.207 315.424C161.955 311.876 160.185 308.581 157.91 306.047C155.382 303.513 153.359 300.725 151.59 297.684C151.084 295.91 150.326 294.389 149.567 293.122C148.303 289.574 147.292 286.026 147.039 282.225L146.281 275.635V275.382L146.028 272.087C145.27 265.245 142.236 259.162 137.433 254.854C130.86 246.998 121.253 241.422 110.13 240.408C97.4898 239.395 85.6082 244.463 77.5185 253.08C68.1648 258.149 62.0975 268.793 63.1087 280.197L63.6143 285.012C60.8335 287.293 58.811 290.841 58.3054 294.643C58.0526 297.684 58.811 300.725 60.3278 303.006C54.7661 308.835 51.227 316.438 50.4686 325.054C48.699 345.329 63.8671 363.069 83.8385 364.843C96.2259 365.857 107.602 360.788 114.933 351.918C118.725 354.959 123.276 356.987 128.584 357.24C142.741 358.507 155.129 347.863 156.14 333.925C156.393 332.15 156.14 330.376 156.14 328.856C160.438 325.561 162.713 320.746 162.207 315.424Z" fill="#FFAC47"/>
<path d="M174.205 316.372C174.205 316.372 172.935 311.293 174.205 305.453L178.776 295.549C179.538 294.026 181.315 293.01 182.839 293.518L188.171 287.169C188.933 286.408 196.297 278.282 196.805 277.52C197.567 276.504 200.36 275.488 200.868 277.52C201.63 281.329 194.52 291.994 194.52 291.994C194.52 291.994 198.075 293.518 198.837 295.549C199.599 297.581 199.853 298.089 199.853 298.089C199.853 298.089 201.884 300.12 202.392 302.913L202.646 303.675C202.646 303.675 203.408 303.421 204.931 307.23C205.693 309.008 204.931 310.531 204.169 311.547C203.408 312.309 202.646 313.071 201.63 313.325L199.853 313.833L201.63 326.275L175.729 325.006L174.205 316.372Z" fill="#FFC996"/>
<path d="M186.907 313.578C185.892 306.468 181.321 304.691 181.321 304.691C181.321 304.691 182.337 302.405 183.606 299.358C184.622 296.819 183.86 294.787 183.352 294.279C183.352 294.025 183.098 293.771 182.845 293.771C182.083 293.264 180.559 292.756 178.528 295.549C177.512 297.073 176.75 298.85 175.734 300.628" fill="#FFC996"/>
<path d="M186.911 314.087C186.657 314.087 186.404 313.833 186.404 313.579C185.388 306.723 181.325 305.199 181.071 305.199L180.563 304.945L180.817 304.437C180.817 304.437 181.833 302.152 183.102 299.105C184.118 296.819 183.356 295.042 183.102 294.28C183.102 294.026 182.848 294.026 182.848 294.026C182.087 293.518 180.817 293.264 179.293 295.549C178.532 296.819 177.516 298.343 176.754 300.628C176.754 300.882 176.5 300.882 176.246 300.882C175.992 300.882 175.992 300.628 175.992 300.374C177.008 298.089 177.77 296.565 178.786 295.296C180.817 292.248 183.102 293.01 183.61 293.518C183.864 293.772 184.118 294.026 184.372 294.28C184.88 295.042 185.642 297.073 184.626 299.866C183.61 302.152 182.849 304.183 182.595 304.945C183.864 305.707 186.911 307.738 187.927 313.833C187.419 313.833 187.419 314.087 186.911 314.087C187.165 314.087 187.165 314.087 186.911 314.087Z" fill="#FFBB7B"/>
<path d="M211.798 398.333C211.033 389.431 210.268 380.784 209.503 371.883C208.994 364.253 206.699 333.479 205.935 322.798C205.68 320.763 203.896 319.237 201.856 319.491L175.091 322.289C172.797 322.543 171.013 324.832 171.268 327.121C174.072 344.415 176.111 388.414 176.111 388.414L162.601 374.935C159.287 371.374 155.973 367.814 152.659 364.253C147.051 357.895 139.404 353.063 132.012 348.993L131.247 348.23V348.485C128.953 347.213 126.914 346.196 124.62 345.178L78.2271 344.924C75.9329 344.924 73.6387 345.178 71.3446 345.687C52.4816 349.248 36.9322 366.542 32.8537 388.668C32.3439 392.229 31.8342 395.79 31.8342 399.35L30.3047 416.39C34.1283 450.47 63.1876 476.92 98.6195 476.92C129.718 476.92 155.718 456.319 164.385 428.343C170.758 430.632 177.13 432.667 182.483 432.667C187.836 432.921 192.934 431.141 197.778 428.852C202.366 426.818 206.699 423.766 209.248 419.442C213.072 413.338 212.562 405.454 211.798 398.333Z" fill="#003951"/>
<path d="M145.753 306.36L142.728 277.476C142.223 271.902 139.702 266.835 136.172 263.034C134.659 275.956 123.817 286.091 110.706 286.091H87.2574L90.0308 312.441C90.283 313.708 90.5351 314.975 90.7872 316.242L86.2488 340.312C83.9795 351.714 91.0394 362.608 101.881 364.635C112.723 366.662 123.313 359.315 125.582 347.913L128.356 333.724C139.702 329.417 147.014 318.522 145.753 306.36Z" fill="#FFC996"/>
<path opacity="0.46" d="M119.266 335.057C107.834 336.286 97.4188 330.384 92.5921 321.284L92.3379 323.251C91.0677 330.63 98.4348 337.762 108.342 339.238C115.709 340.221 122.314 338.254 125.871 334.073C124.601 334.319 123.331 334.565 122.06 334.811L119.266 335.057Z" fill="#FFBB7B"/>
<path d="M136.362 251.364H105.382C91.4157 251.364 80.2425 262.791 80.2425 276.504V285.137H79.9886C75.4177 285.899 72.3705 290.216 73.1323 294.533L74.656 304.183C75.4178 308.753 79.7346 311.801 84.0515 311.039C85.3212 310.785 86.337 310.277 87.3528 309.769L93.955 318.403C95.4787 320.434 97.7641 321.45 100.303 321.45H109.699C110.207 321.45 110.715 320.942 110.715 320.434C110.715 319.927 110.207 319.419 109.699 319.419H100.303C98.5259 319.419 96.7483 318.657 95.4786 317.133L88.6225 308.246C90.4 306.468 91.1617 303.929 90.9078 301.135L89.3842 291.486C88.8764 287.931 86.083 285.391 82.7818 284.629V275.996C82.7818 263.553 92.9393 253.395 105.382 253.395H136.616C137.378 253.395 137.886 252.888 137.886 252.126C137.632 251.872 137.124 251.364 136.362 251.364Z" fill="#253863"/>
<path d="M112.739 322.719H108.93C107.914 322.719 106.898 321.704 106.898 320.688C106.898 319.672 107.914 318.656 108.93 318.656H112.739C113.755 318.656 114.771 319.672 114.771 320.688C114.771 321.958 114.009 322.719 112.739 322.719Z" fill="#F7A9B4"/>
<path d="M112.743 323.736H108.934C107.41 323.736 105.887 322.466 105.887 320.688C105.887 319.165 107.156 317.641 108.934 317.641H112.743C114.267 317.641 115.79 318.911 115.79 320.688C115.79 322.466 114.521 323.736 112.743 323.736ZM109.188 319.673C108.68 319.673 108.172 320.181 108.172 320.688C108.172 321.196 108.68 321.704 109.188 321.704H112.997C113.505 321.704 114.013 321.196 114.013 320.688C114.013 320.181 113.505 319.673 112.997 319.673H109.188Z" fill="#253863"/>
<path d="M82.5288 303.166C80.4973 303.42 78.7198 302.15 78.4659 300.119L78.2119 297.833C77.9579 295.802 79.2277 294.024 81.2591 293.77C83.2906 293.516 85.0681 294.786 85.3221 296.817L85.5761 299.103C85.83 300.88 84.5603 302.658 82.5288 303.166Z" fill="#253863"/>
<path d="M82.0203 303.674C79.9888 303.674 78.2113 302.151 77.9574 300.119L77.7034 297.834C77.4494 295.548 78.9731 293.263 81.2585 293.009C82.2743 292.755 83.544 293.009 84.3058 293.771C85.3215 294.533 85.8294 295.294 86.0834 296.564L86.3372 298.849C86.5912 299.865 86.3373 301.135 85.5755 301.897C84.8137 302.912 84.0518 303.42 82.7821 303.674C82.5281 303.674 82.2742 303.674 82.0203 303.674ZM81.7664 294.279C81.5125 294.279 81.5125 294.279 81.2585 294.279C80.4967 294.279 79.7349 294.786 79.2271 295.548C78.7192 296.31 78.4652 297.072 78.7192 297.834L78.973 300.119C79.227 301.643 80.7507 302.912 82.2743 302.658C83.7979 302.405 85.0676 300.881 84.8137 299.357L84.5597 297.072C84.5597 296.31 84.0518 295.548 83.29 295.04C82.7821 294.533 82.2743 294.279 81.7664 294.279Z" fill="#EDF1F7"/>
<path d="M835.858 192.952H463.72C455.586 192.952 448.977 199.538 448.977 207.643V355.816C448.977 363.921 455.586 370.507 463.72 370.507H501.849L506.932 412.299L548.874 370.507H835.604C843.738 370.507 850.347 363.921 850.347 355.816V207.643C850.601 199.538 843.992 192.952 835.858 192.952Z" fill="#FFAC47"/>
<path d="M730.211 360.42C687.122 360.42 651.938 325.44 651.938 282.602C651.938 239.764 687.122 204.784 730.211 204.784C773.299 204.784 808.484 239.764 808.484 282.602C808.484 325.44 773.299 360.42 730.211 360.42ZM730.211 207.319C688.397 207.319 654.487 241.032 654.487 282.602C654.487 324.173 688.397 357.886 730.211 357.886C772.024 357.886 805.934 324.173 805.934 282.602C805.679 241.032 771.769 207.319 730.211 207.319Z" fill="#EDF1F7"/>
<path d="M624.277 246.651H493.023C492.262 246.651 491.754 246.105 491.754 245.286C491.754 244.467 492.262 243.921 493.023 243.921H624.277C625.039 243.921 625.546 244.467 625.546 245.286C625.546 246.105 625.039 246.651 624.277 246.651Z" fill="white"/>
<path d="M624.277 304.901H493.023C492.262 304.901 491.754 304.355 491.754 303.536C491.754 302.717 492.262 302.171 493.023 302.171H624.277C625.039 302.171 625.546 302.717 625.546 303.536C625.546 304.355 625.039 304.901 624.277 304.901Z" fill="white"/>
<path d="M624.273 276.686H558.559C557.795 276.686 557.285 276.14 557.285 275.321C557.285 274.502 557.795 273.956 558.559 273.956H624.273C625.037 273.956 625.547 274.502 625.547 275.321C625.547 276.14 625.037 276.686 624.273 276.686Z" fill="white"/>
<path d="M624.273 328.565H558.559C557.795 328.565 557.285 328.019 557.285 327.2C557.285 326.381 557.795 325.835 558.559 325.835H624.273C625.037 325.835 625.547 326.381 625.547 327.2C625.547 328.019 625.037 328.565 624.273 328.565Z" fill="white"/>
<path d="M538.737 276.686H494.829C494.076 276.686 493.574 276.14 493.574 275.321C493.574 274.502 494.076 273.956 494.829 273.956H538.737C539.49 273.956 539.992 274.502 539.992 275.321C539.992 276.14 539.49 276.686 538.737 276.686Z" fill="white"/>
<path d="M799.585 269.38L781.323 195.683L776.503 197.462L756.719 204.069L753.168 205.34L759.509 234.565C758.241 234.565 756.719 234.311 755.451 234.311L697.874 234.565C679.105 234.565 663.379 249.558 661.35 269.126L660.589 275.225C657.038 306.229 674.286 336.725 703.708 347.652C704.976 348.161 706.245 348.669 707.513 348.923C738.711 358.834 773.46 345.873 790.707 317.919C796.287 308.771 799.585 299.114 800.853 289.203C801.614 282.341 801.107 275.734 799.585 269.38Z" fill="#003951"/>
<path d="M746.549 174.612L744.511 146.301C744.511 145.535 744.256 144.77 744.256 144.005C744.511 142.985 744.511 141.71 744.511 140.689C744.511 130.742 736.358 122.581 726.421 122.581C721.835 122.581 717.504 124.366 714.192 127.427C710.625 123.601 705.784 121.05 700.179 121.05C690.752 121.05 682.854 127.937 681.58 137.119C674.956 138.394 670.37 144.515 671.134 151.402C671.643 156.248 674.701 160.329 679.032 162.114L680.306 179.458C681.07 190.68 691.771 199.352 703.746 198.332L726.167 196.801C738.141 196.036 747.313 186.089 746.549 174.612Z" fill="#253863"/>
<path d="M742.513 183.564C747.592 183.056 751.654 178.485 751.147 173.406C750.639 168.327 746.068 164.264 740.989 164.772H739.973L739.212 155.631C739.212 154.869 738.958 154.361 738.958 153.599C736.926 157.154 733.117 159.694 728.8 160.201C722.452 160.963 716.865 156.9 714.834 151.314C711.787 155.377 706.962 157.916 701.629 158.678C695.789 159.186 689.948 157.154 686.139 153.345C685.123 155.631 684.615 157.916 684.869 160.455L685.885 173.152C685.885 174.168 685.631 175.438 685.885 176.707L687.409 201.847C687.917 210.735 693.503 217.845 701.375 220.892L703.915 234.859C706.454 248.317 718.135 257.459 730.07 255.173C742.005 252.888 749.623 240.191 747.337 226.733L742.259 193.721L741.751 183.564H742.513Z" fill="#FFC996"/>
<path opacity="0.46" d="M721.686 221.654L710.766 222.416C708.735 222.416 706.703 222.416 704.672 221.908C708.481 226.732 717.115 228.764 726.256 226.479C737.43 223.685 745.048 215.559 743.27 208.195L742 203.37C740.477 213.02 732.097 220.892 721.686 221.654Z" fill="#FFAA5A"/>
<path opacity="0.46" d="M745.664 173.917C745.427 171.147 743.061 169.133 740.223 168.378L740.459 170.392C740.696 171.147 740.696 171.903 740.696 172.91L741.169 180.21C744.008 179.203 745.9 176.686 745.664 173.917Z" fill="#EA94BF"/>
<path d="M702.13 233.336L690.449 250.857L716.097 272.188L725.746 252.635L702.13 233.336Z" fill="white"/>
<path d="M748.6 233.336L760.281 250.857L734.634 272.188L724.73 252.635L748.6 233.336Z" fill="white"/>
<path d="M745.305 203.371L742.258 203.117C740.988 203.117 740.227 202.101 740.227 200.832L743.274 160.456C743.274 159.186 744.289 158.424 745.559 158.424L748.606 158.678C749.876 158.678 750.638 159.694 750.638 160.964L747.591 201.339C747.337 202.609 746.321 203.625 745.305 203.371Z" fill="#4F66AF"/>
<path d="M754.451 167.566C754.451 167.566 745.563 164.011 744.547 171.883C744.039 176.708 744.801 177.47 745.563 177.47C744.547 178.232 743.532 180.009 744.293 184.326C745.309 189.405 746.579 189.405 747.087 188.897C746.071 189.913 742.008 193.722 746.325 198.039C747.849 199.562 751.911 201.594 756.228 203.625L776.035 197.023C775.02 184.58 769.941 168.074 754.451 167.566Z" fill="#FFC996"/>
<path d="M748.098 178.232C747.082 178.232 746.321 178.232 745.305 177.978C745.051 177.978 744.797 177.47 744.797 177.216C744.797 176.962 745.305 176.708 745.559 176.708C748.86 177.47 752.669 176.201 752.669 176.201C752.923 176.201 753.431 176.201 753.431 176.708C753.431 176.962 753.431 177.47 752.923 177.47C752.923 177.724 750.637 178.232 748.098 178.232Z" fill="#253863"/>
<path d="M748.098 189.913C747.082 189.913 746.321 189.913 745.305 189.659C745.051 189.659 744.797 189.152 744.797 188.898C744.797 188.644 745.305 188.39 745.559 188.39C748.86 189.152 752.669 187.882 752.669 187.882C752.923 187.882 753.431 187.882 753.431 188.39C753.431 188.644 753.431 189.152 752.923 189.152C752.923 189.405 750.637 189.913 748.098 189.913Z" fill="#253863"/>
<path d="M656.169 84.5287H582.02C580.75 84.5287 579.734 85.7984 579.734 87.322V148.774C579.734 151.314 581.512 153.599 583.797 153.599H612.238C612.492 153.599 613 153.853 613 154.107L636.616 182.548C637.378 183.564 638.647 182.802 638.647 181.532V155.123C638.647 154.361 639.155 153.599 639.917 153.599H655.661C657.693 153.599 659.47 151.568 659.47 149.028V89.3534C659.978 86.8141 658.201 84.5287 656.169 84.5287Z" fill="#8488B5"/>
<path d="M610.462 106.875C608.431 106.875 606.907 104.844 607.415 102.812C609.446 96.7178 616.049 92.6548 623.159 94.4324C626.206 95.1942 628.999 96.9717 630.523 99.765C634.586 105.606 633.062 112.97 628.238 117.033L622.651 122.111V124.143C622.651 125.92 621.127 127.19 619.604 127.19H618.334C617.064 127.19 616.303 126.174 616.303 124.905V121.604C616.303 120.08 617.064 118.556 618.334 117.287L624.175 112.208C625.952 110.684 626.714 108.399 626.206 105.859C625.698 103.574 624.175 101.797 621.889 101.035C618.334 100.019 615.033 101.797 613.763 104.844C613.255 105.859 611.986 106.875 610.462 106.875Z" fill="white"/>
<path d="M619.344 133.538C621.122 133.538 622.645 135.062 622.645 136.84C622.645 138.617 621.122 140.141 619.344 140.141C617.567 140.141 616.043 138.617 616.043 136.84C616.043 134.808 617.567 133.538 619.344 133.538Z" fill="white"/>
<path d="M125.947 136.331H200.097C201.366 136.331 202.382 137.601 202.382 139.124V200.577C202.382 203.116 200.604 205.401 198.319 205.401H169.878C169.624 205.401 169.116 205.655 169.116 205.909L145.5 234.35C144.739 235.366 143.469 234.604 143.469 233.334V206.925C143.469 206.163 142.961 205.401 142.199 205.401H126.455C124.424 205.401 122.646 203.37 122.646 200.831V141.41C122.138 138.616 123.916 136.331 125.947 136.331Z" fill="#FFAC47"/>
<path d="M168.615 181.023C169.631 181.023 170.393 181.785 170.393 182.801V186.356C170.393 187.371 169.631 188.133 168.615 188.133H155.664C154.649 188.133 153.887 187.371 153.887 186.356V182.801C153.887 181.785 154.649 181.023 155.664 181.023C156.68 181.023 157.442 180.261 157.442 179.245V168.58C157.442 167.565 156.68 166.803 155.664 166.803C154.649 166.803 153.887 166.041 153.887 165.025V161.47C153.887 160.454 154.649 159.693 155.664 159.693H165.06C166.076 159.693 166.838 160.454 166.838 161.47V179.245C167.091 180.261 167.853 181.023 168.615 181.023Z" fill="white"/>
<path d="M162.012 148.52C164.044 148.52 165.821 150.297 165.821 152.329C165.821 154.36 164.044 156.138 162.012 156.138C159.981 156.138 158.203 154.36 158.203 152.329C158.457 150.043 159.981 148.52 162.012 148.52Z" fill="white"/>
<path d="M605.523 429.394V418.168C605.523 414.851 608.823 412.299 613.138 412.299H778.119C782.434 412.299 785.734 414.851 785.734 418.168V528.391C785.734 531.708 782.434 534.26 778.119 534.26H613.138C608.823 534.26 605.523 531.708 605.523 528.391V510.786" fill="white"/>
<path d="M605.133 435.721V418.453C605.133 415.152 608.434 412.613 612.751 412.613H777.809C782.126 412.613 785.427 415.152 785.427 418.453V434.959" fill="#888CB0"/>
<path d="M606.403 435.721H603.863V418.453C603.863 414.644 607.926 411.343 612.751 411.343H777.809C782.634 411.343 786.697 414.644 786.697 418.453V434.959H784.158V418.453C784.158 415.914 781.364 413.882 777.809 413.882H612.751C609.196 413.882 606.403 415.914 606.403 418.453V435.721Z" fill="#253863"/>
<path d="M784.411 433.945H605.133V435.976H784.411V433.945Z" fill="#253863"/>
<path d="M617.811 428.682C615.507 428.682 613.715 426.89 613.715 424.586C613.715 422.282 615.507 420.49 617.811 420.49C620.114 420.49 621.906 422.282 621.906 424.586C621.906 426.89 620.114 428.682 617.811 428.682ZM617.811 423.05C617.043 423.05 616.275 423.818 616.275 424.586C616.275 425.354 617.043 426.122 617.811 426.122C618.579 426.122 619.346 425.354 619.346 424.586C619.346 423.818 618.579 423.05 617.811 423.05Z" fill="white"/>
<path d="M628.732 428.682C626.429 428.682 624.637 426.89 624.637 424.586C624.637 422.282 626.429 420.49 628.732 420.49C631.036 420.49 632.828 422.282 632.828 424.586C632.828 426.89 631.036 428.682 628.732 428.682ZM628.732 423.05C627.964 423.05 627.197 423.818 627.197 424.586C627.197 425.354 627.964 426.122 628.732 426.122C629.5 426.122 630.268 425.354 630.268 424.586C630.268 423.818 629.5 423.05 628.732 423.05Z" fill="white"/>
<path d="M638.744 428.682C636.44 428.682 634.648 426.89 634.648 424.586C634.648 422.282 636.44 420.49 638.744 420.49C641.048 420.49 642.84 422.282 642.84 424.586C642.84 426.89 641.048 428.682 638.744 428.682ZM638.744 423.05C637.976 423.05 637.208 423.818 637.208 424.586C637.208 425.354 637.976 426.122 638.744 426.122C639.512 426.122 640.28 425.354 640.28 424.586C640.28 423.818 639.512 423.05 638.744 423.05Z" fill="white"/>
<path d="M757.994 466.448H641.945C641.437 466.448 640.93 465.94 640.93 465.433C640.93 464.925 641.437 464.417 641.945 464.417H757.994C758.502 464.417 759.01 464.925 759.01 465.433C759.01 465.94 758.502 466.448 757.994 466.448Z" fill="#253863"/>
<path d="M700.101 494.634H642.203C641.695 494.634 641.188 494.126 641.188 493.619C641.188 493.111 641.695 492.603 642.203 492.603H700.101C700.608 492.603 701.116 493.111 701.116 493.619C700.862 494.38 700.608 494.634 700.101 494.634Z" fill="#253863"/>
<path d="M685.368 480.668H641.945C641.437 480.668 640.93 480.16 640.93 479.652C640.93 479.144 641.437 478.636 641.945 478.636H685.368C685.876 478.636 686.384 479.144 686.384 479.652C686.384 480.414 685.876 480.668 685.368 480.668Z" fill="#253863"/>
<path d="M758.001 480.668H714.832C714.324 480.668 713.816 480.16 713.816 479.652C713.816 479.144 714.324 478.636 714.832 478.636H758.001C758.509 478.636 759.017 479.144 759.017 479.652C759.017 480.414 758.509 480.668 758.001 480.668Z" fill="#253863"/>
<path d="M279.586 83.2585V73.6089C279.586 70.8156 282.633 68.5302 286.188 68.5302H429.662C433.217 68.5302 436.264 70.8156 436.264 73.6089V168.835C436.264 171.628 433.217 173.913 429.662 173.913H286.188C282.633 173.913 279.586 171.628 279.586 168.835V153.599" fill="white"/>
<path d="M279.59 88.591V73.6087C279.59 70.8154 282.637 68.53 286.192 68.53H429.666C433.221 68.53 436.268 70.8154 436.268 73.6087V87.8292" fill="#924C66"/>
<path d="M280.86 88.591H278.32V73.6088C278.32 70.0537 281.876 67.2604 286.192 67.2604H429.666C433.983 67.2604 437.538 70.0537 437.538 73.6088V87.8292H434.999V73.6088C434.999 71.5773 432.459 69.7997 429.666 69.7997H286.192C283.399 69.7997 280.86 71.5773 280.86 73.6088V88.591Z" fill="#253863"/>
<path d="M435.252 87.0671H279.59V89.0986H435.252V87.0671Z" fill="#253863"/>
<path d="M290.754 83.005C288.723 83.005 286.945 81.2275 286.945 79.196C286.945 77.1645 288.723 75.387 290.754 75.387C292.786 75.387 294.563 77.1645 294.563 79.196C294.563 81.2275 293.04 83.005 290.754 83.005ZM290.754 77.9263C289.993 77.9263 289.485 78.4342 289.485 79.196C289.485 79.9578 289.993 80.4657 290.754 80.4657C291.516 80.4657 292.024 79.9578 292.024 79.196C292.024 78.4342 291.516 77.9263 290.754 77.9263Z" fill="white"/>
<path d="M300.161 83.005C298.129 83.005 296.352 81.2275 296.352 79.196C296.352 77.1645 298.129 75.387 300.161 75.387C302.192 75.387 303.97 77.1645 303.97 79.196C303.716 81.2275 302.192 83.005 300.161 83.005ZM300.161 77.9263C299.399 77.9263 298.891 78.4342 298.891 79.196C298.891 79.9578 299.399 80.4657 300.161 80.4657C300.922 80.4657 301.43 79.9578 301.43 79.196C301.176 78.4342 300.668 77.9263 300.161 77.9263Z" fill="white"/>
<path d="M309.047 83.005C307.016 83.005 305.238 81.2275 305.238 79.196C305.238 77.1645 307.016 75.387 309.047 75.387C311.079 75.387 312.856 77.1645 312.856 79.196C312.856 81.2275 311.333 83.005 309.047 83.005ZM309.047 77.9263C308.286 77.9263 307.778 78.4342 307.778 79.196C307.778 79.9578 308.286 80.4657 309.047 80.4657C309.809 80.4657 310.317 79.9578 310.317 79.196C310.317 78.4342 309.809 77.9263 309.047 77.9263Z" fill="white"/>
<path d="M409.852 115.509H309.039C308.531 115.509 308.023 115.001 308.023 114.493C308.023 113.985 308.531 113.477 309.039 113.477H409.852C410.36 113.477 410.867 113.985 410.867 114.493C410.867 115.001 410.36 115.509 409.852 115.509Z" fill="#253863"/>
<path d="M359.576 139.885H309.297C308.789 139.885 308.281 139.377 308.281 138.869C308.281 138.362 308.789 137.854 309.297 137.854H359.576C360.084 137.854 360.592 138.362 360.592 138.869C360.338 139.631 360.084 139.885 359.576 139.885Z" fill="#253863"/>
<path d="M346.622 127.952H309.039C308.531 127.952 308.023 127.444 308.023 126.936C308.023 126.428 308.531 125.92 309.039 125.92H346.622C347.13 125.92 347.637 126.428 347.637 126.936C347.637 127.444 347.13 127.952 346.622 127.952Z" fill="#253863"/>
<path d="M409.86 127.951H372.277C371.769 127.951 371.262 127.443 371.262 126.935C371.262 126.427 371.769 125.919 372.277 125.919H409.86C410.368 125.919 410.876 126.427 410.876 126.935C410.876 127.443 410.368 127.951 409.86 127.951Z" fill="#253863"/>
</svg>
