<svg width="723" height="731" viewBox="0 0 723 731" fill="none" xmlns="http://www.w3.org/2000/svg">
<path d="M394.372 458.327C393.656 458.327 393.03 458.059 392.493 457.522C391.419 456.448 391.419 454.838 392.493 453.764C392.851 453.406 393.925 452.511 399.651 447.679C435.712 417.166 597.85 282.14 603.309 277.756C610.199 272.297 706.748 237.042 717.665 233.016C719.097 232.479 720.618 233.194 721.065 234.626C721.602 236.058 720.886 237.579 719.454 238.026C676.683 253.596 611.273 278.114 606.53 281.872C601.072 286.256 439.023 421.193 402.962 451.706C397.504 456.269 396.34 457.343 396.162 457.522C395.714 458.059 395.088 458.327 394.372 458.327Z" fill="white"/>
<path d="M333.344 466.827C332.628 466.827 331.912 466.559 331.375 466.022C330.302 464.948 330.391 463.248 331.465 462.264C372.894 422.087 586.395 261.917 588.542 260.306C588.721 260.217 588.811 260.127 588.99 260.038C622.187 244.289 716.768 211.897 717.662 211.629C719.094 211.181 720.615 211.897 721.063 213.329C721.51 214.761 720.794 216.282 719.363 216.729C718.378 217.087 624.692 249.211 591.495 264.78C583.531 270.775 375.758 426.74 335.133 466.201C334.686 466.559 334.06 466.827 333.344 466.827Z" fill="white"/>
<path d="M397.86 455.285C397.144 455.285 396.428 455.016 395.891 454.48C395.623 454.211 369.316 425.935 346.14 392.201C321.712 356.588 192.86 187.022 172.816 165.189C152.057 142.73 57.3867 19.336 53.36 14.0567C52.4652 12.8934 52.6442 11.1933 53.8969 10.2985C55.0601 9.40371 56.7603 9.58267 57.6551 10.8354C58.6394 12.0881 156.263 139.24 176.843 161.61C196.976 183.443 326.275 353.456 350.704 389.159C373.611 422.625 399.649 450.542 399.918 450.811C400.902 451.885 400.902 453.585 399.828 454.569C399.202 455.016 398.576 455.285 397.86 455.285Z" fill="white"/>
<path d="M198.319 194.717C197.514 194.717 196.708 194.359 196.171 193.733C195.277 192.569 195.456 190.869 196.619 189.974L401.35 28.6411C402.513 27.7463 404.213 27.9253 405.108 29.0885C406.003 30.2517 405.824 31.9519 404.661 32.8467L200.019 194.09C199.482 194.448 198.945 194.717 198.319 194.717Z" fill="white"/>
<path d="M266.142 282.497C265.337 282.497 264.621 282.139 264.084 281.513C263.1 280.35 263.279 278.65 264.442 277.755L464.52 109.979C464.699 109.89 464.789 109.8 464.968 109.711C471.5 106.131 626.301 22.1092 661.288 8.77658C662.72 8.2397 664.241 8.95554 664.778 10.2978C665.315 11.64 664.599 13.2506 663.257 13.7875C629.254 26.7622 474.9 110.516 467.831 114.364L267.842 281.871C267.395 282.318 266.769 282.497 266.142 282.497Z" fill="white"/>
<path d="M2.71774 148.098C1.91242 148.098 1.19653 147.74 0.65965 147.114C-0.235154 145.951 -0.0561933 144.251 1.10705 143.356L166.646 10.3878C167.809 9.493 169.509 9.67196 170.404 10.8352C171.299 11.9984 171.12 13.6986 169.957 14.5934L4.41784 147.561C3.97044 147.919 3.34411 148.098 2.71774 148.098Z" fill="white"/>
<path d="M595.699 46.0906C594.715 46.0906 593.82 45.5537 593.373 44.6589L575.835 12.5354C575.119 11.1932 575.566 9.58258 576.908 8.86673C578.251 8.15089 579.861 8.5983 580.577 9.9405L598.115 42.064C598.831 43.4062 598.384 45.0168 597.042 45.7327C596.505 46.0011 596.147 46.0906 595.699 46.0906Z" fill="white"/>
<path d="M526.981 82.1512C525.996 82.1512 525.101 81.6143 524.565 80.7195C524.475 80.5405 514.543 60.9443 508.547 50.5646C505.953 46.001 505.147 41.9744 506.4 38.6636C507.653 35.1739 510.606 33.7422 511.411 33.3843L559.82 8.95614C561.162 8.32977 562.773 8.77717 563.399 10.1194C564.025 11.4616 563.578 13.0722 562.236 13.6986L513.737 38.1268C513.648 38.2162 513.558 38.2162 513.469 38.2162C513.469 38.2162 512.037 38.8426 511.5 40.4533C510.874 42.2429 511.5 44.7483 513.29 47.7906C519.375 58.3493 529.396 78.035 529.486 78.214C530.112 79.5562 529.665 81.1669 528.323 81.7932C527.786 82.0617 527.338 82.1512 526.981 82.1512Z" fill="white"/>
<path d="M2.71774 729.453C1.91242 729.453 1.19653 729.095 0.65965 728.468C-0.235154 727.305 -0.0561933 725.605 1.10705 724.71L318.763 468.975C319.926 468.08 321.626 468.259 322.521 469.422C323.416 470.586 323.237 472.286 322.073 473.181L4.41784 728.916C3.97044 729.274 3.34411 729.453 2.71774 729.453Z" fill="white"/>
<path d="M238.047 730.348C237.242 730.348 236.436 729.99 235.899 729.274L0.5659 427.546C-0.328904 426.382 -0.149943 424.682 1.0133 423.788C2.17655 422.893 3.87669 423.072 4.77149 424.235L240.105 725.963C241 727.126 240.821 728.826 239.658 729.721C239.21 730.169 238.673 730.348 238.047 730.348Z" fill="white"/>
<path d="M395.711 729.452C394.905 729.452 394.19 729.094 393.653 728.468C392.758 727.305 392.847 725.605 394.011 724.71C396.606 722.562 654.846 512.462 669.432 501.009C671.132 499.667 672.832 498.324 674.532 496.982C688.401 485.797 704.15 473.001 719.451 478.728C720.883 479.265 721.509 480.786 721.062 482.218C720.525 483.65 719.004 484.276 717.572 483.829C705.134 479.176 690.638 490.897 677.843 501.188C676.143 502.619 674.353 503.962 672.742 505.304C658.157 516.757 399.916 726.857 397.321 729.005C396.964 729.273 396.337 729.452 395.711 729.452Z" fill="white"/>
<path d="M638.116 532.506C637.311 532.506 636.595 532.148 636.058 531.522L499.78 367.325C498.795 366.162 498.974 364.462 500.137 363.567C501.301 362.583 503.001 362.762 503.896 363.925L640.174 528.122C641.159 529.285 640.98 530.985 639.816 531.88C639.369 532.238 638.743 532.506 638.116 532.506Z" fill="white"/>
<path d="M510.516 636.125C509.711 636.125 508.905 635.767 508.458 635.14L407.792 508.615C406.898 507.452 407.077 505.751 408.24 504.857C409.403 503.962 411.103 504.141 411.998 505.304L512.664 631.829C513.558 632.993 513.379 634.693 512.216 635.588C511.679 635.946 511.053 636.125 510.516 636.125Z" fill="white"/>
<path d="M74.3845 729.453C73.5791 729.453 72.8633 729.095 72.3264 728.468C71.3421 727.305 71.5211 725.605 72.6843 724.71L435.438 417.613L601.246 279.455C598.83 276.413 594.087 270.418 589.166 265.139C586.392 262.186 569.569 241.516 548.362 215.298C515.165 174.405 469.709 118.391 464.609 114.096C455.929 106.848 389.177 16.3829 386.403 12.5352C385.508 11.3719 385.777 9.67181 386.94 8.77701C388.103 7.8822 389.803 8.15064 390.698 9.31389C409.936 35.3527 461.298 104.253 468.099 109.979C473.199 114.274 509.349 158.657 552.568 211.898C572.97 236.952 590.508 258.606 593.103 261.47C600.261 269.076 606.883 277.845 607.151 278.292C608.046 279.455 607.778 281.066 606.704 281.961L438.928 421.819L76.0846 728.826C75.6372 729.274 75.0108 729.453 74.3845 729.453Z" fill="white"/>
<path opacity="0.2" d="M188.205 726.769H134.516V531.164C134.516 516.311 146.507 504.32 161.36 504.32L350.164 503.425V237.668H40.2934C25.4396 237.668 13.4492 225.678 13.4492 210.824V10.9249H67.1375V183.98H377.008C391.862 183.98 403.852 195.971 403.852 210.824V552.64C403.852 567.493 391.862 561.588 377.008 561.588H188.205V726.769Z" fill="#0A1432"/>
<path d="M199.658 726.769H145.969V541.544C145.969 526.69 157.96 514.7 172.814 514.7H361.617V226.573H51.7465C36.8927 226.573 24.9023 214.582 24.9023 199.729V10.9249H78.5906V172.885H388.461C403.315 172.885 415.306 184.875 415.306 199.729V541.544C415.306 556.398 403.315 568.388 388.461 568.388H199.658V726.769Z" fill="#3B4862"/>
<path d="M172.814 728.558C171.829 728.558 171.024 727.753 171.024 726.768V717.82C171.024 716.836 171.829 716.031 172.814 716.031C173.798 716.031 174.603 716.836 174.603 717.82V726.768C174.603 727.753 173.798 728.558 172.814 728.558ZM172.814 710.662C171.829 710.662 171.024 709.856 171.024 708.872V699.924C171.024 698.94 171.829 698.135 172.814 698.135C173.798 698.135 174.603 698.94 174.603 699.924V708.872C174.603 709.856 173.798 710.662 172.814 710.662ZM172.814 692.766C171.829 692.766 171.024 691.96 171.024 690.976V682.028C171.024 681.044 171.829 680.238 172.814 680.238C173.798 680.238 174.603 681.044 174.603 682.028V690.976C174.603 691.96 173.798 692.766 172.814 692.766ZM172.814 674.87C171.829 674.87 171.024 674.064 171.024 673.08V664.132C171.024 663.148 171.829 662.342 172.814 662.342C173.798 662.342 174.603 663.148 174.603 664.132V673.08C174.603 674.064 173.798 674.87 172.814 674.87ZM172.814 656.974C171.829 656.974 171.024 656.168 171.024 655.184V646.236C171.024 645.252 171.829 644.446 172.814 644.446C173.798 644.446 174.603 645.252 174.603 646.236V655.184C174.603 656.168 173.798 656.974 172.814 656.974ZM172.814 639.077C171.829 639.077 171.024 638.272 171.024 637.288V628.34C171.024 627.355 171.829 626.55 172.814 626.55C173.798 626.55 174.603 627.355 174.603 628.34V637.288C174.603 638.272 173.798 639.077 172.814 639.077ZM172.814 621.181C171.829 621.181 171.024 620.376 171.024 619.392V610.444C171.024 609.459 171.829 608.654 172.814 608.654C173.798 608.654 174.603 609.459 174.603 610.444V619.392C174.603 620.376 173.798 621.181 172.814 621.181ZM172.814 603.285C171.829 603.285 171.024 602.48 171.024 601.496V592.548C171.024 591.563 171.829 590.758 172.814 590.758C173.798 590.758 174.603 591.563 174.603 592.548V601.496C174.603 602.48 173.798 603.285 172.814 603.285ZM172.814 585.389C171.829 585.389 171.024 584.584 171.024 583.6V574.651C171.024 573.667 171.829 572.862 172.814 572.862C173.798 572.862 174.603 573.667 174.603 574.651V583.6C174.603 584.584 173.798 585.389 172.814 585.389ZM172.814 567.493C171.829 567.493 171.024 566.688 171.024 565.703V556.755C171.024 555.771 171.829 554.966 172.814 554.966C173.798 554.966 174.603 555.771 174.603 556.755V565.703C174.603 566.688 173.798 567.493 172.814 567.493ZM172.814 549.597C171.829 549.597 171.024 548.792 171.024 547.807V541.544C171.024 540.559 171.829 539.754 172.814 539.754H175.498C176.482 539.754 177.288 540.559 177.288 541.544C177.288 542.528 176.482 543.333 175.498 543.333H174.603V547.807C174.603 548.792 173.798 549.597 172.814 549.597ZM388.462 543.333H381.303C380.319 543.333 379.514 542.528 379.514 541.544C379.514 540.559 380.319 539.754 381.303 539.754H386.672C386.672 538.77 387.477 537.964 388.462 537.964C389.446 537.964 390.251 538.77 390.251 539.754V541.544C390.251 542.528 389.446 543.333 388.462 543.333ZM372.355 543.333H363.407C362.423 543.333 361.617 542.528 361.617 541.544C361.617 540.559 362.423 539.754 363.407 539.754H372.355C373.339 539.754 374.145 540.559 374.145 541.544C374.145 542.528 373.339 543.333 372.355 543.333ZM354.459 543.333H345.511C344.527 543.333 343.721 542.528 343.721 541.544C343.721 540.559 344.527 539.754 345.511 539.754H354.459C355.443 539.754 356.249 540.559 356.249 541.544C356.249 542.528 355.443 543.333 354.459 543.333ZM336.563 543.333H327.615C326.631 543.333 325.825 542.528 325.825 541.544C325.825 540.559 326.631 539.754 327.615 539.754H336.563C337.547 539.754 338.353 540.559 338.353 541.544C338.353 542.528 337.547 543.333 336.563 543.333ZM318.667 543.333H309.719C308.735 543.333 307.929 542.528 307.929 541.544C307.929 540.559 308.735 539.754 309.719 539.754H318.667C319.651 539.754 320.456 540.559 320.456 541.544C320.456 542.528 319.651 543.333 318.667 543.333ZM300.771 543.333H291.823C290.838 543.333 290.033 542.528 290.033 541.544C290.033 540.559 290.838 539.754 291.823 539.754H300.771C301.755 539.754 302.56 540.559 302.56 541.544C302.56 542.528 301.755 543.333 300.771 543.333ZM282.875 543.333H273.927C272.942 543.333 272.137 542.528 272.137 541.544C272.137 540.559 272.942 539.754 273.927 539.754H282.875C283.859 539.754 284.664 540.559 284.664 541.544C284.664 542.528 283.859 543.333 282.875 543.333ZM264.979 543.333H256.031C255.046 543.333 254.241 542.528 254.241 541.544C254.241 540.559 255.046 539.754 256.031 539.754H264.979C265.963 539.754 266.768 540.559 266.768 541.544C266.768 542.528 265.963 543.333 264.979 543.333ZM247.082 543.333H238.134C237.15 543.333 236.345 542.528 236.345 541.544C236.345 540.559 237.15 539.754 238.134 539.754H247.082C248.067 539.754 248.872 540.559 248.872 541.544C248.872 542.528 248.067 543.333 247.082 543.333ZM229.186 543.333H220.238C219.254 543.333 218.449 542.528 218.449 541.544C218.449 540.559 219.254 539.754 220.238 539.754H229.186C230.171 539.754 230.976 540.559 230.976 541.544C230.976 542.528 230.171 543.333 229.186 543.333ZM211.29 543.333H202.342C201.358 543.333 200.553 542.528 200.553 541.544C200.553 540.559 201.358 539.754 202.342 539.754H211.29C212.275 539.754 213.08 540.559 213.08 541.544C213.08 542.528 212.275 543.333 211.29 543.333ZM193.394 543.333H184.446C183.462 543.333 182.657 542.528 182.657 541.544C182.657 540.559 183.462 539.754 184.446 539.754H193.394C194.378 539.754 195.184 540.559 195.184 541.544C195.184 542.528 194.378 543.333 193.394 543.333ZM388.462 532.596C387.477 532.596 386.672 531.79 386.672 530.806V521.858C386.672 520.874 387.477 520.068 388.462 520.068C389.446 520.068 390.251 520.874 390.251 521.858V530.806C390.251 531.79 389.446 532.596 388.462 532.596ZM388.462 514.7C387.477 514.7 386.672 513.894 386.672 512.91V503.962C386.672 502.978 387.477 502.172 388.462 502.172C389.446 502.172 390.251 502.978 390.251 503.962V512.91C390.251 513.894 389.446 514.7 388.462 514.7ZM388.462 496.803C387.477 496.803 386.672 495.998 386.672 495.014V486.066C386.672 485.082 387.477 484.276 388.462 484.276C389.446 484.276 390.251 485.082 390.251 486.066V495.014C390.251 495.998 389.446 496.803 388.462 496.803ZM388.462 478.907C387.477 478.907 386.672 478.102 386.672 477.118V468.17C386.672 467.185 387.477 466.38 388.462 466.38C389.446 466.38 390.251 467.185 390.251 468.17V477.118C390.251 478.102 389.446 478.907 388.462 478.907ZM388.462 461.011C387.477 461.011 386.672 460.206 386.672 459.222V450.274C386.672 449.289 387.477 448.484 388.462 448.484C389.446 448.484 390.251 449.289 390.251 450.274V459.222C390.251 460.206 389.446 461.011 388.462 461.011ZM388.462 443.115C387.477 443.115 386.672 442.31 386.672 441.326V432.378C386.672 431.393 387.477 430.588 388.462 430.588C389.446 430.588 390.251 431.393 390.251 432.378V441.326C390.251 442.31 389.446 443.115 388.462 443.115ZM388.462 425.219C387.477 425.219 386.672 424.414 386.672 423.429V414.481C386.672 413.497 387.477 412.692 388.462 412.692C389.446 412.692 390.251 413.497 390.251 414.481V423.429C390.251 424.414 389.446 425.219 388.462 425.219ZM388.462 407.323C387.477 407.323 386.672 406.518 386.672 405.533V396.585C386.672 395.601 387.477 394.796 388.462 394.796C389.446 394.796 390.251 395.601 390.251 396.585V405.533C390.251 406.518 389.446 407.323 388.462 407.323ZM388.462 389.427C387.477 389.427 386.672 388.622 386.672 387.637V378.689C386.672 377.705 387.477 376.9 388.462 376.9C389.446 376.9 390.251 377.705 390.251 378.689V387.637C390.251 388.622 389.446 389.427 388.462 389.427ZM388.462 371.531C387.477 371.531 386.672 370.725 386.672 369.741V360.793C386.672 359.809 387.477 359.004 388.462 359.004C389.446 359.004 390.251 359.809 390.251 360.793V369.741C390.251 370.725 389.446 371.531 388.462 371.531ZM388.462 353.635C387.477 353.635 386.672 352.829 386.672 351.845V342.897C386.672 341.913 387.477 341.107 388.462 341.107C389.446 341.107 390.251 341.913 390.251 342.897V351.845C390.251 352.829 389.446 353.635 388.462 353.635ZM388.462 335.739C387.477 335.739 386.672 334.933 386.672 333.949V325.001C386.672 324.017 387.477 323.211 388.462 323.211C389.446 323.211 390.251 324.017 390.251 325.001V333.949C390.251 334.933 389.446 335.739 388.462 335.739ZM388.462 317.843C387.477 317.843 386.672 317.037 386.672 316.053V307.105C386.672 306.121 387.477 305.315 388.462 305.315C389.446 305.315 390.251 306.121 390.251 307.105V316.053C390.251 317.037 389.446 317.843 388.462 317.843ZM388.462 299.946C387.477 299.946 386.672 299.141 386.672 298.157V289.209C386.672 288.224 387.477 287.419 388.462 287.419C389.446 287.419 390.251 288.224 390.251 289.209V298.157C390.251 299.141 389.446 299.946 388.462 299.946ZM388.462 282.05C387.477 282.05 386.672 281.245 386.672 280.261V271.313C386.672 270.328 387.477 269.523 388.462 269.523C389.446 269.523 390.251 270.328 390.251 271.313V280.261C390.251 281.245 389.446 282.05 388.462 282.05ZM388.462 264.154C387.477 264.154 386.672 263.349 386.672 262.365V253.417C386.672 252.432 387.477 251.627 388.462 251.627C389.446 251.627 390.251 252.432 390.251 253.417V262.365C390.251 263.349 389.446 264.154 388.462 264.154ZM388.462 246.258C387.477 246.258 386.672 245.453 386.672 244.469V235.52C386.672 234.536 387.477 233.731 388.462 233.731C389.446 233.731 390.251 234.536 390.251 235.52V244.469C390.251 245.453 389.446 246.258 388.462 246.258ZM388.462 228.362C387.477 228.362 386.672 227.557 386.672 226.572V217.624C386.672 216.64 387.477 215.835 388.462 215.835C389.446 215.835 390.251 216.64 390.251 217.624V226.572C390.251 227.557 389.446 228.362 388.462 228.362ZM388.462 210.466C387.477 210.466 386.672 209.661 386.672 208.676V199.997C386.672 199.907 386.672 199.818 386.672 199.818C386.672 198.834 387.477 198.028 388.462 198.028C389.446 198.028 390.251 198.834 390.251 199.818V208.766C390.251 209.661 389.446 210.466 388.462 210.466ZM379.514 201.518H370.566C369.581 201.518 368.776 200.713 368.776 199.728C368.776 198.744 369.581 197.939 370.566 197.939H379.514C380.498 197.939 381.303 198.744 381.303 199.728C381.303 200.713 380.498 201.518 379.514 201.518ZM361.617 201.518H352.669C351.685 201.518 350.88 200.713 350.88 199.728C350.88 198.744 351.685 197.939 352.669 197.939H361.617C362.602 197.939 363.407 198.744 363.407 199.728C363.407 200.713 362.602 201.518 361.617 201.518ZM343.721 201.518H334.773C333.789 201.518 332.984 200.713 332.984 199.728C332.984 198.744 333.789 197.939 334.773 197.939H343.721C344.706 197.939 345.511 198.744 345.511 199.728C345.511 200.713 344.706 201.518 343.721 201.518ZM325.825 201.518H316.877C315.893 201.518 315.088 200.713 315.088 199.728C315.088 198.744 315.893 197.939 316.877 197.939H325.825C326.81 197.939 327.615 198.744 327.615 199.728C327.615 200.713 326.81 201.518 325.825 201.518ZM307.929 201.518H298.981C297.997 201.518 297.192 200.713 297.192 199.728C297.192 198.744 297.997 197.939 298.981 197.939H307.929C308.913 197.939 309.719 198.744 309.719 199.728C309.719 200.713 308.913 201.518 307.929 201.518ZM290.033 201.518H281.085C280.101 201.518 279.295 200.713 279.295 199.728C279.295 198.744 280.101 197.939 281.085 197.939H290.033C291.017 197.939 291.823 198.744 291.823 199.728C291.823 200.713 291.017 201.518 290.033 201.518ZM272.137 201.518H263.189C262.205 201.518 261.399 200.713 261.399 199.728C261.399 198.744 262.205 197.939 263.189 197.939H272.137C273.121 197.939 273.927 198.744 273.927 199.728C273.927 200.713 273.121 201.518 272.137 201.518ZM254.241 201.518H245.293C244.309 201.518 243.503 200.713 243.503 199.728C243.503 198.744 244.309 197.939 245.293 197.939H254.241C255.225 197.939 256.031 198.744 256.031 199.728C256.031 200.713 255.225 201.518 254.241 201.518ZM236.345 201.518H227.397C226.413 201.518 225.607 200.713 225.607 199.728C225.607 198.744 226.413 197.939 227.397 197.939H236.345C237.329 197.939 238.134 198.744 238.134 199.728C238.134 200.713 237.329 201.518 236.345 201.518ZM218.449 201.518H209.501C208.516 201.518 207.711 200.713 207.711 199.728C207.711 198.744 208.516 197.939 209.501 197.939H218.449C219.433 197.939 220.238 198.744 220.238 199.728C220.238 200.713 219.433 201.518 218.449 201.518ZM200.553 201.518H191.605C190.62 201.518 189.815 200.713 189.815 199.728C189.815 198.744 190.62 197.939 191.605 197.939H200.553C201.537 197.939 202.342 198.744 202.342 199.728C202.342 200.713 201.537 201.518 200.553 201.518ZM182.657 201.518H173.709C172.724 201.518 171.919 200.713 171.919 199.728C171.919 198.744 172.724 197.939 173.709 197.939H182.657C183.641 197.939 184.446 198.744 184.446 199.728C184.446 200.713 183.641 201.518 182.657 201.518ZM164.76 201.518H155.812C154.828 201.518 154.023 200.713 154.023 199.728C154.023 198.744 154.828 197.939 155.812 197.939H164.76C165.745 197.939 166.55 198.744 166.55 199.728C166.55 200.713 165.745 201.518 164.76 201.518ZM146.864 201.518H137.916C136.932 201.518 136.127 200.713 136.127 199.728C136.127 198.744 136.932 197.939 137.916 197.939H146.864C147.849 197.939 148.654 198.744 148.654 199.728C148.654 200.713 147.849 201.518 146.864 201.518ZM128.968 201.518H120.02C119.036 201.518 118.231 200.713 118.231 199.728C118.231 198.744 119.036 197.939 120.02 197.939H128.968C129.953 197.939 130.758 198.744 130.758 199.728C130.758 200.713 129.953 201.518 128.968 201.518ZM111.072 201.518H102.124C101.14 201.518 100.335 200.713 100.335 199.728C100.335 198.744 101.14 197.939 102.124 197.939H111.072C112.056 197.939 112.862 198.744 112.862 199.728C112.862 200.713 112.056 201.518 111.072 201.518ZM93.1761 201.518H84.228C83.2438 201.518 82.4384 200.713 82.4384 199.728C82.4384 198.744 83.2438 197.939 84.228 197.939H93.1761C94.1604 197.939 94.9657 198.744 94.9657 199.728C94.9657 200.713 94.1604 201.518 93.1761 201.518ZM75.28 201.518H66.3319C65.3477 201.518 64.5423 200.713 64.5423 199.728C64.5423 198.744 65.3477 197.939 66.3319 197.939H75.28C76.2643 197.939 77.0696 198.744 77.0696 199.728C77.0696 200.713 76.2643 201.518 75.28 201.518ZM57.3839 201.518H51.7466C50.7624 201.518 49.957 200.713 49.957 199.728V196.418C49.957 195.433 50.7624 194.628 51.7466 194.628C52.7309 194.628 53.5362 195.433 53.5362 196.418V197.939H57.3839C58.3682 197.939 59.1735 198.744 59.1735 199.728C59.1735 200.713 58.3682 201.518 57.3839 201.518ZM51.7466 189.259C50.7624 189.259 49.957 188.454 49.957 187.469V178.521C49.957 177.537 50.7624 176.732 51.7466 176.732C52.7309 176.732 53.5362 177.537 53.5362 178.521V187.469C53.5362 188.454 52.7309 189.259 51.7466 189.259ZM51.7466 171.363C50.7624 171.363 49.957 170.558 49.957 169.573V160.625C49.957 159.641 50.7624 158.836 51.7466 158.836C52.7309 158.836 53.5362 159.641 53.5362 160.625V169.573C53.5362 170.558 52.7309 171.363 51.7466 171.363ZM51.7466 153.467C50.7624 153.467 49.957 152.662 49.957 151.677V142.729C49.957 141.745 50.7624 140.94 51.7466 140.94C52.7309 140.94 53.5362 141.745 53.5362 142.729V151.677C53.5362 152.662 52.7309 153.467 51.7466 153.467ZM51.7466 135.571C50.7624 135.571 49.957 134.765 49.957 133.781V124.833C49.957 123.849 50.7624 123.044 51.7466 123.044C52.7309 123.044 53.5362 123.849 53.5362 124.833V133.781C53.5362 134.765 52.7309 135.571 51.7466 135.571ZM51.7466 117.675C50.7624 117.675 49.957 116.869 49.957 115.885V106.937C49.957 105.953 50.7624 105.147 51.7466 105.147C52.7309 105.147 53.5362 105.953 53.5362 106.937V115.885C53.5362 116.869 52.7309 117.675 51.7466 117.675ZM51.7466 99.7786C50.7624 99.7786 49.957 98.9733 49.957 97.989V89.041C49.957 88.0567 50.7624 87.2514 51.7466 87.2514C52.7309 87.2514 53.5362 88.0567 53.5362 89.041V97.989C53.5362 98.9733 52.7309 99.7786 51.7466 99.7786ZM51.7466 81.8825C50.7624 81.8825 49.957 81.0772 49.957 80.0929V71.1449C49.957 70.1606 50.7624 69.3553 51.7466 69.3553C52.7309 69.3553 53.5362 70.1606 53.5362 71.1449V80.0929C53.5362 81.0772 52.7309 81.8825 51.7466 81.8825ZM51.7466 63.9864C50.7624 63.9864 49.957 63.1811 49.957 62.1968V53.2488C49.957 52.2645 50.7624 51.4592 51.7466 51.4592C52.7309 51.4592 53.5362 52.2645 53.5362 53.2488V62.1968C53.5362 63.1811 52.7309 63.9864 51.7466 63.9864ZM51.7466 46.0904C50.7624 46.0904 49.957 45.285 49.957 44.3007V35.3527C49.957 34.3684 50.7624 33.5631 51.7466 33.5631C52.7309 33.5631 53.5362 34.3684 53.5362 35.3527V44.3007C53.5362 45.285 52.7309 46.0904 51.7466 46.0904ZM51.7466 28.1943C50.7624 28.1943 49.957 27.3889 49.957 26.4046V17.4566C49.957 16.4723 50.7624 15.667 51.7466 15.667C52.7309 15.667 53.5362 16.4723 53.5362 17.4566V26.4046C53.5362 27.3889 52.7309 28.1943 51.7466 28.1943Z" fill="white"/>
<path d="M2.71094 441.952L134.874 607.223L2.71094 715.136V441.952Z" fill="#B9D532"/>
<path d="M484.117 114.722L681.422 11.2828L718.556 10.9249V196.149L595.699 245.095L484.117 114.722Z" fill="#B9D532"/>
<path d="M189.907 57.4546C174.158 57.6336 145.793 69.7134 145.793 100.584C145.793 130.918 185.433 186.933 189.907 189.617C194.381 186.933 234.021 131.008 234.021 100.584C234.021 69.7134 205.655 57.6336 189.907 57.4546Z" fill="#F47822"/>
<path d="M189.46 133.96C207.152 133.96 221.494 119.618 221.494 101.926C221.494 84.2342 207.152 69.8921 189.46 69.8921C171.768 69.8921 157.426 84.2342 157.426 101.926C157.426 119.618 171.768 133.96 189.46 133.96Z" fill="#E55D25"/>
<path opacity="0.1" d="M145.793 100.584C145.793 130.918 185.433 186.933 189.907 189.617V57.4546C174.158 57.6336 145.793 69.7134 145.793 100.584Z" fill="#010101"/>
<path d="M189.461 123.132C201.173 123.132 210.668 113.638 210.668 101.926C210.668 90.2133 201.173 80.7186 189.461 80.7186C177.749 80.7186 168.254 90.2133 168.254 101.926C168.254 113.638 177.749 123.132 189.461 123.132Z" fill="white"/>
<path d="M540.246 223.711L465.449 132.651L440.558 153.097L515.355 244.156L540.246 223.711Z" fill="#DDDDDC"/>
<path d="M458.642 598.739L436.688 571.499L413 590.589L434.954 617.83L458.642 598.739Z" fill="#DDDDDC"/>
<path d="M487.857 635.19L465.902 607.949L442.215 627.04L464.169 654.28L487.857 635.19Z" fill="#DDDDDC"/>
<path d="M521.029 412.368L500.758 387.335L437.064 438.915L457.335 463.948L521.029 412.368Z" fill="#DDDDDC"/>
<path d="M569.902 258.973L552.367 236.449L469.825 300.706L487.36 323.231L569.902 258.973Z" fill="#DDDDDC"/>
<path d="M722.347 24.6537L707.961 0L617.616 52.7197L632.002 77.3734L722.347 24.6537Z" fill="#DDDDDC"/>
<path d="M402.421 82.5094L376.561 102.464L357.949 78.3933L383.899 58.4392L385.688 57.0969L400.9 45.375L448.056 106.58L430.965 119.733L402.421 82.5094Z" fill="#DDDDDC"/>
<path d="M253.885 637.645L293.525 600.511L271.513 576.978L231.873 614.112L227.668 618.049L208.34 636.124L249.411 679.97L272.945 657.957L253.885 637.645Z" fill="#DDDDDC"/>
<path d="M294.509 64.8816L251.469 97.9894L271.065 123.491L314.195 90.3835L318.669 86.8938L339.696 70.6978L303.009 23.1837L277.508 42.7799L294.509 64.8816Z" fill="#DDDDDC"/>
<path d="M583.127 415.16L570.129 425.696L635.997 506.952L648.995 496.415L583.127 415.16Z" fill="#DDDDDC"/>
<path d="M718.562 726.679V525.258C704.782 554.16 696.908 592.995 670.242 611.517C646.172 628.25 600.448 609.549 576.288 626.013C553.112 641.851 563.85 677.285 542.285 694.824C524.389 709.319 484.212 723.368 461.484 726.768H715.967C716.772 726.768 717.667 726.679 718.562 726.679Z" fill="#0FC0E1"/>
<path d="M646.078 360.793C646.078 403.923 677.396 439.804 718.557 446.784V274.802C677.396 281.782 646.078 317.663 646.078 360.793Z" fill="#DDDDDC"/>
<path d="M448.057 57.1853C455.668 57.1853 461.837 51.0158 461.837 43.4054C461.837 35.7949 455.668 29.6254 448.057 29.6254C440.447 29.6254 434.277 35.7949 434.277 43.4054C434.277 51.0158 440.447 57.1853 448.057 57.1853Z" fill="#B9D532"/>
<path d="M475.62 89.7566C483.23 89.7566 489.4 83.5871 489.4 75.9766C489.4 68.3662 483.23 62.1967 475.62 62.1967C468.009 62.1967 461.84 68.3662 461.84 75.9766C461.84 83.5871 468.009 89.7566 475.62 89.7566Z" fill="#B9D532"/>
<path d="M568.233 111.679C575.844 111.679 582.013 105.51 582.013 97.8994C582.013 90.2889 575.844 84.1194 568.233 84.1194C560.623 84.1194 554.453 90.2889 554.453 97.8994C554.453 105.51 560.623 111.679 568.233 111.679Z" fill="#90B33E"/>
<path d="M525.635 136.376C533.246 136.376 539.415 130.206 539.415 122.596C539.415 114.985 533.246 108.816 525.635 108.816C518.025 108.816 511.855 114.985 511.855 122.596C511.855 130.206 518.025 136.376 525.635 136.376Z" fill="#90B33E"/>
<path d="M696.905 199.729C704.515 199.729 710.685 193.559 710.685 185.949C710.685 178.338 704.515 172.169 696.905 172.169C689.294 172.169 683.125 178.338 683.125 185.949C683.125 193.559 689.294 199.729 696.905 199.729Z" fill="#90B33E"/>
<path d="M696.905 161.341C704.515 161.341 710.685 155.172 710.685 147.561C710.685 139.951 704.515 133.781 696.905 133.781C689.294 133.781 683.125 139.951 683.125 147.561C683.125 155.172 689.294 161.341 696.905 161.341Z" fill="#90B33E"/>
<path d="M696.905 114.811C704.515 114.811 710.685 108.642 710.685 101.031C710.685 93.4207 704.515 87.2512 696.905 87.2512C689.294 87.2512 683.125 93.4207 683.125 101.031C683.125 108.642 689.294 114.811 696.905 114.811Z" fill="#90B33E"/>
<path d="M696.905 76.424C704.515 76.424 710.685 70.2545 710.685 62.644C710.685 55.0335 704.515 48.864 696.905 48.864C689.294 48.864 683.125 55.0335 683.125 62.644C683.125 70.2545 689.294 76.424 696.905 76.424Z" fill="#90B33E"/>
<path d="M601.339 91.1877C608.949 91.1877 615.119 85.0182 615.119 77.4077C615.119 69.7972 608.949 63.6277 601.339 63.6277C593.728 63.6277 587.559 69.7972 587.559 77.4077C587.559 85.0182 593.728 91.1877 601.339 91.1877Z" fill="#90B33E"/>
<path d="M27.2292 674.601C34.8397 674.601 41.0092 668.431 41.0092 660.821C41.0092 653.21 34.8397 647.041 27.2292 647.041C19.6187 647.041 13.4492 653.21 13.4492 660.821C13.4492 668.431 19.6187 674.601 27.2292 674.601Z" fill="#90B33E"/>
<path d="M62.8425 647.22C70.4529 647.22 76.6225 641.05 76.6225 633.44C76.6225 625.829 70.4529 619.66 62.8425 619.66C55.232 619.66 49.0625 625.829 49.0625 633.44C49.0625 641.05 55.232 647.22 62.8425 647.22Z" fill="#90B33E"/>
<path d="M64.4558 581.273C72.0663 581.273 78.2358 575.103 78.2358 567.493C78.2358 559.882 72.0663 553.713 64.4558 553.713C56.8453 553.713 50.6758 559.882 50.6758 567.493C50.6758 575.103 56.8453 581.273 64.4558 581.273Z" fill="#90B33E"/>
<path d="M98.4597 618.407C106.07 618.407 112.24 612.238 112.24 604.627C112.24 597.017 106.07 590.847 98.4597 590.847C90.8492 590.847 84.6797 597.017 84.6797 604.627C84.6797 612.238 90.8492 618.407 98.4597 618.407Z" fill="#90B33E"/>
<path d="M31.4402 542.976C39.0506 542.976 45.2202 536.806 45.2202 529.196C45.2202 521.585 39.0506 515.416 31.4402 515.416C23.8297 515.416 17.6602 521.585 17.6602 529.196C17.6602 536.806 23.8297 542.976 31.4402 542.976Z" fill="#90B33E"/>
<path d="M349.811 167.157C356.384 167.157 361.712 161.829 361.712 155.256C361.712 148.684 356.384 143.356 349.811 143.356C343.238 143.356 337.91 148.684 337.91 155.256C337.91 161.829 343.238 167.157 349.811 167.157Z" fill="#B9D532"/>
<path d="M386.049 156.509C392.622 156.509 397.95 151.181 397.95 144.608C397.95 138.035 392.622 132.707 386.049 132.707C379.477 132.707 374.148 138.035 374.148 144.608C374.148 151.181 379.477 156.509 386.049 156.509Z" fill="#B9D532"/>
<path d="M330.12 611.16C337.73 611.16 343.9 604.99 343.9 597.38C343.9 589.769 337.73 583.6 330.12 583.6C322.509 583.6 316.34 589.769 316.34 597.38C316.34 604.99 322.509 611.16 330.12 611.16Z" fill="#B9D532"/>
<path d="M379.249 611.339C386.859 611.339 393.029 605.169 393.029 597.559C393.029 589.948 386.859 583.779 379.249 583.779C371.638 583.779 365.469 589.948 365.469 597.559C365.469 605.169 371.638 611.339 379.249 611.339Z" fill="#B9D532"/>
<path d="M595.792 357.572C603.402 357.572 609.572 351.402 609.572 343.792C609.572 336.181 603.402 330.012 595.792 330.012C588.181 330.012 582.012 336.181 582.012 343.792C582.012 351.402 588.181 357.572 595.792 357.572Z" fill="#B9D532"/>
<path d="M560.448 391.664C568.058 391.664 574.228 385.494 574.228 377.884C574.228 370.274 568.058 364.104 560.448 364.104C552.837 364.104 546.668 370.274 546.668 377.884C546.668 385.494 552.837 391.664 560.448 391.664Z" fill="#B9D532"/>
<path d="M574.225 509.152C581.836 509.152 588.005 502.982 588.005 495.372C588.005 487.761 581.836 481.592 574.225 481.592C566.615 481.592 560.445 487.761 560.445 495.372C560.445 502.982 566.615 509.152 574.225 509.152Z" fill="#B9D532"/>
<path d="M603.846 541.992C611.457 541.992 617.626 535.822 617.626 528.212C617.626 520.601 611.457 514.432 603.846 514.432C596.236 514.432 590.066 520.601 590.066 528.212C590.066 535.822 596.236 541.992 603.846 541.992Z" fill="#B9D532"/>
<path d="M487.874 583.062C495.484 583.062 501.654 576.893 501.654 569.282C501.654 561.672 495.484 555.502 487.874 555.502C480.263 555.502 474.094 561.672 474.094 569.282C474.094 576.893 480.263 583.062 487.874 583.062Z" fill="#B9D532"/>
<path d="M512.214 612.681C519.824 612.681 525.994 606.512 525.994 598.901C525.994 591.291 519.824 585.121 512.214 585.121C504.603 585.121 498.434 591.291 498.434 598.901C498.434 606.512 504.603 612.681 512.214 612.681Z" fill="#B9D532"/>
<path d="M595.222 551.289L549.766 496.34L493.92 542.539L539.377 597.488L595.222 551.289Z" fill="#DDDDDC"/>
<path d="M634.536 179.774C634.536 168.142 625.141 158.746 613.508 158.746H522.238L596.06 245.095L634.536 229.794V179.774Z" fill="#90B33E"/>
<path d="M273.394 179.058C273.394 176.195 271.068 173.958 268.294 173.958H267.488V128.054C267.488 127.249 268.115 126.623 268.92 126.623H322.608C323.414 126.623 324.04 127.249 324.04 128.054V171.721H326.366V168.589V143.445C326.366 143.445 327.798 137.271 333.793 137.271C339.789 137.271 343.189 137.36 343.189 137.36C343.189 137.36 347.931 137.181 351.868 142.282C356.521 148.277 364.396 157.225 365.827 158.746C367.259 160.178 368.691 161.967 368.691 167.157C368.691 170.11 368.691 172.526 368.691 174.047H363.053C360.19 174.047 357.953 176.374 357.953 179.148C357.953 181.921 360.19 184.248 362.964 184.248H362.874H355.09C355.179 183.711 355.179 183.264 355.179 182.727C355.179 175.21 349.094 169.126 341.578 169.126C334.062 169.126 327.977 175.21 327.977 182.727C327.977 183.264 327.977 183.801 328.067 184.248H322.608H304.981C305.07 183.622 305.16 182.906 305.16 182.279C305.16 174.763 299.075 168.678 291.559 168.678C284.042 168.678 277.958 174.763 277.958 182.279C277.958 182.995 278.047 183.622 278.136 184.248H273.841H269.009C268.92 184.248 268.92 184.248 268.83 184.248C271.336 183.98 273.394 181.743 273.394 179.058Z" fill="#00A0CE"/>
<path d="M291.467 194.18C298.089 194.18 303.457 188.812 303.457 182.189C303.457 175.567 298.089 170.199 291.467 170.199C284.845 170.199 279.477 175.567 279.477 182.189C279.477 188.812 284.845 194.18 291.467 194.18Z" fill="#060807"/>
<path d="M291.469 187.827C294.583 187.827 297.107 185.303 297.107 182.189C297.107 179.076 294.583 176.552 291.469 176.552C288.356 176.552 285.832 179.076 285.832 182.189C285.832 185.303 288.356 187.827 291.469 187.827Z" fill="#F4F4F4"/>
<path d="M341.49 194.628C348.113 194.628 353.481 189.259 353.481 182.637C353.481 176.015 348.113 170.647 341.49 170.647C334.868 170.647 329.5 176.015 329.5 182.637C329.5 189.259 334.868 194.628 341.49 194.628Z" fill="#060807"/>
<path d="M341.485 188.274C344.598 188.274 347.122 185.75 347.122 182.636C347.122 179.523 344.598 176.999 341.485 176.999C338.372 176.999 335.848 179.523 335.848 182.636C335.848 185.75 338.372 188.274 341.485 188.274Z" fill="#F4F4F4"/>
<path d="M335.761 142.997H343.367C343.367 142.997 345.246 143.534 346.767 145.413C348.288 147.292 352.225 151.05 352.583 153.734C352.852 156.419 351.062 156.777 349.183 156.777C347.304 156.777 335.492 156.777 335.492 156.777C335.492 156.777 332.629 156.329 332.629 154.092C332.629 151.766 332.629 146.307 332.629 146.307C332.629 146.307 332.808 142.997 335.761 142.997Z" fill="white"/>
<path d="M357.863 179.058C357.863 176.195 360.19 173.958 362.964 173.958H368.601C368.601 175.121 368.601 175.3 368.601 175.837C368.601 176.732 368.601 177.448 368.601 178.163C368.601 181.564 366.274 184.159 362.874 184.248C360.1 184.159 357.863 181.922 357.863 179.058Z" fill="white"/>
<path d="M267.488 182.816V173.958H268.294C271.157 173.958 273.394 176.284 273.394 179.058C273.394 181.743 271.336 183.98 268.652 184.159C268.025 184.069 267.488 183.532 267.488 182.816Z" fill="white"/>
<path d="M268.832 126.622H322.52C323.325 126.622 323.952 127.248 323.952 128.054V171.72H324.041V184.247H322.52H304.892C304.982 183.621 305.071 182.905 305.071 182.279C305.071 174.763 298.986 168.678 291.47 168.678C283.954 168.678 277.869 174.763 277.869 182.279C277.869 182.995 277.959 183.621 278.048 184.247H273.753H268.921C268.832 184.247 268.832 184.247 268.742 184.247C271.427 184.069 273.485 181.832 273.485 179.147C273.485 176.284 271.158 174.047 268.384 174.047H267.579V128.143C267.489 127.248 268.116 126.622 268.832 126.622Z" fill="#00649C"/>
<path d="M338.715 551.476V546.555C338.715 545.123 339.878 544.049 341.221 544.049H346.052C346.41 544.049 346.768 544.139 347.126 544.318C347.126 533.043 347.126 510.584 347.126 510.584C347.126 510.584 347.305 504.32 338.983 504.32C330.662 504.32 247.803 504.32 247.803 504.32C247.803 504.32 240.823 503.604 240.823 513.179C240.823 522.842 241.181 528.39 241.181 528.39C241.181 528.39 233.307 529.643 231.696 529.911C230.175 530.18 224.27 531.254 224.27 538.591C224.27 541.096 224.27 542.797 224.27 544.049H228.565C229.996 544.049 231.07 545.213 231.07 546.555V551.476C231.07 552.639 230.265 553.624 229.191 553.892C229.549 553.982 229.996 553.982 230.444 553.982C230.891 553.982 231.875 553.982 233.486 553.982C233.486 553.892 233.486 553.803 233.486 553.713C233.486 546.555 239.302 540.738 246.461 540.738C253.619 540.738 259.435 546.555 259.435 553.713C259.435 553.803 259.435 553.892 259.435 553.982C272.678 553.982 288.338 553.982 302.118 553.982C302.118 553.892 302.118 553.803 302.118 553.713C302.118 546.555 307.934 540.738 315.092 540.738C322.251 540.738 328.067 546.555 328.067 553.713C328.067 553.803 328.067 553.892 328.067 553.982C333.257 553.982 336.389 553.982 336.389 553.982H338.357C338.357 553.982 339.162 553.982 340.326 553.803C339.341 553.445 338.715 552.55 338.715 551.476Z" fill="#00A9A4"/>
<path d="M231.164 551.476V546.555C231.164 545.123 230.001 544.049 228.658 544.049H224.363C224.363 546.465 224.363 547.092 224.363 548.076C224.363 549.508 224.99 553.266 229.285 553.892C230.358 553.624 231.164 552.639 231.164 551.476Z" fill="white"/>
<path d="M347.126 545.213C347.126 544.944 347.126 544.586 347.126 544.228C346.768 544.049 346.41 543.96 346.052 543.96H341.22C339.789 543.96 338.715 545.123 338.715 546.465V551.387C338.715 552.461 339.341 553.355 340.325 553.713C342.831 553.266 347.126 551.566 347.126 545.213Z" fill="white"/>
<path d="M258.005 525.17C258.005 526.602 256.841 527.675 255.499 527.675H249.146C247.714 527.675 246.641 526.512 246.641 525.17V517.296C246.641 515.864 247.804 514.79 249.146 514.79H255.499C256.931 514.79 258.005 515.953 258.005 517.296V525.17Z" fill="white"/>
<path d="M280.375 525.796C280.375 527.228 279.212 528.302 277.87 528.302H267.58C266.148 528.302 265.074 527.139 265.074 525.796V517.296C265.074 515.864 266.238 514.79 267.58 514.79H277.87C279.302 514.79 280.375 515.953 280.375 517.296V525.796Z" fill="white"/>
<path d="M300.774 525.796C300.774 527.228 299.611 528.302 298.268 528.302H287.978C286.546 528.302 285.473 527.139 285.473 525.796V517.296C285.473 515.864 286.636 514.79 287.978 514.79H298.268C299.7 514.79 300.774 515.953 300.774 517.296V525.796Z" fill="white"/>
<path d="M321.176 525.796C321.176 527.228 320.013 528.302 318.671 528.302H308.38C306.949 528.302 305.875 527.139 305.875 525.796V517.296C305.875 515.864 307.038 514.79 308.38 514.79H318.671C320.102 514.79 321.176 515.953 321.176 517.296V525.796Z" fill="white"/>
<path d="M341.578 525.796C341.578 527.228 340.415 528.302 339.073 528.302H328.783C327.351 528.302 326.277 527.139 326.277 525.796V517.296C326.277 515.864 327.441 514.79 328.783 514.79H339.073C340.505 514.79 341.578 515.953 341.578 517.296V525.796Z" fill="white"/>
<path d="M246.552 564.988C252.779 564.988 257.826 559.94 257.826 553.714C257.826 547.487 252.779 542.439 246.552 542.439C240.325 542.439 235.277 547.487 235.277 553.714C235.277 559.94 240.325 564.988 246.552 564.988Z" fill="#090C0B"/>
<path d="M246.553 558.903C249.419 558.903 251.743 556.58 251.743 553.713C251.743 550.847 249.419 548.523 246.553 548.523C243.687 548.523 241.363 550.847 241.363 553.713C241.363 556.58 243.687 558.903 246.553 558.903Z" fill="white"/>
<path d="M315.091 564.988C321.318 564.988 326.365 559.94 326.365 553.714C326.365 547.487 321.318 542.439 315.091 542.439C308.864 542.439 303.816 547.487 303.816 553.714C303.816 559.94 308.864 564.988 315.091 564.988Z" fill="#090C0B"/>
<path d="M315.092 558.903C317.958 558.903 320.282 556.58 320.282 553.713C320.282 550.847 317.958 548.523 315.092 548.523C312.226 548.523 309.902 550.847 309.902 553.713C309.902 556.58 312.226 558.903 315.092 558.903Z" fill="white"/>
</svg>
