<svg width="833" height="875" viewBox="0 0 833 875" fill="none" xmlns="http://www.w3.org/2000/svg">
<path d="M369.742 135.201H273.737C270.564 135.201 267.991 137.785 267.991 140.972V328.298C267.991 331.485 270.564 334.069 273.737 334.069H369.742C372.916 334.069 375.488 331.485 375.488 328.298V140.972C375.488 137.785 372.916 135.201 369.742 135.201Z" fill="#253368"/>
<path d="M275.619 149.389H367.621C368.925 149.389 369.982 150.45 369.982 151.76V317.51C369.982 318.82 368.925 319.881 367.621 319.881H275.619C274.315 319.881 273.258 318.82 273.258 317.51V151.76C273.258 150.45 274.315 149.389 275.619 149.389Z" fill="white"/>
<path d="M274.914 149.148H368.34C369.247 149.148 369.982 149.883 369.982 150.79V156.843H273.258V150.79C273.258 150.352 273.433 149.932 273.744 149.624C274.055 149.316 274.476 149.145 274.914 149.148Z" fill="#597EF7"/>
<path d="M310.368 144.099C311.161 144.099 311.804 143.453 311.804 142.656C311.804 141.859 311.161 141.213 310.368 141.213C309.574 141.213 308.931 141.859 308.931 142.656C308.931 143.453 309.574 144.099 310.368 144.099Z" fill="white"/>
<path d="M369.982 156.121H273.258V235.957H369.982V156.121Z" fill="#E4EBF7"/>
<path d="M330.083 141.453H316.269C315.654 141.453 315.156 141.954 315.156 142.571V142.98C315.156 143.598 315.654 144.098 316.269 144.098H330.083C330.698 144.098 331.197 143.598 331.197 142.98V142.571C331.197 141.954 330.698 141.453 330.083 141.453Z" fill="white"/>
<path d="M338.259 213.834C350.887 213.834 361.123 203.499 361.123 190.749C361.123 178 350.887 167.664 338.259 167.664C325.632 167.664 315.395 178 315.395 190.749C315.395 203.499 325.632 213.834 338.259 213.834Z" fill="white"/>
<path d="M273.258 236.197L292.814 204.173C293.39 203.231 294.375 202.618 295.47 202.52C296.565 202.422 297.642 202.851 298.374 203.676L311.011 217.934C311.901 218.939 313.203 219.475 314.539 219.386C315.875 219.297 317.095 218.594 317.846 217.479L335.057 191.944C335.81 190.826 337.035 190.122 338.375 190.036C339.714 189.951 341.018 190.493 341.906 191.506L369.982 223.55V236.197H273.258Z" fill="#597EF7"/>
<path d="M297.679 164.178C298.009 164.178 298.277 164.447 298.277 164.779C298.277 165.098 298.029 165.359 297.716 165.379L297.679 165.38H279.722C279.392 165.38 279.124 165.111 279.124 164.779C279.124 164.46 279.372 164.199 279.685 164.179L279.722 164.178H297.679Z" fill="#061178"/>
<path d="M291.214 168.746C291.545 168.746 291.813 169.015 291.813 169.347C291.813 169.667 291.565 169.928 291.252 169.947L291.214 169.948H279.722C279.392 169.948 279.124 169.679 279.124 169.347C279.124 169.028 279.372 168.767 279.685 168.747L279.722 168.746H291.214Z" fill="#061178"/>
<path d="M362.56 249.904C362.89 249.904 363.158 250.173 363.158 250.505C363.158 250.825 362.911 251.086 362.598 251.105L362.56 251.107H282.117C281.786 251.107 281.518 250.837 281.518 250.505C281.518 250.186 281.766 249.925 282.079 249.905L282.117 249.904H362.56Z" fill="#A3B5D6"/>
<path d="M362.56 259.043C362.89 259.043 363.158 259.312 363.158 259.644C363.158 259.963 362.911 260.225 362.598 260.244L362.56 260.245H282.117C281.786 260.245 281.518 259.976 281.518 259.644C281.518 259.325 281.766 259.064 282.079 259.044L282.117 259.043H362.56Z" fill="#A3B5D6"/>
<path d="M360.884 267.699C361.214 267.699 361.482 267.968 361.482 268.3C361.482 268.62 361.235 268.881 360.922 268.9L360.884 268.902H282.117C281.786 268.902 281.518 268.632 281.518 268.3C281.518 267.981 281.766 267.72 282.079 267.7L282.117 267.699H360.884Z" fill="#A3B5D6"/>
<path d="M300.791 282.127H282.595C281.538 282.127 280.68 282.988 280.68 284.051V302.326C280.68 303.389 281.538 304.25 282.595 304.25H300.791C301.849 304.25 302.706 303.389 302.706 302.326V284.051C302.706 282.988 301.849 282.127 300.791 282.127Z" fill="#FF7946"/>
<path d="M330.478 282.127H312.283C311.225 282.127 310.367 282.988 310.367 284.051V302.326C310.367 303.389 311.225 304.25 312.283 304.25H330.478C331.536 304.25 332.394 303.389 332.394 302.326V284.051C332.394 282.988 331.536 282.127 330.478 282.127Z" fill="#FAAD14"/>
<path d="M360.166 282.127H341.97C340.912 282.127 340.055 282.988 340.055 284.051V302.326C340.055 303.389 340.912 304.25 341.97 304.25H360.166C361.223 304.25 362.081 303.389 362.081 302.326V284.051C362.081 282.988 361.223 282.127 360.166 282.127Z" fill="#597EF7"/>
<path d="M283.673 253.513C285.061 253.513 286.187 252.382 286.187 250.988C286.187 249.593 285.061 248.463 283.673 248.463C282.284 248.463 281.159 249.593 281.159 250.988C281.159 252.382 282.284 253.513 283.673 253.513Z" fill="#A3B5D6"/>
<path d="M318.388 262.169C319.776 262.169 320.902 261.039 320.902 259.644C320.902 258.25 319.776 257.119 318.388 257.119C317 257.119 315.874 258.25 315.874 259.644C315.874 261.039 317 262.169 318.388 262.169Z" fill="#A3B5D6"/>
<path d="M353.342 270.585C354.731 270.585 355.856 269.455 355.856 268.06C355.856 266.666 354.731 265.535 353.342 265.535C351.954 265.535 350.828 266.666 350.828 268.06C350.828 269.455 351.954 270.585 353.342 270.585Z" fill="#A3B5D6"/>
<path fill-rule="evenodd" clip-rule="evenodd" d="M684.467 256.853L680.93 253.316L709.227 225.02L712.763 228.556L684.467 256.853Z" fill="#E4EBF7"/>
<path fill-rule="evenodd" clip-rule="evenodd" d="M738.426 231.24C720.817 231.24 706.542 216.965 706.542 199.356C706.542 181.747 720.817 167.472 738.426 167.472C756.035 167.472 770.31 181.747 770.31 199.356C770.31 216.965 756.035 231.24 738.426 231.24ZM738.426 156.844C714.947 156.844 695.914 175.877 695.914 199.356C695.914 222.835 714.947 241.868 738.426 241.868C761.905 241.868 780.938 222.835 780.938 199.356C780.938 175.877 761.905 156.844 738.426 156.844Z" fill="#E4EBF7"/>
<path fill-rule="evenodd" clip-rule="evenodd" d="M715.887 199.356C715.887 186.908 725.978 176.816 738.426 176.816C750.875 176.816 760.966 186.908 760.966 199.356C760.966 211.804 750.875 221.895 738.426 221.895C725.978 221.895 715.887 211.804 715.887 199.356Z" fill="#E4EBF7"/>
<path fill-rule="evenodd" clip-rule="evenodd" d="M670.761 270.558L667.225 267.021C666.248 266.045 666.248 264.461 667.225 263.485L692.07 238.639C693.047 237.662 694.63 237.662 695.607 238.639C695.607 238.639 695.607 238.639 695.607 238.639L699.143 242.175C700.12 243.152 700.12 244.735 699.143 245.712L674.298 270.558C673.321 271.534 671.738 271.534 670.761 270.558C670.761 270.558 670.761 270.558 670.761 270.558Z" fill="#E4EBF7"/>
<path fill-rule="evenodd" clip-rule="evenodd" d="M450.671 298.535L446.897 357.515C445.191 384.158 466.215 406.766 492.91 406.998C519.494 407.227 540.86 385.168 539.786 358.606L537.373 298.976L450.671 298.535Z" fill="#F4B784"/>
<path fill-rule="evenodd" clip-rule="evenodd" d="M564.579 304.523C562.24 313.842 555.021 320.062 548.45 318.413C541.879 316.765 538.449 307.873 540.789 298.554C543.126 289.234 550.349 283.015 556.918 284.663C563.489 286.312 566.919 295.202 564.579 304.523Z" fill="#F4B784"/>
<path fill-rule="evenodd" clip-rule="evenodd" d="M427.395 305.353C430.384 314.486 438.027 320.18 444.465 318.073C450.901 315.967 453.697 306.855 450.708 297.724C447.721 288.591 440.075 282.897 433.64 285.002C427.202 287.11 424.406 296.22 427.395 305.353Z" fill="#F4B784"/>
<path fill-rule="evenodd" clip-rule="evenodd" d="M439.78 297.375C439.78 339.898 450.984 352.397 493.007 353.472C528.984 354.39 550.107 343.779 550.107 297.375C550.107 260.172 525.409 236.037 494.942 236.037C464.478 236.037 439.78 264.05 439.78 297.375Z" fill="#FFC999"/>
<path fill-rule="evenodd" clip-rule="evenodd" d="M445.815 282.582C440.904 286.6 444.952 303.269 441.074 304.993C438.489 304.561 438.489 289.045 436.765 269.654C435.626 256.836 439.472 246.208 443.659 241.641C448.4 236.468 452.855 237.208 463.914 227.849C480.723 213.628 515.201 216.645 526.405 233.883C544.935 231.73 563.898 246.812 555.279 281.721C551.313 297.777 551.088 305.519 549.245 304.993C546.228 304.13 550.969 287.753 544.504 282.582C536.413 276.11 540.947 262.419 535.885 256.294C535.885 256.294 497.529 233.451 455.295 256.294C450.986 262.757 455.295 274.824 445.815 282.582Z" fill="#232E36"/>
<path d="M522.913 272.725C518.23 270.562 512.606 269.694 506.174 270.843C504.926 271.066 504.095 272.259 504.318 273.507C504.541 274.755 505.733 275.586 506.981 275.363C512.445 274.387 517.125 275.109 520.988 276.894C521.901 277.316 522.688 277.764 523.344 278.206L523.668 278.431C523.76 278.497 523.837 278.555 523.897 278.601L524.03 278.709C524.985 279.544 526.435 279.447 527.27 278.493C528.105 277.538 528.008 276.088 527.054 275.253C526.277 274.573 524.889 273.638 522.913 272.725Z" fill="#232E36"/>
<path d="M482.837 270.839C477.506 269.911 472.472 270.584 467.975 272.27C466.111 272.969 464.745 273.681 463.958 274.19C462.894 274.879 462.589 276.3 463.278 277.365C463.967 278.429 465.389 278.734 466.453 278.045L466.608 277.951C466.743 277.871 466.944 277.759 467.205 277.623C467.889 277.267 468.686 276.907 469.587 276.57C473.368 275.153 477.594 274.587 482.05 275.362C483.299 275.58 484.488 274.743 484.706 273.494C484.923 272.245 484.086 271.056 482.837 270.839Z" fill="#232E36"/>
<path d="M503.495 276.2C503.107 276.019 502.654 276.152 502.421 276.495L502.351 276.617L498.687 284.48C498.581 284.708 498.58 284.971 498.683 285.199L498.88 285.649C498.96 285.838 499.055 286.065 499.162 286.327L499.272 286.6C499.718 287.712 500.165 288.926 500.581 290.202C501.28 292.343 501.821 294.433 502.144 296.385C503.332 303.573 501.503 307.326 495.459 306.722C494.986 306.674 494.564 307.019 494.517 307.493C494.47 307.966 494.815 308.388 495.288 308.435C502.781 309.184 505.188 304.243 503.843 296.104C503.504 294.057 502.942 291.885 502.218 289.668C501.789 288.354 501.33 287.104 500.87 285.959L500.564 285.212L500.413 284.855L503.912 277.344C504.093 276.956 503.96 276.502 503.617 276.269L503.495 276.2Z" fill="#DD936F"/>
<path fill-rule="evenodd" clip-rule="evenodd" d="M512.15 287.868C512.15 290.97 514.094 293.486 516.491 293.486C518.891 293.486 520.831 290.97 520.831 287.868C520.831 284.764 518.891 282.25 516.491 282.25C514.094 282.25 512.15 284.764 512.15 287.868Z" fill="#232E36"/>
<path fill-rule="evenodd" clip-rule="evenodd" d="M469.915 287.868C469.915 290.97 471.859 293.486 474.256 293.486C476.656 293.486 478.598 290.97 478.598 287.868C478.598 284.764 476.656 282.25 474.256 282.25C471.859 282.25 469.915 284.764 469.915 287.868Z" fill="#232E36"/>
<path fill-rule="evenodd" clip-rule="evenodd" d="M475.548 317.922C475.548 317.922 476.028 307.322 496.234 307.579C506.881 307.714 514.765 311.457 515.628 318.783C516.728 328.123 495.373 317.061 495.373 317.061C495.373 317.061 472.534 327.404 475.548 317.922Z" fill="#232E36"/>
<path d="M499.984 323.965L499.474 324.035C499.193 324.071 498.842 324.111 498.435 324.151C496.805 324.311 495.143 324.381 493.603 324.312C492.563 324.265 491.627 324.155 490.821 323.976C490.357 323.873 489.897 324.165 489.794 324.63C489.691 325.094 489.984 325.554 490.448 325.657C491.361 325.859 492.393 325.981 493.525 326.032C495.158 326.106 496.898 326.032 498.603 325.864L499.423 325.776L500.246 325.667C500.716 325.595 501.038 325.155 500.966 324.685C500.901 324.262 500.538 323.959 500.124 323.955L499.984 323.965Z" fill="#DD936F"/>
<path d="M524.539 348.048C524.279 347.65 523.745 347.538 523.347 347.799L522.999 348.011C522.751 348.156 522.414 348.342 521.989 348.56C520.842 349.149 519.493 349.739 517.955 350.291C511.619 352.564 504.223 353.495 495.967 352.327L495.08 352.194L494.815 352.193C485.422 353.626 477.708 352.794 471.642 350.544C470.269 350.035 469.098 349.491 468.128 348.949L467.688 348.696C467.362 348.502 467.138 348.352 467.016 348.261C466.635 347.977 466.095 348.055 465.811 348.436C465.526 348.817 465.604 349.356 465.985 349.641L466.233 349.815C466.481 349.981 466.832 350.198 467.289 350.453C468.334 351.037 469.586 351.618 471.044 352.159C477.176 354.433 484.875 355.316 494.143 354.031L494.941 353.915L495.729 354.033C503.969 355.198 511.4 354.341 517.827 352.159L518.537 351.911C520.147 351.334 521.563 350.714 522.775 350.092C523.095 349.928 523.384 349.772 523.642 349.626L524.223 349.282C524.249 349.266 524.271 349.252 524.29 349.24C524.688 348.98 524.799 348.446 524.539 348.048Z" fill="#DD936F"/>
<path d="M494.973 342.489C494.546 342.474 494.18 342.775 494.1 343.181L494.084 343.32L493.758 353.016C493.742 353.491 494.114 353.89 494.59 353.905C495.017 353.92 495.383 353.62 495.463 353.213L495.479 353.074L495.805 343.378C495.821 342.903 495.449 342.505 494.973 342.489Z" fill="#DD936F"/>
<path d="M560.509 294.224C559.351 292.014 558.158 290.78 556.661 291.231C554.948 291.747 553.869 294.667 553.13 300.576C553.108 300.754 553.142 300.934 553.227 301.091C554.68 303.791 554.527 305.53 553.493 306.656C553.205 306.97 552.924 307.155 552.772 307.223C552.337 307.416 552.141 307.925 552.335 308.359C552.528 308.794 553.036 308.989 553.471 308.796C553.822 308.64 554.295 308.329 554.761 307.821C556.252 306.198 556.514 303.786 554.933 300.641L554.874 300.525L554.905 300.281C555.526 295.611 556.376 293.262 557.082 292.91L557.157 292.88C557.47 292.786 558.216 293.556 558.984 295.023C559.269 295.566 559.534 296.153 559.771 296.741L559.98 297.279C560.016 297.375 560.044 297.455 560.065 297.514C560.22 297.964 560.709 298.203 561.159 298.049C561.609 297.894 561.848 297.405 561.694 296.955L561.532 296.513C561.484 296.389 561.43 296.249 561.368 296.096C561.111 295.46 560.823 294.823 560.509 294.224Z" fill="#DD936F"/>
<path d="M434.951 291.232C433.452 290.778 432.257 292.012 431.098 294.224C430.784 294.823 430.497 295.46 430.24 296.096L430.01 296.687C429.97 296.794 429.938 296.884 429.914 296.955C429.759 297.405 429.999 297.895 430.448 298.049C430.898 298.204 431.388 297.964 431.542 297.515L431.686 297.122C431.729 297.01 431.78 296.882 431.836 296.741C432.074 296.154 432.339 295.567 432.624 295.023C433.392 293.556 434.138 292.785 434.451 292.88C435.123 293.084 435.939 295.133 436.569 299.316L436.738 300.524L436.676 300.641C435.155 303.665 435.338 306.012 436.68 307.631L436.847 307.822C437.313 308.329 437.786 308.641 438.137 308.797C438.571 308.99 439.08 308.794 439.273 308.359C439.466 307.925 439.27 307.416 438.836 307.223C438.684 307.155 438.403 306.97 438.115 306.657C437.081 305.531 436.928 303.791 438.383 301.092C438.468 300.934 438.502 300.754 438.479 300.576L438.337 299.504C437.603 294.315 436.555 291.719 434.951 291.232Z" fill="#DD936F"/>
<g clip-path="url(#clip0)">
<path fill-rule="evenodd" clip-rule="evenodd" d="M389.777 1014.49C389.777 1014.49 343.744 687.896 369.705 672.504C395.664 657.113 475.881 679.088 484.717 725.795C493.552 772.499 485.865 1015.38 485.865 1015.38C485.865 1015.38 495.838 1043.32 484.441 1052.85C468.314 1061.35 448.995 1033.47 401.131 1044.49C377.711 1035.53 389.777 1014.49 389.777 1014.49Z" fill="#4E5C93"/>
<path fill-rule="evenodd" clip-rule="evenodd" d="M474.442 740.019L549.805 1017.29C549.805 1017.29 541.962 1057.15 569.162 1063.09C577.62 1064.94 592.935 1054.38 610.916 1051.66C628.896 1048.95 649.545 1054.07 653.745 1046.63C662.142 1031.76 651.72 1009.63 651.72 1009.63C651.72 1009.63 615.933 772.903 603.597 684.748C598.583 648.907 479.332 688.002 474.442 740.019Z" fill="#4E5C93"/>
<path d="M455.548 628.271C454.975 628.273 454.504 628.7 454.431 629.252L454.421 629.405L454.538 666.348C454.54 666.972 455.048 667.477 455.672 667.475C456.245 667.473 456.716 667.046 456.789 666.494L456.799 666.341L456.682 629.398C456.68 628.774 456.172 628.27 455.548 628.271Z" fill="#253368"/>
<path fill-rule="evenodd" clip-rule="evenodd" d="M370.671 625.47C370.671 625.47 359.38 696.626 362.321 724.74C365.26 752.853 441.822 783.096 485.085 784.451C508.309 785.179 592.627 759.245 600.745 725.241C611.007 682.256 604.114 668.971 598.123 650.426C593.805 637.055 587.926 619.861 587.926 619.861C587.926 619.861 389.757 626.067 370.671 625.47Z" fill="#4E5C93"/>
<path d="M456.228 674.83C455.607 674.768 455.054 675.222 454.992 675.844L454.897 676.96L454.827 677.913C454.78 678.582 454.734 679.316 454.69 680.113C453.522 701.355 455.207 726.062 462.026 749.611C463.738 755.524 465.745 761.185 468.063 766.562C468.31 767.136 468.975 767.4 469.549 767.153C470.122 766.906 470.386 766.241 470.139 765.667C467.86 760.38 465.885 754.807 464.198 748.982C457.604 726.213 455.866 702.288 456.878 681.583L456.948 680.237C457.002 679.256 457.059 678.372 457.116 677.592L457.242 676.066C457.303 675.445 456.85 674.891 456.228 674.83Z" fill="#253368"/>
<path d="M594.92 645.946C594.704 645.36 594.053 645.061 593.468 645.277C549.101 661.675 508.59 670.172 472.033 672.13C444.307 673.615 420.73 671.278 401.4 666.475C396.406 665.235 392.064 663.912 388.378 662.586L387.599 662.302C386.449 661.878 385.439 661.479 384.571 661.116L384.148 660.937C383.579 660.693 383.205 660.521 383.025 660.433C382.464 660.16 381.787 660.392 381.514 660.954C381.24 661.515 381.473 662.191 382.034 662.465L382.264 662.574C382.449 662.66 382.698 662.772 383.011 662.908L383.257 663.014C384.251 663.44 385.437 663.914 386.816 664.423C390.741 665.873 395.423 667.32 400.855 668.67C420.4 673.525 444.201 675.885 472.154 674.388C508.94 672.417 549.674 663.873 594.252 647.398C594.837 647.182 595.136 646.531 594.92 645.946Z" fill="#253368"/>
<path d="M371.635 624.37C371.011 624.353 370.491 624.845 370.474 625.469C370.459 626.041 370.871 626.525 371.421 626.615L371.574 626.63L588.581 632.519C589.205 632.536 589.725 632.044 589.742 631.42C589.757 630.848 589.345 630.363 588.795 630.274L588.642 630.259L371.635 624.37Z" fill="#253368"/>
<path fill-rule="evenodd" clip-rule="evenodd" d="M253.339 414.233L235.77 354.741C235.77 354.741 206.324 306.325 195.414 309.178C185.262 313.116 207.894 327.113 212.237 340.755C202.635 340.036 206.822 353.131 206.822 353.131C206.822 353.131 199.173 352.801 201.086 363.459C193.931 367.227 199.456 379.49 199.456 379.49C199.456 379.49 213.29 411.784 228.809 433.382C228.809 433.382 254.792 452.133 253.339 414.233Z" fill="#FFC999"/>
<path fill-rule="evenodd" clip-rule="evenodd" d="M249.528 394.153C249.528 394.153 247.064 373.785 245.155 363.401C243.247 353.019 248.296 334.349 239.953 339.23C234.342 342.511 235.16 353.652 235.246 361.863C235.334 370.077 220.548 389.396 231.186 402.97C238.368 412.142 249.883 413.449 249.528 394.153Z" fill="#FFC999"/>
<path d="M211.632 340.16C211.304 340.494 211.309 341.031 211.643 341.359L212.168 341.889L212.837 342.582C213.072 342.828 213.316 343.087 213.57 343.361C215.022 344.922 216.473 346.591 217.826 348.297C219.167 349.988 220.337 351.625 221.287 353.17L221.73 353.91C224.619 358.88 224.697 362.077 221.484 363.264C221.045 363.426 220.82 363.913 220.983 364.353C221.145 364.792 221.632 365.016 222.072 364.854C226.867 363.083 226.532 358.464 222.731 352.282C221.743 350.674 220.534 348.984 219.155 347.244C217.772 345.499 216.292 343.798 214.812 342.206L214.064 341.411C213.945 341.286 213.828 341.164 213.714 341.046L212.831 340.149C212.497 339.821 211.961 339.826 211.632 340.16Z" fill="#7C5B4D"/>
<path d="M207.035 353.038C206.763 353.418 206.85 353.948 207.231 354.221L207.788 354.63L208.497 355.167C208.745 355.358 209.004 355.559 209.274 355.771C210.812 356.982 212.35 358.279 213.783 359.609C215.295 361.013 216.6 362.371 217.634 363.648C220.499 367.187 220.943 369.537 218.754 370.734C217.875 371.214 216.891 371.331 215.791 371.116C214.114 370.788 212.253 369.71 210.358 368.112C209.527 367.411 208.746 366.659 208.04 365.906L207.709 365.547C207.458 365.271 207.273 365.055 207.161 364.918C206.866 364.554 206.332 364.5 205.968 364.795C205.605 365.091 205.551 365.625 205.846 365.988L206.104 366.293C206.307 366.527 206.541 366.787 206.804 367.066C207.552 367.864 208.379 368.662 209.265 369.408C211.361 371.175 213.45 372.386 215.466 372.78C216.935 373.067 218.32 372.903 219.567 372.222C223.05 370.318 222.39 366.828 218.952 362.581C217.861 361.234 216.503 359.821 214.936 358.366C213.466 357.002 211.894 355.676 210.322 354.439L209.528 353.821L208.218 352.842C207.838 352.57 207.308 352.657 207.035 353.038Z" fill="#7C5B4D"/>
<path d="M203.763 363.42C203.301 363.349 202.868 363.667 202.797 364.13C202.727 364.593 203.045 365.026 203.508 365.096C205.141 365.346 207.143 366.669 209.508 369.271C214.459 374.718 215.46 378.228 213.796 379.095C212.067 379.995 208.298 378.381 205.943 375.225C205.315 374.383 204.019 375.209 204.517 376.134C207.533 381.736 211.128 385.511 215.722 388.448C216.867 389.18 218.062 389.855 219.456 390.576L220.482 391.097L223.028 392.352C230.468 396.034 233.363 398.98 234.884 406.379C234.978 406.837 235.427 407.133 235.885 407.038C236.344 406.944 236.639 406.496 236.545 406.037C234.936 398.212 231.784 394.869 224.286 391.085L219.857 388.877C218.342 388.104 217.849 387.795 216.636 387.019C213.939 385.295 211.611 383.273 209.546 380.715L209.004 380.022L209.156 380.101C211.036 381.034 212.935 381.308 214.337 380.713L214.579 380.599C217.701 378.973 216.367 374.296 210.763 368.13C208.16 365.267 205.848 363.738 203.763 363.42Z" fill="#7C5B4D"/>
<path d="M235.225 350.757C234.806 350.713 234.426 350.982 234.319 351.376L234.294 351.512L232.682 366.922L232.545 367.131L232.227 367.633C232.116 367.813 232 368.004 231.88 368.206C231.196 369.359 230.512 370.642 229.874 372.024C228.035 376.008 226.931 380.003 226.938 383.769C226.943 386.621 227.596 389.228 228.986 391.517C229.23 391.917 229.751 392.044 230.151 391.801C230.551 391.558 230.679 391.036 230.435 390.636C229.215 388.628 228.638 386.323 228.633 383.766C228.628 380.284 229.669 376.515 231.414 372.735C232.026 371.408 232.682 370.176 233.338 369.072L233.738 368.413C233.937 368.093 234.094 367.854 234.199 367.703C234.253 367.625 234.294 367.538 234.319 367.447L234.346 367.308L235.98 351.688C236.029 351.222 235.691 350.805 235.225 350.757Z" fill="#7C5B4D"/>
<g clip-path="url(#clip1)">
<path fill-rule="evenodd" clip-rule="evenodd" d="M481.638 598.067L529.353 677.507C534.859 686.672 546.576 689.927 556.019 684.908L764.724 574.012C802.865 551.554 815.583 502.43 793.125 464.289C770.841 426.442 722.301 413.632 684.287 435.379C683.699 435.714 683.122 436.082 682.568 436.469L487.45 571.174C478.721 577.201 476.176 588.973 481.638 598.067Z" fill="#E4EBF7"/>
</g>
<path fill-rule="evenodd" clip-rule="evenodd" d="M658.593 590.914C683.921 581.459 696.699 553.183 687.057 527.927L648.688 427.421C639.147 402.428 611.23 389.812 586.166 399.167C560.838 408.622 548.06 436.899 557.702 462.157L596.071 562.66C605.612 587.654 633.529 600.269 658.593 590.914Z" fill="#E4EBF7"/>
<path fill-rule="evenodd" clip-rule="evenodd" d="M366.564 539.315C366.564 539.315 315.639 624.614 401.2 652.538C431.143 662.309 460.93 661.276 488.786 659.625C545.578 656.259 584.933 642.463 592.543 634.164C612.985 611.876 603.695 577.901 608.332 524.542C612.56 475.891 656.179 428.034 629.464 401.182C609.345 389.039 569.774 369.885 542.718 362.282C522.063 356.476 507.896 393.78 487.61 393.389C470.773 393.061 461.192 362.998 445.762 366.084C407.567 373.724 390.753 373.81 370.647 392.821C370.647 392.821 364.392 416.415 375.474 470.567C375.474 470.567 364.927 517.778 366.564 539.315Z" fill="#E4EBF7"/>
<path fill-rule="evenodd" clip-rule="evenodd" d="M447.069 374.756C447.069 374.756 448.943 442.471 471.861 496.579C518.523 416.521 542.395 365.39 543.661 365.254L486.218 389.567L447.069 374.756Z" fill="white"/>
<path fill-rule="evenodd" clip-rule="evenodd" d="M461.941 399.589L482.124 385.572L504.326 401.095L493.213 419.715L467.6 419.058L461.941 399.589Z" fill="#003951"/>
<path fill-rule="evenodd" clip-rule="evenodd" d="M455.808 447.552L468.057 418.816L493.508 419.612L501.493 443.887L473.103 500.6L455.808 447.552Z" fill="#003951"/>
<path fill-rule="evenodd" clip-rule="evenodd" d="M449.6 406.465L484.197 386.318L451.444 361.092L445.758 366.432L449.6 406.465Z" fill="white"/>
<path fill-rule="evenodd" clip-rule="evenodd" d="M484.196 386.319L513.199 409.305L544.299 365.273L538.174 357.439L484.196 386.319Z" fill="white"/>
<path fill-rule="evenodd" clip-rule="evenodd" d="M448.301 408.078L482.944 385.642L451.113 358.109L442.244 368.019L448.301 408.078Z" fill="white"/>
<path d="M451.853 357.254L483.683 384.787C484.253 385.279 484.191 386.181 483.558 386.59L448.915 409.027C448.226 409.473 447.306 409.059 447.183 408.247L441.126 368.187C441.076 367.854 441.177 367.515 441.402 367.264L450.271 357.355C450.683 356.895 451.386 356.85 451.853 357.254ZM451.215 359.69L443.443 368.375L449.157 406.176L481.068 385.511L451.215 359.69Z" fill="#E4EBF7"/>
<path fill-rule="evenodd" clip-rule="evenodd" d="M482.944 385.642L518.966 410.007L547.485 363.702L536.16 353.979L482.944 385.642Z" fill="white"/>
<path d="M480.837 385.581L536.281 352.592L548.954 363.474L519.311 411.604L480.837 385.581ZM536.041 355.365L485.053 385.702L518.623 408.41L546.017 363.932L536.041 355.365Z" fill="#E4EBF7"/>
<path d="M472.625 505.004C472.057 504.939 471.539 505.307 471.402 505.847L471.374 505.998L466.315 550.265L466.09 550.595L465.852 550.959C465.358 551.726 464.811 552.65 464.224 553.736C462.556 556.817 460.893 560.575 459.343 565.033C451.697 587.029 449.547 616.744 456.211 654.856C456.318 655.471 456.904 655.883 457.519 655.775C458.134 655.668 458.545 655.082 458.438 654.467C451.839 616.727 453.961 587.401 461.479 565.775C462.988 561.434 464.602 557.787 466.212 554.812C466.679 553.949 467.116 553.198 467.517 552.555L467.966 551.857C468.125 551.617 468.241 551.453 468.308 551.364C468.398 551.243 468.463 551.107 468.5 550.961L468.526 550.814L473.62 506.255C473.691 505.635 473.246 505.074 472.625 505.004Z" fill="#A3B5D6"/>
<path d="M365.869 418.521C365.251 418.435 364.68 418.866 364.594 419.485L364.449 420.614L364.362 421.348C364.188 422.832 364.015 424.502 363.854 426.325C363.212 433.57 362.935 440.968 363.233 447.884C363.543 455.105 364.466 461.268 366.121 466.067L366.28 466.512L365.437 540.303L364.947 541.268L364.442 542.298C364.094 543.018 363.723 543.806 363.335 544.658C361.67 548.306 360.007 552.384 358.455 556.795C353.53 570.786 350.806 584.87 351.435 598.052C352.542 621.243 363.935 638.872 387.988 648.468L388.564 648.729C388.757 648.814 388.986 648.914 389.25 649.027L390.169 649.414C390.81 649.68 391.508 649.96 392.262 650.253L392.838 650.475C396.737 651.969 401.213 653.461 406.201 654.853C413.114 656.782 420.457 658.362 428.149 659.47C478.098 666.668 547.429 659 591.127 637.725C591.688 637.451 591.921 636.775 591.648 636.214C591.375 635.652 590.698 635.419 590.137 635.692C546.882 656.751 478.001 664.37 428.471 657.233C420.879 656.138 413.631 654.579 406.809 652.675C401.891 651.303 397.482 649.833 393.646 648.364L392.539 647.934C391.829 647.653 391.175 647.386 390.578 647.135L389.304 646.584C389.137 646.509 389 646.447 388.888 646.395C365.635 637.116 354.76 620.287 353.693 597.944C353.08 585.096 355.751 571.284 360.587 557.546C362.116 553.202 363.754 549.186 365.391 545.597L365.949 544.391C366.131 544.005 366.306 543.636 366.477 543.283L366.97 542.277C367.254 541.707 367.456 541.318 367.561 541.122C367.618 541.015 367.657 540.9 367.678 540.782L367.694 540.602L368.542 466.335C368.544 466.197 368.52 466.061 368.473 465.931C366.767 461.302 365.807 455.123 365.491 447.787C365.199 440.983 365.472 433.678 366.106 426.525L366.245 425.019C366.34 424.041 366.437 423.115 366.534 422.249L366.693 420.89L366.834 419.796C366.92 419.177 366.488 418.607 365.869 418.521Z" fill="#A3B5D6"/>
<path d="M548.829 362.842C548.343 362.45 547.632 362.527 547.24 363.013C539.605 372.496 529.801 388.536 518.32 409.812C515.136 415.712 511.851 421.965 508.481 428.527C500.631 443.815 492.653 460.121 484.913 476.493L481.942 482.805C480.428 486.037 478.987 489.136 477.628 492.078L474.008 499.968L473.602 500.859L472.91 498.871C468.474 485.943 463.902 469.163 459.288 449.409L458.95 447.956C455.153 431.593 451.534 414.131 448.196 396.6L446.972 390.105C446.33 386.659 445.727 383.356 445.163 380.22L444.114 374.306L443.057 368.158C442.955 367.542 442.373 367.126 441.757 367.228C441.192 367.322 440.795 367.819 440.812 368.376L440.883 368.863L442.011 375.403L442.938 380.619C443.583 384.209 444.28 388.017 445.028 392.007L445.31 393.511C448.836 412.245 452.69 430.979 456.747 448.467L457.426 451.372C462.513 472.998 467.548 491.005 472.422 504.255C472.752 505.15 473.947 505.244 474.432 504.481L474.614 504.107L477.435 497.906L479.103 494.276C481.009 490.142 483.084 485.683 485.304 480.965C493.548 463.439 502.095 445.914 510.493 429.56C513.482 423.739 516.404 418.162 519.247 412.861L520.31 410.886C531.73 389.724 541.476 373.778 549.001 364.431C549.393 363.945 549.316 363.233 548.829 362.842Z" fill="#A3B5D6"/>
<path d="M509.546 553.383C484.187 550.461 462.399 550.171 445.15 551.429L442.964 551.6C442.042 551.678 441.186 551.757 440.398 551.837L438.748 552.016L437.97 552.113C437.351 552.197 436.919 552.768 437.003 553.386C437.088 554.005 437.658 554.437 438.277 554.353L439.334 554.225L440.058 554.145C441.542 553.988 443.298 553.831 445.315 553.684L447.524 553.533C464.276 552.465 485.148 552.848 509.287 555.629C509.908 555.7 510.468 555.255 510.54 554.635C510.611 554.015 510.166 553.454 509.546 553.383Z" fill="#A3B5D6"/>
<path d="M489.703 532.272L488.362 532.353C485.285 532.516 480.448 532.652 474.292 532.763L472.789 532.79C469.759 532.841 466.573 532.884 463.344 532.92L453.392 533.007C452.768 533.01 452.265 533.519 452.268 534.143C452.271 534.716 452.699 535.186 453.251 535.258L453.542 535.267L459.475 535.22L465.303 535.158C467.23 535.135 469.133 535.109 470.989 535.08L477.342 534.965C483.025 534.846 487.332 534.701 489.857 534.528C490.48 534.485 490.951 533.946 490.908 533.323C490.865 532.7 490.326 532.23 489.703 532.272Z" fill="#A3B5D6"/>
<path fill-rule="evenodd" clip-rule="evenodd" d="M241.284 394.505L210.882 415.999C201.975 422.295 199.723 434.553 205.816 443.606L272.936 543.368C289.033 564.914 319.548 569.331 341.093 553.234C362.244 537.435 366.89 507.741 351.83 486.275C351.265 485.472 350.623 484.719 349.947 484.007L267.442 397.078C260.573 389.841 249.432 388.744 241.284 394.505Z" fill="#E4EBF7"/>
<path d="M269.561 397.313C269.131 396.86 268.416 396.842 267.963 397.271C267.551 397.662 267.498 398.289 267.815 398.74L267.921 398.87L350.426 485.799C351.121 486.531 351.708 487.233 352.202 487.938C352.56 488.449 353.265 488.572 353.776 488.214C354.287 487.855 354.411 487.15 354.052 486.639C353.602 485.997 353.092 485.366 352.513 484.725L352.066 484.243L269.561 397.313Z" fill="#A3B5D6"/>
<path d="M595.137 470.708C594.565 470.686 594.075 471.091 593.978 471.639L593.961 471.792L591.546 530.992C591.54 531.14 591.563 531.288 591.614 531.427L592.113 532.85L592.653 534.453C592.84 535.021 593.035 535.621 593.237 536.253L593.441 536.895C594.817 541.248 596.193 546.076 597.477 551.245C600.685 564.155 602.783 576.971 603.247 588.923C604.019 608.779 600.203 624.386 590.798 634.168C590.366 634.618 590.38 635.334 590.83 635.766C591.28 636.199 591.995 636.185 592.428 635.735C602.345 625.42 606.3 609.246 605.506 588.835C605.035 576.71 602.914 563.748 599.672 550.7C598.493 545.957 597.238 541.499 595.976 537.424L595.597 536.214C595.319 535.334 595.052 534.509 594.799 533.742L593.939 531.214L593.815 530.862L596.22 471.884C596.243 471.313 595.838 470.823 595.289 470.725L595.137 470.708Z" fill="#A3B5D6"/>
<path fill-rule="evenodd" clip-rule="evenodd" d="M277.799 547.878C296.834 567.156 327.943 567.192 347.022 547.959L431.107 463.189C449.906 444.236 449.942 413.683 431.187 394.685C412.152 375.407 381.043 375.371 361.964 394.606L277.879 479.374C259.08 498.327 259.043 528.882 277.799 547.878Z" fill="#E4EBF7"/>
</g>
<path fill-rule="evenodd" clip-rule="evenodd" d="M748.287 567.999H713.181V447.721C713.181 438.148 720.999 430.387 730.643 430.387H730.826C740.47 430.387 748.287 438.148 748.287 447.721V567.999Z" fill="#7CB305"/>
<path fill-rule="evenodd" clip-rule="evenodd" d="M765.745 597.439H730.537V534.633C730.537 525.312 738.182 517.756 747.613 517.756H748.669C758.1 517.756 765.745 525.312 765.745 534.633V597.439Z" fill="#5B8C00"/>
<path fill-rule="evenodd" clip-rule="evenodd" d="M718.331 567.936H682.888V499.65C682.888 490.277 690.553 482.678 700.009 482.678H701.211C710.666 482.678 718.331 490.277 718.331 499.65V567.936Z" fill="#7CB305"/>
<path fill-rule="evenodd" clip-rule="evenodd" d="M767.839 667.693H675.638C671.994 667.693 669.04 664.77 669.04 661.163V570.464C669.04 566.857 671.994 563.934 675.638 563.934H767.839C771.484 563.934 774.438 566.857 774.438 570.464V661.163C774.438 664.77 771.484 667.693 767.839 667.693Z" fill="#253368"/>
<g clip-path="url(#clip2)">
<path d="M128.817 683.748L185.987 730.393" stroke="#E4E6EF" stroke-width="1.88133" stroke-linecap="round"/>
<path d="M125.905 693.383C134.388 689.585 138.185 679.562 134.386 670.996C130.587 662.43 120.631 658.565 112.148 662.363C103.665 666.161 99.868 676.184 103.667 684.75C107.466 693.316 117.422 697.181 125.905 693.383Z" fill="#E4E6EF"/>
<path d="M305.603 650.113C314.086 646.315 317.883 636.292 314.084 627.726C310.285 619.161 300.329 615.296 291.846 619.094C283.364 622.892 279.567 632.915 283.365 641.48C287.164 650.046 297.121 653.911 305.603 650.113Z" fill="#E4E6EF"/>
<path d="M209.557 741.232L225.39 602.728" stroke="#E4E6EF" stroke-width="1.88133" stroke-linecap="round"/>
<path d="M202.573 725.75C211.056 721.952 221.012 725.817 224.811 734.383C228.61 742.949 224.813 752.971 216.33 756.769C207.847 760.568 197.891 756.703 194.092 748.137C190.293 739.571 194.09 729.548 202.573 725.75Z" fill="#E4E6EF"/>
<path d="M228.987 575.557L280.047 619.484" stroke="#E4E6EF" stroke-width="1.88133" stroke-linecap="round"/>
<path d="M244.686 581.609C241.347 590.316 231.607 594.677 222.931 591.35C214.255 588.022 209.928 578.267 213.267 569.56C216.606 560.853 226.347 556.492 235.023 559.819C243.699 563.147 248.025 572.902 244.686 581.609Z" fill="#E4E6EF"/>
</g>
<path d="M129.963 332.891H42.7983C40.4335 332.891 38.5164 334.808 38.5164 337.172V458.988H116.384C116.384 472.065 127.566 481.203 140.665 481.136C153.539 481.071 164.071 470.158 164.071 457.286V366.831H141.343C137.718 366.831 129.963 358.896 129.963 355.272V332.891Z" fill="#E4EBF7"/>
<path d="M116.555 458.604H27.248C27.248 470.286 35.7457 478.732 46.8946 480.603L50.8196 480.932L140.305 480.753C127.288 480.753 116.223 470.757 116.555 458.604Z" fill="#FAAD14"/>
<path d="M76.9122 344.316H57.4155C56.4932 344.316 55.7455 345.064 55.7455 345.986V365.483C55.7455 366.405 56.4932 367.153 57.4155 367.153H76.9122C77.8344 367.153 78.5821 366.405 78.5821 365.483V345.986C78.5821 345.064 77.8344 344.316 76.9122 344.316Z" fill="#597EF7"/>
<path d="M139.673 378.393H57.3762C56.4539 378.393 55.7063 379.14 55.7063 380.063V382.432C55.7063 383.354 56.4539 384.102 57.3762 384.102H139.673C140.596 384.102 141.343 383.354 141.343 382.432V380.063C141.343 379.14 140.596 378.393 139.673 378.393Z" fill="#597EF7"/>
<path d="M139.673 395.582H57.3762C56.4539 395.582 55.7063 396.33 55.7063 397.252V399.621C55.7063 400.544 56.4539 401.291 57.3762 401.291H139.673C140.596 401.291 141.343 400.544 141.343 399.621V397.252C141.343 396.33 140.596 395.582 139.673 395.582Z" fill="#597EF7"/>
<path d="M139.673 412.771H57.3762C56.4539 412.771 55.7063 413.519 55.7063 414.441V416.811C55.7063 417.733 56.4539 418.481 57.3762 418.481H139.673C140.596 418.481 141.343 417.733 141.343 416.811V414.441C141.343 413.519 140.596 412.771 139.673 412.771Z" fill="#597EF7"/>
<path opacity="0.6" d="M129.952 361.369V365.829C129.952 366.788 130.351 367.703 131.053 368.355C131.756 369.007 132.698 369.337 133.654 369.266L164.187 366.994L129.952 361.369Z" fill="#CCD7EE"/>
<path d="M147.65 349.885L129.914 332.781L129.961 365.562C129.961 366.351 130.6 366.99 131.388 366.99H164.187L147.65 349.885Z" fill="#FAAD14"/>
<defs>
<clipPath id="clip0">
<rect x="163.736" y="128.82" width="673.872" height="618.576" rx="309.288" fill="white"/>
</clipPath>
<clipPath id="clip1">
<rect width="324.941" height="248.047" fill="white" transform="matrix(-1 0 0 1 804.741 425.637)"/>
</clipPath>
<clipPath id="clip2">
<rect width="283" height="282" fill="white" transform="translate(27.7148 740.236) rotate(-69.0186)"/>
</clipPath>
</defs>
</svg>
