<svg width="330" height="330" viewBox="0 0 330 330" fill="none" xmlns="http://www.w3.org/2000/svg">
<path d="M25.7475 245.203C24.49 245.203 23.3348 244.511 22.7459 243.4C16.8849 232.353 15.1077 219.608 17.4707 205.527C19.7078 192.187 25.5622 178.201 34.8716 163.954C53.7915 135 84.9827 108.025 122.697 87.9995C160.411 67.9743 200.227 57.2551 234.817 57.8011C251.83 58.0692 266.696 61.0543 278.997 66.6737C291.99 72.6075 301.548 81.2152 307.415 92.2654C308.293 93.9204 307.664 95.974 306.009 96.8522C304.354 97.7305 302.3 97.1007 301.422 95.4457C296.272 85.7491 287.78 78.1441 276.181 72.8457C264.734 67.6202 250.781 64.8403 234.707 64.5722C201.249 64.0361 162.598 74.5004 125.88 93.9797C89.1625 113.459 58.8549 139.653 40.5505 167.667C31.7574 181.126 26.2439 194.238 24.1623 206.649C22.0509 219.224 23.5931 230.52 28.7425 240.216C29.2994 241.265 29.2676 242.529 28.6585 243.549C28.0495 244.569 26.9518 245.196 25.7641 245.203H25.7475Z" fill="#FF7946"/>
<path opacity="0.33" d="M159.742 279.04C226.716 279.04 281.009 224.747 281.009 157.773C281.009 90.7989 226.716 36.5059 159.742 36.5059C92.7686 36.5059 38.4755 90.7989 38.4755 157.773C38.4755 224.747 92.7686 279.04 159.742 279.04Z" fill="#4E5C93"/>
<path d="M241.283 187.21C248.425 168.161 251.999 161.016 241.283 157.776C230.567 154.536 215.089 175.303 200.792 165.285C186.496 155.268 205.555 133.634 199.601 121.25C193.647 108.866 186.502 107.44 190.077 84.0392C191.89 72.165 202.881 59.0101 213.269 48.9362C196.623 40.736 178.312 36.4826 159.756 36.506C154.909 36.506 150.067 36.7935 145.254 37.3665C155.311 59.4072 137.063 75.481 123.412 97.7832C106.742 125.036 112.696 141.967 147.223 148.526C181.75 155.086 178.179 196.735 147.223 207.434C116.267 218.133 125.791 174.115 106.742 173.9C87.6932 173.685 68.6442 169.353 67.4528 151.512C66.7909 141.395 53.8478 131.933 42.7778 125.639C39.9125 136.11 38.4656 146.919 38.4755 157.776C38.4755 224.749 92.7698 279.043 159.746 279.043C190.798 279.083 220.675 267.17 243.179 245.774C234.648 226.003 236.048 201.173 241.283 187.21Z" fill="#597EF7"/>
<path d="M67.4528 151.511C68.6442 169.352 87.6932 173.684 106.742 173.9C125.791 174.115 116.267 218.166 147.223 207.45C178.179 196.734 181.75 155.085 147.223 148.543C112.696 142 106.742 125.046 123.412 97.7995C137.05 75.4973 155.298 59.4103 145.254 37.3828C95.884 43.2471 55.6249 78.7737 42.7778 125.638C53.8544 131.933 66.7777 141.394 67.4528 151.511Z" fill="#4E5C93"/>
<path d="M67.4528 151.511C68.6442 169.352 87.6932 173.684 106.742 173.9C125.791 174.115 116.267 218.166 147.223 207.45C178.179 196.734 181.75 155.085 147.223 148.543C112.696 142 106.742 125.046 123.412 97.7995C137.05 75.4973 155.298 59.4103 145.254 37.3828C95.884 43.2471 55.6249 78.7737 42.7778 125.638C53.8544 131.933 66.7777 141.394 67.4528 151.511Z" fill="#E4EBF7"/>
<path d="M281.009 157.776C281.009 110.017 253.402 68.7093 213.279 48.9355C202.891 59.0094 191.9 72.1643 190.086 84.0385C186.512 107.439 193.657 108.859 199.611 121.25C205.565 133.64 186.512 155.267 200.792 165.285C215.073 175.302 230.577 154.532 241.283 157.776C251.989 161.019 248.425 168.161 241.283 187.21C236.048 201.172 234.648 226.003 243.179 245.786C267.367 222.908 281.053 191.069 281.009 157.776Z" fill="#7CB305"/>
<path d="M205.879 248.06C204.319 248.064 202.957 247.003 202.579 245.489C202.201 243.975 202.905 242.399 204.284 241.669C241.018 222.174 271.306 195.999 289.611 167.999C298.42 154.542 303.917 141.414 305.999 129.014C308.11 116.438 306.571 105.143 301.422 95.4462C300.544 93.7912 301.173 91.7376 302.828 90.8593C304.483 89.9811 306.537 90.6108 307.415 92.2658C313.279 103.313 315.057 116.054 312.71 130.139C310.47 143.479 304.615 157.465 295.309 171.708C276.389 200.666 245.198 227.637 207.481 247.663C206.988 247.925 206.438 248.062 205.879 248.06Z" fill="#FAAD14"/>
<path d="M98.5414 293.336C113.352 293.336 125.358 281.329 125.358 266.519C125.358 251.709 113.352 239.703 98.5414 239.703C83.7313 239.703 71.7253 251.709 71.7253 266.519C71.7253 281.329 83.7313 293.336 98.5414 293.336Z" fill="#FF7946"/>
</svg>
